%
M48
M72
T01C0.01378
T02C0.03200
T03C0.03600
T04C0.04000
T05C0.04400
T06C0.12598
T07C0.13000
%
T01
X81250Y11500
X106250Y21500
X121250Y26500
X182500Y24000
X296250Y10250
X298750Y62750
X301250Y66500
X311250Y101500
X325000Y157750
X410000Y181500
X447500Y215250
X442500Y285250
X423750Y146500
X425000Y136500
X415000Y127750
X412500Y81500
X392500Y50250
X402500Y37750
X396250Y36500
X198750Y195250
X193750Y197750
X218750Y205250
X218750Y210250
X228750Y220250
X196250Y246500
X46250Y151500
T02
X146250Y161500
X146250Y171500
X146250Y181500
X146250Y191500
X146250Y201500
X146250Y211500
X146250Y221500
X146250Y231500
X246250Y216500
X246250Y206500
X246250Y196500
X246250Y186500
X246250Y176500
X381250Y61500
X381250Y46500
X381250Y31500
X376250Y11500
X366250Y11500
X386250Y11500
X396250Y11500
X406250Y11500
X341250Y31500
X341250Y46500
X301250Y46500
X296250Y54000
X291250Y46500
X266250Y51500
X266250Y31500
X226250Y31500
X226250Y51500
X186250Y16500
X151250Y16500
X436250Y121500
X436250Y131500
X436250Y141500
X436250Y151500
X436250Y161500
X436250Y171500
X436250Y206500
X436250Y216500
X436250Y226500
X436250Y236500
X436250Y246500
X436250Y256500
X431250Y296500
X441250Y296500
X451250Y296500
X461250Y296500
X471250Y296500
X481250Y296500
X491250Y296500
X501250Y296500
X511250Y296500
X306250Y331500
X306250Y366500
X266250Y366500
X266250Y331500
X206250Y331500
X206250Y361500
X166250Y361500
X136250Y376500
X126250Y376500
X116250Y376500
X106250Y376500
X96250Y376500
X86250Y376500
X76250Y376500
X66250Y376500
X56250Y376500
X166250Y331500
X446250Y81500
X456250Y81500
X466250Y81500
X476250Y81500
X486250Y81500
X496250Y81500
X506250Y81500
T03
X46250Y46500
X46250Y56500
X61250Y56500
X61250Y46500
X76250Y46500
X76250Y56500
X91250Y56500
X91250Y46500
X106250Y46500
X106250Y56500
X121250Y56500
X121250Y46500
X136250Y46500
X136250Y56500
X151250Y56500
X151250Y46500
X166250Y46500
X166250Y56500
X181250Y56500
X181250Y46500
X196250Y46500
X196250Y56500
T04
X196250Y96500
X186250Y96500
X176250Y96500
X166250Y96500
X156250Y96500
X206250Y96500
X226250Y96500
X236250Y96500
X246250Y96500
X256250Y96500
X266250Y96500
X276250Y96500
X286250Y96500
X296250Y96500
X316250Y96500
X326250Y96500
X336250Y96500
X346250Y96500
X356250Y96500
X366250Y96500
X376250Y96500
X386250Y96500
X396250Y116500
X406250Y116500
X406250Y126500
X396250Y126500
X396250Y136500
X406250Y136500
X406250Y146500
X396250Y146500
X396250Y156500
X406250Y156500
X406250Y166500
X396250Y166500
X396250Y176500
X406250Y176500
X406250Y186500
X396250Y186500
X396250Y196500
X406250Y196500
X406250Y206500
X396250Y206500
X396250Y216500
X406250Y216500
X406250Y226500
X396250Y226500
X396250Y236500
X406250Y236500
X406250Y246500
X396250Y246500
X396250Y256500
X406250Y256500
X406250Y266500
X396250Y266500
X396250Y276500
X406250Y276500
X406250Y286500
X396250Y286500
X366250Y286500
X356250Y286500
X346250Y286500
X336250Y286500
X326250Y286500
X316250Y286500
X306250Y286500
X296250Y286500
X276250Y286500
X266250Y286500
X256250Y286500
X246250Y286500
X236250Y286500
X226250Y286500
X216250Y286500
X206250Y286500
X190250Y286500
X180250Y286500
X170250Y286500
X160250Y286500
X150250Y286500
X140250Y286500
X130250Y286500
X120250Y286500
X181250Y386500
X191250Y386500
X201250Y386500
X276250Y386500
X286250Y386500
X296250Y386500
X296250Y21500
X286250Y21500
X306250Y21500
T05
X326250Y386500
X336250Y386500
X346250Y386500
X246250Y386500
X236250Y386500
X226250Y386500
T06
X86250Y286500
X286250Y226500
X381250Y286500
X286250Y116500
X406250Y96500
X81250Y96500
T07
X236250Y317500
X336250Y317500
M30
