G75*
%MOIN*%
%OFA0B0*%
%FSLAX25Y25*%
%IPPOS*%
%LPD*%
%AMOC8*
5,1,8,0,0,1.08239X$1,22.5*
%
%ADD10C,0.00000*%
%ADD11C,0.00600*%
D10*
X0026250Y0001500D02*
X0026250Y0406461D01*
X0526451Y0405961D01*
X0526451Y0001000D01*
X0026250Y0001500D01*
X0074951Y0096500D02*
X0074953Y0096658D01*
X0074959Y0096816D01*
X0074969Y0096974D01*
X0074983Y0097132D01*
X0075001Y0097289D01*
X0075022Y0097446D01*
X0075048Y0097602D01*
X0075078Y0097758D01*
X0075111Y0097913D01*
X0075149Y0098066D01*
X0075190Y0098219D01*
X0075235Y0098371D01*
X0075284Y0098522D01*
X0075337Y0098671D01*
X0075393Y0098819D01*
X0075453Y0098965D01*
X0075517Y0099110D01*
X0075585Y0099253D01*
X0075656Y0099395D01*
X0075730Y0099535D01*
X0075808Y0099672D01*
X0075890Y0099808D01*
X0075974Y0099942D01*
X0076063Y0100073D01*
X0076154Y0100202D01*
X0076249Y0100329D01*
X0076346Y0100454D01*
X0076447Y0100576D01*
X0076551Y0100695D01*
X0076658Y0100812D01*
X0076768Y0100926D01*
X0076881Y0101037D01*
X0076996Y0101146D01*
X0077114Y0101251D01*
X0077235Y0101353D01*
X0077358Y0101453D01*
X0077484Y0101549D01*
X0077612Y0101642D01*
X0077742Y0101732D01*
X0077875Y0101818D01*
X0078010Y0101902D01*
X0078146Y0101981D01*
X0078285Y0102058D01*
X0078426Y0102130D01*
X0078568Y0102200D01*
X0078712Y0102265D01*
X0078858Y0102327D01*
X0079005Y0102385D01*
X0079154Y0102440D01*
X0079304Y0102491D01*
X0079455Y0102538D01*
X0079607Y0102581D01*
X0079760Y0102620D01*
X0079915Y0102656D01*
X0080070Y0102687D01*
X0080226Y0102715D01*
X0080382Y0102739D01*
X0080539Y0102759D01*
X0080697Y0102775D01*
X0080854Y0102787D01*
X0081013Y0102795D01*
X0081171Y0102799D01*
X0081329Y0102799D01*
X0081487Y0102795D01*
X0081646Y0102787D01*
X0081803Y0102775D01*
X0081961Y0102759D01*
X0082118Y0102739D01*
X0082274Y0102715D01*
X0082430Y0102687D01*
X0082585Y0102656D01*
X0082740Y0102620D01*
X0082893Y0102581D01*
X0083045Y0102538D01*
X0083196Y0102491D01*
X0083346Y0102440D01*
X0083495Y0102385D01*
X0083642Y0102327D01*
X0083788Y0102265D01*
X0083932Y0102200D01*
X0084074Y0102130D01*
X0084215Y0102058D01*
X0084354Y0101981D01*
X0084490Y0101902D01*
X0084625Y0101818D01*
X0084758Y0101732D01*
X0084888Y0101642D01*
X0085016Y0101549D01*
X0085142Y0101453D01*
X0085265Y0101353D01*
X0085386Y0101251D01*
X0085504Y0101146D01*
X0085619Y0101037D01*
X0085732Y0100926D01*
X0085842Y0100812D01*
X0085949Y0100695D01*
X0086053Y0100576D01*
X0086154Y0100454D01*
X0086251Y0100329D01*
X0086346Y0100202D01*
X0086437Y0100073D01*
X0086526Y0099942D01*
X0086610Y0099808D01*
X0086692Y0099672D01*
X0086770Y0099535D01*
X0086844Y0099395D01*
X0086915Y0099253D01*
X0086983Y0099110D01*
X0087047Y0098965D01*
X0087107Y0098819D01*
X0087163Y0098671D01*
X0087216Y0098522D01*
X0087265Y0098371D01*
X0087310Y0098219D01*
X0087351Y0098066D01*
X0087389Y0097913D01*
X0087422Y0097758D01*
X0087452Y0097602D01*
X0087478Y0097446D01*
X0087499Y0097289D01*
X0087517Y0097132D01*
X0087531Y0096974D01*
X0087541Y0096816D01*
X0087547Y0096658D01*
X0087549Y0096500D01*
X0087547Y0096342D01*
X0087541Y0096184D01*
X0087531Y0096026D01*
X0087517Y0095868D01*
X0087499Y0095711D01*
X0087478Y0095554D01*
X0087452Y0095398D01*
X0087422Y0095242D01*
X0087389Y0095087D01*
X0087351Y0094934D01*
X0087310Y0094781D01*
X0087265Y0094629D01*
X0087216Y0094478D01*
X0087163Y0094329D01*
X0087107Y0094181D01*
X0087047Y0094035D01*
X0086983Y0093890D01*
X0086915Y0093747D01*
X0086844Y0093605D01*
X0086770Y0093465D01*
X0086692Y0093328D01*
X0086610Y0093192D01*
X0086526Y0093058D01*
X0086437Y0092927D01*
X0086346Y0092798D01*
X0086251Y0092671D01*
X0086154Y0092546D01*
X0086053Y0092424D01*
X0085949Y0092305D01*
X0085842Y0092188D01*
X0085732Y0092074D01*
X0085619Y0091963D01*
X0085504Y0091854D01*
X0085386Y0091749D01*
X0085265Y0091647D01*
X0085142Y0091547D01*
X0085016Y0091451D01*
X0084888Y0091358D01*
X0084758Y0091268D01*
X0084625Y0091182D01*
X0084490Y0091098D01*
X0084354Y0091019D01*
X0084215Y0090942D01*
X0084074Y0090870D01*
X0083932Y0090800D01*
X0083788Y0090735D01*
X0083642Y0090673D01*
X0083495Y0090615D01*
X0083346Y0090560D01*
X0083196Y0090509D01*
X0083045Y0090462D01*
X0082893Y0090419D01*
X0082740Y0090380D01*
X0082585Y0090344D01*
X0082430Y0090313D01*
X0082274Y0090285D01*
X0082118Y0090261D01*
X0081961Y0090241D01*
X0081803Y0090225D01*
X0081646Y0090213D01*
X0081487Y0090205D01*
X0081329Y0090201D01*
X0081171Y0090201D01*
X0081013Y0090205D01*
X0080854Y0090213D01*
X0080697Y0090225D01*
X0080539Y0090241D01*
X0080382Y0090261D01*
X0080226Y0090285D01*
X0080070Y0090313D01*
X0079915Y0090344D01*
X0079760Y0090380D01*
X0079607Y0090419D01*
X0079455Y0090462D01*
X0079304Y0090509D01*
X0079154Y0090560D01*
X0079005Y0090615D01*
X0078858Y0090673D01*
X0078712Y0090735D01*
X0078568Y0090800D01*
X0078426Y0090870D01*
X0078285Y0090942D01*
X0078146Y0091019D01*
X0078010Y0091098D01*
X0077875Y0091182D01*
X0077742Y0091268D01*
X0077612Y0091358D01*
X0077484Y0091451D01*
X0077358Y0091547D01*
X0077235Y0091647D01*
X0077114Y0091749D01*
X0076996Y0091854D01*
X0076881Y0091963D01*
X0076768Y0092074D01*
X0076658Y0092188D01*
X0076551Y0092305D01*
X0076447Y0092424D01*
X0076346Y0092546D01*
X0076249Y0092671D01*
X0076154Y0092798D01*
X0076063Y0092927D01*
X0075974Y0093058D01*
X0075890Y0093192D01*
X0075808Y0093328D01*
X0075730Y0093465D01*
X0075656Y0093605D01*
X0075585Y0093747D01*
X0075517Y0093890D01*
X0075453Y0094035D01*
X0075393Y0094181D01*
X0075337Y0094329D01*
X0075284Y0094478D01*
X0075235Y0094629D01*
X0075190Y0094781D01*
X0075149Y0094934D01*
X0075111Y0095087D01*
X0075078Y0095242D01*
X0075048Y0095398D01*
X0075022Y0095554D01*
X0075001Y0095711D01*
X0074983Y0095868D01*
X0074969Y0096026D01*
X0074959Y0096184D01*
X0074953Y0096342D01*
X0074951Y0096500D01*
X0279951Y0116500D02*
X0279953Y0116658D01*
X0279959Y0116816D01*
X0279969Y0116974D01*
X0279983Y0117132D01*
X0280001Y0117289D01*
X0280022Y0117446D01*
X0280048Y0117602D01*
X0280078Y0117758D01*
X0280111Y0117913D01*
X0280149Y0118066D01*
X0280190Y0118219D01*
X0280235Y0118371D01*
X0280284Y0118522D01*
X0280337Y0118671D01*
X0280393Y0118819D01*
X0280453Y0118965D01*
X0280517Y0119110D01*
X0280585Y0119253D01*
X0280656Y0119395D01*
X0280730Y0119535D01*
X0280808Y0119672D01*
X0280890Y0119808D01*
X0280974Y0119942D01*
X0281063Y0120073D01*
X0281154Y0120202D01*
X0281249Y0120329D01*
X0281346Y0120454D01*
X0281447Y0120576D01*
X0281551Y0120695D01*
X0281658Y0120812D01*
X0281768Y0120926D01*
X0281881Y0121037D01*
X0281996Y0121146D01*
X0282114Y0121251D01*
X0282235Y0121353D01*
X0282358Y0121453D01*
X0282484Y0121549D01*
X0282612Y0121642D01*
X0282742Y0121732D01*
X0282875Y0121818D01*
X0283010Y0121902D01*
X0283146Y0121981D01*
X0283285Y0122058D01*
X0283426Y0122130D01*
X0283568Y0122200D01*
X0283712Y0122265D01*
X0283858Y0122327D01*
X0284005Y0122385D01*
X0284154Y0122440D01*
X0284304Y0122491D01*
X0284455Y0122538D01*
X0284607Y0122581D01*
X0284760Y0122620D01*
X0284915Y0122656D01*
X0285070Y0122687D01*
X0285226Y0122715D01*
X0285382Y0122739D01*
X0285539Y0122759D01*
X0285697Y0122775D01*
X0285854Y0122787D01*
X0286013Y0122795D01*
X0286171Y0122799D01*
X0286329Y0122799D01*
X0286487Y0122795D01*
X0286646Y0122787D01*
X0286803Y0122775D01*
X0286961Y0122759D01*
X0287118Y0122739D01*
X0287274Y0122715D01*
X0287430Y0122687D01*
X0287585Y0122656D01*
X0287740Y0122620D01*
X0287893Y0122581D01*
X0288045Y0122538D01*
X0288196Y0122491D01*
X0288346Y0122440D01*
X0288495Y0122385D01*
X0288642Y0122327D01*
X0288788Y0122265D01*
X0288932Y0122200D01*
X0289074Y0122130D01*
X0289215Y0122058D01*
X0289354Y0121981D01*
X0289490Y0121902D01*
X0289625Y0121818D01*
X0289758Y0121732D01*
X0289888Y0121642D01*
X0290016Y0121549D01*
X0290142Y0121453D01*
X0290265Y0121353D01*
X0290386Y0121251D01*
X0290504Y0121146D01*
X0290619Y0121037D01*
X0290732Y0120926D01*
X0290842Y0120812D01*
X0290949Y0120695D01*
X0291053Y0120576D01*
X0291154Y0120454D01*
X0291251Y0120329D01*
X0291346Y0120202D01*
X0291437Y0120073D01*
X0291526Y0119942D01*
X0291610Y0119808D01*
X0291692Y0119672D01*
X0291770Y0119535D01*
X0291844Y0119395D01*
X0291915Y0119253D01*
X0291983Y0119110D01*
X0292047Y0118965D01*
X0292107Y0118819D01*
X0292163Y0118671D01*
X0292216Y0118522D01*
X0292265Y0118371D01*
X0292310Y0118219D01*
X0292351Y0118066D01*
X0292389Y0117913D01*
X0292422Y0117758D01*
X0292452Y0117602D01*
X0292478Y0117446D01*
X0292499Y0117289D01*
X0292517Y0117132D01*
X0292531Y0116974D01*
X0292541Y0116816D01*
X0292547Y0116658D01*
X0292549Y0116500D01*
X0292547Y0116342D01*
X0292541Y0116184D01*
X0292531Y0116026D01*
X0292517Y0115868D01*
X0292499Y0115711D01*
X0292478Y0115554D01*
X0292452Y0115398D01*
X0292422Y0115242D01*
X0292389Y0115087D01*
X0292351Y0114934D01*
X0292310Y0114781D01*
X0292265Y0114629D01*
X0292216Y0114478D01*
X0292163Y0114329D01*
X0292107Y0114181D01*
X0292047Y0114035D01*
X0291983Y0113890D01*
X0291915Y0113747D01*
X0291844Y0113605D01*
X0291770Y0113465D01*
X0291692Y0113328D01*
X0291610Y0113192D01*
X0291526Y0113058D01*
X0291437Y0112927D01*
X0291346Y0112798D01*
X0291251Y0112671D01*
X0291154Y0112546D01*
X0291053Y0112424D01*
X0290949Y0112305D01*
X0290842Y0112188D01*
X0290732Y0112074D01*
X0290619Y0111963D01*
X0290504Y0111854D01*
X0290386Y0111749D01*
X0290265Y0111647D01*
X0290142Y0111547D01*
X0290016Y0111451D01*
X0289888Y0111358D01*
X0289758Y0111268D01*
X0289625Y0111182D01*
X0289490Y0111098D01*
X0289354Y0111019D01*
X0289215Y0110942D01*
X0289074Y0110870D01*
X0288932Y0110800D01*
X0288788Y0110735D01*
X0288642Y0110673D01*
X0288495Y0110615D01*
X0288346Y0110560D01*
X0288196Y0110509D01*
X0288045Y0110462D01*
X0287893Y0110419D01*
X0287740Y0110380D01*
X0287585Y0110344D01*
X0287430Y0110313D01*
X0287274Y0110285D01*
X0287118Y0110261D01*
X0286961Y0110241D01*
X0286803Y0110225D01*
X0286646Y0110213D01*
X0286487Y0110205D01*
X0286329Y0110201D01*
X0286171Y0110201D01*
X0286013Y0110205D01*
X0285854Y0110213D01*
X0285697Y0110225D01*
X0285539Y0110241D01*
X0285382Y0110261D01*
X0285226Y0110285D01*
X0285070Y0110313D01*
X0284915Y0110344D01*
X0284760Y0110380D01*
X0284607Y0110419D01*
X0284455Y0110462D01*
X0284304Y0110509D01*
X0284154Y0110560D01*
X0284005Y0110615D01*
X0283858Y0110673D01*
X0283712Y0110735D01*
X0283568Y0110800D01*
X0283426Y0110870D01*
X0283285Y0110942D01*
X0283146Y0111019D01*
X0283010Y0111098D01*
X0282875Y0111182D01*
X0282742Y0111268D01*
X0282612Y0111358D01*
X0282484Y0111451D01*
X0282358Y0111547D01*
X0282235Y0111647D01*
X0282114Y0111749D01*
X0281996Y0111854D01*
X0281881Y0111963D01*
X0281768Y0112074D01*
X0281658Y0112188D01*
X0281551Y0112305D01*
X0281447Y0112424D01*
X0281346Y0112546D01*
X0281249Y0112671D01*
X0281154Y0112798D01*
X0281063Y0112927D01*
X0280974Y0113058D01*
X0280890Y0113192D01*
X0280808Y0113328D01*
X0280730Y0113465D01*
X0280656Y0113605D01*
X0280585Y0113747D01*
X0280517Y0113890D01*
X0280453Y0114035D01*
X0280393Y0114181D01*
X0280337Y0114329D01*
X0280284Y0114478D01*
X0280235Y0114629D01*
X0280190Y0114781D01*
X0280149Y0114934D01*
X0280111Y0115087D01*
X0280078Y0115242D01*
X0280048Y0115398D01*
X0280022Y0115554D01*
X0280001Y0115711D01*
X0279983Y0115868D01*
X0279969Y0116026D01*
X0279959Y0116184D01*
X0279953Y0116342D01*
X0279951Y0116500D01*
X0399951Y0096500D02*
X0399953Y0096658D01*
X0399959Y0096816D01*
X0399969Y0096974D01*
X0399983Y0097132D01*
X0400001Y0097289D01*
X0400022Y0097446D01*
X0400048Y0097602D01*
X0400078Y0097758D01*
X0400111Y0097913D01*
X0400149Y0098066D01*
X0400190Y0098219D01*
X0400235Y0098371D01*
X0400284Y0098522D01*
X0400337Y0098671D01*
X0400393Y0098819D01*
X0400453Y0098965D01*
X0400517Y0099110D01*
X0400585Y0099253D01*
X0400656Y0099395D01*
X0400730Y0099535D01*
X0400808Y0099672D01*
X0400890Y0099808D01*
X0400974Y0099942D01*
X0401063Y0100073D01*
X0401154Y0100202D01*
X0401249Y0100329D01*
X0401346Y0100454D01*
X0401447Y0100576D01*
X0401551Y0100695D01*
X0401658Y0100812D01*
X0401768Y0100926D01*
X0401881Y0101037D01*
X0401996Y0101146D01*
X0402114Y0101251D01*
X0402235Y0101353D01*
X0402358Y0101453D01*
X0402484Y0101549D01*
X0402612Y0101642D01*
X0402742Y0101732D01*
X0402875Y0101818D01*
X0403010Y0101902D01*
X0403146Y0101981D01*
X0403285Y0102058D01*
X0403426Y0102130D01*
X0403568Y0102200D01*
X0403712Y0102265D01*
X0403858Y0102327D01*
X0404005Y0102385D01*
X0404154Y0102440D01*
X0404304Y0102491D01*
X0404455Y0102538D01*
X0404607Y0102581D01*
X0404760Y0102620D01*
X0404915Y0102656D01*
X0405070Y0102687D01*
X0405226Y0102715D01*
X0405382Y0102739D01*
X0405539Y0102759D01*
X0405697Y0102775D01*
X0405854Y0102787D01*
X0406013Y0102795D01*
X0406171Y0102799D01*
X0406329Y0102799D01*
X0406487Y0102795D01*
X0406646Y0102787D01*
X0406803Y0102775D01*
X0406961Y0102759D01*
X0407118Y0102739D01*
X0407274Y0102715D01*
X0407430Y0102687D01*
X0407585Y0102656D01*
X0407740Y0102620D01*
X0407893Y0102581D01*
X0408045Y0102538D01*
X0408196Y0102491D01*
X0408346Y0102440D01*
X0408495Y0102385D01*
X0408642Y0102327D01*
X0408788Y0102265D01*
X0408932Y0102200D01*
X0409074Y0102130D01*
X0409215Y0102058D01*
X0409354Y0101981D01*
X0409490Y0101902D01*
X0409625Y0101818D01*
X0409758Y0101732D01*
X0409888Y0101642D01*
X0410016Y0101549D01*
X0410142Y0101453D01*
X0410265Y0101353D01*
X0410386Y0101251D01*
X0410504Y0101146D01*
X0410619Y0101037D01*
X0410732Y0100926D01*
X0410842Y0100812D01*
X0410949Y0100695D01*
X0411053Y0100576D01*
X0411154Y0100454D01*
X0411251Y0100329D01*
X0411346Y0100202D01*
X0411437Y0100073D01*
X0411526Y0099942D01*
X0411610Y0099808D01*
X0411692Y0099672D01*
X0411770Y0099535D01*
X0411844Y0099395D01*
X0411915Y0099253D01*
X0411983Y0099110D01*
X0412047Y0098965D01*
X0412107Y0098819D01*
X0412163Y0098671D01*
X0412216Y0098522D01*
X0412265Y0098371D01*
X0412310Y0098219D01*
X0412351Y0098066D01*
X0412389Y0097913D01*
X0412422Y0097758D01*
X0412452Y0097602D01*
X0412478Y0097446D01*
X0412499Y0097289D01*
X0412517Y0097132D01*
X0412531Y0096974D01*
X0412541Y0096816D01*
X0412547Y0096658D01*
X0412549Y0096500D01*
X0412547Y0096342D01*
X0412541Y0096184D01*
X0412531Y0096026D01*
X0412517Y0095868D01*
X0412499Y0095711D01*
X0412478Y0095554D01*
X0412452Y0095398D01*
X0412422Y0095242D01*
X0412389Y0095087D01*
X0412351Y0094934D01*
X0412310Y0094781D01*
X0412265Y0094629D01*
X0412216Y0094478D01*
X0412163Y0094329D01*
X0412107Y0094181D01*
X0412047Y0094035D01*
X0411983Y0093890D01*
X0411915Y0093747D01*
X0411844Y0093605D01*
X0411770Y0093465D01*
X0411692Y0093328D01*
X0411610Y0093192D01*
X0411526Y0093058D01*
X0411437Y0092927D01*
X0411346Y0092798D01*
X0411251Y0092671D01*
X0411154Y0092546D01*
X0411053Y0092424D01*
X0410949Y0092305D01*
X0410842Y0092188D01*
X0410732Y0092074D01*
X0410619Y0091963D01*
X0410504Y0091854D01*
X0410386Y0091749D01*
X0410265Y0091647D01*
X0410142Y0091547D01*
X0410016Y0091451D01*
X0409888Y0091358D01*
X0409758Y0091268D01*
X0409625Y0091182D01*
X0409490Y0091098D01*
X0409354Y0091019D01*
X0409215Y0090942D01*
X0409074Y0090870D01*
X0408932Y0090800D01*
X0408788Y0090735D01*
X0408642Y0090673D01*
X0408495Y0090615D01*
X0408346Y0090560D01*
X0408196Y0090509D01*
X0408045Y0090462D01*
X0407893Y0090419D01*
X0407740Y0090380D01*
X0407585Y0090344D01*
X0407430Y0090313D01*
X0407274Y0090285D01*
X0407118Y0090261D01*
X0406961Y0090241D01*
X0406803Y0090225D01*
X0406646Y0090213D01*
X0406487Y0090205D01*
X0406329Y0090201D01*
X0406171Y0090201D01*
X0406013Y0090205D01*
X0405854Y0090213D01*
X0405697Y0090225D01*
X0405539Y0090241D01*
X0405382Y0090261D01*
X0405226Y0090285D01*
X0405070Y0090313D01*
X0404915Y0090344D01*
X0404760Y0090380D01*
X0404607Y0090419D01*
X0404455Y0090462D01*
X0404304Y0090509D01*
X0404154Y0090560D01*
X0404005Y0090615D01*
X0403858Y0090673D01*
X0403712Y0090735D01*
X0403568Y0090800D01*
X0403426Y0090870D01*
X0403285Y0090942D01*
X0403146Y0091019D01*
X0403010Y0091098D01*
X0402875Y0091182D01*
X0402742Y0091268D01*
X0402612Y0091358D01*
X0402484Y0091451D01*
X0402358Y0091547D01*
X0402235Y0091647D01*
X0402114Y0091749D01*
X0401996Y0091854D01*
X0401881Y0091963D01*
X0401768Y0092074D01*
X0401658Y0092188D01*
X0401551Y0092305D01*
X0401447Y0092424D01*
X0401346Y0092546D01*
X0401249Y0092671D01*
X0401154Y0092798D01*
X0401063Y0092927D01*
X0400974Y0093058D01*
X0400890Y0093192D01*
X0400808Y0093328D01*
X0400730Y0093465D01*
X0400656Y0093605D01*
X0400585Y0093747D01*
X0400517Y0093890D01*
X0400453Y0094035D01*
X0400393Y0094181D01*
X0400337Y0094329D01*
X0400284Y0094478D01*
X0400235Y0094629D01*
X0400190Y0094781D01*
X0400149Y0094934D01*
X0400111Y0095087D01*
X0400078Y0095242D01*
X0400048Y0095398D01*
X0400022Y0095554D01*
X0400001Y0095711D01*
X0399983Y0095868D01*
X0399969Y0096026D01*
X0399959Y0096184D01*
X0399953Y0096342D01*
X0399951Y0096500D01*
X0279951Y0226500D02*
X0279953Y0226658D01*
X0279959Y0226816D01*
X0279969Y0226974D01*
X0279983Y0227132D01*
X0280001Y0227289D01*
X0280022Y0227446D01*
X0280048Y0227602D01*
X0280078Y0227758D01*
X0280111Y0227913D01*
X0280149Y0228066D01*
X0280190Y0228219D01*
X0280235Y0228371D01*
X0280284Y0228522D01*
X0280337Y0228671D01*
X0280393Y0228819D01*
X0280453Y0228965D01*
X0280517Y0229110D01*
X0280585Y0229253D01*
X0280656Y0229395D01*
X0280730Y0229535D01*
X0280808Y0229672D01*
X0280890Y0229808D01*
X0280974Y0229942D01*
X0281063Y0230073D01*
X0281154Y0230202D01*
X0281249Y0230329D01*
X0281346Y0230454D01*
X0281447Y0230576D01*
X0281551Y0230695D01*
X0281658Y0230812D01*
X0281768Y0230926D01*
X0281881Y0231037D01*
X0281996Y0231146D01*
X0282114Y0231251D01*
X0282235Y0231353D01*
X0282358Y0231453D01*
X0282484Y0231549D01*
X0282612Y0231642D01*
X0282742Y0231732D01*
X0282875Y0231818D01*
X0283010Y0231902D01*
X0283146Y0231981D01*
X0283285Y0232058D01*
X0283426Y0232130D01*
X0283568Y0232200D01*
X0283712Y0232265D01*
X0283858Y0232327D01*
X0284005Y0232385D01*
X0284154Y0232440D01*
X0284304Y0232491D01*
X0284455Y0232538D01*
X0284607Y0232581D01*
X0284760Y0232620D01*
X0284915Y0232656D01*
X0285070Y0232687D01*
X0285226Y0232715D01*
X0285382Y0232739D01*
X0285539Y0232759D01*
X0285697Y0232775D01*
X0285854Y0232787D01*
X0286013Y0232795D01*
X0286171Y0232799D01*
X0286329Y0232799D01*
X0286487Y0232795D01*
X0286646Y0232787D01*
X0286803Y0232775D01*
X0286961Y0232759D01*
X0287118Y0232739D01*
X0287274Y0232715D01*
X0287430Y0232687D01*
X0287585Y0232656D01*
X0287740Y0232620D01*
X0287893Y0232581D01*
X0288045Y0232538D01*
X0288196Y0232491D01*
X0288346Y0232440D01*
X0288495Y0232385D01*
X0288642Y0232327D01*
X0288788Y0232265D01*
X0288932Y0232200D01*
X0289074Y0232130D01*
X0289215Y0232058D01*
X0289354Y0231981D01*
X0289490Y0231902D01*
X0289625Y0231818D01*
X0289758Y0231732D01*
X0289888Y0231642D01*
X0290016Y0231549D01*
X0290142Y0231453D01*
X0290265Y0231353D01*
X0290386Y0231251D01*
X0290504Y0231146D01*
X0290619Y0231037D01*
X0290732Y0230926D01*
X0290842Y0230812D01*
X0290949Y0230695D01*
X0291053Y0230576D01*
X0291154Y0230454D01*
X0291251Y0230329D01*
X0291346Y0230202D01*
X0291437Y0230073D01*
X0291526Y0229942D01*
X0291610Y0229808D01*
X0291692Y0229672D01*
X0291770Y0229535D01*
X0291844Y0229395D01*
X0291915Y0229253D01*
X0291983Y0229110D01*
X0292047Y0228965D01*
X0292107Y0228819D01*
X0292163Y0228671D01*
X0292216Y0228522D01*
X0292265Y0228371D01*
X0292310Y0228219D01*
X0292351Y0228066D01*
X0292389Y0227913D01*
X0292422Y0227758D01*
X0292452Y0227602D01*
X0292478Y0227446D01*
X0292499Y0227289D01*
X0292517Y0227132D01*
X0292531Y0226974D01*
X0292541Y0226816D01*
X0292547Y0226658D01*
X0292549Y0226500D01*
X0292547Y0226342D01*
X0292541Y0226184D01*
X0292531Y0226026D01*
X0292517Y0225868D01*
X0292499Y0225711D01*
X0292478Y0225554D01*
X0292452Y0225398D01*
X0292422Y0225242D01*
X0292389Y0225087D01*
X0292351Y0224934D01*
X0292310Y0224781D01*
X0292265Y0224629D01*
X0292216Y0224478D01*
X0292163Y0224329D01*
X0292107Y0224181D01*
X0292047Y0224035D01*
X0291983Y0223890D01*
X0291915Y0223747D01*
X0291844Y0223605D01*
X0291770Y0223465D01*
X0291692Y0223328D01*
X0291610Y0223192D01*
X0291526Y0223058D01*
X0291437Y0222927D01*
X0291346Y0222798D01*
X0291251Y0222671D01*
X0291154Y0222546D01*
X0291053Y0222424D01*
X0290949Y0222305D01*
X0290842Y0222188D01*
X0290732Y0222074D01*
X0290619Y0221963D01*
X0290504Y0221854D01*
X0290386Y0221749D01*
X0290265Y0221647D01*
X0290142Y0221547D01*
X0290016Y0221451D01*
X0289888Y0221358D01*
X0289758Y0221268D01*
X0289625Y0221182D01*
X0289490Y0221098D01*
X0289354Y0221019D01*
X0289215Y0220942D01*
X0289074Y0220870D01*
X0288932Y0220800D01*
X0288788Y0220735D01*
X0288642Y0220673D01*
X0288495Y0220615D01*
X0288346Y0220560D01*
X0288196Y0220509D01*
X0288045Y0220462D01*
X0287893Y0220419D01*
X0287740Y0220380D01*
X0287585Y0220344D01*
X0287430Y0220313D01*
X0287274Y0220285D01*
X0287118Y0220261D01*
X0286961Y0220241D01*
X0286803Y0220225D01*
X0286646Y0220213D01*
X0286487Y0220205D01*
X0286329Y0220201D01*
X0286171Y0220201D01*
X0286013Y0220205D01*
X0285854Y0220213D01*
X0285697Y0220225D01*
X0285539Y0220241D01*
X0285382Y0220261D01*
X0285226Y0220285D01*
X0285070Y0220313D01*
X0284915Y0220344D01*
X0284760Y0220380D01*
X0284607Y0220419D01*
X0284455Y0220462D01*
X0284304Y0220509D01*
X0284154Y0220560D01*
X0284005Y0220615D01*
X0283858Y0220673D01*
X0283712Y0220735D01*
X0283568Y0220800D01*
X0283426Y0220870D01*
X0283285Y0220942D01*
X0283146Y0221019D01*
X0283010Y0221098D01*
X0282875Y0221182D01*
X0282742Y0221268D01*
X0282612Y0221358D01*
X0282484Y0221451D01*
X0282358Y0221547D01*
X0282235Y0221647D01*
X0282114Y0221749D01*
X0281996Y0221854D01*
X0281881Y0221963D01*
X0281768Y0222074D01*
X0281658Y0222188D01*
X0281551Y0222305D01*
X0281447Y0222424D01*
X0281346Y0222546D01*
X0281249Y0222671D01*
X0281154Y0222798D01*
X0281063Y0222927D01*
X0280974Y0223058D01*
X0280890Y0223192D01*
X0280808Y0223328D01*
X0280730Y0223465D01*
X0280656Y0223605D01*
X0280585Y0223747D01*
X0280517Y0223890D01*
X0280453Y0224035D01*
X0280393Y0224181D01*
X0280337Y0224329D01*
X0280284Y0224478D01*
X0280235Y0224629D01*
X0280190Y0224781D01*
X0280149Y0224934D01*
X0280111Y0225087D01*
X0280078Y0225242D01*
X0280048Y0225398D01*
X0280022Y0225554D01*
X0280001Y0225711D01*
X0279983Y0225868D01*
X0279969Y0226026D01*
X0279959Y0226184D01*
X0279953Y0226342D01*
X0279951Y0226500D01*
X0374951Y0286500D02*
X0374953Y0286658D01*
X0374959Y0286816D01*
X0374969Y0286974D01*
X0374983Y0287132D01*
X0375001Y0287289D01*
X0375022Y0287446D01*
X0375048Y0287602D01*
X0375078Y0287758D01*
X0375111Y0287913D01*
X0375149Y0288066D01*
X0375190Y0288219D01*
X0375235Y0288371D01*
X0375284Y0288522D01*
X0375337Y0288671D01*
X0375393Y0288819D01*
X0375453Y0288965D01*
X0375517Y0289110D01*
X0375585Y0289253D01*
X0375656Y0289395D01*
X0375730Y0289535D01*
X0375808Y0289672D01*
X0375890Y0289808D01*
X0375974Y0289942D01*
X0376063Y0290073D01*
X0376154Y0290202D01*
X0376249Y0290329D01*
X0376346Y0290454D01*
X0376447Y0290576D01*
X0376551Y0290695D01*
X0376658Y0290812D01*
X0376768Y0290926D01*
X0376881Y0291037D01*
X0376996Y0291146D01*
X0377114Y0291251D01*
X0377235Y0291353D01*
X0377358Y0291453D01*
X0377484Y0291549D01*
X0377612Y0291642D01*
X0377742Y0291732D01*
X0377875Y0291818D01*
X0378010Y0291902D01*
X0378146Y0291981D01*
X0378285Y0292058D01*
X0378426Y0292130D01*
X0378568Y0292200D01*
X0378712Y0292265D01*
X0378858Y0292327D01*
X0379005Y0292385D01*
X0379154Y0292440D01*
X0379304Y0292491D01*
X0379455Y0292538D01*
X0379607Y0292581D01*
X0379760Y0292620D01*
X0379915Y0292656D01*
X0380070Y0292687D01*
X0380226Y0292715D01*
X0380382Y0292739D01*
X0380539Y0292759D01*
X0380697Y0292775D01*
X0380854Y0292787D01*
X0381013Y0292795D01*
X0381171Y0292799D01*
X0381329Y0292799D01*
X0381487Y0292795D01*
X0381646Y0292787D01*
X0381803Y0292775D01*
X0381961Y0292759D01*
X0382118Y0292739D01*
X0382274Y0292715D01*
X0382430Y0292687D01*
X0382585Y0292656D01*
X0382740Y0292620D01*
X0382893Y0292581D01*
X0383045Y0292538D01*
X0383196Y0292491D01*
X0383346Y0292440D01*
X0383495Y0292385D01*
X0383642Y0292327D01*
X0383788Y0292265D01*
X0383932Y0292200D01*
X0384074Y0292130D01*
X0384215Y0292058D01*
X0384354Y0291981D01*
X0384490Y0291902D01*
X0384625Y0291818D01*
X0384758Y0291732D01*
X0384888Y0291642D01*
X0385016Y0291549D01*
X0385142Y0291453D01*
X0385265Y0291353D01*
X0385386Y0291251D01*
X0385504Y0291146D01*
X0385619Y0291037D01*
X0385732Y0290926D01*
X0385842Y0290812D01*
X0385949Y0290695D01*
X0386053Y0290576D01*
X0386154Y0290454D01*
X0386251Y0290329D01*
X0386346Y0290202D01*
X0386437Y0290073D01*
X0386526Y0289942D01*
X0386610Y0289808D01*
X0386692Y0289672D01*
X0386770Y0289535D01*
X0386844Y0289395D01*
X0386915Y0289253D01*
X0386983Y0289110D01*
X0387047Y0288965D01*
X0387107Y0288819D01*
X0387163Y0288671D01*
X0387216Y0288522D01*
X0387265Y0288371D01*
X0387310Y0288219D01*
X0387351Y0288066D01*
X0387389Y0287913D01*
X0387422Y0287758D01*
X0387452Y0287602D01*
X0387478Y0287446D01*
X0387499Y0287289D01*
X0387517Y0287132D01*
X0387531Y0286974D01*
X0387541Y0286816D01*
X0387547Y0286658D01*
X0387549Y0286500D01*
X0387547Y0286342D01*
X0387541Y0286184D01*
X0387531Y0286026D01*
X0387517Y0285868D01*
X0387499Y0285711D01*
X0387478Y0285554D01*
X0387452Y0285398D01*
X0387422Y0285242D01*
X0387389Y0285087D01*
X0387351Y0284934D01*
X0387310Y0284781D01*
X0387265Y0284629D01*
X0387216Y0284478D01*
X0387163Y0284329D01*
X0387107Y0284181D01*
X0387047Y0284035D01*
X0386983Y0283890D01*
X0386915Y0283747D01*
X0386844Y0283605D01*
X0386770Y0283465D01*
X0386692Y0283328D01*
X0386610Y0283192D01*
X0386526Y0283058D01*
X0386437Y0282927D01*
X0386346Y0282798D01*
X0386251Y0282671D01*
X0386154Y0282546D01*
X0386053Y0282424D01*
X0385949Y0282305D01*
X0385842Y0282188D01*
X0385732Y0282074D01*
X0385619Y0281963D01*
X0385504Y0281854D01*
X0385386Y0281749D01*
X0385265Y0281647D01*
X0385142Y0281547D01*
X0385016Y0281451D01*
X0384888Y0281358D01*
X0384758Y0281268D01*
X0384625Y0281182D01*
X0384490Y0281098D01*
X0384354Y0281019D01*
X0384215Y0280942D01*
X0384074Y0280870D01*
X0383932Y0280800D01*
X0383788Y0280735D01*
X0383642Y0280673D01*
X0383495Y0280615D01*
X0383346Y0280560D01*
X0383196Y0280509D01*
X0383045Y0280462D01*
X0382893Y0280419D01*
X0382740Y0280380D01*
X0382585Y0280344D01*
X0382430Y0280313D01*
X0382274Y0280285D01*
X0382118Y0280261D01*
X0381961Y0280241D01*
X0381803Y0280225D01*
X0381646Y0280213D01*
X0381487Y0280205D01*
X0381329Y0280201D01*
X0381171Y0280201D01*
X0381013Y0280205D01*
X0380854Y0280213D01*
X0380697Y0280225D01*
X0380539Y0280241D01*
X0380382Y0280261D01*
X0380226Y0280285D01*
X0380070Y0280313D01*
X0379915Y0280344D01*
X0379760Y0280380D01*
X0379607Y0280419D01*
X0379455Y0280462D01*
X0379304Y0280509D01*
X0379154Y0280560D01*
X0379005Y0280615D01*
X0378858Y0280673D01*
X0378712Y0280735D01*
X0378568Y0280800D01*
X0378426Y0280870D01*
X0378285Y0280942D01*
X0378146Y0281019D01*
X0378010Y0281098D01*
X0377875Y0281182D01*
X0377742Y0281268D01*
X0377612Y0281358D01*
X0377484Y0281451D01*
X0377358Y0281547D01*
X0377235Y0281647D01*
X0377114Y0281749D01*
X0376996Y0281854D01*
X0376881Y0281963D01*
X0376768Y0282074D01*
X0376658Y0282188D01*
X0376551Y0282305D01*
X0376447Y0282424D01*
X0376346Y0282546D01*
X0376249Y0282671D01*
X0376154Y0282798D01*
X0376063Y0282927D01*
X0375974Y0283058D01*
X0375890Y0283192D01*
X0375808Y0283328D01*
X0375730Y0283465D01*
X0375656Y0283605D01*
X0375585Y0283747D01*
X0375517Y0283890D01*
X0375453Y0284035D01*
X0375393Y0284181D01*
X0375337Y0284329D01*
X0375284Y0284478D01*
X0375235Y0284629D01*
X0375190Y0284781D01*
X0375149Y0284934D01*
X0375111Y0285087D01*
X0375078Y0285242D01*
X0375048Y0285398D01*
X0375022Y0285554D01*
X0375001Y0285711D01*
X0374983Y0285868D01*
X0374969Y0286026D01*
X0374959Y0286184D01*
X0374953Y0286342D01*
X0374951Y0286500D01*
X0329750Y0317500D02*
X0329752Y0317661D01*
X0329758Y0317821D01*
X0329768Y0317982D01*
X0329782Y0318142D01*
X0329800Y0318302D01*
X0329821Y0318461D01*
X0329847Y0318620D01*
X0329877Y0318778D01*
X0329910Y0318935D01*
X0329948Y0319092D01*
X0329989Y0319247D01*
X0330034Y0319401D01*
X0330083Y0319554D01*
X0330136Y0319706D01*
X0330192Y0319857D01*
X0330253Y0320006D01*
X0330316Y0320154D01*
X0330384Y0320300D01*
X0330455Y0320444D01*
X0330529Y0320586D01*
X0330607Y0320727D01*
X0330689Y0320865D01*
X0330774Y0321002D01*
X0330862Y0321136D01*
X0330954Y0321268D01*
X0331049Y0321398D01*
X0331147Y0321526D01*
X0331248Y0321651D01*
X0331352Y0321773D01*
X0331459Y0321893D01*
X0331569Y0322010D01*
X0331682Y0322125D01*
X0331798Y0322236D01*
X0331917Y0322345D01*
X0332038Y0322450D01*
X0332162Y0322553D01*
X0332288Y0322653D01*
X0332416Y0322749D01*
X0332547Y0322842D01*
X0332681Y0322932D01*
X0332816Y0323019D01*
X0332954Y0323102D01*
X0333093Y0323182D01*
X0333235Y0323258D01*
X0333378Y0323331D01*
X0333523Y0323400D01*
X0333670Y0323466D01*
X0333818Y0323528D01*
X0333968Y0323586D01*
X0334119Y0323641D01*
X0334272Y0323692D01*
X0334426Y0323739D01*
X0334581Y0323782D01*
X0334737Y0323821D01*
X0334893Y0323857D01*
X0335051Y0323888D01*
X0335209Y0323916D01*
X0335368Y0323940D01*
X0335528Y0323960D01*
X0335688Y0323976D01*
X0335848Y0323988D01*
X0336009Y0323996D01*
X0336170Y0324000D01*
X0336330Y0324000D01*
X0336491Y0323996D01*
X0336652Y0323988D01*
X0336812Y0323976D01*
X0336972Y0323960D01*
X0337132Y0323940D01*
X0337291Y0323916D01*
X0337449Y0323888D01*
X0337607Y0323857D01*
X0337763Y0323821D01*
X0337919Y0323782D01*
X0338074Y0323739D01*
X0338228Y0323692D01*
X0338381Y0323641D01*
X0338532Y0323586D01*
X0338682Y0323528D01*
X0338830Y0323466D01*
X0338977Y0323400D01*
X0339122Y0323331D01*
X0339265Y0323258D01*
X0339407Y0323182D01*
X0339546Y0323102D01*
X0339684Y0323019D01*
X0339819Y0322932D01*
X0339953Y0322842D01*
X0340084Y0322749D01*
X0340212Y0322653D01*
X0340338Y0322553D01*
X0340462Y0322450D01*
X0340583Y0322345D01*
X0340702Y0322236D01*
X0340818Y0322125D01*
X0340931Y0322010D01*
X0341041Y0321893D01*
X0341148Y0321773D01*
X0341252Y0321651D01*
X0341353Y0321526D01*
X0341451Y0321398D01*
X0341546Y0321268D01*
X0341638Y0321136D01*
X0341726Y0321002D01*
X0341811Y0320865D01*
X0341893Y0320727D01*
X0341971Y0320586D01*
X0342045Y0320444D01*
X0342116Y0320300D01*
X0342184Y0320154D01*
X0342247Y0320006D01*
X0342308Y0319857D01*
X0342364Y0319706D01*
X0342417Y0319554D01*
X0342466Y0319401D01*
X0342511Y0319247D01*
X0342552Y0319092D01*
X0342590Y0318935D01*
X0342623Y0318778D01*
X0342653Y0318620D01*
X0342679Y0318461D01*
X0342700Y0318302D01*
X0342718Y0318142D01*
X0342732Y0317982D01*
X0342742Y0317821D01*
X0342748Y0317661D01*
X0342750Y0317500D01*
X0342748Y0317339D01*
X0342742Y0317179D01*
X0342732Y0317018D01*
X0342718Y0316858D01*
X0342700Y0316698D01*
X0342679Y0316539D01*
X0342653Y0316380D01*
X0342623Y0316222D01*
X0342590Y0316065D01*
X0342552Y0315908D01*
X0342511Y0315753D01*
X0342466Y0315599D01*
X0342417Y0315446D01*
X0342364Y0315294D01*
X0342308Y0315143D01*
X0342247Y0314994D01*
X0342184Y0314846D01*
X0342116Y0314700D01*
X0342045Y0314556D01*
X0341971Y0314414D01*
X0341893Y0314273D01*
X0341811Y0314135D01*
X0341726Y0313998D01*
X0341638Y0313864D01*
X0341546Y0313732D01*
X0341451Y0313602D01*
X0341353Y0313474D01*
X0341252Y0313349D01*
X0341148Y0313227D01*
X0341041Y0313107D01*
X0340931Y0312990D01*
X0340818Y0312875D01*
X0340702Y0312764D01*
X0340583Y0312655D01*
X0340462Y0312550D01*
X0340338Y0312447D01*
X0340212Y0312347D01*
X0340084Y0312251D01*
X0339953Y0312158D01*
X0339819Y0312068D01*
X0339684Y0311981D01*
X0339546Y0311898D01*
X0339407Y0311818D01*
X0339265Y0311742D01*
X0339122Y0311669D01*
X0338977Y0311600D01*
X0338830Y0311534D01*
X0338682Y0311472D01*
X0338532Y0311414D01*
X0338381Y0311359D01*
X0338228Y0311308D01*
X0338074Y0311261D01*
X0337919Y0311218D01*
X0337763Y0311179D01*
X0337607Y0311143D01*
X0337449Y0311112D01*
X0337291Y0311084D01*
X0337132Y0311060D01*
X0336972Y0311040D01*
X0336812Y0311024D01*
X0336652Y0311012D01*
X0336491Y0311004D01*
X0336330Y0311000D01*
X0336170Y0311000D01*
X0336009Y0311004D01*
X0335848Y0311012D01*
X0335688Y0311024D01*
X0335528Y0311040D01*
X0335368Y0311060D01*
X0335209Y0311084D01*
X0335051Y0311112D01*
X0334893Y0311143D01*
X0334737Y0311179D01*
X0334581Y0311218D01*
X0334426Y0311261D01*
X0334272Y0311308D01*
X0334119Y0311359D01*
X0333968Y0311414D01*
X0333818Y0311472D01*
X0333670Y0311534D01*
X0333523Y0311600D01*
X0333378Y0311669D01*
X0333235Y0311742D01*
X0333093Y0311818D01*
X0332954Y0311898D01*
X0332816Y0311981D01*
X0332681Y0312068D01*
X0332547Y0312158D01*
X0332416Y0312251D01*
X0332288Y0312347D01*
X0332162Y0312447D01*
X0332038Y0312550D01*
X0331917Y0312655D01*
X0331798Y0312764D01*
X0331682Y0312875D01*
X0331569Y0312990D01*
X0331459Y0313107D01*
X0331352Y0313227D01*
X0331248Y0313349D01*
X0331147Y0313474D01*
X0331049Y0313602D01*
X0330954Y0313732D01*
X0330862Y0313864D01*
X0330774Y0313998D01*
X0330689Y0314135D01*
X0330607Y0314273D01*
X0330529Y0314414D01*
X0330455Y0314556D01*
X0330384Y0314700D01*
X0330316Y0314846D01*
X0330253Y0314994D01*
X0330192Y0315143D01*
X0330136Y0315294D01*
X0330083Y0315446D01*
X0330034Y0315599D01*
X0329989Y0315753D01*
X0329948Y0315908D01*
X0329910Y0316065D01*
X0329877Y0316222D01*
X0329847Y0316380D01*
X0329821Y0316539D01*
X0329800Y0316698D01*
X0329782Y0316858D01*
X0329768Y0317018D01*
X0329758Y0317179D01*
X0329752Y0317339D01*
X0329750Y0317500D01*
X0229750Y0317500D02*
X0229752Y0317661D01*
X0229758Y0317821D01*
X0229768Y0317982D01*
X0229782Y0318142D01*
X0229800Y0318302D01*
X0229821Y0318461D01*
X0229847Y0318620D01*
X0229877Y0318778D01*
X0229910Y0318935D01*
X0229948Y0319092D01*
X0229989Y0319247D01*
X0230034Y0319401D01*
X0230083Y0319554D01*
X0230136Y0319706D01*
X0230192Y0319857D01*
X0230253Y0320006D01*
X0230316Y0320154D01*
X0230384Y0320300D01*
X0230455Y0320444D01*
X0230529Y0320586D01*
X0230607Y0320727D01*
X0230689Y0320865D01*
X0230774Y0321002D01*
X0230862Y0321136D01*
X0230954Y0321268D01*
X0231049Y0321398D01*
X0231147Y0321526D01*
X0231248Y0321651D01*
X0231352Y0321773D01*
X0231459Y0321893D01*
X0231569Y0322010D01*
X0231682Y0322125D01*
X0231798Y0322236D01*
X0231917Y0322345D01*
X0232038Y0322450D01*
X0232162Y0322553D01*
X0232288Y0322653D01*
X0232416Y0322749D01*
X0232547Y0322842D01*
X0232681Y0322932D01*
X0232816Y0323019D01*
X0232954Y0323102D01*
X0233093Y0323182D01*
X0233235Y0323258D01*
X0233378Y0323331D01*
X0233523Y0323400D01*
X0233670Y0323466D01*
X0233818Y0323528D01*
X0233968Y0323586D01*
X0234119Y0323641D01*
X0234272Y0323692D01*
X0234426Y0323739D01*
X0234581Y0323782D01*
X0234737Y0323821D01*
X0234893Y0323857D01*
X0235051Y0323888D01*
X0235209Y0323916D01*
X0235368Y0323940D01*
X0235528Y0323960D01*
X0235688Y0323976D01*
X0235848Y0323988D01*
X0236009Y0323996D01*
X0236170Y0324000D01*
X0236330Y0324000D01*
X0236491Y0323996D01*
X0236652Y0323988D01*
X0236812Y0323976D01*
X0236972Y0323960D01*
X0237132Y0323940D01*
X0237291Y0323916D01*
X0237449Y0323888D01*
X0237607Y0323857D01*
X0237763Y0323821D01*
X0237919Y0323782D01*
X0238074Y0323739D01*
X0238228Y0323692D01*
X0238381Y0323641D01*
X0238532Y0323586D01*
X0238682Y0323528D01*
X0238830Y0323466D01*
X0238977Y0323400D01*
X0239122Y0323331D01*
X0239265Y0323258D01*
X0239407Y0323182D01*
X0239546Y0323102D01*
X0239684Y0323019D01*
X0239819Y0322932D01*
X0239953Y0322842D01*
X0240084Y0322749D01*
X0240212Y0322653D01*
X0240338Y0322553D01*
X0240462Y0322450D01*
X0240583Y0322345D01*
X0240702Y0322236D01*
X0240818Y0322125D01*
X0240931Y0322010D01*
X0241041Y0321893D01*
X0241148Y0321773D01*
X0241252Y0321651D01*
X0241353Y0321526D01*
X0241451Y0321398D01*
X0241546Y0321268D01*
X0241638Y0321136D01*
X0241726Y0321002D01*
X0241811Y0320865D01*
X0241893Y0320727D01*
X0241971Y0320586D01*
X0242045Y0320444D01*
X0242116Y0320300D01*
X0242184Y0320154D01*
X0242247Y0320006D01*
X0242308Y0319857D01*
X0242364Y0319706D01*
X0242417Y0319554D01*
X0242466Y0319401D01*
X0242511Y0319247D01*
X0242552Y0319092D01*
X0242590Y0318935D01*
X0242623Y0318778D01*
X0242653Y0318620D01*
X0242679Y0318461D01*
X0242700Y0318302D01*
X0242718Y0318142D01*
X0242732Y0317982D01*
X0242742Y0317821D01*
X0242748Y0317661D01*
X0242750Y0317500D01*
X0242748Y0317339D01*
X0242742Y0317179D01*
X0242732Y0317018D01*
X0242718Y0316858D01*
X0242700Y0316698D01*
X0242679Y0316539D01*
X0242653Y0316380D01*
X0242623Y0316222D01*
X0242590Y0316065D01*
X0242552Y0315908D01*
X0242511Y0315753D01*
X0242466Y0315599D01*
X0242417Y0315446D01*
X0242364Y0315294D01*
X0242308Y0315143D01*
X0242247Y0314994D01*
X0242184Y0314846D01*
X0242116Y0314700D01*
X0242045Y0314556D01*
X0241971Y0314414D01*
X0241893Y0314273D01*
X0241811Y0314135D01*
X0241726Y0313998D01*
X0241638Y0313864D01*
X0241546Y0313732D01*
X0241451Y0313602D01*
X0241353Y0313474D01*
X0241252Y0313349D01*
X0241148Y0313227D01*
X0241041Y0313107D01*
X0240931Y0312990D01*
X0240818Y0312875D01*
X0240702Y0312764D01*
X0240583Y0312655D01*
X0240462Y0312550D01*
X0240338Y0312447D01*
X0240212Y0312347D01*
X0240084Y0312251D01*
X0239953Y0312158D01*
X0239819Y0312068D01*
X0239684Y0311981D01*
X0239546Y0311898D01*
X0239407Y0311818D01*
X0239265Y0311742D01*
X0239122Y0311669D01*
X0238977Y0311600D01*
X0238830Y0311534D01*
X0238682Y0311472D01*
X0238532Y0311414D01*
X0238381Y0311359D01*
X0238228Y0311308D01*
X0238074Y0311261D01*
X0237919Y0311218D01*
X0237763Y0311179D01*
X0237607Y0311143D01*
X0237449Y0311112D01*
X0237291Y0311084D01*
X0237132Y0311060D01*
X0236972Y0311040D01*
X0236812Y0311024D01*
X0236652Y0311012D01*
X0236491Y0311004D01*
X0236330Y0311000D01*
X0236170Y0311000D01*
X0236009Y0311004D01*
X0235848Y0311012D01*
X0235688Y0311024D01*
X0235528Y0311040D01*
X0235368Y0311060D01*
X0235209Y0311084D01*
X0235051Y0311112D01*
X0234893Y0311143D01*
X0234737Y0311179D01*
X0234581Y0311218D01*
X0234426Y0311261D01*
X0234272Y0311308D01*
X0234119Y0311359D01*
X0233968Y0311414D01*
X0233818Y0311472D01*
X0233670Y0311534D01*
X0233523Y0311600D01*
X0233378Y0311669D01*
X0233235Y0311742D01*
X0233093Y0311818D01*
X0232954Y0311898D01*
X0232816Y0311981D01*
X0232681Y0312068D01*
X0232547Y0312158D01*
X0232416Y0312251D01*
X0232288Y0312347D01*
X0232162Y0312447D01*
X0232038Y0312550D01*
X0231917Y0312655D01*
X0231798Y0312764D01*
X0231682Y0312875D01*
X0231569Y0312990D01*
X0231459Y0313107D01*
X0231352Y0313227D01*
X0231248Y0313349D01*
X0231147Y0313474D01*
X0231049Y0313602D01*
X0230954Y0313732D01*
X0230862Y0313864D01*
X0230774Y0313998D01*
X0230689Y0314135D01*
X0230607Y0314273D01*
X0230529Y0314414D01*
X0230455Y0314556D01*
X0230384Y0314700D01*
X0230316Y0314846D01*
X0230253Y0314994D01*
X0230192Y0315143D01*
X0230136Y0315294D01*
X0230083Y0315446D01*
X0230034Y0315599D01*
X0229989Y0315753D01*
X0229948Y0315908D01*
X0229910Y0316065D01*
X0229877Y0316222D01*
X0229847Y0316380D01*
X0229821Y0316539D01*
X0229800Y0316698D01*
X0229782Y0316858D01*
X0229768Y0317018D01*
X0229758Y0317179D01*
X0229752Y0317339D01*
X0229750Y0317500D01*
X0079951Y0286500D02*
X0079953Y0286658D01*
X0079959Y0286816D01*
X0079969Y0286974D01*
X0079983Y0287132D01*
X0080001Y0287289D01*
X0080022Y0287446D01*
X0080048Y0287602D01*
X0080078Y0287758D01*
X0080111Y0287913D01*
X0080149Y0288066D01*
X0080190Y0288219D01*
X0080235Y0288371D01*
X0080284Y0288522D01*
X0080337Y0288671D01*
X0080393Y0288819D01*
X0080453Y0288965D01*
X0080517Y0289110D01*
X0080585Y0289253D01*
X0080656Y0289395D01*
X0080730Y0289535D01*
X0080808Y0289672D01*
X0080890Y0289808D01*
X0080974Y0289942D01*
X0081063Y0290073D01*
X0081154Y0290202D01*
X0081249Y0290329D01*
X0081346Y0290454D01*
X0081447Y0290576D01*
X0081551Y0290695D01*
X0081658Y0290812D01*
X0081768Y0290926D01*
X0081881Y0291037D01*
X0081996Y0291146D01*
X0082114Y0291251D01*
X0082235Y0291353D01*
X0082358Y0291453D01*
X0082484Y0291549D01*
X0082612Y0291642D01*
X0082742Y0291732D01*
X0082875Y0291818D01*
X0083010Y0291902D01*
X0083146Y0291981D01*
X0083285Y0292058D01*
X0083426Y0292130D01*
X0083568Y0292200D01*
X0083712Y0292265D01*
X0083858Y0292327D01*
X0084005Y0292385D01*
X0084154Y0292440D01*
X0084304Y0292491D01*
X0084455Y0292538D01*
X0084607Y0292581D01*
X0084760Y0292620D01*
X0084915Y0292656D01*
X0085070Y0292687D01*
X0085226Y0292715D01*
X0085382Y0292739D01*
X0085539Y0292759D01*
X0085697Y0292775D01*
X0085854Y0292787D01*
X0086013Y0292795D01*
X0086171Y0292799D01*
X0086329Y0292799D01*
X0086487Y0292795D01*
X0086646Y0292787D01*
X0086803Y0292775D01*
X0086961Y0292759D01*
X0087118Y0292739D01*
X0087274Y0292715D01*
X0087430Y0292687D01*
X0087585Y0292656D01*
X0087740Y0292620D01*
X0087893Y0292581D01*
X0088045Y0292538D01*
X0088196Y0292491D01*
X0088346Y0292440D01*
X0088495Y0292385D01*
X0088642Y0292327D01*
X0088788Y0292265D01*
X0088932Y0292200D01*
X0089074Y0292130D01*
X0089215Y0292058D01*
X0089354Y0291981D01*
X0089490Y0291902D01*
X0089625Y0291818D01*
X0089758Y0291732D01*
X0089888Y0291642D01*
X0090016Y0291549D01*
X0090142Y0291453D01*
X0090265Y0291353D01*
X0090386Y0291251D01*
X0090504Y0291146D01*
X0090619Y0291037D01*
X0090732Y0290926D01*
X0090842Y0290812D01*
X0090949Y0290695D01*
X0091053Y0290576D01*
X0091154Y0290454D01*
X0091251Y0290329D01*
X0091346Y0290202D01*
X0091437Y0290073D01*
X0091526Y0289942D01*
X0091610Y0289808D01*
X0091692Y0289672D01*
X0091770Y0289535D01*
X0091844Y0289395D01*
X0091915Y0289253D01*
X0091983Y0289110D01*
X0092047Y0288965D01*
X0092107Y0288819D01*
X0092163Y0288671D01*
X0092216Y0288522D01*
X0092265Y0288371D01*
X0092310Y0288219D01*
X0092351Y0288066D01*
X0092389Y0287913D01*
X0092422Y0287758D01*
X0092452Y0287602D01*
X0092478Y0287446D01*
X0092499Y0287289D01*
X0092517Y0287132D01*
X0092531Y0286974D01*
X0092541Y0286816D01*
X0092547Y0286658D01*
X0092549Y0286500D01*
X0092547Y0286342D01*
X0092541Y0286184D01*
X0092531Y0286026D01*
X0092517Y0285868D01*
X0092499Y0285711D01*
X0092478Y0285554D01*
X0092452Y0285398D01*
X0092422Y0285242D01*
X0092389Y0285087D01*
X0092351Y0284934D01*
X0092310Y0284781D01*
X0092265Y0284629D01*
X0092216Y0284478D01*
X0092163Y0284329D01*
X0092107Y0284181D01*
X0092047Y0284035D01*
X0091983Y0283890D01*
X0091915Y0283747D01*
X0091844Y0283605D01*
X0091770Y0283465D01*
X0091692Y0283328D01*
X0091610Y0283192D01*
X0091526Y0283058D01*
X0091437Y0282927D01*
X0091346Y0282798D01*
X0091251Y0282671D01*
X0091154Y0282546D01*
X0091053Y0282424D01*
X0090949Y0282305D01*
X0090842Y0282188D01*
X0090732Y0282074D01*
X0090619Y0281963D01*
X0090504Y0281854D01*
X0090386Y0281749D01*
X0090265Y0281647D01*
X0090142Y0281547D01*
X0090016Y0281451D01*
X0089888Y0281358D01*
X0089758Y0281268D01*
X0089625Y0281182D01*
X0089490Y0281098D01*
X0089354Y0281019D01*
X0089215Y0280942D01*
X0089074Y0280870D01*
X0088932Y0280800D01*
X0088788Y0280735D01*
X0088642Y0280673D01*
X0088495Y0280615D01*
X0088346Y0280560D01*
X0088196Y0280509D01*
X0088045Y0280462D01*
X0087893Y0280419D01*
X0087740Y0280380D01*
X0087585Y0280344D01*
X0087430Y0280313D01*
X0087274Y0280285D01*
X0087118Y0280261D01*
X0086961Y0280241D01*
X0086803Y0280225D01*
X0086646Y0280213D01*
X0086487Y0280205D01*
X0086329Y0280201D01*
X0086171Y0280201D01*
X0086013Y0280205D01*
X0085854Y0280213D01*
X0085697Y0280225D01*
X0085539Y0280241D01*
X0085382Y0280261D01*
X0085226Y0280285D01*
X0085070Y0280313D01*
X0084915Y0280344D01*
X0084760Y0280380D01*
X0084607Y0280419D01*
X0084455Y0280462D01*
X0084304Y0280509D01*
X0084154Y0280560D01*
X0084005Y0280615D01*
X0083858Y0280673D01*
X0083712Y0280735D01*
X0083568Y0280800D01*
X0083426Y0280870D01*
X0083285Y0280942D01*
X0083146Y0281019D01*
X0083010Y0281098D01*
X0082875Y0281182D01*
X0082742Y0281268D01*
X0082612Y0281358D01*
X0082484Y0281451D01*
X0082358Y0281547D01*
X0082235Y0281647D01*
X0082114Y0281749D01*
X0081996Y0281854D01*
X0081881Y0281963D01*
X0081768Y0282074D01*
X0081658Y0282188D01*
X0081551Y0282305D01*
X0081447Y0282424D01*
X0081346Y0282546D01*
X0081249Y0282671D01*
X0081154Y0282798D01*
X0081063Y0282927D01*
X0080974Y0283058D01*
X0080890Y0283192D01*
X0080808Y0283328D01*
X0080730Y0283465D01*
X0080656Y0283605D01*
X0080585Y0283747D01*
X0080517Y0283890D01*
X0080453Y0284035D01*
X0080393Y0284181D01*
X0080337Y0284329D01*
X0080284Y0284478D01*
X0080235Y0284629D01*
X0080190Y0284781D01*
X0080149Y0284934D01*
X0080111Y0285087D01*
X0080078Y0285242D01*
X0080048Y0285398D01*
X0080022Y0285554D01*
X0080001Y0285711D01*
X0079983Y0285868D01*
X0079969Y0286026D01*
X0079959Y0286184D01*
X0079953Y0286342D01*
X0079951Y0286500D01*
D11*
X0026250Y0001500D02*
X0526250Y0001500D01*
X0526250Y0406500D01*
X0026250Y0406500D01*
X0026250Y0001500D01*
M02*
