G04 #@! TF.GenerationSoftware,KiCad,Pcbnew,5.0.2-bee76a0~70~ubuntu18.04.1*
G04 #@! TF.CreationDate,2019-04-16T21:06:36-07:00*
G04 #@! TF.ProjectId,habiv-board,68616269-762d-4626-9f61-72642e6b6963,rev?*
G04 #@! TF.SameCoordinates,Original*
G04 #@! TF.FileFunction,Legend,Bot*
G04 #@! TF.FilePolarity,Positive*
%FSLAX46Y46*%
G04 Gerber Fmt 4.6, Leading zero omitted, Abs format (unit mm)*
G04 Created by KiCad (PCBNEW 5.0.2-bee76a0~70~ubuntu18.04.1) date Tue 16 Apr 2019 09:06:36 PM PDT*
%MOMM*%
%LPD*%
G01*
G04 APERTURE LIST*
%ADD10C,0.190500*%
G04 APERTURE END LIST*
D10*
X166712647Y-16951629D02*
X167919147Y-17353796D01*
X166712647Y-17755963D01*
X167919147Y-18158129D02*
X166712647Y-18158129D01*
X167919147Y-18732653D02*
X166712647Y-18732653D01*
X167919147Y-19422082D01*
X166712647Y-19422082D01*
X167804242Y-19996605D02*
X167861695Y-20054058D01*
X167919147Y-19996605D01*
X167861695Y-19939153D01*
X167804242Y-19996605D01*
X167919147Y-19996605D01*
X167172266Y-19996605D02*
X167229719Y-20054058D01*
X167287171Y-19996605D01*
X167229719Y-19939153D01*
X167172266Y-19996605D01*
X167287171Y-19996605D01*
X166712647Y-21375463D02*
X166712647Y-22122344D01*
X167172266Y-21720177D01*
X167172266Y-21892534D01*
X167229719Y-22007439D01*
X167287171Y-22064891D01*
X167402076Y-22122344D01*
X167689338Y-22122344D01*
X167804242Y-22064891D01*
X167861695Y-22007439D01*
X167919147Y-21892534D01*
X167919147Y-21547820D01*
X167861695Y-21432915D01*
X167804242Y-21375463D01*
X167804242Y-22639415D02*
X167861695Y-22696867D01*
X167919147Y-22639415D01*
X167861695Y-22581963D01*
X167804242Y-22639415D01*
X167919147Y-22639415D01*
X166712647Y-23099034D02*
X166712647Y-23845915D01*
X167172266Y-23443748D01*
X167172266Y-23616105D01*
X167229719Y-23731010D01*
X167287171Y-23788463D01*
X167402076Y-23845915D01*
X167689338Y-23845915D01*
X167804242Y-23788463D01*
X167861695Y-23731010D01*
X167919147Y-23616105D01*
X167919147Y-23271391D01*
X167861695Y-23156486D01*
X167804242Y-23099034D01*
X167459528Y-24362986D02*
X167459528Y-25282225D01*
X166712647Y-26431272D02*
X166712647Y-25856748D01*
X167287171Y-25799296D01*
X167229719Y-25856748D01*
X167172266Y-25971653D01*
X167172266Y-26258915D01*
X167229719Y-26373820D01*
X167287171Y-26431272D01*
X167402076Y-26488725D01*
X167689338Y-26488725D01*
X167804242Y-26431272D01*
X167861695Y-26373820D01*
X167919147Y-26258915D01*
X167919147Y-25971653D01*
X167861695Y-25856748D01*
X167804242Y-25799296D01*
X166712647Y-26833439D02*
X167919147Y-27235605D01*
X166712647Y-27637772D01*
M02*
