M48
;DRILL file {KiCad 5.0.2-bee76a0~70~ubuntu18.04.1} date Fri 25 Oct 2019 02:03:37 PM PDT
;FORMAT={-:-/ absolute / metric / decimal}
FMAT,2
METRIC,TZ
T1C0.400
T2C0.500
T3C1.000
T4C2.700
%
G90
G05
T1
X82.861Y-80.454
X82.876Y-78.716
X82.876Y-81.993
X82.892Y-77.208
X82.912Y-72.118
X82.912Y-75.399
X82.927Y-73.906
X84.578Y-81.993
X84.593Y-80.454
X84.624Y-78.737
X84.67Y-72.118
X84.67Y-75.42
X84.67Y-77.223
X84.685Y-73.906
X85.762Y-50.675
X85.762Y-51.513
X85.762Y-52.295
X85.772Y-53.098
X85.772Y-53.901
X85.782Y-54.754
X85.808Y-55.562
X85.852Y-88.392
X86.463Y-80.454
X86.478Y-78.701
X86.478Y-82.008
X86.493Y-77.208
X86.524Y-72.133
X86.524Y-73.921
X86.524Y-75.42
X87.886Y-104.912
X88.392Y-87.122
X89.483Y-58.239
X90.678Y-87.122
X90.936Y-92.962
X91.009Y-61.373
X91.02Y-60.495
X91.236Y-101.262
X91.44Y-53.086
X91.853Y-60.505
X91.853Y-61.389
X91.948Y-73.152
X93.218Y-87.122
X93.41Y-55.999
X94.817Y-58.239
X94.819Y-62.857
X95.504Y-87.122
X95.504Y-101.092
X95.665Y-58.249
X95.665Y-62.844
X96.774Y-92.71
X98.223Y-71.833
X98.298Y-113.792
X99.127Y-71.843
X100.037Y-71.843
X100.982Y-71.833
X101.346Y-107.188
X101.926Y-59.799
X101.931Y-71.823
X102.839Y-87.63
X102.887Y-59.799
X102.947Y-71.823
X103.943Y-59.799
X104.902Y-76.962
X104.934Y-59.814
X105.596Y-111.974
X105.843Y-59.799
X106.172Y-100.076
X109.474Y-88.392
X110.49Y-100.584
X110.998Y-114.554
X112.268Y-94.488
X112.268Y-96.266
X112.268Y-97.79
X113.196Y-93.874
X113.284Y-83.312
X113.792Y-105.41
X114.808Y-100.33
X116.506Y-44.437
X117.42Y-44.416
X118.35Y-44.442
X119.33Y-44.442
X119.64Y-32.448
X120.275Y-44.442
X120.692Y-32.443
X121.611Y-32.438
X122.546Y-32.438
X123.344Y-32.433
X124.263Y-32.463
X126.651Y-41.3
X126.651Y-45.991
X126.792Y-98.548
X126.867Y-97.273
X126.892Y-94.723
X126.892Y-95.9
X127.542Y-46.047
X127.565Y-41.338
X127.907Y-100.248
X128.016Y-103.886
X128.909Y-48.242
X129.317Y-85.048
X129.487Y-49.784
X129.487Y-57.404
X130.137Y-72.558
X130.556Y-90.123
X130.608Y-42.887
X130.608Y-43.72
X131.218Y-49.784
X131.218Y-57.404
X131.421Y-42.867
X131.421Y-43.72
X131.572Y-90.073
X132.08Y-53.34
X132.17Y-51.213
X132.644Y-90.498
X132.658Y-84.484
X132.836Y-46.001
X133.192Y-91.5
X133.317Y-94.248
X133.417Y-93.073
X133.446Y-95.396
X133.467Y-83.148
X133.703Y-99.368
X133.858Y-85.344
X133.967Y-90.149
X134.62Y-99.822
X134.874Y-102.616
X134.967Y-80.748
X135.128Y-51.213
X135.128Y-72.39
X135.341Y-115.824
X135.382Y-76.2
X135.636Y-82.042
X135.866Y-28.856
X135.866Y-30.37
X135.866Y-32.148
X135.886Y-27.058
X135.927Y-25.59
X135.967Y-23.812
X135.988Y-22.257
X136.271Y-101.66
X136.658Y-48.709
X136.658Y-50.299
X136.658Y-51.097
X136.658Y-53.565
X136.658Y-54.454
X136.669Y-49.522
X136.669Y-51.914
X136.669Y-52.702
X137.368Y-105.469
X137.582Y-103.729
X137.668Y-79.502
X137.705Y-30.329
X137.745Y-32.128
X137.766Y-27.058
X137.766Y-28.795
X137.806Y-23.812
X137.827Y-25.59
X137.867Y-22.257
X137.881Y-115.57
X138.017Y-99.248
X138.176Y-82.042
X138.291Y-105.084
X138.43Y-39.37
X138.43Y-40.386
X138.43Y-41.402
X138.43Y-42.418
X138.43Y-43.434
X138.43Y-44.45
X139.017Y-96.074
X139.167Y-105.573
X139.292Y-75.648
X139.292Y-77.148
X139.303Y-78.199
X139.544Y-27.078
X139.544Y-28.816
X139.564Y-30.37
X139.564Y-32.087
X139.584Y-23.812
X139.584Y-25.61
X139.605Y-22.278
X139.7Y-86.868
X139.954Y-72.39
X140.017Y-99.648
X140.421Y-115.57
X140.462Y-40.64
X140.967Y-83.473
X141.742Y-84.448
X142.188Y-113.538
X142.263Y-91.878
X142.417Y-85.548
X142.748Y-44.45
X142.853Y-88.198
X142.892Y-86.948
X143.256Y-37.846
X144.272Y-38.354
X144.394Y-44.518
X145.034Y-45.72
X145.428Y-99.486
X145.542Y-37.084
X145.688Y-105.073
X145.796Y-39.624
X145.796Y-41.402
X145.817Y-92.848
X146.892Y-88.623
X147.117Y-105.548
X148.794Y-48.768
X148.844Y-38.608
X149.606Y-109.298
X149.709Y-92.487
X149.992Y-79.423
X150.114Y-49.276
X150.437Y-93.238
X150.486Y-100.183
X150.622Y-37.084
X150.698Y-109.707
X150.876Y-42.164
X151.317Y-98.708
X151.431Y-110.387
X151.439Y-100.487
X151.642Y-68.408
X151.892Y-121.666
X151.892Y-128.016
X152.092Y-73.085
X152.146Y-111.086
X152.4Y-44.45
X152.4Y-99.314
X152.791Y-111.85
X152.908Y-68.326
X153.162Y-45.72
X153.416Y-70.612
X153.557Y-112.548
X153.837Y-85.658
X153.842Y-83.148
X153.972Y-106.593
X154.432Y-101.6
X154.64Y-107.336
X155.407Y-107.978
X155.448Y-114.046
X156.037Y-86.208
X156.137Y-103.028
X156.187Y-108.718
X156.977Y-109.368
X157.48Y-125.984
X157.651Y-101.431
X158.496Y-44.45
X158.496Y-47.498
X158.75Y-115.57
X159.258Y-96.266
X160.186Y-51.562
X160.274Y-114.808
X160.782Y-70.358
X161.036Y-97.534
X161.544Y-125.984
X163.206Y-39.792
X163.256Y-44.442
X163.377Y-90.598
X163.497Y-92.128
X164.256Y-39.792
X164.256Y-46.142
X165.608Y-125.984
X165.862Y-37.084
X167.64Y-40.386
X169.672Y-125.984
X170.434Y-99.314
X171.45Y-98.298
X171.45Y-101.6
X172.466Y-111.252
X172.906Y-42.837
X173.482Y-40.386
X173.736Y-125.984
X174.244Y-19.558
X174.244Y-28.194
X175.768Y-23.114
X176.022Y-31.496
X176.53Y-37.084
X177.292Y-107.188
X177.292Y-111.252
X177.292Y-115.57
X177.292Y-119.38
X177.292Y-123.444
X177.546Y-50.8
X179.07Y-101.6
X180.34Y-14.986
T2
X144.585Y-23.38
X145.474Y-20.523
X145.601Y-17.475
X146.617Y-18.618
X146.744Y-25.73
X147.252Y-13.284
X147.379Y-28.016
X147.64Y-32.602
X147.64Y-34.002
X148.141Y-18.618
X149.04Y-34.202
X149.157Y-28.143
X149.411Y-17.538
X151.951Y-14.554
X152.24Y-11.602
X154.44Y-11.802
X155.44Y-12.802
X156.24Y-11.002
X156.24Y-14.002
X158.04Y-11.402
X159.04Y-14.002
X159.44Y-11.202
X159.64Y-31.402
X160.968Y-32.842
X161.64Y-11.202
X161.64Y-14.202
X163.04Y-14.002
X163.762Y-10.617
X167.84Y-34.002
X169.04Y-34.002
X169.35Y-29.413
X170.04Y-23.002
X170.24Y-33.802
X171.84Y-33.802
X173.24Y-33.802
T3
X116.84Y-121.158
X118.872Y-10.922
X118.872Y-20.32
X125.829Y-118.758
X128.369Y-118.758
X130.909Y-118.758
X133.449Y-118.758
X135.989Y-118.758
X138.529Y-118.758
X141.069Y-118.758
X143.609Y-118.758
X146.149Y-118.758
X148.689Y-118.758
X151.229Y-118.758
X153.769Y-118.758
X156.309Y-118.758
X158.849Y-118.758
X161.389Y-118.758
X163.929Y-118.758
X132.418Y-63.392
X132.418Y-65.932
X134.958Y-63.392
X134.958Y-65.932
X137.498Y-63.392
X137.498Y-65.932
X140.038Y-63.392
X140.038Y-65.932
X142.578Y-63.392
X142.578Y-65.932
X145.118Y-63.392
X145.118Y-65.932
X147.658Y-63.392
X147.658Y-65.932
X150.198Y-63.392
X150.198Y-65.932
X152.738Y-63.392
X152.738Y-65.932
X155.278Y-63.392
X155.278Y-65.932
X123.698Y-12.192
X126.238Y-12.192
X128.778Y-12.192
X121.92Y-127.508
X124.46Y-127.508
X127.Y-127.508
X122.279Y-74.481
X122.279Y-77.021
X122.279Y-79.561
X122.279Y-82.101
X122.279Y-84.641
X122.279Y-87.181
X122.279Y-89.721
X122.279Y-92.261
X122.279Y-94.801
X122.279Y-97.341
X122.279Y-99.881
X122.279Y-102.421
X122.279Y-104.961
X122.279Y-107.501
X122.279Y-110.041
X122.279Y-112.581
X121.92Y-123.62
X124.46Y-123.62
X127.Y-123.62
X107.686Y-126.024
X110.226Y-126.024
X173.736Y-73.152
X173.736Y-75.692
X173.736Y-78.232
X173.736Y-80.772
X173.736Y-83.312
X177.546Y-58.42
X177.546Y-60.96
X177.546Y-63.5
X177.546Y-66.04
X123.698Y-16.002
X126.238Y-16.002
X128.778Y-16.002
X167.501Y-74.674
X167.501Y-77.214
X167.501Y-79.754
X167.501Y-82.294
X167.501Y-84.834
X167.501Y-87.374
X167.501Y-89.914
X167.501Y-92.454
X167.501Y-94.994
X167.501Y-97.534
X167.501Y-100.074
X167.501Y-102.614
X167.501Y-105.154
X167.501Y-107.694
X167.501Y-110.234
X167.501Y-112.774
T4
X106.934Y-36.179
X106.934Y-41.179
X99.822Y-24.384
X99.822Y-29.384
X92.71Y-36.179
X92.71Y-41.179
X106.934Y-24.464
X106.934Y-29.464
X92.71Y-24.464
X92.71Y-29.464
X85.598Y-24.464
X85.598Y-29.464
X99.822Y-36.179
X99.822Y-41.179
X85.598Y-36.179
X85.598Y-41.179
X109.474Y-55.706
X109.474Y-60.706
T0
M30
