M48
;DRILL file {KiCad 5.0.1-33cea8e~68~ubuntu16.04.1} date Mon 29 Oct 2018 01:45:28 AM PDT
;FORMAT={-:-/ absolute / metric / decimal}
FMAT,2
METRIC,TZ
T1C0.400
T2C0.500
T3C0.700
T4C1.000
T5C1.020
T6C2.500
%
G90
G05
M71
T1
X107.565Y-76.2
X107.6Y-72.875
X110.15Y-135.41
X110.34Y-70.675
X112.276Y-72.425
X112.48Y-137.13
X114.08Y-128.02
X114.08Y-134.37
X114.84Y-85.225
X116.34Y-85.225
X117.391Y-85.213
X118.39Y-85.175
X118.615Y-74.525
X119.94Y-89.55
X120.365Y-85.675
X122.34Y-70.675
X122.34Y-91.05
X122.665Y-83.55
X122.915Y-89.275
X123.64Y-82.775
X123.675Y-91.858
X124.24Y-95.2
X124.665Y-90.7
X124.665Y-93.796
X124.74Y-82.1
X126.14Y-81.625
X127.39Y-81.664
X127.815Y-77.625
X127.84Y-62.975
X128.48Y-71.75
X128.56Y-70.31
X129.265Y-93.375
X129.315Y-94.4
X129.34Y-90.55
X129.79Y-61.14
X130.692Y-91.325
X130.815Y-95.125
X131.069Y-82.254
X131.32Y-61.02
X131.678Y-74.808
X132.04Y-78.7
X132.265Y-91.1
X132.43Y-74.08
X132.79Y-62.04
X133.44Y-91.2
X133.915Y-97.625
X134.587Y-91.071
X135.091Y-97.625
X135.265Y-85.5
X136.465Y-97.65
X137.74Y-97.725
X137.9Y-73.2
X138.44Y-86.5
X138.56Y-90.813
X138.678Y-79.089
X138.711Y-133.011
X138.711Y-140.377
X138.84Y-84.5
X139.354Y-74.079
X139.44Y-96.61
X139.49Y-71.28
X139.53Y-72.79
X140.622Y-66.866
X140.852Y-88.246
X142.22Y-68.38
X142.775Y-135.297
X142.775Y-138.599
X142.92Y-86.935
X144.265Y-78.829
X144.276Y-86.226
X144.5Y-71.24
X144.661Y-87.149
X144.74Y-77.4
X144.765Y-85.35
X145.784Y-70.545
X146.528Y-69.876
X146.585Y-120.819
X146.586Y-75.74
X147.17Y-69.11
X147.91Y-68.33
X148.49Y-75.86
X148.56Y-67.54
X148.898Y-73.819
X149.579Y-73.086
X150.278Y-72.371
X150.903Y-126.153
X151.042Y-71.725
X151.411Y-131.741
X151.74Y-70.96
X152.427Y-116.755
X152.427Y-127.169
X153.697Y-133.519
X154.205Y-128.185
X155.983Y-137.075
X156.999Y-126.153
X157.761Y-129.709
X158.015Y-131.741
X158.015Y-132.757
X158.015Y-133.773
X158.523Y-128.185
X158.777Y-135.551
X159.539Y-136.313
X160.047Y-129.709
X160.047Y-130.725
X161.063Y-129.455
X162.587Y-129.201
X163.575Y-39.05
X163.603Y-127.169
X163.603Y-129.201
X163.65Y-43.65
X164.619Y-138.599
X164.873Y-139.869
X167.159Y-132.757
X168.914Y-119.572
X168.914Y-137.814
X170.275Y-41.425
X171.Y-45.075
X171.173Y-36.264
X179.575Y-107.425
X180.6Y-100.8
X180.666Y-107.427
X181.85Y-65.95
X182.076Y-110.13
X182.2Y-59.225
X182.875Y-65.95
X184.05Y-68.2
X184.4Y-103.25
X184.4Y-104.55
X184.583Y-93.686
X184.875Y-60.65
X184.875Y-61.7
X185.5Y-52.775
X185.75Y-103.25
X185.75Y-104.55
X185.975Y-60.675
X186.025Y-61.7
X186.107Y-107.399
X188.25Y-65.95
X189.85Y-113.
X190.249Y-106.536
X190.346Y-116.673
X190.75Y-65.6
X190.775Y-78.2
T2
X64.273Y-109.736
X65.162Y-106.878
X65.289Y-103.83
X66.305Y-104.973
X66.432Y-112.085
X66.94Y-99.639
X67.067Y-114.371
X67.328Y-120.357
X67.829Y-104.973
X68.25Y-119.42
X68.55Y-114.15
X68.728Y-120.557
X68.928Y-97.757
X69.099Y-103.894
X71.639Y-100.909
X71.928Y-97.957
X74.128Y-98.157
X75.128Y-99.157
X75.928Y-97.357
X75.928Y-100.357
X77.728Y-97.757
X78.728Y-100.357
X79.128Y-97.557
X79.328Y-117.757
X80.128Y-100.157
X80.656Y-119.197
X81.328Y-97.557
X81.328Y-100.557
X81.863Y-120.15
X82.728Y-100.357
X83.45Y-96.972
X84.657Y-120.15
X88.54Y-120.23
X89.038Y-96.972
X89.038Y-115.768
X89.728Y-109.357
X89.928Y-120.157
X90.562Y-99.893
X91.528Y-120.157
X92.928Y-120.157
T3
X64.143Y-45.695
X66.683Y-45.695
X69.223Y-45.695
X84.463Y-45.695
X87.003Y-45.695
X89.543Y-45.695
X92.083Y-45.695
T4
X59.927Y-43.129
X59.927Y-45.669
X173.06Y-84.875
X175.6Y-84.875
X157.95Y-60.587
X157.95Y-63.127
X157.95Y-65.667
X157.95Y-68.207
X157.95Y-70.747
X157.95Y-73.287
X157.95Y-75.827
X157.95Y-78.367
X157.95Y-80.907
X157.95Y-83.447
X157.95Y-85.987
X157.95Y-88.527
X157.95Y-91.067
X157.95Y-93.607
X157.95Y-96.147
X157.95Y-98.687
X156.441Y-36.518
X156.441Y-39.058
X156.441Y-41.598
X91.146Y-59.844
X91.146Y-62.384
X91.146Y-64.924
X91.146Y-67.464
X91.146Y-70.004
X91.146Y-72.544
X91.146Y-75.084
X91.146Y-77.624
X91.146Y-80.164
X91.146Y-82.704
X91.146Y-85.244
X179.175Y-73.285
X179.175Y-75.825
X179.175Y-79.475
X181.715Y-79.475
X184.255Y-79.475
X186.795Y-79.475
X89.27Y-126.355
X89.27Y-128.895
X89.27Y-131.435
X89.27Y-133.975
X89.27Y-136.515
X179.124Y-90.803
X181.664Y-90.803
X184.204Y-90.803
X186.744Y-90.803
X189.284Y-90.803
X116.3Y-127.97
X116.3Y-130.51
X116.3Y-133.05
X116.3Y-135.59
X116.3Y-138.13
X182.5Y-52.
X182.5Y-54.54
X182.5Y-57.08
X102.583Y-69.239
X102.583Y-71.779
X102.583Y-74.319
X102.583Y-76.859
X102.583Y-79.399
X102.583Y-81.939
X102.583Y-84.479
X102.583Y-87.019
X102.583Y-89.559
X102.583Y-92.099
X105.123Y-69.239
X105.123Y-71.779
X105.123Y-74.319
X105.123Y-76.859
X105.123Y-79.399
X105.123Y-81.939
X105.123Y-84.479
X105.123Y-87.019
X105.123Y-89.559
X105.123Y-92.099
X62.6Y-130.165
X62.6Y-132.705
X177.519Y-139.648
X180.059Y-139.648
X102.685Y-102.223
X105.225Y-102.223
X134.648Y-117.514
X134.648Y-120.054
X134.648Y-122.594
X134.648Y-125.134
X134.648Y-127.674
X134.648Y-130.214
X134.648Y-132.754
X134.648Y-135.294
X134.648Y-137.834
X94.245Y-98.496
X94.245Y-101.036
X94.245Y-103.576
X94.245Y-106.116
X94.245Y-108.656
X94.245Y-111.196
X94.245Y-113.736
X94.245Y-116.276
X94.245Y-118.816
X179.297Y-94.938
X179.297Y-97.478
X84.5Y-49.35
X87.04Y-49.35
X89.58Y-49.35
X92.12Y-49.35
X155.983Y-119.549
X155.983Y-122.089
X113.673Y-102.238
X116.213Y-102.238
X118.753Y-102.238
X121.293Y-102.238
X123.833Y-102.238
X126.373Y-102.238
X128.913Y-102.238
X131.453Y-102.238
X133.993Y-102.238
X136.533Y-102.238
X139.073Y-102.238
X141.613Y-102.238
X144.153Y-102.238
X146.693Y-102.238
X149.233Y-102.238
X151.773Y-102.238
X64.125Y-49.05
X66.665Y-49.05
X69.205Y-49.05
X183.111Y-32.454
X183.111Y-34.994
X183.111Y-37.534
X183.111Y-40.074
X183.111Y-42.614
X183.111Y-45.154
X179.051Y-111.283
X179.051Y-113.823
X179.051Y-116.363
X178.85Y-52.
X178.85Y-54.54
X178.85Y-57.08
X178.85Y-59.62
X178.85Y-62.16
X113.866Y-57.016
X116.406Y-57.016
X118.946Y-57.016
X121.486Y-57.016
X124.026Y-57.016
X126.566Y-57.016
X129.106Y-57.016
X131.646Y-57.016
X134.186Y-57.016
X136.726Y-57.016
X139.266Y-57.016
X141.806Y-57.016
X144.346Y-57.016
X146.886Y-57.016
X149.426Y-57.016
X151.966Y-57.016
T5
X175.859Y-124.248
X178.399Y-124.248
X180.939Y-124.248
X183.479Y-124.248
T6
X153.775Y-30.275
X99.35Y-139.8
X106.175Y-30.2
X189.35Y-84.75
X64.527Y-98.496
X60.75Y-54.175
X64.527Y-118.816
X60.9Y-90.65
X60.875Y-139.95
X189.625Y-30.275
X163.25Y-112.2
X189.675Y-140.15
T0
M30
