G04 #@! TF.GenerationSoftware,KiCad,Pcbnew,5.0.1-33cea8e~68~ubuntu16.04.1*
G04 #@! TF.CreationDate,2018-10-29T01:45:26-07:00*
G04 #@! TF.ProjectId,integrated-board-design-1,696E74656772617465642D626F617264,rev?*
G04 #@! TF.SameCoordinates,Original*
G04 #@! TF.FileFunction,Copper,L2,Inr,Plane*
G04 #@! TF.FilePolarity,Positive*
%FSLAX46Y46*%
G04 Gerber Fmt 4.6, Leading zero omitted, Abs format (unit mm)*
G04 Created by KiCad (PCBNEW 5.0.1-33cea8e~68~ubuntu16.04.1) date Mon 29 Oct 2018 01:45:26 AM PDT*
%MOMM*%
%LPD*%
G01*
G04 APERTURE LIST*
G04 #@! TA.AperFunction,WasherPad*
%ADD10C,3.000000*%
G04 #@! TD*
G04 #@! TA.AperFunction,ViaPad*
%ADD11C,2.184400*%
G04 #@! TD*
G04 #@! TA.AperFunction,ViaPad*
%ADD12R,1.730000X2.030000*%
G04 #@! TD*
G04 #@! TA.AperFunction,ViaPad*
%ADD13O,1.730000X2.030000*%
G04 #@! TD*
G04 #@! TA.AperFunction,ViaPad*
%ADD14C,3.200000*%
G04 #@! TD*
G04 #@! TA.AperFunction,ViaPad*
%ADD15R,1.700000X1.700000*%
G04 #@! TD*
G04 #@! TA.AperFunction,ViaPad*
%ADD16O,1.700000X1.700000*%
G04 #@! TD*
G04 #@! TA.AperFunction,WasherPad*
%ADD17C,1.350000*%
G04 #@! TD*
G04 #@! TA.AperFunction,WasherPad*
%ADD18C,1.600000*%
G04 #@! TD*
G04 #@! TA.AperFunction,ViaPad*
%ADD19C,1.778000*%
G04 #@! TD*
G04 #@! TA.AperFunction,ViaPad*
%ADD20C,0.800000*%
G04 #@! TD*
G04 #@! TA.AperFunction,ViaPad*
%ADD21C,0.906400*%
G04 #@! TD*
G04 #@! TA.AperFunction,ViaPad*
%ADD22C,1.676400*%
G04 #@! TD*
G04 APERTURE END LIST*
D10*
G04 #@! TO.N,*
G04 #@! TO.C,U1*
X78551015Y-109964309D03*
G04 #@! TD*
D11*
G04 #@! TO.N,GND*
G04 #@! TO.C,U$2*
X64143410Y-45694861D03*
X89543410Y-45694861D03*
G04 #@! TO.N,VCC*
X87003410Y-45694861D03*
G04 #@! TO.N,/D4*
X84463410Y-45694861D03*
G04 #@! TO.N,/D3*
X92083410Y-45694861D03*
G04 #@! TO.N,GND*
X69223410Y-45694861D03*
G04 #@! TO.N,PB4*
X66683410Y-45694861D03*
G04 #@! TD*
D12*
G04 #@! TO.N,/CSB*
G04 #@! TO.C,*
X183479203Y-124248068D03*
D13*
G04 #@! TO.N,/SDO*
X180939203Y-124248068D03*
G04 #@! TO.N,/SDI*
X178399203Y-124248068D03*
G04 #@! TO.N,/SCLK*
X175859203Y-124248068D03*
G04 #@! TD*
D14*
G04 #@! TO.N,N/C*
G04 #@! TO.C,U$8*
X60875000Y-139950000D03*
G04 #@! TD*
G04 #@! TO.N,N/C*
G04 #@! TO.C,U$8*
X60900000Y-90650000D03*
G04 #@! TD*
G04 #@! TO.N,N/C*
G04 #@! TO.C,U$8*
X153775000Y-30275000D03*
G04 #@! TD*
G04 #@! TO.N,N/C*
G04 #@! TO.C,U$8*
X106175000Y-30200000D03*
G04 #@! TD*
G04 #@! TO.N,N/C*
G04 #@! TO.C,U$8*
X99350000Y-139800000D03*
G04 #@! TD*
G04 #@! TO.N,N/C*
G04 #@! TO.C,U$8*
X189350000Y-84750000D03*
G04 #@! TD*
G04 #@! TO.N,N/C*
G04 #@! TO.C,U$9*
X163250000Y-112200000D03*
G04 #@! TD*
G04 #@! TO.N,N/C*
G04 #@! TO.C,U$9*
X60750000Y-54175000D03*
G04 #@! TD*
G04 #@! TO.N,N/C*
G04 #@! TO.C,U$9*
X189625000Y-30275000D03*
G04 #@! TD*
G04 #@! TO.N,N/C*
G04 #@! TO.C,U$8*
X189675000Y-140150000D03*
G04 #@! TD*
D15*
G04 #@! TO.N,Net-(J2-Pad1)*
G04 #@! TO.C,J9*
X91146480Y-59844400D03*
D16*
G04 #@! TO.N,Net-(J2-Pad2)*
X91146480Y-62384400D03*
G04 #@! TO.N,Net-(J2-Pad3)*
X91146480Y-64924400D03*
G04 #@! TO.N,Net-(J2-Pad4)*
X91146480Y-67464400D03*
G04 #@! TO.N,Net-(J2-Pad5)*
X91146480Y-70004400D03*
G04 #@! TO.N,Net-(J2-Pad6)*
X91146480Y-72544400D03*
G04 #@! TO.N,Net-(J2-Pad7)*
X91146480Y-75084400D03*
G04 #@! TO.N,Net-(J2-Pad8)*
X91146480Y-77624400D03*
G04 #@! TO.N,Net-(J2-Pad10)*
X91146480Y-80164400D03*
G04 #@! TO.N,Net-(J2-Pad9)*
X91146480Y-82704400D03*
G04 #@! TO.N,Net-(J2-Pad11)*
X91146480Y-85244400D03*
G04 #@! TD*
D15*
G04 #@! TO.N,Net-(C16-Pad2)*
G04 #@! TO.C,J10*
X179297020Y-97477940D03*
D16*
G04 #@! TO.N,Net-(C21-Pad1)*
X179297020Y-94937940D03*
G04 #@! TD*
D15*
G04 #@! TO.N,Net-(C16-Pad1)*
G04 #@! TO.C,J7*
X175600000Y-84875000D03*
D16*
G04 #@! TO.N,Net-(C16-Pad2)*
X173060000Y-84875000D03*
G04 #@! TD*
D15*
G04 #@! TO.N,Net-(C16-Pad2)*
G04 #@! TO.C,J8*
X179175000Y-75825000D03*
D16*
G04 #@! TO.N,Net-(C18-Pad1)*
X179175000Y-73285000D03*
G04 #@! TD*
D15*
G04 #@! TO.N,Net-(C16-Pad2)*
G04 #@! TO.C,J13*
X179175000Y-79475000D03*
D16*
X181715000Y-79475000D03*
X184255000Y-79475000D03*
X186795000Y-79475000D03*
G04 #@! TD*
D15*
G04 #@! TO.N,Net-(C21-Pad1)*
G04 #@! TO.C,J14*
X179124300Y-90802820D03*
D16*
X181664300Y-90802820D03*
X184204300Y-90802820D03*
X186744300Y-90802820D03*
X189284300Y-90802820D03*
G04 #@! TD*
D15*
G04 #@! TO.N,Net-(C16-Pad2)*
G04 #@! TO.C,J12*
X179050640Y-111282840D03*
D16*
X179050640Y-113822840D03*
X179050640Y-116362840D03*
G04 #@! TD*
D15*
G04 #@! TO.N,+3V3*
G04 #@! TO.C,*
X177519203Y-139648068D03*
D16*
G04 #@! TO.N,GND*
X180059203Y-139648068D03*
G04 #@! TD*
G04 #@! TO.N,GND*
G04 #@! TO.C,JP2*
X116300080Y-138129560D03*
G04 #@! TO.N,VCC*
X116300080Y-135589560D03*
G04 #@! TO.N,/SDA*
X116300080Y-133049560D03*
G04 #@! TO.N,/SCL*
X116300080Y-130509560D03*
D15*
G04 #@! TO.N,/SQW*
X116300080Y-127969560D03*
G04 #@! TD*
D17*
G04 #@! TO.N,*
G04 #@! TO.C,B1*
X113450080Y-120349560D03*
D18*
X106000080Y-120349560D03*
G04 #@! TD*
D15*
G04 #@! TO.N,Net-(C1-Pad2)*
G04 #@! TO.C,J2*
X155983300Y-119549160D03*
D16*
G04 #@! TO.N,Net-(C1-Pad1)*
X155983300Y-122089160D03*
G04 #@! TD*
D15*
G04 #@! TO.N,Net-(J1-Pad1)*
G04 #@! TO.C,J1*
X134648301Y-117514161D03*
D16*
G04 #@! TO.N,Net-(J1-Pad2)*
X134648301Y-120054161D03*
G04 #@! TO.N,Net-(D2-Pad1)*
X134648301Y-122594161D03*
G04 #@! TO.N,Net-(D1-Pad1)*
X134648301Y-125134161D03*
G04 #@! TO.N,Net-(J1-Pad5)*
X134648301Y-127674161D03*
G04 #@! TO.N,Net-(J1-Pad6)*
X134648301Y-130214161D03*
G04 #@! TO.N,Net-(J1-Pad7)*
X134648301Y-132754161D03*
G04 #@! TO.N,Net-(J1-Pad8)*
X134648301Y-135294161D03*
G04 #@! TO.N,Net-(J1-Pad9)*
X134648301Y-137834161D03*
G04 #@! TD*
D15*
G04 #@! TO.N,GND*
G04 #@! TO.C,J1*
X156441000Y-36518000D03*
D16*
G04 #@! TO.N,VDD*
X156441000Y-39058000D03*
G04 #@! TO.N,VDDIO*
X156441000Y-41598000D03*
G04 #@! TD*
D15*
G04 #@! TO.N,INT*
G04 #@! TO.C,J2*
X183111000Y-32454000D03*
D16*
G04 #@! TO.N,FSYNC*
X183111000Y-34994000D03*
G04 #@! TO.N,nCS*
X183111000Y-37534000D03*
G04 #@! TO.N,SCL*
X183111000Y-40074000D03*
G04 #@! TO.N,SDA*
X183111000Y-42614000D03*
G04 #@! TO.N,AD0*
X183111000Y-45154000D03*
G04 #@! TD*
D15*
G04 #@! TO.N,GND*
G04 #@! TO.C,REF\002A\002A*
X64125000Y-49050000D03*
D16*
G04 #@! TO.N,PB4*
X66665000Y-49050000D03*
G04 #@! TO.N,GND*
X69205000Y-49050000D03*
G04 #@! TD*
D15*
G04 #@! TO.N,/D4*
G04 #@! TO.C,REF\002A\002A*
X84500000Y-49350000D03*
D16*
G04 #@! TO.N,VCC*
X87040000Y-49350000D03*
G04 #@! TO.N,GND*
X89580000Y-49350000D03*
G04 #@! TO.N,/D3*
X92120000Y-49350000D03*
G04 #@! TD*
G04 #@! TO.N,Net-(C18-Pad1)*
G04 #@! TO.C,J20*
X182500000Y-57080000D03*
X182500000Y-54540000D03*
D15*
X182500000Y-52000000D03*
G04 #@! TD*
D16*
G04 #@! TO.N,Net-(C18-Pad1)*
G04 #@! TO.C,J21*
X178850000Y-62160000D03*
X178850000Y-59620000D03*
X178850000Y-57080000D03*
X178850000Y-54540000D03*
D15*
X178850000Y-52000000D03*
G04 #@! TD*
D14*
G04 #@! TO.N,N/C*
G04 #@! TO.C,U$8*
X64527015Y-118816309D03*
G04 #@! TD*
G04 #@! TO.N,N/C*
G04 #@! TO.C,U$9*
X64527015Y-98496309D03*
G04 #@! TD*
D19*
G04 #@! TO.N,3.3V*
G04 #@! TO.C,JP1*
X94245015Y-118816309D03*
G04 #@! TO.N,/ENABLE*
X94245015Y-116276309D03*
G04 #@! TO.N,/VBACKUP*
X94245015Y-113736309D03*
G04 #@! TO.N,/FIX*
X94245015Y-111196309D03*
G04 #@! TO.N,/TX*
X94245015Y-108656309D03*
G04 #@! TO.N,/RX*
X94245015Y-106116309D03*
G04 #@! TO.N,GND*
X94245015Y-103576309D03*
G04 #@! TO.N,VIN*
X94245015Y-101036309D03*
G04 #@! TO.N,/1PPS*
X94245015Y-98496309D03*
G04 #@! TD*
D15*
G04 #@! TO.N,Net-(J1-Pad1)*
G04 #@! TO.C,J1*
X62600000Y-132705000D03*
D16*
G04 #@! TO.N,Net-(J1-Pad2)*
X62600000Y-130165000D03*
G04 #@! TD*
D15*
G04 #@! TO.N,+3V3*
G04 #@! TO.C,J2*
X89270000Y-126355000D03*
D16*
G04 #@! TO.N,Net-(C2-Pad2)*
X89270000Y-128895000D03*
G04 #@! TO.N,Net-(J2-Pad3)*
X89270000Y-131435000D03*
G04 #@! TO.N,Net-(J2-Pad4)*
X89270000Y-133975000D03*
G04 #@! TO.N,Net-(J2-Pad5)*
X89270000Y-136515000D03*
G04 #@! TD*
D15*
G04 #@! TO.N,+3V3*
G04 #@! TO.C,J1*
X105123120Y-92098520D03*
D16*
X102583120Y-92098520D03*
G04 #@! TO.N,PB4*
X105123120Y-89558520D03*
G04 #@! TO.N,GND*
X102583120Y-89558520D03*
G04 #@! TO.N,PA15*
X105123120Y-87018520D03*
G04 #@! TO.N,GND*
X102583120Y-87018520D03*
G04 #@! TO.N,PA13*
X105123120Y-84478520D03*
G04 #@! TO.N,GND*
X102583120Y-84478520D03*
G04 #@! TO.N,PA14*
X105123120Y-81938520D03*
G04 #@! TO.N,GND*
X102583120Y-81938520D03*
G04 #@! TO.N,Net-(10k1-Pad2)*
X105123120Y-79398520D03*
G04 #@! TO.N,GND*
X102583120Y-79398520D03*
G04 #@! TO.N,PB3*
X105123120Y-76858520D03*
G04 #@! TO.N,GND*
X102583120Y-76858520D03*
G04 #@! TO.N,RST*
X105123120Y-74318520D03*
G04 #@! TO.N,GND*
X102583120Y-74318520D03*
G04 #@! TO.N,Net-(10k3-Pad2)*
X105123120Y-71778520D03*
G04 #@! TO.N,GND*
X102583120Y-71778520D03*
G04 #@! TO.N,Net-(10k2-Pad2)*
X105123120Y-69238520D03*
G04 #@! TO.N,GND*
X102583120Y-69238520D03*
G04 #@! TD*
D15*
G04 #@! TO.N,PA0*
G04 #@! TO.C,J3*
X157950040Y-98687280D03*
D16*
G04 #@! TO.N,PA1*
X157950040Y-96147280D03*
G04 #@! TO.N,PA2*
X157950040Y-93607280D03*
G04 #@! TO.N,PA3*
X157950040Y-91067280D03*
G04 #@! TO.N,PA4*
X157950040Y-88527280D03*
G04 #@! TO.N,PA5*
X157950040Y-85987280D03*
G04 #@! TO.N,PA6*
X157950040Y-83447280D03*
G04 #@! TO.N,PA7*
X157950040Y-80907280D03*
G04 #@! TO.N,PA8*
X157950040Y-78367280D03*
G04 #@! TO.N,PA9*
X157950040Y-75827280D03*
G04 #@! TO.N,PA10*
X157950040Y-73287280D03*
G04 #@! TO.N,PA11*
X157950040Y-70747280D03*
G04 #@! TO.N,PA12*
X157950040Y-68207280D03*
G04 #@! TO.N,PA13*
X157950040Y-65667280D03*
G04 #@! TO.N,PA14*
X157950040Y-63127280D03*
G04 #@! TO.N,PA15*
X157950040Y-60587280D03*
G04 #@! TD*
D15*
G04 #@! TO.N,PB0*
G04 #@! TO.C,J4*
X151965800Y-57016040D03*
D16*
G04 #@! TO.N,PB1*
X149425800Y-57016040D03*
G04 #@! TO.N,PB2*
X146885800Y-57016040D03*
G04 #@! TO.N,PB3*
X144345800Y-57016040D03*
G04 #@! TO.N,PB4*
X141805800Y-57016040D03*
G04 #@! TO.N,PB5*
X139265800Y-57016040D03*
G04 #@! TO.N,PB6*
X136725800Y-57016040D03*
G04 #@! TO.N,PB7*
X134185800Y-57016040D03*
G04 #@! TO.N,PB8*
X131645800Y-57016040D03*
G04 #@! TO.N,PB9*
X129105800Y-57016040D03*
G04 #@! TO.N,PB10*
X126565800Y-57016040D03*
G04 #@! TO.N,PB11*
X124025800Y-57016040D03*
G04 #@! TO.N,PB12*
X121485800Y-57016040D03*
G04 #@! TO.N,PB13*
X118945800Y-57016040D03*
G04 #@! TO.N,PB14*
X116405800Y-57016040D03*
G04 #@! TO.N,PB15*
X113865800Y-57016040D03*
G04 #@! TD*
D15*
G04 #@! TO.N,PC0*
G04 #@! TO.C,J5*
X113672760Y-102238200D03*
D16*
G04 #@! TO.N,PC1*
X116212760Y-102238200D03*
G04 #@! TO.N,PC2*
X118752760Y-102238200D03*
G04 #@! TO.N,PC3*
X121292760Y-102238200D03*
G04 #@! TO.N,PC4*
X123832760Y-102238200D03*
G04 #@! TO.N,PC5*
X126372760Y-102238200D03*
G04 #@! TO.N,PC6*
X128912760Y-102238200D03*
G04 #@! TO.N,PC7*
X131452760Y-102238200D03*
G04 #@! TO.N,PC8*
X133992760Y-102238200D03*
G04 #@! TO.N,PC9*
X136532760Y-102238200D03*
G04 #@! TO.N,PC10*
X139072760Y-102238200D03*
G04 #@! TO.N,PC11*
X141612760Y-102238200D03*
G04 #@! TO.N,PC12*
X144152760Y-102238200D03*
G04 #@! TO.N,PC13*
X146692760Y-102238200D03*
G04 #@! TO.N,Net-(J5-Pad15)*
X149232760Y-102238200D03*
G04 #@! TO.N,PD2*
X151772760Y-102238200D03*
G04 #@! TD*
D15*
G04 #@! TO.N,GND*
G04 #@! TO.C,J6*
X102684720Y-102222960D03*
D16*
G04 #@! TO.N,+3V3*
X105224720Y-102222960D03*
G04 #@! TD*
D20*
G04 #@! TO.N,*
X110340000Y-70675014D03*
X107565000Y-76200000D03*
G04 #@! TO.N,GND*
X171173000Y-36264000D03*
X163650000Y-43650000D03*
X171000000Y-45075000D03*
D21*
X83450015Y-96972309D03*
X82728415Y-100357409D03*
X89038015Y-115768309D03*
X91528415Y-120157409D03*
X80656015Y-119197309D03*
X88540000Y-120230000D03*
X67328415Y-120357409D03*
X68728415Y-120557409D03*
X78728415Y-100357409D03*
X75928415Y-97357409D03*
X89928415Y-120157409D03*
X79128415Y-97557409D03*
X74128415Y-98157409D03*
X68250000Y-119420000D03*
X68928415Y-97757409D03*
X92928415Y-120157409D03*
X81328415Y-97557409D03*
X75128415Y-99157409D03*
X67829015Y-104973309D03*
X69099015Y-103893809D03*
X65289015Y-103830309D03*
X68550000Y-114150000D03*
X66432015Y-112085309D03*
X67067015Y-114371309D03*
X65162015Y-106878309D03*
X64273015Y-109735809D03*
X66305015Y-104973309D03*
X66940015Y-99639309D03*
X71639015Y-100909309D03*
X77728415Y-97757409D03*
X71928415Y-97957409D03*
D22*
X59927010Y-45669461D03*
D20*
X144740000Y-77400000D03*
X122340000Y-70675000D03*
X118615000Y-74525000D03*
X114839986Y-85225000D03*
X119940000Y-89549986D03*
X123675129Y-91858324D03*
X122340000Y-91049998D03*
X124240000Y-95199999D03*
X132040000Y-78700002D03*
X138840000Y-84500000D03*
X138440000Y-86500000D03*
X131069106Y-82254106D03*
X135265170Y-85500149D03*
X130815000Y-95125000D03*
X148490000Y-75860000D03*
X138677867Y-79088821D03*
X128560000Y-70310000D03*
X139440000Y-96610000D03*
G04 #@! TO.N,+3V3*
X140851577Y-88246190D03*
X127840000Y-62975000D03*
X144265000Y-78828600D03*
X122915000Y-89275000D03*
X124664913Y-93795536D03*
X124664913Y-90700000D03*
X146586080Y-75739996D03*
X132790000Y-62040000D03*
X128480000Y-71750000D03*
X144500000Y-71240000D03*
G04 #@! TO.N,RST*
X127390000Y-81663850D03*
D22*
G04 #@! TO.N,PB4*
X59927010Y-43129461D03*
D20*
X112276489Y-72424979D03*
X140622160Y-66866176D03*
G04 #@! TO.N,PB3*
X107599759Y-72874990D03*
X142220000Y-68380000D03*
G04 #@! TO.N,PA1*
X129315000Y-94400000D03*
G04 #@! TO.N,PA2*
X129265000Y-93375000D03*
G04 #@! TO.N,PA3*
X129340168Y-90550157D03*
G04 #@! TO.N,PA4*
X130691882Y-91325179D03*
G04 #@! TO.N,PA5*
X132265000Y-91099976D03*
G04 #@! TO.N,PA6*
X133440000Y-91200000D03*
G04 #@! TO.N,PA7*
X134587491Y-91070965D03*
G04 #@! TO.N,PB0*
X133914996Y-97625010D03*
G04 #@! TO.N,PB1*
X135091446Y-97625010D03*
G04 #@! TO.N,PB2*
X136465023Y-97650023D03*
G04 #@! TO.N,PB8*
X131320000Y-61020000D03*
X132430000Y-74080000D03*
G04 #@! TO.N,PB9*
X129789998Y-61140000D03*
X131678310Y-74807960D03*
G04 #@! TO.N,PB10*
X137740000Y-97725000D03*
G04 #@! TO.N,PB12*
X142920252Y-86934867D03*
X151041901Y-71725489D03*
X147910000Y-68330000D03*
G04 #@! TO.N,PB13*
X144661006Y-87148778D03*
X150277977Y-72370813D03*
X147170000Y-69110000D03*
G04 #@! TO.N,PB14*
X144275833Y-86225921D03*
X149578593Y-73085576D03*
X146527558Y-69876350D03*
G04 #@! TO.N,PB15*
X144765000Y-85349998D03*
X148898492Y-73818711D03*
X145784151Y-70545207D03*
G04 #@! TO.N,PC0*
X116339984Y-85225000D03*
X126140000Y-81625000D03*
G04 #@! TO.N,PC1*
X117390728Y-85213447D03*
X124740000Y-82100000D03*
G04 #@! TO.N,PC2*
X118390000Y-85175000D03*
X123640000Y-82775000D03*
G04 #@! TO.N,PC3*
X120365000Y-85675000D03*
X122665000Y-83550000D03*
G04 #@! TO.N,PC10*
X139353807Y-74078517D03*
G04 #@! TO.N,PC11*
X139530000Y-72790000D03*
G04 #@! TO.N,PC12*
X137900000Y-73200000D03*
G04 #@! TO.N,PC13*
X127815000Y-77625000D03*
G04 #@! TO.N,PD2*
X139490000Y-71280000D03*
G04 #@! TO.N,PB11*
X138559698Y-90813296D03*
X151740000Y-70960001D03*
X148560000Y-67540000D03*
G04 #@! TO.N,Net-(C16-Pad1)*
X186106760Y-107399180D03*
X188250000Y-65950000D03*
X184050000Y-68200000D03*
X182075780Y-110129680D03*
G04 #@! TO.N,Net-(C16-Pad2)*
X190249500Y-106535580D03*
X190346020Y-116672720D03*
X184582760Y-93685720D03*
X185500000Y-52775000D03*
X190775000Y-78200000D03*
X190750000Y-65600000D03*
X182200000Y-59225000D03*
X180600000Y-100800000D03*
G04 #@! TO.N,Net-(C17-Pad1)*
X182875000Y-65950000D03*
X181850000Y-65950000D03*
X186025000Y-61700000D03*
X184875000Y-61700000D03*
X184875000Y-60650000D03*
X185975000Y-60675000D03*
G04 #@! TO.N,Net-(C20-Pad1)*
X180666080Y-107427120D03*
X179575000Y-107425000D03*
X185750000Y-104550000D03*
X185750000Y-103250000D03*
X184400000Y-103250000D03*
X184400000Y-104550000D03*
G04 #@! TO.N,Net-(C21-Pad1)*
X189850000Y-113000000D03*
G04 #@! TO.N,Net-(C1-Pad1)*
X114080080Y-128019560D03*
X114080080Y-134369560D03*
X158777300Y-135551160D03*
X158015300Y-133773160D03*
X158015300Y-132757160D03*
X158015300Y-131741160D03*
X155983300Y-137075160D03*
X159539286Y-136313160D03*
G04 #@! TO.N,VCC*
X112480000Y-137130000D03*
X110150000Y-135410000D03*
G04 #@! TO.N,Net-(D1-Pad2)*
X152427300Y-116755160D03*
X167159300Y-132757160D03*
G04 #@! TO.N,Net-(D2-Pad2)*
X146585300Y-120819160D03*
X152427300Y-127169160D03*
X163603300Y-129201160D03*
X163603300Y-127169160D03*
G04 #@! TO.N,Net-(J1-Pad1)*
X150903300Y-126153160D03*
X160047300Y-130725160D03*
X156999300Y-126153160D03*
G04 #@! TO.N,Net-(J1-Pad2)*
X158523300Y-128185160D03*
X162587300Y-129201160D03*
X154205300Y-128185160D03*
G04 #@! TO.N,Net-(J1-Pad5)*
X164873300Y-139869160D03*
X151411300Y-131741160D03*
G04 #@! TO.N,Net-(J1-Pad6)*
X164619300Y-138599160D03*
X153697300Y-133519160D03*
G04 #@! TO.N,Net-(J1-Pad7)*
X138711300Y-133011160D03*
X138711300Y-140377160D03*
G04 #@! TO.N,Net-(J1-Pad8)*
X142775300Y-135297160D03*
X142775300Y-138599160D03*
G04 #@! TO.N,Net-(R2-Pad2)*
X168914300Y-137814160D03*
X161063300Y-129455160D03*
G04 #@! TO.N,Net-(R3-Pad2)*
X160047300Y-129709160D03*
X157761300Y-129709160D03*
G04 #@! TO.N,Net-(C1-Pad2)*
X168914300Y-119572160D03*
D21*
G04 #@! TO.N,3.3V*
X89038015Y-96972309D03*
X75928415Y-100357409D03*
X81328415Y-100557409D03*
G04 #@! TO.N,VIN*
X90562015Y-99893309D03*
G04 #@! TO.N,/1PPS*
X80128415Y-100157409D03*
G04 #@! TO.N,/FIX*
X89728415Y-109357409D03*
X79328415Y-117757409D03*
G04 #@! TO.N,/VBACKUP*
X84656515Y-120149809D03*
G04 #@! TO.N,Net-(B1-Pad+$1)*
X81862515Y-120149809D03*
D20*
G04 #@! TO.N,VDD*
X170275000Y-41425000D03*
X163575000Y-39050000D03*
G04 #@! TD*
M02*
