G04 #@! TF.GenerationSoftware,KiCad,Pcbnew,5.0.1-33cea8e~68~ubuntu16.04.1*
G04 #@! TF.CreationDate,2018-10-29T01:45:26-07:00*
G04 #@! TF.ProjectId,integrated-board-design-1,696E74656772617465642D626F617264,rev?*
G04 #@! TF.SameCoordinates,Original*
G04 #@! TF.FileFunction,Other,Fab,Top*
%FSLAX46Y46*%
G04 Gerber Fmt 4.6, Leading zero omitted, Abs format (unit mm)*
G04 Created by KiCad (PCBNEW 5.0.1-33cea8e~68~ubuntu16.04.1) date Mon 29 Oct 2018 01:45:26 AM PDT*
%MOMM*%
%LPD*%
G01*
G04 APERTURE LIST*
%ADD10C,0.100000*%
%ADD11C,0.203200*%
%ADD12C,0.127000*%
%ADD13C,0.076200*%
%ADD14C,0.101600*%
%ADD15C,0.150000*%
%ADD16C,0.077216*%
%ADD17C,0.075000*%
%ADD18C,0.040000*%
%ADD19C,0.060000*%
%ADD20C,0.020320*%
%ADD21C,0.061772*%
%ADD22C,0.096520*%
G04 APERTURE END LIST*
D10*
G04 #@! TO.C,C1*
X104000080Y-135604560D02*
X103200080Y-135604560D01*
X104000080Y-134004560D02*
X104000080Y-135604560D01*
X103200080Y-134004560D02*
X104000080Y-134004560D01*
X103200080Y-135604560D02*
X103200080Y-134004560D01*
G04 #@! TO.C,C2*
X109080080Y-135604560D02*
X108280080Y-135604560D01*
X109080080Y-134004560D02*
X109080080Y-135604560D01*
X108280080Y-134004560D02*
X109080080Y-134004560D01*
X108280080Y-135604560D02*
X108280080Y-134004560D01*
G04 #@! TO.C,R3*
X112890080Y-135604560D02*
X112090080Y-135604560D01*
X112890080Y-134004560D02*
X112890080Y-135604560D01*
X112090080Y-134004560D02*
X112890080Y-134004560D01*
X112090080Y-135604560D02*
X112090080Y-134004560D01*
D11*
G04 #@! TO.C,U1*
X86751015Y-101164309D02*
X86751015Y-117164309D01*
X70751015Y-101164309D02*
X86751015Y-101164309D01*
D12*
X70751015Y-117164309D02*
X70751015Y-101164309D01*
D11*
X86751015Y-117164309D02*
X70751015Y-117164309D01*
D10*
G04 #@! TO.C,C1*
X178275000Y-137275000D02*
X178275000Y-136475000D01*
X179875000Y-137275000D02*
X178275000Y-137275000D01*
X179875000Y-136475000D02*
X179875000Y-137275000D01*
X178275000Y-136475000D02*
X179875000Y-136475000D01*
G04 #@! TO.C,*
X178379203Y-120948068D02*
X178379203Y-121948068D01*
X178379203Y-121948068D02*
X183479203Y-121948068D01*
X183479203Y-121948068D02*
X183479203Y-120948068D01*
X177729203Y-126748068D02*
X174629203Y-126748068D01*
X174629203Y-126748068D02*
X174629203Y-120948068D01*
X174629203Y-120948068D02*
X184679203Y-120948068D01*
X184679203Y-120948068D02*
X184729203Y-120948068D01*
X184729203Y-120948068D02*
X184729203Y-126748068D01*
X184729203Y-126748068D02*
X179079203Y-126748068D01*
G04 #@! TO.C,J2*
X66105440Y-69991760D02*
X65605440Y-69491760D01*
X66555440Y-69991760D02*
X66105440Y-69991760D01*
X66105440Y-79141760D02*
X66105440Y-78141760D01*
X65605440Y-65291760D02*
X65605440Y-69491760D01*
X64105440Y-77641760D02*
G75*
G03X64605440Y-78141760I500000J0D01*
G01*
X64605440Y-67141760D02*
G75*
G03X64105440Y-67641760I0J-500000D01*
G01*
X64105440Y-67641760D02*
X64105440Y-77641760D01*
X66555440Y-69991760D02*
X66555440Y-78141760D01*
X65605440Y-65291760D02*
X81655440Y-65291760D01*
X66105440Y-79141760D02*
X81655440Y-79141760D01*
X81655440Y-65291760D02*
X81655440Y-79141760D01*
X60105440Y-67641760D02*
X60105440Y-77641760D01*
X60105440Y-77641760D02*
G75*
G03X60605440Y-78141760I500000J0D01*
G01*
X60605440Y-67141760D02*
G75*
G03X60105440Y-67641760I0J-500000D01*
G01*
X60605440Y-78141760D02*
X66555440Y-78141760D01*
X65605440Y-67141760D02*
X60605440Y-67141760D01*
G04 #@! TO.C,J9*
X90511480Y-58574400D02*
X92416480Y-58574400D01*
X92416480Y-58574400D02*
X92416480Y-86514400D01*
X92416480Y-86514400D02*
X89876480Y-86514400D01*
X89876480Y-86514400D02*
X89876480Y-59209400D01*
X89876480Y-59209400D02*
X90511480Y-58574400D01*
G04 #@! TO.C,C16*
X180925000Y-66750000D02*
X180125000Y-66750000D01*
X180925000Y-65150000D02*
X180925000Y-66750000D01*
X180125000Y-65150000D02*
X180925000Y-65150000D01*
X180125000Y-66750000D02*
X180125000Y-65150000D01*
G04 #@! TO.C,C17*
X187725000Y-61850000D02*
X188525000Y-61850000D01*
X187725000Y-63450000D02*
X187725000Y-61850000D01*
X188525000Y-63450000D02*
X187725000Y-63450000D01*
X188525000Y-61850000D02*
X188525000Y-63450000D01*
G04 #@! TO.C,C18*
X188050000Y-50975000D02*
X188050000Y-51775000D01*
X186450000Y-50975000D02*
X188050000Y-50975000D01*
X186450000Y-51775000D02*
X186450000Y-50975000D01*
X188050000Y-51775000D02*
X186450000Y-51775000D01*
G04 #@! TO.C,C19*
X178425000Y-108175000D02*
X177625000Y-108175000D01*
X178425000Y-106575000D02*
X178425000Y-108175000D01*
X177625000Y-106575000D02*
X178425000Y-106575000D01*
X177625000Y-108175000D02*
X177625000Y-106575000D01*
G04 #@! TO.C,C20*
X187571120Y-104717080D02*
X188371120Y-104717080D01*
X187571120Y-106317080D02*
X187571120Y-104717080D01*
X188371120Y-106317080D02*
X187571120Y-106317080D01*
X188371120Y-104717080D02*
X188371120Y-106317080D01*
G04 #@! TO.C,C21*
X187790720Y-93278100D02*
X187790720Y-94078100D01*
X186190720Y-93278100D02*
X187790720Y-93278100D01*
X186190720Y-94078100D02*
X186190720Y-93278100D01*
X187790720Y-94078100D02*
X186190720Y-94078100D01*
G04 #@! TO.C,J10*
X179932020Y-98747940D02*
X178027020Y-98747940D01*
X178027020Y-98747940D02*
X178027020Y-93667940D01*
X178027020Y-93667940D02*
X180567020Y-93667940D01*
X180567020Y-93667940D02*
X180567020Y-98112940D01*
X180567020Y-98112940D02*
X179932020Y-98747940D01*
G04 #@! TO.C,R5*
X190425000Y-66675000D02*
X190425000Y-67475000D01*
X188825000Y-66675000D02*
X190425000Y-66675000D01*
X188825000Y-67475000D02*
X188825000Y-66675000D01*
X190425000Y-67475000D02*
X188825000Y-67475000D01*
G04 #@! TO.C,R6*
X188127260Y-69022680D02*
X188927260Y-69022680D01*
X188127260Y-70622680D02*
X188127260Y-69022680D01*
X188927260Y-70622680D02*
X188127260Y-70622680D01*
X188927260Y-69022680D02*
X188927260Y-70622680D01*
G04 #@! TO.C,R7*
X190002840Y-107888180D02*
X190002840Y-108688180D01*
X188402840Y-107888180D02*
X190002840Y-107888180D01*
X188402840Y-108688180D02*
X188402840Y-107888180D01*
X190002840Y-108688180D02*
X188402840Y-108688180D01*
G04 #@! TO.C,R8*
X187733680Y-110515860D02*
X188533680Y-110515860D01*
X187733680Y-112115860D02*
X187733680Y-110515860D01*
X188533680Y-112115860D02*
X187733680Y-112115860D01*
X188533680Y-110515860D02*
X188533680Y-112115860D01*
G04 #@! TO.C,J7*
X176870000Y-84240000D02*
X176870000Y-86145000D01*
X176870000Y-86145000D02*
X171790000Y-86145000D01*
X171790000Y-86145000D02*
X171790000Y-83605000D01*
X171790000Y-83605000D02*
X176235000Y-83605000D01*
X176235000Y-83605000D02*
X176870000Y-84240000D01*
G04 #@! TO.C,J8*
X179810000Y-77095000D02*
X177905000Y-77095000D01*
X177905000Y-77095000D02*
X177905000Y-72015000D01*
X177905000Y-72015000D02*
X180445000Y-72015000D01*
X180445000Y-72015000D02*
X180445000Y-76460000D01*
X180445000Y-76460000D02*
X179810000Y-77095000D01*
G04 #@! TO.C,D4*
X187938760Y-115600180D02*
X188338760Y-115600180D01*
X188138760Y-115550180D02*
X187938760Y-115250180D01*
X188338760Y-115250180D02*
X188138760Y-115550180D01*
X187938760Y-115250180D02*
X188338760Y-115250180D01*
X188538760Y-114600180D02*
X188538760Y-116200180D01*
X187738760Y-114600180D02*
X188538760Y-114600180D01*
X187738760Y-116200180D02*
X187738760Y-114600180D01*
X187738760Y-116200180D02*
X188538760Y-116200180D01*
G04 #@! TO.C,D5*
X188339960Y-74135120D02*
X188739960Y-74135120D01*
X188539960Y-74085120D02*
X188339960Y-73785120D01*
X188739960Y-73785120D02*
X188539960Y-74085120D01*
X188339960Y-73785120D02*
X188739960Y-73785120D01*
X188939960Y-73135120D02*
X188939960Y-74735120D01*
X188139960Y-73135120D02*
X188939960Y-73135120D01*
X188139960Y-74735120D02*
X188139960Y-73135120D01*
X188139960Y-74735120D02*
X188939960Y-74735120D01*
G04 #@! TO.C,R9*
X190036040Y-117961820D02*
X190036040Y-118761820D01*
X188436040Y-117961820D02*
X190036040Y-117961820D01*
X188436040Y-118761820D02*
X188436040Y-117961820D01*
X190036040Y-118761820D02*
X188436040Y-118761820D01*
G04 #@! TO.C,R10*
X190442500Y-76359600D02*
X190442500Y-77159600D01*
X188842500Y-76359600D02*
X190442500Y-76359600D01*
X188842500Y-77159600D02*
X188842500Y-76359600D01*
X190442500Y-77159600D02*
X188842500Y-77159600D01*
G04 #@! TO.C,J13*
X177905000Y-80110000D02*
X177905000Y-78205000D01*
X177905000Y-78205000D02*
X188065000Y-78205000D01*
X188065000Y-78205000D02*
X188065000Y-80745000D01*
X188065000Y-80745000D02*
X178540000Y-80745000D01*
X178540000Y-80745000D02*
X177905000Y-80110000D01*
G04 #@! TO.C,J14*
X177854300Y-91437820D02*
X177854300Y-89532820D01*
X177854300Y-89532820D02*
X190554300Y-89532820D01*
X190554300Y-89532820D02*
X190554300Y-92072820D01*
X190554300Y-92072820D02*
X178489300Y-92072820D01*
X178489300Y-92072820D02*
X177854300Y-91437820D01*
G04 #@! TO.C,J12*
X178415640Y-110012840D02*
X180320640Y-110012840D01*
X180320640Y-110012840D02*
X180320640Y-117632840D01*
X180320640Y-117632840D02*
X177780640Y-117632840D01*
X177780640Y-117632840D02*
X177780640Y-110647840D01*
X177780640Y-110647840D02*
X178415640Y-110012840D01*
G04 #@! TO.C,*
X177519203Y-138378068D02*
X181329203Y-138378068D01*
X181329203Y-138378068D02*
X181329203Y-140918068D01*
X181329203Y-140918068D02*
X176249203Y-140918068D01*
X176249203Y-140918068D02*
X176249203Y-139648068D01*
X176249203Y-139648068D02*
X177519203Y-138378068D01*
G04 #@! TO.C,JP2*
X115030080Y-127334560D02*
X115665080Y-126699560D01*
X115030080Y-139399560D02*
X115030080Y-127334560D01*
X117570080Y-139399560D02*
X115030080Y-139399560D01*
X117570080Y-126699560D02*
X117570080Y-139399560D01*
X115665080Y-126699560D02*
X117570080Y-126699560D01*
G04 #@! TO.C,J2*
X158118300Y-118279160D02*
X160023300Y-118279160D01*
X160023300Y-118279160D02*
X160023300Y-123359160D01*
X160023300Y-123359160D02*
X157483300Y-123359160D01*
X157483300Y-123359160D02*
X157483300Y-118914160D01*
X157483300Y-118914160D02*
X158118300Y-118279160D01*
X155663300Y-119229160D02*
X157483300Y-119229160D01*
X155663300Y-119229160D02*
X155663300Y-119869160D01*
X155663300Y-119869160D02*
X157483300Y-119869160D01*
X160023300Y-119229160D02*
X166023300Y-119229160D01*
X166023300Y-119229160D02*
X166023300Y-119869160D01*
X160023300Y-119869160D02*
X166023300Y-119869160D01*
X155663300Y-121769160D02*
X157483300Y-121769160D01*
X155663300Y-121769160D02*
X155663300Y-122409160D01*
X155663300Y-122409160D02*
X157483300Y-122409160D01*
X160023300Y-121769160D02*
X166023300Y-121769160D01*
X166023300Y-121769160D02*
X166023300Y-122409160D01*
X160023300Y-122409160D02*
X166023300Y-122409160D01*
G04 #@! TO.C,C1*
X167929300Y-127673160D02*
X167929300Y-127173160D01*
X167929300Y-127173160D02*
X168929300Y-127173160D01*
X168929300Y-127173160D02*
X168929300Y-127673160D01*
X168929300Y-127673160D02*
X167929300Y-127673160D01*
G04 #@! TO.C,C2*
X168929300Y-130721160D02*
X167929300Y-130721160D01*
X168929300Y-130221160D02*
X168929300Y-130721160D01*
X167929300Y-130221160D02*
X168929300Y-130221160D01*
X167929300Y-130721160D02*
X167929300Y-130221160D01*
G04 #@! TO.C,C3*
X143799300Y-137325160D02*
X143799300Y-136825160D01*
X143799300Y-136825160D02*
X144799300Y-136825160D01*
X144799300Y-136825160D02*
X144799300Y-137325160D01*
X144799300Y-137325160D02*
X143799300Y-137325160D01*
G04 #@! TO.C,D1*
X144307300Y-125387160D02*
X144307300Y-124887160D01*
X144307300Y-124887160D02*
X145307300Y-124887160D01*
X145307300Y-124887160D02*
X145307300Y-125387160D01*
X145307300Y-125387160D02*
X144307300Y-125387160D01*
X144407300Y-125387160D02*
X144407300Y-124887160D01*
X144507300Y-125387160D02*
X144507300Y-124887160D01*
G04 #@! TO.C,D2*
X144507300Y-121069160D02*
X144507300Y-120569160D01*
X144407300Y-121069160D02*
X144407300Y-120569160D01*
X145307300Y-121069160D02*
X144307300Y-121069160D01*
X145307300Y-120569160D02*
X145307300Y-121069160D01*
X144307300Y-120569160D02*
X145307300Y-120569160D01*
X144307300Y-121069160D02*
X144307300Y-120569160D01*
G04 #@! TO.C,J1*
X124618301Y-116244161D02*
X132158301Y-116244161D01*
X132158301Y-116244161D02*
X133128301Y-117214161D01*
X133128301Y-117214161D02*
X133128301Y-139104161D01*
X133128301Y-139104161D02*
X124618301Y-139104161D01*
X124618301Y-139104161D02*
X124618301Y-116244161D01*
X134648301Y-117214161D02*
X133128301Y-117214161D01*
X133128301Y-117814161D02*
X134648301Y-117814161D01*
X134648301Y-117814161D02*
X134648301Y-117214161D01*
X134648301Y-119754161D02*
X133128301Y-119754161D01*
X133128301Y-120354161D02*
X134648301Y-120354161D01*
X134648301Y-120354161D02*
X134648301Y-119754161D01*
X134648301Y-122294161D02*
X133128301Y-122294161D01*
X133128301Y-122894161D02*
X134648301Y-122894161D01*
X134648301Y-122894161D02*
X134648301Y-122294161D01*
X134648301Y-124834161D02*
X133128301Y-124834161D01*
X133128301Y-125434161D02*
X134648301Y-125434161D01*
X134648301Y-125434161D02*
X134648301Y-124834161D01*
X134648301Y-127374161D02*
X133128301Y-127374161D01*
X133128301Y-127974161D02*
X134648301Y-127974161D01*
X134648301Y-127974161D02*
X134648301Y-127374161D01*
X134648301Y-129914161D02*
X133128301Y-129914161D01*
X133128301Y-130514161D02*
X134648301Y-130514161D01*
X134648301Y-130514161D02*
X134648301Y-129914161D01*
X134648301Y-132454161D02*
X133128301Y-132454161D01*
X133128301Y-133054161D02*
X134648301Y-133054161D01*
X134648301Y-133054161D02*
X134648301Y-132454161D01*
X134648301Y-134994161D02*
X133128301Y-134994161D01*
X133128301Y-135594161D02*
X134648301Y-135594161D01*
X134648301Y-135594161D02*
X134648301Y-134994161D01*
X134648301Y-137534161D02*
X133128301Y-137534161D01*
X133128301Y-138134161D02*
X134648301Y-138134161D01*
X134648301Y-138134161D02*
X134648301Y-137534161D01*
G04 #@! TO.C,R1*
X144307300Y-117005160D02*
X144307300Y-116505160D01*
X144307300Y-116505160D02*
X145307300Y-116505160D01*
X145307300Y-116505160D02*
X145307300Y-117005160D01*
X145307300Y-117005160D02*
X144307300Y-117005160D01*
G04 #@! TO.C,R2*
X167929300Y-136563160D02*
X167929300Y-136063160D01*
X167929300Y-136063160D02*
X168929300Y-136063160D01*
X168929300Y-136063160D02*
X168929300Y-136563160D01*
X168929300Y-136563160D02*
X167929300Y-136563160D01*
G04 #@! TO.C,R3*
X145307300Y-129705160D02*
X144307300Y-129705160D01*
X145307300Y-129205160D02*
X145307300Y-129705160D01*
X144307300Y-129205160D02*
X145307300Y-129205160D01*
X144307300Y-129705160D02*
X144307300Y-129205160D01*
G04 #@! TO.C,R4*
X168929300Y-133769160D02*
X167929300Y-133769160D01*
X168929300Y-133269160D02*
X168929300Y-133769160D01*
X167929300Y-133269160D02*
X168929300Y-133269160D01*
X167929300Y-133769160D02*
X167929300Y-133269160D01*
G04 #@! TO.C,C1*
X168250000Y-45000000D02*
X167450000Y-45000000D01*
X167450000Y-45000000D02*
X167450000Y-43400000D01*
X167450000Y-43400000D02*
X168250000Y-43400000D01*
X168250000Y-43400000D02*
X168250000Y-45000000D01*
G04 #@! TO.C,C2*
X165275000Y-43475000D02*
X165275000Y-41875000D01*
X166075000Y-43475000D02*
X165275000Y-43475000D01*
X166075000Y-41875000D02*
X166075000Y-43475000D01*
X165275000Y-41875000D02*
X166075000Y-41875000D01*
G04 #@! TO.C,C3*
X172975000Y-37875000D02*
X172975000Y-38675000D01*
X172975000Y-38675000D02*
X171375000Y-38675000D01*
X171375000Y-38675000D02*
X171375000Y-37875000D01*
X171375000Y-37875000D02*
X172975000Y-37875000D01*
G04 #@! TO.C,C4*
X171375000Y-39600000D02*
X172975000Y-39600000D01*
X171375000Y-40400000D02*
X171375000Y-39600000D01*
X172975000Y-40400000D02*
X171375000Y-40400000D01*
X172975000Y-39600000D02*
X172975000Y-40400000D01*
G04 #@! TO.C,J1*
X155806000Y-35248000D02*
X157711000Y-35248000D01*
X157711000Y-35248000D02*
X157711000Y-42868000D01*
X157711000Y-42868000D02*
X155171000Y-42868000D01*
X155171000Y-42868000D02*
X155171000Y-35883000D01*
X155171000Y-35883000D02*
X155806000Y-35248000D01*
G04 #@! TO.C,J2*
X182476000Y-31184000D02*
X184381000Y-31184000D01*
X184381000Y-31184000D02*
X184381000Y-46424000D01*
X184381000Y-46424000D02*
X181841000Y-46424000D01*
X181841000Y-46424000D02*
X181841000Y-31819000D01*
X181841000Y-31819000D02*
X182476000Y-31184000D01*
G04 #@! TO.C,REF\002A\002A*
X62855000Y-49685000D02*
X62855000Y-47780000D01*
X62855000Y-47780000D02*
X70475000Y-47780000D01*
X70475000Y-47780000D02*
X70475000Y-50320000D01*
X70475000Y-50320000D02*
X63490000Y-50320000D01*
X63490000Y-50320000D02*
X62855000Y-49685000D01*
X83230000Y-49985000D02*
X83230000Y-48080000D01*
X83230000Y-48080000D02*
X93390000Y-48080000D01*
X93390000Y-48080000D02*
X93390000Y-50620000D01*
X93390000Y-50620000D02*
X83865000Y-50620000D01*
X83865000Y-50620000D02*
X83230000Y-49985000D01*
G04 #@! TO.C,J20*
X181230000Y-51365000D02*
X181865000Y-50730000D01*
X181230000Y-58350000D02*
X181230000Y-51365000D01*
X183770000Y-58350000D02*
X181230000Y-58350000D01*
X183770000Y-50730000D02*
X183770000Y-58350000D01*
X181865000Y-50730000D02*
X183770000Y-50730000D01*
G04 #@! TO.C,J21*
X177580000Y-51365000D02*
X178215000Y-50730000D01*
X177580000Y-63430000D02*
X177580000Y-51365000D01*
X180120000Y-63430000D02*
X177580000Y-63430000D01*
X180120000Y-50730000D02*
X180120000Y-63430000D01*
X178215000Y-50730000D02*
X180120000Y-50730000D01*
G04 #@! TO.C,LED1*
G36*
X75231015Y-118548309D02*
X75231015Y-118873309D01*
X75306015Y-118873309D01*
X75306015Y-118548309D01*
X75231015Y-118548309D01*
G37*
G36*
X74806015Y-118573309D02*
X74806015Y-118873309D01*
X75068015Y-118873309D01*
X75068015Y-118573309D01*
X74806015Y-118573309D01*
G37*
G36*
X73631015Y-118973309D02*
X73631015Y-119373309D01*
X73806015Y-119373309D01*
X73806015Y-118973309D01*
X73631015Y-118973309D01*
G37*
G36*
X73556015Y-118848309D02*
X73556015Y-118998309D01*
X73806015Y-118998309D01*
X73806015Y-118848309D01*
X73556015Y-118848309D01*
G37*
G36*
X73556015Y-119348309D02*
X73556015Y-119498309D01*
X73806015Y-119498309D01*
X73806015Y-119348309D01*
X73556015Y-119348309D01*
G37*
G36*
X73306015Y-118548309D02*
X73306015Y-118873309D01*
X73806015Y-118873309D01*
X73806015Y-118548309D01*
X73306015Y-118548309D01*
G37*
G36*
X73306015Y-119473309D02*
X73306015Y-119798309D01*
X73806015Y-119798309D01*
X73806015Y-119473309D01*
X73306015Y-119473309D01*
G37*
G36*
X74806015Y-118973309D02*
X74806015Y-119373309D01*
X74981015Y-119373309D01*
X74981015Y-118973309D01*
X74806015Y-118973309D01*
G37*
G36*
X74806015Y-119348309D02*
X74806015Y-119498309D01*
X75056015Y-119498309D01*
X75056015Y-119348309D01*
X74806015Y-119348309D01*
G37*
G36*
X74806015Y-118848309D02*
X74806015Y-118998309D01*
X75056015Y-118998309D01*
X75056015Y-118848309D01*
X74806015Y-118848309D01*
G37*
G36*
X74806015Y-119473309D02*
X74806015Y-119798309D01*
X75306015Y-119798309D01*
X75306015Y-119473309D01*
X74806015Y-119473309D01*
G37*
D13*
X75259015Y-118723309D02*
G75*
G03X75259015Y-118723309I-103000J0D01*
G01*
D14*
X73806015Y-118598309D02*
X75231015Y-118598309D01*
X74831015Y-119748309D02*
X73781015Y-119748309D01*
X73381017Y-119523309D02*
G75*
G03X73381015Y-118823309I-54201J350000D01*
G01*
X75231013Y-119523309D02*
G75*
G02X75231015Y-118823309I54201J350000D01*
G01*
D10*
G04 #@! TO.C,R1*
G36*
X78014415Y-118497409D02*
X77264315Y-118497409D01*
X77264315Y-119947509D01*
X78014415Y-119947509D01*
X78014415Y-118497409D01*
G37*
G36*
X79462215Y-118497409D02*
X78712115Y-118497409D01*
X78712115Y-119947509D01*
X79462215Y-119947509D01*
X79462215Y-118497409D01*
G37*
D14*
X78726015Y-118561309D02*
X77989015Y-118561309D01*
X78751015Y-119881309D02*
X77989015Y-119881309D01*
D10*
G04 #@! TO.C,C1*
G36*
X71005415Y-98661409D02*
X70255315Y-98661409D01*
X70255315Y-100111509D01*
X71005415Y-100111509D01*
X71005415Y-98661409D01*
G37*
G36*
X72453215Y-98661409D02*
X71703115Y-98661409D01*
X71703115Y-100111509D01*
X72453215Y-100111509D01*
X72453215Y-98661409D01*
G37*
D14*
X71717015Y-98725309D02*
X70980015Y-98725309D01*
X71742015Y-100045309D02*
X70980015Y-100045309D01*
D11*
G04 #@! TO.C,D1*
X86482015Y-98812309D02*
X86482015Y-100212309D01*
X84482015Y-100212309D02*
X84482015Y-98812309D01*
D10*
G04 #@! TO.C,R3*
G36*
X85507415Y-96907409D02*
X84757315Y-96907409D01*
X84757315Y-98357509D01*
X85507415Y-98357509D01*
X85507415Y-96907409D01*
G37*
G36*
X86955215Y-96907409D02*
X86205115Y-96907409D01*
X86205115Y-98357509D01*
X86955215Y-98357509D01*
X86955215Y-96907409D01*
G37*
D14*
X86219015Y-96971309D02*
X85482015Y-96971309D01*
X86244015Y-98291309D02*
X85482015Y-98291309D01*
D10*
G04 #@! TO.C,JP1*
G36*
X93991015Y-118562309D02*
X93991015Y-119070309D01*
X94499015Y-119070309D01*
X94499015Y-118562309D01*
X93991015Y-118562309D01*
G37*
G36*
X93991015Y-98242309D02*
X93991015Y-98750309D01*
X94499015Y-98750309D01*
X94499015Y-98242309D01*
X93991015Y-98242309D01*
G37*
G36*
X93991015Y-100782309D02*
X93991015Y-101290309D01*
X94499015Y-101290309D01*
X94499015Y-100782309D01*
X93991015Y-100782309D01*
G37*
G36*
X93991015Y-103322309D02*
X93991015Y-103830309D01*
X94499015Y-103830309D01*
X94499015Y-103322309D01*
X93991015Y-103322309D01*
G37*
G36*
X93991015Y-105862309D02*
X93991015Y-106370309D01*
X94499015Y-106370309D01*
X94499015Y-105862309D01*
X93991015Y-105862309D01*
G37*
G36*
X93991015Y-108402309D02*
X93991015Y-108910309D01*
X94499015Y-108910309D01*
X94499015Y-108402309D01*
X93991015Y-108402309D01*
G37*
G36*
X93991015Y-110942309D02*
X93991015Y-111450309D01*
X94499015Y-111450309D01*
X94499015Y-110942309D01*
X93991015Y-110942309D01*
G37*
G36*
X93991015Y-113482309D02*
X93991015Y-113990309D01*
X94499015Y-113990309D01*
X94499015Y-113482309D01*
X93991015Y-113482309D01*
G37*
G36*
X93991015Y-116022309D02*
X93991015Y-116530309D01*
X94499015Y-116530309D01*
X94499015Y-116022309D01*
X93991015Y-116022309D01*
G37*
D11*
X94880015Y-97226309D02*
X93610015Y-97226309D01*
G04 #@! TO.C,D2*
X84323015Y-118243309D02*
X84323015Y-119643309D01*
X82323015Y-119643309D02*
X82323015Y-118243309D01*
D10*
G04 #@! TO.C,L1*
X67362500Y-133575000D02*
X68962500Y-133575000D01*
X67362500Y-134375000D02*
X67362500Y-133575000D01*
X68962500Y-134375000D02*
X67362500Y-134375000D01*
X68962500Y-133575000D02*
X68962500Y-134375000D01*
G04 #@! TO.C,L2*
X66880000Y-127225000D02*
X68480000Y-127225000D01*
X66880000Y-128025000D02*
X66880000Y-127225000D01*
X68480000Y-128025000D02*
X66880000Y-128025000D01*
X68480000Y-127225000D02*
X68480000Y-128025000D01*
G04 #@! TO.C,C1*
X71890000Y-130152500D02*
X71890000Y-131752500D01*
X71090000Y-130152500D02*
X71890000Y-130152500D01*
X71090000Y-131752500D02*
X71090000Y-130152500D01*
X71890000Y-131752500D02*
X71090000Y-131752500D01*
G04 #@! TO.C,C2*
X83002500Y-124615000D02*
X83002500Y-123015000D01*
X83802500Y-124615000D02*
X83002500Y-124615000D01*
X83802500Y-123015000D02*
X83802500Y-124615000D01*
X83002500Y-123015000D02*
X83802500Y-123015000D01*
G04 #@! TO.C,J1*
X63235000Y-133975000D02*
X61330000Y-133975000D01*
X61330000Y-133975000D02*
X61330000Y-128895000D01*
X61330000Y-128895000D02*
X63870000Y-128895000D01*
X63870000Y-128895000D02*
X63870000Y-133340000D01*
X63870000Y-133340000D02*
X63235000Y-133975000D01*
G04 #@! TO.C,J2*
X88000000Y-125085000D02*
X89905000Y-125085000D01*
X89905000Y-125085000D02*
X90540000Y-125720000D01*
X90540000Y-125720000D02*
X90540000Y-137785000D01*
X90540000Y-137785000D02*
X88000000Y-137785000D01*
X88000000Y-137785000D02*
X88000000Y-125085000D01*
G04 #@! TO.C,REF\002A\002A*
X87600000Y-43675000D02*
X87600000Y-42875000D01*
X89200000Y-43675000D02*
X87600000Y-43675000D01*
X89200000Y-42875000D02*
X89200000Y-43675000D01*
X87600000Y-42875000D02*
X89200000Y-42875000D01*
G04 #@! TO.C,0k1*
X124642920Y-78861360D02*
X124642920Y-79661360D01*
X123042920Y-78861360D02*
X124642920Y-78861360D01*
X123042920Y-79661360D02*
X123042920Y-78861360D01*
X124642920Y-79661360D02*
X123042920Y-79661360D01*
G04 #@! TO.C,0k2*
X124653080Y-80288840D02*
X124653080Y-81088840D01*
X123053080Y-80288840D02*
X124653080Y-80288840D01*
X123053080Y-81088840D02*
X123053080Y-80288840D01*
X124653080Y-81088840D02*
X123053080Y-81088840D01*
G04 #@! TO.C,1uF1*
X123017520Y-86595560D02*
X123017520Y-85795560D01*
X124617520Y-86595560D02*
X123017520Y-86595560D01*
X124617520Y-85795560D02*
X124617520Y-86595560D01*
X123017520Y-85795560D02*
X124617520Y-85795560D01*
G04 #@! TO.C,1uF2*
X131123880Y-70434960D02*
X131923880Y-70434960D01*
X131123880Y-72034960D02*
X131123880Y-70434960D01*
X131923880Y-72034960D02*
X131123880Y-72034960D01*
X131923880Y-70434960D02*
X131923880Y-72034960D01*
G04 #@! TO.C,1uF3*
X132955120Y-94356520D02*
X132155120Y-94356520D01*
X132955120Y-92756520D02*
X132955120Y-94356520D01*
X132155120Y-92756520D02*
X132955120Y-92756520D01*
X132155120Y-94356520D02*
X132155120Y-92756520D01*
G04 #@! TO.C,1uF4*
X140697040Y-94539360D02*
X139897040Y-94539360D01*
X140697040Y-92939360D02*
X140697040Y-94539360D01*
X139897040Y-92939360D02*
X140697040Y-92939360D01*
X139897040Y-94539360D02*
X139897040Y-92939360D01*
G04 #@! TO.C,1uF5*
X148325880Y-77052880D02*
X148325880Y-77852880D01*
X146725880Y-77052880D02*
X148325880Y-77052880D01*
X146725880Y-77852880D02*
X146725880Y-77052880D01*
X148325880Y-77852880D02*
X146725880Y-77852880D01*
G04 #@! TO.C,4.7uF1*
X138959680Y-94544480D02*
X138159680Y-94544480D01*
X138959680Y-92944480D02*
X138959680Y-94544480D01*
X138159680Y-92944480D02*
X138959680Y-92944480D01*
X138159680Y-94544480D02*
X138159680Y-92944480D01*
G04 #@! TO.C,10k1*
X118404680Y-70352360D02*
X118404680Y-71152360D01*
X116804680Y-70352360D02*
X118404680Y-70352360D01*
X116804680Y-71152360D02*
X116804680Y-70352360D01*
X118404680Y-71152360D02*
X116804680Y-71152360D01*
G04 #@! TO.C,10k2*
X118404680Y-67451680D02*
X118404680Y-68251680D01*
X116804680Y-67451680D02*
X118404680Y-67451680D01*
X116804680Y-68251680D02*
X116804680Y-67451680D01*
X118404680Y-68251680D02*
X116804680Y-68251680D01*
G04 #@! TO.C,10k3*
X118404680Y-68894400D02*
X118404680Y-69694400D01*
X116804680Y-68894400D02*
X118404680Y-68894400D01*
X116804680Y-69694400D02*
X116804680Y-68894400D01*
X118404680Y-69694400D02*
X116804680Y-69694400D01*
G04 #@! TO.C,10k4*
X133341200Y-71884920D02*
X132541200Y-71884920D01*
X133341200Y-70284920D02*
X133341200Y-71884920D01*
X132541200Y-70284920D02*
X133341200Y-70284920D01*
X132541200Y-71884920D02*
X132541200Y-70284920D01*
G04 #@! TO.C,10nF1*
X123020060Y-85251900D02*
X123020060Y-84451900D01*
X124620060Y-85251900D02*
X123020060Y-85251900D01*
X124620060Y-84451900D02*
X124620060Y-85251900D01*
X123020060Y-84451900D02*
X124620060Y-84451900D01*
G04 #@! TO.C,22uH1*
X124637840Y-87294160D02*
X124637840Y-88094160D01*
X123037840Y-87294160D02*
X124637840Y-87294160D01*
X123037840Y-88094160D02*
X123037840Y-87294160D01*
X124637840Y-88094160D02*
X123037840Y-88094160D01*
G04 #@! TO.C,100nF1*
X104846120Y-64200480D02*
X104846120Y-65000480D01*
X103246120Y-64200480D02*
X104846120Y-64200480D01*
X103246120Y-65000480D02*
X103246120Y-64200480D01*
X104846120Y-65000480D02*
X103246120Y-65000480D01*
G04 #@! TO.C,100nF2*
X129767520Y-70434960D02*
X130567520Y-70434960D01*
X129767520Y-72034960D02*
X129767520Y-70434960D01*
X130567520Y-72034960D02*
X129767520Y-72034960D01*
X130567520Y-70434960D02*
X130567520Y-72034960D01*
G04 #@! TO.C,100nF3*
X134306400Y-94356520D02*
X133506400Y-94356520D01*
X134306400Y-92756520D02*
X134306400Y-94356520D01*
X133506400Y-92756520D02*
X134306400Y-92756520D01*
X133506400Y-94356520D02*
X133506400Y-92756520D01*
G04 #@! TO.C,100nF4*
X142022920Y-94539320D02*
X141222920Y-94539320D01*
X142022920Y-92939320D02*
X142022920Y-94539320D01*
X141222920Y-92939320D02*
X142022920Y-92939320D01*
X141222920Y-94539320D02*
X141222920Y-92939320D01*
G04 #@! TO.C,100nF5*
X148320800Y-78414320D02*
X148320800Y-79214320D01*
X146720800Y-78414320D02*
X148320800Y-78414320D01*
X146720800Y-79214320D02*
X146720800Y-78414320D01*
X148320800Y-79214320D02*
X146720800Y-79214320D01*
G04 #@! TO.C,C1*
X120782120Y-75574600D02*
X120782120Y-76374600D01*
X119182120Y-75574600D02*
X120782120Y-75574600D01*
X119182120Y-76374600D02*
X119182120Y-75574600D01*
X120782120Y-76374600D02*
X119182120Y-76374600D01*
G04 #@! TO.C,C2*
X120777040Y-83646720D02*
X120777040Y-84446720D01*
X119177040Y-83646720D02*
X120777040Y-83646720D01*
X119177040Y-84446720D02*
X119177040Y-83646720D01*
X120777040Y-84446720D02*
X119177040Y-84446720D01*
G04 #@! TO.C,J1*
X105123120Y-93368520D02*
X101313120Y-93368520D01*
X101313120Y-93368520D02*
X101313120Y-67968520D01*
X101313120Y-67968520D02*
X106393120Y-67968520D01*
X106393120Y-67968520D02*
X106393120Y-92098520D01*
X106393120Y-92098520D02*
X105123120Y-93368520D01*
G04 #@! TO.C,J3*
X158585040Y-99957280D02*
X156680040Y-99957280D01*
X156680040Y-99957280D02*
X156680040Y-59317280D01*
X156680040Y-59317280D02*
X159220040Y-59317280D01*
X159220040Y-59317280D02*
X159220040Y-99322280D01*
X159220040Y-99322280D02*
X158585040Y-99957280D01*
G04 #@! TO.C,J4*
X153235800Y-56381040D02*
X153235800Y-58286040D01*
X153235800Y-58286040D02*
X112595800Y-58286040D01*
X112595800Y-58286040D02*
X112595800Y-55746040D01*
X112595800Y-55746040D02*
X152600800Y-55746040D01*
X152600800Y-55746040D02*
X153235800Y-56381040D01*
G04 #@! TO.C,J5*
X112402760Y-102873200D02*
X112402760Y-100968200D01*
X112402760Y-100968200D02*
X153042760Y-100968200D01*
X153042760Y-100968200D02*
X153042760Y-103508200D01*
X153042760Y-103508200D02*
X113037760Y-103508200D01*
X113037760Y-103508200D02*
X112402760Y-102873200D01*
G04 #@! TO.C,J6*
X101414720Y-102857960D02*
X101414720Y-100952960D01*
X101414720Y-100952960D02*
X106494720Y-100952960D01*
X106494720Y-100952960D02*
X106494720Y-103492960D01*
X106494720Y-103492960D02*
X102049720Y-103492960D01*
X102049720Y-103492960D02*
X101414720Y-102857960D01*
G04 #@! TO.C,SW1*
X102668080Y-60515840D02*
X105668080Y-60515840D01*
X105668080Y-60515840D02*
X105668080Y-63015840D01*
X105668080Y-63015840D02*
X102668080Y-63015840D01*
X102668080Y-63015840D02*
X102668080Y-60515840D01*
X104918080Y-61765840D02*
G75*
G03X104918080Y-61765840I-750000J0D01*
G01*
G04 #@! TO.C,Y1*
X120413240Y-81722560D02*
X114613240Y-81722560D01*
X114613240Y-81722560D02*
X114513240Y-81622560D01*
X114513240Y-81622560D02*
X114513240Y-78322560D01*
X114513240Y-78322560D02*
X114613240Y-78222560D01*
X114613240Y-78222560D02*
X120413240Y-78222560D01*
X120413240Y-78222560D02*
X120513240Y-78322560D01*
X120513240Y-78322560D02*
X120513240Y-81622560D01*
X120513240Y-81622560D02*
X120413240Y-81722560D01*
X120513240Y-79222560D02*
X119513240Y-78222560D01*
G04 #@! TD*
G04 #@! TO.C,C1*
D15*
X102707222Y-134971226D02*
X102754841Y-135018845D01*
X102802460Y-135161702D01*
X102802460Y-135256940D01*
X102754841Y-135399798D01*
X102659603Y-135495036D01*
X102564365Y-135542655D01*
X102373889Y-135590274D01*
X102231032Y-135590274D01*
X102040556Y-135542655D01*
X101945318Y-135495036D01*
X101850080Y-135399798D01*
X101802460Y-135256940D01*
X101802460Y-135161702D01*
X101850080Y-135018845D01*
X101897699Y-134971226D01*
X102802460Y-134018845D02*
X102802460Y-134590274D01*
X102802460Y-134304560D02*
X101802460Y-134304560D01*
X101945318Y-134399798D01*
X102040556Y-134495036D01*
X102088175Y-134590274D01*
G04 #@! TO.C,C2*
X107787222Y-134971226D02*
X107834841Y-135018845D01*
X107882460Y-135161702D01*
X107882460Y-135256940D01*
X107834841Y-135399798D01*
X107739603Y-135495036D01*
X107644365Y-135542655D01*
X107453889Y-135590274D01*
X107311032Y-135590274D01*
X107120556Y-135542655D01*
X107025318Y-135495036D01*
X106930080Y-135399798D01*
X106882460Y-135256940D01*
X106882460Y-135161702D01*
X106930080Y-135018845D01*
X106977699Y-134971226D01*
X106977699Y-134590274D02*
X106930080Y-134542655D01*
X106882460Y-134447417D01*
X106882460Y-134209321D01*
X106930080Y-134114083D01*
X106977699Y-134066464D01*
X107072937Y-134018845D01*
X107168175Y-134018845D01*
X107311032Y-134066464D01*
X107882460Y-134637893D01*
X107882460Y-134018845D01*
G04 #@! TO.C,R3*
X111692460Y-134971226D02*
X111216270Y-135304560D01*
X111692460Y-135542655D02*
X110692460Y-135542655D01*
X110692460Y-135161702D01*
X110740080Y-135066464D01*
X110787699Y-135018845D01*
X110882937Y-134971226D01*
X111025794Y-134971226D01*
X111121032Y-135018845D01*
X111168651Y-135066464D01*
X111216270Y-135161702D01*
X111216270Y-135542655D01*
X110692460Y-134637893D02*
X110692460Y-134018845D01*
X111073413Y-134352179D01*
X111073413Y-134209321D01*
X111121032Y-134114083D01*
X111168651Y-134066464D01*
X111263889Y-134018845D01*
X111501984Y-134018845D01*
X111597222Y-134066464D01*
X111644841Y-134114083D01*
X111692460Y-134209321D01*
X111692460Y-134495036D01*
X111644841Y-134590274D01*
X111597222Y-134637893D01*
G04 #@! TO.C,U1*
D16*
X86199472Y-99062575D02*
X86199472Y-99384309D01*
X86705053Y-99384309D02*
X85739853Y-99384309D01*
X85739853Y-98924690D01*
X85785815Y-98051413D02*
X85739853Y-98143337D01*
X85739853Y-98281223D01*
X85785815Y-98419109D01*
X85877738Y-98511032D01*
X85969662Y-98556994D01*
X86153510Y-98602956D01*
X86291395Y-98602956D01*
X86475243Y-98556994D01*
X86567167Y-98511032D01*
X86659091Y-98419109D01*
X86705053Y-98281223D01*
X86705053Y-98189299D01*
X86659091Y-98051413D01*
X86613129Y-98005451D01*
X86291395Y-98005451D01*
X86291395Y-98189299D01*
X86705053Y-97591794D02*
X85739853Y-97591794D01*
X85739853Y-97224099D01*
X85785815Y-97132175D01*
X85831776Y-97086213D01*
X85923700Y-97040251D01*
X86061586Y-97040251D01*
X86153510Y-97086213D01*
X86199472Y-97132175D01*
X86245434Y-97224099D01*
X86245434Y-97591794D01*
X86705053Y-96626594D02*
X85739853Y-96626594D01*
X86429281Y-96304861D01*
X85739853Y-95983128D01*
X86705053Y-95983128D01*
X86705053Y-95523509D02*
X85739853Y-95523509D01*
X86429281Y-95201775D01*
X85739853Y-94880042D01*
X86705053Y-94880042D01*
X85739853Y-94236575D02*
X85739853Y-94052728D01*
X85785815Y-93960804D01*
X85877738Y-93868880D01*
X86061586Y-93822918D01*
X86383319Y-93822918D01*
X86567167Y-93868880D01*
X86659091Y-93960804D01*
X86705053Y-94052728D01*
X86705053Y-94236575D01*
X86659091Y-94328499D01*
X86567167Y-94420423D01*
X86383319Y-94466385D01*
X86061586Y-94466385D01*
X85877738Y-94420423D01*
X85785815Y-94328499D01*
X85739853Y-94236575D01*
X86705053Y-93409261D02*
X85739853Y-93409261D01*
X85739853Y-93041566D01*
X85785815Y-92949642D01*
X85831776Y-92903680D01*
X85923700Y-92857718D01*
X86061586Y-92857718D01*
X86153510Y-92903680D01*
X86199472Y-92949642D01*
X86245434Y-93041566D01*
X86245434Y-93409261D01*
X86429281Y-92490023D02*
X86429281Y-92030404D01*
X86705053Y-92581947D02*
X85739853Y-92260213D01*
X86705053Y-91938480D01*
X85739853Y-91203090D02*
X85739853Y-91386937D01*
X85785815Y-91478861D01*
X85831776Y-91524823D01*
X85969662Y-91616747D01*
X86153510Y-91662709D01*
X86521205Y-91662709D01*
X86613129Y-91616747D01*
X86659091Y-91570785D01*
X86705053Y-91478861D01*
X86705053Y-91295013D01*
X86659091Y-91203090D01*
X86613129Y-91157128D01*
X86521205Y-91111166D01*
X86291395Y-91111166D01*
X86199472Y-91157128D01*
X86153510Y-91203090D01*
X86107548Y-91295013D01*
X86107548Y-91478861D01*
X86153510Y-91570785D01*
X86199472Y-91616747D01*
X86291395Y-91662709D01*
X86705053Y-90697509D02*
X85739853Y-90697509D01*
X86199472Y-90697509D02*
X86199472Y-90145966D01*
X86705053Y-90145966D02*
X85739853Y-90145966D01*
G04 #@! TO.C,C1*
D15*
X181708333Y-137232142D02*
X181660714Y-137279761D01*
X181517857Y-137327380D01*
X181422619Y-137327380D01*
X181279761Y-137279761D01*
X181184523Y-137184523D01*
X181136904Y-137089285D01*
X181089285Y-136898809D01*
X181089285Y-136755952D01*
X181136904Y-136565476D01*
X181184523Y-136470238D01*
X181279761Y-136375000D01*
X181422619Y-136327380D01*
X181517857Y-136327380D01*
X181660714Y-136375000D01*
X181708333Y-136422619D01*
X182660714Y-137327380D02*
X182089285Y-137327380D01*
X182375000Y-137327380D02*
X182375000Y-136327380D01*
X182279761Y-136470238D01*
X182184523Y-136565476D01*
X182089285Y-136613095D01*
G04 #@! TO.C,*
G04 #@! TO.C,J2*
X64707820Y-79451283D02*
X63707820Y-79451283D01*
X64422106Y-79117950D01*
X63707820Y-78784617D01*
X64707820Y-78784617D01*
X64707820Y-78308426D02*
X64041154Y-78308426D01*
X63707820Y-78308426D02*
X63755440Y-78356045D01*
X63803059Y-78308426D01*
X63755440Y-78260807D01*
X63707820Y-78308426D01*
X63803059Y-78308426D01*
X64660201Y-77403664D02*
X64707820Y-77498902D01*
X64707820Y-77689379D01*
X64660201Y-77784617D01*
X64612582Y-77832236D01*
X64517344Y-77879855D01*
X64231630Y-77879855D01*
X64136392Y-77832236D01*
X64088773Y-77784617D01*
X64041154Y-77689379D01*
X64041154Y-77498902D01*
X64088773Y-77403664D01*
X64707820Y-76975093D02*
X64041154Y-76975093D01*
X64231630Y-76975093D02*
X64136392Y-76927474D01*
X64088773Y-76879855D01*
X64041154Y-76784617D01*
X64041154Y-76689379D01*
X64707820Y-76213188D02*
X64660201Y-76308426D01*
X64612582Y-76356045D01*
X64517344Y-76403664D01*
X64231630Y-76403664D01*
X64136392Y-76356045D01*
X64088773Y-76308426D01*
X64041154Y-76213188D01*
X64041154Y-76070331D01*
X64088773Y-75975093D01*
X64136392Y-75927474D01*
X64231630Y-75879855D01*
X64517344Y-75879855D01*
X64612582Y-75927474D01*
X64660201Y-75975093D01*
X64707820Y-76070331D01*
X64707820Y-76213188D01*
X64803059Y-75689379D02*
X64803059Y-74927474D01*
X64660201Y-74736998D02*
X64707820Y-74594140D01*
X64707820Y-74356045D01*
X64660201Y-74260807D01*
X64612582Y-74213188D01*
X64517344Y-74165569D01*
X64422106Y-74165569D01*
X64326868Y-74213188D01*
X64279249Y-74260807D01*
X64231630Y-74356045D01*
X64184011Y-74546521D01*
X64136392Y-74641760D01*
X64088773Y-74689379D01*
X63993535Y-74736998D01*
X63898297Y-74736998D01*
X63803059Y-74689379D01*
X63755440Y-74641760D01*
X63707820Y-74546521D01*
X63707820Y-74308426D01*
X63755440Y-74165569D01*
X64707820Y-73736998D02*
X63707820Y-73736998D01*
X63707820Y-73498902D01*
X63755440Y-73356045D01*
X63850678Y-73260807D01*
X63945916Y-73213188D01*
X64136392Y-73165569D01*
X64279249Y-73165569D01*
X64469725Y-73213188D01*
X64564963Y-73260807D01*
X64660201Y-73356045D01*
X64707820Y-73498902D01*
X64707820Y-73736998D01*
X64803059Y-72975093D02*
X64803059Y-72213188D01*
X64612582Y-71403664D02*
X64660201Y-71451283D01*
X64707820Y-71594140D01*
X64707820Y-71689379D01*
X64660201Y-71832236D01*
X64564963Y-71927474D01*
X64469725Y-71975093D01*
X64279249Y-72022712D01*
X64136392Y-72022712D01*
X63945916Y-71975093D01*
X63850678Y-71927474D01*
X63755440Y-71832236D01*
X63707820Y-71689379D01*
X63707820Y-71594140D01*
X63755440Y-71451283D01*
X63803059Y-71403664D01*
X64707820Y-70546521D02*
X64184011Y-70546521D01*
X64088773Y-70594140D01*
X64041154Y-70689379D01*
X64041154Y-70879855D01*
X64088773Y-70975093D01*
X64660201Y-70546521D02*
X64707820Y-70641760D01*
X64707820Y-70879855D01*
X64660201Y-70975093D01*
X64564963Y-71022712D01*
X64469725Y-71022712D01*
X64374487Y-70975093D01*
X64326868Y-70879855D01*
X64326868Y-70641760D01*
X64279249Y-70546521D01*
X64707820Y-70070331D02*
X64041154Y-70070331D01*
X64231630Y-70070331D02*
X64136392Y-70022712D01*
X64088773Y-69975093D01*
X64041154Y-69879855D01*
X64041154Y-69784617D01*
X64707820Y-69022712D02*
X63707820Y-69022712D01*
X64660201Y-69022712D02*
X64707820Y-69117950D01*
X64707820Y-69308426D01*
X64660201Y-69403664D01*
X64612582Y-69451283D01*
X64517344Y-69498902D01*
X64231630Y-69498902D01*
X64136392Y-69451283D01*
X64088773Y-69403664D01*
X64041154Y-69308426D01*
X64041154Y-69117950D01*
X64088773Y-69022712D01*
X64803059Y-68784617D02*
X64803059Y-68022712D01*
X64707820Y-67784617D02*
X63707820Y-67784617D01*
X63707820Y-67546521D01*
X63755440Y-67403664D01*
X63850678Y-67308426D01*
X63945916Y-67260807D01*
X64136392Y-67213188D01*
X64279249Y-67213188D01*
X64469725Y-67260807D01*
X64564963Y-67308426D01*
X64660201Y-67403664D01*
X64707820Y-67546521D01*
X64707820Y-67784617D01*
X64660201Y-66403664D02*
X64707820Y-66498902D01*
X64707820Y-66689379D01*
X64660201Y-66784617D01*
X64564963Y-66832236D01*
X64184011Y-66832236D01*
X64088773Y-66784617D01*
X64041154Y-66689379D01*
X64041154Y-66498902D01*
X64088773Y-66403664D01*
X64184011Y-66356045D01*
X64279249Y-66356045D01*
X64374487Y-66832236D01*
X64041154Y-66070331D02*
X64041154Y-65689379D01*
X63707820Y-65927474D02*
X64564963Y-65927474D01*
X64660201Y-65879855D01*
X64707820Y-65784617D01*
X64707820Y-65689379D01*
D10*
X71707820Y-72875093D02*
X72422106Y-72875093D01*
X72564963Y-72922712D01*
X72660201Y-73017950D01*
X72707820Y-73160807D01*
X72707820Y-73256045D01*
X71803059Y-72446521D02*
X71755440Y-72398902D01*
X71707820Y-72303664D01*
X71707820Y-72065569D01*
X71755440Y-71970331D01*
X71803059Y-71922712D01*
X71898297Y-71875093D01*
X71993535Y-71875093D01*
X72136392Y-71922712D01*
X72707820Y-72494140D01*
X72707820Y-71875093D01*
G04 #@! TO.C,J9*
D15*
X90598860Y-72877733D02*
X91313146Y-72877733D01*
X91456003Y-72925352D01*
X91551241Y-73020590D01*
X91598860Y-73163447D01*
X91598860Y-73258685D01*
X91598860Y-72353923D02*
X91598860Y-72163447D01*
X91551241Y-72068209D01*
X91503622Y-72020590D01*
X91360765Y-71925352D01*
X91170289Y-71877733D01*
X90789337Y-71877733D01*
X90694099Y-71925352D01*
X90646480Y-71972971D01*
X90598860Y-72068209D01*
X90598860Y-72258685D01*
X90646480Y-72353923D01*
X90694099Y-72401542D01*
X90789337Y-72449161D01*
X91027432Y-72449161D01*
X91122670Y-72401542D01*
X91170289Y-72353923D01*
X91217908Y-72258685D01*
X91217908Y-72068209D01*
X91170289Y-71972971D01*
X91122670Y-71925352D01*
X91027432Y-71877733D01*
G04 #@! TO.C,C16*
X180882142Y-70267857D02*
X180929761Y-70315476D01*
X180977380Y-70458333D01*
X180977380Y-70553571D01*
X180929761Y-70696428D01*
X180834523Y-70791666D01*
X180739285Y-70839285D01*
X180548809Y-70886904D01*
X180405952Y-70886904D01*
X180215476Y-70839285D01*
X180120238Y-70791666D01*
X180025000Y-70696428D01*
X179977380Y-70553571D01*
X179977380Y-70458333D01*
X180025000Y-70315476D01*
X180072619Y-70267857D01*
X180977380Y-69315476D02*
X180977380Y-69886904D01*
X180977380Y-69601190D02*
X179977380Y-69601190D01*
X180120238Y-69696428D01*
X180215476Y-69791666D01*
X180263095Y-69886904D01*
X179977380Y-68458333D02*
X179977380Y-68648809D01*
X180025000Y-68744047D01*
X180072619Y-68791666D01*
X180215476Y-68886904D01*
X180405952Y-68934523D01*
X180786904Y-68934523D01*
X180882142Y-68886904D01*
X180929761Y-68839285D01*
X180977380Y-68744047D01*
X180977380Y-68553571D01*
X180929761Y-68458333D01*
X180882142Y-68410714D01*
X180786904Y-68363095D01*
X180548809Y-68363095D01*
X180453571Y-68410714D01*
X180405952Y-68458333D01*
X180358333Y-68553571D01*
X180358333Y-68744047D01*
X180405952Y-68839285D01*
X180453571Y-68886904D01*
X180548809Y-68934523D01*
G04 #@! TO.C,C17*
X189732142Y-63292857D02*
X189779761Y-63340476D01*
X189827380Y-63483333D01*
X189827380Y-63578571D01*
X189779761Y-63721428D01*
X189684523Y-63816666D01*
X189589285Y-63864285D01*
X189398809Y-63911904D01*
X189255952Y-63911904D01*
X189065476Y-63864285D01*
X188970238Y-63816666D01*
X188875000Y-63721428D01*
X188827380Y-63578571D01*
X188827380Y-63483333D01*
X188875000Y-63340476D01*
X188922619Y-63292857D01*
X189827380Y-62340476D02*
X189827380Y-62911904D01*
X189827380Y-62626190D02*
X188827380Y-62626190D01*
X188970238Y-62721428D01*
X189065476Y-62816666D01*
X189113095Y-62911904D01*
X188827380Y-62007142D02*
X188827380Y-61340476D01*
X189827380Y-61769047D01*
G04 #@! TO.C,C19*
X178382142Y-104667857D02*
X178429761Y-104715476D01*
X178477380Y-104858333D01*
X178477380Y-104953571D01*
X178429761Y-105096428D01*
X178334523Y-105191666D01*
X178239285Y-105239285D01*
X178048809Y-105286904D01*
X177905952Y-105286904D01*
X177715476Y-105239285D01*
X177620238Y-105191666D01*
X177525000Y-105096428D01*
X177477380Y-104953571D01*
X177477380Y-104858333D01*
X177525000Y-104715476D01*
X177572619Y-104667857D01*
X178477380Y-103715476D02*
X178477380Y-104286904D01*
X178477380Y-104001190D02*
X177477380Y-104001190D01*
X177620238Y-104096428D01*
X177715476Y-104191666D01*
X177763095Y-104286904D01*
X178477380Y-103239285D02*
X178477380Y-103048809D01*
X178429761Y-102953571D01*
X178382142Y-102905952D01*
X178239285Y-102810714D01*
X178048809Y-102763095D01*
X177667857Y-102763095D01*
X177572619Y-102810714D01*
X177525000Y-102858333D01*
X177477380Y-102953571D01*
X177477380Y-103144047D01*
X177525000Y-103239285D01*
X177572619Y-103286904D01*
X177667857Y-103334523D01*
X177905952Y-103334523D01*
X178001190Y-103286904D01*
X178048809Y-103239285D01*
X178096428Y-103144047D01*
X178096428Y-102953571D01*
X178048809Y-102858333D01*
X178001190Y-102810714D01*
X177905952Y-102763095D01*
G04 #@! TO.C,C20*
X189578262Y-106159937D02*
X189625881Y-106207556D01*
X189673500Y-106350413D01*
X189673500Y-106445651D01*
X189625881Y-106588508D01*
X189530643Y-106683746D01*
X189435405Y-106731365D01*
X189244929Y-106778984D01*
X189102072Y-106778984D01*
X188911596Y-106731365D01*
X188816358Y-106683746D01*
X188721120Y-106588508D01*
X188673500Y-106445651D01*
X188673500Y-106350413D01*
X188721120Y-106207556D01*
X188768739Y-106159937D01*
X188768739Y-105778984D02*
X188721120Y-105731365D01*
X188673500Y-105636127D01*
X188673500Y-105398032D01*
X188721120Y-105302794D01*
X188768739Y-105255175D01*
X188863977Y-105207556D01*
X188959215Y-105207556D01*
X189102072Y-105255175D01*
X189673500Y-105826603D01*
X189673500Y-105207556D01*
X188673500Y-104588508D02*
X188673500Y-104493270D01*
X188721120Y-104398032D01*
X188768739Y-104350413D01*
X188863977Y-104302794D01*
X189054453Y-104255175D01*
X189292548Y-104255175D01*
X189483024Y-104302794D01*
X189578262Y-104350413D01*
X189625881Y-104398032D01*
X189673500Y-104493270D01*
X189673500Y-104588508D01*
X189625881Y-104683746D01*
X189578262Y-104731365D01*
X189483024Y-104778984D01*
X189292548Y-104826603D01*
X189054453Y-104826603D01*
X188863977Y-104778984D01*
X188768739Y-104731365D01*
X188721120Y-104683746D01*
X188673500Y-104588508D01*
G04 #@! TO.C,J10*
X178749400Y-97017463D02*
X179463686Y-97017463D01*
X179606543Y-97065082D01*
X179701781Y-97160320D01*
X179749400Y-97303178D01*
X179749400Y-97398416D01*
X179749400Y-96017463D02*
X179749400Y-96588892D01*
X179749400Y-96303178D02*
X178749400Y-96303178D01*
X178892258Y-96398416D01*
X178987496Y-96493654D01*
X179035115Y-96588892D01*
X178749400Y-95398416D02*
X178749400Y-95303178D01*
X178797020Y-95207940D01*
X178844639Y-95160320D01*
X178939877Y-95112701D01*
X179130353Y-95065082D01*
X179368448Y-95065082D01*
X179558924Y-95112701D01*
X179654162Y-95160320D01*
X179701781Y-95207940D01*
X179749400Y-95303178D01*
X179749400Y-95398416D01*
X179701781Y-95493654D01*
X179654162Y-95541273D01*
X179558924Y-95588892D01*
X179368448Y-95636511D01*
X179130353Y-95636511D01*
X178939877Y-95588892D01*
X178844639Y-95541273D01*
X178797020Y-95493654D01*
X178749400Y-95398416D01*
G04 #@! TO.C,R5*
D17*
X189558333Y-67255952D02*
X189425000Y-67065476D01*
X189329761Y-67255952D02*
X189329761Y-66855952D01*
X189482142Y-66855952D01*
X189520238Y-66875000D01*
X189539285Y-66894047D01*
X189558333Y-66932142D01*
X189558333Y-66989285D01*
X189539285Y-67027380D01*
X189520238Y-67046428D01*
X189482142Y-67065476D01*
X189329761Y-67065476D01*
X189920238Y-66855952D02*
X189729761Y-66855952D01*
X189710714Y-67046428D01*
X189729761Y-67027380D01*
X189767857Y-67008333D01*
X189863095Y-67008333D01*
X189901190Y-67027380D01*
X189920238Y-67046428D01*
X189939285Y-67084523D01*
X189939285Y-67179761D01*
X189920238Y-67217857D01*
X189901190Y-67236904D01*
X189863095Y-67255952D01*
X189767857Y-67255952D01*
X189729761Y-67236904D01*
X189710714Y-67217857D01*
G04 #@! TO.C,R6*
X188708212Y-69889346D02*
X188517736Y-70022680D01*
X188708212Y-70117918D02*
X188308212Y-70117918D01*
X188308212Y-69965537D01*
X188327260Y-69927441D01*
X188346307Y-69908394D01*
X188384402Y-69889346D01*
X188441545Y-69889346D01*
X188479640Y-69908394D01*
X188498688Y-69927441D01*
X188517736Y-69965537D01*
X188517736Y-70117918D01*
X188308212Y-69546489D02*
X188308212Y-69622680D01*
X188327260Y-69660775D01*
X188346307Y-69679822D01*
X188403450Y-69717918D01*
X188479640Y-69736965D01*
X188632021Y-69736965D01*
X188670117Y-69717918D01*
X188689164Y-69698870D01*
X188708212Y-69660775D01*
X188708212Y-69584584D01*
X188689164Y-69546489D01*
X188670117Y-69527441D01*
X188632021Y-69508394D01*
X188536783Y-69508394D01*
X188498688Y-69527441D01*
X188479640Y-69546489D01*
X188460593Y-69584584D01*
X188460593Y-69660775D01*
X188479640Y-69698870D01*
X188498688Y-69717918D01*
X188536783Y-69736965D01*
G04 #@! TO.C,R7*
X189136173Y-108469132D02*
X189002840Y-108278656D01*
X188907601Y-108469132D02*
X188907601Y-108069132D01*
X189059982Y-108069132D01*
X189098078Y-108088180D01*
X189117125Y-108107227D01*
X189136173Y-108145322D01*
X189136173Y-108202465D01*
X189117125Y-108240560D01*
X189098078Y-108259608D01*
X189059982Y-108278656D01*
X188907601Y-108278656D01*
X189269506Y-108069132D02*
X189536173Y-108069132D01*
X189364744Y-108469132D01*
G04 #@! TO.C,R8*
X188299392Y-111407926D02*
X188108916Y-111541260D01*
X188299392Y-111636498D02*
X187899392Y-111636498D01*
X187899392Y-111484117D01*
X187918440Y-111446021D01*
X187937487Y-111426974D01*
X187975582Y-111407926D01*
X188032725Y-111407926D01*
X188070820Y-111426974D01*
X188089868Y-111446021D01*
X188108916Y-111484117D01*
X188108916Y-111636498D01*
X188070820Y-111179355D02*
X188051773Y-111217450D01*
X188032725Y-111236498D01*
X187994630Y-111255545D01*
X187975582Y-111255545D01*
X187937487Y-111236498D01*
X187918440Y-111217450D01*
X187899392Y-111179355D01*
X187899392Y-111103164D01*
X187918440Y-111065069D01*
X187937487Y-111046021D01*
X187975582Y-111026974D01*
X187994630Y-111026974D01*
X188032725Y-111046021D01*
X188051773Y-111065069D01*
X188070820Y-111103164D01*
X188070820Y-111179355D01*
X188089868Y-111217450D01*
X188108916Y-111236498D01*
X188147011Y-111255545D01*
X188223201Y-111255545D01*
X188261297Y-111236498D01*
X188280344Y-111217450D01*
X188299392Y-111179355D01*
X188299392Y-111103164D01*
X188280344Y-111065069D01*
X188261297Y-111046021D01*
X188223201Y-111026974D01*
X188147011Y-111026974D01*
X188108916Y-111046021D01*
X188089868Y-111065069D01*
X188070820Y-111103164D01*
G04 #@! TO.C,J7*
D15*
X173996666Y-84327380D02*
X173996666Y-85041666D01*
X173949047Y-85184523D01*
X173853809Y-85279761D01*
X173710952Y-85327380D01*
X173615714Y-85327380D01*
X174377619Y-84327380D02*
X175044285Y-84327380D01*
X174615714Y-85327380D01*
G04 #@! TO.C,J8*
X178627380Y-74888333D02*
X179341666Y-74888333D01*
X179484523Y-74935952D01*
X179579761Y-75031190D01*
X179627380Y-75174047D01*
X179627380Y-75269285D01*
X179055952Y-74269285D02*
X179008333Y-74364523D01*
X178960714Y-74412142D01*
X178865476Y-74459761D01*
X178817857Y-74459761D01*
X178722619Y-74412142D01*
X178675000Y-74364523D01*
X178627380Y-74269285D01*
X178627380Y-74078809D01*
X178675000Y-73983571D01*
X178722619Y-73935952D01*
X178817857Y-73888333D01*
X178865476Y-73888333D01*
X178960714Y-73935952D01*
X179008333Y-73983571D01*
X179055952Y-74078809D01*
X179055952Y-74269285D01*
X179103571Y-74364523D01*
X179151190Y-74412142D01*
X179246428Y-74459761D01*
X179436904Y-74459761D01*
X179532142Y-74412142D01*
X179579761Y-74364523D01*
X179627380Y-74269285D01*
X179627380Y-74078809D01*
X179579761Y-73983571D01*
X179532142Y-73935952D01*
X179436904Y-73888333D01*
X179246428Y-73888333D01*
X179151190Y-73935952D01*
X179103571Y-73983571D01*
X179055952Y-74078809D01*
G04 #@! TO.C,R9*
D17*
X189169373Y-118542772D02*
X189036040Y-118352296D01*
X188940801Y-118542772D02*
X188940801Y-118142772D01*
X189093182Y-118142772D01*
X189131278Y-118161820D01*
X189150325Y-118180867D01*
X189169373Y-118218962D01*
X189169373Y-118276105D01*
X189150325Y-118314200D01*
X189131278Y-118333248D01*
X189093182Y-118352296D01*
X188940801Y-118352296D01*
X189359849Y-118542772D02*
X189436040Y-118542772D01*
X189474135Y-118523724D01*
X189493182Y-118504677D01*
X189531278Y-118447534D01*
X189550325Y-118371343D01*
X189550325Y-118218962D01*
X189531278Y-118180867D01*
X189512230Y-118161820D01*
X189474135Y-118142772D01*
X189397944Y-118142772D01*
X189359849Y-118161820D01*
X189340801Y-118180867D01*
X189321754Y-118218962D01*
X189321754Y-118314200D01*
X189340801Y-118352296D01*
X189359849Y-118371343D01*
X189397944Y-118390391D01*
X189474135Y-118390391D01*
X189512230Y-118371343D01*
X189531278Y-118352296D01*
X189550325Y-118314200D01*
G04 #@! TO.C,R10*
X189385357Y-76940552D02*
X189252023Y-76750076D01*
X189156785Y-76940552D02*
X189156785Y-76540552D01*
X189309166Y-76540552D01*
X189347261Y-76559600D01*
X189366309Y-76578647D01*
X189385357Y-76616742D01*
X189385357Y-76673885D01*
X189366309Y-76711980D01*
X189347261Y-76731028D01*
X189309166Y-76750076D01*
X189156785Y-76750076D01*
X189766309Y-76940552D02*
X189537738Y-76940552D01*
X189652023Y-76940552D02*
X189652023Y-76540552D01*
X189613928Y-76597695D01*
X189575833Y-76635790D01*
X189537738Y-76654838D01*
X190013928Y-76540552D02*
X190052023Y-76540552D01*
X190090119Y-76559600D01*
X190109166Y-76578647D01*
X190128214Y-76616742D01*
X190147261Y-76692933D01*
X190147261Y-76788171D01*
X190128214Y-76864361D01*
X190109166Y-76902457D01*
X190090119Y-76921504D01*
X190052023Y-76940552D01*
X190013928Y-76940552D01*
X189975833Y-76921504D01*
X189956785Y-76902457D01*
X189937738Y-76864361D01*
X189918690Y-76788171D01*
X189918690Y-76692933D01*
X189937738Y-76616742D01*
X189956785Y-76578647D01*
X189975833Y-76559600D01*
X190013928Y-76540552D01*
G04 #@! TO.C,J13*
D15*
X182175476Y-78927380D02*
X182175476Y-79641666D01*
X182127857Y-79784523D01*
X182032619Y-79879761D01*
X181889761Y-79927380D01*
X181794523Y-79927380D01*
X183175476Y-79927380D02*
X182604047Y-79927380D01*
X182889761Y-79927380D02*
X182889761Y-78927380D01*
X182794523Y-79070238D01*
X182699285Y-79165476D01*
X182604047Y-79213095D01*
X183508809Y-78927380D02*
X184127857Y-78927380D01*
X183794523Y-79308333D01*
X183937380Y-79308333D01*
X184032619Y-79355952D01*
X184080238Y-79403571D01*
X184127857Y-79498809D01*
X184127857Y-79736904D01*
X184080238Y-79832142D01*
X184032619Y-79879761D01*
X183937380Y-79927380D01*
X183651666Y-79927380D01*
X183556428Y-79879761D01*
X183508809Y-79832142D01*
G04 #@! TO.C,J14*
X183394776Y-90255200D02*
X183394776Y-90969486D01*
X183347157Y-91112343D01*
X183251919Y-91207581D01*
X183109061Y-91255200D01*
X183013823Y-91255200D01*
X184394776Y-91255200D02*
X183823347Y-91255200D01*
X184109061Y-91255200D02*
X184109061Y-90255200D01*
X184013823Y-90398058D01*
X183918585Y-90493296D01*
X183823347Y-90540915D01*
X185251919Y-90588534D02*
X185251919Y-91255200D01*
X185013823Y-90207581D02*
X184775728Y-90921867D01*
X185394776Y-90921867D01*
G04 #@! TO.C,J12*
X178503020Y-114632363D02*
X179217306Y-114632363D01*
X179360163Y-114679982D01*
X179455401Y-114775220D01*
X179503020Y-114918078D01*
X179503020Y-115013316D01*
X179503020Y-113632363D02*
X179503020Y-114203792D01*
X179503020Y-113918078D02*
X178503020Y-113918078D01*
X178645878Y-114013316D01*
X178741116Y-114108554D01*
X178788735Y-114203792D01*
X178598259Y-113251411D02*
X178550640Y-113203792D01*
X178503020Y-113108554D01*
X178503020Y-112870459D01*
X178550640Y-112775220D01*
X178598259Y-112727601D01*
X178693497Y-112679982D01*
X178788735Y-112679982D01*
X178931592Y-112727601D01*
X179503020Y-113299030D01*
X179503020Y-112679982D01*
G04 #@! TO.C,*
G04 #@! TO.C,JP2*
X115752460Y-133882893D02*
X116466746Y-133882893D01*
X116609603Y-133930512D01*
X116704841Y-134025750D01*
X116752460Y-134168607D01*
X116752460Y-134263845D01*
X116752460Y-133406702D02*
X115752460Y-133406702D01*
X115752460Y-133025750D01*
X115800080Y-132930512D01*
X115847699Y-132882893D01*
X115942937Y-132835274D01*
X116085794Y-132835274D01*
X116181032Y-132882893D01*
X116228651Y-132930512D01*
X116276270Y-133025750D01*
X116276270Y-133406702D01*
X115847699Y-132454321D02*
X115800080Y-132406702D01*
X115752460Y-132311464D01*
X115752460Y-132073369D01*
X115800080Y-131978131D01*
X115847699Y-131930512D01*
X115942937Y-131882893D01*
X116038175Y-131882893D01*
X116181032Y-131930512D01*
X116752460Y-132501940D01*
X116752460Y-131882893D01*
G04 #@! TO.C,B1*
X98307222Y-122444798D02*
X98354841Y-122492417D01*
X98402460Y-122635274D01*
X98402460Y-122730512D01*
X98354841Y-122873369D01*
X98259603Y-122968607D01*
X98164365Y-123016226D01*
X97973889Y-123063845D01*
X97831032Y-123063845D01*
X97640556Y-123016226D01*
X97545318Y-122968607D01*
X97450080Y-122873369D01*
X97402460Y-122730512D01*
X97402460Y-122635274D01*
X97450080Y-122492417D01*
X97497699Y-122444798D01*
X98402460Y-121444798D02*
X97926270Y-121778131D01*
X98402460Y-122016226D02*
X97402460Y-122016226D01*
X97402460Y-121635274D01*
X97450080Y-121540036D01*
X97497699Y-121492417D01*
X97592937Y-121444798D01*
X97735794Y-121444798D01*
X97831032Y-121492417D01*
X97878651Y-121540036D01*
X97926270Y-121635274D01*
X97926270Y-122016226D01*
X98402460Y-120492417D02*
X98402460Y-121063845D01*
X98402460Y-120778131D02*
X97402460Y-120778131D01*
X97545318Y-120873369D01*
X97640556Y-120968607D01*
X97688175Y-121063845D01*
X97497699Y-120111464D02*
X97450080Y-120063845D01*
X97402460Y-119968607D01*
X97402460Y-119730512D01*
X97450080Y-119635274D01*
X97497699Y-119587655D01*
X97592937Y-119540036D01*
X97688175Y-119540036D01*
X97831032Y-119587655D01*
X98402460Y-120159083D01*
X98402460Y-119540036D01*
X97497699Y-119159083D02*
X97450080Y-119111464D01*
X97402460Y-119016226D01*
X97402460Y-118778131D01*
X97450080Y-118682893D01*
X97497699Y-118635274D01*
X97592937Y-118587655D01*
X97688175Y-118587655D01*
X97831032Y-118635274D01*
X98402460Y-119206702D01*
X98402460Y-118587655D01*
X97402460Y-117968607D02*
X97402460Y-117873369D01*
X97450080Y-117778131D01*
X97497699Y-117730512D01*
X97592937Y-117682893D01*
X97783413Y-117635274D01*
X98021508Y-117635274D01*
X98211984Y-117682893D01*
X98307222Y-117730512D01*
X98354841Y-117778131D01*
X98402460Y-117873369D01*
X98402460Y-117968607D01*
X98354841Y-118063845D01*
X98307222Y-118111464D01*
X98211984Y-118159083D01*
X98021508Y-118206702D01*
X97783413Y-118206702D01*
X97592937Y-118159083D01*
X97497699Y-118111464D01*
X97450080Y-118063845D01*
X97402460Y-117968607D01*
G04 #@! TO.C,J2*
X158229680Y-122168493D02*
X158943966Y-122168493D01*
X159086823Y-122216112D01*
X159182061Y-122311350D01*
X159229680Y-122454207D01*
X159229680Y-122549445D01*
X158324919Y-121739921D02*
X158277300Y-121692302D01*
X158229680Y-121597064D01*
X158229680Y-121358969D01*
X158277300Y-121263731D01*
X158324919Y-121216112D01*
X158420157Y-121168493D01*
X158515395Y-121168493D01*
X158658252Y-121216112D01*
X159229680Y-121787540D01*
X159229680Y-121168493D01*
G04 #@! TO.C,C1*
X166881680Y-129045540D02*
X166310252Y-129045540D01*
X166595966Y-129045540D02*
X166595966Y-128045540D01*
X166500728Y-128188398D01*
X166405490Y-128283636D01*
X166310252Y-128331255D01*
X167500728Y-128045540D02*
X167595966Y-128045540D01*
X167691204Y-128093160D01*
X167738823Y-128140779D01*
X167786442Y-128236017D01*
X167834061Y-128426493D01*
X167834061Y-128664588D01*
X167786442Y-128855064D01*
X167738823Y-128950302D01*
X167691204Y-128997921D01*
X167595966Y-129045540D01*
X167500728Y-129045540D01*
X167405490Y-128997921D01*
X167357871Y-128950302D01*
X167310252Y-128855064D01*
X167262633Y-128664588D01*
X167262633Y-128426493D01*
X167310252Y-128236017D01*
X167357871Y-128140779D01*
X167405490Y-128093160D01*
X167500728Y-128045540D01*
X168453109Y-128045540D02*
X168548347Y-128045540D01*
X168643585Y-128093160D01*
X168691204Y-128140779D01*
X168738823Y-128236017D01*
X168786442Y-128426493D01*
X168786442Y-128664588D01*
X168738823Y-128855064D01*
X168691204Y-128950302D01*
X168643585Y-128997921D01*
X168548347Y-129045540D01*
X168453109Y-129045540D01*
X168357871Y-128997921D01*
X168310252Y-128950302D01*
X168262633Y-128855064D01*
X168215014Y-128664588D01*
X168215014Y-128426493D01*
X168262633Y-128236017D01*
X168310252Y-128140779D01*
X168357871Y-128093160D01*
X168453109Y-128045540D01*
X169215014Y-128378874D02*
X169215014Y-129045540D01*
X169215014Y-128474112D02*
X169262633Y-128426493D01*
X169357871Y-128378874D01*
X169500728Y-128378874D01*
X169595966Y-128426493D01*
X169643585Y-128521731D01*
X169643585Y-129045540D01*
X170453109Y-128521731D02*
X170119776Y-128521731D01*
X170119776Y-129045540D02*
X170119776Y-128045540D01*
X170595966Y-128045540D01*
D18*
X168387633Y-127512445D02*
X168375728Y-127524350D01*
X168340014Y-127536255D01*
X168316204Y-127536255D01*
X168280490Y-127524350D01*
X168256680Y-127500540D01*
X168244776Y-127476731D01*
X168232871Y-127429112D01*
X168232871Y-127393398D01*
X168244776Y-127345779D01*
X168256680Y-127321969D01*
X168280490Y-127298160D01*
X168316204Y-127286255D01*
X168340014Y-127286255D01*
X168375728Y-127298160D01*
X168387633Y-127310064D01*
X168625728Y-127536255D02*
X168482871Y-127536255D01*
X168554300Y-127536255D02*
X168554300Y-127286255D01*
X168530490Y-127321969D01*
X168506680Y-127345779D01*
X168482871Y-127357683D01*
G04 #@! TO.C,C2*
X168387633Y-130560445D02*
X168375728Y-130572350D01*
X168340014Y-130584255D01*
X168316204Y-130584255D01*
X168280490Y-130572350D01*
X168256680Y-130548540D01*
X168244776Y-130524731D01*
X168232871Y-130477112D01*
X168232871Y-130441398D01*
X168244776Y-130393779D01*
X168256680Y-130369969D01*
X168280490Y-130346160D01*
X168316204Y-130334255D01*
X168340014Y-130334255D01*
X168375728Y-130346160D01*
X168387633Y-130358064D01*
X168482871Y-130358064D02*
X168494776Y-130346160D01*
X168518585Y-130334255D01*
X168578109Y-130334255D01*
X168601919Y-130346160D01*
X168613823Y-130358064D01*
X168625728Y-130381874D01*
X168625728Y-130405683D01*
X168613823Y-130441398D01*
X168470966Y-130584255D01*
X168625728Y-130584255D01*
G04 #@! TO.C,C3*
D15*
X142180252Y-137697540D02*
X142275490Y-137697540D01*
X142370728Y-137745160D01*
X142418347Y-137792779D01*
X142465966Y-137888017D01*
X142513585Y-138078493D01*
X142513585Y-138316588D01*
X142465966Y-138507064D01*
X142418347Y-138602302D01*
X142370728Y-138649921D01*
X142275490Y-138697540D01*
X142180252Y-138697540D01*
X142085014Y-138649921D01*
X142037395Y-138602302D01*
X141989776Y-138507064D01*
X141942157Y-138316588D01*
X141942157Y-138078493D01*
X141989776Y-137888017D01*
X142037395Y-137792779D01*
X142085014Y-137745160D01*
X142180252Y-137697540D01*
X142942157Y-138602302D02*
X142989776Y-138649921D01*
X142942157Y-138697540D01*
X142894538Y-138649921D01*
X142942157Y-138602302D01*
X142942157Y-138697540D01*
X143370728Y-137792779D02*
X143418347Y-137745160D01*
X143513585Y-137697540D01*
X143751680Y-137697540D01*
X143846919Y-137745160D01*
X143894538Y-137792779D01*
X143942157Y-137888017D01*
X143942157Y-137983255D01*
X143894538Y-138126112D01*
X143323109Y-138697540D01*
X143942157Y-138697540D01*
X144323109Y-137792779D02*
X144370728Y-137745160D01*
X144465966Y-137697540D01*
X144704061Y-137697540D01*
X144799300Y-137745160D01*
X144846919Y-137792779D01*
X144894538Y-137888017D01*
X144894538Y-137983255D01*
X144846919Y-138126112D01*
X144275490Y-138697540D01*
X144894538Y-138697540D01*
X145751680Y-138030874D02*
X145751680Y-138697540D01*
X145323109Y-138030874D02*
X145323109Y-138554683D01*
X145370728Y-138649921D01*
X145465966Y-138697540D01*
X145608823Y-138697540D01*
X145704061Y-138649921D01*
X145751680Y-138602302D01*
X146561204Y-138173731D02*
X146227871Y-138173731D01*
X146227871Y-138697540D02*
X146227871Y-137697540D01*
X146704061Y-137697540D01*
D18*
X144257633Y-137164445D02*
X144245728Y-137176350D01*
X144210014Y-137188255D01*
X144186204Y-137188255D01*
X144150490Y-137176350D01*
X144126680Y-137152540D01*
X144114776Y-137128731D01*
X144102871Y-137081112D01*
X144102871Y-137045398D01*
X144114776Y-136997779D01*
X144126680Y-136973969D01*
X144150490Y-136950160D01*
X144186204Y-136938255D01*
X144210014Y-136938255D01*
X144245728Y-136950160D01*
X144257633Y-136962064D01*
X144340966Y-136938255D02*
X144495728Y-136938255D01*
X144412395Y-137033493D01*
X144448109Y-137033493D01*
X144471919Y-137045398D01*
X144483823Y-137057302D01*
X144495728Y-137081112D01*
X144495728Y-137140636D01*
X144483823Y-137164445D01*
X144471919Y-137176350D01*
X144448109Y-137188255D01*
X144376680Y-137188255D01*
X144352871Y-137176350D01*
X144340966Y-137164445D01*
G04 #@! TO.C,D1*
D15*
X142045395Y-126759540D02*
X142045395Y-125759540D01*
X142283490Y-125759540D01*
X142426347Y-125807160D01*
X142521585Y-125902398D01*
X142569204Y-125997636D01*
X142616823Y-126188112D01*
X142616823Y-126330969D01*
X142569204Y-126521445D01*
X142521585Y-126616683D01*
X142426347Y-126711921D01*
X142283490Y-126759540D01*
X142045395Y-126759540D01*
X142807300Y-126854779D02*
X143569204Y-126854779D01*
X143759680Y-126711921D02*
X143902538Y-126759540D01*
X144140633Y-126759540D01*
X144235871Y-126711921D01*
X144283490Y-126664302D01*
X144331109Y-126569064D01*
X144331109Y-126473826D01*
X144283490Y-126378588D01*
X144235871Y-126330969D01*
X144140633Y-126283350D01*
X143950157Y-126235731D01*
X143854919Y-126188112D01*
X143807300Y-126140493D01*
X143759680Y-126045255D01*
X143759680Y-125950017D01*
X143807300Y-125854779D01*
X143854919Y-125807160D01*
X143950157Y-125759540D01*
X144188252Y-125759540D01*
X144331109Y-125807160D01*
X144759680Y-126759540D02*
X144759680Y-126092874D01*
X144759680Y-126188112D02*
X144807300Y-126140493D01*
X144902538Y-126092874D01*
X145045395Y-126092874D01*
X145140633Y-126140493D01*
X145188252Y-126235731D01*
X145188252Y-126759540D01*
X145188252Y-126235731D02*
X145235871Y-126140493D01*
X145331109Y-126092874D01*
X145473966Y-126092874D01*
X145569204Y-126140493D01*
X145616823Y-126235731D01*
X145616823Y-126759540D01*
X146521585Y-126759540D02*
X146521585Y-126235731D01*
X146473966Y-126140493D01*
X146378728Y-126092874D01*
X146188252Y-126092874D01*
X146093014Y-126140493D01*
X146521585Y-126711921D02*
X146426347Y-126759540D01*
X146188252Y-126759540D01*
X146093014Y-126711921D01*
X146045395Y-126616683D01*
X146045395Y-126521445D01*
X146093014Y-126426207D01*
X146188252Y-126378588D01*
X146426347Y-126378588D01*
X146521585Y-126330969D01*
X147140633Y-126759540D02*
X147045395Y-126711921D01*
X146997776Y-126616683D01*
X146997776Y-125759540D01*
X147664442Y-126759540D02*
X147569204Y-126711921D01*
X147521585Y-126616683D01*
X147521585Y-125759540D01*
D18*
X144622776Y-125250255D02*
X144622776Y-125000255D01*
X144682300Y-125000255D01*
X144718014Y-125012160D01*
X144741823Y-125035969D01*
X144753728Y-125059779D01*
X144765633Y-125107398D01*
X144765633Y-125143112D01*
X144753728Y-125190731D01*
X144741823Y-125214540D01*
X144718014Y-125238350D01*
X144682300Y-125250255D01*
X144622776Y-125250255D01*
X145003728Y-125250255D02*
X144860871Y-125250255D01*
X144932300Y-125250255D02*
X144932300Y-125000255D01*
X144908490Y-125035969D01*
X144884680Y-125059779D01*
X144860871Y-125071683D01*
G04 #@! TO.C,D2*
D15*
X142045395Y-122441540D02*
X142045395Y-121441540D01*
X142283490Y-121441540D01*
X142426347Y-121489160D01*
X142521585Y-121584398D01*
X142569204Y-121679636D01*
X142616823Y-121870112D01*
X142616823Y-122012969D01*
X142569204Y-122203445D01*
X142521585Y-122298683D01*
X142426347Y-122393921D01*
X142283490Y-122441540D01*
X142045395Y-122441540D01*
X142807300Y-122536779D02*
X143569204Y-122536779D01*
X143759680Y-122393921D02*
X143902538Y-122441540D01*
X144140633Y-122441540D01*
X144235871Y-122393921D01*
X144283490Y-122346302D01*
X144331109Y-122251064D01*
X144331109Y-122155826D01*
X144283490Y-122060588D01*
X144235871Y-122012969D01*
X144140633Y-121965350D01*
X143950157Y-121917731D01*
X143854919Y-121870112D01*
X143807300Y-121822493D01*
X143759680Y-121727255D01*
X143759680Y-121632017D01*
X143807300Y-121536779D01*
X143854919Y-121489160D01*
X143950157Y-121441540D01*
X144188252Y-121441540D01*
X144331109Y-121489160D01*
X144759680Y-122441540D02*
X144759680Y-121774874D01*
X144759680Y-121870112D02*
X144807300Y-121822493D01*
X144902538Y-121774874D01*
X145045395Y-121774874D01*
X145140633Y-121822493D01*
X145188252Y-121917731D01*
X145188252Y-122441540D01*
X145188252Y-121917731D02*
X145235871Y-121822493D01*
X145331109Y-121774874D01*
X145473966Y-121774874D01*
X145569204Y-121822493D01*
X145616823Y-121917731D01*
X145616823Y-122441540D01*
X146521585Y-122441540D02*
X146521585Y-121917731D01*
X146473966Y-121822493D01*
X146378728Y-121774874D01*
X146188252Y-121774874D01*
X146093014Y-121822493D01*
X146521585Y-122393921D02*
X146426347Y-122441540D01*
X146188252Y-122441540D01*
X146093014Y-122393921D01*
X146045395Y-122298683D01*
X146045395Y-122203445D01*
X146093014Y-122108207D01*
X146188252Y-122060588D01*
X146426347Y-122060588D01*
X146521585Y-122012969D01*
X147140633Y-122441540D02*
X147045395Y-122393921D01*
X146997776Y-122298683D01*
X146997776Y-121441540D01*
X147664442Y-122441540D02*
X147569204Y-122393921D01*
X147521585Y-122298683D01*
X147521585Y-121441540D01*
D18*
X144622776Y-120932255D02*
X144622776Y-120682255D01*
X144682300Y-120682255D01*
X144718014Y-120694160D01*
X144741823Y-120717969D01*
X144753728Y-120741779D01*
X144765633Y-120789398D01*
X144765633Y-120825112D01*
X144753728Y-120872731D01*
X144741823Y-120896540D01*
X144718014Y-120920350D01*
X144682300Y-120932255D01*
X144622776Y-120932255D01*
X144860871Y-120706064D02*
X144872776Y-120694160D01*
X144896585Y-120682255D01*
X144956109Y-120682255D01*
X144979919Y-120694160D01*
X144991823Y-120706064D01*
X145003728Y-120729874D01*
X145003728Y-120753683D01*
X144991823Y-120789398D01*
X144848966Y-120932255D01*
X145003728Y-120932255D01*
G04 #@! TO.C,J1*
D15*
X128027380Y-114983333D02*
X128741666Y-114983333D01*
X128884523Y-115030952D01*
X128979761Y-115126190D01*
X129027380Y-115269047D01*
X129027380Y-115364285D01*
X129027380Y-113983333D02*
X129027380Y-114554761D01*
X129027380Y-114269047D02*
X128027380Y-114269047D01*
X128170238Y-114364285D01*
X128265476Y-114459523D01*
X128313095Y-114554761D01*
G04 #@! TO.C,R1*
X144212061Y-118377540D02*
X143640633Y-118377540D01*
X143926347Y-118377540D02*
X143926347Y-117377540D01*
X143831109Y-117520398D01*
X143735871Y-117615636D01*
X143640633Y-117663255D01*
X144831109Y-117377540D02*
X144926347Y-117377540D01*
X145021585Y-117425160D01*
X145069204Y-117472779D01*
X145116823Y-117568017D01*
X145164442Y-117758493D01*
X145164442Y-117996588D01*
X145116823Y-118187064D01*
X145069204Y-118282302D01*
X145021585Y-118329921D01*
X144926347Y-118377540D01*
X144831109Y-118377540D01*
X144735871Y-118329921D01*
X144688252Y-118282302D01*
X144640633Y-118187064D01*
X144593014Y-117996588D01*
X144593014Y-117758493D01*
X144640633Y-117568017D01*
X144688252Y-117472779D01*
X144735871Y-117425160D01*
X144831109Y-117377540D01*
X145593014Y-118377540D02*
X145593014Y-117377540D01*
X145688252Y-117996588D02*
X145973966Y-118377540D01*
X145973966Y-117710874D02*
X145593014Y-118091826D01*
D18*
X144765633Y-116868255D02*
X144682300Y-116749207D01*
X144622776Y-116868255D02*
X144622776Y-116618255D01*
X144718014Y-116618255D01*
X144741823Y-116630160D01*
X144753728Y-116642064D01*
X144765633Y-116665874D01*
X144765633Y-116701588D01*
X144753728Y-116725398D01*
X144741823Y-116737302D01*
X144718014Y-116749207D01*
X144622776Y-116749207D01*
X145003728Y-116868255D02*
X144860871Y-116868255D01*
X144932300Y-116868255D02*
X144932300Y-116618255D01*
X144908490Y-116653969D01*
X144884680Y-116677779D01*
X144860871Y-116689683D01*
G04 #@! TO.C,R2*
D15*
X167834061Y-138035540D02*
X167262633Y-138035540D01*
X167548347Y-138035540D02*
X167548347Y-137035540D01*
X167453109Y-137178398D01*
X167357871Y-137273636D01*
X167262633Y-137321255D01*
X168453109Y-137035540D02*
X168548347Y-137035540D01*
X168643585Y-137083160D01*
X168691204Y-137130779D01*
X168738823Y-137226017D01*
X168786442Y-137416493D01*
X168786442Y-137654588D01*
X168738823Y-137845064D01*
X168691204Y-137940302D01*
X168643585Y-137987921D01*
X168548347Y-138035540D01*
X168453109Y-138035540D01*
X168357871Y-137987921D01*
X168310252Y-137940302D01*
X168262633Y-137845064D01*
X168215014Y-137654588D01*
X168215014Y-137416493D01*
X168262633Y-137226017D01*
X168310252Y-137130779D01*
X168357871Y-137083160D01*
X168453109Y-137035540D01*
X169215014Y-138035540D02*
X169215014Y-137035540D01*
X169310252Y-137654588D02*
X169595966Y-138035540D01*
X169595966Y-137368874D02*
X169215014Y-137749826D01*
D18*
X168387633Y-136426255D02*
X168304300Y-136307207D01*
X168244776Y-136426255D02*
X168244776Y-136176255D01*
X168340014Y-136176255D01*
X168363823Y-136188160D01*
X168375728Y-136200064D01*
X168387633Y-136223874D01*
X168387633Y-136259588D01*
X168375728Y-136283398D01*
X168363823Y-136295302D01*
X168340014Y-136307207D01*
X168244776Y-136307207D01*
X168482871Y-136200064D02*
X168494776Y-136188160D01*
X168518585Y-136176255D01*
X168578109Y-136176255D01*
X168601919Y-136188160D01*
X168613823Y-136200064D01*
X168625728Y-136223874D01*
X168625728Y-136247683D01*
X168613823Y-136283398D01*
X168470966Y-136426255D01*
X168625728Y-136426255D01*
G04 #@! TO.C,R3*
D15*
X144212061Y-131077540D02*
X143640633Y-131077540D01*
X143926347Y-131077540D02*
X143926347Y-130077540D01*
X143831109Y-130220398D01*
X143735871Y-130315636D01*
X143640633Y-130363255D01*
X144831109Y-130077540D02*
X144926347Y-130077540D01*
X145021585Y-130125160D01*
X145069204Y-130172779D01*
X145116823Y-130268017D01*
X145164442Y-130458493D01*
X145164442Y-130696588D01*
X145116823Y-130887064D01*
X145069204Y-130982302D01*
X145021585Y-131029921D01*
X144926347Y-131077540D01*
X144831109Y-131077540D01*
X144735871Y-131029921D01*
X144688252Y-130982302D01*
X144640633Y-130887064D01*
X144593014Y-130696588D01*
X144593014Y-130458493D01*
X144640633Y-130268017D01*
X144688252Y-130172779D01*
X144735871Y-130125160D01*
X144831109Y-130077540D01*
X145593014Y-131077540D02*
X145593014Y-130077540D01*
X145688252Y-130696588D02*
X145973966Y-131077540D01*
X145973966Y-130410874D02*
X145593014Y-130791826D01*
D18*
X144765633Y-129568255D02*
X144682300Y-129449207D01*
X144622776Y-129568255D02*
X144622776Y-129318255D01*
X144718014Y-129318255D01*
X144741823Y-129330160D01*
X144753728Y-129342064D01*
X144765633Y-129365874D01*
X144765633Y-129401588D01*
X144753728Y-129425398D01*
X144741823Y-129437302D01*
X144718014Y-129449207D01*
X144622776Y-129449207D01*
X144848966Y-129318255D02*
X145003728Y-129318255D01*
X144920395Y-129413493D01*
X144956109Y-129413493D01*
X144979919Y-129425398D01*
X144991823Y-129437302D01*
X145003728Y-129461112D01*
X145003728Y-129520636D01*
X144991823Y-129544445D01*
X144979919Y-129556350D01*
X144956109Y-129568255D01*
X144884680Y-129568255D01*
X144860871Y-129556350D01*
X144848966Y-129544445D01*
G04 #@! TO.C,R4*
D15*
X167834061Y-135141540D02*
X167262633Y-135141540D01*
X167548347Y-135141540D02*
X167548347Y-134141540D01*
X167453109Y-134284398D01*
X167357871Y-134379636D01*
X167262633Y-134427255D01*
X168453109Y-134141540D02*
X168548347Y-134141540D01*
X168643585Y-134189160D01*
X168691204Y-134236779D01*
X168738823Y-134332017D01*
X168786442Y-134522493D01*
X168786442Y-134760588D01*
X168738823Y-134951064D01*
X168691204Y-135046302D01*
X168643585Y-135093921D01*
X168548347Y-135141540D01*
X168453109Y-135141540D01*
X168357871Y-135093921D01*
X168310252Y-135046302D01*
X168262633Y-134951064D01*
X168215014Y-134760588D01*
X168215014Y-134522493D01*
X168262633Y-134332017D01*
X168310252Y-134236779D01*
X168357871Y-134189160D01*
X168453109Y-134141540D01*
X169215014Y-135141540D02*
X169215014Y-134141540D01*
X169310252Y-134760588D02*
X169595966Y-135141540D01*
X169595966Y-134474874D02*
X169215014Y-134855826D01*
D18*
X168387633Y-133632255D02*
X168304300Y-133513207D01*
X168244776Y-133632255D02*
X168244776Y-133382255D01*
X168340014Y-133382255D01*
X168363823Y-133394160D01*
X168375728Y-133406064D01*
X168387633Y-133429874D01*
X168387633Y-133465588D01*
X168375728Y-133489398D01*
X168363823Y-133501302D01*
X168340014Y-133513207D01*
X168244776Y-133513207D01*
X168601919Y-133465588D02*
X168601919Y-133632255D01*
X168542395Y-133370350D02*
X168482871Y-133548921D01*
X168637633Y-133548921D01*
G04 #@! TO.C,C1*
D19*
X167992857Y-44266666D02*
X168011904Y-44285714D01*
X168030952Y-44342857D01*
X168030952Y-44380952D01*
X168011904Y-44438095D01*
X167973809Y-44476190D01*
X167935714Y-44495238D01*
X167859523Y-44514285D01*
X167802380Y-44514285D01*
X167726190Y-44495238D01*
X167688095Y-44476190D01*
X167650000Y-44438095D01*
X167630952Y-44380952D01*
X167630952Y-44342857D01*
X167650000Y-44285714D01*
X167669047Y-44266666D01*
X168030952Y-43885714D02*
X168030952Y-44114285D01*
X168030952Y-44000000D02*
X167630952Y-44000000D01*
X167688095Y-44038095D01*
X167726190Y-44076190D01*
X167745238Y-44114285D01*
G04 #@! TO.C,C2*
X165817857Y-42741666D02*
X165836904Y-42760714D01*
X165855952Y-42817857D01*
X165855952Y-42855952D01*
X165836904Y-42913095D01*
X165798809Y-42951190D01*
X165760714Y-42970238D01*
X165684523Y-42989285D01*
X165627380Y-42989285D01*
X165551190Y-42970238D01*
X165513095Y-42951190D01*
X165475000Y-42913095D01*
X165455952Y-42855952D01*
X165455952Y-42817857D01*
X165475000Y-42760714D01*
X165494047Y-42741666D01*
X165494047Y-42589285D02*
X165475000Y-42570238D01*
X165455952Y-42532142D01*
X165455952Y-42436904D01*
X165475000Y-42398809D01*
X165494047Y-42379761D01*
X165532142Y-42360714D01*
X165570238Y-42360714D01*
X165627380Y-42379761D01*
X165855952Y-42608333D01*
X165855952Y-42360714D01*
G04 #@! TO.C,C3*
X172108333Y-38417857D02*
X172089285Y-38436904D01*
X172032142Y-38455952D01*
X171994047Y-38455952D01*
X171936904Y-38436904D01*
X171898809Y-38398809D01*
X171879761Y-38360714D01*
X171860714Y-38284523D01*
X171860714Y-38227380D01*
X171879761Y-38151190D01*
X171898809Y-38113095D01*
X171936904Y-38075000D01*
X171994047Y-38055952D01*
X172032142Y-38055952D01*
X172089285Y-38075000D01*
X172108333Y-38094047D01*
X172241666Y-38055952D02*
X172489285Y-38055952D01*
X172355952Y-38208333D01*
X172413095Y-38208333D01*
X172451190Y-38227380D01*
X172470238Y-38246428D01*
X172489285Y-38284523D01*
X172489285Y-38379761D01*
X172470238Y-38417857D01*
X172451190Y-38436904D01*
X172413095Y-38455952D01*
X172298809Y-38455952D01*
X172260714Y-38436904D01*
X172241666Y-38417857D01*
G04 #@! TO.C,C4*
X172108333Y-40142857D02*
X172089285Y-40161904D01*
X172032142Y-40180952D01*
X171994047Y-40180952D01*
X171936904Y-40161904D01*
X171898809Y-40123809D01*
X171879761Y-40085714D01*
X171860714Y-40009523D01*
X171860714Y-39952380D01*
X171879761Y-39876190D01*
X171898809Y-39838095D01*
X171936904Y-39800000D01*
X171994047Y-39780952D01*
X172032142Y-39780952D01*
X172089285Y-39800000D01*
X172108333Y-39819047D01*
X172451190Y-39914285D02*
X172451190Y-40180952D01*
X172355952Y-39761904D02*
X172260714Y-40047619D01*
X172508333Y-40047619D01*
G04 #@! TO.C,J1*
D15*
X155893380Y-39391333D02*
X156607666Y-39391333D01*
X156750523Y-39438952D01*
X156845761Y-39534190D01*
X156893380Y-39677047D01*
X156893380Y-39772285D01*
X156893380Y-38391333D02*
X156893380Y-38962761D01*
X156893380Y-38677047D02*
X155893380Y-38677047D01*
X156036238Y-38772285D01*
X156131476Y-38867523D01*
X156179095Y-38962761D01*
G04 #@! TO.C,J2*
X182563380Y-39137333D02*
X183277666Y-39137333D01*
X183420523Y-39184952D01*
X183515761Y-39280190D01*
X183563380Y-39423047D01*
X183563380Y-39518285D01*
X182658619Y-38708761D02*
X182611000Y-38661142D01*
X182563380Y-38565904D01*
X182563380Y-38327809D01*
X182611000Y-38232571D01*
X182658619Y-38184952D01*
X182753857Y-38137333D01*
X182849095Y-38137333D01*
X182991952Y-38184952D01*
X183563380Y-38756380D01*
X183563380Y-38137333D01*
G04 #@! TO.C,REF\002A\002A*
X65331666Y-49502380D02*
X64998333Y-49026190D01*
X64760238Y-49502380D02*
X64760238Y-48502380D01*
X65141190Y-48502380D01*
X65236428Y-48550000D01*
X65284047Y-48597619D01*
X65331666Y-48692857D01*
X65331666Y-48835714D01*
X65284047Y-48930952D01*
X65236428Y-48978571D01*
X65141190Y-49026190D01*
X64760238Y-49026190D01*
X65760238Y-48978571D02*
X66093571Y-48978571D01*
X66236428Y-49502380D02*
X65760238Y-49502380D01*
X65760238Y-48502380D01*
X66236428Y-48502380D01*
X66998333Y-48978571D02*
X66665000Y-48978571D01*
X66665000Y-49502380D02*
X66665000Y-48502380D01*
X67141190Y-48502380D01*
X67665000Y-48502380D02*
X67665000Y-48740476D01*
X67426904Y-48645238D02*
X67665000Y-48740476D01*
X67903095Y-48645238D01*
X67522142Y-48930952D02*
X67665000Y-48740476D01*
X67807857Y-48930952D01*
X68426904Y-48502380D02*
X68426904Y-48740476D01*
X68188809Y-48645238D02*
X68426904Y-48740476D01*
X68665000Y-48645238D01*
X68284047Y-48930952D02*
X68426904Y-48740476D01*
X68569761Y-48930952D01*
X86976666Y-49802380D02*
X86643333Y-49326190D01*
X86405238Y-49802380D02*
X86405238Y-48802380D01*
X86786190Y-48802380D01*
X86881428Y-48850000D01*
X86929047Y-48897619D01*
X86976666Y-48992857D01*
X86976666Y-49135714D01*
X86929047Y-49230952D01*
X86881428Y-49278571D01*
X86786190Y-49326190D01*
X86405238Y-49326190D01*
X87405238Y-49278571D02*
X87738571Y-49278571D01*
X87881428Y-49802380D02*
X87405238Y-49802380D01*
X87405238Y-48802380D01*
X87881428Y-48802380D01*
X88643333Y-49278571D02*
X88310000Y-49278571D01*
X88310000Y-49802380D02*
X88310000Y-48802380D01*
X88786190Y-48802380D01*
X89310000Y-48802380D02*
X89310000Y-49040476D01*
X89071904Y-48945238D02*
X89310000Y-49040476D01*
X89548095Y-48945238D01*
X89167142Y-49230952D02*
X89310000Y-49040476D01*
X89452857Y-49230952D01*
X90071904Y-48802380D02*
X90071904Y-49040476D01*
X89833809Y-48945238D02*
X90071904Y-49040476D01*
X90310000Y-48945238D01*
X89929047Y-49230952D02*
X90071904Y-49040476D01*
X90214761Y-49230952D01*
G04 #@! TO.C,J20*
X181952380Y-55349523D02*
X182666666Y-55349523D01*
X182809523Y-55397142D01*
X182904761Y-55492380D01*
X182952380Y-55635238D01*
X182952380Y-55730476D01*
X182047619Y-54920952D02*
X182000000Y-54873333D01*
X181952380Y-54778095D01*
X181952380Y-54540000D01*
X182000000Y-54444761D01*
X182047619Y-54397142D01*
X182142857Y-54349523D01*
X182238095Y-54349523D01*
X182380952Y-54397142D01*
X182952380Y-54968571D01*
X182952380Y-54349523D01*
X181952380Y-53730476D02*
X181952380Y-53635238D01*
X182000000Y-53540000D01*
X182047619Y-53492380D01*
X182142857Y-53444761D01*
X182333333Y-53397142D01*
X182571428Y-53397142D01*
X182761904Y-53444761D01*
X182857142Y-53492380D01*
X182904761Y-53540000D01*
X182952380Y-53635238D01*
X182952380Y-53730476D01*
X182904761Y-53825714D01*
X182857142Y-53873333D01*
X182761904Y-53920952D01*
X182571428Y-53968571D01*
X182333333Y-53968571D01*
X182142857Y-53920952D01*
X182047619Y-53873333D01*
X182000000Y-53825714D01*
X181952380Y-53730476D01*
G04 #@! TO.C,J21*
X178302380Y-57889523D02*
X179016666Y-57889523D01*
X179159523Y-57937142D01*
X179254761Y-58032380D01*
X179302380Y-58175238D01*
X179302380Y-58270476D01*
X178397619Y-57460952D02*
X178350000Y-57413333D01*
X178302380Y-57318095D01*
X178302380Y-57080000D01*
X178350000Y-56984761D01*
X178397619Y-56937142D01*
X178492857Y-56889523D01*
X178588095Y-56889523D01*
X178730952Y-56937142D01*
X179302380Y-57508571D01*
X179302380Y-56889523D01*
X179302380Y-55937142D02*
X179302380Y-56508571D01*
X179302380Y-56222857D02*
X178302380Y-56222857D01*
X178445238Y-56318095D01*
X178540476Y-56413333D01*
X178588095Y-56508571D01*
G04 #@! TO.C,LED1*
D16*
X73359557Y-120524347D02*
X73037824Y-120064728D01*
X72808014Y-120524347D02*
X72808014Y-119559147D01*
X73175710Y-119559147D01*
X73267633Y-119605109D01*
X73313595Y-119651070D01*
X73359557Y-119742994D01*
X73359557Y-119880880D01*
X73313595Y-119972804D01*
X73267633Y-120018766D01*
X73175710Y-120064728D01*
X72808014Y-120064728D01*
X73773214Y-120018766D02*
X74094948Y-120018766D01*
X74232833Y-120524347D02*
X73773214Y-120524347D01*
X73773214Y-119559147D01*
X74232833Y-119559147D01*
X74646491Y-120524347D02*
X74646491Y-119559147D01*
X74876300Y-119559147D01*
X75014186Y-119605109D01*
X75106110Y-119697032D01*
X75152072Y-119788956D01*
X75198033Y-119972804D01*
X75198033Y-120110689D01*
X75152072Y-120294537D01*
X75106110Y-120386461D01*
X75014186Y-120478385D01*
X74876300Y-120524347D01*
X74646491Y-120524347D01*
D20*
X75471543Y-118864762D02*
X75483034Y-118876253D01*
X75494524Y-118910724D01*
X75494524Y-118933705D01*
X75483034Y-118968177D01*
X75460053Y-118991158D01*
X75437072Y-119002648D01*
X75391110Y-119014139D01*
X75356638Y-119014139D01*
X75310676Y-119002648D01*
X75287695Y-118991158D01*
X75264715Y-118968177D01*
X75253224Y-118933705D01*
X75253224Y-118910724D01*
X75264715Y-118876253D01*
X75276205Y-118864762D01*
X72825581Y-119014139D02*
X72825581Y-118899234D01*
X72894524Y-119037120D02*
X72653224Y-118956686D01*
X72894524Y-118876253D01*
G04 #@! TO.C,R1*
D16*
X76292053Y-117673728D02*
X76292053Y-118225270D01*
X76292053Y-117949499D02*
X75326853Y-117949499D01*
X75464738Y-118041423D01*
X75556662Y-118133347D01*
X75602624Y-118225270D01*
X76292053Y-117260070D02*
X75326853Y-117260070D01*
X76292053Y-116708528D02*
X75740510Y-117122185D01*
X75326853Y-116708528D02*
X75878395Y-117260070D01*
G04 #@! TO.C,C1*
X69792862Y-97612147D02*
X69884786Y-97612147D01*
X69976710Y-97658109D01*
X70022672Y-97704070D01*
X70068633Y-97795994D01*
X70114595Y-97979842D01*
X70114595Y-98209651D01*
X70068633Y-98393499D01*
X70022672Y-98485423D01*
X69976710Y-98531385D01*
X69884786Y-98577347D01*
X69792862Y-98577347D01*
X69700938Y-98531385D01*
X69654976Y-98485423D01*
X69609014Y-98393499D01*
X69563053Y-98209651D01*
X69563053Y-97979842D01*
X69609014Y-97795994D01*
X69654976Y-97704070D01*
X69700938Y-97658109D01*
X69792862Y-97612147D01*
X70528253Y-98485423D02*
X70574214Y-98531385D01*
X70528253Y-98577347D01*
X70482291Y-98531385D01*
X70528253Y-98485423D01*
X70528253Y-98577347D01*
X71493453Y-98577347D02*
X70941910Y-98577347D01*
X71217681Y-98577347D02*
X71217681Y-97612147D01*
X71125757Y-97750032D01*
X71033833Y-97841956D01*
X70941910Y-97887918D01*
X72320767Y-97933880D02*
X72320767Y-98577347D01*
X71907110Y-97933880D02*
X71907110Y-98439461D01*
X71953072Y-98531385D01*
X72044995Y-98577347D01*
X72182881Y-98577347D01*
X72274805Y-98531385D01*
X72320767Y-98485423D01*
X73102119Y-98071766D02*
X72780386Y-98071766D01*
X72780386Y-98577347D02*
X72780386Y-97612147D01*
X73240005Y-97612147D01*
G04 #@! TO.C,D1*
X81659862Y-98639547D02*
X81108319Y-98639547D01*
X81384091Y-98639547D02*
X81384091Y-97674347D01*
X81292167Y-97812232D01*
X81200243Y-97904156D01*
X81108319Y-97950118D01*
X82073519Y-98639547D02*
X82073519Y-97674347D01*
X82625062Y-98639547D01*
X82625062Y-97674347D01*
X83498338Y-97996080D02*
X83498338Y-98639547D01*
X83268529Y-97628385D02*
X83038719Y-98317813D01*
X83636224Y-98317813D01*
X84509500Y-98639547D02*
X83957957Y-98639547D01*
X84233729Y-98639547D02*
X84233729Y-97674347D01*
X84141805Y-97812232D01*
X84049881Y-97904156D01*
X83957957Y-97950118D01*
X85336815Y-97996080D02*
X85336815Y-98639547D01*
X85107005Y-97628385D02*
X84877196Y-98317813D01*
X85474700Y-98317813D01*
X85980281Y-98088004D02*
X85888357Y-98042042D01*
X85842396Y-97996080D01*
X85796434Y-97904156D01*
X85796434Y-97858194D01*
X85842396Y-97766270D01*
X85888357Y-97720309D01*
X85980281Y-97674347D01*
X86164129Y-97674347D01*
X86256053Y-97720309D01*
X86302015Y-97766270D01*
X86347976Y-97858194D01*
X86347976Y-97904156D01*
X86302015Y-97996080D01*
X86256053Y-98042042D01*
X86164129Y-98088004D01*
X85980281Y-98088004D01*
X85888357Y-98133966D01*
X85842396Y-98179928D01*
X85796434Y-98271851D01*
X85796434Y-98455699D01*
X85842396Y-98547623D01*
X85888357Y-98593585D01*
X85980281Y-98639547D01*
X86164129Y-98639547D01*
X86256053Y-98593585D01*
X86302015Y-98547623D01*
X86347976Y-98455699D01*
X86347976Y-98271851D01*
X86302015Y-98179928D01*
X86256053Y-98133966D01*
X86164129Y-98088004D01*
G04 #@! TO.C,R3*
X81712538Y-97788547D02*
X81160996Y-97788547D01*
X81436767Y-97788547D02*
X81436767Y-96823347D01*
X81344843Y-96961232D01*
X81252919Y-97053156D01*
X81160996Y-97099118D01*
X82310043Y-96823347D02*
X82401967Y-96823347D01*
X82493891Y-96869309D01*
X82539853Y-96915270D01*
X82585815Y-97007194D01*
X82631776Y-97191042D01*
X82631776Y-97420851D01*
X82585815Y-97604699D01*
X82539853Y-97696623D01*
X82493891Y-97742585D01*
X82401967Y-97788547D01*
X82310043Y-97788547D01*
X82218119Y-97742585D01*
X82172157Y-97696623D01*
X82126196Y-97604699D01*
X82080234Y-97420851D01*
X82080234Y-97191042D01*
X82126196Y-97007194D01*
X82172157Y-96915270D01*
X82218119Y-96869309D01*
X82310043Y-96823347D01*
X83045434Y-97788547D02*
X83045434Y-96823347D01*
X83596976Y-97788547D02*
X83183319Y-97237004D01*
X83596976Y-96823347D02*
X83045434Y-97374889D01*
G04 #@! TO.C,JP1*
D21*
X91805405Y-108003161D02*
X91033245Y-108003161D01*
X91400940Y-108003161D02*
X91400940Y-107561927D01*
X91805405Y-107561927D02*
X91033245Y-107561927D01*
X91400940Y-107194232D02*
X91400940Y-106936845D01*
X91805405Y-106826536D02*
X91805405Y-107194232D01*
X91033245Y-107194232D01*
X91033245Y-106826536D01*
X91584788Y-106532380D02*
X91584788Y-106164685D01*
X91805405Y-106605919D02*
X91033245Y-106348533D01*
X91805405Y-106091146D01*
X91805405Y-105833759D02*
X91033245Y-105833759D01*
X91033245Y-105649912D01*
X91070015Y-105539603D01*
X91143554Y-105466064D01*
X91217093Y-105429295D01*
X91364171Y-105392525D01*
X91474479Y-105392525D01*
X91621557Y-105429295D01*
X91695096Y-105466064D01*
X91768635Y-105539603D01*
X91805405Y-105649912D01*
X91805405Y-105833759D01*
X91400940Y-105061599D02*
X91400940Y-104804213D01*
X91805405Y-104693904D02*
X91805405Y-105061599D01*
X91033245Y-105061599D01*
X91033245Y-104693904D01*
X91805405Y-103921744D02*
X91437710Y-104179131D01*
X91805405Y-104362978D02*
X91033245Y-104362978D01*
X91033245Y-104068822D01*
X91070015Y-103995283D01*
X91106784Y-103958514D01*
X91180323Y-103921744D01*
X91290632Y-103921744D01*
X91364171Y-103958514D01*
X91400940Y-103995283D01*
X91437710Y-104068822D01*
X91437710Y-104362978D01*
X91511249Y-103590818D02*
X91511249Y-103002506D01*
X91805405Y-102230346D02*
X91805405Y-102671580D01*
X91805405Y-102450963D02*
X91033245Y-102450963D01*
X91143554Y-102524502D01*
X91217093Y-102598041D01*
X91253862Y-102671580D01*
X91033245Y-101972959D02*
X91805405Y-101458186D01*
X91033245Y-101458186D02*
X91805405Y-101972959D01*
X91805405Y-101127260D02*
X91805405Y-100980182D01*
X91768635Y-100906643D01*
X91731866Y-100869874D01*
X91621557Y-100796335D01*
X91474479Y-100759565D01*
X91180323Y-100759565D01*
X91106784Y-100796335D01*
X91070015Y-100833104D01*
X91033245Y-100906643D01*
X91033245Y-101053721D01*
X91070015Y-101127260D01*
X91106784Y-101164030D01*
X91180323Y-101200799D01*
X91364171Y-101200799D01*
X91437710Y-101164030D01*
X91474479Y-101127260D01*
X91511249Y-101053721D01*
X91511249Y-100906643D01*
X91474479Y-100833104D01*
X91437710Y-100796335D01*
X91364171Y-100759565D01*
X91033245Y-100502178D02*
X91033245Y-99987405D01*
X91805405Y-100318331D01*
X91033245Y-99546171D02*
X91033245Y-99472632D01*
X91070015Y-99399093D01*
X91106784Y-99362323D01*
X91180323Y-99325554D01*
X91327401Y-99288784D01*
X91511249Y-99288784D01*
X91658327Y-99325554D01*
X91731866Y-99362323D01*
X91768635Y-99399093D01*
X91805405Y-99472632D01*
X91805405Y-99546171D01*
X91768635Y-99619710D01*
X91731866Y-99656479D01*
X91658327Y-99693249D01*
X91511249Y-99730018D01*
X91327401Y-99730018D01*
X91180323Y-99693249D01*
X91106784Y-99656479D01*
X91070015Y-99619710D01*
X91033245Y-99546171D01*
X91805405Y-98957858D02*
X91033245Y-98957858D01*
X91584788Y-98700472D01*
X91033245Y-98443085D01*
X91805405Y-98443085D01*
X91805405Y-98075390D02*
X91033245Y-98075390D01*
X91805405Y-97339999D02*
X91805405Y-97707695D01*
X91033245Y-97707695D01*
G04 #@! TO.C,D2*
D22*
X85267105Y-117013423D02*
X85221143Y-117059385D01*
X85083257Y-117105347D01*
X84991333Y-117105347D01*
X84853448Y-117059385D01*
X84761524Y-116967461D01*
X84715562Y-116875537D01*
X84669600Y-116691689D01*
X84669600Y-116553804D01*
X84715562Y-116369956D01*
X84761524Y-116278032D01*
X84853448Y-116186109D01*
X84991333Y-116140147D01*
X85083257Y-116140147D01*
X85221143Y-116186109D01*
X85267105Y-116232070D01*
X85680762Y-116140147D02*
X85680762Y-116921499D01*
X85726724Y-117013423D01*
X85772686Y-117059385D01*
X85864610Y-117105347D01*
X86048457Y-117105347D01*
X86140381Y-117059385D01*
X86186343Y-117013423D01*
X86232305Y-116921499D01*
X86232305Y-116140147D01*
X86645962Y-117059385D02*
X86783848Y-117105347D01*
X87013657Y-117105347D01*
X87105581Y-117059385D01*
X87151543Y-117013423D01*
X87197505Y-116921499D01*
X87197505Y-116829575D01*
X87151543Y-116737651D01*
X87105581Y-116691689D01*
X87013657Y-116645728D01*
X86829810Y-116599766D01*
X86737886Y-116553804D01*
X86691924Y-116507842D01*
X86645962Y-116415918D01*
X86645962Y-116323994D01*
X86691924Y-116232070D01*
X86737886Y-116186109D01*
X86829810Y-116140147D01*
X87059619Y-116140147D01*
X87197505Y-116186109D01*
X88070781Y-116140147D02*
X87611162Y-116140147D01*
X87565200Y-116599766D01*
X87611162Y-116553804D01*
X87703086Y-116507842D01*
X87932895Y-116507842D01*
X88024819Y-116553804D01*
X88070781Y-116599766D01*
X88116743Y-116691689D01*
X88116743Y-116921499D01*
X88070781Y-117013423D01*
X88024819Y-117059385D01*
X87932895Y-117105347D01*
X87703086Y-117105347D01*
X87611162Y-117059385D01*
X87565200Y-117013423D01*
X88484438Y-116232070D02*
X88530400Y-116186109D01*
X88622324Y-116140147D01*
X88852133Y-116140147D01*
X88944057Y-116186109D01*
X88990019Y-116232070D01*
X89035981Y-116323994D01*
X89035981Y-116415918D01*
X88990019Y-116553804D01*
X88438476Y-117105347D01*
X89035981Y-117105347D01*
X89633486Y-116140147D02*
X89725410Y-116140147D01*
X89817333Y-116186109D01*
X89863295Y-116232070D01*
X89909257Y-116323994D01*
X89955219Y-116507842D01*
X89955219Y-116737651D01*
X89909257Y-116921499D01*
X89863295Y-117013423D01*
X89817333Y-117059385D01*
X89725410Y-117105347D01*
X89633486Y-117105347D01*
X89541562Y-117059385D01*
X89495600Y-117013423D01*
X89449638Y-116921499D01*
X89403676Y-116737651D01*
X89403676Y-116507842D01*
X89449638Y-116323994D01*
X89495600Y-116232070D01*
X89541562Y-116186109D01*
X89633486Y-116140147D01*
G04 #@! TO.C,L1*
D19*
X68095833Y-134155952D02*
X67905357Y-134155952D01*
X67905357Y-133755952D01*
X68438690Y-134155952D02*
X68210119Y-134155952D01*
X68324404Y-134155952D02*
X68324404Y-133755952D01*
X68286309Y-133813095D01*
X68248214Y-133851190D01*
X68210119Y-133870238D01*
G04 #@! TO.C,L2*
X67613333Y-127805952D02*
X67422857Y-127805952D01*
X67422857Y-127405952D01*
X67727619Y-127444047D02*
X67746666Y-127425000D01*
X67784761Y-127405952D01*
X67880000Y-127405952D01*
X67918095Y-127425000D01*
X67937142Y-127444047D01*
X67956190Y-127482142D01*
X67956190Y-127520238D01*
X67937142Y-127577380D01*
X67708571Y-127805952D01*
X67956190Y-127805952D01*
G04 #@! TO.C,C1*
X71632857Y-131019166D02*
X71651904Y-131038214D01*
X71670952Y-131095357D01*
X71670952Y-131133452D01*
X71651904Y-131190595D01*
X71613809Y-131228690D01*
X71575714Y-131247738D01*
X71499523Y-131266785D01*
X71442380Y-131266785D01*
X71366190Y-131247738D01*
X71328095Y-131228690D01*
X71290000Y-131190595D01*
X71270952Y-131133452D01*
X71270952Y-131095357D01*
X71290000Y-131038214D01*
X71309047Y-131019166D01*
X71670952Y-130638214D02*
X71670952Y-130866785D01*
X71670952Y-130752500D02*
X71270952Y-130752500D01*
X71328095Y-130790595D01*
X71366190Y-130828690D01*
X71385238Y-130866785D01*
G04 #@! TO.C,C2*
D15*
X81424880Y-125838809D02*
X81424880Y-125743571D01*
X81472500Y-125648333D01*
X81520119Y-125600714D01*
X81615357Y-125553095D01*
X81805833Y-125505476D01*
X82043928Y-125505476D01*
X82234404Y-125553095D01*
X82329642Y-125600714D01*
X82377261Y-125648333D01*
X82424880Y-125743571D01*
X82424880Y-125838809D01*
X82377261Y-125934047D01*
X82329642Y-125981666D01*
X82234404Y-126029285D01*
X82043928Y-126076904D01*
X81805833Y-126076904D01*
X81615357Y-126029285D01*
X81520119Y-125981666D01*
X81472500Y-125934047D01*
X81424880Y-125838809D01*
X82329642Y-125076904D02*
X82377261Y-125029285D01*
X82424880Y-125076904D01*
X82377261Y-125124523D01*
X82329642Y-125076904D01*
X82424880Y-125076904D01*
X82424880Y-124076904D02*
X82424880Y-124648333D01*
X82424880Y-124362619D02*
X81424880Y-124362619D01*
X81567738Y-124457857D01*
X81662976Y-124553095D01*
X81710595Y-124648333D01*
X81758214Y-122457857D02*
X82424880Y-122457857D01*
X81758214Y-122886428D02*
X82282023Y-122886428D01*
X82377261Y-122838809D01*
X82424880Y-122743571D01*
X82424880Y-122600714D01*
X82377261Y-122505476D01*
X82329642Y-122457857D01*
X81901071Y-121648333D02*
X81901071Y-121981666D01*
X82424880Y-121981666D02*
X81424880Y-121981666D01*
X81424880Y-121505476D01*
D19*
X83545357Y-123881666D02*
X83564404Y-123900714D01*
X83583452Y-123957857D01*
X83583452Y-123995952D01*
X83564404Y-124053095D01*
X83526309Y-124091190D01*
X83488214Y-124110238D01*
X83412023Y-124129285D01*
X83354880Y-124129285D01*
X83278690Y-124110238D01*
X83240595Y-124091190D01*
X83202500Y-124053095D01*
X83183452Y-123995952D01*
X83183452Y-123957857D01*
X83202500Y-123900714D01*
X83221547Y-123881666D01*
X83221547Y-123729285D02*
X83202500Y-123710238D01*
X83183452Y-123672142D01*
X83183452Y-123576904D01*
X83202500Y-123538809D01*
X83221547Y-123519761D01*
X83259642Y-123500714D01*
X83297738Y-123500714D01*
X83354880Y-123519761D01*
X83583452Y-123748333D01*
X83583452Y-123500714D01*
G04 #@! TO.C,J1*
D15*
X62052380Y-131768333D02*
X62766666Y-131768333D01*
X62909523Y-131815952D01*
X63004761Y-131911190D01*
X63052380Y-132054047D01*
X63052380Y-132149285D01*
X63052380Y-130768333D02*
X63052380Y-131339761D01*
X63052380Y-131054047D02*
X62052380Y-131054047D01*
X62195238Y-131149285D01*
X62290476Y-131244523D01*
X62338095Y-131339761D01*
G04 #@! TO.C,J2*
X88722380Y-131768333D02*
X89436666Y-131768333D01*
X89579523Y-131815952D01*
X89674761Y-131911190D01*
X89722380Y-132054047D01*
X89722380Y-132149285D01*
X88817619Y-131339761D02*
X88770000Y-131292142D01*
X88722380Y-131196904D01*
X88722380Y-130958809D01*
X88770000Y-130863571D01*
X88817619Y-130815952D01*
X88912857Y-130768333D01*
X89008095Y-130768333D01*
X89150952Y-130815952D01*
X89722380Y-131387380D01*
X89722380Y-130768333D01*
G04 #@! TO.C,0k1*
X123681333Y-78276100D02*
X123348000Y-77799910D01*
X123109904Y-78276100D02*
X123109904Y-77276100D01*
X123490857Y-77276100D01*
X123586095Y-77323720D01*
X123633714Y-77371339D01*
X123681333Y-77466577D01*
X123681333Y-77609434D01*
X123633714Y-77704672D01*
X123586095Y-77752291D01*
X123490857Y-77799910D01*
X123109904Y-77799910D01*
X124633714Y-78276100D02*
X124062285Y-78276100D01*
X124348000Y-78276100D02*
X124348000Y-77276100D01*
X124252761Y-77418958D01*
X124157523Y-77514196D01*
X124062285Y-77561815D01*
D17*
X123471491Y-79042312D02*
X123509586Y-79042312D01*
X123547681Y-79061360D01*
X123566729Y-79080407D01*
X123585777Y-79118502D01*
X123604824Y-79194693D01*
X123604824Y-79289931D01*
X123585777Y-79366121D01*
X123566729Y-79404217D01*
X123547681Y-79423264D01*
X123509586Y-79442312D01*
X123471491Y-79442312D01*
X123433396Y-79423264D01*
X123414348Y-79404217D01*
X123395300Y-79366121D01*
X123376253Y-79289931D01*
X123376253Y-79194693D01*
X123395300Y-79118502D01*
X123414348Y-79080407D01*
X123433396Y-79061360D01*
X123471491Y-79042312D01*
X123776253Y-79442312D02*
X123776253Y-79042312D01*
X123814348Y-79289931D02*
X123928634Y-79442312D01*
X123928634Y-79175645D02*
X123776253Y-79328026D01*
X124309586Y-79442312D02*
X124081015Y-79442312D01*
X124195300Y-79442312D02*
X124195300Y-79042312D01*
X124157205Y-79099455D01*
X124119110Y-79137550D01*
X124081015Y-79156598D01*
G04 #@! TO.C,0k2*
D15*
X123681333Y-82578860D02*
X123348000Y-82102670D01*
X123109904Y-82578860D02*
X123109904Y-81578860D01*
X123490857Y-81578860D01*
X123586095Y-81626480D01*
X123633714Y-81674099D01*
X123681333Y-81769337D01*
X123681333Y-81912194D01*
X123633714Y-82007432D01*
X123586095Y-82055051D01*
X123490857Y-82102670D01*
X123109904Y-82102670D01*
X124062285Y-81674099D02*
X124109904Y-81626480D01*
X124205142Y-81578860D01*
X124443238Y-81578860D01*
X124538476Y-81626480D01*
X124586095Y-81674099D01*
X124633714Y-81769337D01*
X124633714Y-81864575D01*
X124586095Y-82007432D01*
X124014666Y-82578860D01*
X124633714Y-82578860D01*
D17*
X123481651Y-80469792D02*
X123519746Y-80469792D01*
X123557841Y-80488840D01*
X123576889Y-80507887D01*
X123595937Y-80545982D01*
X123614984Y-80622173D01*
X123614984Y-80717411D01*
X123595937Y-80793601D01*
X123576889Y-80831697D01*
X123557841Y-80850744D01*
X123519746Y-80869792D01*
X123481651Y-80869792D01*
X123443556Y-80850744D01*
X123424508Y-80831697D01*
X123405460Y-80793601D01*
X123386413Y-80717411D01*
X123386413Y-80622173D01*
X123405460Y-80545982D01*
X123424508Y-80507887D01*
X123443556Y-80488840D01*
X123481651Y-80469792D01*
X123786413Y-80869792D02*
X123786413Y-80469792D01*
X123824508Y-80717411D02*
X123938794Y-80869792D01*
X123938794Y-80603125D02*
X123786413Y-80755506D01*
X124091175Y-80507887D02*
X124110222Y-80488840D01*
X124148318Y-80469792D01*
X124243556Y-80469792D01*
X124281651Y-80488840D01*
X124300699Y-80507887D01*
X124319746Y-80545982D01*
X124319746Y-80584078D01*
X124300699Y-80641220D01*
X124072127Y-80869792D01*
X124319746Y-80869792D01*
G04 #@! TO.C,1uF1*
D15*
X120630793Y-86692402D02*
X120583174Y-86740021D01*
X120440317Y-86787640D01*
X120345079Y-86787640D01*
X120202221Y-86740021D01*
X120106983Y-86644783D01*
X120059364Y-86549545D01*
X120011745Y-86359069D01*
X120011745Y-86216212D01*
X120059364Y-86025736D01*
X120106983Y-85930498D01*
X120202221Y-85835260D01*
X120345079Y-85787640D01*
X120440317Y-85787640D01*
X120583174Y-85835260D01*
X120630793Y-85882879D01*
X121487936Y-85787640D02*
X121297460Y-85787640D01*
X121202221Y-85835260D01*
X121154602Y-85882879D01*
X121059364Y-86025736D01*
X121011745Y-86216212D01*
X121011745Y-86597164D01*
X121059364Y-86692402D01*
X121106983Y-86740021D01*
X121202221Y-86787640D01*
X121392698Y-86787640D01*
X121487936Y-86740021D01*
X121535555Y-86692402D01*
X121583174Y-86597164D01*
X121583174Y-86359069D01*
X121535555Y-86263831D01*
X121487936Y-86216212D01*
X121392698Y-86168593D01*
X121202221Y-86168593D01*
X121106983Y-86216212D01*
X121059364Y-86263831D01*
X121011745Y-86359069D01*
G04 #@! TO.C,1uF2*
X131997862Y-68235457D02*
X132045481Y-68283076D01*
X132093100Y-68425933D01*
X132093100Y-68521171D01*
X132045481Y-68664028D01*
X131950243Y-68759266D01*
X131855005Y-68806885D01*
X131664529Y-68854504D01*
X131521672Y-68854504D01*
X131331196Y-68806885D01*
X131235958Y-68759266D01*
X131140720Y-68664028D01*
X131093100Y-68521171D01*
X131093100Y-68425933D01*
X131140720Y-68283076D01*
X131188339Y-68235457D01*
X132093100Y-67283076D02*
X132093100Y-67854504D01*
X132093100Y-67568790D02*
X131093100Y-67568790D01*
X131235958Y-67664028D01*
X131331196Y-67759266D01*
X131378815Y-67854504D01*
X131426434Y-66425933D02*
X132093100Y-66425933D01*
X131045481Y-66664028D02*
X131759767Y-66902123D01*
X131759767Y-66283076D01*
G04 #@! TO.C,1uF3*
X132937662Y-96557786D02*
X132985281Y-96605405D01*
X133032900Y-96748262D01*
X133032900Y-96843500D01*
X132985281Y-96986358D01*
X132890043Y-97081596D01*
X132794805Y-97129215D01*
X132604329Y-97176834D01*
X132461472Y-97176834D01*
X132270996Y-97129215D01*
X132175758Y-97081596D01*
X132080520Y-96986358D01*
X132032900Y-96843500D01*
X132032900Y-96748262D01*
X132080520Y-96605405D01*
X132128139Y-96557786D01*
X132461472Y-95986358D02*
X132413853Y-96081596D01*
X132366234Y-96129215D01*
X132270996Y-96176834D01*
X132223377Y-96176834D01*
X132128139Y-96129215D01*
X132080520Y-96081596D01*
X132032900Y-95986358D01*
X132032900Y-95795881D01*
X132080520Y-95700643D01*
X132128139Y-95653024D01*
X132223377Y-95605405D01*
X132270996Y-95605405D01*
X132366234Y-95653024D01*
X132413853Y-95700643D01*
X132461472Y-95795881D01*
X132461472Y-95986358D01*
X132509091Y-96081596D01*
X132556710Y-96129215D01*
X132651948Y-96176834D01*
X132842424Y-96176834D01*
X132937662Y-96129215D01*
X132985281Y-96081596D01*
X133032900Y-95986358D01*
X133032900Y-95795881D01*
X132985281Y-95700643D01*
X132937662Y-95653024D01*
X132842424Y-95605405D01*
X132651948Y-95605405D01*
X132556710Y-95653024D01*
X132509091Y-95700643D01*
X132461472Y-95795881D01*
G04 #@! TO.C,1uF4*
X140781182Y-97663897D02*
X140828801Y-97711516D01*
X140876420Y-97854373D01*
X140876420Y-97949611D01*
X140828801Y-98092468D01*
X140733563Y-98187706D01*
X140638325Y-98235325D01*
X140447849Y-98282944D01*
X140304992Y-98282944D01*
X140114516Y-98235325D01*
X140019278Y-98187706D01*
X139924040Y-98092468D01*
X139876420Y-97949611D01*
X139876420Y-97854373D01*
X139924040Y-97711516D01*
X139971659Y-97663897D01*
X140876420Y-96711516D02*
X140876420Y-97282944D01*
X140876420Y-96997230D02*
X139876420Y-96997230D01*
X140019278Y-97092468D01*
X140114516Y-97187706D01*
X140162135Y-97282944D01*
X139971659Y-96330563D02*
X139924040Y-96282944D01*
X139876420Y-96187706D01*
X139876420Y-95949611D01*
X139924040Y-95854373D01*
X139971659Y-95806754D01*
X140066897Y-95759135D01*
X140162135Y-95759135D01*
X140304992Y-95806754D01*
X140876420Y-96378182D01*
X140876420Y-95759135D01*
G04 #@! TO.C,1uF5*
X150169782Y-77881142D02*
X150122163Y-77928761D01*
X149979306Y-77976380D01*
X149884068Y-77976380D01*
X149741211Y-77928761D01*
X149645973Y-77833523D01*
X149598354Y-77738285D01*
X149550735Y-77547809D01*
X149550735Y-77404952D01*
X149598354Y-77214476D01*
X149645973Y-77119238D01*
X149741211Y-77024000D01*
X149884068Y-76976380D01*
X149979306Y-76976380D01*
X150122163Y-77024000D01*
X150169782Y-77071619D01*
X151122163Y-77976380D02*
X150550735Y-77976380D01*
X150836449Y-77976380D02*
X150836449Y-76976380D01*
X150741211Y-77119238D01*
X150645973Y-77214476D01*
X150550735Y-77262095D01*
X151741211Y-76976380D02*
X151836449Y-76976380D01*
X151931687Y-77024000D01*
X151979306Y-77071619D01*
X152026925Y-77166857D01*
X152074544Y-77357333D01*
X152074544Y-77595428D01*
X152026925Y-77785904D01*
X151979306Y-77881142D01*
X151931687Y-77928761D01*
X151836449Y-77976380D01*
X151741211Y-77976380D01*
X151645973Y-77928761D01*
X151598354Y-77881142D01*
X151550735Y-77785904D01*
X151503116Y-77595428D01*
X151503116Y-77357333D01*
X151550735Y-77166857D01*
X151598354Y-77071619D01*
X151645973Y-77024000D01*
X151741211Y-76976380D01*
G04 #@! TO.C,4.7uF1*
X138942222Y-97689297D02*
X138989841Y-97736916D01*
X139037460Y-97879773D01*
X139037460Y-97975011D01*
X138989841Y-98117868D01*
X138894603Y-98213106D01*
X138799365Y-98260725D01*
X138608889Y-98308344D01*
X138466032Y-98308344D01*
X138275556Y-98260725D01*
X138180318Y-98213106D01*
X138085080Y-98117868D01*
X138037460Y-97975011D01*
X138037460Y-97879773D01*
X138085080Y-97736916D01*
X138132699Y-97689297D01*
X138132699Y-97308344D02*
X138085080Y-97260725D01*
X138037460Y-97165487D01*
X138037460Y-96927392D01*
X138085080Y-96832154D01*
X138132699Y-96784535D01*
X138227937Y-96736916D01*
X138323175Y-96736916D01*
X138466032Y-96784535D01*
X139037460Y-97355963D01*
X139037460Y-96736916D01*
X139037460Y-95784535D02*
X139037460Y-96355963D01*
X139037460Y-96070249D02*
X138037460Y-96070249D01*
X138180318Y-96165487D01*
X138275556Y-96260725D01*
X138323175Y-96355963D01*
G04 #@! TO.C,10k1*
X120369173Y-71255540D02*
X120035840Y-70779350D01*
X119797744Y-71255540D02*
X119797744Y-70255540D01*
X120178697Y-70255540D01*
X120273935Y-70303160D01*
X120321554Y-70350779D01*
X120369173Y-70446017D01*
X120369173Y-70588874D01*
X120321554Y-70684112D01*
X120273935Y-70731731D01*
X120178697Y-70779350D01*
X119797744Y-70779350D01*
X121226316Y-70255540D02*
X121035840Y-70255540D01*
X120940601Y-70303160D01*
X120892982Y-70350779D01*
X120797744Y-70493636D01*
X120750125Y-70684112D01*
X120750125Y-71065064D01*
X120797744Y-71160302D01*
X120845363Y-71207921D01*
X120940601Y-71255540D01*
X121131078Y-71255540D01*
X121226316Y-71207921D01*
X121273935Y-71160302D01*
X121321554Y-71065064D01*
X121321554Y-70826969D01*
X121273935Y-70731731D01*
X121226316Y-70684112D01*
X121131078Y-70636493D01*
X120940601Y-70636493D01*
X120845363Y-70684112D01*
X120797744Y-70731731D01*
X120750125Y-70826969D01*
D17*
X117176108Y-70933312D02*
X116947537Y-70933312D01*
X117061822Y-70933312D02*
X117061822Y-70533312D01*
X117023727Y-70590455D01*
X116985632Y-70628550D01*
X116947537Y-70647598D01*
X117423727Y-70533312D02*
X117461822Y-70533312D01*
X117499918Y-70552360D01*
X117518965Y-70571407D01*
X117538013Y-70609502D01*
X117557060Y-70685693D01*
X117557060Y-70780931D01*
X117538013Y-70857121D01*
X117518965Y-70895217D01*
X117499918Y-70914264D01*
X117461822Y-70933312D01*
X117423727Y-70933312D01*
X117385632Y-70914264D01*
X117366584Y-70895217D01*
X117347537Y-70857121D01*
X117328489Y-70780931D01*
X117328489Y-70685693D01*
X117347537Y-70609502D01*
X117366584Y-70571407D01*
X117385632Y-70552360D01*
X117423727Y-70533312D01*
X117728489Y-70933312D02*
X117728489Y-70533312D01*
X117766584Y-70780931D02*
X117880870Y-70933312D01*
X117880870Y-70666645D02*
X117728489Y-70819026D01*
X118261822Y-70933312D02*
X118033251Y-70933312D01*
X118147537Y-70933312D02*
X118147537Y-70533312D01*
X118109441Y-70590455D01*
X118071346Y-70628550D01*
X118033251Y-70647598D01*
G04 #@! TO.C,10k2*
D15*
X120419973Y-68334540D02*
X120086640Y-67858350D01*
X119848544Y-68334540D02*
X119848544Y-67334540D01*
X120229497Y-67334540D01*
X120324735Y-67382160D01*
X120372354Y-67429779D01*
X120419973Y-67525017D01*
X120419973Y-67667874D01*
X120372354Y-67763112D01*
X120324735Y-67810731D01*
X120229497Y-67858350D01*
X119848544Y-67858350D01*
X120753306Y-67334540D02*
X121419973Y-67334540D01*
X120991401Y-68334540D01*
D17*
X117176108Y-68032632D02*
X116947537Y-68032632D01*
X117061822Y-68032632D02*
X117061822Y-67632632D01*
X117023727Y-67689775D01*
X116985632Y-67727870D01*
X116947537Y-67746918D01*
X117423727Y-67632632D02*
X117461822Y-67632632D01*
X117499918Y-67651680D01*
X117518965Y-67670727D01*
X117538013Y-67708822D01*
X117557060Y-67785013D01*
X117557060Y-67880251D01*
X117538013Y-67956441D01*
X117518965Y-67994537D01*
X117499918Y-68013584D01*
X117461822Y-68032632D01*
X117423727Y-68032632D01*
X117385632Y-68013584D01*
X117366584Y-67994537D01*
X117347537Y-67956441D01*
X117328489Y-67880251D01*
X117328489Y-67785013D01*
X117347537Y-67708822D01*
X117366584Y-67670727D01*
X117385632Y-67651680D01*
X117423727Y-67632632D01*
X117728489Y-68032632D02*
X117728489Y-67632632D01*
X117766584Y-67880251D02*
X117880870Y-68032632D01*
X117880870Y-67765965D02*
X117728489Y-67918346D01*
X118033251Y-67670727D02*
X118052299Y-67651680D01*
X118090394Y-67632632D01*
X118185632Y-67632632D01*
X118223727Y-67651680D01*
X118242775Y-67670727D01*
X118261822Y-67708822D01*
X118261822Y-67746918D01*
X118242775Y-67804060D01*
X118014203Y-68032632D01*
X118261822Y-68032632D01*
G04 #@! TO.C,10k3*
D15*
X120419973Y-69762020D02*
X120086640Y-69285830D01*
X119848544Y-69762020D02*
X119848544Y-68762020D01*
X120229497Y-68762020D01*
X120324735Y-68809640D01*
X120372354Y-68857259D01*
X120419973Y-68952497D01*
X120419973Y-69095354D01*
X120372354Y-69190592D01*
X120324735Y-69238211D01*
X120229497Y-69285830D01*
X119848544Y-69285830D01*
X120991401Y-69190592D02*
X120896163Y-69142973D01*
X120848544Y-69095354D01*
X120800925Y-69000116D01*
X120800925Y-68952497D01*
X120848544Y-68857259D01*
X120896163Y-68809640D01*
X120991401Y-68762020D01*
X121181878Y-68762020D01*
X121277116Y-68809640D01*
X121324735Y-68857259D01*
X121372354Y-68952497D01*
X121372354Y-69000116D01*
X121324735Y-69095354D01*
X121277116Y-69142973D01*
X121181878Y-69190592D01*
X120991401Y-69190592D01*
X120896163Y-69238211D01*
X120848544Y-69285830D01*
X120800925Y-69381068D01*
X120800925Y-69571544D01*
X120848544Y-69666782D01*
X120896163Y-69714401D01*
X120991401Y-69762020D01*
X121181878Y-69762020D01*
X121277116Y-69714401D01*
X121324735Y-69666782D01*
X121372354Y-69571544D01*
X121372354Y-69381068D01*
X121324735Y-69285830D01*
X121277116Y-69238211D01*
X121181878Y-69190592D01*
D17*
X117176108Y-69475352D02*
X116947537Y-69475352D01*
X117061822Y-69475352D02*
X117061822Y-69075352D01*
X117023727Y-69132495D01*
X116985632Y-69170590D01*
X116947537Y-69189638D01*
X117423727Y-69075352D02*
X117461822Y-69075352D01*
X117499918Y-69094400D01*
X117518965Y-69113447D01*
X117538013Y-69151542D01*
X117557060Y-69227733D01*
X117557060Y-69322971D01*
X117538013Y-69399161D01*
X117518965Y-69437257D01*
X117499918Y-69456304D01*
X117461822Y-69475352D01*
X117423727Y-69475352D01*
X117385632Y-69456304D01*
X117366584Y-69437257D01*
X117347537Y-69399161D01*
X117328489Y-69322971D01*
X117328489Y-69227733D01*
X117347537Y-69151542D01*
X117366584Y-69113447D01*
X117385632Y-69094400D01*
X117423727Y-69075352D01*
X117728489Y-69475352D02*
X117728489Y-69075352D01*
X117766584Y-69322971D02*
X117880870Y-69475352D01*
X117880870Y-69208685D02*
X117728489Y-69361066D01*
X118014203Y-69075352D02*
X118261822Y-69075352D01*
X118128489Y-69227733D01*
X118185632Y-69227733D01*
X118223727Y-69246780D01*
X118242775Y-69265828D01*
X118261822Y-69303923D01*
X118261822Y-69399161D01*
X118242775Y-69437257D01*
X118223727Y-69456304D01*
X118185632Y-69475352D01*
X118071346Y-69475352D01*
X118033251Y-69456304D01*
X118014203Y-69437257D01*
G04 #@! TO.C,10k4*
D15*
X133505340Y-68196146D02*
X133029150Y-68529480D01*
X133505340Y-68767575D02*
X132505340Y-68767575D01*
X132505340Y-68386622D01*
X132552960Y-68291384D01*
X132600579Y-68243765D01*
X132695817Y-68196146D01*
X132838674Y-68196146D01*
X132933912Y-68243765D01*
X132981531Y-68291384D01*
X133029150Y-68386622D01*
X133029150Y-68767575D01*
X132505340Y-67291384D02*
X132505340Y-67767575D01*
X132981531Y-67815194D01*
X132933912Y-67767575D01*
X132886293Y-67672337D01*
X132886293Y-67434241D01*
X132933912Y-67339003D01*
X132981531Y-67291384D01*
X133076769Y-67243765D01*
X133314864Y-67243765D01*
X133410102Y-67291384D01*
X133457721Y-67339003D01*
X133505340Y-67434241D01*
X133505340Y-67672337D01*
X133457721Y-67767575D01*
X133410102Y-67815194D01*
D17*
X133122152Y-71513491D02*
X133122152Y-71742062D01*
X133122152Y-71627777D02*
X132722152Y-71627777D01*
X132779295Y-71665872D01*
X132817390Y-71703967D01*
X132836438Y-71742062D01*
X132722152Y-71265872D02*
X132722152Y-71227777D01*
X132741200Y-71189681D01*
X132760247Y-71170634D01*
X132798342Y-71151586D01*
X132874533Y-71132539D01*
X132969771Y-71132539D01*
X133045961Y-71151586D01*
X133084057Y-71170634D01*
X133103104Y-71189681D01*
X133122152Y-71227777D01*
X133122152Y-71265872D01*
X133103104Y-71303967D01*
X133084057Y-71323015D01*
X133045961Y-71342062D01*
X132969771Y-71361110D01*
X132874533Y-71361110D01*
X132798342Y-71342062D01*
X132760247Y-71323015D01*
X132741200Y-71303967D01*
X132722152Y-71265872D01*
X133122152Y-70961110D02*
X132722152Y-70961110D01*
X132969771Y-70923015D02*
X133122152Y-70808729D01*
X132855485Y-70808729D02*
X133007866Y-70961110D01*
X132855485Y-70465872D02*
X133122152Y-70465872D01*
X132703104Y-70561110D02*
X132988819Y-70656348D01*
X132988819Y-70408729D01*
G04 #@! TO.C,10nF1*
D15*
X123620373Y-83850142D02*
X123572754Y-83897761D01*
X123429897Y-83945380D01*
X123334659Y-83945380D01*
X123191801Y-83897761D01*
X123096563Y-83802523D01*
X123048944Y-83707285D01*
X123001325Y-83516809D01*
X123001325Y-83373952D01*
X123048944Y-83183476D01*
X123096563Y-83088238D01*
X123191801Y-82993000D01*
X123334659Y-82945380D01*
X123429897Y-82945380D01*
X123572754Y-82993000D01*
X123620373Y-83040619D01*
X123953706Y-82945380D02*
X124620373Y-82945380D01*
X124191801Y-83945380D01*
G04 #@! TO.C,22uH1*
X120719693Y-88207500D02*
X120243502Y-88207500D01*
X120243502Y-87207500D01*
X121576836Y-88207500D02*
X121005407Y-88207500D01*
X121291121Y-88207500D02*
X121291121Y-87207500D01*
X121195883Y-87350358D01*
X121100645Y-87445596D01*
X121005407Y-87493215D01*
D17*
X122952125Y-87513207D02*
X122971173Y-87494160D01*
X123009268Y-87475112D01*
X123104506Y-87475112D01*
X123142601Y-87494160D01*
X123161649Y-87513207D01*
X123180697Y-87551302D01*
X123180697Y-87589398D01*
X123161649Y-87646540D01*
X122933078Y-87875112D01*
X123180697Y-87875112D01*
X123333078Y-87513207D02*
X123352125Y-87494160D01*
X123390220Y-87475112D01*
X123485459Y-87475112D01*
X123523554Y-87494160D01*
X123542601Y-87513207D01*
X123561649Y-87551302D01*
X123561649Y-87589398D01*
X123542601Y-87646540D01*
X123314030Y-87875112D01*
X123561649Y-87875112D01*
X123904506Y-87608445D02*
X123904506Y-87875112D01*
X123733078Y-87608445D02*
X123733078Y-87817969D01*
X123752125Y-87856064D01*
X123790220Y-87875112D01*
X123847363Y-87875112D01*
X123885459Y-87856064D01*
X123904506Y-87837017D01*
X124094982Y-87875112D02*
X124094982Y-87475112D01*
X124094982Y-87665588D02*
X124323554Y-87665588D01*
X124323554Y-87875112D02*
X124323554Y-87475112D01*
X124723554Y-87875112D02*
X124494982Y-87875112D01*
X124609268Y-87875112D02*
X124609268Y-87475112D01*
X124571173Y-87532255D01*
X124533078Y-87570350D01*
X124494982Y-87589398D01*
G04 #@! TO.C,100nF1*
D15*
X101868382Y-64792546D02*
X101916001Y-64840165D01*
X101963620Y-64983022D01*
X101963620Y-65078260D01*
X101916001Y-65221118D01*
X101820763Y-65316356D01*
X101725525Y-65363975D01*
X101535049Y-65411594D01*
X101392192Y-65411594D01*
X101201716Y-65363975D01*
X101106478Y-65316356D01*
X101011240Y-65221118D01*
X100963620Y-65078260D01*
X100963620Y-64983022D01*
X101011240Y-64840165D01*
X101058859Y-64792546D01*
X100963620Y-63887784D02*
X100963620Y-64363975D01*
X101439811Y-64411594D01*
X101392192Y-64363975D01*
X101344573Y-64268737D01*
X101344573Y-64030641D01*
X101392192Y-63935403D01*
X101439811Y-63887784D01*
X101535049Y-63840165D01*
X101773144Y-63840165D01*
X101868382Y-63887784D01*
X101916001Y-63935403D01*
X101963620Y-64030641D01*
X101963620Y-64268737D01*
X101916001Y-64363975D01*
X101868382Y-64411594D01*
G04 #@! TO.C,100nF2*
X130478942Y-68331977D02*
X130526561Y-68379596D01*
X130574180Y-68522453D01*
X130574180Y-68617691D01*
X130526561Y-68760548D01*
X130431323Y-68855786D01*
X130336085Y-68903405D01*
X130145609Y-68951024D01*
X130002752Y-68951024D01*
X129812276Y-68903405D01*
X129717038Y-68855786D01*
X129621800Y-68760548D01*
X129574180Y-68617691D01*
X129574180Y-68522453D01*
X129621800Y-68379596D01*
X129669419Y-68331977D01*
X130574180Y-67379596D02*
X130574180Y-67951024D01*
X130574180Y-67665310D02*
X129574180Y-67665310D01*
X129717038Y-67760548D01*
X129812276Y-67855786D01*
X129859895Y-67951024D01*
X129574180Y-66474834D02*
X129574180Y-66951024D01*
X130050371Y-66998643D01*
X130002752Y-66951024D01*
X129955133Y-66855786D01*
X129955133Y-66617691D01*
X130002752Y-66522453D01*
X130050371Y-66474834D01*
X130145609Y-66427215D01*
X130383704Y-66427215D01*
X130478942Y-66474834D01*
X130526561Y-66522453D01*
X130574180Y-66617691D01*
X130574180Y-66855786D01*
X130526561Y-66951024D01*
X130478942Y-66998643D01*
G04 #@! TO.C,100nF3*
X134324502Y-96552746D02*
X134372121Y-96600365D01*
X134419740Y-96743222D01*
X134419740Y-96838460D01*
X134372121Y-96981318D01*
X134276883Y-97076556D01*
X134181645Y-97124175D01*
X133991169Y-97171794D01*
X133848312Y-97171794D01*
X133657836Y-97124175D01*
X133562598Y-97076556D01*
X133467360Y-96981318D01*
X133419740Y-96838460D01*
X133419740Y-96743222D01*
X133467360Y-96600365D01*
X133514979Y-96552746D01*
X134419740Y-96076556D02*
X134419740Y-95886080D01*
X134372121Y-95790841D01*
X134324502Y-95743222D01*
X134181645Y-95647984D01*
X133991169Y-95600365D01*
X133610217Y-95600365D01*
X133514979Y-95647984D01*
X133467360Y-95695603D01*
X133419740Y-95790841D01*
X133419740Y-95981318D01*
X133467360Y-96076556D01*
X133514979Y-96124175D01*
X133610217Y-96171794D01*
X133848312Y-96171794D01*
X133943550Y-96124175D01*
X133991169Y-96076556D01*
X134038788Y-95981318D01*
X134038788Y-95790841D01*
X133991169Y-95695603D01*
X133943550Y-95647984D01*
X133848312Y-95600365D01*
G04 #@! TO.C,100nF4*
X142117222Y-97679137D02*
X142164841Y-97726756D01*
X142212460Y-97869613D01*
X142212460Y-97964851D01*
X142164841Y-98107708D01*
X142069603Y-98202946D01*
X141974365Y-98250565D01*
X141783889Y-98298184D01*
X141641032Y-98298184D01*
X141450556Y-98250565D01*
X141355318Y-98202946D01*
X141260080Y-98107708D01*
X141212460Y-97964851D01*
X141212460Y-97869613D01*
X141260080Y-97726756D01*
X141307699Y-97679137D01*
X142212460Y-96726756D02*
X142212460Y-97298184D01*
X142212460Y-97012470D02*
X141212460Y-97012470D01*
X141355318Y-97107708D01*
X141450556Y-97202946D01*
X141498175Y-97298184D01*
X141212460Y-96393422D02*
X141212460Y-95774375D01*
X141593413Y-96107708D01*
X141593413Y-95964851D01*
X141641032Y-95869613D01*
X141688651Y-95821994D01*
X141783889Y-95774375D01*
X142021984Y-95774375D01*
X142117222Y-95821994D01*
X142164841Y-95869613D01*
X142212460Y-95964851D01*
X142212460Y-96250565D01*
X142164841Y-96345803D01*
X142117222Y-96393422D01*
G04 #@! TO.C,100nF5*
X150134222Y-79242582D02*
X150086603Y-79290201D01*
X149943746Y-79337820D01*
X149848508Y-79337820D01*
X149705651Y-79290201D01*
X149610413Y-79194963D01*
X149562794Y-79099725D01*
X149515175Y-78909249D01*
X149515175Y-78766392D01*
X149562794Y-78575916D01*
X149610413Y-78480678D01*
X149705651Y-78385440D01*
X149848508Y-78337820D01*
X149943746Y-78337820D01*
X150086603Y-78385440D01*
X150134222Y-78433059D01*
X151086603Y-79337820D02*
X150515175Y-79337820D01*
X150800889Y-79337820D02*
X150800889Y-78337820D01*
X150705651Y-78480678D01*
X150610413Y-78575916D01*
X150515175Y-78623535D01*
X152038984Y-79337820D02*
X151467556Y-79337820D01*
X151753270Y-79337820D02*
X151753270Y-78337820D01*
X151658032Y-78480678D01*
X151562794Y-78575916D01*
X151467556Y-78623535D01*
G04 #@! TO.C,C1*
X116914773Y-76392702D02*
X116867154Y-76440321D01*
X116724297Y-76487940D01*
X116629059Y-76487940D01*
X116486201Y-76440321D01*
X116390963Y-76345083D01*
X116343344Y-76249845D01*
X116295725Y-76059369D01*
X116295725Y-75916512D01*
X116343344Y-75726036D01*
X116390963Y-75630798D01*
X116486201Y-75535560D01*
X116629059Y-75487940D01*
X116724297Y-75487940D01*
X116867154Y-75535560D01*
X116914773Y-75583179D01*
X117867154Y-76487940D02*
X117295725Y-76487940D01*
X117581440Y-76487940D02*
X117581440Y-75487940D01*
X117486201Y-75630798D01*
X117390963Y-75726036D01*
X117295725Y-75773655D01*
G04 #@! TO.C,C2*
X116777613Y-84464822D02*
X116729994Y-84512441D01*
X116587137Y-84560060D01*
X116491899Y-84560060D01*
X116349041Y-84512441D01*
X116253803Y-84417203D01*
X116206184Y-84321965D01*
X116158565Y-84131489D01*
X116158565Y-83988632D01*
X116206184Y-83798156D01*
X116253803Y-83702918D01*
X116349041Y-83607680D01*
X116491899Y-83560060D01*
X116587137Y-83560060D01*
X116729994Y-83607680D01*
X116777613Y-83655299D01*
X117158565Y-83655299D02*
X117206184Y-83607680D01*
X117301422Y-83560060D01*
X117539518Y-83560060D01*
X117634756Y-83607680D01*
X117682375Y-83655299D01*
X117729994Y-83750537D01*
X117729994Y-83845775D01*
X117682375Y-83988632D01*
X117110946Y-84560060D01*
X117729994Y-84560060D01*
G04 #@! TO.C,J1*
X103305500Y-81001853D02*
X104019786Y-81001853D01*
X104162643Y-81049472D01*
X104257881Y-81144710D01*
X104305500Y-81287567D01*
X104305500Y-81382805D01*
X104305500Y-80001853D02*
X104305500Y-80573281D01*
X104305500Y-80287567D02*
X103305500Y-80287567D01*
X103448358Y-80382805D01*
X103543596Y-80478043D01*
X103591215Y-80573281D01*
G04 #@! TO.C,J3*
X157402420Y-79970613D02*
X158116706Y-79970613D01*
X158259563Y-80018232D01*
X158354801Y-80113470D01*
X158402420Y-80256327D01*
X158402420Y-80351565D01*
X157402420Y-79589660D02*
X157402420Y-78970613D01*
X157783373Y-79303946D01*
X157783373Y-79161089D01*
X157830992Y-79065851D01*
X157878611Y-79018232D01*
X157973849Y-78970613D01*
X158211944Y-78970613D01*
X158307182Y-79018232D01*
X158354801Y-79065851D01*
X158402420Y-79161089D01*
X158402420Y-79446803D01*
X158354801Y-79542041D01*
X158307182Y-79589660D01*
G04 #@! TO.C,J4*
X132582466Y-56468420D02*
X132582466Y-57182706D01*
X132534847Y-57325563D01*
X132439609Y-57420801D01*
X132296752Y-57468420D01*
X132201514Y-57468420D01*
X133487228Y-56801754D02*
X133487228Y-57468420D01*
X133249133Y-56420801D02*
X133011038Y-57135087D01*
X133630085Y-57135087D01*
G04 #@! TO.C,J5*
X132389426Y-101690580D02*
X132389426Y-102404866D01*
X132341807Y-102547723D01*
X132246569Y-102642961D01*
X132103712Y-102690580D01*
X132008474Y-102690580D01*
X133341807Y-101690580D02*
X132865617Y-101690580D01*
X132817998Y-102166771D01*
X132865617Y-102119152D01*
X132960855Y-102071533D01*
X133198950Y-102071533D01*
X133294188Y-102119152D01*
X133341807Y-102166771D01*
X133389426Y-102262009D01*
X133389426Y-102500104D01*
X133341807Y-102595342D01*
X133294188Y-102642961D01*
X133198950Y-102690580D01*
X132960855Y-102690580D01*
X132865617Y-102642961D01*
X132817998Y-102595342D01*
G04 #@! TO.C,J6*
X103621386Y-101675340D02*
X103621386Y-102389626D01*
X103573767Y-102532483D01*
X103478529Y-102627721D01*
X103335672Y-102675340D01*
X103240434Y-102675340D01*
X104526148Y-101675340D02*
X104335672Y-101675340D01*
X104240434Y-101722960D01*
X104192815Y-101770579D01*
X104097577Y-101913436D01*
X104049958Y-102103912D01*
X104049958Y-102484864D01*
X104097577Y-102580102D01*
X104145196Y-102627721D01*
X104240434Y-102675340D01*
X104430910Y-102675340D01*
X104526148Y-102627721D01*
X104573767Y-102580102D01*
X104621386Y-102484864D01*
X104621386Y-102246769D01*
X104573767Y-102151531D01*
X104526148Y-102103912D01*
X104430910Y-102056293D01*
X104240434Y-102056293D01*
X104145196Y-102103912D01*
X104097577Y-102151531D01*
X104049958Y-102246769D01*
G04 #@! TO.C,SW1*
X101557220Y-62206779D02*
X101081030Y-62540112D01*
X101557220Y-62778207D02*
X100557220Y-62778207D01*
X100557220Y-62397255D01*
X100604840Y-62302017D01*
X100652459Y-62254398D01*
X100747697Y-62206779D01*
X100890554Y-62206779D01*
X100985792Y-62254398D01*
X101033411Y-62302017D01*
X101081030Y-62397255D01*
X101081030Y-62778207D01*
X101509601Y-61825826D02*
X101557220Y-61682969D01*
X101557220Y-61444874D01*
X101509601Y-61349636D01*
X101461982Y-61302017D01*
X101366744Y-61254398D01*
X101271506Y-61254398D01*
X101176268Y-61302017D01*
X101128649Y-61349636D01*
X101081030Y-61444874D01*
X101033411Y-61635350D01*
X100985792Y-61730588D01*
X100938173Y-61778207D01*
X100842935Y-61825826D01*
X100747697Y-61825826D01*
X100652459Y-61778207D01*
X100604840Y-61730588D01*
X100557220Y-61635350D01*
X100557220Y-61397255D01*
X100604840Y-61254398D01*
X100557220Y-60968683D02*
X100557220Y-60397255D01*
X101557220Y-60682969D02*
X100557220Y-60682969D01*
G04 #@! TO.C,Y1*
X111982140Y-83999550D02*
X111982140Y-83380502D01*
X112363093Y-83713836D01*
X112363093Y-83570979D01*
X112410712Y-83475740D01*
X112458331Y-83428121D01*
X112553569Y-83380502D01*
X112791664Y-83380502D01*
X112886902Y-83428121D01*
X112934521Y-83475740D01*
X112982140Y-83570979D01*
X112982140Y-83856693D01*
X112934521Y-83951931D01*
X112886902Y-83999550D01*
X112077379Y-82999550D02*
X112029760Y-82951931D01*
X111982140Y-82856693D01*
X111982140Y-82618598D01*
X112029760Y-82523360D01*
X112077379Y-82475740D01*
X112172617Y-82428121D01*
X112267855Y-82428121D01*
X112410712Y-82475740D01*
X112982140Y-83047169D01*
X112982140Y-82428121D01*
X112886902Y-81999550D02*
X112934521Y-81951931D01*
X112982140Y-81999550D01*
X112934521Y-82047169D01*
X112886902Y-81999550D01*
X112982140Y-81999550D01*
X111982140Y-81618598D02*
X111982140Y-80951931D01*
X112982140Y-81380502D01*
X111982140Y-80142407D02*
X111982140Y-80332883D01*
X112029760Y-80428121D01*
X112077379Y-80475740D01*
X112220236Y-80570979D01*
X112410712Y-80618598D01*
X112791664Y-80618598D01*
X112886902Y-80570979D01*
X112934521Y-80523360D01*
X112982140Y-80428121D01*
X112982140Y-80237645D01*
X112934521Y-80142407D01*
X112886902Y-80094788D01*
X112791664Y-80047169D01*
X112553569Y-80047169D01*
X112458331Y-80094788D01*
X112410712Y-80142407D01*
X112363093Y-80237645D01*
X112363093Y-80428121D01*
X112410712Y-80523360D01*
X112458331Y-80570979D01*
X112553569Y-80618598D01*
X112410712Y-79475740D02*
X112363093Y-79570979D01*
X112315474Y-79618598D01*
X112220236Y-79666217D01*
X112172617Y-79666217D01*
X112077379Y-79618598D01*
X112029760Y-79570979D01*
X111982140Y-79475740D01*
X111982140Y-79285264D01*
X112029760Y-79190026D01*
X112077379Y-79142407D01*
X112172617Y-79094788D01*
X112220236Y-79094788D01*
X112315474Y-79142407D01*
X112363093Y-79190026D01*
X112410712Y-79285264D01*
X112410712Y-79475740D01*
X112458331Y-79570979D01*
X112505950Y-79618598D01*
X112601188Y-79666217D01*
X112791664Y-79666217D01*
X112886902Y-79618598D01*
X112934521Y-79570979D01*
X112982140Y-79475740D01*
X112982140Y-79285264D01*
X112934521Y-79190026D01*
X112886902Y-79142407D01*
X112791664Y-79094788D01*
X112601188Y-79094788D01*
X112505950Y-79142407D01*
X112458331Y-79190026D01*
X112410712Y-79285264D01*
X112982140Y-78666217D02*
X111982140Y-78666217D01*
X112696426Y-78332883D01*
X111982140Y-77999550D01*
X112982140Y-77999550D01*
X112982140Y-77523360D02*
X111982140Y-77523360D01*
X112458331Y-77523360D02*
X112458331Y-76951931D01*
X112982140Y-76951931D02*
X111982140Y-76951931D01*
X112315474Y-76570979D02*
X112315474Y-76047169D01*
X112982140Y-76570979D01*
X112982140Y-76047169D01*
X117128489Y-81046030D02*
X117128489Y-81522220D01*
X116795156Y-80522220D02*
X117128489Y-81046030D01*
X117461822Y-80522220D01*
X118318965Y-81522220D02*
X117747537Y-81522220D01*
X118033251Y-81522220D02*
X118033251Y-80522220D01*
X117938013Y-80665078D01*
X117842775Y-80760316D01*
X117747537Y-80807935D01*
G04 #@! TD*
M02*
