G04 #@! TF.GenerationSoftware,KiCad,Pcbnew,5.0.1-33cea8e~68~ubuntu16.04.1*
G04 #@! TF.CreationDate,2018-10-29T01:45:26-07:00*
G04 #@! TF.ProjectId,integrated-board-design-1,696E74656772617465642D626F617264,rev?*
G04 #@! TF.SameCoordinates,Original*
G04 #@! TF.FileFunction,Paste,Top*
G04 #@! TF.FilePolarity,Positive*
%FSLAX46Y46*%
G04 Gerber Fmt 4.6, Leading zero omitted, Abs format (unit mm)*
G04 Created by KiCad (PCBNEW 5.0.1-33cea8e~68~ubuntu16.04.1) date Mon 29 Oct 2018 01:45:26 AM PDT*
%MOMM*%
%LPD*%
G01*
G04 APERTURE LIST*
%ADD10C,0.100000*%
%ADD11R,0.750000X1.200000*%
%ADD12R,2.000000X1.000000*%
%ADD13R,1.200000X0.750000*%
%ADD14R,1.400000X0.700000*%
%ADD15R,1.900000X1.500000*%
%ADD16R,1.400000X1.000000*%
%ADD17R,1.200000X1.200000*%
%ADD18R,3.200000X1.200000*%
%ADD19R,1.200000X0.700000*%
%ADD20R,0.500000X0.500000*%
%ADD21R,0.800000X1.200000*%
%ADD22C,0.200000*%
%ADD23R,2.200000X1.500000*%
%ADD24R,1.200000X0.900000*%
%ADD25R,0.900000X1.200000*%
%ADD26R,1.270000X0.558800*%
%ADD27R,0.650000X1.360000*%
%ADD28R,1.650000X0.610000*%
%ADD29R,1.905000X1.092200*%
%ADD30R,4.500000X2.300000*%
%ADD31C,0.590000*%
%ADD32R,0.290000X0.700000*%
%ADD33R,0.700000X0.290000*%
%ADD34C,0.950000*%
%ADD35R,0.790000X0.260000*%
%ADD36R,0.260000X0.790000*%
%ADD37R,2.700000X2.600000*%
%ADD38R,4.064000X1.524000*%
%ADD39R,1.240000X1.500000*%
%ADD40R,1.350000X0.800000*%
%ADD41R,1.050000X1.000000*%
%ADD42R,2.200000X0.850000*%
%ADD43R,1.980000X0.530000*%
%ADD44R,1.500000X0.300000*%
%ADD45R,0.300000X1.500000*%
%ADD46R,0.900000X1.700000*%
%ADD47R,2.700000X2.100000*%
G04 APERTURE END LIST*
D10*
G04 #@! TO.C,U1*
G36*
X166271800Y-37002000D02*
X167233000Y-37002000D01*
X167233000Y-37911857D01*
X166271800Y-37911857D01*
X166271800Y-37002000D01*
G37*
G36*
X167493163Y-37002000D02*
X168453000Y-37002000D01*
X168453000Y-37911837D01*
X167493163Y-37911837D01*
X167493163Y-37002000D01*
G37*
G36*
X167493019Y-38172000D02*
X168453000Y-38172000D01*
X168453000Y-39082160D01*
X167493019Y-39082160D01*
X167493019Y-38172000D01*
G37*
G36*
X166271820Y-38172000D02*
X167233000Y-38172000D01*
X167233000Y-39083130D01*
X166271820Y-39083130D01*
X166271820Y-38172000D01*
G37*
G04 #@! TD*
D11*
G04 #@! TO.C,C1*
X103600080Y-135754560D03*
X103600080Y-133854560D03*
G04 #@! TD*
G04 #@! TO.C,C2*
X108680080Y-135754560D03*
X108680080Y-133854560D03*
G04 #@! TD*
G04 #@! TO.C,R3*
X112490080Y-135754560D03*
X112490080Y-133854560D03*
G04 #@! TD*
D12*
G04 #@! TO.C,U1*
X70751015Y-115914309D03*
X70751015Y-114414309D03*
X70751015Y-112914309D03*
X70751015Y-111414309D03*
X70751015Y-109914309D03*
X70751015Y-108414309D03*
X70751015Y-106914309D03*
X70751015Y-105414309D03*
X70751015Y-103914309D03*
X70751015Y-102414309D03*
X86751015Y-102414309D03*
X86751015Y-103914309D03*
X86751015Y-105414309D03*
X86751015Y-106914309D03*
X86751015Y-108414309D03*
X86751015Y-109914309D03*
X86751015Y-111414309D03*
X86751015Y-112914309D03*
X86751015Y-114414309D03*
X86751015Y-115914309D03*
G04 #@! TD*
D13*
G04 #@! TO.C,C1*
X178125000Y-136875000D03*
X180025000Y-136875000D03*
G04 #@! TD*
D14*
G04 #@! TO.C,J2*
X81455440Y-69441760D03*
D15*
X66455440Y-65641760D03*
D16*
X81455440Y-67541760D03*
D17*
X77255440Y-78941760D03*
D18*
X67455440Y-78941760D03*
D19*
X81555440Y-78091760D03*
D14*
X81455440Y-70541760D03*
X81455440Y-71641760D03*
X81455440Y-72741760D03*
X81455440Y-73841760D03*
X81455440Y-74941760D03*
X81455440Y-76041760D03*
X81455440Y-77141760D03*
D20*
X65755440Y-66641760D03*
D21*
X71055440Y-78941760D03*
D22*
X66005440Y-66391760D03*
D10*
G36*
X65864019Y-66391760D02*
X66005440Y-66250339D01*
X66146861Y-66391760D01*
X66005440Y-66533181D01*
X65864019Y-66391760D01*
X65864019Y-66391760D01*
G37*
G04 #@! TD*
D11*
G04 #@! TO.C,C16*
X180525000Y-66900000D03*
X180525000Y-65000000D03*
G04 #@! TD*
G04 #@! TO.C,C17*
X188125000Y-61700000D03*
X188125000Y-63600000D03*
G04 #@! TD*
D13*
G04 #@! TO.C,C18*
X188200000Y-51375000D03*
X186300000Y-51375000D03*
G04 #@! TD*
D11*
G04 #@! TO.C,C19*
X178025000Y-108325000D03*
X178025000Y-106425000D03*
G04 #@! TD*
G04 #@! TO.C,C20*
X187971120Y-104567080D03*
X187971120Y-106467080D03*
G04 #@! TD*
D13*
G04 #@! TO.C,C21*
X187940720Y-93678100D03*
X186040720Y-93678100D03*
G04 #@! TD*
D23*
G04 #@! TO.C,L2*
X188098400Y-53349600D03*
X188098400Y-59749600D03*
G04 #@! TD*
G04 #@! TO.C,L3*
X187958420Y-95906080D03*
X187958420Y-102306080D03*
G04 #@! TD*
D24*
G04 #@! TO.C,R5*
X190725000Y-67075000D03*
X188525000Y-67075000D03*
G04 #@! TD*
D25*
G04 #@! TO.C,R6*
X188527260Y-68722680D03*
X188527260Y-70922680D03*
G04 #@! TD*
D24*
G04 #@! TO.C,R7*
X190302840Y-108288180D03*
X188102840Y-108288180D03*
G04 #@! TD*
D25*
G04 #@! TO.C,R8*
X188133680Y-110215860D03*
X188133680Y-112415860D03*
G04 #@! TD*
D26*
G04 #@! TO.C,U3*
X182075780Y-106479700D03*
X182075780Y-107419500D03*
X182075780Y-108359300D03*
X184666580Y-108359300D03*
X184666580Y-107419500D03*
X184666580Y-106479700D03*
G04 #@! TD*
G04 #@! TO.C,U2*
X184154600Y-65035200D03*
X184154600Y-65975000D03*
X184154600Y-66914800D03*
X186745400Y-66914800D03*
X186745400Y-65975000D03*
X186745400Y-65035200D03*
G04 #@! TD*
D25*
G04 #@! TO.C,D4*
X188138760Y-116500180D03*
X188138760Y-114300180D03*
G04 #@! TD*
G04 #@! TO.C,D5*
X188539960Y-75035120D03*
X188539960Y-72835120D03*
G04 #@! TD*
D24*
G04 #@! TO.C,R9*
X190336040Y-118361820D03*
X188136040Y-118361820D03*
G04 #@! TD*
G04 #@! TO.C,R10*
X190742500Y-76759600D03*
X188542500Y-76759600D03*
G04 #@! TD*
D27*
G04 #@! TO.C,U1*
X178439203Y-134408068D03*
X178439203Y-132058068D03*
X179689203Y-134408068D03*
X180939203Y-134408068D03*
X182189203Y-134408068D03*
X182189203Y-132058068D03*
X180939203Y-132058068D03*
X179689203Y-132058068D03*
G04 #@! TD*
D28*
G04 #@! TO.C,IC1*
X112580080Y-127969560D03*
X112580080Y-129239560D03*
X112580080Y-130509560D03*
X112580080Y-131779560D03*
X107320080Y-131779560D03*
X107320080Y-130509560D03*
X107320080Y-129239560D03*
X107320080Y-127969560D03*
G04 #@! TD*
D29*
G04 #@! TO.C,Q1*
X103600080Y-131677960D03*
X103600080Y-129239560D03*
G04 #@! TD*
D30*
G04 #@! TO.C,B1*
X118150080Y-120349560D03*
X101750080Y-120349560D03*
G04 #@! TD*
D10*
G04 #@! TO.C,C1*
G36*
X168106258Y-127103870D02*
X168120576Y-127105994D01*
X168134617Y-127109511D01*
X168148246Y-127114388D01*
X168161331Y-127120577D01*
X168173747Y-127128018D01*
X168185373Y-127136641D01*
X168196098Y-127146362D01*
X168205819Y-127157087D01*
X168214442Y-127168713D01*
X168221883Y-127181129D01*
X168228072Y-127194214D01*
X168232949Y-127207843D01*
X168236466Y-127221884D01*
X168238590Y-127236202D01*
X168239300Y-127250660D01*
X168239300Y-127595660D01*
X168238590Y-127610118D01*
X168236466Y-127624436D01*
X168232949Y-127638477D01*
X168228072Y-127652106D01*
X168221883Y-127665191D01*
X168214442Y-127677607D01*
X168205819Y-127689233D01*
X168196098Y-127699958D01*
X168185373Y-127709679D01*
X168173747Y-127718302D01*
X168161331Y-127725743D01*
X168148246Y-127731932D01*
X168134617Y-127736809D01*
X168120576Y-127740326D01*
X168106258Y-127742450D01*
X168091800Y-127743160D01*
X167796800Y-127743160D01*
X167782342Y-127742450D01*
X167768024Y-127740326D01*
X167753983Y-127736809D01*
X167740354Y-127731932D01*
X167727269Y-127725743D01*
X167714853Y-127718302D01*
X167703227Y-127709679D01*
X167692502Y-127699958D01*
X167682781Y-127689233D01*
X167674158Y-127677607D01*
X167666717Y-127665191D01*
X167660528Y-127652106D01*
X167655651Y-127638477D01*
X167652134Y-127624436D01*
X167650010Y-127610118D01*
X167649300Y-127595660D01*
X167649300Y-127250660D01*
X167650010Y-127236202D01*
X167652134Y-127221884D01*
X167655651Y-127207843D01*
X167660528Y-127194214D01*
X167666717Y-127181129D01*
X167674158Y-127168713D01*
X167682781Y-127157087D01*
X167692502Y-127146362D01*
X167703227Y-127136641D01*
X167714853Y-127128018D01*
X167727269Y-127120577D01*
X167740354Y-127114388D01*
X167753983Y-127109511D01*
X167768024Y-127105994D01*
X167782342Y-127103870D01*
X167796800Y-127103160D01*
X168091800Y-127103160D01*
X168106258Y-127103870D01*
X168106258Y-127103870D01*
G37*
D31*
X167944300Y-127423160D03*
D10*
G36*
X169076258Y-127103870D02*
X169090576Y-127105994D01*
X169104617Y-127109511D01*
X169118246Y-127114388D01*
X169131331Y-127120577D01*
X169143747Y-127128018D01*
X169155373Y-127136641D01*
X169166098Y-127146362D01*
X169175819Y-127157087D01*
X169184442Y-127168713D01*
X169191883Y-127181129D01*
X169198072Y-127194214D01*
X169202949Y-127207843D01*
X169206466Y-127221884D01*
X169208590Y-127236202D01*
X169209300Y-127250660D01*
X169209300Y-127595660D01*
X169208590Y-127610118D01*
X169206466Y-127624436D01*
X169202949Y-127638477D01*
X169198072Y-127652106D01*
X169191883Y-127665191D01*
X169184442Y-127677607D01*
X169175819Y-127689233D01*
X169166098Y-127699958D01*
X169155373Y-127709679D01*
X169143747Y-127718302D01*
X169131331Y-127725743D01*
X169118246Y-127731932D01*
X169104617Y-127736809D01*
X169090576Y-127740326D01*
X169076258Y-127742450D01*
X169061800Y-127743160D01*
X168766800Y-127743160D01*
X168752342Y-127742450D01*
X168738024Y-127740326D01*
X168723983Y-127736809D01*
X168710354Y-127731932D01*
X168697269Y-127725743D01*
X168684853Y-127718302D01*
X168673227Y-127709679D01*
X168662502Y-127699958D01*
X168652781Y-127689233D01*
X168644158Y-127677607D01*
X168636717Y-127665191D01*
X168630528Y-127652106D01*
X168625651Y-127638477D01*
X168622134Y-127624436D01*
X168620010Y-127610118D01*
X168619300Y-127595660D01*
X168619300Y-127250660D01*
X168620010Y-127236202D01*
X168622134Y-127221884D01*
X168625651Y-127207843D01*
X168630528Y-127194214D01*
X168636717Y-127181129D01*
X168644158Y-127168713D01*
X168652781Y-127157087D01*
X168662502Y-127146362D01*
X168673227Y-127136641D01*
X168684853Y-127128018D01*
X168697269Y-127120577D01*
X168710354Y-127114388D01*
X168723983Y-127109511D01*
X168738024Y-127105994D01*
X168752342Y-127103870D01*
X168766800Y-127103160D01*
X169061800Y-127103160D01*
X169076258Y-127103870D01*
X169076258Y-127103870D01*
G37*
D31*
X168914300Y-127423160D03*
G04 #@! TD*
D10*
G04 #@! TO.C,C2*
G36*
X169076258Y-130151870D02*
X169090576Y-130153994D01*
X169104617Y-130157511D01*
X169118246Y-130162388D01*
X169131331Y-130168577D01*
X169143747Y-130176018D01*
X169155373Y-130184641D01*
X169166098Y-130194362D01*
X169175819Y-130205087D01*
X169184442Y-130216713D01*
X169191883Y-130229129D01*
X169198072Y-130242214D01*
X169202949Y-130255843D01*
X169206466Y-130269884D01*
X169208590Y-130284202D01*
X169209300Y-130298660D01*
X169209300Y-130643660D01*
X169208590Y-130658118D01*
X169206466Y-130672436D01*
X169202949Y-130686477D01*
X169198072Y-130700106D01*
X169191883Y-130713191D01*
X169184442Y-130725607D01*
X169175819Y-130737233D01*
X169166098Y-130747958D01*
X169155373Y-130757679D01*
X169143747Y-130766302D01*
X169131331Y-130773743D01*
X169118246Y-130779932D01*
X169104617Y-130784809D01*
X169090576Y-130788326D01*
X169076258Y-130790450D01*
X169061800Y-130791160D01*
X168766800Y-130791160D01*
X168752342Y-130790450D01*
X168738024Y-130788326D01*
X168723983Y-130784809D01*
X168710354Y-130779932D01*
X168697269Y-130773743D01*
X168684853Y-130766302D01*
X168673227Y-130757679D01*
X168662502Y-130747958D01*
X168652781Y-130737233D01*
X168644158Y-130725607D01*
X168636717Y-130713191D01*
X168630528Y-130700106D01*
X168625651Y-130686477D01*
X168622134Y-130672436D01*
X168620010Y-130658118D01*
X168619300Y-130643660D01*
X168619300Y-130298660D01*
X168620010Y-130284202D01*
X168622134Y-130269884D01*
X168625651Y-130255843D01*
X168630528Y-130242214D01*
X168636717Y-130229129D01*
X168644158Y-130216713D01*
X168652781Y-130205087D01*
X168662502Y-130194362D01*
X168673227Y-130184641D01*
X168684853Y-130176018D01*
X168697269Y-130168577D01*
X168710354Y-130162388D01*
X168723983Y-130157511D01*
X168738024Y-130153994D01*
X168752342Y-130151870D01*
X168766800Y-130151160D01*
X169061800Y-130151160D01*
X169076258Y-130151870D01*
X169076258Y-130151870D01*
G37*
D31*
X168914300Y-130471160D03*
D10*
G36*
X168106258Y-130151870D02*
X168120576Y-130153994D01*
X168134617Y-130157511D01*
X168148246Y-130162388D01*
X168161331Y-130168577D01*
X168173747Y-130176018D01*
X168185373Y-130184641D01*
X168196098Y-130194362D01*
X168205819Y-130205087D01*
X168214442Y-130216713D01*
X168221883Y-130229129D01*
X168228072Y-130242214D01*
X168232949Y-130255843D01*
X168236466Y-130269884D01*
X168238590Y-130284202D01*
X168239300Y-130298660D01*
X168239300Y-130643660D01*
X168238590Y-130658118D01*
X168236466Y-130672436D01*
X168232949Y-130686477D01*
X168228072Y-130700106D01*
X168221883Y-130713191D01*
X168214442Y-130725607D01*
X168205819Y-130737233D01*
X168196098Y-130747958D01*
X168185373Y-130757679D01*
X168173747Y-130766302D01*
X168161331Y-130773743D01*
X168148246Y-130779932D01*
X168134617Y-130784809D01*
X168120576Y-130788326D01*
X168106258Y-130790450D01*
X168091800Y-130791160D01*
X167796800Y-130791160D01*
X167782342Y-130790450D01*
X167768024Y-130788326D01*
X167753983Y-130784809D01*
X167740354Y-130779932D01*
X167727269Y-130773743D01*
X167714853Y-130766302D01*
X167703227Y-130757679D01*
X167692502Y-130747958D01*
X167682781Y-130737233D01*
X167674158Y-130725607D01*
X167666717Y-130713191D01*
X167660528Y-130700106D01*
X167655651Y-130686477D01*
X167652134Y-130672436D01*
X167650010Y-130658118D01*
X167649300Y-130643660D01*
X167649300Y-130298660D01*
X167650010Y-130284202D01*
X167652134Y-130269884D01*
X167655651Y-130255843D01*
X167660528Y-130242214D01*
X167666717Y-130229129D01*
X167674158Y-130216713D01*
X167682781Y-130205087D01*
X167692502Y-130194362D01*
X167703227Y-130184641D01*
X167714853Y-130176018D01*
X167727269Y-130168577D01*
X167740354Y-130162388D01*
X167753983Y-130157511D01*
X167768024Y-130153994D01*
X167782342Y-130151870D01*
X167796800Y-130151160D01*
X168091800Y-130151160D01*
X168106258Y-130151870D01*
X168106258Y-130151870D01*
G37*
D31*
X167944300Y-130471160D03*
G04 #@! TD*
D10*
G04 #@! TO.C,C3*
G36*
X143976258Y-136755870D02*
X143990576Y-136757994D01*
X144004617Y-136761511D01*
X144018246Y-136766388D01*
X144031331Y-136772577D01*
X144043747Y-136780018D01*
X144055373Y-136788641D01*
X144066098Y-136798362D01*
X144075819Y-136809087D01*
X144084442Y-136820713D01*
X144091883Y-136833129D01*
X144098072Y-136846214D01*
X144102949Y-136859843D01*
X144106466Y-136873884D01*
X144108590Y-136888202D01*
X144109300Y-136902660D01*
X144109300Y-137247660D01*
X144108590Y-137262118D01*
X144106466Y-137276436D01*
X144102949Y-137290477D01*
X144098072Y-137304106D01*
X144091883Y-137317191D01*
X144084442Y-137329607D01*
X144075819Y-137341233D01*
X144066098Y-137351958D01*
X144055373Y-137361679D01*
X144043747Y-137370302D01*
X144031331Y-137377743D01*
X144018246Y-137383932D01*
X144004617Y-137388809D01*
X143990576Y-137392326D01*
X143976258Y-137394450D01*
X143961800Y-137395160D01*
X143666800Y-137395160D01*
X143652342Y-137394450D01*
X143638024Y-137392326D01*
X143623983Y-137388809D01*
X143610354Y-137383932D01*
X143597269Y-137377743D01*
X143584853Y-137370302D01*
X143573227Y-137361679D01*
X143562502Y-137351958D01*
X143552781Y-137341233D01*
X143544158Y-137329607D01*
X143536717Y-137317191D01*
X143530528Y-137304106D01*
X143525651Y-137290477D01*
X143522134Y-137276436D01*
X143520010Y-137262118D01*
X143519300Y-137247660D01*
X143519300Y-136902660D01*
X143520010Y-136888202D01*
X143522134Y-136873884D01*
X143525651Y-136859843D01*
X143530528Y-136846214D01*
X143536717Y-136833129D01*
X143544158Y-136820713D01*
X143552781Y-136809087D01*
X143562502Y-136798362D01*
X143573227Y-136788641D01*
X143584853Y-136780018D01*
X143597269Y-136772577D01*
X143610354Y-136766388D01*
X143623983Y-136761511D01*
X143638024Y-136757994D01*
X143652342Y-136755870D01*
X143666800Y-136755160D01*
X143961800Y-136755160D01*
X143976258Y-136755870D01*
X143976258Y-136755870D01*
G37*
D31*
X143814300Y-137075160D03*
D10*
G36*
X144946258Y-136755870D02*
X144960576Y-136757994D01*
X144974617Y-136761511D01*
X144988246Y-136766388D01*
X145001331Y-136772577D01*
X145013747Y-136780018D01*
X145025373Y-136788641D01*
X145036098Y-136798362D01*
X145045819Y-136809087D01*
X145054442Y-136820713D01*
X145061883Y-136833129D01*
X145068072Y-136846214D01*
X145072949Y-136859843D01*
X145076466Y-136873884D01*
X145078590Y-136888202D01*
X145079300Y-136902660D01*
X145079300Y-137247660D01*
X145078590Y-137262118D01*
X145076466Y-137276436D01*
X145072949Y-137290477D01*
X145068072Y-137304106D01*
X145061883Y-137317191D01*
X145054442Y-137329607D01*
X145045819Y-137341233D01*
X145036098Y-137351958D01*
X145025373Y-137361679D01*
X145013747Y-137370302D01*
X145001331Y-137377743D01*
X144988246Y-137383932D01*
X144974617Y-137388809D01*
X144960576Y-137392326D01*
X144946258Y-137394450D01*
X144931800Y-137395160D01*
X144636800Y-137395160D01*
X144622342Y-137394450D01*
X144608024Y-137392326D01*
X144593983Y-137388809D01*
X144580354Y-137383932D01*
X144567269Y-137377743D01*
X144554853Y-137370302D01*
X144543227Y-137361679D01*
X144532502Y-137351958D01*
X144522781Y-137341233D01*
X144514158Y-137329607D01*
X144506717Y-137317191D01*
X144500528Y-137304106D01*
X144495651Y-137290477D01*
X144492134Y-137276436D01*
X144490010Y-137262118D01*
X144489300Y-137247660D01*
X144489300Y-136902660D01*
X144490010Y-136888202D01*
X144492134Y-136873884D01*
X144495651Y-136859843D01*
X144500528Y-136846214D01*
X144506717Y-136833129D01*
X144514158Y-136820713D01*
X144522781Y-136809087D01*
X144532502Y-136798362D01*
X144543227Y-136788641D01*
X144554853Y-136780018D01*
X144567269Y-136772577D01*
X144580354Y-136766388D01*
X144593983Y-136761511D01*
X144608024Y-136757994D01*
X144622342Y-136755870D01*
X144636800Y-136755160D01*
X144931800Y-136755160D01*
X144946258Y-136755870D01*
X144946258Y-136755870D01*
G37*
D31*
X144784300Y-137075160D03*
G04 #@! TD*
D10*
G04 #@! TO.C,D1*
G36*
X144484258Y-124817870D02*
X144498576Y-124819994D01*
X144512617Y-124823511D01*
X144526246Y-124828388D01*
X144539331Y-124834577D01*
X144551747Y-124842018D01*
X144563373Y-124850641D01*
X144574098Y-124860362D01*
X144583819Y-124871087D01*
X144592442Y-124882713D01*
X144599883Y-124895129D01*
X144606072Y-124908214D01*
X144610949Y-124921843D01*
X144614466Y-124935884D01*
X144616590Y-124950202D01*
X144617300Y-124964660D01*
X144617300Y-125309660D01*
X144616590Y-125324118D01*
X144614466Y-125338436D01*
X144610949Y-125352477D01*
X144606072Y-125366106D01*
X144599883Y-125379191D01*
X144592442Y-125391607D01*
X144583819Y-125403233D01*
X144574098Y-125413958D01*
X144563373Y-125423679D01*
X144551747Y-125432302D01*
X144539331Y-125439743D01*
X144526246Y-125445932D01*
X144512617Y-125450809D01*
X144498576Y-125454326D01*
X144484258Y-125456450D01*
X144469800Y-125457160D01*
X144174800Y-125457160D01*
X144160342Y-125456450D01*
X144146024Y-125454326D01*
X144131983Y-125450809D01*
X144118354Y-125445932D01*
X144105269Y-125439743D01*
X144092853Y-125432302D01*
X144081227Y-125423679D01*
X144070502Y-125413958D01*
X144060781Y-125403233D01*
X144052158Y-125391607D01*
X144044717Y-125379191D01*
X144038528Y-125366106D01*
X144033651Y-125352477D01*
X144030134Y-125338436D01*
X144028010Y-125324118D01*
X144027300Y-125309660D01*
X144027300Y-124964660D01*
X144028010Y-124950202D01*
X144030134Y-124935884D01*
X144033651Y-124921843D01*
X144038528Y-124908214D01*
X144044717Y-124895129D01*
X144052158Y-124882713D01*
X144060781Y-124871087D01*
X144070502Y-124860362D01*
X144081227Y-124850641D01*
X144092853Y-124842018D01*
X144105269Y-124834577D01*
X144118354Y-124828388D01*
X144131983Y-124823511D01*
X144146024Y-124819994D01*
X144160342Y-124817870D01*
X144174800Y-124817160D01*
X144469800Y-124817160D01*
X144484258Y-124817870D01*
X144484258Y-124817870D01*
G37*
D31*
X144322300Y-125137160D03*
D10*
G36*
X145454258Y-124817870D02*
X145468576Y-124819994D01*
X145482617Y-124823511D01*
X145496246Y-124828388D01*
X145509331Y-124834577D01*
X145521747Y-124842018D01*
X145533373Y-124850641D01*
X145544098Y-124860362D01*
X145553819Y-124871087D01*
X145562442Y-124882713D01*
X145569883Y-124895129D01*
X145576072Y-124908214D01*
X145580949Y-124921843D01*
X145584466Y-124935884D01*
X145586590Y-124950202D01*
X145587300Y-124964660D01*
X145587300Y-125309660D01*
X145586590Y-125324118D01*
X145584466Y-125338436D01*
X145580949Y-125352477D01*
X145576072Y-125366106D01*
X145569883Y-125379191D01*
X145562442Y-125391607D01*
X145553819Y-125403233D01*
X145544098Y-125413958D01*
X145533373Y-125423679D01*
X145521747Y-125432302D01*
X145509331Y-125439743D01*
X145496246Y-125445932D01*
X145482617Y-125450809D01*
X145468576Y-125454326D01*
X145454258Y-125456450D01*
X145439800Y-125457160D01*
X145144800Y-125457160D01*
X145130342Y-125456450D01*
X145116024Y-125454326D01*
X145101983Y-125450809D01*
X145088354Y-125445932D01*
X145075269Y-125439743D01*
X145062853Y-125432302D01*
X145051227Y-125423679D01*
X145040502Y-125413958D01*
X145030781Y-125403233D01*
X145022158Y-125391607D01*
X145014717Y-125379191D01*
X145008528Y-125366106D01*
X145003651Y-125352477D01*
X145000134Y-125338436D01*
X144998010Y-125324118D01*
X144997300Y-125309660D01*
X144997300Y-124964660D01*
X144998010Y-124950202D01*
X145000134Y-124935884D01*
X145003651Y-124921843D01*
X145008528Y-124908214D01*
X145014717Y-124895129D01*
X145022158Y-124882713D01*
X145030781Y-124871087D01*
X145040502Y-124860362D01*
X145051227Y-124850641D01*
X145062853Y-124842018D01*
X145075269Y-124834577D01*
X145088354Y-124828388D01*
X145101983Y-124823511D01*
X145116024Y-124819994D01*
X145130342Y-124817870D01*
X145144800Y-124817160D01*
X145439800Y-124817160D01*
X145454258Y-124817870D01*
X145454258Y-124817870D01*
G37*
D31*
X145292300Y-125137160D03*
G04 #@! TD*
D10*
G04 #@! TO.C,D2*
G36*
X145454258Y-120499870D02*
X145468576Y-120501994D01*
X145482617Y-120505511D01*
X145496246Y-120510388D01*
X145509331Y-120516577D01*
X145521747Y-120524018D01*
X145533373Y-120532641D01*
X145544098Y-120542362D01*
X145553819Y-120553087D01*
X145562442Y-120564713D01*
X145569883Y-120577129D01*
X145576072Y-120590214D01*
X145580949Y-120603843D01*
X145584466Y-120617884D01*
X145586590Y-120632202D01*
X145587300Y-120646660D01*
X145587300Y-120991660D01*
X145586590Y-121006118D01*
X145584466Y-121020436D01*
X145580949Y-121034477D01*
X145576072Y-121048106D01*
X145569883Y-121061191D01*
X145562442Y-121073607D01*
X145553819Y-121085233D01*
X145544098Y-121095958D01*
X145533373Y-121105679D01*
X145521747Y-121114302D01*
X145509331Y-121121743D01*
X145496246Y-121127932D01*
X145482617Y-121132809D01*
X145468576Y-121136326D01*
X145454258Y-121138450D01*
X145439800Y-121139160D01*
X145144800Y-121139160D01*
X145130342Y-121138450D01*
X145116024Y-121136326D01*
X145101983Y-121132809D01*
X145088354Y-121127932D01*
X145075269Y-121121743D01*
X145062853Y-121114302D01*
X145051227Y-121105679D01*
X145040502Y-121095958D01*
X145030781Y-121085233D01*
X145022158Y-121073607D01*
X145014717Y-121061191D01*
X145008528Y-121048106D01*
X145003651Y-121034477D01*
X145000134Y-121020436D01*
X144998010Y-121006118D01*
X144997300Y-120991660D01*
X144997300Y-120646660D01*
X144998010Y-120632202D01*
X145000134Y-120617884D01*
X145003651Y-120603843D01*
X145008528Y-120590214D01*
X145014717Y-120577129D01*
X145022158Y-120564713D01*
X145030781Y-120553087D01*
X145040502Y-120542362D01*
X145051227Y-120532641D01*
X145062853Y-120524018D01*
X145075269Y-120516577D01*
X145088354Y-120510388D01*
X145101983Y-120505511D01*
X145116024Y-120501994D01*
X145130342Y-120499870D01*
X145144800Y-120499160D01*
X145439800Y-120499160D01*
X145454258Y-120499870D01*
X145454258Y-120499870D01*
G37*
D31*
X145292300Y-120819160D03*
D10*
G36*
X144484258Y-120499870D02*
X144498576Y-120501994D01*
X144512617Y-120505511D01*
X144526246Y-120510388D01*
X144539331Y-120516577D01*
X144551747Y-120524018D01*
X144563373Y-120532641D01*
X144574098Y-120542362D01*
X144583819Y-120553087D01*
X144592442Y-120564713D01*
X144599883Y-120577129D01*
X144606072Y-120590214D01*
X144610949Y-120603843D01*
X144614466Y-120617884D01*
X144616590Y-120632202D01*
X144617300Y-120646660D01*
X144617300Y-120991660D01*
X144616590Y-121006118D01*
X144614466Y-121020436D01*
X144610949Y-121034477D01*
X144606072Y-121048106D01*
X144599883Y-121061191D01*
X144592442Y-121073607D01*
X144583819Y-121085233D01*
X144574098Y-121095958D01*
X144563373Y-121105679D01*
X144551747Y-121114302D01*
X144539331Y-121121743D01*
X144526246Y-121127932D01*
X144512617Y-121132809D01*
X144498576Y-121136326D01*
X144484258Y-121138450D01*
X144469800Y-121139160D01*
X144174800Y-121139160D01*
X144160342Y-121138450D01*
X144146024Y-121136326D01*
X144131983Y-121132809D01*
X144118354Y-121127932D01*
X144105269Y-121121743D01*
X144092853Y-121114302D01*
X144081227Y-121105679D01*
X144070502Y-121095958D01*
X144060781Y-121085233D01*
X144052158Y-121073607D01*
X144044717Y-121061191D01*
X144038528Y-121048106D01*
X144033651Y-121034477D01*
X144030134Y-121020436D01*
X144028010Y-121006118D01*
X144027300Y-120991660D01*
X144027300Y-120646660D01*
X144028010Y-120632202D01*
X144030134Y-120617884D01*
X144033651Y-120603843D01*
X144038528Y-120590214D01*
X144044717Y-120577129D01*
X144052158Y-120564713D01*
X144060781Y-120553087D01*
X144070502Y-120542362D01*
X144081227Y-120532641D01*
X144092853Y-120524018D01*
X144105269Y-120516577D01*
X144118354Y-120510388D01*
X144131983Y-120505511D01*
X144146024Y-120501994D01*
X144160342Y-120499870D01*
X144174800Y-120499160D01*
X144469800Y-120499160D01*
X144484258Y-120499870D01*
X144484258Y-120499870D01*
G37*
D31*
X144322300Y-120819160D03*
G04 #@! TD*
D10*
G04 #@! TO.C,R1*
G36*
X144484258Y-116435870D02*
X144498576Y-116437994D01*
X144512617Y-116441511D01*
X144526246Y-116446388D01*
X144539331Y-116452577D01*
X144551747Y-116460018D01*
X144563373Y-116468641D01*
X144574098Y-116478362D01*
X144583819Y-116489087D01*
X144592442Y-116500713D01*
X144599883Y-116513129D01*
X144606072Y-116526214D01*
X144610949Y-116539843D01*
X144614466Y-116553884D01*
X144616590Y-116568202D01*
X144617300Y-116582660D01*
X144617300Y-116927660D01*
X144616590Y-116942118D01*
X144614466Y-116956436D01*
X144610949Y-116970477D01*
X144606072Y-116984106D01*
X144599883Y-116997191D01*
X144592442Y-117009607D01*
X144583819Y-117021233D01*
X144574098Y-117031958D01*
X144563373Y-117041679D01*
X144551747Y-117050302D01*
X144539331Y-117057743D01*
X144526246Y-117063932D01*
X144512617Y-117068809D01*
X144498576Y-117072326D01*
X144484258Y-117074450D01*
X144469800Y-117075160D01*
X144174800Y-117075160D01*
X144160342Y-117074450D01*
X144146024Y-117072326D01*
X144131983Y-117068809D01*
X144118354Y-117063932D01*
X144105269Y-117057743D01*
X144092853Y-117050302D01*
X144081227Y-117041679D01*
X144070502Y-117031958D01*
X144060781Y-117021233D01*
X144052158Y-117009607D01*
X144044717Y-116997191D01*
X144038528Y-116984106D01*
X144033651Y-116970477D01*
X144030134Y-116956436D01*
X144028010Y-116942118D01*
X144027300Y-116927660D01*
X144027300Y-116582660D01*
X144028010Y-116568202D01*
X144030134Y-116553884D01*
X144033651Y-116539843D01*
X144038528Y-116526214D01*
X144044717Y-116513129D01*
X144052158Y-116500713D01*
X144060781Y-116489087D01*
X144070502Y-116478362D01*
X144081227Y-116468641D01*
X144092853Y-116460018D01*
X144105269Y-116452577D01*
X144118354Y-116446388D01*
X144131983Y-116441511D01*
X144146024Y-116437994D01*
X144160342Y-116435870D01*
X144174800Y-116435160D01*
X144469800Y-116435160D01*
X144484258Y-116435870D01*
X144484258Y-116435870D01*
G37*
D31*
X144322300Y-116755160D03*
D10*
G36*
X145454258Y-116435870D02*
X145468576Y-116437994D01*
X145482617Y-116441511D01*
X145496246Y-116446388D01*
X145509331Y-116452577D01*
X145521747Y-116460018D01*
X145533373Y-116468641D01*
X145544098Y-116478362D01*
X145553819Y-116489087D01*
X145562442Y-116500713D01*
X145569883Y-116513129D01*
X145576072Y-116526214D01*
X145580949Y-116539843D01*
X145584466Y-116553884D01*
X145586590Y-116568202D01*
X145587300Y-116582660D01*
X145587300Y-116927660D01*
X145586590Y-116942118D01*
X145584466Y-116956436D01*
X145580949Y-116970477D01*
X145576072Y-116984106D01*
X145569883Y-116997191D01*
X145562442Y-117009607D01*
X145553819Y-117021233D01*
X145544098Y-117031958D01*
X145533373Y-117041679D01*
X145521747Y-117050302D01*
X145509331Y-117057743D01*
X145496246Y-117063932D01*
X145482617Y-117068809D01*
X145468576Y-117072326D01*
X145454258Y-117074450D01*
X145439800Y-117075160D01*
X145144800Y-117075160D01*
X145130342Y-117074450D01*
X145116024Y-117072326D01*
X145101983Y-117068809D01*
X145088354Y-117063932D01*
X145075269Y-117057743D01*
X145062853Y-117050302D01*
X145051227Y-117041679D01*
X145040502Y-117031958D01*
X145030781Y-117021233D01*
X145022158Y-117009607D01*
X145014717Y-116997191D01*
X145008528Y-116984106D01*
X145003651Y-116970477D01*
X145000134Y-116956436D01*
X144998010Y-116942118D01*
X144997300Y-116927660D01*
X144997300Y-116582660D01*
X144998010Y-116568202D01*
X145000134Y-116553884D01*
X145003651Y-116539843D01*
X145008528Y-116526214D01*
X145014717Y-116513129D01*
X145022158Y-116500713D01*
X145030781Y-116489087D01*
X145040502Y-116478362D01*
X145051227Y-116468641D01*
X145062853Y-116460018D01*
X145075269Y-116452577D01*
X145088354Y-116446388D01*
X145101983Y-116441511D01*
X145116024Y-116437994D01*
X145130342Y-116435870D01*
X145144800Y-116435160D01*
X145439800Y-116435160D01*
X145454258Y-116435870D01*
X145454258Y-116435870D01*
G37*
D31*
X145292300Y-116755160D03*
G04 #@! TD*
D10*
G04 #@! TO.C,R2*
G36*
X168106258Y-135993870D02*
X168120576Y-135995994D01*
X168134617Y-135999511D01*
X168148246Y-136004388D01*
X168161331Y-136010577D01*
X168173747Y-136018018D01*
X168185373Y-136026641D01*
X168196098Y-136036362D01*
X168205819Y-136047087D01*
X168214442Y-136058713D01*
X168221883Y-136071129D01*
X168228072Y-136084214D01*
X168232949Y-136097843D01*
X168236466Y-136111884D01*
X168238590Y-136126202D01*
X168239300Y-136140660D01*
X168239300Y-136485660D01*
X168238590Y-136500118D01*
X168236466Y-136514436D01*
X168232949Y-136528477D01*
X168228072Y-136542106D01*
X168221883Y-136555191D01*
X168214442Y-136567607D01*
X168205819Y-136579233D01*
X168196098Y-136589958D01*
X168185373Y-136599679D01*
X168173747Y-136608302D01*
X168161331Y-136615743D01*
X168148246Y-136621932D01*
X168134617Y-136626809D01*
X168120576Y-136630326D01*
X168106258Y-136632450D01*
X168091800Y-136633160D01*
X167796800Y-136633160D01*
X167782342Y-136632450D01*
X167768024Y-136630326D01*
X167753983Y-136626809D01*
X167740354Y-136621932D01*
X167727269Y-136615743D01*
X167714853Y-136608302D01*
X167703227Y-136599679D01*
X167692502Y-136589958D01*
X167682781Y-136579233D01*
X167674158Y-136567607D01*
X167666717Y-136555191D01*
X167660528Y-136542106D01*
X167655651Y-136528477D01*
X167652134Y-136514436D01*
X167650010Y-136500118D01*
X167649300Y-136485660D01*
X167649300Y-136140660D01*
X167650010Y-136126202D01*
X167652134Y-136111884D01*
X167655651Y-136097843D01*
X167660528Y-136084214D01*
X167666717Y-136071129D01*
X167674158Y-136058713D01*
X167682781Y-136047087D01*
X167692502Y-136036362D01*
X167703227Y-136026641D01*
X167714853Y-136018018D01*
X167727269Y-136010577D01*
X167740354Y-136004388D01*
X167753983Y-135999511D01*
X167768024Y-135995994D01*
X167782342Y-135993870D01*
X167796800Y-135993160D01*
X168091800Y-135993160D01*
X168106258Y-135993870D01*
X168106258Y-135993870D01*
G37*
D31*
X167944300Y-136313160D03*
D10*
G36*
X169076258Y-135993870D02*
X169090576Y-135995994D01*
X169104617Y-135999511D01*
X169118246Y-136004388D01*
X169131331Y-136010577D01*
X169143747Y-136018018D01*
X169155373Y-136026641D01*
X169166098Y-136036362D01*
X169175819Y-136047087D01*
X169184442Y-136058713D01*
X169191883Y-136071129D01*
X169198072Y-136084214D01*
X169202949Y-136097843D01*
X169206466Y-136111884D01*
X169208590Y-136126202D01*
X169209300Y-136140660D01*
X169209300Y-136485660D01*
X169208590Y-136500118D01*
X169206466Y-136514436D01*
X169202949Y-136528477D01*
X169198072Y-136542106D01*
X169191883Y-136555191D01*
X169184442Y-136567607D01*
X169175819Y-136579233D01*
X169166098Y-136589958D01*
X169155373Y-136599679D01*
X169143747Y-136608302D01*
X169131331Y-136615743D01*
X169118246Y-136621932D01*
X169104617Y-136626809D01*
X169090576Y-136630326D01*
X169076258Y-136632450D01*
X169061800Y-136633160D01*
X168766800Y-136633160D01*
X168752342Y-136632450D01*
X168738024Y-136630326D01*
X168723983Y-136626809D01*
X168710354Y-136621932D01*
X168697269Y-136615743D01*
X168684853Y-136608302D01*
X168673227Y-136599679D01*
X168662502Y-136589958D01*
X168652781Y-136579233D01*
X168644158Y-136567607D01*
X168636717Y-136555191D01*
X168630528Y-136542106D01*
X168625651Y-136528477D01*
X168622134Y-136514436D01*
X168620010Y-136500118D01*
X168619300Y-136485660D01*
X168619300Y-136140660D01*
X168620010Y-136126202D01*
X168622134Y-136111884D01*
X168625651Y-136097843D01*
X168630528Y-136084214D01*
X168636717Y-136071129D01*
X168644158Y-136058713D01*
X168652781Y-136047087D01*
X168662502Y-136036362D01*
X168673227Y-136026641D01*
X168684853Y-136018018D01*
X168697269Y-136010577D01*
X168710354Y-136004388D01*
X168723983Y-135999511D01*
X168738024Y-135995994D01*
X168752342Y-135993870D01*
X168766800Y-135993160D01*
X169061800Y-135993160D01*
X169076258Y-135993870D01*
X169076258Y-135993870D01*
G37*
D31*
X168914300Y-136313160D03*
G04 #@! TD*
D10*
G04 #@! TO.C,R3*
G36*
X145454258Y-129135870D02*
X145468576Y-129137994D01*
X145482617Y-129141511D01*
X145496246Y-129146388D01*
X145509331Y-129152577D01*
X145521747Y-129160018D01*
X145533373Y-129168641D01*
X145544098Y-129178362D01*
X145553819Y-129189087D01*
X145562442Y-129200713D01*
X145569883Y-129213129D01*
X145576072Y-129226214D01*
X145580949Y-129239843D01*
X145584466Y-129253884D01*
X145586590Y-129268202D01*
X145587300Y-129282660D01*
X145587300Y-129627660D01*
X145586590Y-129642118D01*
X145584466Y-129656436D01*
X145580949Y-129670477D01*
X145576072Y-129684106D01*
X145569883Y-129697191D01*
X145562442Y-129709607D01*
X145553819Y-129721233D01*
X145544098Y-129731958D01*
X145533373Y-129741679D01*
X145521747Y-129750302D01*
X145509331Y-129757743D01*
X145496246Y-129763932D01*
X145482617Y-129768809D01*
X145468576Y-129772326D01*
X145454258Y-129774450D01*
X145439800Y-129775160D01*
X145144800Y-129775160D01*
X145130342Y-129774450D01*
X145116024Y-129772326D01*
X145101983Y-129768809D01*
X145088354Y-129763932D01*
X145075269Y-129757743D01*
X145062853Y-129750302D01*
X145051227Y-129741679D01*
X145040502Y-129731958D01*
X145030781Y-129721233D01*
X145022158Y-129709607D01*
X145014717Y-129697191D01*
X145008528Y-129684106D01*
X145003651Y-129670477D01*
X145000134Y-129656436D01*
X144998010Y-129642118D01*
X144997300Y-129627660D01*
X144997300Y-129282660D01*
X144998010Y-129268202D01*
X145000134Y-129253884D01*
X145003651Y-129239843D01*
X145008528Y-129226214D01*
X145014717Y-129213129D01*
X145022158Y-129200713D01*
X145030781Y-129189087D01*
X145040502Y-129178362D01*
X145051227Y-129168641D01*
X145062853Y-129160018D01*
X145075269Y-129152577D01*
X145088354Y-129146388D01*
X145101983Y-129141511D01*
X145116024Y-129137994D01*
X145130342Y-129135870D01*
X145144800Y-129135160D01*
X145439800Y-129135160D01*
X145454258Y-129135870D01*
X145454258Y-129135870D01*
G37*
D31*
X145292300Y-129455160D03*
D10*
G36*
X144484258Y-129135870D02*
X144498576Y-129137994D01*
X144512617Y-129141511D01*
X144526246Y-129146388D01*
X144539331Y-129152577D01*
X144551747Y-129160018D01*
X144563373Y-129168641D01*
X144574098Y-129178362D01*
X144583819Y-129189087D01*
X144592442Y-129200713D01*
X144599883Y-129213129D01*
X144606072Y-129226214D01*
X144610949Y-129239843D01*
X144614466Y-129253884D01*
X144616590Y-129268202D01*
X144617300Y-129282660D01*
X144617300Y-129627660D01*
X144616590Y-129642118D01*
X144614466Y-129656436D01*
X144610949Y-129670477D01*
X144606072Y-129684106D01*
X144599883Y-129697191D01*
X144592442Y-129709607D01*
X144583819Y-129721233D01*
X144574098Y-129731958D01*
X144563373Y-129741679D01*
X144551747Y-129750302D01*
X144539331Y-129757743D01*
X144526246Y-129763932D01*
X144512617Y-129768809D01*
X144498576Y-129772326D01*
X144484258Y-129774450D01*
X144469800Y-129775160D01*
X144174800Y-129775160D01*
X144160342Y-129774450D01*
X144146024Y-129772326D01*
X144131983Y-129768809D01*
X144118354Y-129763932D01*
X144105269Y-129757743D01*
X144092853Y-129750302D01*
X144081227Y-129741679D01*
X144070502Y-129731958D01*
X144060781Y-129721233D01*
X144052158Y-129709607D01*
X144044717Y-129697191D01*
X144038528Y-129684106D01*
X144033651Y-129670477D01*
X144030134Y-129656436D01*
X144028010Y-129642118D01*
X144027300Y-129627660D01*
X144027300Y-129282660D01*
X144028010Y-129268202D01*
X144030134Y-129253884D01*
X144033651Y-129239843D01*
X144038528Y-129226214D01*
X144044717Y-129213129D01*
X144052158Y-129200713D01*
X144060781Y-129189087D01*
X144070502Y-129178362D01*
X144081227Y-129168641D01*
X144092853Y-129160018D01*
X144105269Y-129152577D01*
X144118354Y-129146388D01*
X144131983Y-129141511D01*
X144146024Y-129137994D01*
X144160342Y-129135870D01*
X144174800Y-129135160D01*
X144469800Y-129135160D01*
X144484258Y-129135870D01*
X144484258Y-129135870D01*
G37*
D31*
X144322300Y-129455160D03*
G04 #@! TD*
D10*
G04 #@! TO.C,R4*
G36*
X169076258Y-133199870D02*
X169090576Y-133201994D01*
X169104617Y-133205511D01*
X169118246Y-133210388D01*
X169131331Y-133216577D01*
X169143747Y-133224018D01*
X169155373Y-133232641D01*
X169166098Y-133242362D01*
X169175819Y-133253087D01*
X169184442Y-133264713D01*
X169191883Y-133277129D01*
X169198072Y-133290214D01*
X169202949Y-133303843D01*
X169206466Y-133317884D01*
X169208590Y-133332202D01*
X169209300Y-133346660D01*
X169209300Y-133691660D01*
X169208590Y-133706118D01*
X169206466Y-133720436D01*
X169202949Y-133734477D01*
X169198072Y-133748106D01*
X169191883Y-133761191D01*
X169184442Y-133773607D01*
X169175819Y-133785233D01*
X169166098Y-133795958D01*
X169155373Y-133805679D01*
X169143747Y-133814302D01*
X169131331Y-133821743D01*
X169118246Y-133827932D01*
X169104617Y-133832809D01*
X169090576Y-133836326D01*
X169076258Y-133838450D01*
X169061800Y-133839160D01*
X168766800Y-133839160D01*
X168752342Y-133838450D01*
X168738024Y-133836326D01*
X168723983Y-133832809D01*
X168710354Y-133827932D01*
X168697269Y-133821743D01*
X168684853Y-133814302D01*
X168673227Y-133805679D01*
X168662502Y-133795958D01*
X168652781Y-133785233D01*
X168644158Y-133773607D01*
X168636717Y-133761191D01*
X168630528Y-133748106D01*
X168625651Y-133734477D01*
X168622134Y-133720436D01*
X168620010Y-133706118D01*
X168619300Y-133691660D01*
X168619300Y-133346660D01*
X168620010Y-133332202D01*
X168622134Y-133317884D01*
X168625651Y-133303843D01*
X168630528Y-133290214D01*
X168636717Y-133277129D01*
X168644158Y-133264713D01*
X168652781Y-133253087D01*
X168662502Y-133242362D01*
X168673227Y-133232641D01*
X168684853Y-133224018D01*
X168697269Y-133216577D01*
X168710354Y-133210388D01*
X168723983Y-133205511D01*
X168738024Y-133201994D01*
X168752342Y-133199870D01*
X168766800Y-133199160D01*
X169061800Y-133199160D01*
X169076258Y-133199870D01*
X169076258Y-133199870D01*
G37*
D31*
X168914300Y-133519160D03*
D10*
G36*
X168106258Y-133199870D02*
X168120576Y-133201994D01*
X168134617Y-133205511D01*
X168148246Y-133210388D01*
X168161331Y-133216577D01*
X168173747Y-133224018D01*
X168185373Y-133232641D01*
X168196098Y-133242362D01*
X168205819Y-133253087D01*
X168214442Y-133264713D01*
X168221883Y-133277129D01*
X168228072Y-133290214D01*
X168232949Y-133303843D01*
X168236466Y-133317884D01*
X168238590Y-133332202D01*
X168239300Y-133346660D01*
X168239300Y-133691660D01*
X168238590Y-133706118D01*
X168236466Y-133720436D01*
X168232949Y-133734477D01*
X168228072Y-133748106D01*
X168221883Y-133761191D01*
X168214442Y-133773607D01*
X168205819Y-133785233D01*
X168196098Y-133795958D01*
X168185373Y-133805679D01*
X168173747Y-133814302D01*
X168161331Y-133821743D01*
X168148246Y-133827932D01*
X168134617Y-133832809D01*
X168120576Y-133836326D01*
X168106258Y-133838450D01*
X168091800Y-133839160D01*
X167796800Y-133839160D01*
X167782342Y-133838450D01*
X167768024Y-133836326D01*
X167753983Y-133832809D01*
X167740354Y-133827932D01*
X167727269Y-133821743D01*
X167714853Y-133814302D01*
X167703227Y-133805679D01*
X167692502Y-133795958D01*
X167682781Y-133785233D01*
X167674158Y-133773607D01*
X167666717Y-133761191D01*
X167660528Y-133748106D01*
X167655651Y-133734477D01*
X167652134Y-133720436D01*
X167650010Y-133706118D01*
X167649300Y-133691660D01*
X167649300Y-133346660D01*
X167650010Y-133332202D01*
X167652134Y-133317884D01*
X167655651Y-133303843D01*
X167660528Y-133290214D01*
X167666717Y-133277129D01*
X167674158Y-133264713D01*
X167682781Y-133253087D01*
X167692502Y-133242362D01*
X167703227Y-133232641D01*
X167714853Y-133224018D01*
X167727269Y-133216577D01*
X167740354Y-133210388D01*
X167753983Y-133205511D01*
X167768024Y-133201994D01*
X167782342Y-133199870D01*
X167796800Y-133199160D01*
X168091800Y-133199160D01*
X168106258Y-133199870D01*
X168106258Y-133199870D01*
G37*
D31*
X167944300Y-133519160D03*
G04 #@! TD*
D32*
G04 #@! TO.C,U1*
X161083300Y-131644160D03*
X161583300Y-131644160D03*
X162083300Y-131644160D03*
X162583300Y-131644160D03*
X163083300Y-131644160D03*
X163583300Y-131644160D03*
D33*
X164208300Y-132269160D03*
X164208300Y-132769160D03*
X164208300Y-133269160D03*
X164208300Y-133769160D03*
X164208300Y-134269160D03*
X164208300Y-134769160D03*
D32*
X163583300Y-135394160D03*
X163083300Y-135394160D03*
X162583300Y-135394160D03*
X162083300Y-135394160D03*
X161583300Y-135394160D03*
X161083300Y-135394160D03*
D33*
X160458300Y-134769160D03*
X160458300Y-134269160D03*
X160458300Y-133769160D03*
X160458300Y-133269160D03*
X160458300Y-132769160D03*
X160458300Y-132269160D03*
G04 #@! TD*
D10*
G04 #@! TO.C,C1*
G36*
X168110779Y-44551144D02*
X168133834Y-44554563D01*
X168156443Y-44560227D01*
X168178387Y-44568079D01*
X168199457Y-44578044D01*
X168219448Y-44590026D01*
X168238168Y-44603910D01*
X168255438Y-44619562D01*
X168271090Y-44636832D01*
X168284974Y-44655552D01*
X168296956Y-44675543D01*
X168306921Y-44696613D01*
X168314773Y-44718557D01*
X168320437Y-44741166D01*
X168323856Y-44764221D01*
X168325000Y-44787500D01*
X168325000Y-45362500D01*
X168323856Y-45385779D01*
X168320437Y-45408834D01*
X168314773Y-45431443D01*
X168306921Y-45453387D01*
X168296956Y-45474457D01*
X168284974Y-45494448D01*
X168271090Y-45513168D01*
X168255438Y-45530438D01*
X168238168Y-45546090D01*
X168219448Y-45559974D01*
X168199457Y-45571956D01*
X168178387Y-45581921D01*
X168156443Y-45589773D01*
X168133834Y-45595437D01*
X168110779Y-45598856D01*
X168087500Y-45600000D01*
X167612500Y-45600000D01*
X167589221Y-45598856D01*
X167566166Y-45595437D01*
X167543557Y-45589773D01*
X167521613Y-45581921D01*
X167500543Y-45571956D01*
X167480552Y-45559974D01*
X167461832Y-45546090D01*
X167444562Y-45530438D01*
X167428910Y-45513168D01*
X167415026Y-45494448D01*
X167403044Y-45474457D01*
X167393079Y-45453387D01*
X167385227Y-45431443D01*
X167379563Y-45408834D01*
X167376144Y-45385779D01*
X167375000Y-45362500D01*
X167375000Y-44787500D01*
X167376144Y-44764221D01*
X167379563Y-44741166D01*
X167385227Y-44718557D01*
X167393079Y-44696613D01*
X167403044Y-44675543D01*
X167415026Y-44655552D01*
X167428910Y-44636832D01*
X167444562Y-44619562D01*
X167461832Y-44603910D01*
X167480552Y-44590026D01*
X167500543Y-44578044D01*
X167521613Y-44568079D01*
X167543557Y-44560227D01*
X167566166Y-44554563D01*
X167589221Y-44551144D01*
X167612500Y-44550000D01*
X168087500Y-44550000D01*
X168110779Y-44551144D01*
X168110779Y-44551144D01*
G37*
D34*
X167850000Y-45075000D03*
D10*
G36*
X168110779Y-42801144D02*
X168133834Y-42804563D01*
X168156443Y-42810227D01*
X168178387Y-42818079D01*
X168199457Y-42828044D01*
X168219448Y-42840026D01*
X168238168Y-42853910D01*
X168255438Y-42869562D01*
X168271090Y-42886832D01*
X168284974Y-42905552D01*
X168296956Y-42925543D01*
X168306921Y-42946613D01*
X168314773Y-42968557D01*
X168320437Y-42991166D01*
X168323856Y-43014221D01*
X168325000Y-43037500D01*
X168325000Y-43612500D01*
X168323856Y-43635779D01*
X168320437Y-43658834D01*
X168314773Y-43681443D01*
X168306921Y-43703387D01*
X168296956Y-43724457D01*
X168284974Y-43744448D01*
X168271090Y-43763168D01*
X168255438Y-43780438D01*
X168238168Y-43796090D01*
X168219448Y-43809974D01*
X168199457Y-43821956D01*
X168178387Y-43831921D01*
X168156443Y-43839773D01*
X168133834Y-43845437D01*
X168110779Y-43848856D01*
X168087500Y-43850000D01*
X167612500Y-43850000D01*
X167589221Y-43848856D01*
X167566166Y-43845437D01*
X167543557Y-43839773D01*
X167521613Y-43831921D01*
X167500543Y-43821956D01*
X167480552Y-43809974D01*
X167461832Y-43796090D01*
X167444562Y-43780438D01*
X167428910Y-43763168D01*
X167415026Y-43744448D01*
X167403044Y-43724457D01*
X167393079Y-43703387D01*
X167385227Y-43681443D01*
X167379563Y-43658834D01*
X167376144Y-43635779D01*
X167375000Y-43612500D01*
X167375000Y-43037500D01*
X167376144Y-43014221D01*
X167379563Y-42991166D01*
X167385227Y-42968557D01*
X167393079Y-42946613D01*
X167403044Y-42925543D01*
X167415026Y-42905552D01*
X167428910Y-42886832D01*
X167444562Y-42869562D01*
X167461832Y-42853910D01*
X167480552Y-42840026D01*
X167500543Y-42828044D01*
X167521613Y-42818079D01*
X167543557Y-42810227D01*
X167566166Y-42804563D01*
X167589221Y-42801144D01*
X167612500Y-42800000D01*
X168087500Y-42800000D01*
X168110779Y-42801144D01*
X168110779Y-42801144D01*
G37*
D34*
X167850000Y-43325000D03*
G04 #@! TD*
D10*
G04 #@! TO.C,C2*
G36*
X165935779Y-43026144D02*
X165958834Y-43029563D01*
X165981443Y-43035227D01*
X166003387Y-43043079D01*
X166024457Y-43053044D01*
X166044448Y-43065026D01*
X166063168Y-43078910D01*
X166080438Y-43094562D01*
X166096090Y-43111832D01*
X166109974Y-43130552D01*
X166121956Y-43150543D01*
X166131921Y-43171613D01*
X166139773Y-43193557D01*
X166145437Y-43216166D01*
X166148856Y-43239221D01*
X166150000Y-43262500D01*
X166150000Y-43837500D01*
X166148856Y-43860779D01*
X166145437Y-43883834D01*
X166139773Y-43906443D01*
X166131921Y-43928387D01*
X166121956Y-43949457D01*
X166109974Y-43969448D01*
X166096090Y-43988168D01*
X166080438Y-44005438D01*
X166063168Y-44021090D01*
X166044448Y-44034974D01*
X166024457Y-44046956D01*
X166003387Y-44056921D01*
X165981443Y-44064773D01*
X165958834Y-44070437D01*
X165935779Y-44073856D01*
X165912500Y-44075000D01*
X165437500Y-44075000D01*
X165414221Y-44073856D01*
X165391166Y-44070437D01*
X165368557Y-44064773D01*
X165346613Y-44056921D01*
X165325543Y-44046956D01*
X165305552Y-44034974D01*
X165286832Y-44021090D01*
X165269562Y-44005438D01*
X165253910Y-43988168D01*
X165240026Y-43969448D01*
X165228044Y-43949457D01*
X165218079Y-43928387D01*
X165210227Y-43906443D01*
X165204563Y-43883834D01*
X165201144Y-43860779D01*
X165200000Y-43837500D01*
X165200000Y-43262500D01*
X165201144Y-43239221D01*
X165204563Y-43216166D01*
X165210227Y-43193557D01*
X165218079Y-43171613D01*
X165228044Y-43150543D01*
X165240026Y-43130552D01*
X165253910Y-43111832D01*
X165269562Y-43094562D01*
X165286832Y-43078910D01*
X165305552Y-43065026D01*
X165325543Y-43053044D01*
X165346613Y-43043079D01*
X165368557Y-43035227D01*
X165391166Y-43029563D01*
X165414221Y-43026144D01*
X165437500Y-43025000D01*
X165912500Y-43025000D01*
X165935779Y-43026144D01*
X165935779Y-43026144D01*
G37*
D34*
X165675000Y-43550000D03*
D10*
G36*
X165935779Y-41276144D02*
X165958834Y-41279563D01*
X165981443Y-41285227D01*
X166003387Y-41293079D01*
X166024457Y-41303044D01*
X166044448Y-41315026D01*
X166063168Y-41328910D01*
X166080438Y-41344562D01*
X166096090Y-41361832D01*
X166109974Y-41380552D01*
X166121956Y-41400543D01*
X166131921Y-41421613D01*
X166139773Y-41443557D01*
X166145437Y-41466166D01*
X166148856Y-41489221D01*
X166150000Y-41512500D01*
X166150000Y-42087500D01*
X166148856Y-42110779D01*
X166145437Y-42133834D01*
X166139773Y-42156443D01*
X166131921Y-42178387D01*
X166121956Y-42199457D01*
X166109974Y-42219448D01*
X166096090Y-42238168D01*
X166080438Y-42255438D01*
X166063168Y-42271090D01*
X166044448Y-42284974D01*
X166024457Y-42296956D01*
X166003387Y-42306921D01*
X165981443Y-42314773D01*
X165958834Y-42320437D01*
X165935779Y-42323856D01*
X165912500Y-42325000D01*
X165437500Y-42325000D01*
X165414221Y-42323856D01*
X165391166Y-42320437D01*
X165368557Y-42314773D01*
X165346613Y-42306921D01*
X165325543Y-42296956D01*
X165305552Y-42284974D01*
X165286832Y-42271090D01*
X165269562Y-42255438D01*
X165253910Y-42238168D01*
X165240026Y-42219448D01*
X165228044Y-42199457D01*
X165218079Y-42178387D01*
X165210227Y-42156443D01*
X165204563Y-42133834D01*
X165201144Y-42110779D01*
X165200000Y-42087500D01*
X165200000Y-41512500D01*
X165201144Y-41489221D01*
X165204563Y-41466166D01*
X165210227Y-41443557D01*
X165218079Y-41421613D01*
X165228044Y-41400543D01*
X165240026Y-41380552D01*
X165253910Y-41361832D01*
X165269562Y-41344562D01*
X165286832Y-41328910D01*
X165305552Y-41315026D01*
X165325543Y-41303044D01*
X165346613Y-41293079D01*
X165368557Y-41285227D01*
X165391166Y-41279563D01*
X165414221Y-41276144D01*
X165437500Y-41275000D01*
X165912500Y-41275000D01*
X165935779Y-41276144D01*
X165935779Y-41276144D01*
G37*
D34*
X165675000Y-41800000D03*
G04 #@! TD*
D10*
G04 #@! TO.C,C3*
G36*
X173360779Y-37801144D02*
X173383834Y-37804563D01*
X173406443Y-37810227D01*
X173428387Y-37818079D01*
X173449457Y-37828044D01*
X173469448Y-37840026D01*
X173488168Y-37853910D01*
X173505438Y-37869562D01*
X173521090Y-37886832D01*
X173534974Y-37905552D01*
X173546956Y-37925543D01*
X173556921Y-37946613D01*
X173564773Y-37968557D01*
X173570437Y-37991166D01*
X173573856Y-38014221D01*
X173575000Y-38037500D01*
X173575000Y-38512500D01*
X173573856Y-38535779D01*
X173570437Y-38558834D01*
X173564773Y-38581443D01*
X173556921Y-38603387D01*
X173546956Y-38624457D01*
X173534974Y-38644448D01*
X173521090Y-38663168D01*
X173505438Y-38680438D01*
X173488168Y-38696090D01*
X173469448Y-38709974D01*
X173449457Y-38721956D01*
X173428387Y-38731921D01*
X173406443Y-38739773D01*
X173383834Y-38745437D01*
X173360779Y-38748856D01*
X173337500Y-38750000D01*
X172762500Y-38750000D01*
X172739221Y-38748856D01*
X172716166Y-38745437D01*
X172693557Y-38739773D01*
X172671613Y-38731921D01*
X172650543Y-38721956D01*
X172630552Y-38709974D01*
X172611832Y-38696090D01*
X172594562Y-38680438D01*
X172578910Y-38663168D01*
X172565026Y-38644448D01*
X172553044Y-38624457D01*
X172543079Y-38603387D01*
X172535227Y-38581443D01*
X172529563Y-38558834D01*
X172526144Y-38535779D01*
X172525000Y-38512500D01*
X172525000Y-38037500D01*
X172526144Y-38014221D01*
X172529563Y-37991166D01*
X172535227Y-37968557D01*
X172543079Y-37946613D01*
X172553044Y-37925543D01*
X172565026Y-37905552D01*
X172578910Y-37886832D01*
X172594562Y-37869562D01*
X172611832Y-37853910D01*
X172630552Y-37840026D01*
X172650543Y-37828044D01*
X172671613Y-37818079D01*
X172693557Y-37810227D01*
X172716166Y-37804563D01*
X172739221Y-37801144D01*
X172762500Y-37800000D01*
X173337500Y-37800000D01*
X173360779Y-37801144D01*
X173360779Y-37801144D01*
G37*
D34*
X173050000Y-38275000D03*
D10*
G36*
X171610779Y-37801144D02*
X171633834Y-37804563D01*
X171656443Y-37810227D01*
X171678387Y-37818079D01*
X171699457Y-37828044D01*
X171719448Y-37840026D01*
X171738168Y-37853910D01*
X171755438Y-37869562D01*
X171771090Y-37886832D01*
X171784974Y-37905552D01*
X171796956Y-37925543D01*
X171806921Y-37946613D01*
X171814773Y-37968557D01*
X171820437Y-37991166D01*
X171823856Y-38014221D01*
X171825000Y-38037500D01*
X171825000Y-38512500D01*
X171823856Y-38535779D01*
X171820437Y-38558834D01*
X171814773Y-38581443D01*
X171806921Y-38603387D01*
X171796956Y-38624457D01*
X171784974Y-38644448D01*
X171771090Y-38663168D01*
X171755438Y-38680438D01*
X171738168Y-38696090D01*
X171719448Y-38709974D01*
X171699457Y-38721956D01*
X171678387Y-38731921D01*
X171656443Y-38739773D01*
X171633834Y-38745437D01*
X171610779Y-38748856D01*
X171587500Y-38750000D01*
X171012500Y-38750000D01*
X170989221Y-38748856D01*
X170966166Y-38745437D01*
X170943557Y-38739773D01*
X170921613Y-38731921D01*
X170900543Y-38721956D01*
X170880552Y-38709974D01*
X170861832Y-38696090D01*
X170844562Y-38680438D01*
X170828910Y-38663168D01*
X170815026Y-38644448D01*
X170803044Y-38624457D01*
X170793079Y-38603387D01*
X170785227Y-38581443D01*
X170779563Y-38558834D01*
X170776144Y-38535779D01*
X170775000Y-38512500D01*
X170775000Y-38037500D01*
X170776144Y-38014221D01*
X170779563Y-37991166D01*
X170785227Y-37968557D01*
X170793079Y-37946613D01*
X170803044Y-37925543D01*
X170815026Y-37905552D01*
X170828910Y-37886832D01*
X170844562Y-37869562D01*
X170861832Y-37853910D01*
X170880552Y-37840026D01*
X170900543Y-37828044D01*
X170921613Y-37818079D01*
X170943557Y-37810227D01*
X170966166Y-37804563D01*
X170989221Y-37801144D01*
X171012500Y-37800000D01*
X171587500Y-37800000D01*
X171610779Y-37801144D01*
X171610779Y-37801144D01*
G37*
D34*
X171300000Y-38275000D03*
G04 #@! TD*
D10*
G04 #@! TO.C,C4*
G36*
X171610779Y-39526144D02*
X171633834Y-39529563D01*
X171656443Y-39535227D01*
X171678387Y-39543079D01*
X171699457Y-39553044D01*
X171719448Y-39565026D01*
X171738168Y-39578910D01*
X171755438Y-39594562D01*
X171771090Y-39611832D01*
X171784974Y-39630552D01*
X171796956Y-39650543D01*
X171806921Y-39671613D01*
X171814773Y-39693557D01*
X171820437Y-39716166D01*
X171823856Y-39739221D01*
X171825000Y-39762500D01*
X171825000Y-40237500D01*
X171823856Y-40260779D01*
X171820437Y-40283834D01*
X171814773Y-40306443D01*
X171806921Y-40328387D01*
X171796956Y-40349457D01*
X171784974Y-40369448D01*
X171771090Y-40388168D01*
X171755438Y-40405438D01*
X171738168Y-40421090D01*
X171719448Y-40434974D01*
X171699457Y-40446956D01*
X171678387Y-40456921D01*
X171656443Y-40464773D01*
X171633834Y-40470437D01*
X171610779Y-40473856D01*
X171587500Y-40475000D01*
X171012500Y-40475000D01*
X170989221Y-40473856D01*
X170966166Y-40470437D01*
X170943557Y-40464773D01*
X170921613Y-40456921D01*
X170900543Y-40446956D01*
X170880552Y-40434974D01*
X170861832Y-40421090D01*
X170844562Y-40405438D01*
X170828910Y-40388168D01*
X170815026Y-40369448D01*
X170803044Y-40349457D01*
X170793079Y-40328387D01*
X170785227Y-40306443D01*
X170779563Y-40283834D01*
X170776144Y-40260779D01*
X170775000Y-40237500D01*
X170775000Y-39762500D01*
X170776144Y-39739221D01*
X170779563Y-39716166D01*
X170785227Y-39693557D01*
X170793079Y-39671613D01*
X170803044Y-39650543D01*
X170815026Y-39630552D01*
X170828910Y-39611832D01*
X170844562Y-39594562D01*
X170861832Y-39578910D01*
X170880552Y-39565026D01*
X170900543Y-39553044D01*
X170921613Y-39543079D01*
X170943557Y-39535227D01*
X170966166Y-39529563D01*
X170989221Y-39526144D01*
X171012500Y-39525000D01*
X171587500Y-39525000D01*
X171610779Y-39526144D01*
X171610779Y-39526144D01*
G37*
D34*
X171300000Y-40000000D03*
D10*
G36*
X173360779Y-39526144D02*
X173383834Y-39529563D01*
X173406443Y-39535227D01*
X173428387Y-39543079D01*
X173449457Y-39553044D01*
X173469448Y-39565026D01*
X173488168Y-39578910D01*
X173505438Y-39594562D01*
X173521090Y-39611832D01*
X173534974Y-39630552D01*
X173546956Y-39650543D01*
X173556921Y-39671613D01*
X173564773Y-39693557D01*
X173570437Y-39716166D01*
X173573856Y-39739221D01*
X173575000Y-39762500D01*
X173575000Y-40237500D01*
X173573856Y-40260779D01*
X173570437Y-40283834D01*
X173564773Y-40306443D01*
X173556921Y-40328387D01*
X173546956Y-40349457D01*
X173534974Y-40369448D01*
X173521090Y-40388168D01*
X173505438Y-40405438D01*
X173488168Y-40421090D01*
X173469448Y-40434974D01*
X173449457Y-40446956D01*
X173428387Y-40456921D01*
X173406443Y-40464773D01*
X173383834Y-40470437D01*
X173360779Y-40473856D01*
X173337500Y-40475000D01*
X172762500Y-40475000D01*
X172739221Y-40473856D01*
X172716166Y-40470437D01*
X172693557Y-40464773D01*
X172671613Y-40456921D01*
X172650543Y-40446956D01*
X172630552Y-40434974D01*
X172611832Y-40421090D01*
X172594562Y-40405438D01*
X172578910Y-40388168D01*
X172565026Y-40369448D01*
X172553044Y-40349457D01*
X172543079Y-40328387D01*
X172535227Y-40306443D01*
X172529563Y-40283834D01*
X172526144Y-40260779D01*
X172525000Y-40237500D01*
X172525000Y-39762500D01*
X172526144Y-39739221D01*
X172529563Y-39716166D01*
X172535227Y-39693557D01*
X172543079Y-39671613D01*
X172553044Y-39650543D01*
X172565026Y-39630552D01*
X172578910Y-39611832D01*
X172594562Y-39594562D01*
X172611832Y-39578910D01*
X172630552Y-39565026D01*
X172650543Y-39553044D01*
X172671613Y-39543079D01*
X172693557Y-39535227D01*
X172716166Y-39529563D01*
X172739221Y-39526144D01*
X172762500Y-39525000D01*
X173337500Y-39525000D01*
X173360779Y-39526144D01*
X173360779Y-39526144D01*
G37*
D34*
X173050000Y-40000000D03*
G04 #@! TD*
D35*
G04 #@! TO.C,U1*
X165393000Y-36792000D03*
X165393000Y-37292000D03*
X165393000Y-37792000D03*
X165393000Y-38292000D03*
X165393000Y-38792000D03*
X165393000Y-39292000D03*
D36*
X166113000Y-40012000D03*
X166613000Y-40012000D03*
X167113000Y-40012000D03*
X167613000Y-40012000D03*
X168113000Y-40012000D03*
X168613000Y-40012000D03*
D35*
X169333000Y-39292000D03*
X169333000Y-38792000D03*
X169333000Y-38292000D03*
X169333000Y-37792000D03*
X169333000Y-37292000D03*
X169333000Y-36792000D03*
D36*
X168613000Y-36072000D03*
X168113000Y-36072000D03*
X167613000Y-36072000D03*
X167113000Y-36072000D03*
X166613000Y-36072000D03*
X166113000Y-36072000D03*
D37*
X167363000Y-38042000D03*
G04 #@! TD*
D38*
G04 #@! TO.C,J$1*
X60968410Y-40589461D03*
X60968410Y-45669461D03*
G04 #@! TD*
D17*
G04 #@! TO.C,LED1*
X73256015Y-119173309D03*
X75356015Y-119173309D03*
G04 #@! TD*
D39*
G04 #@! TO.C,R1*
X77420015Y-119221309D03*
X79320015Y-119221309D03*
G04 #@! TD*
G04 #@! TO.C,C1*
X70411015Y-99385309D03*
X72311015Y-99385309D03*
G04 #@! TD*
D40*
G04 #@! TO.C,D1*
X84212015Y-99512309D03*
X86752015Y-99512309D03*
G04 #@! TD*
D39*
G04 #@! TO.C,R3*
X84913015Y-97631309D03*
X86813015Y-97631309D03*
G04 #@! TD*
D41*
G04 #@! TO.C,U$20*
X65796015Y-102433309D03*
X68846015Y-102433309D03*
D42*
X67321015Y-103808309D03*
X67321015Y-101058309D03*
G04 #@! TD*
D40*
G04 #@! TO.C,D2*
X82053015Y-118943309D03*
X84593015Y-118943309D03*
G04 #@! TD*
D10*
G04 #@! TO.C,L1*
G36*
X67598279Y-133501144D02*
X67621334Y-133504563D01*
X67643943Y-133510227D01*
X67665887Y-133518079D01*
X67686957Y-133528044D01*
X67706948Y-133540026D01*
X67725668Y-133553910D01*
X67742938Y-133569562D01*
X67758590Y-133586832D01*
X67772474Y-133605552D01*
X67784456Y-133625543D01*
X67794421Y-133646613D01*
X67802273Y-133668557D01*
X67807937Y-133691166D01*
X67811356Y-133714221D01*
X67812500Y-133737500D01*
X67812500Y-134212500D01*
X67811356Y-134235779D01*
X67807937Y-134258834D01*
X67802273Y-134281443D01*
X67794421Y-134303387D01*
X67784456Y-134324457D01*
X67772474Y-134344448D01*
X67758590Y-134363168D01*
X67742938Y-134380438D01*
X67725668Y-134396090D01*
X67706948Y-134409974D01*
X67686957Y-134421956D01*
X67665887Y-134431921D01*
X67643943Y-134439773D01*
X67621334Y-134445437D01*
X67598279Y-134448856D01*
X67575000Y-134450000D01*
X67000000Y-134450000D01*
X66976721Y-134448856D01*
X66953666Y-134445437D01*
X66931057Y-134439773D01*
X66909113Y-134431921D01*
X66888043Y-134421956D01*
X66868052Y-134409974D01*
X66849332Y-134396090D01*
X66832062Y-134380438D01*
X66816410Y-134363168D01*
X66802526Y-134344448D01*
X66790544Y-134324457D01*
X66780579Y-134303387D01*
X66772727Y-134281443D01*
X66767063Y-134258834D01*
X66763644Y-134235779D01*
X66762500Y-134212500D01*
X66762500Y-133737500D01*
X66763644Y-133714221D01*
X66767063Y-133691166D01*
X66772727Y-133668557D01*
X66780579Y-133646613D01*
X66790544Y-133625543D01*
X66802526Y-133605552D01*
X66816410Y-133586832D01*
X66832062Y-133569562D01*
X66849332Y-133553910D01*
X66868052Y-133540026D01*
X66888043Y-133528044D01*
X66909113Y-133518079D01*
X66931057Y-133510227D01*
X66953666Y-133504563D01*
X66976721Y-133501144D01*
X67000000Y-133500000D01*
X67575000Y-133500000D01*
X67598279Y-133501144D01*
X67598279Y-133501144D01*
G37*
D34*
X67287500Y-133975000D03*
D10*
G36*
X69348279Y-133501144D02*
X69371334Y-133504563D01*
X69393943Y-133510227D01*
X69415887Y-133518079D01*
X69436957Y-133528044D01*
X69456948Y-133540026D01*
X69475668Y-133553910D01*
X69492938Y-133569562D01*
X69508590Y-133586832D01*
X69522474Y-133605552D01*
X69534456Y-133625543D01*
X69544421Y-133646613D01*
X69552273Y-133668557D01*
X69557937Y-133691166D01*
X69561356Y-133714221D01*
X69562500Y-133737500D01*
X69562500Y-134212500D01*
X69561356Y-134235779D01*
X69557937Y-134258834D01*
X69552273Y-134281443D01*
X69544421Y-134303387D01*
X69534456Y-134324457D01*
X69522474Y-134344448D01*
X69508590Y-134363168D01*
X69492938Y-134380438D01*
X69475668Y-134396090D01*
X69456948Y-134409974D01*
X69436957Y-134421956D01*
X69415887Y-134431921D01*
X69393943Y-134439773D01*
X69371334Y-134445437D01*
X69348279Y-134448856D01*
X69325000Y-134450000D01*
X68750000Y-134450000D01*
X68726721Y-134448856D01*
X68703666Y-134445437D01*
X68681057Y-134439773D01*
X68659113Y-134431921D01*
X68638043Y-134421956D01*
X68618052Y-134409974D01*
X68599332Y-134396090D01*
X68582062Y-134380438D01*
X68566410Y-134363168D01*
X68552526Y-134344448D01*
X68540544Y-134324457D01*
X68530579Y-134303387D01*
X68522727Y-134281443D01*
X68517063Y-134258834D01*
X68513644Y-134235779D01*
X68512500Y-134212500D01*
X68512500Y-133737500D01*
X68513644Y-133714221D01*
X68517063Y-133691166D01*
X68522727Y-133668557D01*
X68530579Y-133646613D01*
X68540544Y-133625543D01*
X68552526Y-133605552D01*
X68566410Y-133586832D01*
X68582062Y-133569562D01*
X68599332Y-133553910D01*
X68618052Y-133540026D01*
X68638043Y-133528044D01*
X68659113Y-133518079D01*
X68681057Y-133510227D01*
X68703666Y-133504563D01*
X68726721Y-133501144D01*
X68750000Y-133500000D01*
X69325000Y-133500000D01*
X69348279Y-133501144D01*
X69348279Y-133501144D01*
G37*
D34*
X69037500Y-133975000D03*
G04 #@! TD*
D10*
G04 #@! TO.C,L2*
G36*
X67115779Y-127151144D02*
X67138834Y-127154563D01*
X67161443Y-127160227D01*
X67183387Y-127168079D01*
X67204457Y-127178044D01*
X67224448Y-127190026D01*
X67243168Y-127203910D01*
X67260438Y-127219562D01*
X67276090Y-127236832D01*
X67289974Y-127255552D01*
X67301956Y-127275543D01*
X67311921Y-127296613D01*
X67319773Y-127318557D01*
X67325437Y-127341166D01*
X67328856Y-127364221D01*
X67330000Y-127387500D01*
X67330000Y-127862500D01*
X67328856Y-127885779D01*
X67325437Y-127908834D01*
X67319773Y-127931443D01*
X67311921Y-127953387D01*
X67301956Y-127974457D01*
X67289974Y-127994448D01*
X67276090Y-128013168D01*
X67260438Y-128030438D01*
X67243168Y-128046090D01*
X67224448Y-128059974D01*
X67204457Y-128071956D01*
X67183387Y-128081921D01*
X67161443Y-128089773D01*
X67138834Y-128095437D01*
X67115779Y-128098856D01*
X67092500Y-128100000D01*
X66517500Y-128100000D01*
X66494221Y-128098856D01*
X66471166Y-128095437D01*
X66448557Y-128089773D01*
X66426613Y-128081921D01*
X66405543Y-128071956D01*
X66385552Y-128059974D01*
X66366832Y-128046090D01*
X66349562Y-128030438D01*
X66333910Y-128013168D01*
X66320026Y-127994448D01*
X66308044Y-127974457D01*
X66298079Y-127953387D01*
X66290227Y-127931443D01*
X66284563Y-127908834D01*
X66281144Y-127885779D01*
X66280000Y-127862500D01*
X66280000Y-127387500D01*
X66281144Y-127364221D01*
X66284563Y-127341166D01*
X66290227Y-127318557D01*
X66298079Y-127296613D01*
X66308044Y-127275543D01*
X66320026Y-127255552D01*
X66333910Y-127236832D01*
X66349562Y-127219562D01*
X66366832Y-127203910D01*
X66385552Y-127190026D01*
X66405543Y-127178044D01*
X66426613Y-127168079D01*
X66448557Y-127160227D01*
X66471166Y-127154563D01*
X66494221Y-127151144D01*
X66517500Y-127150000D01*
X67092500Y-127150000D01*
X67115779Y-127151144D01*
X67115779Y-127151144D01*
G37*
D34*
X66805000Y-127625000D03*
D10*
G36*
X68865779Y-127151144D02*
X68888834Y-127154563D01*
X68911443Y-127160227D01*
X68933387Y-127168079D01*
X68954457Y-127178044D01*
X68974448Y-127190026D01*
X68993168Y-127203910D01*
X69010438Y-127219562D01*
X69026090Y-127236832D01*
X69039974Y-127255552D01*
X69051956Y-127275543D01*
X69061921Y-127296613D01*
X69069773Y-127318557D01*
X69075437Y-127341166D01*
X69078856Y-127364221D01*
X69080000Y-127387500D01*
X69080000Y-127862500D01*
X69078856Y-127885779D01*
X69075437Y-127908834D01*
X69069773Y-127931443D01*
X69061921Y-127953387D01*
X69051956Y-127974457D01*
X69039974Y-127994448D01*
X69026090Y-128013168D01*
X69010438Y-128030438D01*
X68993168Y-128046090D01*
X68974448Y-128059974D01*
X68954457Y-128071956D01*
X68933387Y-128081921D01*
X68911443Y-128089773D01*
X68888834Y-128095437D01*
X68865779Y-128098856D01*
X68842500Y-128100000D01*
X68267500Y-128100000D01*
X68244221Y-128098856D01*
X68221166Y-128095437D01*
X68198557Y-128089773D01*
X68176613Y-128081921D01*
X68155543Y-128071956D01*
X68135552Y-128059974D01*
X68116832Y-128046090D01*
X68099562Y-128030438D01*
X68083910Y-128013168D01*
X68070026Y-127994448D01*
X68058044Y-127974457D01*
X68048079Y-127953387D01*
X68040227Y-127931443D01*
X68034563Y-127908834D01*
X68031144Y-127885779D01*
X68030000Y-127862500D01*
X68030000Y-127387500D01*
X68031144Y-127364221D01*
X68034563Y-127341166D01*
X68040227Y-127318557D01*
X68048079Y-127296613D01*
X68058044Y-127275543D01*
X68070026Y-127255552D01*
X68083910Y-127236832D01*
X68099562Y-127219562D01*
X68116832Y-127203910D01*
X68135552Y-127190026D01*
X68155543Y-127178044D01*
X68176613Y-127168079D01*
X68198557Y-127160227D01*
X68221166Y-127154563D01*
X68244221Y-127151144D01*
X68267500Y-127150000D01*
X68842500Y-127150000D01*
X68865779Y-127151144D01*
X68865779Y-127151144D01*
G37*
D34*
X68555000Y-127625000D03*
G04 #@! TD*
D10*
G04 #@! TO.C,C1*
G36*
X71750779Y-129553644D02*
X71773834Y-129557063D01*
X71796443Y-129562727D01*
X71818387Y-129570579D01*
X71839457Y-129580544D01*
X71859448Y-129592526D01*
X71878168Y-129606410D01*
X71895438Y-129622062D01*
X71911090Y-129639332D01*
X71924974Y-129658052D01*
X71936956Y-129678043D01*
X71946921Y-129699113D01*
X71954773Y-129721057D01*
X71960437Y-129743666D01*
X71963856Y-129766721D01*
X71965000Y-129790000D01*
X71965000Y-130365000D01*
X71963856Y-130388279D01*
X71960437Y-130411334D01*
X71954773Y-130433943D01*
X71946921Y-130455887D01*
X71936956Y-130476957D01*
X71924974Y-130496948D01*
X71911090Y-130515668D01*
X71895438Y-130532938D01*
X71878168Y-130548590D01*
X71859448Y-130562474D01*
X71839457Y-130574456D01*
X71818387Y-130584421D01*
X71796443Y-130592273D01*
X71773834Y-130597937D01*
X71750779Y-130601356D01*
X71727500Y-130602500D01*
X71252500Y-130602500D01*
X71229221Y-130601356D01*
X71206166Y-130597937D01*
X71183557Y-130592273D01*
X71161613Y-130584421D01*
X71140543Y-130574456D01*
X71120552Y-130562474D01*
X71101832Y-130548590D01*
X71084562Y-130532938D01*
X71068910Y-130515668D01*
X71055026Y-130496948D01*
X71043044Y-130476957D01*
X71033079Y-130455887D01*
X71025227Y-130433943D01*
X71019563Y-130411334D01*
X71016144Y-130388279D01*
X71015000Y-130365000D01*
X71015000Y-129790000D01*
X71016144Y-129766721D01*
X71019563Y-129743666D01*
X71025227Y-129721057D01*
X71033079Y-129699113D01*
X71043044Y-129678043D01*
X71055026Y-129658052D01*
X71068910Y-129639332D01*
X71084562Y-129622062D01*
X71101832Y-129606410D01*
X71120552Y-129592526D01*
X71140543Y-129580544D01*
X71161613Y-129570579D01*
X71183557Y-129562727D01*
X71206166Y-129557063D01*
X71229221Y-129553644D01*
X71252500Y-129552500D01*
X71727500Y-129552500D01*
X71750779Y-129553644D01*
X71750779Y-129553644D01*
G37*
D34*
X71490000Y-130077500D03*
D10*
G36*
X71750779Y-131303644D02*
X71773834Y-131307063D01*
X71796443Y-131312727D01*
X71818387Y-131320579D01*
X71839457Y-131330544D01*
X71859448Y-131342526D01*
X71878168Y-131356410D01*
X71895438Y-131372062D01*
X71911090Y-131389332D01*
X71924974Y-131408052D01*
X71936956Y-131428043D01*
X71946921Y-131449113D01*
X71954773Y-131471057D01*
X71960437Y-131493666D01*
X71963856Y-131516721D01*
X71965000Y-131540000D01*
X71965000Y-132115000D01*
X71963856Y-132138279D01*
X71960437Y-132161334D01*
X71954773Y-132183943D01*
X71946921Y-132205887D01*
X71936956Y-132226957D01*
X71924974Y-132246948D01*
X71911090Y-132265668D01*
X71895438Y-132282938D01*
X71878168Y-132298590D01*
X71859448Y-132312474D01*
X71839457Y-132324456D01*
X71818387Y-132334421D01*
X71796443Y-132342273D01*
X71773834Y-132347937D01*
X71750779Y-132351356D01*
X71727500Y-132352500D01*
X71252500Y-132352500D01*
X71229221Y-132351356D01*
X71206166Y-132347937D01*
X71183557Y-132342273D01*
X71161613Y-132334421D01*
X71140543Y-132324456D01*
X71120552Y-132312474D01*
X71101832Y-132298590D01*
X71084562Y-132282938D01*
X71068910Y-132265668D01*
X71055026Y-132246948D01*
X71043044Y-132226957D01*
X71033079Y-132205887D01*
X71025227Y-132183943D01*
X71019563Y-132161334D01*
X71016144Y-132138279D01*
X71015000Y-132115000D01*
X71015000Y-131540000D01*
X71016144Y-131516721D01*
X71019563Y-131493666D01*
X71025227Y-131471057D01*
X71033079Y-131449113D01*
X71043044Y-131428043D01*
X71055026Y-131408052D01*
X71068910Y-131389332D01*
X71084562Y-131372062D01*
X71101832Y-131356410D01*
X71120552Y-131342526D01*
X71140543Y-131330544D01*
X71161613Y-131320579D01*
X71183557Y-131312727D01*
X71206166Y-131307063D01*
X71229221Y-131303644D01*
X71252500Y-131302500D01*
X71727500Y-131302500D01*
X71750779Y-131303644D01*
X71750779Y-131303644D01*
G37*
D34*
X71490000Y-131827500D03*
G04 #@! TD*
D10*
G04 #@! TO.C,C2*
G36*
X83663279Y-124166144D02*
X83686334Y-124169563D01*
X83708943Y-124175227D01*
X83730887Y-124183079D01*
X83751957Y-124193044D01*
X83771948Y-124205026D01*
X83790668Y-124218910D01*
X83807938Y-124234562D01*
X83823590Y-124251832D01*
X83837474Y-124270552D01*
X83849456Y-124290543D01*
X83859421Y-124311613D01*
X83867273Y-124333557D01*
X83872937Y-124356166D01*
X83876356Y-124379221D01*
X83877500Y-124402500D01*
X83877500Y-124977500D01*
X83876356Y-125000779D01*
X83872937Y-125023834D01*
X83867273Y-125046443D01*
X83859421Y-125068387D01*
X83849456Y-125089457D01*
X83837474Y-125109448D01*
X83823590Y-125128168D01*
X83807938Y-125145438D01*
X83790668Y-125161090D01*
X83771948Y-125174974D01*
X83751957Y-125186956D01*
X83730887Y-125196921D01*
X83708943Y-125204773D01*
X83686334Y-125210437D01*
X83663279Y-125213856D01*
X83640000Y-125215000D01*
X83165000Y-125215000D01*
X83141721Y-125213856D01*
X83118666Y-125210437D01*
X83096057Y-125204773D01*
X83074113Y-125196921D01*
X83053043Y-125186956D01*
X83033052Y-125174974D01*
X83014332Y-125161090D01*
X82997062Y-125145438D01*
X82981410Y-125128168D01*
X82967526Y-125109448D01*
X82955544Y-125089457D01*
X82945579Y-125068387D01*
X82937727Y-125046443D01*
X82932063Y-125023834D01*
X82928644Y-125000779D01*
X82927500Y-124977500D01*
X82927500Y-124402500D01*
X82928644Y-124379221D01*
X82932063Y-124356166D01*
X82937727Y-124333557D01*
X82945579Y-124311613D01*
X82955544Y-124290543D01*
X82967526Y-124270552D01*
X82981410Y-124251832D01*
X82997062Y-124234562D01*
X83014332Y-124218910D01*
X83033052Y-124205026D01*
X83053043Y-124193044D01*
X83074113Y-124183079D01*
X83096057Y-124175227D01*
X83118666Y-124169563D01*
X83141721Y-124166144D01*
X83165000Y-124165000D01*
X83640000Y-124165000D01*
X83663279Y-124166144D01*
X83663279Y-124166144D01*
G37*
D34*
X83402500Y-124690000D03*
D10*
G36*
X83663279Y-122416144D02*
X83686334Y-122419563D01*
X83708943Y-122425227D01*
X83730887Y-122433079D01*
X83751957Y-122443044D01*
X83771948Y-122455026D01*
X83790668Y-122468910D01*
X83807938Y-122484562D01*
X83823590Y-122501832D01*
X83837474Y-122520552D01*
X83849456Y-122540543D01*
X83859421Y-122561613D01*
X83867273Y-122583557D01*
X83872937Y-122606166D01*
X83876356Y-122629221D01*
X83877500Y-122652500D01*
X83877500Y-123227500D01*
X83876356Y-123250779D01*
X83872937Y-123273834D01*
X83867273Y-123296443D01*
X83859421Y-123318387D01*
X83849456Y-123339457D01*
X83837474Y-123359448D01*
X83823590Y-123378168D01*
X83807938Y-123395438D01*
X83790668Y-123411090D01*
X83771948Y-123424974D01*
X83751957Y-123436956D01*
X83730887Y-123446921D01*
X83708943Y-123454773D01*
X83686334Y-123460437D01*
X83663279Y-123463856D01*
X83640000Y-123465000D01*
X83165000Y-123465000D01*
X83141721Y-123463856D01*
X83118666Y-123460437D01*
X83096057Y-123454773D01*
X83074113Y-123446921D01*
X83053043Y-123436956D01*
X83033052Y-123424974D01*
X83014332Y-123411090D01*
X82997062Y-123395438D01*
X82981410Y-123378168D01*
X82967526Y-123359448D01*
X82955544Y-123339457D01*
X82945579Y-123318387D01*
X82937727Y-123296443D01*
X82932063Y-123273834D01*
X82928644Y-123250779D01*
X82927500Y-123227500D01*
X82927500Y-122652500D01*
X82928644Y-122629221D01*
X82932063Y-122606166D01*
X82937727Y-122583557D01*
X82945579Y-122561613D01*
X82955544Y-122540543D01*
X82967526Y-122520552D01*
X82981410Y-122501832D01*
X82997062Y-122484562D01*
X83014332Y-122468910D01*
X83033052Y-122455026D01*
X83053043Y-122443044D01*
X83074113Y-122433079D01*
X83096057Y-122425227D01*
X83118666Y-122419563D01*
X83141721Y-122416144D01*
X83165000Y-122415000D01*
X83640000Y-122415000D01*
X83663279Y-122416144D01*
X83663279Y-122416144D01*
G37*
D34*
X83402500Y-122940000D03*
G04 #@! TD*
D43*
G04 #@! TO.C,U1*
X76645000Y-129530000D03*
X76645000Y-130800000D03*
X76645000Y-132070000D03*
X76645000Y-133340000D03*
X81575000Y-133340000D03*
X81575000Y-132070000D03*
X81575000Y-130800000D03*
X81575000Y-129530000D03*
G04 #@! TD*
D13*
G04 #@! TO.C,REF\002A\002A*
X87450000Y-43275000D03*
X89350000Y-43275000D03*
G04 #@! TD*
D44*
G04 #@! TO.C,U1*
X129646100Y-78828600D03*
X129646100Y-79328600D03*
X129646100Y-79828600D03*
X129646100Y-80328600D03*
X129646100Y-80828600D03*
X129646100Y-81328600D03*
X129646100Y-81828600D03*
X129646100Y-82328600D03*
X129646100Y-82828600D03*
X129646100Y-83328600D03*
X129646100Y-83828600D03*
X129646100Y-84328600D03*
X129646100Y-84828600D03*
X129646100Y-85328600D03*
X129646100Y-85828600D03*
X129646100Y-86328600D03*
D45*
X131566100Y-88248600D03*
X132066100Y-88248600D03*
X132566100Y-88248600D03*
X133066100Y-88248600D03*
X133566100Y-88248600D03*
X134066100Y-88248600D03*
X134566100Y-88248600D03*
X135066100Y-88248600D03*
X135566100Y-88248600D03*
X136066100Y-88248600D03*
X136566100Y-88248600D03*
X137066100Y-88248600D03*
X137566100Y-88248600D03*
X138066100Y-88248600D03*
X138566100Y-88248600D03*
X139066100Y-88248600D03*
D44*
X140986100Y-86328600D03*
X140986100Y-85828600D03*
X140986100Y-85328600D03*
X140986100Y-84828600D03*
X140986100Y-84328600D03*
X140986100Y-83828600D03*
X140986100Y-83328600D03*
X140986100Y-82828600D03*
X140986100Y-82328600D03*
X140986100Y-81828600D03*
X140986100Y-81328600D03*
X140986100Y-80828600D03*
X140986100Y-80328600D03*
X140986100Y-79828600D03*
X140986100Y-79328600D03*
X140986100Y-78828600D03*
D45*
X139066100Y-76908600D03*
X138566100Y-76908600D03*
X138066100Y-76908600D03*
X137566100Y-76908600D03*
X137066100Y-76908600D03*
X136566100Y-76908600D03*
X136066100Y-76908600D03*
X135566100Y-76908600D03*
X135066100Y-76908600D03*
X134566100Y-76908600D03*
X134066100Y-76908600D03*
X133566100Y-76908600D03*
X133066100Y-76908600D03*
X132566100Y-76908600D03*
X132066100Y-76908600D03*
X131566100Y-76908600D03*
G04 #@! TD*
D24*
G04 #@! TO.C,0k1*
X124942920Y-79261360D03*
X122742920Y-79261360D03*
G04 #@! TD*
G04 #@! TO.C,0k2*
X124953080Y-80688840D03*
X122753080Y-80688840D03*
G04 #@! TD*
D13*
G04 #@! TO.C,1uF1*
X122867520Y-86195560D03*
X124767520Y-86195560D03*
G04 #@! TD*
D11*
G04 #@! TO.C,1uF2*
X131523880Y-70284960D03*
X131523880Y-72184960D03*
G04 #@! TD*
G04 #@! TO.C,1uF3*
X132555120Y-94506520D03*
X132555120Y-92606520D03*
G04 #@! TD*
G04 #@! TO.C,1uF4*
X140297040Y-94689360D03*
X140297040Y-92789360D03*
G04 #@! TD*
D13*
G04 #@! TO.C,1uF5*
X148475880Y-77452880D03*
X146575880Y-77452880D03*
G04 #@! TD*
D11*
G04 #@! TO.C,4.7uF1*
X138559680Y-94694480D03*
X138559680Y-92794480D03*
G04 #@! TD*
D24*
G04 #@! TO.C,10k1*
X118704680Y-70752360D03*
X116504680Y-70752360D03*
G04 #@! TD*
G04 #@! TO.C,10k2*
X118704680Y-67851680D03*
X116504680Y-67851680D03*
G04 #@! TD*
G04 #@! TO.C,10k3*
X118704680Y-69294400D03*
X116504680Y-69294400D03*
G04 #@! TD*
D25*
G04 #@! TO.C,10k4*
X132941200Y-72184920D03*
X132941200Y-69984920D03*
G04 #@! TD*
D13*
G04 #@! TO.C,10nF1*
X122870060Y-84851900D03*
X124770060Y-84851900D03*
G04 #@! TD*
D24*
G04 #@! TO.C,22uH1*
X124937840Y-87694160D03*
X122737840Y-87694160D03*
G04 #@! TD*
D13*
G04 #@! TO.C,100nF1*
X104996120Y-64600480D03*
X103096120Y-64600480D03*
G04 #@! TD*
D11*
G04 #@! TO.C,100nF2*
X130167520Y-70284960D03*
X130167520Y-72184960D03*
G04 #@! TD*
G04 #@! TO.C,100nF3*
X133906400Y-94506520D03*
X133906400Y-92606520D03*
G04 #@! TD*
G04 #@! TO.C,100nF4*
X141622920Y-94689320D03*
X141622920Y-92789320D03*
G04 #@! TD*
D13*
G04 #@! TO.C,100nF5*
X148470800Y-78814320D03*
X146570800Y-78814320D03*
G04 #@! TD*
G04 #@! TO.C,C1*
X120932120Y-75974600D03*
X119032120Y-75974600D03*
G04 #@! TD*
G04 #@! TO.C,C2*
X120927040Y-84046720D03*
X119027040Y-84046720D03*
G04 #@! TD*
D46*
G04 #@! TO.C,SW1*
X102468080Y-61765840D03*
X105868080Y-61765840D03*
G04 #@! TD*
D47*
G04 #@! TO.C,Y1*
X120163240Y-78422560D03*
X114863240Y-78422560D03*
X114863240Y-81522560D03*
X120163240Y-81522560D03*
G04 #@! TD*
M02*
