G04 #@! TF.GenerationSoftware,KiCad,Pcbnew,5.0.1-33cea8e~68~ubuntu16.04.1*
G04 #@! TF.CreationDate,2018-10-29T00:17:57-07:00*
G04 #@! TF.ProjectId,integrated-board-design-1,696E74656772617465642D626F617264,rev?*
G04 #@! TF.SameCoordinates,Original*
G04 #@! TF.FileFunction,Legend,Bot*
G04 #@! TF.FilePolarity,Positive*
%FSLAX46Y46*%
G04 Gerber Fmt 4.6, Leading zero omitted, Abs format (unit mm)*
G04 Created by KiCad (PCBNEW 5.0.1-33cea8e~68~ubuntu16.04.1) date Mon 29 Oct 2018 12:17:57 AM PDT*
%MOMM*%
%LPD*%
G01*
G04 APERTURE LIST*
%ADD10C,0.190500*%
%ADD11C,0.203200*%
%ADD12C,0.304800*%
%ADD13C,0.146304*%
G04 APERTURE END LIST*
D10*
X86401062Y-103307038D02*
X87607562Y-103709205D01*
X86401062Y-104111372D01*
X87607562Y-104513538D02*
X86401062Y-104513538D01*
X87607562Y-105088062D02*
X86401062Y-105088062D01*
X87607562Y-105777491D01*
X86401062Y-105777491D01*
X87492657Y-106352014D02*
X87550110Y-106409467D01*
X87607562Y-106352014D01*
X87550110Y-106294562D01*
X87492657Y-106352014D01*
X87607562Y-106352014D01*
X86860681Y-106352014D02*
X86918134Y-106409467D01*
X86975586Y-106352014D01*
X86918134Y-106294562D01*
X86860681Y-106352014D01*
X86975586Y-106352014D01*
X86401062Y-107730872D02*
X86401062Y-108477753D01*
X86860681Y-108075586D01*
X86860681Y-108247943D01*
X86918134Y-108362848D01*
X86975586Y-108420300D01*
X87090491Y-108477753D01*
X87377753Y-108477753D01*
X87492657Y-108420300D01*
X87550110Y-108362848D01*
X87607562Y-108247943D01*
X87607562Y-107903229D01*
X87550110Y-107788324D01*
X87492657Y-107730872D01*
X87492657Y-108994824D02*
X87550110Y-109052276D01*
X87607562Y-108994824D01*
X87550110Y-108937372D01*
X87492657Y-108994824D01*
X87607562Y-108994824D01*
X86401062Y-109454443D02*
X86401062Y-110201324D01*
X86860681Y-109799157D01*
X86860681Y-109971514D01*
X86918134Y-110086419D01*
X86975586Y-110143872D01*
X87090491Y-110201324D01*
X87377753Y-110201324D01*
X87492657Y-110143872D01*
X87550110Y-110086419D01*
X87607562Y-109971514D01*
X87607562Y-109626800D01*
X87550110Y-109511895D01*
X87492657Y-109454443D01*
X87147943Y-110718395D02*
X87147943Y-111637634D01*
X86401062Y-112786681D02*
X86401062Y-112212157D01*
X86975586Y-112154705D01*
X86918134Y-112212157D01*
X86860681Y-112327062D01*
X86860681Y-112614324D01*
X86918134Y-112729229D01*
X86975586Y-112786681D01*
X87090491Y-112844134D01*
X87377753Y-112844134D01*
X87492657Y-112786681D01*
X87550110Y-112729229D01*
X87607562Y-112614324D01*
X87607562Y-112327062D01*
X87550110Y-112212157D01*
X87492657Y-112154705D01*
X86401062Y-113188848D02*
X87607562Y-113591014D01*
X86401062Y-113993181D01*
X91520562Y-101755824D02*
X90946038Y-101353657D01*
X91520562Y-101066395D02*
X90314062Y-101066395D01*
X90314062Y-101526014D01*
X90371515Y-101640919D01*
X90428967Y-101698372D01*
X90543872Y-101755824D01*
X90716229Y-101755824D01*
X90831134Y-101698372D01*
X90888586Y-101640919D01*
X90946038Y-101526014D01*
X90946038Y-101066395D01*
X90314062Y-102100538D02*
X90314062Y-102789967D01*
X91520562Y-102445253D02*
X90314062Y-102445253D01*
X91405657Y-103881562D02*
X91463110Y-103824110D01*
X91520562Y-103651753D01*
X91520562Y-103536848D01*
X91463110Y-103364491D01*
X91348205Y-103249586D01*
X91233300Y-103192134D01*
X91003491Y-103134681D01*
X90831134Y-103134681D01*
X90601324Y-103192134D01*
X90486419Y-103249586D01*
X90371515Y-103364491D01*
X90314062Y-103536848D01*
X90314062Y-103651753D01*
X90371515Y-103824110D01*
X90428967Y-103881562D01*
X90888586Y-105720038D02*
X90946038Y-105892395D01*
X91003491Y-105949848D01*
X91118395Y-106007300D01*
X91290753Y-106007300D01*
X91405657Y-105949848D01*
X91463110Y-105892395D01*
X91520562Y-105777491D01*
X91520562Y-105317872D01*
X90314062Y-105317872D01*
X90314062Y-105720038D01*
X90371515Y-105834943D01*
X90428967Y-105892395D01*
X90543872Y-105949848D01*
X90658776Y-105949848D01*
X90773681Y-105892395D01*
X90831134Y-105834943D01*
X90888586Y-105720038D01*
X90888586Y-105317872D01*
X91520562Y-107041443D02*
X90888586Y-107041443D01*
X90773681Y-106983991D01*
X90716229Y-106869086D01*
X90716229Y-106639276D01*
X90773681Y-106524372D01*
X91463110Y-107041443D02*
X91520562Y-106926538D01*
X91520562Y-106639276D01*
X91463110Y-106524372D01*
X91348205Y-106466919D01*
X91233300Y-106466919D01*
X91118395Y-106524372D01*
X91060943Y-106639276D01*
X91060943Y-106926538D01*
X91003491Y-107041443D01*
X90716229Y-107443610D02*
X90716229Y-107903229D01*
X90314062Y-107615967D02*
X91348205Y-107615967D01*
X91463110Y-107673419D01*
X91520562Y-107788324D01*
X91520562Y-107903229D01*
X90716229Y-108133038D02*
X90716229Y-108592657D01*
X90314062Y-108305395D02*
X91348205Y-108305395D01*
X91463110Y-108362848D01*
X91520562Y-108477753D01*
X91520562Y-108592657D01*
X91405657Y-108994824D02*
X91463110Y-109052276D01*
X91520562Y-108994824D01*
X91463110Y-108937372D01*
X91405657Y-108994824D01*
X91520562Y-108994824D01*
X90773681Y-108994824D02*
X90831134Y-109052276D01*
X90888586Y-108994824D01*
X90831134Y-108937372D01*
X90773681Y-108994824D01*
X90888586Y-108994824D01*
X91405657Y-111178014D02*
X91463110Y-111120562D01*
X91520562Y-110948205D01*
X91520562Y-110833300D01*
X91463110Y-110660943D01*
X91348205Y-110546038D01*
X91233300Y-110488586D01*
X91003491Y-110431134D01*
X90831134Y-110431134D01*
X90601324Y-110488586D01*
X90486419Y-110546038D01*
X90371515Y-110660943D01*
X90314062Y-110833300D01*
X90314062Y-110948205D01*
X90371515Y-111120562D01*
X90428967Y-111178014D01*
X91520562Y-112384514D02*
X90946038Y-111982348D01*
X91520562Y-111695086D02*
X90314062Y-111695086D01*
X90314062Y-112154705D01*
X90371515Y-112269610D01*
X90428967Y-112327062D01*
X90543872Y-112384514D01*
X90716229Y-112384514D01*
X90831134Y-112327062D01*
X90888586Y-112269610D01*
X90946038Y-112154705D01*
X90946038Y-111695086D01*
X91520562Y-113533562D02*
X91520562Y-112844134D01*
X91520562Y-113188848D02*
X90314062Y-113188848D01*
X90486419Y-113073943D01*
X90601324Y-112959038D01*
X90658776Y-112844134D01*
X90428967Y-113993181D02*
X90371515Y-114050634D01*
X90314062Y-114165538D01*
X90314062Y-114452800D01*
X90371515Y-114567705D01*
X90428967Y-114625157D01*
X90543872Y-114682610D01*
X90658776Y-114682610D01*
X90831134Y-114625157D01*
X91520562Y-113935729D01*
X91520562Y-114682610D01*
X90428967Y-115142229D02*
X90371515Y-115199681D01*
X90314062Y-115314586D01*
X90314062Y-115601848D01*
X90371515Y-115716753D01*
X90428967Y-115774205D01*
X90543872Y-115831657D01*
X90658776Y-115831657D01*
X90831134Y-115774205D01*
X91520562Y-115084776D01*
X91520562Y-115831657D01*
X90314062Y-116578538D02*
X90314062Y-116693443D01*
X90371515Y-116808348D01*
X90428967Y-116865800D01*
X90543872Y-116923253D01*
X90773681Y-116980705D01*
X91060943Y-116980705D01*
X91290753Y-116923253D01*
X91405657Y-116865800D01*
X91463110Y-116808348D01*
X91520562Y-116693443D01*
X91520562Y-116578538D01*
X91463110Y-116463634D01*
X91405657Y-116406181D01*
X91290753Y-116348729D01*
X91060943Y-116291276D01*
X90773681Y-116291276D01*
X90543872Y-116348729D01*
X90428967Y-116406181D01*
X90371515Y-116463634D01*
X90314062Y-116578538D01*
D11*
G04 #@! TO.C,B1*
X67448015Y-98496309D02*
X71004015Y-98496309D01*
X67448015Y-102052309D02*
X67448015Y-98496309D01*
X62622015Y-102052309D02*
X67448015Y-102052309D01*
X67448015Y-115260309D02*
X62622015Y-115260309D01*
X67448015Y-118816309D02*
X67448015Y-115260309D01*
X71004015Y-118816309D02*
X67448015Y-118816309D01*
X71004015Y-115260309D02*
X71004015Y-118816309D01*
X73036015Y-115260309D02*
X71004015Y-115260309D01*
X75830015Y-112466309D02*
X73036015Y-115260309D01*
X75830015Y-104846309D02*
X75830015Y-112466309D01*
X73036015Y-102052309D02*
X75830015Y-104846309D01*
X71004015Y-102052309D02*
X73036015Y-102052309D01*
X71004015Y-98496309D02*
X71004015Y-102052309D01*
D12*
G04 #@! TO.C,U$16*
X85872015Y-119451309D02*
G75*
G03X85872015Y-119451309I-898000J0D01*
G01*
G04 #@! TO.C,B1*
D13*
X76644780Y-105890640D02*
X76681550Y-106000949D01*
X76718319Y-106037718D01*
X76791858Y-106074488D01*
X76902167Y-106074488D01*
X76975706Y-106037718D01*
X77012475Y-106000949D01*
X77049245Y-105927410D01*
X77049245Y-105633254D01*
X76277085Y-105633254D01*
X76277085Y-105890640D01*
X76313855Y-105964179D01*
X76350624Y-106000949D01*
X76424163Y-106037718D01*
X76497702Y-106037718D01*
X76571241Y-106000949D01*
X76608011Y-105964179D01*
X76644780Y-105890640D01*
X76644780Y-105633254D01*
X77049245Y-106809878D02*
X77049245Y-106368644D01*
X77049245Y-106589261D02*
X76277085Y-106589261D01*
X76387394Y-106515722D01*
X76460933Y-106442183D01*
X76497702Y-106368644D01*
G04 #@! TO.C,U$16*
D11*
X84792586Y-119457598D02*
X85068357Y-120192989D01*
X85344129Y-119457598D01*
X85436053Y-121204150D02*
X84976434Y-120882417D01*
X85436053Y-120652608D02*
X84470853Y-120652608D01*
X84470853Y-121020303D01*
X84516815Y-121112227D01*
X84562776Y-121158189D01*
X84654700Y-121204150D01*
X84792586Y-121204150D01*
X84884510Y-121158189D01*
X84930472Y-121112227D01*
X84976434Y-121020303D01*
X84976434Y-120652608D01*
X84930472Y-121617808D02*
X84930472Y-121939541D01*
X85436053Y-122077427D02*
X85436053Y-121617808D01*
X84470853Y-121617808D01*
X84470853Y-122077427D01*
X84470853Y-122353198D02*
X85436053Y-122674931D01*
X84470853Y-122996665D01*
G04 #@! TD*
M02*
