G04 #@! TF.GenerationSoftware,KiCad,Pcbnew,5.0.1-33cea8e~68~ubuntu16.04.1*
G04 #@! TF.CreationDate,2018-10-29T00:17:57-07:00*
G04 #@! TF.ProjectId,integrated-board-design-1,696E74656772617465642D626F617264,rev?*
G04 #@! TF.SameCoordinates,Original*
G04 #@! TF.FileFunction,Soldermask,Bot*
G04 #@! TF.FilePolarity,Negative*
%FSLAX46Y46*%
G04 Gerber Fmt 4.6, Leading zero omitted, Abs format (unit mm)*
G04 Created by KiCad (PCBNEW 5.0.1-33cea8e~68~ubuntu16.04.1) date Mon 29 Oct 2018 12:17:57 AM PDT*
%MOMM*%
%LPD*%
G01*
G04 APERTURE LIST*
%ADD10C,0.100000*%
G04 APERTURE END LIST*
D10*
G04 #@! TO.C,B1*
X75508130Y-108656309D02*
G75*
G03X75508130Y-108656309I-6282115J0D01*
G01*
G36*
X189917323Y-138515060D02*
X190156521Y-138562639D01*
X190456947Y-138687080D01*
X190727324Y-138867740D01*
X190957260Y-139097676D01*
X191137920Y-139368053D01*
X191262361Y-139668479D01*
X191325800Y-139987410D01*
X191325800Y-140312590D01*
X191262361Y-140631521D01*
X191137920Y-140931947D01*
X190957260Y-141202324D01*
X190727324Y-141432260D01*
X190456947Y-141612920D01*
X190156521Y-141737361D01*
X189917323Y-141784940D01*
X189837591Y-141800800D01*
X189512409Y-141800800D01*
X189432677Y-141784940D01*
X189193479Y-141737361D01*
X188893053Y-141612920D01*
X188622676Y-141432260D01*
X188392740Y-141202324D01*
X188212080Y-140931947D01*
X188087639Y-140631521D01*
X188024200Y-140312590D01*
X188024200Y-139987410D01*
X188087639Y-139668479D01*
X188212080Y-139368053D01*
X188392740Y-139097676D01*
X188622676Y-138867740D01*
X188893053Y-138687080D01*
X189193479Y-138562639D01*
X189432677Y-138515060D01*
X189512409Y-138499200D01*
X189837591Y-138499200D01*
X189917323Y-138515060D01*
X189917323Y-138515060D01*
G37*
G36*
X61117323Y-138315060D02*
X61356521Y-138362639D01*
X61656947Y-138487080D01*
X61927324Y-138667740D01*
X62157260Y-138897676D01*
X62337920Y-139168053D01*
X62462361Y-139468479D01*
X62525800Y-139787410D01*
X62525800Y-140112590D01*
X62462361Y-140431521D01*
X62337920Y-140731947D01*
X62157260Y-141002324D01*
X61927324Y-141232260D01*
X61656947Y-141412920D01*
X61356521Y-141537361D01*
X61117323Y-141584940D01*
X61037591Y-141600800D01*
X60712409Y-141600800D01*
X60632677Y-141584940D01*
X60393479Y-141537361D01*
X60093053Y-141412920D01*
X59822676Y-141232260D01*
X59592740Y-141002324D01*
X59412080Y-140731947D01*
X59287639Y-140431521D01*
X59224200Y-140112590D01*
X59224200Y-139787410D01*
X59287639Y-139468479D01*
X59412080Y-139168053D01*
X59592740Y-138897676D01*
X59822676Y-138667740D01*
X60093053Y-138487080D01*
X60393479Y-138362639D01*
X60632677Y-138315060D01*
X60712409Y-138299200D01*
X61037591Y-138299200D01*
X61117323Y-138315060D01*
X61117323Y-138315060D01*
G37*
G36*
X99592323Y-138165060D02*
X99831521Y-138212639D01*
X100131947Y-138337080D01*
X100402324Y-138517740D01*
X100632260Y-138747676D01*
X100812920Y-139018053D01*
X100937361Y-139318479D01*
X101000800Y-139637410D01*
X101000800Y-139962590D01*
X100937361Y-140281521D01*
X100812920Y-140581947D01*
X100632260Y-140852324D01*
X100402324Y-141082260D01*
X100131947Y-141262920D01*
X99831521Y-141387361D01*
X99605807Y-141432258D01*
X99512591Y-141450800D01*
X99187409Y-141450800D01*
X99094193Y-141432258D01*
X98868479Y-141387361D01*
X98568053Y-141262920D01*
X98297676Y-141082260D01*
X98067740Y-140852324D01*
X97887080Y-140581947D01*
X97762639Y-140281521D01*
X97699200Y-139962590D01*
X97699200Y-139637410D01*
X97762639Y-139318479D01*
X97887080Y-139018053D01*
X98067740Y-138747676D01*
X98297676Y-138517740D01*
X98568053Y-138337080D01*
X98868479Y-138212639D01*
X99107677Y-138165060D01*
X99187409Y-138149200D01*
X99512591Y-138149200D01*
X99592323Y-138165060D01*
X99592323Y-138165060D01*
G37*
G36*
X180187910Y-138605665D02*
X180265039Y-138613261D01*
X180396990Y-138653288D01*
X180462966Y-138673301D01*
X180645375Y-138770801D01*
X180805257Y-138902014D01*
X180936470Y-139061896D01*
X181033970Y-139244305D01*
X181033970Y-139244306D01*
X181094010Y-139442232D01*
X181114283Y-139648068D01*
X181094010Y-139853904D01*
X181061040Y-139962591D01*
X181033970Y-140051831D01*
X180936470Y-140234240D01*
X180805257Y-140394122D01*
X180645375Y-140525335D01*
X180462966Y-140622835D01*
X180396990Y-140642848D01*
X180265039Y-140682875D01*
X180187910Y-140690471D01*
X180110783Y-140698068D01*
X180007623Y-140698068D01*
X179930496Y-140690471D01*
X179853367Y-140682875D01*
X179721416Y-140642848D01*
X179655440Y-140622835D01*
X179473031Y-140525335D01*
X179313149Y-140394122D01*
X179181936Y-140234240D01*
X179084436Y-140051831D01*
X179057366Y-139962591D01*
X179024396Y-139853904D01*
X179004123Y-139648068D01*
X179024396Y-139442232D01*
X179084436Y-139244306D01*
X179084436Y-139244305D01*
X179181936Y-139061896D01*
X179313149Y-138902014D01*
X179473031Y-138770801D01*
X179655440Y-138673301D01*
X179721416Y-138653288D01*
X179853367Y-138613261D01*
X179930496Y-138605665D01*
X180007623Y-138598068D01*
X180110783Y-138598068D01*
X180187910Y-138605665D01*
X180187910Y-138605665D01*
G37*
G36*
X178569203Y-140698068D02*
X176469203Y-140698068D01*
X176469203Y-138598068D01*
X178569203Y-138598068D01*
X178569203Y-140698068D01*
X178569203Y-140698068D01*
G37*
G36*
X116428787Y-137087157D02*
X116505916Y-137094753D01*
X116637867Y-137134780D01*
X116703843Y-137154793D01*
X116886252Y-137252293D01*
X117046134Y-137383506D01*
X117177347Y-137543388D01*
X117274847Y-137725797D01*
X117274847Y-137725798D01*
X117334887Y-137923724D01*
X117355160Y-138129560D01*
X117334887Y-138335396D01*
X117309122Y-138420332D01*
X117274847Y-138533323D01*
X117177347Y-138715732D01*
X117046134Y-138875614D01*
X116886252Y-139006827D01*
X116703843Y-139104327D01*
X116637867Y-139124340D01*
X116505916Y-139164367D01*
X116428787Y-139171963D01*
X116351660Y-139179560D01*
X116248500Y-139179560D01*
X116171373Y-139171963D01*
X116094244Y-139164367D01*
X115962293Y-139124340D01*
X115896317Y-139104327D01*
X115713908Y-139006827D01*
X115554026Y-138875614D01*
X115422813Y-138715732D01*
X115325313Y-138533323D01*
X115291038Y-138420332D01*
X115265273Y-138335396D01*
X115245000Y-138129560D01*
X115265273Y-137923724D01*
X115325313Y-137725798D01*
X115325313Y-137725797D01*
X115422813Y-137543388D01*
X115554026Y-137383506D01*
X115713908Y-137252293D01*
X115896317Y-137154793D01*
X115962293Y-137134780D01*
X116094244Y-137094753D01*
X116171373Y-137087157D01*
X116248500Y-137079560D01*
X116351660Y-137079560D01*
X116428787Y-137087157D01*
X116428787Y-137087157D01*
G37*
G36*
X134777008Y-136791757D02*
X134854137Y-136799354D01*
X134986088Y-136839381D01*
X135052064Y-136859394D01*
X135234473Y-136956894D01*
X135394355Y-137088107D01*
X135525568Y-137247989D01*
X135623068Y-137430398D01*
X135623068Y-137430399D01*
X135683108Y-137628325D01*
X135703381Y-137834161D01*
X135683108Y-138039997D01*
X135655939Y-138129560D01*
X135623068Y-138237924D01*
X135525568Y-138420333D01*
X135394355Y-138580215D01*
X135234473Y-138711428D01*
X135052064Y-138808928D01*
X134986088Y-138828941D01*
X134854137Y-138868968D01*
X134777008Y-138876564D01*
X134699881Y-138884161D01*
X134596721Y-138884161D01*
X134519594Y-138876564D01*
X134442465Y-138868968D01*
X134310514Y-138828941D01*
X134244538Y-138808928D01*
X134062129Y-138711428D01*
X133902247Y-138580215D01*
X133771034Y-138420333D01*
X133673534Y-138237924D01*
X133640663Y-138129560D01*
X133613494Y-138039997D01*
X133593221Y-137834161D01*
X133613494Y-137628325D01*
X133673534Y-137430399D01*
X133673534Y-137430398D01*
X133771034Y-137247989D01*
X133902247Y-137088107D01*
X134062129Y-136956894D01*
X134244538Y-136859394D01*
X134310514Y-136839381D01*
X134442465Y-136799354D01*
X134519594Y-136791757D01*
X134596721Y-136784161D01*
X134699881Y-136784161D01*
X134777008Y-136791757D01*
X134777008Y-136791757D01*
G37*
G36*
X89398707Y-135472597D02*
X89475836Y-135480193D01*
X89607787Y-135520220D01*
X89673763Y-135540233D01*
X89856172Y-135637733D01*
X90016054Y-135768946D01*
X90147267Y-135928828D01*
X90244767Y-136111237D01*
X90244767Y-136111238D01*
X90304807Y-136309164D01*
X90325080Y-136515000D01*
X90304807Y-136720836D01*
X90280989Y-136799354D01*
X90244767Y-136918763D01*
X90147267Y-137101172D01*
X90016054Y-137261054D01*
X89856172Y-137392267D01*
X89673763Y-137489767D01*
X89607787Y-137509780D01*
X89475836Y-137549807D01*
X89398707Y-137557403D01*
X89321580Y-137565000D01*
X89218420Y-137565000D01*
X89141293Y-137557403D01*
X89064164Y-137549807D01*
X88932213Y-137509780D01*
X88866237Y-137489767D01*
X88683828Y-137392267D01*
X88523946Y-137261054D01*
X88392733Y-137101172D01*
X88295233Y-136918763D01*
X88259011Y-136799354D01*
X88235193Y-136720836D01*
X88214920Y-136515000D01*
X88235193Y-136309164D01*
X88295233Y-136111238D01*
X88295233Y-136111237D01*
X88392733Y-135928828D01*
X88523946Y-135768946D01*
X88683828Y-135637733D01*
X88866237Y-135540233D01*
X88932213Y-135520220D01*
X89064164Y-135480193D01*
X89141293Y-135472597D01*
X89218420Y-135465000D01*
X89321580Y-135465000D01*
X89398707Y-135472597D01*
X89398707Y-135472597D01*
G37*
G36*
X116428787Y-134547157D02*
X116505916Y-134554753D01*
X116637867Y-134594780D01*
X116703843Y-134614793D01*
X116886252Y-134712293D01*
X117046134Y-134843506D01*
X117177347Y-135003388D01*
X117274847Y-135185797D01*
X117274847Y-135185798D01*
X117334887Y-135383724D01*
X117355160Y-135589560D01*
X117334887Y-135795396D01*
X117309122Y-135880332D01*
X117274847Y-135993323D01*
X117177347Y-136175732D01*
X117046134Y-136335614D01*
X116886252Y-136466827D01*
X116703843Y-136564327D01*
X116637867Y-136584340D01*
X116505916Y-136624367D01*
X116428787Y-136631963D01*
X116351660Y-136639560D01*
X116248500Y-136639560D01*
X116171373Y-136631963D01*
X116094244Y-136624367D01*
X115962293Y-136584340D01*
X115896317Y-136564327D01*
X115713908Y-136466827D01*
X115554026Y-136335614D01*
X115422813Y-136175732D01*
X115325313Y-135993323D01*
X115291038Y-135880332D01*
X115265273Y-135795396D01*
X115245000Y-135589560D01*
X115265273Y-135383724D01*
X115325313Y-135185798D01*
X115325313Y-135185797D01*
X115422813Y-135003388D01*
X115554026Y-134843506D01*
X115713908Y-134712293D01*
X115896317Y-134614793D01*
X115962293Y-134594780D01*
X116094244Y-134554753D01*
X116171373Y-134547157D01*
X116248500Y-134539560D01*
X116351660Y-134539560D01*
X116428787Y-134547157D01*
X116428787Y-134547157D01*
G37*
G36*
X134777008Y-134251758D02*
X134854137Y-134259354D01*
X134986088Y-134299381D01*
X135052064Y-134319394D01*
X135234473Y-134416894D01*
X135394355Y-134548107D01*
X135525568Y-134707989D01*
X135623068Y-134890398D01*
X135623068Y-134890399D01*
X135683108Y-135088325D01*
X135703381Y-135294161D01*
X135683108Y-135499997D01*
X135655939Y-135589560D01*
X135623068Y-135697924D01*
X135525568Y-135880333D01*
X135394355Y-136040215D01*
X135234473Y-136171428D01*
X135052064Y-136268928D01*
X134986088Y-136288941D01*
X134854137Y-136328968D01*
X134777008Y-136336565D01*
X134699881Y-136344161D01*
X134596721Y-136344161D01*
X134519594Y-136336565D01*
X134442465Y-136328968D01*
X134310514Y-136288941D01*
X134244538Y-136268928D01*
X134062129Y-136171428D01*
X133902247Y-136040215D01*
X133771034Y-135880333D01*
X133673534Y-135697924D01*
X133640663Y-135589560D01*
X133613494Y-135499997D01*
X133593221Y-135294161D01*
X133613494Y-135088325D01*
X133673534Y-134890399D01*
X133673534Y-134890398D01*
X133771034Y-134707989D01*
X133902247Y-134548107D01*
X134062129Y-134416894D01*
X134244538Y-134319394D01*
X134310514Y-134299381D01*
X134442465Y-134259354D01*
X134519594Y-134251758D01*
X134596721Y-134244161D01*
X134699881Y-134244161D01*
X134777008Y-134251758D01*
X134777008Y-134251758D01*
G37*
G36*
X89398707Y-132932596D02*
X89475836Y-132940193D01*
X89607787Y-132980220D01*
X89673763Y-133000233D01*
X89856172Y-133097733D01*
X90016054Y-133228946D01*
X90147267Y-133388828D01*
X90244767Y-133571237D01*
X90244767Y-133571238D01*
X90304807Y-133769164D01*
X90325080Y-133975000D01*
X90304807Y-134180836D01*
X90280989Y-134259354D01*
X90244767Y-134378763D01*
X90147267Y-134561172D01*
X90016054Y-134721054D01*
X89856172Y-134852267D01*
X89673763Y-134949767D01*
X89607787Y-134969780D01*
X89475836Y-135009807D01*
X89398707Y-135017403D01*
X89321580Y-135025000D01*
X89218420Y-135025000D01*
X89141293Y-135017403D01*
X89064164Y-135009807D01*
X88932213Y-134969780D01*
X88866237Y-134949767D01*
X88683828Y-134852267D01*
X88523946Y-134721054D01*
X88392733Y-134561172D01*
X88295233Y-134378763D01*
X88259011Y-134259354D01*
X88235193Y-134180836D01*
X88214920Y-133975000D01*
X88235193Y-133769164D01*
X88295233Y-133571238D01*
X88295233Y-133571237D01*
X88392733Y-133388828D01*
X88523946Y-133228946D01*
X88683828Y-133097733D01*
X88866237Y-133000233D01*
X88932213Y-132980220D01*
X89064164Y-132940193D01*
X89141293Y-132932596D01*
X89218420Y-132925000D01*
X89321580Y-132925000D01*
X89398707Y-132932596D01*
X89398707Y-132932596D01*
G37*
G36*
X116428787Y-132007156D02*
X116505916Y-132014753D01*
X116637867Y-132054780D01*
X116703843Y-132074793D01*
X116886252Y-132172293D01*
X117046134Y-132303506D01*
X117177347Y-132463388D01*
X117274847Y-132645797D01*
X117274847Y-132645798D01*
X117334887Y-132843724D01*
X117355160Y-133049560D01*
X117334887Y-133255396D01*
X117309122Y-133340332D01*
X117274847Y-133453323D01*
X117177347Y-133635732D01*
X117046134Y-133795614D01*
X116886252Y-133926827D01*
X116703843Y-134024327D01*
X116637867Y-134044340D01*
X116505916Y-134084367D01*
X116428787Y-134091964D01*
X116351660Y-134099560D01*
X116248500Y-134099560D01*
X116171373Y-134091964D01*
X116094244Y-134084367D01*
X115962293Y-134044340D01*
X115896317Y-134024327D01*
X115713908Y-133926827D01*
X115554026Y-133795614D01*
X115422813Y-133635732D01*
X115325313Y-133453323D01*
X115291038Y-133340332D01*
X115265273Y-133255396D01*
X115245000Y-133049560D01*
X115265273Y-132843724D01*
X115325313Y-132645798D01*
X115325313Y-132645797D01*
X115422813Y-132463388D01*
X115554026Y-132303506D01*
X115713908Y-132172293D01*
X115896317Y-132074793D01*
X115962293Y-132054780D01*
X116094244Y-132014753D01*
X116171373Y-132007156D01*
X116248500Y-131999560D01*
X116351660Y-131999560D01*
X116428787Y-132007156D01*
X116428787Y-132007156D01*
G37*
G36*
X134777008Y-131711757D02*
X134854137Y-131719354D01*
X134986088Y-131759381D01*
X135052064Y-131779394D01*
X135234473Y-131876894D01*
X135394355Y-132008107D01*
X135525568Y-132167989D01*
X135623068Y-132350398D01*
X135623068Y-132350399D01*
X135683108Y-132548325D01*
X135703381Y-132754161D01*
X135683108Y-132959997D01*
X135655939Y-133049560D01*
X135623068Y-133157924D01*
X135525568Y-133340333D01*
X135394355Y-133500215D01*
X135234473Y-133631428D01*
X135052064Y-133728928D01*
X134986088Y-133748941D01*
X134854137Y-133788968D01*
X134777008Y-133796565D01*
X134699881Y-133804161D01*
X134596721Y-133804161D01*
X134519594Y-133796565D01*
X134442465Y-133788968D01*
X134310514Y-133748941D01*
X134244538Y-133728928D01*
X134062129Y-133631428D01*
X133902247Y-133500215D01*
X133771034Y-133340333D01*
X133673534Y-133157924D01*
X133640663Y-133049560D01*
X133613494Y-132959997D01*
X133593221Y-132754161D01*
X133613494Y-132548325D01*
X133673534Y-132350399D01*
X133673534Y-132350398D01*
X133771034Y-132167989D01*
X133902247Y-132008107D01*
X134062129Y-131876894D01*
X134244538Y-131779394D01*
X134310514Y-131759381D01*
X134442465Y-131719354D01*
X134519594Y-131711757D01*
X134596721Y-131704161D01*
X134699881Y-131704161D01*
X134777008Y-131711757D01*
X134777008Y-131711757D01*
G37*
G36*
X63650000Y-133755000D02*
X61550000Y-133755000D01*
X61550000Y-131655000D01*
X63650000Y-131655000D01*
X63650000Y-133755000D01*
X63650000Y-133755000D01*
G37*
G36*
X89398707Y-130392597D02*
X89475836Y-130400193D01*
X89607787Y-130440220D01*
X89673763Y-130460233D01*
X89856172Y-130557733D01*
X90016054Y-130688946D01*
X90147267Y-130848828D01*
X90244767Y-131031237D01*
X90244767Y-131031238D01*
X90304807Y-131229164D01*
X90325080Y-131435000D01*
X90304807Y-131640836D01*
X90280989Y-131719354D01*
X90244767Y-131838763D01*
X90147267Y-132021172D01*
X90016054Y-132181054D01*
X89856172Y-132312267D01*
X89673763Y-132409767D01*
X89607787Y-132429780D01*
X89475836Y-132469807D01*
X89398707Y-132477404D01*
X89321580Y-132485000D01*
X89218420Y-132485000D01*
X89141293Y-132477404D01*
X89064164Y-132469807D01*
X88932213Y-132429780D01*
X88866237Y-132409767D01*
X88683828Y-132312267D01*
X88523946Y-132181054D01*
X88392733Y-132021172D01*
X88295233Y-131838763D01*
X88259011Y-131719354D01*
X88235193Y-131640836D01*
X88214920Y-131435000D01*
X88235193Y-131229164D01*
X88295233Y-131031238D01*
X88295233Y-131031237D01*
X88392733Y-130848828D01*
X88523946Y-130688946D01*
X88683828Y-130557733D01*
X88866237Y-130460233D01*
X88932213Y-130440220D01*
X89064164Y-130400193D01*
X89141293Y-130392597D01*
X89218420Y-130385000D01*
X89321580Y-130385000D01*
X89398707Y-130392597D01*
X89398707Y-130392597D01*
G37*
G36*
X116428787Y-129467156D02*
X116505916Y-129474753D01*
X116637867Y-129514780D01*
X116703843Y-129534793D01*
X116886252Y-129632293D01*
X117046134Y-129763506D01*
X117177347Y-129923388D01*
X117274847Y-130105797D01*
X117274847Y-130105798D01*
X117334887Y-130303724D01*
X117355160Y-130509560D01*
X117334887Y-130715396D01*
X117309122Y-130800332D01*
X117274847Y-130913323D01*
X117177347Y-131095732D01*
X117046134Y-131255614D01*
X116886252Y-131386827D01*
X116703843Y-131484327D01*
X116637867Y-131504340D01*
X116505916Y-131544367D01*
X116428787Y-131551964D01*
X116351660Y-131559560D01*
X116248500Y-131559560D01*
X116171373Y-131551964D01*
X116094244Y-131544367D01*
X115962293Y-131504340D01*
X115896317Y-131484327D01*
X115713908Y-131386827D01*
X115554026Y-131255614D01*
X115422813Y-131095732D01*
X115325313Y-130913323D01*
X115291038Y-130800332D01*
X115265273Y-130715396D01*
X115245000Y-130509560D01*
X115265273Y-130303724D01*
X115325313Y-130105798D01*
X115325313Y-130105797D01*
X115422813Y-129923388D01*
X115554026Y-129763506D01*
X115713908Y-129632293D01*
X115896317Y-129534793D01*
X115962293Y-129514780D01*
X116094244Y-129474753D01*
X116171373Y-129467156D01*
X116248500Y-129459560D01*
X116351660Y-129459560D01*
X116428787Y-129467156D01*
X116428787Y-129467156D01*
G37*
G36*
X134777008Y-129171757D02*
X134854137Y-129179354D01*
X134986088Y-129219381D01*
X135052064Y-129239394D01*
X135234473Y-129336894D01*
X135394355Y-129468107D01*
X135525568Y-129627989D01*
X135623068Y-129810398D01*
X135623068Y-129810399D01*
X135683108Y-130008325D01*
X135703381Y-130214161D01*
X135683108Y-130419997D01*
X135655939Y-130509560D01*
X135623068Y-130617924D01*
X135525568Y-130800333D01*
X135394355Y-130960215D01*
X135234473Y-131091428D01*
X135052064Y-131188928D01*
X135016200Y-131199807D01*
X134854137Y-131248968D01*
X134777008Y-131256565D01*
X134699881Y-131264161D01*
X134596721Y-131264161D01*
X134519594Y-131256565D01*
X134442465Y-131248968D01*
X134280402Y-131199807D01*
X134244538Y-131188928D01*
X134062129Y-131091428D01*
X133902247Y-130960215D01*
X133771034Y-130800333D01*
X133673534Y-130617924D01*
X133640663Y-130509560D01*
X133613494Y-130419997D01*
X133593221Y-130214161D01*
X133613494Y-130008325D01*
X133673534Y-129810399D01*
X133673534Y-129810398D01*
X133771034Y-129627989D01*
X133902247Y-129468107D01*
X134062129Y-129336894D01*
X134244538Y-129239394D01*
X134310514Y-129219381D01*
X134442465Y-129179354D01*
X134519594Y-129171757D01*
X134596721Y-129164161D01*
X134699881Y-129164161D01*
X134777008Y-129171757D01*
X134777008Y-129171757D01*
G37*
G36*
X62728707Y-129122596D02*
X62805836Y-129130193D01*
X62917814Y-129164161D01*
X63003763Y-129190233D01*
X63186172Y-129287733D01*
X63346054Y-129418946D01*
X63477267Y-129578828D01*
X63574767Y-129761237D01*
X63589680Y-129810399D01*
X63634807Y-129959164D01*
X63655080Y-130165000D01*
X63634807Y-130370836D01*
X63619894Y-130419997D01*
X63574767Y-130568763D01*
X63477267Y-130751172D01*
X63346054Y-130911054D01*
X63186172Y-131042267D01*
X63003763Y-131139767D01*
X62937787Y-131159780D01*
X62805836Y-131199807D01*
X62728707Y-131207403D01*
X62651580Y-131215000D01*
X62548420Y-131215000D01*
X62471293Y-131207403D01*
X62394164Y-131199807D01*
X62262213Y-131159780D01*
X62196237Y-131139767D01*
X62013828Y-131042267D01*
X61853946Y-130911054D01*
X61722733Y-130751172D01*
X61625233Y-130568763D01*
X61580106Y-130419997D01*
X61565193Y-130370836D01*
X61544920Y-130165000D01*
X61565193Y-129959164D01*
X61610320Y-129810399D01*
X61625233Y-129761237D01*
X61722733Y-129578828D01*
X61853946Y-129418946D01*
X62013828Y-129287733D01*
X62196237Y-129190233D01*
X62282186Y-129164161D01*
X62394164Y-129130193D01*
X62471293Y-129122596D01*
X62548420Y-129115000D01*
X62651580Y-129115000D01*
X62728707Y-129122596D01*
X62728707Y-129122596D01*
G37*
G36*
X89398707Y-127852597D02*
X89475836Y-127860193D01*
X89607787Y-127900220D01*
X89673763Y-127920233D01*
X89856172Y-128017733D01*
X90016054Y-128148946D01*
X90147267Y-128308828D01*
X90244767Y-128491237D01*
X90244767Y-128491238D01*
X90304807Y-128689164D01*
X90325080Y-128895000D01*
X90304807Y-129100836D01*
X90280989Y-129179354D01*
X90244767Y-129298763D01*
X90147267Y-129481172D01*
X90016054Y-129641054D01*
X89856172Y-129772267D01*
X89673763Y-129869767D01*
X89607787Y-129889780D01*
X89475836Y-129929807D01*
X89398707Y-129937403D01*
X89321580Y-129945000D01*
X89218420Y-129945000D01*
X89141293Y-129937403D01*
X89064164Y-129929807D01*
X88932213Y-129889780D01*
X88866237Y-129869767D01*
X88683828Y-129772267D01*
X88523946Y-129641054D01*
X88392733Y-129481172D01*
X88295233Y-129298763D01*
X88259011Y-129179354D01*
X88235193Y-129100836D01*
X88214920Y-128895000D01*
X88235193Y-128689164D01*
X88295233Y-128491238D01*
X88295233Y-128491237D01*
X88392733Y-128308828D01*
X88523946Y-128148946D01*
X88683828Y-128017733D01*
X88866237Y-127920233D01*
X88932213Y-127900220D01*
X89064164Y-127860193D01*
X89141293Y-127852597D01*
X89218420Y-127845000D01*
X89321580Y-127845000D01*
X89398707Y-127852597D01*
X89398707Y-127852597D01*
G37*
G36*
X117350080Y-129019560D02*
X115250080Y-129019560D01*
X115250080Y-126919560D01*
X117350080Y-126919560D01*
X117350080Y-129019560D01*
X117350080Y-129019560D01*
G37*
G36*
X134777008Y-126631758D02*
X134854137Y-126639354D01*
X134986088Y-126679381D01*
X135052064Y-126699394D01*
X135234473Y-126796894D01*
X135394355Y-126928107D01*
X135525568Y-127087989D01*
X135623068Y-127270398D01*
X135623068Y-127270399D01*
X135683108Y-127468325D01*
X135703381Y-127674161D01*
X135683108Y-127879997D01*
X135643081Y-128011948D01*
X135623068Y-128077924D01*
X135525568Y-128260333D01*
X135394355Y-128420215D01*
X135234473Y-128551428D01*
X135052064Y-128648928D01*
X134986088Y-128668941D01*
X134854137Y-128708968D01*
X134777008Y-128716564D01*
X134699881Y-128724161D01*
X134596721Y-128724161D01*
X134519594Y-128716564D01*
X134442465Y-128708968D01*
X134310514Y-128668941D01*
X134244538Y-128648928D01*
X134062129Y-128551428D01*
X133902247Y-128420215D01*
X133771034Y-128260333D01*
X133673534Y-128077924D01*
X133653521Y-128011948D01*
X133613494Y-127879997D01*
X133593221Y-127674161D01*
X133613494Y-127468325D01*
X133673534Y-127270399D01*
X133673534Y-127270398D01*
X133771034Y-127087989D01*
X133902247Y-126928107D01*
X134062129Y-126796894D01*
X134244538Y-126699394D01*
X134310514Y-126679381D01*
X134442465Y-126639354D01*
X134519594Y-126631758D01*
X134596721Y-126624161D01*
X134699881Y-126624161D01*
X134777008Y-126631758D01*
X134777008Y-126631758D01*
G37*
G36*
X90320000Y-127405000D02*
X88220000Y-127405000D01*
X88220000Y-125305000D01*
X90320000Y-125305000D01*
X90320000Y-127405000D01*
X90320000Y-127405000D01*
G37*
G36*
X178573623Y-123045094D02*
X178607981Y-123048478D01*
X178741815Y-123089077D01*
X178808733Y-123109376D01*
X178993748Y-123208268D01*
X179155915Y-123341356D01*
X179289003Y-123503523D01*
X179387895Y-123688539D01*
X179408194Y-123755457D01*
X179448793Y-123889291D01*
X179448793Y-123889293D01*
X179464203Y-124045751D01*
X179464203Y-124450386D01*
X179454590Y-124547989D01*
X179448793Y-124606846D01*
X179411313Y-124730398D01*
X179387895Y-124807598D01*
X179289003Y-124992613D01*
X179155915Y-125154780D01*
X178993748Y-125287868D01*
X178808732Y-125386760D01*
X178739019Y-125407907D01*
X178613162Y-125446086D01*
X178590523Y-125455463D01*
X178570148Y-125469077D01*
X178552821Y-125486404D01*
X178539208Y-125506779D01*
X178529830Y-125529418D01*
X178525050Y-125553451D01*
X178525050Y-125577956D01*
X178529831Y-125601989D01*
X178539208Y-125624628D01*
X178552822Y-125645003D01*
X178570149Y-125662330D01*
X178590524Y-125675943D01*
X178613163Y-125685321D01*
X178615739Y-125685966D01*
X178754460Y-125743426D01*
X178877303Y-125825507D01*
X178981764Y-125929968D01*
X179063845Y-126052811D01*
X179087089Y-126108928D01*
X179111959Y-126168968D01*
X179120381Y-126189302D01*
X179149203Y-126334198D01*
X179149203Y-126481938D01*
X179120381Y-126626834D01*
X179063845Y-126763325D01*
X178981764Y-126886168D01*
X178877303Y-126990629D01*
X178754460Y-127072710D01*
X178674506Y-127105828D01*
X178617970Y-127129246D01*
X178545521Y-127143657D01*
X178473073Y-127158068D01*
X178325333Y-127158068D01*
X178252885Y-127143657D01*
X178180436Y-127129246D01*
X178123900Y-127105828D01*
X178043946Y-127072710D01*
X177921103Y-126990629D01*
X177816642Y-126886168D01*
X177734561Y-126763325D01*
X177678025Y-126626834D01*
X177649203Y-126481938D01*
X177649203Y-126334198D01*
X177678025Y-126189302D01*
X177686448Y-126168968D01*
X177711317Y-126108928D01*
X177734561Y-126052811D01*
X177816642Y-125929968D01*
X177921103Y-125825507D01*
X178043946Y-125743426D01*
X178136744Y-125704988D01*
X178180436Y-125686890D01*
X178180437Y-125686890D01*
X178187112Y-125684125D01*
X178196789Y-125681190D01*
X178218401Y-125669639D01*
X178237343Y-125654094D01*
X178252889Y-125635153D01*
X178264441Y-125613542D01*
X178271555Y-125590094D01*
X178273958Y-125565707D01*
X178271557Y-125541321D01*
X178264445Y-125517872D01*
X178252894Y-125496260D01*
X178237349Y-125477318D01*
X178218408Y-125461772D01*
X178196797Y-125450220D01*
X178185244Y-125446086D01*
X178098000Y-125419621D01*
X177989673Y-125386760D01*
X177804658Y-125287868D01*
X177642491Y-125154780D01*
X177509403Y-124992613D01*
X177410511Y-124807597D01*
X177387093Y-124730398D01*
X177349613Y-124606845D01*
X177343816Y-124547989D01*
X177334203Y-124450385D01*
X177334203Y-124045750D01*
X177349613Y-123889292D01*
X177349613Y-123889290D01*
X177373972Y-123808990D01*
X177410511Y-123688538D01*
X177509403Y-123503523D01*
X177642492Y-123341356D01*
X177804659Y-123208268D01*
X177989674Y-123109376D01*
X178056592Y-123089077D01*
X178190426Y-123048478D01*
X178224784Y-123045094D01*
X178399203Y-123027915D01*
X178573623Y-123045094D01*
X178573623Y-123045094D01*
G37*
G36*
X134777008Y-124091758D02*
X134854137Y-124099354D01*
X134986088Y-124139381D01*
X135052064Y-124159394D01*
X135234473Y-124256894D01*
X135394355Y-124388107D01*
X135525568Y-124547989D01*
X135623068Y-124730398D01*
X135623068Y-124730399D01*
X135683108Y-124928325D01*
X135703381Y-125134161D01*
X135683108Y-125339997D01*
X135650926Y-125446086D01*
X135623068Y-125537924D01*
X135525568Y-125720333D01*
X135394355Y-125880215D01*
X135234473Y-126011428D01*
X135052064Y-126108928D01*
X134986088Y-126128941D01*
X134854137Y-126168968D01*
X134777008Y-126176565D01*
X134699881Y-126184161D01*
X134596721Y-126184161D01*
X134519594Y-126176565D01*
X134442465Y-126168968D01*
X134310514Y-126128941D01*
X134244538Y-126108928D01*
X134062129Y-126011428D01*
X133902247Y-125880215D01*
X133771034Y-125720333D01*
X133673534Y-125537924D01*
X133645676Y-125446086D01*
X133613494Y-125339997D01*
X133593221Y-125134161D01*
X133613494Y-124928325D01*
X133673534Y-124730399D01*
X133673534Y-124730398D01*
X133771034Y-124547989D01*
X133902247Y-124388107D01*
X134062129Y-124256894D01*
X134244538Y-124159394D01*
X134310514Y-124139381D01*
X134442465Y-124099354D01*
X134519594Y-124091758D01*
X134596721Y-124084161D01*
X134699881Y-124084161D01*
X134777008Y-124091758D01*
X134777008Y-124091758D01*
G37*
G36*
X176033623Y-123045094D02*
X176067981Y-123048478D01*
X176201815Y-123089077D01*
X176268733Y-123109376D01*
X176453748Y-123208268D01*
X176615915Y-123341356D01*
X176749003Y-123503523D01*
X176847895Y-123688539D01*
X176868194Y-123755457D01*
X176908793Y-123889291D01*
X176908793Y-123889293D01*
X176924203Y-124045751D01*
X176924203Y-124450386D01*
X176914590Y-124547989D01*
X176908793Y-124606846D01*
X176871313Y-124730398D01*
X176847895Y-124807598D01*
X176749003Y-124992613D01*
X176615915Y-125154780D01*
X176453748Y-125287868D01*
X176268732Y-125386760D01*
X176201814Y-125407059D01*
X176067980Y-125447658D01*
X176033622Y-125451042D01*
X175859203Y-125468221D01*
X175684783Y-125451042D01*
X175650425Y-125447658D01*
X175516591Y-125407059D01*
X175449673Y-125386760D01*
X175264658Y-125287868D01*
X175102491Y-125154780D01*
X174969403Y-124992613D01*
X174870511Y-124807597D01*
X174847093Y-124730398D01*
X174809613Y-124606845D01*
X174803816Y-124547989D01*
X174794203Y-124450385D01*
X174794203Y-124045750D01*
X174809613Y-123889292D01*
X174809613Y-123889290D01*
X174833972Y-123808990D01*
X174870511Y-123688538D01*
X174969403Y-123503523D01*
X175102492Y-123341356D01*
X175264659Y-123208268D01*
X175449674Y-123109376D01*
X175516592Y-123089077D01*
X175650426Y-123048478D01*
X175684784Y-123045094D01*
X175859203Y-123027915D01*
X176033623Y-123045094D01*
X176033623Y-123045094D01*
G37*
G36*
X181113623Y-123045094D02*
X181147981Y-123048478D01*
X181281815Y-123089077D01*
X181348733Y-123109376D01*
X181533748Y-123208268D01*
X181695915Y-123341356D01*
X181829003Y-123503523D01*
X181927895Y-123688539D01*
X181948194Y-123755457D01*
X181988793Y-123889291D01*
X181988793Y-123889293D01*
X182004203Y-124045751D01*
X182004203Y-124450386D01*
X181994590Y-124547989D01*
X181988793Y-124606846D01*
X181951313Y-124730398D01*
X181927895Y-124807598D01*
X181829003Y-124992613D01*
X181695915Y-125154780D01*
X181533748Y-125287868D01*
X181348732Y-125386760D01*
X181281814Y-125407059D01*
X181147980Y-125447658D01*
X181113622Y-125451042D01*
X180939203Y-125468221D01*
X180764783Y-125451042D01*
X180730425Y-125447658D01*
X180596591Y-125407059D01*
X180529673Y-125386760D01*
X180344658Y-125287868D01*
X180182491Y-125154780D01*
X180049403Y-124992613D01*
X179950511Y-124807597D01*
X179927093Y-124730398D01*
X179889613Y-124606845D01*
X179883816Y-124547989D01*
X179874203Y-124450385D01*
X179874203Y-124045750D01*
X179889613Y-123889292D01*
X179889613Y-123889290D01*
X179913972Y-123808990D01*
X179950511Y-123688538D01*
X180049403Y-123503523D01*
X180182492Y-123341356D01*
X180344659Y-123208268D01*
X180529674Y-123109376D01*
X180596592Y-123089077D01*
X180730426Y-123048478D01*
X180764784Y-123045094D01*
X180939203Y-123027915D01*
X181113623Y-123045094D01*
X181113623Y-123045094D01*
G37*
G36*
X184544203Y-125463068D02*
X182414203Y-125463068D01*
X182414203Y-123033068D01*
X184544203Y-123033068D01*
X184544203Y-125463068D01*
X184544203Y-125463068D01*
G37*
G36*
X134777008Y-121551757D02*
X134854137Y-121559354D01*
X134986088Y-121599381D01*
X135052064Y-121619394D01*
X135234473Y-121716894D01*
X135394355Y-121848107D01*
X135525568Y-122007989D01*
X135623068Y-122190398D01*
X135623068Y-122190399D01*
X135683108Y-122388325D01*
X135703381Y-122594161D01*
X135683108Y-122799997D01*
X135672425Y-122835214D01*
X135623068Y-122997924D01*
X135525568Y-123180333D01*
X135394355Y-123340215D01*
X135234473Y-123471428D01*
X135052064Y-123568928D01*
X134986088Y-123588941D01*
X134854137Y-123628968D01*
X134777008Y-123636565D01*
X134699881Y-123644161D01*
X134596721Y-123644161D01*
X134519594Y-123636565D01*
X134442465Y-123628968D01*
X134310514Y-123588941D01*
X134244538Y-123568928D01*
X134062129Y-123471428D01*
X133902247Y-123340215D01*
X133771034Y-123180333D01*
X133673534Y-122997924D01*
X133624177Y-122835214D01*
X133613494Y-122799997D01*
X133593221Y-122594161D01*
X133613494Y-122388325D01*
X133673534Y-122190399D01*
X133673534Y-122190398D01*
X133771034Y-122007989D01*
X133902247Y-121848107D01*
X134062129Y-121716894D01*
X134244538Y-121619394D01*
X134310514Y-121599381D01*
X134442465Y-121559354D01*
X134519594Y-121551757D01*
X134596721Y-121544161D01*
X134699881Y-121544161D01*
X134777008Y-121551757D01*
X134777008Y-121551757D01*
G37*
G36*
X156112007Y-121046756D02*
X156189136Y-121054353D01*
X156321087Y-121094380D01*
X156387063Y-121114393D01*
X156569472Y-121211893D01*
X156729354Y-121343106D01*
X156860567Y-121502988D01*
X156958067Y-121685397D01*
X156958067Y-121685398D01*
X157018107Y-121883324D01*
X157038380Y-122089160D01*
X157018107Y-122294996D01*
X156989796Y-122388325D01*
X156958067Y-122492923D01*
X156860567Y-122675332D01*
X156729354Y-122835214D01*
X156569472Y-122966427D01*
X156387063Y-123063927D01*
X156321087Y-123083940D01*
X156189136Y-123123967D01*
X156112007Y-123131564D01*
X156034880Y-123139160D01*
X155931720Y-123139160D01*
X155854593Y-123131564D01*
X155777464Y-123123967D01*
X155645513Y-123083940D01*
X155579537Y-123063927D01*
X155397128Y-122966427D01*
X155237246Y-122835214D01*
X155106033Y-122675332D01*
X155008533Y-122492923D01*
X154976804Y-122388325D01*
X154948493Y-122294996D01*
X154928220Y-122089160D01*
X154948493Y-121883324D01*
X155008533Y-121685398D01*
X155008533Y-121685397D01*
X155106033Y-121502988D01*
X155237246Y-121343106D01*
X155397128Y-121211893D01*
X155579537Y-121114393D01*
X155645513Y-121094380D01*
X155777464Y-121054353D01*
X155854593Y-121046756D01*
X155931720Y-121039160D01*
X156034880Y-121039160D01*
X156112007Y-121046756D01*
X156112007Y-121046756D01*
G37*
G36*
X106175850Y-119364932D02*
X106291769Y-119387989D01*
X106473758Y-119463371D01*
X106637543Y-119572809D01*
X106776831Y-119712097D01*
X106886269Y-119875882D01*
X106961651Y-120057871D01*
X107000080Y-120251069D01*
X107000080Y-120448051D01*
X106961651Y-120641249D01*
X106886269Y-120823238D01*
X106776831Y-120987023D01*
X106637543Y-121126311D01*
X106473758Y-121235749D01*
X106291769Y-121311131D01*
X106175850Y-121334188D01*
X106098573Y-121349560D01*
X105901587Y-121349560D01*
X105824310Y-121334188D01*
X105708391Y-121311131D01*
X105526402Y-121235749D01*
X105362617Y-121126311D01*
X105223329Y-120987023D01*
X105113891Y-120823238D01*
X105038509Y-120641249D01*
X105000080Y-120448051D01*
X105000080Y-120251069D01*
X105038509Y-120057871D01*
X105113891Y-119875882D01*
X105223329Y-119712097D01*
X105362617Y-119572809D01*
X105526402Y-119463371D01*
X105708391Y-119387989D01*
X105824310Y-119364932D01*
X105901587Y-119349560D01*
X106098573Y-119349560D01*
X106175850Y-119364932D01*
X106175850Y-119364932D01*
G37*
G36*
X113705308Y-119508185D02*
X113864547Y-119574144D01*
X114007863Y-119669905D01*
X114129735Y-119791777D01*
X114225496Y-119935093D01*
X114291455Y-120094332D01*
X114325080Y-120263379D01*
X114325080Y-120435741D01*
X114291455Y-120604788D01*
X114225496Y-120764027D01*
X114129735Y-120907343D01*
X114007863Y-121029215D01*
X113864547Y-121124976D01*
X113705308Y-121190935D01*
X113536261Y-121224560D01*
X113363899Y-121224560D01*
X113194852Y-121190935D01*
X113035613Y-121124976D01*
X112892297Y-121029215D01*
X112770425Y-120907343D01*
X112674664Y-120764027D01*
X112608705Y-120604788D01*
X112575080Y-120435741D01*
X112575080Y-120263379D01*
X112608705Y-120094332D01*
X112674664Y-119935093D01*
X112770425Y-119791777D01*
X112892297Y-119669905D01*
X113035613Y-119574144D01*
X113194852Y-119508185D01*
X113363899Y-119474560D01*
X113536261Y-119474560D01*
X113705308Y-119508185D01*
X113705308Y-119508185D01*
G37*
G36*
X134777008Y-119011757D02*
X134854137Y-119019354D01*
X134986088Y-119059381D01*
X135052064Y-119079394D01*
X135234473Y-119176894D01*
X135394355Y-119308107D01*
X135525568Y-119467989D01*
X135623068Y-119650398D01*
X135628985Y-119669905D01*
X135683108Y-119848325D01*
X135703381Y-120054161D01*
X135683108Y-120259997D01*
X135677274Y-120279228D01*
X135623068Y-120457924D01*
X135525568Y-120640333D01*
X135394355Y-120800215D01*
X135234473Y-120931428D01*
X135052064Y-121028928D01*
X135018333Y-121039160D01*
X134854137Y-121088968D01*
X134777008Y-121096565D01*
X134699881Y-121104161D01*
X134596721Y-121104161D01*
X134519594Y-121096565D01*
X134442465Y-121088968D01*
X134278269Y-121039160D01*
X134244538Y-121028928D01*
X134062129Y-120931428D01*
X133902247Y-120800215D01*
X133771034Y-120640333D01*
X133673534Y-120457924D01*
X133619328Y-120279228D01*
X133613494Y-120259997D01*
X133593221Y-120054161D01*
X133613494Y-119848325D01*
X133667617Y-119669905D01*
X133673534Y-119650398D01*
X133771034Y-119467989D01*
X133902247Y-119308107D01*
X134062129Y-119176894D01*
X134244538Y-119079394D01*
X134310514Y-119059381D01*
X134442465Y-119019354D01*
X134519594Y-119011757D01*
X134596721Y-119004161D01*
X134699881Y-119004161D01*
X134777008Y-119011757D01*
X134777008Y-119011757D01*
G37*
G36*
X157033300Y-120599160D02*
X154933300Y-120599160D01*
X154933300Y-118499160D01*
X157033300Y-118499160D01*
X157033300Y-120599160D01*
X157033300Y-120599160D01*
G37*
G36*
X64762421Y-117179993D02*
X65008536Y-117228948D01*
X65308962Y-117353389D01*
X65579339Y-117534049D01*
X65809275Y-117763985D01*
X65989935Y-118034362D01*
X66114376Y-118334788D01*
X66177815Y-118653719D01*
X66177815Y-118978899D01*
X66114376Y-119297830D01*
X65989935Y-119598256D01*
X65809275Y-119868633D01*
X65579339Y-120098569D01*
X65308962Y-120279229D01*
X65008536Y-120403670D01*
X64769338Y-120451249D01*
X64689606Y-120467109D01*
X64364424Y-120467109D01*
X64284692Y-120451249D01*
X64045494Y-120403670D01*
X63745068Y-120279229D01*
X63474691Y-120098569D01*
X63244755Y-119868633D01*
X63064095Y-119598256D01*
X62939654Y-119297830D01*
X62876215Y-118978899D01*
X62876215Y-118653719D01*
X62939654Y-118334788D01*
X63064095Y-118034362D01*
X63244755Y-117763985D01*
X63474691Y-117534049D01*
X63745068Y-117353389D01*
X64045494Y-117228948D01*
X64291609Y-117179993D01*
X64364424Y-117165509D01*
X64689606Y-117165509D01*
X64762421Y-117179993D01*
X64762421Y-117179993D01*
G37*
G36*
X94428361Y-117894567D02*
X94519144Y-117912625D01*
X94690177Y-117983469D01*
X94690178Y-117983470D01*
X94844105Y-118086321D01*
X94975003Y-118217219D01*
X94975005Y-118217222D01*
X95077855Y-118371147D01*
X95148699Y-118542180D01*
X95184815Y-118723747D01*
X95184815Y-118908871D01*
X95148699Y-119090438D01*
X95077855Y-119261471D01*
X95018995Y-119349560D01*
X94975003Y-119415399D01*
X94844105Y-119546297D01*
X94844102Y-119546299D01*
X94690177Y-119649149D01*
X94519144Y-119719993D01*
X94428360Y-119738051D01*
X94337579Y-119756109D01*
X94152451Y-119756109D01*
X94061670Y-119738051D01*
X93970886Y-119719993D01*
X93799853Y-119649149D01*
X93645928Y-119546299D01*
X93645925Y-119546297D01*
X93515027Y-119415399D01*
X93471035Y-119349560D01*
X93412175Y-119261471D01*
X93341331Y-119090438D01*
X93305215Y-118908871D01*
X93305215Y-118723747D01*
X93341331Y-118542180D01*
X93412175Y-118371147D01*
X93515025Y-118217222D01*
X93515027Y-118217219D01*
X93645925Y-118086321D01*
X93799852Y-117983470D01*
X93799853Y-117983469D01*
X93970886Y-117912625D01*
X94061669Y-117894567D01*
X94152451Y-117876509D01*
X94337579Y-117876509D01*
X94428361Y-117894567D01*
X94428361Y-117894567D01*
G37*
G36*
X135698301Y-118564161D02*
X133598301Y-118564161D01*
X133598301Y-116464161D01*
X135698301Y-116464161D01*
X135698301Y-118564161D01*
X135698301Y-118564161D01*
G37*
G36*
X70876815Y-118532509D02*
X67575215Y-118532509D01*
X67575215Y-115230909D01*
X70876815Y-115230909D01*
X70876815Y-118532509D01*
X70876815Y-118532509D01*
G37*
G36*
X179179347Y-115320436D02*
X179256476Y-115328033D01*
X179388427Y-115368060D01*
X179454403Y-115388073D01*
X179636812Y-115485573D01*
X179796694Y-115616786D01*
X179927907Y-115776668D01*
X180025407Y-115959077D01*
X180045420Y-116025053D01*
X180085447Y-116157004D01*
X180105720Y-116362840D01*
X180085447Y-116568676D01*
X180045420Y-116700627D01*
X180025407Y-116766603D01*
X179927907Y-116949012D01*
X179796694Y-117108894D01*
X179636812Y-117240107D01*
X179454403Y-117337607D01*
X179402376Y-117353389D01*
X179256476Y-117397647D01*
X179179347Y-117405244D01*
X179102220Y-117412840D01*
X178999060Y-117412840D01*
X178921933Y-117405244D01*
X178844804Y-117397647D01*
X178698904Y-117353389D01*
X178646877Y-117337607D01*
X178464468Y-117240107D01*
X178304586Y-117108894D01*
X178173373Y-116949012D01*
X178075873Y-116766603D01*
X178055860Y-116700627D01*
X178015833Y-116568676D01*
X177995560Y-116362840D01*
X178015833Y-116157004D01*
X178055860Y-116025053D01*
X178075873Y-115959077D01*
X178173373Y-115776668D01*
X178304586Y-115616786D01*
X178464468Y-115485573D01*
X178646877Y-115388073D01*
X178712853Y-115368060D01*
X178844804Y-115328033D01*
X178921933Y-115320436D01*
X178999060Y-115312840D01*
X179102220Y-115312840D01*
X179179347Y-115320436D01*
X179179347Y-115320436D01*
G37*
G36*
X94428360Y-115354567D02*
X94519144Y-115372625D01*
X94690177Y-115443469D01*
X94842024Y-115544930D01*
X94844105Y-115546321D01*
X94975003Y-115677219D01*
X94975005Y-115677222D01*
X95077855Y-115831147D01*
X95148699Y-116002180D01*
X95148699Y-116002182D01*
X95179496Y-116157004D01*
X95184815Y-116183747D01*
X95184815Y-116368871D01*
X95148699Y-116550438D01*
X95077855Y-116721471D01*
X94976394Y-116873318D01*
X94975003Y-116875399D01*
X94844105Y-117006297D01*
X94844102Y-117006299D01*
X94690177Y-117109149D01*
X94519144Y-117179993D01*
X94428361Y-117198051D01*
X94337579Y-117216109D01*
X94152451Y-117216109D01*
X94061669Y-117198051D01*
X93970886Y-117179993D01*
X93799853Y-117109149D01*
X93645928Y-117006299D01*
X93645925Y-117006297D01*
X93515027Y-116875399D01*
X93513636Y-116873318D01*
X93412175Y-116721471D01*
X93341331Y-116550438D01*
X93305215Y-116368871D01*
X93305215Y-116183747D01*
X93310535Y-116157004D01*
X93341331Y-116002182D01*
X93341331Y-116002180D01*
X93412175Y-115831147D01*
X93515025Y-115677222D01*
X93515027Y-115677219D01*
X93645925Y-115546321D01*
X93648006Y-115544930D01*
X93799853Y-115443469D01*
X93970886Y-115372625D01*
X94061670Y-115354567D01*
X94152451Y-115336509D01*
X94337579Y-115336509D01*
X94428360Y-115354567D01*
X94428360Y-115354567D01*
G37*
G36*
X179179347Y-112780436D02*
X179256476Y-112788033D01*
X179388427Y-112828060D01*
X179454403Y-112848073D01*
X179636812Y-112945573D01*
X179796694Y-113076786D01*
X179927907Y-113236668D01*
X180025407Y-113419077D01*
X180044572Y-113482258D01*
X180085447Y-113617004D01*
X180105720Y-113822840D01*
X180085447Y-114028676D01*
X180045420Y-114160627D01*
X180025407Y-114226603D01*
X179927907Y-114409012D01*
X179796694Y-114568894D01*
X179636812Y-114700107D01*
X179454403Y-114797607D01*
X179388427Y-114817620D01*
X179256476Y-114857647D01*
X179179347Y-114865244D01*
X179102220Y-114872840D01*
X178999060Y-114872840D01*
X178921933Y-114865244D01*
X178844804Y-114857647D01*
X178712853Y-114817620D01*
X178646877Y-114797607D01*
X178464468Y-114700107D01*
X178304586Y-114568894D01*
X178173373Y-114409012D01*
X178075873Y-114226603D01*
X178055860Y-114160627D01*
X178015833Y-114028676D01*
X177995560Y-113822840D01*
X178015833Y-113617004D01*
X178056708Y-113482258D01*
X178075873Y-113419077D01*
X178173373Y-113236668D01*
X178304586Y-113076786D01*
X178464468Y-112945573D01*
X178646877Y-112848073D01*
X178712853Y-112828060D01*
X178844804Y-112788033D01*
X178921933Y-112780436D01*
X178999060Y-112772840D01*
X179102220Y-112772840D01*
X179179347Y-112780436D01*
X179179347Y-112780436D01*
G37*
G36*
X94428361Y-112814567D02*
X94519144Y-112832625D01*
X94690177Y-112903469D01*
X94807627Y-112981947D01*
X94844105Y-113006321D01*
X94975003Y-113137219D01*
X94975005Y-113137222D01*
X95077855Y-113291147D01*
X95148699Y-113462180D01*
X95152693Y-113482260D01*
X95179496Y-113617004D01*
X95184815Y-113643747D01*
X95184815Y-113828871D01*
X95148699Y-114010438D01*
X95077855Y-114181471D01*
X94976394Y-114333318D01*
X94975003Y-114335399D01*
X94844105Y-114466297D01*
X94844102Y-114466299D01*
X94690177Y-114569149D01*
X94519144Y-114639993D01*
X94428361Y-114658051D01*
X94337579Y-114676109D01*
X94152451Y-114676109D01*
X94061669Y-114658051D01*
X93970886Y-114639993D01*
X93799853Y-114569149D01*
X93645928Y-114466299D01*
X93645925Y-114466297D01*
X93515027Y-114335399D01*
X93513636Y-114333318D01*
X93412175Y-114181471D01*
X93341331Y-114010438D01*
X93305215Y-113828871D01*
X93305215Y-113643747D01*
X93310535Y-113617004D01*
X93337337Y-113482260D01*
X93341331Y-113462180D01*
X93412175Y-113291147D01*
X93515025Y-113137222D01*
X93515027Y-113137219D01*
X93645925Y-113006321D01*
X93682403Y-112981947D01*
X93799853Y-112903469D01*
X93970886Y-112832625D01*
X94061669Y-112814567D01*
X94152451Y-112796509D01*
X94337579Y-112796509D01*
X94428361Y-112814567D01*
X94428361Y-112814567D01*
G37*
G36*
X163492323Y-110565060D02*
X163731521Y-110612639D01*
X164031947Y-110737080D01*
X164302324Y-110917740D01*
X164532260Y-111147676D01*
X164712920Y-111418053D01*
X164837361Y-111718479D01*
X164900800Y-112037410D01*
X164900800Y-112362590D01*
X164837361Y-112681521D01*
X164712920Y-112981947D01*
X164532260Y-113252324D01*
X164302324Y-113482260D01*
X164031947Y-113662920D01*
X163731521Y-113787361D01*
X163522835Y-113828871D01*
X163412591Y-113850800D01*
X163087409Y-113850800D01*
X162977165Y-113828871D01*
X162768479Y-113787361D01*
X162468053Y-113662920D01*
X162197676Y-113482260D01*
X161967740Y-113252324D01*
X161787080Y-112981947D01*
X161662639Y-112681521D01*
X161599200Y-112362590D01*
X161599200Y-112037410D01*
X161662639Y-111718479D01*
X161787080Y-111418053D01*
X161967740Y-111147676D01*
X162197676Y-110917740D01*
X162468053Y-110737080D01*
X162768479Y-110612639D01*
X163007677Y-110565060D01*
X163087409Y-110549200D01*
X163412591Y-110549200D01*
X163492323Y-110565060D01*
X163492323Y-110565060D01*
G37*
G36*
X180100640Y-112332840D02*
X178000640Y-112332840D01*
X178000640Y-110232840D01*
X180100640Y-110232840D01*
X180100640Y-112332840D01*
X180100640Y-112332840D01*
G37*
G36*
X94428360Y-110274567D02*
X94519144Y-110292625D01*
X94690177Y-110363469D01*
X94690178Y-110363470D01*
X94844105Y-110466321D01*
X94975003Y-110597219D01*
X94975005Y-110597222D01*
X95077855Y-110751147D01*
X95148699Y-110922180D01*
X95184815Y-111103747D01*
X95184815Y-111288871D01*
X95148699Y-111470438D01*
X95077855Y-111641471D01*
X94976394Y-111793318D01*
X94975003Y-111795399D01*
X94844105Y-111926297D01*
X94844102Y-111926299D01*
X94690177Y-112029149D01*
X94519144Y-112099993D01*
X94428360Y-112118051D01*
X94337579Y-112136109D01*
X94152451Y-112136109D01*
X94061670Y-112118051D01*
X93970886Y-112099993D01*
X93799853Y-112029149D01*
X93645928Y-111926299D01*
X93645925Y-111926297D01*
X93515027Y-111795399D01*
X93513636Y-111793318D01*
X93412175Y-111641471D01*
X93341331Y-111470438D01*
X93305215Y-111288871D01*
X93305215Y-111103747D01*
X93341331Y-110922180D01*
X93412175Y-110751147D01*
X93515025Y-110597222D01*
X93515027Y-110597219D01*
X93645925Y-110466321D01*
X93799852Y-110363470D01*
X93799853Y-110363469D01*
X93970886Y-110292625D01*
X94061670Y-110274567D01*
X94152451Y-110256509D01*
X94337579Y-110256509D01*
X94428360Y-110274567D01*
X94428360Y-110274567D01*
G37*
G36*
X69855338Y-105492491D02*
X70460476Y-105676057D01*
X71018174Y-105974153D01*
X71507001Y-106375323D01*
X71908171Y-106864150D01*
X72206267Y-107421848D01*
X72389833Y-108026986D01*
X72451816Y-108656308D01*
X72451816Y-108656310D01*
X72389833Y-109285632D01*
X72206267Y-109890770D01*
X71908171Y-110448468D01*
X71507001Y-110937295D01*
X71018174Y-111338465D01*
X70460476Y-111636561D01*
X69855338Y-111820127D01*
X69226016Y-111882110D01*
X69226014Y-111882110D01*
X68596692Y-111820127D01*
X67991554Y-111636561D01*
X67433856Y-111338465D01*
X66945029Y-110937295D01*
X66543859Y-110448468D01*
X66245763Y-109890770D01*
X66062197Y-109285632D01*
X66000214Y-108656310D01*
X66000214Y-108656308D01*
X66062197Y-108026986D01*
X66245763Y-107421848D01*
X66543859Y-106864150D01*
X66945029Y-106375323D01*
X67433856Y-105974153D01*
X67991554Y-105676057D01*
X68596692Y-105492491D01*
X69226014Y-105430508D01*
X69226016Y-105430508D01*
X69855338Y-105492491D01*
X69855338Y-105492491D01*
G37*
G36*
X94428360Y-107734567D02*
X94519144Y-107752625D01*
X94690177Y-107823469D01*
X94690178Y-107823470D01*
X94844105Y-107926321D01*
X94975003Y-108057219D01*
X94975005Y-108057222D01*
X95077855Y-108211147D01*
X95148699Y-108382180D01*
X95184815Y-108563747D01*
X95184815Y-108748871D01*
X95148699Y-108930438D01*
X95077855Y-109101471D01*
X95077854Y-109101472D01*
X94975003Y-109255399D01*
X94844105Y-109386297D01*
X94844102Y-109386299D01*
X94690177Y-109489149D01*
X94519144Y-109559993D01*
X94428361Y-109578051D01*
X94337579Y-109596109D01*
X94152451Y-109596109D01*
X94061669Y-109578051D01*
X93970886Y-109559993D01*
X93799853Y-109489149D01*
X93645928Y-109386299D01*
X93645925Y-109386297D01*
X93515027Y-109255399D01*
X93412176Y-109101472D01*
X93412175Y-109101471D01*
X93341331Y-108930438D01*
X93305215Y-108748871D01*
X93305215Y-108563747D01*
X93341331Y-108382180D01*
X93412175Y-108211147D01*
X93515025Y-108057222D01*
X93515027Y-108057219D01*
X93645925Y-107926321D01*
X93799852Y-107823470D01*
X93799853Y-107823469D01*
X93970886Y-107752625D01*
X94061670Y-107734567D01*
X94152451Y-107716509D01*
X94337579Y-107716509D01*
X94428360Y-107734567D01*
X94428360Y-107734567D01*
G37*
G36*
X94428361Y-105194567D02*
X94519144Y-105212625D01*
X94690177Y-105283469D01*
X94690178Y-105283470D01*
X94844105Y-105386321D01*
X94975003Y-105517219D01*
X94975005Y-105517222D01*
X95077855Y-105671147D01*
X95148699Y-105842180D01*
X95184815Y-106023747D01*
X95184815Y-106208871D01*
X95148699Y-106390438D01*
X95077855Y-106561471D01*
X95077854Y-106561472D01*
X94975003Y-106715399D01*
X94844105Y-106846297D01*
X94844102Y-106846299D01*
X94690177Y-106949149D01*
X94519144Y-107019993D01*
X94428360Y-107038051D01*
X94337579Y-107056109D01*
X94152451Y-107056109D01*
X94061670Y-107038051D01*
X93970886Y-107019993D01*
X93799853Y-106949149D01*
X93645928Y-106846299D01*
X93645925Y-106846297D01*
X93515027Y-106715399D01*
X93412176Y-106561472D01*
X93412175Y-106561471D01*
X93341331Y-106390438D01*
X93305215Y-106208871D01*
X93305215Y-106023747D01*
X93341331Y-105842180D01*
X93412175Y-105671147D01*
X93515025Y-105517222D01*
X93515027Y-105517219D01*
X93645925Y-105386321D01*
X93799852Y-105283470D01*
X93799853Y-105283469D01*
X93970886Y-105212625D01*
X94061670Y-105194567D01*
X94152451Y-105176509D01*
X94337579Y-105176509D01*
X94428361Y-105194567D01*
X94428361Y-105194567D01*
G37*
G36*
X94428361Y-102654567D02*
X94519144Y-102672625D01*
X94690177Y-102743469D01*
X94690178Y-102743470D01*
X94844105Y-102846321D01*
X94975003Y-102977219D01*
X94975005Y-102977222D01*
X95077855Y-103131147D01*
X95148699Y-103302180D01*
X95184815Y-103483747D01*
X95184815Y-103668871D01*
X95148699Y-103850438D01*
X95077855Y-104021471D01*
X95077854Y-104021472D01*
X94975003Y-104175399D01*
X94844105Y-104306297D01*
X94844102Y-104306299D01*
X94690177Y-104409149D01*
X94519144Y-104479993D01*
X94428360Y-104498051D01*
X94337579Y-104516109D01*
X94152451Y-104516109D01*
X94061670Y-104498051D01*
X93970886Y-104479993D01*
X93799853Y-104409149D01*
X93645928Y-104306299D01*
X93645925Y-104306297D01*
X93515027Y-104175399D01*
X93412176Y-104021472D01*
X93412175Y-104021471D01*
X93341331Y-103850438D01*
X93305215Y-103668871D01*
X93305215Y-103483747D01*
X93341331Y-103302180D01*
X93412175Y-103131147D01*
X93515025Y-102977222D01*
X93515027Y-102977219D01*
X93645925Y-102846321D01*
X93799852Y-102743470D01*
X93799853Y-102743469D01*
X93970886Y-102672625D01*
X94061669Y-102654567D01*
X94152451Y-102636509D01*
X94337579Y-102636509D01*
X94428361Y-102654567D01*
X94428361Y-102654567D01*
G37*
G36*
X133731467Y-101345797D02*
X133808596Y-101353393D01*
X133940547Y-101393420D01*
X134006523Y-101413433D01*
X134188932Y-101510933D01*
X134348814Y-101642146D01*
X134480027Y-101802028D01*
X134577527Y-101984437D01*
X134577527Y-101984438D01*
X134637567Y-102182364D01*
X134657840Y-102388200D01*
X134637567Y-102594036D01*
X134624683Y-102636509D01*
X134577527Y-102791963D01*
X134480027Y-102974372D01*
X134348814Y-103134254D01*
X134188932Y-103265467D01*
X134006523Y-103362967D01*
X133940547Y-103382980D01*
X133808596Y-103423007D01*
X133731467Y-103430604D01*
X133654340Y-103438200D01*
X133551180Y-103438200D01*
X133474053Y-103430603D01*
X133396924Y-103423007D01*
X133264973Y-103382980D01*
X133198997Y-103362967D01*
X133016588Y-103265467D01*
X132856706Y-103134254D01*
X132725493Y-102974372D01*
X132627993Y-102791963D01*
X132580837Y-102636509D01*
X132567953Y-102594036D01*
X132547680Y-102388200D01*
X132567953Y-102182364D01*
X132627993Y-101984438D01*
X132627993Y-101984437D01*
X132725493Y-101802028D01*
X132856706Y-101642146D01*
X133016588Y-101510933D01*
X133198997Y-101413433D01*
X133264973Y-101393420D01*
X133396924Y-101353393D01*
X133474053Y-101345796D01*
X133551180Y-101338200D01*
X133654340Y-101338200D01*
X133731467Y-101345797D01*
X133731467Y-101345797D01*
G37*
G36*
X141351467Y-101345797D02*
X141428596Y-101353393D01*
X141560547Y-101393420D01*
X141626523Y-101413433D01*
X141808932Y-101510933D01*
X141968814Y-101642146D01*
X142100027Y-101802028D01*
X142197527Y-101984437D01*
X142197527Y-101984438D01*
X142257567Y-102182364D01*
X142277840Y-102388200D01*
X142257567Y-102594036D01*
X142244683Y-102636509D01*
X142197527Y-102791963D01*
X142100027Y-102974372D01*
X141968814Y-103134254D01*
X141808932Y-103265467D01*
X141626523Y-103362967D01*
X141560547Y-103382980D01*
X141428596Y-103423007D01*
X141351467Y-103430604D01*
X141274340Y-103438200D01*
X141171180Y-103438200D01*
X141094053Y-103430603D01*
X141016924Y-103423007D01*
X140884973Y-103382980D01*
X140818997Y-103362967D01*
X140636588Y-103265467D01*
X140476706Y-103134254D01*
X140345493Y-102974372D01*
X140247993Y-102791963D01*
X140200837Y-102636509D01*
X140187953Y-102594036D01*
X140167680Y-102388200D01*
X140187953Y-102182364D01*
X140247993Y-101984438D01*
X140247993Y-101984437D01*
X140345493Y-101802028D01*
X140476706Y-101642146D01*
X140636588Y-101510933D01*
X140818997Y-101413433D01*
X140884973Y-101393420D01*
X141016924Y-101353393D01*
X141094053Y-101345796D01*
X141171180Y-101338200D01*
X141274340Y-101338200D01*
X141351467Y-101345797D01*
X141351467Y-101345797D01*
G37*
G36*
X143891467Y-101345797D02*
X143968596Y-101353393D01*
X144100547Y-101393420D01*
X144166523Y-101413433D01*
X144348932Y-101510933D01*
X144508814Y-101642146D01*
X144640027Y-101802028D01*
X144737527Y-101984437D01*
X144737527Y-101984438D01*
X144797567Y-102182364D01*
X144817840Y-102388200D01*
X144797567Y-102594036D01*
X144784683Y-102636509D01*
X144737527Y-102791963D01*
X144640027Y-102974372D01*
X144508814Y-103134254D01*
X144348932Y-103265467D01*
X144166523Y-103362967D01*
X144100547Y-103382980D01*
X143968596Y-103423007D01*
X143891467Y-103430604D01*
X143814340Y-103438200D01*
X143711180Y-103438200D01*
X143634053Y-103430603D01*
X143556924Y-103423007D01*
X143424973Y-103382980D01*
X143358997Y-103362967D01*
X143176588Y-103265467D01*
X143016706Y-103134254D01*
X142885493Y-102974372D01*
X142787993Y-102791963D01*
X142740837Y-102636509D01*
X142727953Y-102594036D01*
X142707680Y-102388200D01*
X142727953Y-102182364D01*
X142787993Y-101984438D01*
X142787993Y-101984437D01*
X142885493Y-101802028D01*
X143016706Y-101642146D01*
X143176588Y-101510933D01*
X143358997Y-101413433D01*
X143424973Y-101393420D01*
X143556924Y-101353393D01*
X143634053Y-101345796D01*
X143711180Y-101338200D01*
X143814340Y-101338200D01*
X143891467Y-101345797D01*
X143891467Y-101345797D01*
G37*
G36*
X146431467Y-101345797D02*
X146508596Y-101353393D01*
X146640547Y-101393420D01*
X146706523Y-101413433D01*
X146888932Y-101510933D01*
X147048814Y-101642146D01*
X147180027Y-101802028D01*
X147277527Y-101984437D01*
X147277527Y-101984438D01*
X147337567Y-102182364D01*
X147357840Y-102388200D01*
X147337567Y-102594036D01*
X147324683Y-102636509D01*
X147277527Y-102791963D01*
X147180027Y-102974372D01*
X147048814Y-103134254D01*
X146888932Y-103265467D01*
X146706523Y-103362967D01*
X146640547Y-103382980D01*
X146508596Y-103423007D01*
X146431467Y-103430604D01*
X146354340Y-103438200D01*
X146251180Y-103438200D01*
X146174053Y-103430603D01*
X146096924Y-103423007D01*
X145964973Y-103382980D01*
X145898997Y-103362967D01*
X145716588Y-103265467D01*
X145556706Y-103134254D01*
X145425493Y-102974372D01*
X145327993Y-102791963D01*
X145280837Y-102636509D01*
X145267953Y-102594036D01*
X145247680Y-102388200D01*
X145267953Y-102182364D01*
X145327993Y-101984438D01*
X145327993Y-101984437D01*
X145425493Y-101802028D01*
X145556706Y-101642146D01*
X145716588Y-101510933D01*
X145898997Y-101413433D01*
X145964973Y-101393420D01*
X146096924Y-101353393D01*
X146174053Y-101345796D01*
X146251180Y-101338200D01*
X146354340Y-101338200D01*
X146431467Y-101345797D01*
X146431467Y-101345797D01*
G37*
G36*
X151511467Y-101345797D02*
X151588596Y-101353393D01*
X151720547Y-101393420D01*
X151786523Y-101413433D01*
X151968932Y-101510933D01*
X152128814Y-101642146D01*
X152260027Y-101802028D01*
X152357527Y-101984437D01*
X152357527Y-101984438D01*
X152417567Y-102182364D01*
X152437840Y-102388200D01*
X152417567Y-102594036D01*
X152404683Y-102636509D01*
X152357527Y-102791963D01*
X152260027Y-102974372D01*
X152128814Y-103134254D01*
X151968932Y-103265467D01*
X151786523Y-103362967D01*
X151720547Y-103382980D01*
X151588596Y-103423007D01*
X151511467Y-103430604D01*
X151434340Y-103438200D01*
X151331180Y-103438200D01*
X151254053Y-103430603D01*
X151176924Y-103423007D01*
X151044973Y-103382980D01*
X150978997Y-103362967D01*
X150796588Y-103265467D01*
X150636706Y-103134254D01*
X150505493Y-102974372D01*
X150407993Y-102791963D01*
X150360837Y-102636509D01*
X150347953Y-102594036D01*
X150327680Y-102388200D01*
X150347953Y-102182364D01*
X150407993Y-101984438D01*
X150407993Y-101984437D01*
X150505493Y-101802028D01*
X150636706Y-101642146D01*
X150796588Y-101510933D01*
X150978997Y-101413433D01*
X151044973Y-101393420D01*
X151176924Y-101353393D01*
X151254053Y-101345796D01*
X151331180Y-101338200D01*
X151434340Y-101338200D01*
X151511467Y-101345797D01*
X151511467Y-101345797D01*
G37*
G36*
X138811467Y-101345797D02*
X138888596Y-101353393D01*
X139020547Y-101393420D01*
X139086523Y-101413433D01*
X139268932Y-101510933D01*
X139428814Y-101642146D01*
X139560027Y-101802028D01*
X139657527Y-101984437D01*
X139657527Y-101984438D01*
X139717567Y-102182364D01*
X139737840Y-102388200D01*
X139717567Y-102594036D01*
X139704683Y-102636509D01*
X139657527Y-102791963D01*
X139560027Y-102974372D01*
X139428814Y-103134254D01*
X139268932Y-103265467D01*
X139086523Y-103362967D01*
X139020547Y-103382980D01*
X138888596Y-103423007D01*
X138811467Y-103430604D01*
X138734340Y-103438200D01*
X138631180Y-103438200D01*
X138554053Y-103430603D01*
X138476924Y-103423007D01*
X138344973Y-103382980D01*
X138278997Y-103362967D01*
X138096588Y-103265467D01*
X137936706Y-103134254D01*
X137805493Y-102974372D01*
X137707993Y-102791963D01*
X137660837Y-102636509D01*
X137647953Y-102594036D01*
X137627680Y-102388200D01*
X137647953Y-102182364D01*
X137707993Y-101984438D01*
X137707993Y-101984437D01*
X137805493Y-101802028D01*
X137936706Y-101642146D01*
X138096588Y-101510933D01*
X138278997Y-101413433D01*
X138344973Y-101393420D01*
X138476924Y-101353393D01*
X138554053Y-101345796D01*
X138631180Y-101338200D01*
X138734340Y-101338200D01*
X138811467Y-101345797D01*
X138811467Y-101345797D01*
G37*
G36*
X114332760Y-103438200D02*
X112232760Y-103438200D01*
X112232760Y-101338200D01*
X114332760Y-101338200D01*
X114332760Y-103438200D01*
X114332760Y-103438200D01*
G37*
G36*
X115951467Y-101345797D02*
X116028596Y-101353393D01*
X116160547Y-101393420D01*
X116226523Y-101413433D01*
X116408932Y-101510933D01*
X116568814Y-101642146D01*
X116700027Y-101802028D01*
X116797527Y-101984437D01*
X116797527Y-101984438D01*
X116857567Y-102182364D01*
X116877840Y-102388200D01*
X116857567Y-102594036D01*
X116844683Y-102636509D01*
X116797527Y-102791963D01*
X116700027Y-102974372D01*
X116568814Y-103134254D01*
X116408932Y-103265467D01*
X116226523Y-103362967D01*
X116160547Y-103382980D01*
X116028596Y-103423007D01*
X115951467Y-103430604D01*
X115874340Y-103438200D01*
X115771180Y-103438200D01*
X115694053Y-103430603D01*
X115616924Y-103423007D01*
X115484973Y-103382980D01*
X115418997Y-103362967D01*
X115236588Y-103265467D01*
X115076706Y-103134254D01*
X114945493Y-102974372D01*
X114847993Y-102791963D01*
X114800837Y-102636509D01*
X114787953Y-102594036D01*
X114767680Y-102388200D01*
X114787953Y-102182364D01*
X114847993Y-101984438D01*
X114847993Y-101984437D01*
X114945493Y-101802028D01*
X115076706Y-101642146D01*
X115236588Y-101510933D01*
X115418997Y-101413433D01*
X115484973Y-101393420D01*
X115616924Y-101353393D01*
X115694053Y-101345796D01*
X115771180Y-101338200D01*
X115874340Y-101338200D01*
X115951467Y-101345797D01*
X115951467Y-101345797D01*
G37*
G36*
X121031467Y-101345797D02*
X121108596Y-101353393D01*
X121240547Y-101393420D01*
X121306523Y-101413433D01*
X121488932Y-101510933D01*
X121648814Y-101642146D01*
X121780027Y-101802028D01*
X121877527Y-101984437D01*
X121877527Y-101984438D01*
X121937567Y-102182364D01*
X121957840Y-102388200D01*
X121937567Y-102594036D01*
X121924683Y-102636509D01*
X121877527Y-102791963D01*
X121780027Y-102974372D01*
X121648814Y-103134254D01*
X121488932Y-103265467D01*
X121306523Y-103362967D01*
X121240547Y-103382980D01*
X121108596Y-103423007D01*
X121031467Y-103430604D01*
X120954340Y-103438200D01*
X120851180Y-103438200D01*
X120774053Y-103430603D01*
X120696924Y-103423007D01*
X120564973Y-103382980D01*
X120498997Y-103362967D01*
X120316588Y-103265467D01*
X120156706Y-103134254D01*
X120025493Y-102974372D01*
X119927993Y-102791963D01*
X119880837Y-102636509D01*
X119867953Y-102594036D01*
X119847680Y-102388200D01*
X119867953Y-102182364D01*
X119927993Y-101984438D01*
X119927993Y-101984437D01*
X120025493Y-101802028D01*
X120156706Y-101642146D01*
X120316588Y-101510933D01*
X120498997Y-101413433D01*
X120564973Y-101393420D01*
X120696924Y-101353393D01*
X120774053Y-101345796D01*
X120851180Y-101338200D01*
X120954340Y-101338200D01*
X121031467Y-101345797D01*
X121031467Y-101345797D01*
G37*
G36*
X118491467Y-101345797D02*
X118568596Y-101353393D01*
X118700547Y-101393420D01*
X118766523Y-101413433D01*
X118948932Y-101510933D01*
X119108814Y-101642146D01*
X119240027Y-101802028D01*
X119337527Y-101984437D01*
X119337527Y-101984438D01*
X119397567Y-102182364D01*
X119417840Y-102388200D01*
X119397567Y-102594036D01*
X119384683Y-102636509D01*
X119337527Y-102791963D01*
X119240027Y-102974372D01*
X119108814Y-103134254D01*
X118948932Y-103265467D01*
X118766523Y-103362967D01*
X118700547Y-103382980D01*
X118568596Y-103423007D01*
X118491467Y-103430604D01*
X118414340Y-103438200D01*
X118311180Y-103438200D01*
X118234053Y-103430603D01*
X118156924Y-103423007D01*
X118024973Y-103382980D01*
X117958997Y-103362967D01*
X117776588Y-103265467D01*
X117616706Y-103134254D01*
X117485493Y-102974372D01*
X117387993Y-102791963D01*
X117340837Y-102636509D01*
X117327953Y-102594036D01*
X117307680Y-102388200D01*
X117327953Y-102182364D01*
X117387993Y-101984438D01*
X117387993Y-101984437D01*
X117485493Y-101802028D01*
X117616706Y-101642146D01*
X117776588Y-101510933D01*
X117958997Y-101413433D01*
X118024973Y-101393420D01*
X118156924Y-101353393D01*
X118234053Y-101345796D01*
X118311180Y-101338200D01*
X118414340Y-101338200D01*
X118491467Y-101345797D01*
X118491467Y-101345797D01*
G37*
G36*
X148971467Y-101345797D02*
X149048596Y-101353393D01*
X149180547Y-101393420D01*
X149246523Y-101413433D01*
X149428932Y-101510933D01*
X149588814Y-101642146D01*
X149720027Y-101802028D01*
X149817527Y-101984437D01*
X149817527Y-101984438D01*
X149877567Y-102182364D01*
X149897840Y-102388200D01*
X149877567Y-102594036D01*
X149864683Y-102636509D01*
X149817527Y-102791963D01*
X149720027Y-102974372D01*
X149588814Y-103134254D01*
X149428932Y-103265467D01*
X149246523Y-103362967D01*
X149180547Y-103382980D01*
X149048596Y-103423007D01*
X148971467Y-103430604D01*
X148894340Y-103438200D01*
X148791180Y-103438200D01*
X148714053Y-103430603D01*
X148636924Y-103423007D01*
X148504973Y-103382980D01*
X148438997Y-103362967D01*
X148256588Y-103265467D01*
X148096706Y-103134254D01*
X147965493Y-102974372D01*
X147867993Y-102791963D01*
X147820837Y-102636509D01*
X147807953Y-102594036D01*
X147787680Y-102388200D01*
X147807953Y-102182364D01*
X147867993Y-101984438D01*
X147867993Y-101984437D01*
X147965493Y-101802028D01*
X148096706Y-101642146D01*
X148256588Y-101510933D01*
X148438997Y-101413433D01*
X148504973Y-101393420D01*
X148636924Y-101353393D01*
X148714053Y-101345796D01*
X148791180Y-101338200D01*
X148894340Y-101338200D01*
X148971467Y-101345797D01*
X148971467Y-101345797D01*
G37*
G36*
X136271467Y-101345797D02*
X136348596Y-101353393D01*
X136480547Y-101393420D01*
X136546523Y-101413433D01*
X136728932Y-101510933D01*
X136888814Y-101642146D01*
X137020027Y-101802028D01*
X137117527Y-101984437D01*
X137117527Y-101984438D01*
X137177567Y-102182364D01*
X137197840Y-102388200D01*
X137177567Y-102594036D01*
X137164683Y-102636509D01*
X137117527Y-102791963D01*
X137020027Y-102974372D01*
X136888814Y-103134254D01*
X136728932Y-103265467D01*
X136546523Y-103362967D01*
X136480547Y-103382980D01*
X136348596Y-103423007D01*
X136271467Y-103430604D01*
X136194340Y-103438200D01*
X136091180Y-103438200D01*
X136014053Y-103430603D01*
X135936924Y-103423007D01*
X135804973Y-103382980D01*
X135738997Y-103362967D01*
X135556588Y-103265467D01*
X135396706Y-103134254D01*
X135265493Y-102974372D01*
X135167993Y-102791963D01*
X135120837Y-102636509D01*
X135107953Y-102594036D01*
X135087680Y-102388200D01*
X135107953Y-102182364D01*
X135167993Y-101984438D01*
X135167993Y-101984437D01*
X135265493Y-101802028D01*
X135396706Y-101642146D01*
X135556588Y-101510933D01*
X135738997Y-101413433D01*
X135804973Y-101393420D01*
X135936924Y-101353393D01*
X136014053Y-101345796D01*
X136091180Y-101338200D01*
X136194340Y-101338200D01*
X136271467Y-101345797D01*
X136271467Y-101345797D01*
G37*
G36*
X131191467Y-101345797D02*
X131268596Y-101353393D01*
X131400547Y-101393420D01*
X131466523Y-101413433D01*
X131648932Y-101510933D01*
X131808814Y-101642146D01*
X131940027Y-101802028D01*
X132037527Y-101984437D01*
X132037527Y-101984438D01*
X132097567Y-102182364D01*
X132117840Y-102388200D01*
X132097567Y-102594036D01*
X132084683Y-102636509D01*
X132037527Y-102791963D01*
X131940027Y-102974372D01*
X131808814Y-103134254D01*
X131648932Y-103265467D01*
X131466523Y-103362967D01*
X131400547Y-103382980D01*
X131268596Y-103423007D01*
X131191467Y-103430604D01*
X131114340Y-103438200D01*
X131011180Y-103438200D01*
X130934053Y-103430603D01*
X130856924Y-103423007D01*
X130724973Y-103382980D01*
X130658997Y-103362967D01*
X130476588Y-103265467D01*
X130316706Y-103134254D01*
X130185493Y-102974372D01*
X130087993Y-102791963D01*
X130040837Y-102636509D01*
X130027953Y-102594036D01*
X130007680Y-102388200D01*
X130027953Y-102182364D01*
X130087993Y-101984438D01*
X130087993Y-101984437D01*
X130185493Y-101802028D01*
X130316706Y-101642146D01*
X130476588Y-101510933D01*
X130658997Y-101413433D01*
X130724973Y-101393420D01*
X130856924Y-101353393D01*
X130934053Y-101345796D01*
X131011180Y-101338200D01*
X131114340Y-101338200D01*
X131191467Y-101345797D01*
X131191467Y-101345797D01*
G37*
G36*
X128651467Y-101345797D02*
X128728596Y-101353393D01*
X128860547Y-101393420D01*
X128926523Y-101413433D01*
X129108932Y-101510933D01*
X129268814Y-101642146D01*
X129400027Y-101802028D01*
X129497527Y-101984437D01*
X129497527Y-101984438D01*
X129557567Y-102182364D01*
X129577840Y-102388200D01*
X129557567Y-102594036D01*
X129544683Y-102636509D01*
X129497527Y-102791963D01*
X129400027Y-102974372D01*
X129268814Y-103134254D01*
X129108932Y-103265467D01*
X128926523Y-103362967D01*
X128860547Y-103382980D01*
X128728596Y-103423007D01*
X128651467Y-103430604D01*
X128574340Y-103438200D01*
X128471180Y-103438200D01*
X128394053Y-103430603D01*
X128316924Y-103423007D01*
X128184973Y-103382980D01*
X128118997Y-103362967D01*
X127936588Y-103265467D01*
X127776706Y-103134254D01*
X127645493Y-102974372D01*
X127547993Y-102791963D01*
X127500837Y-102636509D01*
X127487953Y-102594036D01*
X127467680Y-102388200D01*
X127487953Y-102182364D01*
X127547993Y-101984438D01*
X127547993Y-101984437D01*
X127645493Y-101802028D01*
X127776706Y-101642146D01*
X127936588Y-101510933D01*
X128118997Y-101413433D01*
X128184973Y-101393420D01*
X128316924Y-101353393D01*
X128394053Y-101345796D01*
X128471180Y-101338200D01*
X128574340Y-101338200D01*
X128651467Y-101345797D01*
X128651467Y-101345797D01*
G37*
G36*
X126111467Y-101345797D02*
X126188596Y-101353393D01*
X126320547Y-101393420D01*
X126386523Y-101413433D01*
X126568932Y-101510933D01*
X126728814Y-101642146D01*
X126860027Y-101802028D01*
X126957527Y-101984437D01*
X126957527Y-101984438D01*
X127017567Y-102182364D01*
X127037840Y-102388200D01*
X127017567Y-102594036D01*
X127004683Y-102636509D01*
X126957527Y-102791963D01*
X126860027Y-102974372D01*
X126728814Y-103134254D01*
X126568932Y-103265467D01*
X126386523Y-103362967D01*
X126320547Y-103382980D01*
X126188596Y-103423007D01*
X126111467Y-103430604D01*
X126034340Y-103438200D01*
X125931180Y-103438200D01*
X125854053Y-103430603D01*
X125776924Y-103423007D01*
X125644973Y-103382980D01*
X125578997Y-103362967D01*
X125396588Y-103265467D01*
X125236706Y-103134254D01*
X125105493Y-102974372D01*
X125007993Y-102791963D01*
X124960837Y-102636509D01*
X124947953Y-102594036D01*
X124927680Y-102388200D01*
X124947953Y-102182364D01*
X125007993Y-101984438D01*
X125007993Y-101984437D01*
X125105493Y-101802028D01*
X125236706Y-101642146D01*
X125396588Y-101510933D01*
X125578997Y-101413433D01*
X125644973Y-101393420D01*
X125776924Y-101353393D01*
X125854053Y-101345796D01*
X125931180Y-101338200D01*
X126034340Y-101338200D01*
X126111467Y-101345797D01*
X126111467Y-101345797D01*
G37*
G36*
X123571467Y-101345797D02*
X123648596Y-101353393D01*
X123780547Y-101393420D01*
X123846523Y-101413433D01*
X124028932Y-101510933D01*
X124188814Y-101642146D01*
X124320027Y-101802028D01*
X124417527Y-101984437D01*
X124417527Y-101984438D01*
X124477567Y-102182364D01*
X124497840Y-102388200D01*
X124477567Y-102594036D01*
X124464683Y-102636509D01*
X124417527Y-102791963D01*
X124320027Y-102974372D01*
X124188814Y-103134254D01*
X124028932Y-103265467D01*
X123846523Y-103362967D01*
X123780547Y-103382980D01*
X123648596Y-103423007D01*
X123571467Y-103430604D01*
X123494340Y-103438200D01*
X123391180Y-103438200D01*
X123314053Y-103430603D01*
X123236924Y-103423007D01*
X123104973Y-103382980D01*
X123038997Y-103362967D01*
X122856588Y-103265467D01*
X122696706Y-103134254D01*
X122565493Y-102974372D01*
X122467993Y-102791963D01*
X122420837Y-102636509D01*
X122407953Y-102594036D01*
X122387680Y-102388200D01*
X122407953Y-102182364D01*
X122467993Y-101984438D01*
X122467993Y-101984437D01*
X122565493Y-101802028D01*
X122696706Y-101642146D01*
X122856588Y-101510933D01*
X123038997Y-101413433D01*
X123104973Y-101393420D01*
X123236924Y-101353393D01*
X123314053Y-101345796D01*
X123391180Y-101338200D01*
X123494340Y-101338200D01*
X123571467Y-101345797D01*
X123571467Y-101345797D01*
G37*
G36*
X103344720Y-103422960D02*
X101244720Y-103422960D01*
X101244720Y-101322960D01*
X103344720Y-101322960D01*
X103344720Y-103422960D01*
X103344720Y-103422960D01*
G37*
G36*
X104963427Y-101330557D02*
X105040556Y-101338153D01*
X105172507Y-101378180D01*
X105238483Y-101398193D01*
X105420892Y-101495693D01*
X105580774Y-101626906D01*
X105711987Y-101786788D01*
X105809487Y-101969197D01*
X105814110Y-101984437D01*
X105869527Y-102167124D01*
X105889800Y-102372960D01*
X105869527Y-102578796D01*
X105852020Y-102636509D01*
X105809487Y-102776723D01*
X105711987Y-102959132D01*
X105580774Y-103119014D01*
X105420892Y-103250227D01*
X105238483Y-103347727D01*
X105172507Y-103367740D01*
X105040556Y-103407767D01*
X104963427Y-103415363D01*
X104886300Y-103422960D01*
X104783140Y-103422960D01*
X104706013Y-103415364D01*
X104628884Y-103407767D01*
X104496933Y-103367740D01*
X104430957Y-103347727D01*
X104248548Y-103250227D01*
X104088666Y-103119014D01*
X103957453Y-102959132D01*
X103859953Y-102776723D01*
X103817420Y-102636509D01*
X103799913Y-102578796D01*
X103779640Y-102372960D01*
X103799913Y-102167124D01*
X103855330Y-101984437D01*
X103859953Y-101969197D01*
X103957453Y-101786788D01*
X104088666Y-101626906D01*
X104248548Y-101495693D01*
X104430957Y-101398193D01*
X104496933Y-101378180D01*
X104628884Y-101338153D01*
X104706013Y-101330556D01*
X104783140Y-101322960D01*
X104886300Y-101322960D01*
X104963427Y-101330557D01*
X104963427Y-101330557D01*
G37*
G36*
X70876815Y-102081709D02*
X67575215Y-102081709D01*
X67575215Y-98780109D01*
X70876815Y-98780109D01*
X70876815Y-102081709D01*
X70876815Y-102081709D01*
G37*
G36*
X94428360Y-100114567D02*
X94519144Y-100132625D01*
X94690177Y-100203469D01*
X94690178Y-100203470D01*
X94844105Y-100306321D01*
X94975003Y-100437219D01*
X94975005Y-100437222D01*
X95077855Y-100591147D01*
X95148699Y-100762180D01*
X95184815Y-100943747D01*
X95184815Y-101128871D01*
X95148699Y-101310438D01*
X95077855Y-101481471D01*
X95077854Y-101481472D01*
X94975003Y-101635399D01*
X94844105Y-101766297D01*
X94844102Y-101766299D01*
X94690177Y-101869149D01*
X94519144Y-101939993D01*
X94428361Y-101958051D01*
X94337579Y-101976109D01*
X94152451Y-101976109D01*
X94061669Y-101958051D01*
X93970886Y-101939993D01*
X93799853Y-101869149D01*
X93645928Y-101766299D01*
X93645925Y-101766297D01*
X93515027Y-101635399D01*
X93412176Y-101481472D01*
X93412175Y-101481471D01*
X93341331Y-101310438D01*
X93305215Y-101128871D01*
X93305215Y-100943747D01*
X93341331Y-100762180D01*
X93412175Y-100591147D01*
X93515025Y-100437222D01*
X93515027Y-100437219D01*
X93645925Y-100306321D01*
X93799852Y-100203470D01*
X93799853Y-100203469D01*
X93970886Y-100132625D01*
X94061670Y-100114567D01*
X94152451Y-100096509D01*
X94337579Y-100096509D01*
X94428360Y-100114567D01*
X94428360Y-100114567D01*
G37*
G36*
X64769338Y-96861369D02*
X65008536Y-96908948D01*
X65308962Y-97033389D01*
X65579339Y-97214049D01*
X65809275Y-97443985D01*
X65989935Y-97714362D01*
X66114376Y-98014788D01*
X66177815Y-98333719D01*
X66177815Y-98658899D01*
X66114376Y-98977830D01*
X65989935Y-99278256D01*
X65809275Y-99548633D01*
X65579339Y-99778569D01*
X65308962Y-99959229D01*
X65008536Y-100083670D01*
X64769338Y-100131249D01*
X64689606Y-100147109D01*
X64364424Y-100147109D01*
X64284692Y-100131249D01*
X64045494Y-100083670D01*
X63745068Y-99959229D01*
X63474691Y-99778569D01*
X63244755Y-99548633D01*
X63064095Y-99278256D01*
X62939654Y-98977830D01*
X62876215Y-98658899D01*
X62876215Y-98333719D01*
X62939654Y-98014788D01*
X63064095Y-97714362D01*
X63244755Y-97443985D01*
X63474691Y-97214049D01*
X63745068Y-97033389D01*
X64045494Y-96908948D01*
X64284692Y-96861369D01*
X64364424Y-96845509D01*
X64689606Y-96845509D01*
X64769338Y-96861369D01*
X64769338Y-96861369D01*
G37*
G36*
X158610040Y-99887280D02*
X156510040Y-99887280D01*
X156510040Y-97787280D01*
X158610040Y-97787280D01*
X158610040Y-99887280D01*
X158610040Y-99887280D01*
G37*
G36*
X94428360Y-97574567D02*
X94519144Y-97592625D01*
X94690177Y-97663469D01*
X94690178Y-97663470D01*
X94844105Y-97766321D01*
X94975003Y-97897219D01*
X94975005Y-97897222D01*
X95077855Y-98051147D01*
X95148699Y-98222180D01*
X95184815Y-98403747D01*
X95184815Y-98588871D01*
X95148699Y-98770438D01*
X95077855Y-98941471D01*
X94976394Y-99093318D01*
X94975003Y-99095399D01*
X94844105Y-99226297D01*
X94844102Y-99226299D01*
X94690177Y-99329149D01*
X94519144Y-99399993D01*
X94428360Y-99418051D01*
X94337579Y-99436109D01*
X94152451Y-99436109D01*
X94061669Y-99418051D01*
X93970886Y-99399993D01*
X93799853Y-99329149D01*
X93645928Y-99226299D01*
X93645925Y-99226297D01*
X93515027Y-99095399D01*
X93513636Y-99093318D01*
X93412175Y-98941471D01*
X93341331Y-98770438D01*
X93305215Y-98588871D01*
X93305215Y-98403747D01*
X93341331Y-98222180D01*
X93412175Y-98051147D01*
X93515025Y-97897222D01*
X93515027Y-97897219D01*
X93645925Y-97766321D01*
X93799852Y-97663470D01*
X93799853Y-97663469D01*
X93970886Y-97592625D01*
X94061670Y-97574567D01*
X94152451Y-97556509D01*
X94337579Y-97556509D01*
X94428360Y-97574567D01*
X94428360Y-97574567D01*
G37*
G36*
X180347020Y-98527940D02*
X178247020Y-98527940D01*
X178247020Y-96427940D01*
X180347020Y-96427940D01*
X180347020Y-98527940D01*
X180347020Y-98527940D01*
G37*
G36*
X157688747Y-95254877D02*
X157765876Y-95262473D01*
X157897827Y-95302500D01*
X157963803Y-95322513D01*
X158146212Y-95420013D01*
X158306094Y-95551226D01*
X158437307Y-95711108D01*
X158534807Y-95893517D01*
X158534807Y-95893518D01*
X158594847Y-96091444D01*
X158615120Y-96297280D01*
X158594847Y-96503116D01*
X158554820Y-96635067D01*
X158534807Y-96701043D01*
X158437307Y-96883452D01*
X158306094Y-97043334D01*
X158146212Y-97174547D01*
X157963803Y-97272047D01*
X157897827Y-97292060D01*
X157765876Y-97332087D01*
X157688747Y-97339683D01*
X157611620Y-97347280D01*
X157508460Y-97347280D01*
X157431333Y-97339683D01*
X157354204Y-97332087D01*
X157222253Y-97292060D01*
X157156277Y-97272047D01*
X156973868Y-97174547D01*
X156813986Y-97043334D01*
X156682773Y-96883452D01*
X156585273Y-96701043D01*
X156565260Y-96635067D01*
X156525233Y-96503116D01*
X156504960Y-96297280D01*
X156525233Y-96091444D01*
X156585273Y-95893518D01*
X156585273Y-95893517D01*
X156682773Y-95711108D01*
X156813986Y-95551226D01*
X156973868Y-95420013D01*
X157156277Y-95322513D01*
X157222253Y-95302500D01*
X157354204Y-95262473D01*
X157431333Y-95254877D01*
X157508460Y-95247280D01*
X157611620Y-95247280D01*
X157688747Y-95254877D01*
X157688747Y-95254877D01*
G37*
G36*
X179425727Y-93895536D02*
X179502856Y-93903133D01*
X179634807Y-93943160D01*
X179700783Y-93963173D01*
X179883192Y-94060673D01*
X180043074Y-94191886D01*
X180174287Y-94351768D01*
X180271787Y-94534177D01*
X180271787Y-94534178D01*
X180331827Y-94732104D01*
X180352100Y-94937940D01*
X180331827Y-95143776D01*
X180295821Y-95262473D01*
X180271787Y-95341703D01*
X180174287Y-95524112D01*
X180043074Y-95683994D01*
X179883192Y-95815207D01*
X179700783Y-95912707D01*
X179634807Y-95932720D01*
X179502856Y-95972747D01*
X179425727Y-95980343D01*
X179348600Y-95987940D01*
X179245440Y-95987940D01*
X179168313Y-95980344D01*
X179091184Y-95972747D01*
X178959233Y-95932720D01*
X178893257Y-95912707D01*
X178710848Y-95815207D01*
X178550966Y-95683994D01*
X178419753Y-95524112D01*
X178322253Y-95341703D01*
X178298219Y-95262473D01*
X178262213Y-95143776D01*
X178241940Y-94937940D01*
X178262213Y-94732104D01*
X178322253Y-94534178D01*
X178322253Y-94534177D01*
X178419753Y-94351768D01*
X178550966Y-94191886D01*
X178710848Y-94060673D01*
X178893257Y-93963173D01*
X178959233Y-93943160D01*
X179091184Y-93903133D01*
X179168313Y-93895537D01*
X179245440Y-93887940D01*
X179348600Y-93887940D01*
X179425727Y-93895536D01*
X179425727Y-93895536D01*
G37*
G36*
X157688747Y-92714877D02*
X157765876Y-92722473D01*
X157897827Y-92762500D01*
X157963803Y-92782513D01*
X158146212Y-92880013D01*
X158306094Y-93011226D01*
X158437307Y-93171108D01*
X158534807Y-93353517D01*
X158534807Y-93353518D01*
X158594847Y-93551444D01*
X158615120Y-93757280D01*
X158594847Y-93963116D01*
X158554820Y-94095067D01*
X158534807Y-94161043D01*
X158437307Y-94343452D01*
X158306094Y-94503334D01*
X158146212Y-94634547D01*
X157963803Y-94732047D01*
X157963608Y-94732106D01*
X157765876Y-94792087D01*
X157688747Y-94799684D01*
X157611620Y-94807280D01*
X157508460Y-94807280D01*
X157431333Y-94799684D01*
X157354204Y-94792087D01*
X157156472Y-94732106D01*
X157156277Y-94732047D01*
X156973868Y-94634547D01*
X156813986Y-94503334D01*
X156682773Y-94343452D01*
X156585273Y-94161043D01*
X156565260Y-94095067D01*
X156525233Y-93963116D01*
X156504960Y-93757280D01*
X156525233Y-93551444D01*
X156585273Y-93353518D01*
X156585273Y-93353517D01*
X156682773Y-93171108D01*
X156813986Y-93011226D01*
X156973868Y-92880013D01*
X157156277Y-92782513D01*
X157222253Y-92762500D01*
X157354204Y-92722473D01*
X157431333Y-92714877D01*
X157508460Y-92707280D01*
X157611620Y-92707280D01*
X157688747Y-92714877D01*
X157688747Y-92714877D01*
G37*
G36*
X105783120Y-93298520D02*
X103683120Y-93298520D01*
X103683120Y-91198520D01*
X105783120Y-91198520D01*
X105783120Y-93298520D01*
X105783120Y-93298520D01*
G37*
G36*
X102321827Y-91206117D02*
X102398956Y-91213713D01*
X102530907Y-91253740D01*
X102596883Y-91273753D01*
X102779292Y-91371253D01*
X102939174Y-91502466D01*
X103070387Y-91662348D01*
X103167887Y-91844757D01*
X103167887Y-91844758D01*
X103227927Y-92042684D01*
X103248200Y-92248520D01*
X103227927Y-92454356D01*
X103187900Y-92586307D01*
X103167887Y-92652283D01*
X103070387Y-92834692D01*
X102939174Y-92994574D01*
X102779292Y-93125787D01*
X102596883Y-93223287D01*
X102530907Y-93243300D01*
X102398956Y-93283327D01*
X102321827Y-93290923D01*
X102244700Y-93298520D01*
X102141540Y-93298520D01*
X102064413Y-93290923D01*
X101987284Y-93283327D01*
X101855333Y-93243300D01*
X101789357Y-93223287D01*
X101606948Y-93125787D01*
X101447066Y-92994574D01*
X101315853Y-92834692D01*
X101218353Y-92652283D01*
X101198340Y-92586307D01*
X101158313Y-92454356D01*
X101138040Y-92248520D01*
X101158313Y-92042684D01*
X101218353Y-91844758D01*
X101218353Y-91844757D01*
X101315853Y-91662348D01*
X101447066Y-91502466D01*
X101606948Y-91371253D01*
X101789357Y-91273753D01*
X101855333Y-91253740D01*
X101987284Y-91213713D01*
X102064413Y-91206117D01*
X102141540Y-91198520D01*
X102244700Y-91198520D01*
X102321827Y-91206117D01*
X102321827Y-91206117D01*
G37*
G36*
X61142323Y-89015060D02*
X61381521Y-89062639D01*
X61681947Y-89187080D01*
X61952324Y-89367740D01*
X62182260Y-89597676D01*
X62362920Y-89868053D01*
X62487361Y-90168479D01*
X62502087Y-90242513D01*
X62550800Y-90487409D01*
X62550800Y-90812591D01*
X62534940Y-90892323D01*
X62487361Y-91131521D01*
X62362920Y-91431947D01*
X62182260Y-91702324D01*
X61952324Y-91932260D01*
X61681947Y-92112920D01*
X61381521Y-92237361D01*
X61142323Y-92284940D01*
X61062591Y-92300800D01*
X60737409Y-92300800D01*
X60657677Y-92284940D01*
X60418479Y-92237361D01*
X60118053Y-92112920D01*
X59847676Y-91932260D01*
X59617740Y-91702324D01*
X59437080Y-91431947D01*
X59312639Y-91131521D01*
X59265060Y-90892323D01*
X59249200Y-90812591D01*
X59249200Y-90487409D01*
X59297913Y-90242513D01*
X59312639Y-90168479D01*
X59437080Y-89868053D01*
X59617740Y-89597676D01*
X59847676Y-89367740D01*
X60118053Y-89187080D01*
X60418479Y-89062639D01*
X60657677Y-89015060D01*
X60737409Y-88999200D01*
X61062591Y-88999200D01*
X61142323Y-89015060D01*
X61142323Y-89015060D01*
G37*
G36*
X157688747Y-90174877D02*
X157765876Y-90182473D01*
X157897827Y-90222500D01*
X157963803Y-90242513D01*
X158146212Y-90340013D01*
X158306094Y-90471226D01*
X158437307Y-90631108D01*
X158534807Y-90813517D01*
X158534807Y-90813518D01*
X158594847Y-91011444D01*
X158615120Y-91217280D01*
X158594847Y-91423116D01*
X158556699Y-91548874D01*
X158534807Y-91621043D01*
X158437307Y-91803452D01*
X158306094Y-91963334D01*
X158146212Y-92094547D01*
X157963803Y-92192047D01*
X157897827Y-92212060D01*
X157765876Y-92252087D01*
X157688747Y-92259683D01*
X157611620Y-92267280D01*
X157508460Y-92267280D01*
X157431333Y-92259684D01*
X157354204Y-92252087D01*
X157222253Y-92212060D01*
X157156277Y-92192047D01*
X156973868Y-92094547D01*
X156813986Y-91963334D01*
X156682773Y-91803452D01*
X156585273Y-91621043D01*
X156563381Y-91548874D01*
X156525233Y-91423116D01*
X156504960Y-91217280D01*
X156525233Y-91011444D01*
X156585273Y-90813518D01*
X156585273Y-90813517D01*
X156682773Y-90631108D01*
X156813986Y-90471226D01*
X156973868Y-90340013D01*
X157156277Y-90242513D01*
X157222253Y-90222500D01*
X157354204Y-90182473D01*
X157431333Y-90174877D01*
X157508460Y-90167280D01*
X157611620Y-90167280D01*
X157688747Y-90174877D01*
X157688747Y-90174877D01*
G37*
G36*
X181793007Y-89760417D02*
X181870136Y-89768013D01*
X182002087Y-89808040D01*
X182068063Y-89828053D01*
X182250472Y-89925553D01*
X182410354Y-90056766D01*
X182541567Y-90216648D01*
X182639067Y-90399057D01*
X182639067Y-90399058D01*
X182699107Y-90596984D01*
X182719380Y-90802820D01*
X182699107Y-91008656D01*
X182661837Y-91131518D01*
X182639067Y-91206583D01*
X182541567Y-91388992D01*
X182410354Y-91548874D01*
X182250472Y-91680087D01*
X182068063Y-91777587D01*
X182002087Y-91797600D01*
X181870136Y-91837627D01*
X181797743Y-91844757D01*
X181715880Y-91852820D01*
X181612720Y-91852820D01*
X181530857Y-91844757D01*
X181458464Y-91837627D01*
X181326513Y-91797600D01*
X181260537Y-91777587D01*
X181078128Y-91680087D01*
X180918246Y-91548874D01*
X180787033Y-91388992D01*
X180689533Y-91206583D01*
X180666763Y-91131518D01*
X180629493Y-91008656D01*
X180609220Y-90802820D01*
X180629493Y-90596984D01*
X180689533Y-90399058D01*
X180689533Y-90399057D01*
X180787033Y-90216648D01*
X180918246Y-90056766D01*
X181078128Y-89925553D01*
X181260537Y-89828053D01*
X181326513Y-89808040D01*
X181458464Y-89768013D01*
X181535593Y-89760417D01*
X181612720Y-89752820D01*
X181715880Y-89752820D01*
X181793007Y-89760417D01*
X181793007Y-89760417D01*
G37*
G36*
X180174300Y-91852820D02*
X178074300Y-91852820D01*
X178074300Y-89752820D01*
X180174300Y-89752820D01*
X180174300Y-91852820D01*
X180174300Y-91852820D01*
G37*
G36*
X189413007Y-89760417D02*
X189490136Y-89768013D01*
X189622087Y-89808040D01*
X189688063Y-89828053D01*
X189870472Y-89925553D01*
X190030354Y-90056766D01*
X190161567Y-90216648D01*
X190259067Y-90399057D01*
X190259067Y-90399058D01*
X190319107Y-90596984D01*
X190339380Y-90802820D01*
X190319107Y-91008656D01*
X190281837Y-91131518D01*
X190259067Y-91206583D01*
X190161567Y-91388992D01*
X190030354Y-91548874D01*
X189870472Y-91680087D01*
X189688063Y-91777587D01*
X189622087Y-91797600D01*
X189490136Y-91837627D01*
X189417743Y-91844757D01*
X189335880Y-91852820D01*
X189232720Y-91852820D01*
X189150857Y-91844757D01*
X189078464Y-91837627D01*
X188946513Y-91797600D01*
X188880537Y-91777587D01*
X188698128Y-91680087D01*
X188538246Y-91548874D01*
X188407033Y-91388992D01*
X188309533Y-91206583D01*
X188286763Y-91131518D01*
X188249493Y-91008656D01*
X188229220Y-90802820D01*
X188249493Y-90596984D01*
X188309533Y-90399058D01*
X188309533Y-90399057D01*
X188407033Y-90216648D01*
X188538246Y-90056766D01*
X188698128Y-89925553D01*
X188880537Y-89828053D01*
X188946513Y-89808040D01*
X189078464Y-89768013D01*
X189155593Y-89760417D01*
X189232720Y-89752820D01*
X189335880Y-89752820D01*
X189413007Y-89760417D01*
X189413007Y-89760417D01*
G37*
G36*
X186873007Y-89760417D02*
X186950136Y-89768013D01*
X187082087Y-89808040D01*
X187148063Y-89828053D01*
X187330472Y-89925553D01*
X187490354Y-90056766D01*
X187621567Y-90216648D01*
X187719067Y-90399057D01*
X187719067Y-90399058D01*
X187779107Y-90596984D01*
X187799380Y-90802820D01*
X187779107Y-91008656D01*
X187741837Y-91131518D01*
X187719067Y-91206583D01*
X187621567Y-91388992D01*
X187490354Y-91548874D01*
X187330472Y-91680087D01*
X187148063Y-91777587D01*
X187082087Y-91797600D01*
X186950136Y-91837627D01*
X186877743Y-91844757D01*
X186795880Y-91852820D01*
X186692720Y-91852820D01*
X186610857Y-91844757D01*
X186538464Y-91837627D01*
X186406513Y-91797600D01*
X186340537Y-91777587D01*
X186158128Y-91680087D01*
X185998246Y-91548874D01*
X185867033Y-91388992D01*
X185769533Y-91206583D01*
X185746763Y-91131518D01*
X185709493Y-91008656D01*
X185689220Y-90802820D01*
X185709493Y-90596984D01*
X185769533Y-90399058D01*
X185769533Y-90399057D01*
X185867033Y-90216648D01*
X185998246Y-90056766D01*
X186158128Y-89925553D01*
X186340537Y-89828053D01*
X186406513Y-89808040D01*
X186538464Y-89768013D01*
X186615593Y-89760417D01*
X186692720Y-89752820D01*
X186795880Y-89752820D01*
X186873007Y-89760417D01*
X186873007Y-89760417D01*
G37*
G36*
X184333007Y-89760417D02*
X184410136Y-89768013D01*
X184542087Y-89808040D01*
X184608063Y-89828053D01*
X184790472Y-89925553D01*
X184950354Y-90056766D01*
X185081567Y-90216648D01*
X185179067Y-90399057D01*
X185179067Y-90399058D01*
X185239107Y-90596984D01*
X185259380Y-90802820D01*
X185239107Y-91008656D01*
X185201837Y-91131518D01*
X185179067Y-91206583D01*
X185081567Y-91388992D01*
X184950354Y-91548874D01*
X184790472Y-91680087D01*
X184608063Y-91777587D01*
X184542087Y-91797600D01*
X184410136Y-91837627D01*
X184337743Y-91844757D01*
X184255880Y-91852820D01*
X184152720Y-91852820D01*
X184070857Y-91844757D01*
X183998464Y-91837627D01*
X183866513Y-91797600D01*
X183800537Y-91777587D01*
X183618128Y-91680087D01*
X183458246Y-91548874D01*
X183327033Y-91388992D01*
X183229533Y-91206583D01*
X183206763Y-91131518D01*
X183169493Y-91008656D01*
X183149220Y-90802820D01*
X183169493Y-90596984D01*
X183229533Y-90399058D01*
X183229533Y-90399057D01*
X183327033Y-90216648D01*
X183458246Y-90056766D01*
X183618128Y-89925553D01*
X183800537Y-89828053D01*
X183866513Y-89808040D01*
X183998464Y-89768013D01*
X184075593Y-89760417D01*
X184152720Y-89752820D01*
X184255880Y-89752820D01*
X184333007Y-89760417D01*
X184333007Y-89760417D01*
G37*
G36*
X104861827Y-88666116D02*
X104938956Y-88673713D01*
X105070907Y-88713740D01*
X105136883Y-88733753D01*
X105319292Y-88831253D01*
X105479174Y-88962466D01*
X105610387Y-89122348D01*
X105707887Y-89304757D01*
X105707887Y-89304758D01*
X105767927Y-89502684D01*
X105788200Y-89708520D01*
X105767927Y-89914356D01*
X105764530Y-89925553D01*
X105707887Y-90112283D01*
X105610387Y-90294692D01*
X105479174Y-90454574D01*
X105319292Y-90585787D01*
X105136883Y-90683287D01*
X105070907Y-90703300D01*
X104938956Y-90743327D01*
X104861827Y-90750924D01*
X104784700Y-90758520D01*
X104681540Y-90758520D01*
X104604413Y-90750924D01*
X104527284Y-90743327D01*
X104395333Y-90703300D01*
X104329357Y-90683287D01*
X104146948Y-90585787D01*
X103987066Y-90454574D01*
X103855853Y-90294692D01*
X103758353Y-90112283D01*
X103701710Y-89925553D01*
X103698313Y-89914356D01*
X103678040Y-89708520D01*
X103698313Y-89502684D01*
X103758353Y-89304758D01*
X103758353Y-89304757D01*
X103855853Y-89122348D01*
X103987066Y-88962466D01*
X104146948Y-88831253D01*
X104329357Y-88733753D01*
X104395333Y-88713740D01*
X104527284Y-88673713D01*
X104604413Y-88666116D01*
X104681540Y-88658520D01*
X104784700Y-88658520D01*
X104861827Y-88666116D01*
X104861827Y-88666116D01*
G37*
G36*
X102321827Y-88666116D02*
X102398956Y-88673713D01*
X102530907Y-88713740D01*
X102596883Y-88733753D01*
X102779292Y-88831253D01*
X102939174Y-88962466D01*
X103070387Y-89122348D01*
X103167887Y-89304757D01*
X103167887Y-89304758D01*
X103227927Y-89502684D01*
X103248200Y-89708520D01*
X103227927Y-89914356D01*
X103224530Y-89925553D01*
X103167887Y-90112283D01*
X103070387Y-90294692D01*
X102939174Y-90454574D01*
X102779292Y-90585787D01*
X102596883Y-90683287D01*
X102530907Y-90703300D01*
X102398956Y-90743327D01*
X102321827Y-90750924D01*
X102244700Y-90758520D01*
X102141540Y-90758520D01*
X102064413Y-90750924D01*
X101987284Y-90743327D01*
X101855333Y-90703300D01*
X101789357Y-90683287D01*
X101606948Y-90585787D01*
X101447066Y-90454574D01*
X101315853Y-90294692D01*
X101218353Y-90112283D01*
X101161710Y-89925553D01*
X101158313Y-89914356D01*
X101138040Y-89708520D01*
X101158313Y-89502684D01*
X101218353Y-89304758D01*
X101218353Y-89304757D01*
X101315853Y-89122348D01*
X101447066Y-88962466D01*
X101606948Y-88831253D01*
X101789357Y-88733753D01*
X101855333Y-88713740D01*
X101987284Y-88673713D01*
X102064413Y-88666116D01*
X102141540Y-88658520D01*
X102244700Y-88658520D01*
X102321827Y-88666116D01*
X102321827Y-88666116D01*
G37*
G36*
X157688747Y-87634876D02*
X157765876Y-87642473D01*
X157897827Y-87682500D01*
X157963803Y-87702513D01*
X158146212Y-87800013D01*
X158306094Y-87931226D01*
X158437307Y-88091108D01*
X158534807Y-88273517D01*
X158534807Y-88273518D01*
X158594847Y-88471444D01*
X158615120Y-88677280D01*
X158594847Y-88883116D01*
X158559633Y-88999200D01*
X158534807Y-89081043D01*
X158437307Y-89263452D01*
X158306094Y-89423334D01*
X158146212Y-89554547D01*
X157963803Y-89652047D01*
X157897827Y-89672060D01*
X157765876Y-89712087D01*
X157688747Y-89719684D01*
X157611620Y-89727280D01*
X157508460Y-89727280D01*
X157431333Y-89719684D01*
X157354204Y-89712087D01*
X157222253Y-89672060D01*
X157156277Y-89652047D01*
X156973868Y-89554547D01*
X156813986Y-89423334D01*
X156682773Y-89263452D01*
X156585273Y-89081043D01*
X156560447Y-88999200D01*
X156525233Y-88883116D01*
X156504960Y-88677280D01*
X156525233Y-88471444D01*
X156585273Y-88273518D01*
X156585273Y-88273517D01*
X156682773Y-88091108D01*
X156813986Y-87931226D01*
X156973868Y-87800013D01*
X157156277Y-87702513D01*
X157222253Y-87682500D01*
X157354204Y-87642473D01*
X157431333Y-87634876D01*
X157508460Y-87627280D01*
X157611620Y-87627280D01*
X157688747Y-87634876D01*
X157688747Y-87634876D01*
G37*
G36*
X104861827Y-86126116D02*
X104938956Y-86133713D01*
X105070907Y-86173740D01*
X105136883Y-86193753D01*
X105319292Y-86291253D01*
X105479174Y-86422466D01*
X105610387Y-86582348D01*
X105707887Y-86764757D01*
X105707887Y-86764758D01*
X105767927Y-86962684D01*
X105788200Y-87168520D01*
X105767927Y-87374356D01*
X105727900Y-87506307D01*
X105707887Y-87572283D01*
X105610387Y-87754692D01*
X105479174Y-87914574D01*
X105319292Y-88045787D01*
X105136883Y-88143287D01*
X105070907Y-88163300D01*
X104938956Y-88203327D01*
X104861827Y-88210923D01*
X104784700Y-88218520D01*
X104681540Y-88218520D01*
X104604413Y-88210923D01*
X104527284Y-88203327D01*
X104395333Y-88163300D01*
X104329357Y-88143287D01*
X104146948Y-88045787D01*
X103987066Y-87914574D01*
X103855853Y-87754692D01*
X103758353Y-87572283D01*
X103738340Y-87506307D01*
X103698313Y-87374356D01*
X103678040Y-87168520D01*
X103698313Y-86962684D01*
X103758353Y-86764758D01*
X103758353Y-86764757D01*
X103855853Y-86582348D01*
X103987066Y-86422466D01*
X104146948Y-86291253D01*
X104329357Y-86193753D01*
X104395333Y-86173740D01*
X104527284Y-86133713D01*
X104604413Y-86126116D01*
X104681540Y-86118520D01*
X104784700Y-86118520D01*
X104861827Y-86126116D01*
X104861827Y-86126116D01*
G37*
G36*
X102321827Y-86126116D02*
X102398956Y-86133713D01*
X102530907Y-86173740D01*
X102596883Y-86193753D01*
X102779292Y-86291253D01*
X102939174Y-86422466D01*
X103070387Y-86582348D01*
X103167887Y-86764757D01*
X103167887Y-86764758D01*
X103227927Y-86962684D01*
X103248200Y-87168520D01*
X103227927Y-87374356D01*
X103187900Y-87506307D01*
X103167887Y-87572283D01*
X103070387Y-87754692D01*
X102939174Y-87914574D01*
X102779292Y-88045787D01*
X102596883Y-88143287D01*
X102530907Y-88163300D01*
X102398956Y-88203327D01*
X102321827Y-88210923D01*
X102244700Y-88218520D01*
X102141540Y-88218520D01*
X102064413Y-88210923D01*
X101987284Y-88203327D01*
X101855333Y-88163300D01*
X101789357Y-88143287D01*
X101606948Y-88045787D01*
X101447066Y-87914574D01*
X101315853Y-87754692D01*
X101218353Y-87572283D01*
X101198340Y-87506307D01*
X101158313Y-87374356D01*
X101138040Y-87168520D01*
X101158313Y-86962684D01*
X101218353Y-86764758D01*
X101218353Y-86764757D01*
X101315853Y-86582348D01*
X101447066Y-86422466D01*
X101606948Y-86291253D01*
X101789357Y-86193753D01*
X101855333Y-86173740D01*
X101987284Y-86133713D01*
X102064413Y-86126116D01*
X102141540Y-86118520D01*
X102244700Y-86118520D01*
X102321827Y-86126116D01*
X102321827Y-86126116D01*
G37*
G36*
X157688747Y-85094876D02*
X157765876Y-85102473D01*
X157897827Y-85142500D01*
X157963803Y-85162513D01*
X158146212Y-85260013D01*
X158306094Y-85391226D01*
X158437307Y-85551108D01*
X158534807Y-85733517D01*
X158554820Y-85799493D01*
X158594847Y-85931444D01*
X158615120Y-86137280D01*
X158594847Y-86343116D01*
X158554820Y-86475067D01*
X158534807Y-86541043D01*
X158437307Y-86723452D01*
X158306094Y-86883334D01*
X158146212Y-87014547D01*
X157963803Y-87112047D01*
X157897827Y-87132060D01*
X157765876Y-87172087D01*
X157688747Y-87179684D01*
X157611620Y-87187280D01*
X157508460Y-87187280D01*
X157431333Y-87179684D01*
X157354204Y-87172087D01*
X157222253Y-87132060D01*
X157156277Y-87112047D01*
X156973868Y-87014547D01*
X156813986Y-86883334D01*
X156682773Y-86723452D01*
X156585273Y-86541043D01*
X156565260Y-86475067D01*
X156525233Y-86343116D01*
X156504960Y-86137280D01*
X156525233Y-85931444D01*
X156565260Y-85799493D01*
X156585273Y-85733517D01*
X156682773Y-85551108D01*
X156813986Y-85391226D01*
X156973868Y-85260013D01*
X157156277Y-85162513D01*
X157222253Y-85142500D01*
X157354204Y-85102473D01*
X157431333Y-85094876D01*
X157508460Y-85087280D01*
X157611620Y-85087280D01*
X157688747Y-85094876D01*
X157688747Y-85094876D01*
G37*
G36*
X189592323Y-83115060D02*
X189831521Y-83162639D01*
X190131947Y-83287080D01*
X190402324Y-83467740D01*
X190632260Y-83697676D01*
X190812920Y-83968053D01*
X190937361Y-84268479D01*
X191000800Y-84587410D01*
X191000800Y-84912590D01*
X190937361Y-85231521D01*
X190812920Y-85531947D01*
X190632260Y-85802324D01*
X190402324Y-86032260D01*
X190131947Y-86212920D01*
X189831521Y-86337361D01*
X189592323Y-86384940D01*
X189512591Y-86400800D01*
X189187409Y-86400800D01*
X189107677Y-86384940D01*
X188868479Y-86337361D01*
X188568053Y-86212920D01*
X188297676Y-86032260D01*
X188067740Y-85802324D01*
X187887080Y-85531947D01*
X187762639Y-85231521D01*
X187699200Y-84912590D01*
X187699200Y-84587410D01*
X187762639Y-84268479D01*
X187887080Y-83968053D01*
X188067740Y-83697676D01*
X188297676Y-83467740D01*
X188568053Y-83287080D01*
X188868479Y-83162639D01*
X189107677Y-83115060D01*
X189187409Y-83099200D01*
X189512591Y-83099200D01*
X189592323Y-83115060D01*
X189592323Y-83115060D01*
G37*
G36*
X91275187Y-84201997D02*
X91352316Y-84209593D01*
X91484267Y-84249620D01*
X91550243Y-84269633D01*
X91732652Y-84367133D01*
X91892534Y-84498346D01*
X92023747Y-84658228D01*
X92121247Y-84840637D01*
X92121247Y-84840638D01*
X92181287Y-85038564D01*
X92201560Y-85244400D01*
X92181287Y-85450236D01*
X92141260Y-85582187D01*
X92121247Y-85648163D01*
X92023747Y-85830572D01*
X91892534Y-85990454D01*
X91732652Y-86121667D01*
X91550243Y-86219167D01*
X91484267Y-86239180D01*
X91352316Y-86279207D01*
X91275187Y-86286804D01*
X91198060Y-86294400D01*
X91094900Y-86294400D01*
X91017773Y-86286804D01*
X90940644Y-86279207D01*
X90808693Y-86239180D01*
X90742717Y-86219167D01*
X90560308Y-86121667D01*
X90400426Y-85990454D01*
X90269213Y-85830572D01*
X90171713Y-85648163D01*
X90151700Y-85582187D01*
X90111673Y-85450236D01*
X90091400Y-85244400D01*
X90111673Y-85038564D01*
X90171713Y-84840638D01*
X90171713Y-84840637D01*
X90269213Y-84658228D01*
X90400426Y-84498346D01*
X90560308Y-84367133D01*
X90742717Y-84269633D01*
X90808693Y-84249620D01*
X90940644Y-84209593D01*
X91017773Y-84201997D01*
X91094900Y-84194400D01*
X91198060Y-84194400D01*
X91275187Y-84201997D01*
X91275187Y-84201997D01*
G37*
G36*
X173188707Y-83832596D02*
X173265836Y-83840193D01*
X173397787Y-83880220D01*
X173463763Y-83900233D01*
X173646172Y-83997733D01*
X173806054Y-84128946D01*
X173937267Y-84288828D01*
X174034767Y-84471237D01*
X174034767Y-84471238D01*
X174094807Y-84669164D01*
X174115080Y-84875000D01*
X174094807Y-85080836D01*
X174054780Y-85212787D01*
X174034767Y-85278763D01*
X173937267Y-85461172D01*
X173806054Y-85621054D01*
X173646172Y-85752267D01*
X173463763Y-85849767D01*
X173397787Y-85869780D01*
X173265836Y-85909807D01*
X173188707Y-85917403D01*
X173111580Y-85925000D01*
X173008420Y-85925000D01*
X172931293Y-85917403D01*
X172854164Y-85909807D01*
X172722213Y-85869780D01*
X172656237Y-85849767D01*
X172473828Y-85752267D01*
X172313946Y-85621054D01*
X172182733Y-85461172D01*
X172085233Y-85278763D01*
X172065220Y-85212787D01*
X172025193Y-85080836D01*
X172004920Y-84875000D01*
X172025193Y-84669164D01*
X172085233Y-84471238D01*
X172085233Y-84471237D01*
X172182733Y-84288828D01*
X172313946Y-84128946D01*
X172473828Y-83997733D01*
X172656237Y-83900233D01*
X172722213Y-83880220D01*
X172854164Y-83840193D01*
X172931293Y-83832596D01*
X173008420Y-83825000D01*
X173111580Y-83825000D01*
X173188707Y-83832596D01*
X173188707Y-83832596D01*
G37*
G36*
X176650000Y-85925000D02*
X174550000Y-85925000D01*
X174550000Y-83825000D01*
X176650000Y-83825000D01*
X176650000Y-85925000D01*
X176650000Y-85925000D01*
G37*
G36*
X104861827Y-83586116D02*
X104938956Y-83593713D01*
X105070907Y-83633740D01*
X105136883Y-83653753D01*
X105319292Y-83751253D01*
X105479174Y-83882466D01*
X105610387Y-84042348D01*
X105707887Y-84224757D01*
X105721500Y-84269633D01*
X105767927Y-84422684D01*
X105788200Y-84628520D01*
X105767927Y-84834356D01*
X105744195Y-84912590D01*
X105707887Y-85032283D01*
X105610387Y-85214692D01*
X105479174Y-85374574D01*
X105319292Y-85505787D01*
X105136883Y-85603287D01*
X105078312Y-85621054D01*
X104938956Y-85663327D01*
X104861827Y-85670924D01*
X104784700Y-85678520D01*
X104681540Y-85678520D01*
X104604413Y-85670924D01*
X104527284Y-85663327D01*
X104387928Y-85621054D01*
X104329357Y-85603287D01*
X104146948Y-85505787D01*
X103987066Y-85374574D01*
X103855853Y-85214692D01*
X103758353Y-85032283D01*
X103722045Y-84912590D01*
X103698313Y-84834356D01*
X103678040Y-84628520D01*
X103698313Y-84422684D01*
X103744740Y-84269633D01*
X103758353Y-84224757D01*
X103855853Y-84042348D01*
X103987066Y-83882466D01*
X104146948Y-83751253D01*
X104329357Y-83653753D01*
X104395333Y-83633740D01*
X104527284Y-83593713D01*
X104604413Y-83586116D01*
X104681540Y-83578520D01*
X104784700Y-83578520D01*
X104861827Y-83586116D01*
X104861827Y-83586116D01*
G37*
G36*
X102321827Y-83586116D02*
X102398956Y-83593713D01*
X102530907Y-83633740D01*
X102596883Y-83653753D01*
X102779292Y-83751253D01*
X102939174Y-83882466D01*
X103070387Y-84042348D01*
X103167887Y-84224757D01*
X103181500Y-84269633D01*
X103227927Y-84422684D01*
X103248200Y-84628520D01*
X103227927Y-84834356D01*
X103204195Y-84912590D01*
X103167887Y-85032283D01*
X103070387Y-85214692D01*
X102939174Y-85374574D01*
X102779292Y-85505787D01*
X102596883Y-85603287D01*
X102538312Y-85621054D01*
X102398956Y-85663327D01*
X102321827Y-85670924D01*
X102244700Y-85678520D01*
X102141540Y-85678520D01*
X102064413Y-85670924D01*
X101987284Y-85663327D01*
X101847928Y-85621054D01*
X101789357Y-85603287D01*
X101606948Y-85505787D01*
X101447066Y-85374574D01*
X101315853Y-85214692D01*
X101218353Y-85032283D01*
X101182045Y-84912590D01*
X101158313Y-84834356D01*
X101138040Y-84628520D01*
X101158313Y-84422684D01*
X101204740Y-84269633D01*
X101218353Y-84224757D01*
X101315853Y-84042348D01*
X101447066Y-83882466D01*
X101606948Y-83751253D01*
X101789357Y-83653753D01*
X101855333Y-83633740D01*
X101987284Y-83593713D01*
X102064413Y-83586116D01*
X102141540Y-83578520D01*
X102244700Y-83578520D01*
X102321827Y-83586116D01*
X102321827Y-83586116D01*
G37*
G36*
X157688747Y-82554876D02*
X157765876Y-82562473D01*
X157897827Y-82602500D01*
X157963803Y-82622513D01*
X158146212Y-82720013D01*
X158306094Y-82851226D01*
X158437307Y-83011108D01*
X158534807Y-83193517D01*
X158534807Y-83193518D01*
X158594847Y-83391444D01*
X158615120Y-83597280D01*
X158594847Y-83803116D01*
X158565387Y-83900233D01*
X158534807Y-84001043D01*
X158437307Y-84183452D01*
X158306094Y-84343334D01*
X158146212Y-84474547D01*
X157963803Y-84572047D01*
X157913160Y-84587409D01*
X157765876Y-84632087D01*
X157688747Y-84639684D01*
X157611620Y-84647280D01*
X157508460Y-84647280D01*
X157431333Y-84639684D01*
X157354204Y-84632087D01*
X157206920Y-84587409D01*
X157156277Y-84572047D01*
X156973868Y-84474547D01*
X156813986Y-84343334D01*
X156682773Y-84183452D01*
X156585273Y-84001043D01*
X156554693Y-83900233D01*
X156525233Y-83803116D01*
X156504960Y-83597280D01*
X156525233Y-83391444D01*
X156585273Y-83193518D01*
X156585273Y-83193517D01*
X156682773Y-83011108D01*
X156813986Y-82851226D01*
X156973868Y-82720013D01*
X157156277Y-82622513D01*
X157222253Y-82602500D01*
X157354204Y-82562473D01*
X157431333Y-82554876D01*
X157508460Y-82547280D01*
X157611620Y-82547280D01*
X157688747Y-82554876D01*
X157688747Y-82554876D01*
G37*
G36*
X91275187Y-81661997D02*
X91352316Y-81669593D01*
X91484267Y-81709620D01*
X91550243Y-81729633D01*
X91732652Y-81827133D01*
X91892534Y-81958346D01*
X92023747Y-82118228D01*
X92121247Y-82300637D01*
X92121247Y-82300638D01*
X92181287Y-82498564D01*
X92201560Y-82704400D01*
X92181287Y-82910236D01*
X92141260Y-83042187D01*
X92121247Y-83108163D01*
X92023747Y-83290572D01*
X91892534Y-83450454D01*
X91732652Y-83581667D01*
X91550243Y-83679167D01*
X91489232Y-83697674D01*
X91352316Y-83739207D01*
X91275187Y-83746804D01*
X91198060Y-83754400D01*
X91094900Y-83754400D01*
X91017773Y-83746804D01*
X90940644Y-83739207D01*
X90803728Y-83697674D01*
X90742717Y-83679167D01*
X90560308Y-83581667D01*
X90400426Y-83450454D01*
X90269213Y-83290572D01*
X90171713Y-83108163D01*
X90151700Y-83042187D01*
X90111673Y-82910236D01*
X90091400Y-82704400D01*
X90111673Y-82498564D01*
X90171713Y-82300638D01*
X90171713Y-82300637D01*
X90269213Y-82118228D01*
X90400426Y-81958346D01*
X90560308Y-81827133D01*
X90742717Y-81729633D01*
X90808693Y-81709620D01*
X90940644Y-81669593D01*
X91017773Y-81661997D01*
X91094900Y-81654400D01*
X91198060Y-81654400D01*
X91275187Y-81661997D01*
X91275187Y-81661997D01*
G37*
G36*
X102321827Y-81046117D02*
X102398956Y-81053713D01*
X102530907Y-81093740D01*
X102596883Y-81113753D01*
X102779292Y-81211253D01*
X102939174Y-81342466D01*
X103070387Y-81502348D01*
X103167887Y-81684757D01*
X103167887Y-81684758D01*
X103227927Y-81882684D01*
X103248200Y-82088520D01*
X103227927Y-82294356D01*
X103226021Y-82300638D01*
X103167887Y-82492283D01*
X103070387Y-82674692D01*
X102939174Y-82834574D01*
X102779292Y-82965787D01*
X102596883Y-83063287D01*
X102530907Y-83083300D01*
X102398956Y-83123327D01*
X102321827Y-83130923D01*
X102244700Y-83138520D01*
X102141540Y-83138520D01*
X102064413Y-83130923D01*
X101987284Y-83123327D01*
X101855333Y-83083300D01*
X101789357Y-83063287D01*
X101606948Y-82965787D01*
X101447066Y-82834574D01*
X101315853Y-82674692D01*
X101218353Y-82492283D01*
X101160219Y-82300638D01*
X101158313Y-82294356D01*
X101138040Y-82088520D01*
X101158313Y-81882684D01*
X101218353Y-81684758D01*
X101218353Y-81684757D01*
X101315853Y-81502348D01*
X101447066Y-81342466D01*
X101606948Y-81211253D01*
X101789357Y-81113753D01*
X101855333Y-81093740D01*
X101987284Y-81053713D01*
X102064413Y-81046117D01*
X102141540Y-81038520D01*
X102244700Y-81038520D01*
X102321827Y-81046117D01*
X102321827Y-81046117D01*
G37*
G36*
X104861827Y-81046117D02*
X104938956Y-81053713D01*
X105070907Y-81093740D01*
X105136883Y-81113753D01*
X105319292Y-81211253D01*
X105479174Y-81342466D01*
X105610387Y-81502348D01*
X105707887Y-81684757D01*
X105707887Y-81684758D01*
X105767927Y-81882684D01*
X105788200Y-82088520D01*
X105767927Y-82294356D01*
X105766021Y-82300638D01*
X105707887Y-82492283D01*
X105610387Y-82674692D01*
X105479174Y-82834574D01*
X105319292Y-82965787D01*
X105136883Y-83063287D01*
X105070907Y-83083300D01*
X104938956Y-83123327D01*
X104861827Y-83130923D01*
X104784700Y-83138520D01*
X104681540Y-83138520D01*
X104604413Y-83130923D01*
X104527284Y-83123327D01*
X104395333Y-83083300D01*
X104329357Y-83063287D01*
X104146948Y-82965787D01*
X103987066Y-82834574D01*
X103855853Y-82674692D01*
X103758353Y-82492283D01*
X103700219Y-82300638D01*
X103698313Y-82294356D01*
X103678040Y-82088520D01*
X103698313Y-81882684D01*
X103758353Y-81684758D01*
X103758353Y-81684757D01*
X103855853Y-81502348D01*
X103987066Y-81342466D01*
X104146948Y-81211253D01*
X104329357Y-81113753D01*
X104395333Y-81093740D01*
X104527284Y-81053713D01*
X104604413Y-81046117D01*
X104681540Y-81038520D01*
X104784700Y-81038520D01*
X104861827Y-81046117D01*
X104861827Y-81046117D01*
G37*
G36*
X157688747Y-80014876D02*
X157765876Y-80022473D01*
X157893447Y-80061171D01*
X157963803Y-80082513D01*
X158146212Y-80180013D01*
X158306094Y-80311226D01*
X158437307Y-80471108D01*
X158534807Y-80653517D01*
X158534807Y-80653518D01*
X158594847Y-80851444D01*
X158615120Y-81057280D01*
X158594847Y-81263116D01*
X158554820Y-81395067D01*
X158534807Y-81461043D01*
X158437307Y-81643452D01*
X158306094Y-81803334D01*
X158146212Y-81934547D01*
X157963803Y-82032047D01*
X157897827Y-82052060D01*
X157765876Y-82092087D01*
X157688747Y-82099683D01*
X157611620Y-82107280D01*
X157508460Y-82107280D01*
X157431333Y-82099683D01*
X157354204Y-82092087D01*
X157222253Y-82052060D01*
X157156277Y-82032047D01*
X156973868Y-81934547D01*
X156813986Y-81803334D01*
X156682773Y-81643452D01*
X156585273Y-81461043D01*
X156565260Y-81395067D01*
X156525233Y-81263116D01*
X156504960Y-81057280D01*
X156525233Y-80851444D01*
X156585273Y-80653518D01*
X156585273Y-80653517D01*
X156682773Y-80471108D01*
X156813986Y-80311226D01*
X156973868Y-80180013D01*
X157156277Y-80082513D01*
X157226633Y-80061171D01*
X157354204Y-80022473D01*
X157431333Y-80014876D01*
X157508460Y-80007280D01*
X157611620Y-80007280D01*
X157688747Y-80014876D01*
X157688747Y-80014876D01*
G37*
G36*
X91275187Y-79121996D02*
X91352316Y-79129593D01*
X91484267Y-79169620D01*
X91550243Y-79189633D01*
X91732652Y-79287133D01*
X91892534Y-79418346D01*
X92023747Y-79578228D01*
X92121247Y-79760637D01*
X92121247Y-79760638D01*
X92181287Y-79958564D01*
X92201560Y-80164400D01*
X92181287Y-80370236D01*
X92141260Y-80502187D01*
X92121247Y-80568163D01*
X92023747Y-80750572D01*
X91892534Y-80910454D01*
X91732652Y-81041667D01*
X91550243Y-81139167D01*
X91484267Y-81159180D01*
X91352316Y-81199207D01*
X91275187Y-81206804D01*
X91198060Y-81214400D01*
X91094900Y-81214400D01*
X91017773Y-81206804D01*
X90940644Y-81199207D01*
X90808693Y-81159180D01*
X90742717Y-81139167D01*
X90560308Y-81041667D01*
X90400426Y-80910454D01*
X90269213Y-80750572D01*
X90171713Y-80568163D01*
X90151700Y-80502187D01*
X90111673Y-80370236D01*
X90091400Y-80164400D01*
X90111673Y-79958564D01*
X90171713Y-79760638D01*
X90171713Y-79760637D01*
X90269213Y-79578228D01*
X90400426Y-79418346D01*
X90560308Y-79287133D01*
X90742717Y-79189633D01*
X90808693Y-79169620D01*
X90940644Y-79129593D01*
X91017773Y-79121996D01*
X91094900Y-79114400D01*
X91198060Y-79114400D01*
X91275187Y-79121996D01*
X91275187Y-79121996D01*
G37*
G36*
X102321827Y-78506116D02*
X102398956Y-78513713D01*
X102530907Y-78553740D01*
X102596883Y-78573753D01*
X102779292Y-78671253D01*
X102939174Y-78802466D01*
X103070387Y-78962348D01*
X103167887Y-79144757D01*
X103167887Y-79144758D01*
X103227927Y-79342684D01*
X103248200Y-79548520D01*
X103227927Y-79754356D01*
X103226021Y-79760638D01*
X103167887Y-79952283D01*
X103070387Y-80134692D01*
X102939174Y-80294574D01*
X102779292Y-80425787D01*
X102596883Y-80523287D01*
X102530907Y-80543300D01*
X102398956Y-80583327D01*
X102321827Y-80590923D01*
X102244700Y-80598520D01*
X102141540Y-80598520D01*
X102064413Y-80590923D01*
X101987284Y-80583327D01*
X101855333Y-80543300D01*
X101789357Y-80523287D01*
X101606948Y-80425787D01*
X101447066Y-80294574D01*
X101315853Y-80134692D01*
X101218353Y-79952283D01*
X101160219Y-79760638D01*
X101158313Y-79754356D01*
X101138040Y-79548520D01*
X101158313Y-79342684D01*
X101218353Y-79144758D01*
X101218353Y-79144757D01*
X101315853Y-78962348D01*
X101447066Y-78802466D01*
X101606948Y-78671253D01*
X101789357Y-78573753D01*
X101855333Y-78553740D01*
X101987284Y-78513713D01*
X102064413Y-78506116D01*
X102141540Y-78498520D01*
X102244700Y-78498520D01*
X102321827Y-78506116D01*
X102321827Y-78506116D01*
G37*
G36*
X104861827Y-78506116D02*
X104938956Y-78513713D01*
X105070907Y-78553740D01*
X105136883Y-78573753D01*
X105319292Y-78671253D01*
X105479174Y-78802466D01*
X105610387Y-78962348D01*
X105707887Y-79144757D01*
X105707887Y-79144758D01*
X105767927Y-79342684D01*
X105788200Y-79548520D01*
X105767927Y-79754356D01*
X105766021Y-79760638D01*
X105707887Y-79952283D01*
X105610387Y-80134692D01*
X105479174Y-80294574D01*
X105319292Y-80425787D01*
X105136883Y-80523287D01*
X105070907Y-80543300D01*
X104938956Y-80583327D01*
X104861827Y-80590923D01*
X104784700Y-80598520D01*
X104681540Y-80598520D01*
X104604413Y-80590923D01*
X104527284Y-80583327D01*
X104395333Y-80543300D01*
X104329357Y-80523287D01*
X104146948Y-80425787D01*
X103987066Y-80294574D01*
X103855853Y-80134692D01*
X103758353Y-79952283D01*
X103700219Y-79760638D01*
X103698313Y-79754356D01*
X103678040Y-79548520D01*
X103698313Y-79342684D01*
X103758353Y-79144758D01*
X103758353Y-79144757D01*
X103855853Y-78962348D01*
X103987066Y-78802466D01*
X104146948Y-78671253D01*
X104329357Y-78573753D01*
X104395333Y-78553740D01*
X104527284Y-78513713D01*
X104604413Y-78506116D01*
X104681540Y-78498520D01*
X104784700Y-78498520D01*
X104861827Y-78506116D01*
X104861827Y-78506116D01*
G37*
G36*
X186923707Y-78432596D02*
X187000836Y-78440193D01*
X187132787Y-78480220D01*
X187198763Y-78500233D01*
X187381172Y-78597733D01*
X187541054Y-78728946D01*
X187672267Y-78888828D01*
X187769767Y-79071237D01*
X187769767Y-79071238D01*
X187829807Y-79269164D01*
X187850080Y-79475000D01*
X187829807Y-79680836D01*
X187805599Y-79760638D01*
X187769767Y-79878763D01*
X187672267Y-80061172D01*
X187541054Y-80221054D01*
X187381172Y-80352267D01*
X187198763Y-80449767D01*
X187132787Y-80469780D01*
X187000836Y-80509807D01*
X186923707Y-80517403D01*
X186846580Y-80525000D01*
X186743420Y-80525000D01*
X186666293Y-80517403D01*
X186589164Y-80509807D01*
X186457213Y-80469780D01*
X186391237Y-80449767D01*
X186208828Y-80352267D01*
X186048946Y-80221054D01*
X185917733Y-80061172D01*
X185820233Y-79878763D01*
X185784401Y-79760638D01*
X185760193Y-79680836D01*
X185739920Y-79475000D01*
X185760193Y-79269164D01*
X185820233Y-79071238D01*
X185820233Y-79071237D01*
X185917733Y-78888828D01*
X186048946Y-78728946D01*
X186208828Y-78597733D01*
X186391237Y-78500233D01*
X186457213Y-78480220D01*
X186589164Y-78440193D01*
X186666293Y-78432596D01*
X186743420Y-78425000D01*
X186846580Y-78425000D01*
X186923707Y-78432596D01*
X186923707Y-78432596D01*
G37*
G36*
X184383707Y-78432596D02*
X184460836Y-78440193D01*
X184592787Y-78480220D01*
X184658763Y-78500233D01*
X184841172Y-78597733D01*
X185001054Y-78728946D01*
X185132267Y-78888828D01*
X185229767Y-79071237D01*
X185229767Y-79071238D01*
X185289807Y-79269164D01*
X185310080Y-79475000D01*
X185289807Y-79680836D01*
X185265599Y-79760638D01*
X185229767Y-79878763D01*
X185132267Y-80061172D01*
X185001054Y-80221054D01*
X184841172Y-80352267D01*
X184658763Y-80449767D01*
X184592787Y-80469780D01*
X184460836Y-80509807D01*
X184383707Y-80517403D01*
X184306580Y-80525000D01*
X184203420Y-80525000D01*
X184126293Y-80517403D01*
X184049164Y-80509807D01*
X183917213Y-80469780D01*
X183851237Y-80449767D01*
X183668828Y-80352267D01*
X183508946Y-80221054D01*
X183377733Y-80061172D01*
X183280233Y-79878763D01*
X183244401Y-79760638D01*
X183220193Y-79680836D01*
X183199920Y-79475000D01*
X183220193Y-79269164D01*
X183280233Y-79071238D01*
X183280233Y-79071237D01*
X183377733Y-78888828D01*
X183508946Y-78728946D01*
X183668828Y-78597733D01*
X183851237Y-78500233D01*
X183917213Y-78480220D01*
X184049164Y-78440193D01*
X184126293Y-78432596D01*
X184203420Y-78425000D01*
X184306580Y-78425000D01*
X184383707Y-78432596D01*
X184383707Y-78432596D01*
G37*
G36*
X181843707Y-78432596D02*
X181920836Y-78440193D01*
X182052787Y-78480220D01*
X182118763Y-78500233D01*
X182301172Y-78597733D01*
X182461054Y-78728946D01*
X182592267Y-78888828D01*
X182689767Y-79071237D01*
X182689767Y-79071238D01*
X182749807Y-79269164D01*
X182770080Y-79475000D01*
X182749807Y-79680836D01*
X182725599Y-79760638D01*
X182689767Y-79878763D01*
X182592267Y-80061172D01*
X182461054Y-80221054D01*
X182301172Y-80352267D01*
X182118763Y-80449767D01*
X182052787Y-80469780D01*
X181920836Y-80509807D01*
X181843707Y-80517403D01*
X181766580Y-80525000D01*
X181663420Y-80525000D01*
X181586293Y-80517403D01*
X181509164Y-80509807D01*
X181377213Y-80469780D01*
X181311237Y-80449767D01*
X181128828Y-80352267D01*
X180968946Y-80221054D01*
X180837733Y-80061172D01*
X180740233Y-79878763D01*
X180704401Y-79760638D01*
X180680193Y-79680836D01*
X180659920Y-79475000D01*
X180680193Y-79269164D01*
X180740233Y-79071238D01*
X180740233Y-79071237D01*
X180837733Y-78888828D01*
X180968946Y-78728946D01*
X181128828Y-78597733D01*
X181311237Y-78500233D01*
X181377213Y-78480220D01*
X181509164Y-78440193D01*
X181586293Y-78432596D01*
X181663420Y-78425000D01*
X181766580Y-78425000D01*
X181843707Y-78432596D01*
X181843707Y-78432596D01*
G37*
G36*
X180225000Y-80525000D02*
X178125000Y-80525000D01*
X178125000Y-78425000D01*
X180225000Y-78425000D01*
X180225000Y-80525000D01*
X180225000Y-80525000D01*
G37*
G36*
X157688747Y-77474877D02*
X157765876Y-77482473D01*
X157897827Y-77522500D01*
X157963803Y-77542513D01*
X158146212Y-77640013D01*
X158306094Y-77771226D01*
X158437307Y-77931108D01*
X158534807Y-78113517D01*
X158534807Y-78113518D01*
X158594847Y-78311444D01*
X158615120Y-78517280D01*
X158594847Y-78723116D01*
X158554820Y-78855067D01*
X158534807Y-78921043D01*
X158437307Y-79103452D01*
X158306094Y-79263334D01*
X158146212Y-79394547D01*
X157963803Y-79492047D01*
X157897827Y-79512060D01*
X157765876Y-79552087D01*
X157688747Y-79559683D01*
X157611620Y-79567280D01*
X157508460Y-79567280D01*
X157431333Y-79559683D01*
X157354204Y-79552087D01*
X157222253Y-79512060D01*
X157156277Y-79492047D01*
X156973868Y-79394547D01*
X156813986Y-79263334D01*
X156682773Y-79103452D01*
X156585273Y-78921043D01*
X156565260Y-78855067D01*
X156525233Y-78723116D01*
X156504960Y-78517280D01*
X156525233Y-78311444D01*
X156585273Y-78113518D01*
X156585273Y-78113517D01*
X156682773Y-77931108D01*
X156813986Y-77771226D01*
X156973868Y-77640013D01*
X157156277Y-77542513D01*
X157222253Y-77522500D01*
X157354204Y-77482473D01*
X157431333Y-77474877D01*
X157508460Y-77467280D01*
X157611620Y-77467280D01*
X157688747Y-77474877D01*
X157688747Y-77474877D01*
G37*
G36*
X91275187Y-76581996D02*
X91352316Y-76589593D01*
X91484267Y-76629620D01*
X91550243Y-76649633D01*
X91732652Y-76747133D01*
X91892534Y-76878346D01*
X92023747Y-77038228D01*
X92121247Y-77220637D01*
X92121247Y-77220638D01*
X92181287Y-77418564D01*
X92201560Y-77624400D01*
X92181287Y-77830236D01*
X92141260Y-77962187D01*
X92121247Y-78028163D01*
X92023747Y-78210572D01*
X91892534Y-78370454D01*
X91732652Y-78501667D01*
X91550243Y-78599167D01*
X91484267Y-78619180D01*
X91352316Y-78659207D01*
X91275187Y-78666804D01*
X91198060Y-78674400D01*
X91094900Y-78674400D01*
X91017773Y-78666804D01*
X90940644Y-78659207D01*
X90808693Y-78619180D01*
X90742717Y-78599167D01*
X90560308Y-78501667D01*
X90400426Y-78370454D01*
X90269213Y-78210572D01*
X90171713Y-78028163D01*
X90151700Y-77962187D01*
X90111673Y-77830236D01*
X90091400Y-77624400D01*
X90111673Y-77418564D01*
X90171713Y-77220638D01*
X90171713Y-77220637D01*
X90269213Y-77038228D01*
X90400426Y-76878346D01*
X90560308Y-76747133D01*
X90742717Y-76649633D01*
X90808693Y-76629620D01*
X90940644Y-76589593D01*
X91017773Y-76581996D01*
X91094900Y-76574400D01*
X91198060Y-76574400D01*
X91275187Y-76581996D01*
X91275187Y-76581996D01*
G37*
G36*
X104861827Y-75966117D02*
X104938956Y-75973713D01*
X105070907Y-76013740D01*
X105136883Y-76033753D01*
X105319292Y-76131253D01*
X105479174Y-76262466D01*
X105610387Y-76422348D01*
X105707887Y-76604757D01*
X105707887Y-76604758D01*
X105767927Y-76802684D01*
X105788200Y-77008520D01*
X105767927Y-77214356D01*
X105766021Y-77220638D01*
X105707887Y-77412283D01*
X105610387Y-77594692D01*
X105479174Y-77754574D01*
X105319292Y-77885787D01*
X105136883Y-77983287D01*
X105070907Y-78003300D01*
X104938956Y-78043327D01*
X104861827Y-78050924D01*
X104784700Y-78058520D01*
X104681540Y-78058520D01*
X104604413Y-78050924D01*
X104527284Y-78043327D01*
X104395333Y-78003300D01*
X104329357Y-77983287D01*
X104146948Y-77885787D01*
X103987066Y-77754574D01*
X103855853Y-77594692D01*
X103758353Y-77412283D01*
X103700219Y-77220638D01*
X103698313Y-77214356D01*
X103678040Y-77008520D01*
X103698313Y-76802684D01*
X103758353Y-76604758D01*
X103758353Y-76604757D01*
X103855853Y-76422348D01*
X103987066Y-76262466D01*
X104146948Y-76131253D01*
X104329357Y-76033753D01*
X104395333Y-76013740D01*
X104527284Y-75973713D01*
X104604413Y-75966117D01*
X104681540Y-75958520D01*
X104784700Y-75958520D01*
X104861827Y-75966117D01*
X104861827Y-75966117D01*
G37*
G36*
X102321827Y-75966117D02*
X102398956Y-75973713D01*
X102530907Y-76013740D01*
X102596883Y-76033753D01*
X102779292Y-76131253D01*
X102939174Y-76262466D01*
X103070387Y-76422348D01*
X103167887Y-76604757D01*
X103167887Y-76604758D01*
X103227927Y-76802684D01*
X103248200Y-77008520D01*
X103227927Y-77214356D01*
X103226021Y-77220638D01*
X103167887Y-77412283D01*
X103070387Y-77594692D01*
X102939174Y-77754574D01*
X102779292Y-77885787D01*
X102596883Y-77983287D01*
X102530907Y-78003300D01*
X102398956Y-78043327D01*
X102321827Y-78050924D01*
X102244700Y-78058520D01*
X102141540Y-78058520D01*
X102064413Y-78050924D01*
X101987284Y-78043327D01*
X101855333Y-78003300D01*
X101789357Y-77983287D01*
X101606948Y-77885787D01*
X101447066Y-77754574D01*
X101315853Y-77594692D01*
X101218353Y-77412283D01*
X101160219Y-77220638D01*
X101158313Y-77214356D01*
X101138040Y-77008520D01*
X101158313Y-76802684D01*
X101218353Y-76604758D01*
X101218353Y-76604757D01*
X101315853Y-76422348D01*
X101447066Y-76262466D01*
X101606948Y-76131253D01*
X101789357Y-76033753D01*
X101855333Y-76013740D01*
X101987284Y-75973713D01*
X102064413Y-75966117D01*
X102141540Y-75958520D01*
X102244700Y-75958520D01*
X102321827Y-75966117D01*
X102321827Y-75966117D01*
G37*
G36*
X157688747Y-74934876D02*
X157765876Y-74942473D01*
X157897827Y-74982500D01*
X157963803Y-75002513D01*
X158146212Y-75100013D01*
X158306094Y-75231226D01*
X158437307Y-75391108D01*
X158534807Y-75573517D01*
X158534807Y-75573518D01*
X158594847Y-75771444D01*
X158615120Y-75977280D01*
X158594847Y-76183116D01*
X158554820Y-76315067D01*
X158534807Y-76381043D01*
X158437307Y-76563452D01*
X158306094Y-76723334D01*
X158146212Y-76854547D01*
X157963803Y-76952047D01*
X157897827Y-76972060D01*
X157765876Y-77012087D01*
X157688747Y-77019683D01*
X157611620Y-77027280D01*
X157508460Y-77027280D01*
X157431333Y-77019683D01*
X157354204Y-77012087D01*
X157222253Y-76972060D01*
X157156277Y-76952047D01*
X156973868Y-76854547D01*
X156813986Y-76723334D01*
X156682773Y-76563452D01*
X156585273Y-76381043D01*
X156565260Y-76315067D01*
X156525233Y-76183116D01*
X156504960Y-75977280D01*
X156525233Y-75771444D01*
X156585273Y-75573518D01*
X156585273Y-75573517D01*
X156682773Y-75391108D01*
X156813986Y-75231226D01*
X156973868Y-75100013D01*
X157156277Y-75002513D01*
X157222253Y-74982500D01*
X157354204Y-74942473D01*
X157431333Y-74934876D01*
X157508460Y-74927280D01*
X157611620Y-74927280D01*
X157688747Y-74934876D01*
X157688747Y-74934876D01*
G37*
G36*
X180225000Y-76875000D02*
X178125000Y-76875000D01*
X178125000Y-74775000D01*
X180225000Y-74775000D01*
X180225000Y-76875000D01*
X180225000Y-76875000D01*
G37*
G36*
X91275187Y-74041996D02*
X91352316Y-74049593D01*
X91484267Y-74089620D01*
X91550243Y-74109633D01*
X91732652Y-74207133D01*
X91892534Y-74338346D01*
X92023747Y-74498228D01*
X92121247Y-74680637D01*
X92121247Y-74680638D01*
X92181287Y-74878564D01*
X92201560Y-75084400D01*
X92181287Y-75290236D01*
X92141260Y-75422187D01*
X92121247Y-75488163D01*
X92023747Y-75670572D01*
X91892534Y-75830454D01*
X91732652Y-75961667D01*
X91550243Y-76059167D01*
X91484267Y-76079180D01*
X91352316Y-76119207D01*
X91275187Y-76126804D01*
X91198060Y-76134400D01*
X91094900Y-76134400D01*
X91017773Y-76126804D01*
X90940644Y-76119207D01*
X90808693Y-76079180D01*
X90742717Y-76059167D01*
X90560308Y-75961667D01*
X90400426Y-75830454D01*
X90269213Y-75670572D01*
X90171713Y-75488163D01*
X90151700Y-75422187D01*
X90111673Y-75290236D01*
X90091400Y-75084400D01*
X90111673Y-74878564D01*
X90171713Y-74680638D01*
X90171713Y-74680637D01*
X90269213Y-74498228D01*
X90400426Y-74338346D01*
X90560308Y-74207133D01*
X90742717Y-74109633D01*
X90808693Y-74089620D01*
X90940644Y-74049593D01*
X91017773Y-74041996D01*
X91094900Y-74034400D01*
X91198060Y-74034400D01*
X91275187Y-74041996D01*
X91275187Y-74041996D01*
G37*
G36*
X102321827Y-73426116D02*
X102398956Y-73433713D01*
X102530907Y-73473740D01*
X102596883Y-73493753D01*
X102779292Y-73591253D01*
X102939174Y-73722466D01*
X103070387Y-73882348D01*
X103167887Y-74064757D01*
X103167887Y-74064758D01*
X103227927Y-74262684D01*
X103248200Y-74468520D01*
X103227927Y-74674356D01*
X103226021Y-74680638D01*
X103167887Y-74872283D01*
X103070387Y-75054692D01*
X102939174Y-75214574D01*
X102779292Y-75345787D01*
X102596883Y-75443287D01*
X102530907Y-75463300D01*
X102398956Y-75503327D01*
X102321827Y-75510923D01*
X102244700Y-75518520D01*
X102141540Y-75518520D01*
X102064413Y-75510923D01*
X101987284Y-75503327D01*
X101855333Y-75463300D01*
X101789357Y-75443287D01*
X101606948Y-75345787D01*
X101447066Y-75214574D01*
X101315853Y-75054692D01*
X101218353Y-74872283D01*
X101160219Y-74680638D01*
X101158313Y-74674356D01*
X101138040Y-74468520D01*
X101158313Y-74262684D01*
X101218353Y-74064758D01*
X101218353Y-74064757D01*
X101315853Y-73882348D01*
X101447066Y-73722466D01*
X101606948Y-73591253D01*
X101789357Y-73493753D01*
X101855333Y-73473740D01*
X101987284Y-73433713D01*
X102064413Y-73426116D01*
X102141540Y-73418520D01*
X102244700Y-73418520D01*
X102321827Y-73426116D01*
X102321827Y-73426116D01*
G37*
G36*
X104861827Y-73426116D02*
X104938956Y-73433713D01*
X105070907Y-73473740D01*
X105136883Y-73493753D01*
X105319292Y-73591253D01*
X105479174Y-73722466D01*
X105610387Y-73882348D01*
X105707887Y-74064757D01*
X105707887Y-74064758D01*
X105767927Y-74262684D01*
X105788200Y-74468520D01*
X105767927Y-74674356D01*
X105766021Y-74680638D01*
X105707887Y-74872283D01*
X105610387Y-75054692D01*
X105479174Y-75214574D01*
X105319292Y-75345787D01*
X105136883Y-75443287D01*
X105070907Y-75463300D01*
X104938956Y-75503327D01*
X104861827Y-75510923D01*
X104784700Y-75518520D01*
X104681540Y-75518520D01*
X104604413Y-75510923D01*
X104527284Y-75503327D01*
X104395333Y-75463300D01*
X104329357Y-75443287D01*
X104146948Y-75345787D01*
X103987066Y-75214574D01*
X103855853Y-75054692D01*
X103758353Y-74872283D01*
X103700219Y-74680638D01*
X103698313Y-74674356D01*
X103678040Y-74468520D01*
X103698313Y-74262684D01*
X103758353Y-74064758D01*
X103758353Y-74064757D01*
X103855853Y-73882348D01*
X103987066Y-73722466D01*
X104146948Y-73591253D01*
X104329357Y-73493753D01*
X104395333Y-73473740D01*
X104527284Y-73433713D01*
X104604413Y-73426116D01*
X104681540Y-73418520D01*
X104784700Y-73418520D01*
X104861827Y-73426116D01*
X104861827Y-73426116D01*
G37*
G36*
X157688747Y-72394877D02*
X157765876Y-72402473D01*
X157897827Y-72442500D01*
X157963803Y-72462513D01*
X158146212Y-72560013D01*
X158306094Y-72691226D01*
X158437307Y-72851108D01*
X158534807Y-73033517D01*
X158534807Y-73033518D01*
X158594847Y-73231444D01*
X158615120Y-73437280D01*
X158594847Y-73643116D01*
X158554820Y-73775067D01*
X158534807Y-73841043D01*
X158437307Y-74023452D01*
X158306094Y-74183334D01*
X158146212Y-74314547D01*
X157963803Y-74412047D01*
X157897827Y-74432060D01*
X157765876Y-74472087D01*
X157688747Y-74479683D01*
X157611620Y-74487280D01*
X157508460Y-74487280D01*
X157431333Y-74479683D01*
X157354204Y-74472087D01*
X157222253Y-74432060D01*
X157156277Y-74412047D01*
X156973868Y-74314547D01*
X156813986Y-74183334D01*
X156682773Y-74023452D01*
X156585273Y-73841043D01*
X156565260Y-73775067D01*
X156525233Y-73643116D01*
X156504960Y-73437280D01*
X156525233Y-73231444D01*
X156585273Y-73033518D01*
X156585273Y-73033517D01*
X156682773Y-72851108D01*
X156813986Y-72691226D01*
X156973868Y-72560013D01*
X157156277Y-72462513D01*
X157222253Y-72442500D01*
X157354204Y-72402473D01*
X157431333Y-72394877D01*
X157508460Y-72387280D01*
X157611620Y-72387280D01*
X157688747Y-72394877D01*
X157688747Y-72394877D01*
G37*
G36*
X179303707Y-72242597D02*
X179380836Y-72250193D01*
X179512787Y-72290220D01*
X179578763Y-72310233D01*
X179761172Y-72407733D01*
X179921054Y-72538946D01*
X180052267Y-72698828D01*
X180149767Y-72881237D01*
X180169780Y-72947213D01*
X180209807Y-73079164D01*
X180230080Y-73285000D01*
X180209807Y-73490836D01*
X180183000Y-73579207D01*
X180149767Y-73688763D01*
X180052267Y-73871172D01*
X179921054Y-74031054D01*
X179761172Y-74162267D01*
X179578763Y-74259767D01*
X179512787Y-74279780D01*
X179380836Y-74319807D01*
X179303707Y-74327403D01*
X179226580Y-74335000D01*
X179123420Y-74335000D01*
X179046293Y-74327403D01*
X178969164Y-74319807D01*
X178837213Y-74279780D01*
X178771237Y-74259767D01*
X178588828Y-74162267D01*
X178428946Y-74031054D01*
X178297733Y-73871172D01*
X178200233Y-73688763D01*
X178167000Y-73579207D01*
X178140193Y-73490836D01*
X178119920Y-73285000D01*
X178140193Y-73079164D01*
X178180220Y-72947213D01*
X178200233Y-72881237D01*
X178297733Y-72698828D01*
X178428946Y-72538946D01*
X178588828Y-72407733D01*
X178771237Y-72310233D01*
X178837213Y-72290220D01*
X178969164Y-72250193D01*
X179046293Y-72242597D01*
X179123420Y-72235000D01*
X179226580Y-72235000D01*
X179303707Y-72242597D01*
X179303707Y-72242597D01*
G37*
G36*
X91275187Y-71501997D02*
X91352316Y-71509593D01*
X91484267Y-71549620D01*
X91550243Y-71569633D01*
X91732652Y-71667133D01*
X91892534Y-71798346D01*
X92023747Y-71958228D01*
X92121247Y-72140637D01*
X92121247Y-72140638D01*
X92181287Y-72338564D01*
X92201560Y-72544400D01*
X92181287Y-72750236D01*
X92141548Y-72881237D01*
X92121247Y-72948163D01*
X92023747Y-73130572D01*
X91892534Y-73290454D01*
X91732652Y-73421667D01*
X91550243Y-73519167D01*
X91484267Y-73539180D01*
X91352316Y-73579207D01*
X91275187Y-73586803D01*
X91198060Y-73594400D01*
X91094900Y-73594400D01*
X91017773Y-73586803D01*
X90940644Y-73579207D01*
X90808693Y-73539180D01*
X90742717Y-73519167D01*
X90560308Y-73421667D01*
X90400426Y-73290454D01*
X90269213Y-73130572D01*
X90171713Y-72948163D01*
X90151412Y-72881237D01*
X90111673Y-72750236D01*
X90091400Y-72544400D01*
X90111673Y-72338564D01*
X90171713Y-72140638D01*
X90171713Y-72140637D01*
X90269213Y-71958228D01*
X90400426Y-71798346D01*
X90560308Y-71667133D01*
X90742717Y-71569633D01*
X90808693Y-71549620D01*
X90940644Y-71509593D01*
X91017773Y-71501997D01*
X91094900Y-71494400D01*
X91198060Y-71494400D01*
X91275187Y-71501997D01*
X91275187Y-71501997D01*
G37*
G36*
X102321827Y-70886117D02*
X102398956Y-70893713D01*
X102530907Y-70933740D01*
X102596883Y-70953753D01*
X102779292Y-71051253D01*
X102939174Y-71182466D01*
X103070387Y-71342348D01*
X103167887Y-71524757D01*
X103167887Y-71524758D01*
X103227927Y-71722684D01*
X103248200Y-71928520D01*
X103227927Y-72134356D01*
X103226021Y-72140638D01*
X103167887Y-72332283D01*
X103070387Y-72514692D01*
X102939174Y-72674574D01*
X102779292Y-72805787D01*
X102596883Y-72903287D01*
X102530907Y-72923300D01*
X102398956Y-72963327D01*
X102321827Y-72970924D01*
X102244700Y-72978520D01*
X102141540Y-72978520D01*
X102064413Y-72970924D01*
X101987284Y-72963327D01*
X101855333Y-72923300D01*
X101789357Y-72903287D01*
X101606948Y-72805787D01*
X101447066Y-72674574D01*
X101315853Y-72514692D01*
X101218353Y-72332283D01*
X101160219Y-72140638D01*
X101158313Y-72134356D01*
X101138040Y-71928520D01*
X101158313Y-71722684D01*
X101218353Y-71524758D01*
X101218353Y-71524757D01*
X101315853Y-71342348D01*
X101447066Y-71182466D01*
X101606948Y-71051253D01*
X101789357Y-70953753D01*
X101855333Y-70933740D01*
X101987284Y-70893713D01*
X102064413Y-70886117D01*
X102141540Y-70878520D01*
X102244700Y-70878520D01*
X102321827Y-70886117D01*
X102321827Y-70886117D01*
G37*
G36*
X104861827Y-70886117D02*
X104938956Y-70893713D01*
X105070907Y-70933740D01*
X105136883Y-70953753D01*
X105319292Y-71051253D01*
X105479174Y-71182466D01*
X105610387Y-71342348D01*
X105707887Y-71524757D01*
X105707887Y-71524758D01*
X105767927Y-71722684D01*
X105788200Y-71928520D01*
X105767927Y-72134356D01*
X105766021Y-72140638D01*
X105707887Y-72332283D01*
X105610387Y-72514692D01*
X105479174Y-72674574D01*
X105319292Y-72805787D01*
X105136883Y-72903287D01*
X105070907Y-72923300D01*
X104938956Y-72963327D01*
X104861827Y-72970924D01*
X104784700Y-72978520D01*
X104681540Y-72978520D01*
X104604413Y-72970924D01*
X104527284Y-72963327D01*
X104395333Y-72923300D01*
X104329357Y-72903287D01*
X104146948Y-72805787D01*
X103987066Y-72674574D01*
X103855853Y-72514692D01*
X103758353Y-72332283D01*
X103700219Y-72140638D01*
X103698313Y-72134356D01*
X103678040Y-71928520D01*
X103698313Y-71722684D01*
X103758353Y-71524758D01*
X103758353Y-71524757D01*
X103855853Y-71342348D01*
X103987066Y-71182466D01*
X104146948Y-71051253D01*
X104329357Y-70953753D01*
X104395333Y-70933740D01*
X104527284Y-70893713D01*
X104604413Y-70886117D01*
X104681540Y-70878520D01*
X104784700Y-70878520D01*
X104861827Y-70886117D01*
X104861827Y-70886117D01*
G37*
G36*
X157688747Y-69854876D02*
X157765876Y-69862473D01*
X157897827Y-69902500D01*
X157963803Y-69922513D01*
X158146212Y-70020013D01*
X158306094Y-70151226D01*
X158437307Y-70311108D01*
X158534807Y-70493517D01*
X158534807Y-70493518D01*
X158594847Y-70691444D01*
X158615120Y-70897280D01*
X158594847Y-71103116D01*
X158554820Y-71235067D01*
X158534807Y-71301043D01*
X158437307Y-71483452D01*
X158306094Y-71643334D01*
X158146212Y-71774547D01*
X157963803Y-71872047D01*
X157897827Y-71892060D01*
X157765876Y-71932087D01*
X157688747Y-71939683D01*
X157611620Y-71947280D01*
X157508460Y-71947280D01*
X157431333Y-71939683D01*
X157354204Y-71932087D01*
X157222253Y-71892060D01*
X157156277Y-71872047D01*
X156973868Y-71774547D01*
X156813986Y-71643334D01*
X156682773Y-71483452D01*
X156585273Y-71301043D01*
X156565260Y-71235067D01*
X156525233Y-71103116D01*
X156504960Y-70897280D01*
X156525233Y-70691444D01*
X156585273Y-70493518D01*
X156585273Y-70493517D01*
X156682773Y-70311108D01*
X156813986Y-70151226D01*
X156973868Y-70020013D01*
X157156277Y-69922513D01*
X157222253Y-69902500D01*
X157354204Y-69862473D01*
X157431333Y-69854876D01*
X157508460Y-69847280D01*
X157611620Y-69847280D01*
X157688747Y-69854876D01*
X157688747Y-69854876D01*
G37*
G36*
X91275187Y-68961996D02*
X91352316Y-68969593D01*
X91484267Y-69009620D01*
X91550243Y-69029633D01*
X91732652Y-69127133D01*
X91892534Y-69258346D01*
X92023747Y-69418228D01*
X92121247Y-69600637D01*
X92121247Y-69600638D01*
X92181287Y-69798564D01*
X92201560Y-70004400D01*
X92181287Y-70210236D01*
X92141260Y-70342187D01*
X92121247Y-70408163D01*
X92023747Y-70590572D01*
X91892534Y-70750454D01*
X91732652Y-70881667D01*
X91550243Y-70979167D01*
X91484267Y-70999180D01*
X91352316Y-71039207D01*
X91275187Y-71046803D01*
X91198060Y-71054400D01*
X91094900Y-71054400D01*
X91017773Y-71046803D01*
X90940644Y-71039207D01*
X90808693Y-70999180D01*
X90742717Y-70979167D01*
X90560308Y-70881667D01*
X90400426Y-70750454D01*
X90269213Y-70590572D01*
X90171713Y-70408163D01*
X90151700Y-70342187D01*
X90111673Y-70210236D01*
X90091400Y-70004400D01*
X90111673Y-69798564D01*
X90171713Y-69600638D01*
X90171713Y-69600637D01*
X90269213Y-69418228D01*
X90400426Y-69258346D01*
X90560308Y-69127133D01*
X90742717Y-69029633D01*
X90808693Y-69009620D01*
X90940644Y-68969593D01*
X91017773Y-68961996D01*
X91094900Y-68954400D01*
X91198060Y-68954400D01*
X91275187Y-68961996D01*
X91275187Y-68961996D01*
G37*
G36*
X104861827Y-68346116D02*
X104938956Y-68353713D01*
X105070907Y-68393740D01*
X105136883Y-68413753D01*
X105319292Y-68511253D01*
X105479174Y-68642466D01*
X105610387Y-68802348D01*
X105707887Y-68984757D01*
X105707887Y-68984758D01*
X105767927Y-69182684D01*
X105788200Y-69388520D01*
X105767927Y-69594356D01*
X105766021Y-69600638D01*
X105707887Y-69792283D01*
X105610387Y-69974692D01*
X105479174Y-70134574D01*
X105319292Y-70265787D01*
X105136883Y-70363287D01*
X105070907Y-70383300D01*
X104938956Y-70423327D01*
X104861827Y-70430923D01*
X104784700Y-70438520D01*
X104681540Y-70438520D01*
X104604413Y-70430923D01*
X104527284Y-70423327D01*
X104395333Y-70383300D01*
X104329357Y-70363287D01*
X104146948Y-70265787D01*
X103987066Y-70134574D01*
X103855853Y-69974692D01*
X103758353Y-69792283D01*
X103700219Y-69600638D01*
X103698313Y-69594356D01*
X103678040Y-69388520D01*
X103698313Y-69182684D01*
X103758353Y-68984758D01*
X103758353Y-68984757D01*
X103855853Y-68802348D01*
X103987066Y-68642466D01*
X104146948Y-68511253D01*
X104329357Y-68413753D01*
X104395333Y-68393740D01*
X104527284Y-68353713D01*
X104604413Y-68346116D01*
X104681540Y-68338520D01*
X104784700Y-68338520D01*
X104861827Y-68346116D01*
X104861827Y-68346116D01*
G37*
G36*
X102321827Y-68346116D02*
X102398956Y-68353713D01*
X102530907Y-68393740D01*
X102596883Y-68413753D01*
X102779292Y-68511253D01*
X102939174Y-68642466D01*
X103070387Y-68802348D01*
X103167887Y-68984757D01*
X103167887Y-68984758D01*
X103227927Y-69182684D01*
X103248200Y-69388520D01*
X103227927Y-69594356D01*
X103226021Y-69600638D01*
X103167887Y-69792283D01*
X103070387Y-69974692D01*
X102939174Y-70134574D01*
X102779292Y-70265787D01*
X102596883Y-70363287D01*
X102530907Y-70383300D01*
X102398956Y-70423327D01*
X102321827Y-70430923D01*
X102244700Y-70438520D01*
X102141540Y-70438520D01*
X102064413Y-70430923D01*
X101987284Y-70423327D01*
X101855333Y-70383300D01*
X101789357Y-70363287D01*
X101606948Y-70265787D01*
X101447066Y-70134574D01*
X101315853Y-69974692D01*
X101218353Y-69792283D01*
X101160219Y-69600638D01*
X101158313Y-69594356D01*
X101138040Y-69388520D01*
X101158313Y-69182684D01*
X101218353Y-68984758D01*
X101218353Y-68984757D01*
X101315853Y-68802348D01*
X101447066Y-68642466D01*
X101606948Y-68511253D01*
X101789357Y-68413753D01*
X101855333Y-68393740D01*
X101987284Y-68353713D01*
X102064413Y-68346116D01*
X102141540Y-68338520D01*
X102244700Y-68338520D01*
X102321827Y-68346116D01*
X102321827Y-68346116D01*
G37*
G36*
X157688747Y-67314877D02*
X157765876Y-67322473D01*
X157897827Y-67362500D01*
X157963803Y-67382513D01*
X158146212Y-67480013D01*
X158306094Y-67611226D01*
X158437307Y-67771108D01*
X158534807Y-67953517D01*
X158534807Y-67953518D01*
X158594847Y-68151444D01*
X158615120Y-68357280D01*
X158594847Y-68563116D01*
X158554820Y-68695067D01*
X158534807Y-68761043D01*
X158437307Y-68943452D01*
X158306094Y-69103334D01*
X158146212Y-69234547D01*
X157963803Y-69332047D01*
X157897827Y-69352060D01*
X157765876Y-69392087D01*
X157688747Y-69399683D01*
X157611620Y-69407280D01*
X157508460Y-69407280D01*
X157431333Y-69399683D01*
X157354204Y-69392087D01*
X157222253Y-69352060D01*
X157156277Y-69332047D01*
X156973868Y-69234547D01*
X156813986Y-69103334D01*
X156682773Y-68943452D01*
X156585273Y-68761043D01*
X156565260Y-68695067D01*
X156525233Y-68563116D01*
X156504960Y-68357280D01*
X156525233Y-68151444D01*
X156585273Y-67953518D01*
X156585273Y-67953517D01*
X156682773Y-67771108D01*
X156813986Y-67611226D01*
X156973868Y-67480013D01*
X157156277Y-67382513D01*
X157222253Y-67362500D01*
X157354204Y-67322473D01*
X157431333Y-67314877D01*
X157508460Y-67307280D01*
X157611620Y-67307280D01*
X157688747Y-67314877D01*
X157688747Y-67314877D01*
G37*
G36*
X91275187Y-66421997D02*
X91352316Y-66429593D01*
X91484267Y-66469620D01*
X91550243Y-66489633D01*
X91732652Y-66587133D01*
X91892534Y-66718346D01*
X92023747Y-66878228D01*
X92121247Y-67060637D01*
X92121247Y-67060638D01*
X92181287Y-67258564D01*
X92201560Y-67464400D01*
X92181287Y-67670236D01*
X92141260Y-67802187D01*
X92121247Y-67868163D01*
X92023747Y-68050572D01*
X91892534Y-68210454D01*
X91732652Y-68341667D01*
X91550243Y-68439167D01*
X91484267Y-68459180D01*
X91352316Y-68499207D01*
X91275187Y-68506803D01*
X91198060Y-68514400D01*
X91094900Y-68514400D01*
X91017773Y-68506803D01*
X90940644Y-68499207D01*
X90808693Y-68459180D01*
X90742717Y-68439167D01*
X90560308Y-68341667D01*
X90400426Y-68210454D01*
X90269213Y-68050572D01*
X90171713Y-67868163D01*
X90151700Y-67802187D01*
X90111673Y-67670236D01*
X90091400Y-67464400D01*
X90111673Y-67258564D01*
X90171713Y-67060638D01*
X90171713Y-67060637D01*
X90269213Y-66878228D01*
X90400426Y-66718346D01*
X90560308Y-66587133D01*
X90742717Y-66489633D01*
X90808693Y-66469620D01*
X90940644Y-66429593D01*
X91017773Y-66421997D01*
X91094900Y-66414400D01*
X91198060Y-66414400D01*
X91275187Y-66421997D01*
X91275187Y-66421997D01*
G37*
G36*
X157688747Y-64774876D02*
X157765876Y-64782473D01*
X157897827Y-64822500D01*
X157963803Y-64842513D01*
X158146212Y-64940013D01*
X158306094Y-65071226D01*
X158437307Y-65231108D01*
X158534807Y-65413517D01*
X158534807Y-65413518D01*
X158594847Y-65611444D01*
X158615120Y-65817280D01*
X158594847Y-66023116D01*
X158554820Y-66155067D01*
X158534807Y-66221043D01*
X158437307Y-66403452D01*
X158306094Y-66563334D01*
X158146212Y-66694547D01*
X157963803Y-66792047D01*
X157897827Y-66812060D01*
X157765876Y-66852087D01*
X157688747Y-66859683D01*
X157611620Y-66867280D01*
X157508460Y-66867280D01*
X157431333Y-66859683D01*
X157354204Y-66852087D01*
X157222253Y-66812060D01*
X157156277Y-66792047D01*
X156973868Y-66694547D01*
X156813986Y-66563334D01*
X156682773Y-66403452D01*
X156585273Y-66221043D01*
X156565260Y-66155067D01*
X156525233Y-66023116D01*
X156504960Y-65817280D01*
X156525233Y-65611444D01*
X156585273Y-65413518D01*
X156585273Y-65413517D01*
X156682773Y-65231108D01*
X156813986Y-65071226D01*
X156973868Y-64940013D01*
X157156277Y-64842513D01*
X157222253Y-64822500D01*
X157354204Y-64782473D01*
X157431333Y-64774876D01*
X157508460Y-64767280D01*
X157611620Y-64767280D01*
X157688747Y-64774876D01*
X157688747Y-64774876D01*
G37*
G36*
X91275187Y-63881996D02*
X91352316Y-63889593D01*
X91484267Y-63929620D01*
X91550243Y-63949633D01*
X91732652Y-64047133D01*
X91892534Y-64178346D01*
X92023747Y-64338228D01*
X92121247Y-64520637D01*
X92121247Y-64520638D01*
X92181287Y-64718564D01*
X92201560Y-64924400D01*
X92181287Y-65130236D01*
X92141260Y-65262187D01*
X92121247Y-65328163D01*
X92023747Y-65510572D01*
X91892534Y-65670454D01*
X91732652Y-65801667D01*
X91550243Y-65899167D01*
X91484267Y-65919180D01*
X91352316Y-65959207D01*
X91275187Y-65966803D01*
X91198060Y-65974400D01*
X91094900Y-65974400D01*
X91017773Y-65966803D01*
X90940644Y-65959207D01*
X90808693Y-65919180D01*
X90742717Y-65899167D01*
X90560308Y-65801667D01*
X90400426Y-65670454D01*
X90269213Y-65510572D01*
X90171713Y-65328163D01*
X90151700Y-65262187D01*
X90111673Y-65130236D01*
X90091400Y-64924400D01*
X90111673Y-64718564D01*
X90171713Y-64520638D01*
X90171713Y-64520637D01*
X90269213Y-64338228D01*
X90400426Y-64178346D01*
X90560308Y-64047133D01*
X90742717Y-63949633D01*
X90808693Y-63929620D01*
X90940644Y-63889593D01*
X91017773Y-63881996D01*
X91094900Y-63874400D01*
X91198060Y-63874400D01*
X91275187Y-63881996D01*
X91275187Y-63881996D01*
G37*
G36*
X157688747Y-62234877D02*
X157765876Y-62242473D01*
X157897827Y-62282500D01*
X157963803Y-62302513D01*
X158146212Y-62400013D01*
X158306094Y-62531226D01*
X158437307Y-62691108D01*
X158534807Y-62873517D01*
X158534807Y-62873518D01*
X158594847Y-63071444D01*
X158615120Y-63277280D01*
X158594847Y-63483116D01*
X158554820Y-63615067D01*
X158534807Y-63681043D01*
X158437307Y-63863452D01*
X158306094Y-64023334D01*
X158146212Y-64154547D01*
X157963803Y-64252047D01*
X157897827Y-64272060D01*
X157765876Y-64312087D01*
X157688747Y-64319684D01*
X157611620Y-64327280D01*
X157508460Y-64327280D01*
X157431333Y-64319684D01*
X157354204Y-64312087D01*
X157222253Y-64272060D01*
X157156277Y-64252047D01*
X156973868Y-64154547D01*
X156813986Y-64023334D01*
X156682773Y-63863452D01*
X156585273Y-63681043D01*
X156565260Y-63615067D01*
X156525233Y-63483116D01*
X156504960Y-63277280D01*
X156525233Y-63071444D01*
X156585273Y-62873518D01*
X156585273Y-62873517D01*
X156682773Y-62691108D01*
X156813986Y-62531226D01*
X156973868Y-62400013D01*
X157156277Y-62302513D01*
X157222253Y-62282500D01*
X157354204Y-62242473D01*
X157431333Y-62234877D01*
X157508460Y-62227280D01*
X157611620Y-62227280D01*
X157688747Y-62234877D01*
X157688747Y-62234877D01*
G37*
G36*
X91275187Y-61341997D02*
X91352316Y-61349593D01*
X91484267Y-61389620D01*
X91550243Y-61409633D01*
X91732652Y-61507133D01*
X91892534Y-61638346D01*
X92023747Y-61798228D01*
X92121247Y-61980637D01*
X92121247Y-61980638D01*
X92181287Y-62178564D01*
X92201560Y-62384400D01*
X92181287Y-62590236D01*
X92141260Y-62722187D01*
X92121247Y-62788163D01*
X92023747Y-62970572D01*
X91892534Y-63130454D01*
X91732652Y-63261667D01*
X91550243Y-63359167D01*
X91484267Y-63379180D01*
X91352316Y-63419207D01*
X91275187Y-63426803D01*
X91198060Y-63434400D01*
X91094900Y-63434400D01*
X91017773Y-63426803D01*
X90940644Y-63419207D01*
X90808693Y-63379180D01*
X90742717Y-63359167D01*
X90560308Y-63261667D01*
X90400426Y-63130454D01*
X90269213Y-62970572D01*
X90171713Y-62788163D01*
X90151700Y-62722187D01*
X90111673Y-62590236D01*
X90091400Y-62384400D01*
X90111673Y-62178564D01*
X90171713Y-61980638D01*
X90171713Y-61980637D01*
X90269213Y-61798228D01*
X90400426Y-61638346D01*
X90560308Y-61507133D01*
X90742717Y-61409633D01*
X90808693Y-61389620D01*
X90940644Y-61349593D01*
X91017773Y-61341997D01*
X91094900Y-61334400D01*
X91198060Y-61334400D01*
X91275187Y-61341997D01*
X91275187Y-61341997D01*
G37*
G36*
X178978707Y-61117596D02*
X179055836Y-61125193D01*
X179187787Y-61165220D01*
X179253763Y-61185233D01*
X179436172Y-61282733D01*
X179596054Y-61413946D01*
X179727267Y-61573828D01*
X179824767Y-61756237D01*
X179837505Y-61798229D01*
X179884807Y-61954164D01*
X179905080Y-62160000D01*
X179884807Y-62365836D01*
X179844780Y-62497787D01*
X179824767Y-62563763D01*
X179727267Y-62746172D01*
X179596054Y-62906054D01*
X179436172Y-63037267D01*
X179253763Y-63134767D01*
X179187787Y-63154780D01*
X179055836Y-63194807D01*
X178978707Y-63202404D01*
X178901580Y-63210000D01*
X178798420Y-63210000D01*
X178721293Y-63202404D01*
X178644164Y-63194807D01*
X178512213Y-63154780D01*
X178446237Y-63134767D01*
X178263828Y-63037267D01*
X178103946Y-62906054D01*
X177972733Y-62746172D01*
X177875233Y-62563763D01*
X177855220Y-62497787D01*
X177815193Y-62365836D01*
X177794920Y-62160000D01*
X177815193Y-61954164D01*
X177862495Y-61798229D01*
X177875233Y-61756237D01*
X177972733Y-61573828D01*
X178103946Y-61413946D01*
X178263828Y-61282733D01*
X178446237Y-61185233D01*
X178512213Y-61165220D01*
X178644164Y-61125193D01*
X178721293Y-61117596D01*
X178798420Y-61110000D01*
X178901580Y-61110000D01*
X178978707Y-61117596D01*
X178978707Y-61117596D01*
G37*
G36*
X157688747Y-59694876D02*
X157765876Y-59702473D01*
X157897827Y-59742500D01*
X157963803Y-59762513D01*
X158146212Y-59860013D01*
X158306094Y-59991226D01*
X158437307Y-60151108D01*
X158534807Y-60333517D01*
X158534807Y-60333518D01*
X158594847Y-60531444D01*
X158615120Y-60737280D01*
X158594847Y-60943116D01*
X158554820Y-61075067D01*
X158534807Y-61141043D01*
X158437307Y-61323452D01*
X158306094Y-61483334D01*
X158146212Y-61614547D01*
X157963803Y-61712047D01*
X157897827Y-61732060D01*
X157765876Y-61772087D01*
X157688747Y-61779683D01*
X157611620Y-61787280D01*
X157508460Y-61787280D01*
X157431333Y-61779683D01*
X157354204Y-61772087D01*
X157222253Y-61732060D01*
X157156277Y-61712047D01*
X156973868Y-61614547D01*
X156813986Y-61483334D01*
X156682773Y-61323452D01*
X156585273Y-61141043D01*
X156565260Y-61075067D01*
X156525233Y-60943116D01*
X156504960Y-60737280D01*
X156525233Y-60531444D01*
X156585273Y-60333518D01*
X156585273Y-60333517D01*
X156682773Y-60151108D01*
X156813986Y-59991226D01*
X156973868Y-59860013D01*
X157156277Y-59762513D01*
X157222253Y-59742500D01*
X157354204Y-59702473D01*
X157431333Y-59694876D01*
X157508460Y-59687280D01*
X157611620Y-59687280D01*
X157688747Y-59694876D01*
X157688747Y-59694876D01*
G37*
G36*
X92196480Y-60894400D02*
X90096480Y-60894400D01*
X90096480Y-58794400D01*
X92196480Y-58794400D01*
X92196480Y-60894400D01*
X92196480Y-60894400D01*
G37*
G36*
X178978707Y-58577597D02*
X179055836Y-58585193D01*
X179187787Y-58625220D01*
X179253763Y-58645233D01*
X179436172Y-58742733D01*
X179596054Y-58873946D01*
X179727267Y-59033828D01*
X179824767Y-59216237D01*
X179824767Y-59216238D01*
X179884807Y-59414164D01*
X179905080Y-59620000D01*
X179884807Y-59825836D01*
X179844780Y-59957787D01*
X179824767Y-60023763D01*
X179727267Y-60206172D01*
X179596054Y-60366054D01*
X179436172Y-60497267D01*
X179253763Y-60594767D01*
X179187787Y-60614780D01*
X179055836Y-60654807D01*
X178978707Y-60662403D01*
X178901580Y-60670000D01*
X178798420Y-60670000D01*
X178721293Y-60662403D01*
X178644164Y-60654807D01*
X178512213Y-60614780D01*
X178446237Y-60594767D01*
X178263828Y-60497267D01*
X178103946Y-60366054D01*
X177972733Y-60206172D01*
X177875233Y-60023763D01*
X177855220Y-59957787D01*
X177815193Y-59825836D01*
X177794920Y-59620000D01*
X177815193Y-59414164D01*
X177875233Y-59216238D01*
X177875233Y-59216237D01*
X177972733Y-59033828D01*
X178103946Y-58873946D01*
X178263828Y-58742733D01*
X178446237Y-58645233D01*
X178512213Y-58625220D01*
X178644164Y-58585193D01*
X178721293Y-58577597D01*
X178798420Y-58570000D01*
X178901580Y-58570000D01*
X178978707Y-58577597D01*
X178978707Y-58577597D01*
G37*
G36*
X149164507Y-56123637D02*
X149241636Y-56131233D01*
X149373587Y-56171260D01*
X149439563Y-56191273D01*
X149621972Y-56288773D01*
X149781854Y-56419986D01*
X149913067Y-56579868D01*
X150010567Y-56762277D01*
X150010567Y-56762278D01*
X150070607Y-56960204D01*
X150090880Y-57166040D01*
X150070607Y-57371876D01*
X150030580Y-57503827D01*
X150010567Y-57569803D01*
X149913067Y-57752212D01*
X149781854Y-57912094D01*
X149621972Y-58043307D01*
X149439563Y-58140807D01*
X149373587Y-58160820D01*
X149241636Y-58200847D01*
X149164507Y-58208444D01*
X149087380Y-58216040D01*
X148984220Y-58216040D01*
X148907093Y-58208444D01*
X148829964Y-58200847D01*
X148698013Y-58160820D01*
X148632037Y-58140807D01*
X148449628Y-58043307D01*
X148289746Y-57912094D01*
X148158533Y-57752212D01*
X148061033Y-57569803D01*
X148041020Y-57503827D01*
X148000993Y-57371876D01*
X147980720Y-57166040D01*
X148000993Y-56960204D01*
X148061033Y-56762278D01*
X148061033Y-56762277D01*
X148158533Y-56579868D01*
X148289746Y-56419986D01*
X148449628Y-56288773D01*
X148632037Y-56191273D01*
X148698013Y-56171260D01*
X148829964Y-56131233D01*
X148907093Y-56123637D01*
X148984220Y-56116040D01*
X149087380Y-56116040D01*
X149164507Y-56123637D01*
X149164507Y-56123637D01*
G37*
G36*
X152625800Y-58216040D02*
X150525800Y-58216040D01*
X150525800Y-56116040D01*
X152625800Y-56116040D01*
X152625800Y-58216040D01*
X152625800Y-58216040D01*
G37*
G36*
X144084507Y-56123637D02*
X144161636Y-56131233D01*
X144293587Y-56171260D01*
X144359563Y-56191273D01*
X144541972Y-56288773D01*
X144701854Y-56419986D01*
X144833067Y-56579868D01*
X144930567Y-56762277D01*
X144930567Y-56762278D01*
X144990607Y-56960204D01*
X145010880Y-57166040D01*
X144990607Y-57371876D01*
X144950580Y-57503827D01*
X144930567Y-57569803D01*
X144833067Y-57752212D01*
X144701854Y-57912094D01*
X144541972Y-58043307D01*
X144359563Y-58140807D01*
X144293587Y-58160820D01*
X144161636Y-58200847D01*
X144084507Y-58208444D01*
X144007380Y-58216040D01*
X143904220Y-58216040D01*
X143827093Y-58208444D01*
X143749964Y-58200847D01*
X143618013Y-58160820D01*
X143552037Y-58140807D01*
X143369628Y-58043307D01*
X143209746Y-57912094D01*
X143078533Y-57752212D01*
X142981033Y-57569803D01*
X142961020Y-57503827D01*
X142920993Y-57371876D01*
X142900720Y-57166040D01*
X142920993Y-56960204D01*
X142981033Y-56762278D01*
X142981033Y-56762277D01*
X143078533Y-56579868D01*
X143209746Y-56419986D01*
X143369628Y-56288773D01*
X143552037Y-56191273D01*
X143618013Y-56171260D01*
X143749964Y-56131233D01*
X143827093Y-56123637D01*
X143904220Y-56116040D01*
X144007380Y-56116040D01*
X144084507Y-56123637D01*
X144084507Y-56123637D01*
G37*
G36*
X136464507Y-56123637D02*
X136541636Y-56131233D01*
X136673587Y-56171260D01*
X136739563Y-56191273D01*
X136921972Y-56288773D01*
X137081854Y-56419986D01*
X137213067Y-56579868D01*
X137310567Y-56762277D01*
X137310567Y-56762278D01*
X137370607Y-56960204D01*
X137390880Y-57166040D01*
X137370607Y-57371876D01*
X137330580Y-57503827D01*
X137310567Y-57569803D01*
X137213067Y-57752212D01*
X137081854Y-57912094D01*
X136921972Y-58043307D01*
X136739563Y-58140807D01*
X136673587Y-58160820D01*
X136541636Y-58200847D01*
X136464507Y-58208444D01*
X136387380Y-58216040D01*
X136284220Y-58216040D01*
X136207093Y-58208444D01*
X136129964Y-58200847D01*
X135998013Y-58160820D01*
X135932037Y-58140807D01*
X135749628Y-58043307D01*
X135589746Y-57912094D01*
X135458533Y-57752212D01*
X135361033Y-57569803D01*
X135341020Y-57503827D01*
X135300993Y-57371876D01*
X135280720Y-57166040D01*
X135300993Y-56960204D01*
X135361033Y-56762278D01*
X135361033Y-56762277D01*
X135458533Y-56579868D01*
X135589746Y-56419986D01*
X135749628Y-56288773D01*
X135932037Y-56191273D01*
X135998013Y-56171260D01*
X136129964Y-56131233D01*
X136207093Y-56123637D01*
X136284220Y-56116040D01*
X136387380Y-56116040D01*
X136464507Y-56123637D01*
X136464507Y-56123637D01*
G37*
G36*
X133924507Y-56123637D02*
X134001636Y-56131233D01*
X134133587Y-56171260D01*
X134199563Y-56191273D01*
X134381972Y-56288773D01*
X134541854Y-56419986D01*
X134673067Y-56579868D01*
X134770567Y-56762277D01*
X134770567Y-56762278D01*
X134830607Y-56960204D01*
X134850880Y-57166040D01*
X134830607Y-57371876D01*
X134790580Y-57503827D01*
X134770567Y-57569803D01*
X134673067Y-57752212D01*
X134541854Y-57912094D01*
X134381972Y-58043307D01*
X134199563Y-58140807D01*
X134133587Y-58160820D01*
X134001636Y-58200847D01*
X133924507Y-58208444D01*
X133847380Y-58216040D01*
X133744220Y-58216040D01*
X133667093Y-58208444D01*
X133589964Y-58200847D01*
X133458013Y-58160820D01*
X133392037Y-58140807D01*
X133209628Y-58043307D01*
X133049746Y-57912094D01*
X132918533Y-57752212D01*
X132821033Y-57569803D01*
X132801020Y-57503827D01*
X132760993Y-57371876D01*
X132740720Y-57166040D01*
X132760993Y-56960204D01*
X132821033Y-56762278D01*
X132821033Y-56762277D01*
X132918533Y-56579868D01*
X133049746Y-56419986D01*
X133209628Y-56288773D01*
X133392037Y-56191273D01*
X133458013Y-56171260D01*
X133589964Y-56131233D01*
X133667093Y-56123637D01*
X133744220Y-56116040D01*
X133847380Y-56116040D01*
X133924507Y-56123637D01*
X133924507Y-56123637D01*
G37*
G36*
X139004507Y-56123637D02*
X139081636Y-56131233D01*
X139213587Y-56171260D01*
X139279563Y-56191273D01*
X139461972Y-56288773D01*
X139621854Y-56419986D01*
X139753067Y-56579868D01*
X139850567Y-56762277D01*
X139850567Y-56762278D01*
X139910607Y-56960204D01*
X139930880Y-57166040D01*
X139910607Y-57371876D01*
X139870580Y-57503827D01*
X139850567Y-57569803D01*
X139753067Y-57752212D01*
X139621854Y-57912094D01*
X139461972Y-58043307D01*
X139279563Y-58140807D01*
X139213587Y-58160820D01*
X139081636Y-58200847D01*
X139004507Y-58208444D01*
X138927380Y-58216040D01*
X138824220Y-58216040D01*
X138747093Y-58208444D01*
X138669964Y-58200847D01*
X138538013Y-58160820D01*
X138472037Y-58140807D01*
X138289628Y-58043307D01*
X138129746Y-57912094D01*
X137998533Y-57752212D01*
X137901033Y-57569803D01*
X137881020Y-57503827D01*
X137840993Y-57371876D01*
X137820720Y-57166040D01*
X137840993Y-56960204D01*
X137901033Y-56762278D01*
X137901033Y-56762277D01*
X137998533Y-56579868D01*
X138129746Y-56419986D01*
X138289628Y-56288773D01*
X138472037Y-56191273D01*
X138538013Y-56171260D01*
X138669964Y-56131233D01*
X138747093Y-56123637D01*
X138824220Y-56116040D01*
X138927380Y-56116040D01*
X139004507Y-56123637D01*
X139004507Y-56123637D01*
G37*
G36*
X113604507Y-56123637D02*
X113681636Y-56131233D01*
X113813587Y-56171260D01*
X113879563Y-56191273D01*
X114061972Y-56288773D01*
X114221854Y-56419986D01*
X114353067Y-56579868D01*
X114450567Y-56762277D01*
X114450567Y-56762278D01*
X114510607Y-56960204D01*
X114530880Y-57166040D01*
X114510607Y-57371876D01*
X114470580Y-57503827D01*
X114450567Y-57569803D01*
X114353067Y-57752212D01*
X114221854Y-57912094D01*
X114061972Y-58043307D01*
X113879563Y-58140807D01*
X113813587Y-58160820D01*
X113681636Y-58200847D01*
X113604507Y-58208444D01*
X113527380Y-58216040D01*
X113424220Y-58216040D01*
X113347093Y-58208444D01*
X113269964Y-58200847D01*
X113138013Y-58160820D01*
X113072037Y-58140807D01*
X112889628Y-58043307D01*
X112729746Y-57912094D01*
X112598533Y-57752212D01*
X112501033Y-57569803D01*
X112481020Y-57503827D01*
X112440993Y-57371876D01*
X112420720Y-57166040D01*
X112440993Y-56960204D01*
X112501033Y-56762278D01*
X112501033Y-56762277D01*
X112598533Y-56579868D01*
X112729746Y-56419986D01*
X112889628Y-56288773D01*
X113072037Y-56191273D01*
X113138013Y-56171260D01*
X113269964Y-56131233D01*
X113347093Y-56123637D01*
X113424220Y-56116040D01*
X113527380Y-56116040D01*
X113604507Y-56123637D01*
X113604507Y-56123637D01*
G37*
G36*
X141544507Y-56123637D02*
X141621636Y-56131233D01*
X141753587Y-56171260D01*
X141819563Y-56191273D01*
X142001972Y-56288773D01*
X142161854Y-56419986D01*
X142293067Y-56579868D01*
X142390567Y-56762277D01*
X142390567Y-56762278D01*
X142450607Y-56960204D01*
X142470880Y-57166040D01*
X142450607Y-57371876D01*
X142410580Y-57503827D01*
X142390567Y-57569803D01*
X142293067Y-57752212D01*
X142161854Y-57912094D01*
X142001972Y-58043307D01*
X141819563Y-58140807D01*
X141753587Y-58160820D01*
X141621636Y-58200847D01*
X141544507Y-58208444D01*
X141467380Y-58216040D01*
X141364220Y-58216040D01*
X141287093Y-58208444D01*
X141209964Y-58200847D01*
X141078013Y-58160820D01*
X141012037Y-58140807D01*
X140829628Y-58043307D01*
X140669746Y-57912094D01*
X140538533Y-57752212D01*
X140441033Y-57569803D01*
X140421020Y-57503827D01*
X140380993Y-57371876D01*
X140360720Y-57166040D01*
X140380993Y-56960204D01*
X140441033Y-56762278D01*
X140441033Y-56762277D01*
X140538533Y-56579868D01*
X140669746Y-56419986D01*
X140829628Y-56288773D01*
X141012037Y-56191273D01*
X141078013Y-56171260D01*
X141209964Y-56131233D01*
X141287093Y-56123637D01*
X141364220Y-56116040D01*
X141467380Y-56116040D01*
X141544507Y-56123637D01*
X141544507Y-56123637D01*
G37*
G36*
X116144507Y-56123637D02*
X116221636Y-56131233D01*
X116353587Y-56171260D01*
X116419563Y-56191273D01*
X116601972Y-56288773D01*
X116761854Y-56419986D01*
X116893067Y-56579868D01*
X116990567Y-56762277D01*
X116990567Y-56762278D01*
X117050607Y-56960204D01*
X117070880Y-57166040D01*
X117050607Y-57371876D01*
X117010580Y-57503827D01*
X116990567Y-57569803D01*
X116893067Y-57752212D01*
X116761854Y-57912094D01*
X116601972Y-58043307D01*
X116419563Y-58140807D01*
X116353587Y-58160820D01*
X116221636Y-58200847D01*
X116144507Y-58208444D01*
X116067380Y-58216040D01*
X115964220Y-58216040D01*
X115887093Y-58208444D01*
X115809964Y-58200847D01*
X115678013Y-58160820D01*
X115612037Y-58140807D01*
X115429628Y-58043307D01*
X115269746Y-57912094D01*
X115138533Y-57752212D01*
X115041033Y-57569803D01*
X115021020Y-57503827D01*
X114980993Y-57371876D01*
X114960720Y-57166040D01*
X114980993Y-56960204D01*
X115041033Y-56762278D01*
X115041033Y-56762277D01*
X115138533Y-56579868D01*
X115269746Y-56419986D01*
X115429628Y-56288773D01*
X115612037Y-56191273D01*
X115678013Y-56171260D01*
X115809964Y-56131233D01*
X115887093Y-56123637D01*
X115964220Y-56116040D01*
X116067380Y-56116040D01*
X116144507Y-56123637D01*
X116144507Y-56123637D01*
G37*
G36*
X118684507Y-56123637D02*
X118761636Y-56131233D01*
X118893587Y-56171260D01*
X118959563Y-56191273D01*
X119141972Y-56288773D01*
X119301854Y-56419986D01*
X119433067Y-56579868D01*
X119530567Y-56762277D01*
X119530567Y-56762278D01*
X119590607Y-56960204D01*
X119610880Y-57166040D01*
X119590607Y-57371876D01*
X119550580Y-57503827D01*
X119530567Y-57569803D01*
X119433067Y-57752212D01*
X119301854Y-57912094D01*
X119141972Y-58043307D01*
X118959563Y-58140807D01*
X118893587Y-58160820D01*
X118761636Y-58200847D01*
X118684507Y-58208444D01*
X118607380Y-58216040D01*
X118504220Y-58216040D01*
X118427093Y-58208444D01*
X118349964Y-58200847D01*
X118218013Y-58160820D01*
X118152037Y-58140807D01*
X117969628Y-58043307D01*
X117809746Y-57912094D01*
X117678533Y-57752212D01*
X117581033Y-57569803D01*
X117561020Y-57503827D01*
X117520993Y-57371876D01*
X117500720Y-57166040D01*
X117520993Y-56960204D01*
X117581033Y-56762278D01*
X117581033Y-56762277D01*
X117678533Y-56579868D01*
X117809746Y-56419986D01*
X117969628Y-56288773D01*
X118152037Y-56191273D01*
X118218013Y-56171260D01*
X118349964Y-56131233D01*
X118427093Y-56123637D01*
X118504220Y-56116040D01*
X118607380Y-56116040D01*
X118684507Y-56123637D01*
X118684507Y-56123637D01*
G37*
G36*
X121224507Y-56123637D02*
X121301636Y-56131233D01*
X121433587Y-56171260D01*
X121499563Y-56191273D01*
X121681972Y-56288773D01*
X121841854Y-56419986D01*
X121973067Y-56579868D01*
X122070567Y-56762277D01*
X122070567Y-56762278D01*
X122130607Y-56960204D01*
X122150880Y-57166040D01*
X122130607Y-57371876D01*
X122090580Y-57503827D01*
X122070567Y-57569803D01*
X121973067Y-57752212D01*
X121841854Y-57912094D01*
X121681972Y-58043307D01*
X121499563Y-58140807D01*
X121433587Y-58160820D01*
X121301636Y-58200847D01*
X121224507Y-58208444D01*
X121147380Y-58216040D01*
X121044220Y-58216040D01*
X120967093Y-58208444D01*
X120889964Y-58200847D01*
X120758013Y-58160820D01*
X120692037Y-58140807D01*
X120509628Y-58043307D01*
X120349746Y-57912094D01*
X120218533Y-57752212D01*
X120121033Y-57569803D01*
X120101020Y-57503827D01*
X120060993Y-57371876D01*
X120040720Y-57166040D01*
X120060993Y-56960204D01*
X120121033Y-56762278D01*
X120121033Y-56762277D01*
X120218533Y-56579868D01*
X120349746Y-56419986D01*
X120509628Y-56288773D01*
X120692037Y-56191273D01*
X120758013Y-56171260D01*
X120889964Y-56131233D01*
X120967093Y-56123637D01*
X121044220Y-56116040D01*
X121147380Y-56116040D01*
X121224507Y-56123637D01*
X121224507Y-56123637D01*
G37*
G36*
X123764507Y-56123637D02*
X123841636Y-56131233D01*
X123973587Y-56171260D01*
X124039563Y-56191273D01*
X124221972Y-56288773D01*
X124381854Y-56419986D01*
X124513067Y-56579868D01*
X124610567Y-56762277D01*
X124610567Y-56762278D01*
X124670607Y-56960204D01*
X124690880Y-57166040D01*
X124670607Y-57371876D01*
X124630580Y-57503827D01*
X124610567Y-57569803D01*
X124513067Y-57752212D01*
X124381854Y-57912094D01*
X124221972Y-58043307D01*
X124039563Y-58140807D01*
X123973587Y-58160820D01*
X123841636Y-58200847D01*
X123764507Y-58208444D01*
X123687380Y-58216040D01*
X123584220Y-58216040D01*
X123507093Y-58208444D01*
X123429964Y-58200847D01*
X123298013Y-58160820D01*
X123232037Y-58140807D01*
X123049628Y-58043307D01*
X122889746Y-57912094D01*
X122758533Y-57752212D01*
X122661033Y-57569803D01*
X122641020Y-57503827D01*
X122600993Y-57371876D01*
X122580720Y-57166040D01*
X122600993Y-56960204D01*
X122661033Y-56762278D01*
X122661033Y-56762277D01*
X122758533Y-56579868D01*
X122889746Y-56419986D01*
X123049628Y-56288773D01*
X123232037Y-56191273D01*
X123298013Y-56171260D01*
X123429964Y-56131233D01*
X123507093Y-56123637D01*
X123584220Y-56116040D01*
X123687380Y-56116040D01*
X123764507Y-56123637D01*
X123764507Y-56123637D01*
G37*
G36*
X128844507Y-56123637D02*
X128921636Y-56131233D01*
X129053587Y-56171260D01*
X129119563Y-56191273D01*
X129301972Y-56288773D01*
X129461854Y-56419986D01*
X129593067Y-56579868D01*
X129690567Y-56762277D01*
X129690567Y-56762278D01*
X129750607Y-56960204D01*
X129770880Y-57166040D01*
X129750607Y-57371876D01*
X129710580Y-57503827D01*
X129690567Y-57569803D01*
X129593067Y-57752212D01*
X129461854Y-57912094D01*
X129301972Y-58043307D01*
X129119563Y-58140807D01*
X129053587Y-58160820D01*
X128921636Y-58200847D01*
X128844507Y-58208444D01*
X128767380Y-58216040D01*
X128664220Y-58216040D01*
X128587093Y-58208444D01*
X128509964Y-58200847D01*
X128378013Y-58160820D01*
X128312037Y-58140807D01*
X128129628Y-58043307D01*
X127969746Y-57912094D01*
X127838533Y-57752212D01*
X127741033Y-57569803D01*
X127721020Y-57503827D01*
X127680993Y-57371876D01*
X127660720Y-57166040D01*
X127680993Y-56960204D01*
X127741033Y-56762278D01*
X127741033Y-56762277D01*
X127838533Y-56579868D01*
X127969746Y-56419986D01*
X128129628Y-56288773D01*
X128312037Y-56191273D01*
X128378013Y-56171260D01*
X128509964Y-56131233D01*
X128587093Y-56123637D01*
X128664220Y-56116040D01*
X128767380Y-56116040D01*
X128844507Y-56123637D01*
X128844507Y-56123637D01*
G37*
G36*
X131384507Y-56123637D02*
X131461636Y-56131233D01*
X131593587Y-56171260D01*
X131659563Y-56191273D01*
X131841972Y-56288773D01*
X132001854Y-56419986D01*
X132133067Y-56579868D01*
X132230567Y-56762277D01*
X132230567Y-56762278D01*
X132290607Y-56960204D01*
X132310880Y-57166040D01*
X132290607Y-57371876D01*
X132250580Y-57503827D01*
X132230567Y-57569803D01*
X132133067Y-57752212D01*
X132001854Y-57912094D01*
X131841972Y-58043307D01*
X131659563Y-58140807D01*
X131593587Y-58160820D01*
X131461636Y-58200847D01*
X131384507Y-58208444D01*
X131307380Y-58216040D01*
X131204220Y-58216040D01*
X131127093Y-58208444D01*
X131049964Y-58200847D01*
X130918013Y-58160820D01*
X130852037Y-58140807D01*
X130669628Y-58043307D01*
X130509746Y-57912094D01*
X130378533Y-57752212D01*
X130281033Y-57569803D01*
X130261020Y-57503827D01*
X130220993Y-57371876D01*
X130200720Y-57166040D01*
X130220993Y-56960204D01*
X130281033Y-56762278D01*
X130281033Y-56762277D01*
X130378533Y-56579868D01*
X130509746Y-56419986D01*
X130669628Y-56288773D01*
X130852037Y-56191273D01*
X130918013Y-56171260D01*
X131049964Y-56131233D01*
X131127093Y-56123637D01*
X131204220Y-56116040D01*
X131307380Y-56116040D01*
X131384507Y-56123637D01*
X131384507Y-56123637D01*
G37*
G36*
X126304507Y-56123637D02*
X126381636Y-56131233D01*
X126513587Y-56171260D01*
X126579563Y-56191273D01*
X126761972Y-56288773D01*
X126921854Y-56419986D01*
X127053067Y-56579868D01*
X127150567Y-56762277D01*
X127150567Y-56762278D01*
X127210607Y-56960204D01*
X127230880Y-57166040D01*
X127210607Y-57371876D01*
X127170580Y-57503827D01*
X127150567Y-57569803D01*
X127053067Y-57752212D01*
X126921854Y-57912094D01*
X126761972Y-58043307D01*
X126579563Y-58140807D01*
X126513587Y-58160820D01*
X126381636Y-58200847D01*
X126304507Y-58208444D01*
X126227380Y-58216040D01*
X126124220Y-58216040D01*
X126047093Y-58208444D01*
X125969964Y-58200847D01*
X125838013Y-58160820D01*
X125772037Y-58140807D01*
X125589628Y-58043307D01*
X125429746Y-57912094D01*
X125298533Y-57752212D01*
X125201033Y-57569803D01*
X125181020Y-57503827D01*
X125140993Y-57371876D01*
X125120720Y-57166040D01*
X125140993Y-56960204D01*
X125201033Y-56762278D01*
X125201033Y-56762277D01*
X125298533Y-56579868D01*
X125429746Y-56419986D01*
X125589628Y-56288773D01*
X125772037Y-56191273D01*
X125838013Y-56171260D01*
X125969964Y-56131233D01*
X126047093Y-56123637D01*
X126124220Y-56116040D01*
X126227380Y-56116040D01*
X126304507Y-56123637D01*
X126304507Y-56123637D01*
G37*
G36*
X146624507Y-56123637D02*
X146701636Y-56131233D01*
X146833587Y-56171260D01*
X146899563Y-56191273D01*
X147081972Y-56288773D01*
X147241854Y-56419986D01*
X147373067Y-56579868D01*
X147470567Y-56762277D01*
X147470567Y-56762278D01*
X147530607Y-56960204D01*
X147550880Y-57166040D01*
X147530607Y-57371876D01*
X147490580Y-57503827D01*
X147470567Y-57569803D01*
X147373067Y-57752212D01*
X147241854Y-57912094D01*
X147081972Y-58043307D01*
X146899563Y-58140807D01*
X146833587Y-58160820D01*
X146701636Y-58200847D01*
X146624507Y-58208444D01*
X146547380Y-58216040D01*
X146444220Y-58216040D01*
X146367093Y-58208444D01*
X146289964Y-58200847D01*
X146158013Y-58160820D01*
X146092037Y-58140807D01*
X145909628Y-58043307D01*
X145749746Y-57912094D01*
X145618533Y-57752212D01*
X145521033Y-57569803D01*
X145501020Y-57503827D01*
X145460993Y-57371876D01*
X145440720Y-57166040D01*
X145460993Y-56960204D01*
X145521033Y-56762278D01*
X145521033Y-56762277D01*
X145618533Y-56579868D01*
X145749746Y-56419986D01*
X145909628Y-56288773D01*
X146092037Y-56191273D01*
X146158013Y-56171260D01*
X146289964Y-56131233D01*
X146367093Y-56123637D01*
X146444220Y-56116040D01*
X146547380Y-56116040D01*
X146624507Y-56123637D01*
X146624507Y-56123637D01*
G37*
G36*
X182628707Y-56037596D02*
X182705836Y-56045193D01*
X182837787Y-56085220D01*
X182903763Y-56105233D01*
X183086172Y-56202733D01*
X183246054Y-56333946D01*
X183377267Y-56493828D01*
X183474767Y-56676237D01*
X183474767Y-56676238D01*
X183534807Y-56874164D01*
X183555080Y-57080000D01*
X183534807Y-57285836D01*
X183508708Y-57371874D01*
X183474767Y-57483763D01*
X183377267Y-57666172D01*
X183246054Y-57826054D01*
X183086172Y-57957267D01*
X182903763Y-58054767D01*
X182837787Y-58074780D01*
X182705836Y-58114807D01*
X182628707Y-58122403D01*
X182551580Y-58130000D01*
X182448420Y-58130000D01*
X182371293Y-58122403D01*
X182294164Y-58114807D01*
X182162213Y-58074780D01*
X182096237Y-58054767D01*
X181913828Y-57957267D01*
X181753946Y-57826054D01*
X181622733Y-57666172D01*
X181525233Y-57483763D01*
X181491292Y-57371874D01*
X181465193Y-57285836D01*
X181444920Y-57080000D01*
X181465193Y-56874164D01*
X181525233Y-56676238D01*
X181525233Y-56676237D01*
X181622733Y-56493828D01*
X181753946Y-56333946D01*
X181913828Y-56202733D01*
X182096237Y-56105233D01*
X182162213Y-56085220D01*
X182294164Y-56045193D01*
X182371293Y-56037596D01*
X182448420Y-56030000D01*
X182551580Y-56030000D01*
X182628707Y-56037596D01*
X182628707Y-56037596D01*
G37*
G36*
X178978707Y-56037596D02*
X179055836Y-56045193D01*
X179187787Y-56085220D01*
X179253763Y-56105233D01*
X179436172Y-56202733D01*
X179596054Y-56333946D01*
X179727267Y-56493828D01*
X179824767Y-56676237D01*
X179824767Y-56676238D01*
X179884807Y-56874164D01*
X179905080Y-57080000D01*
X179884807Y-57285836D01*
X179858708Y-57371874D01*
X179824767Y-57483763D01*
X179727267Y-57666172D01*
X179596054Y-57826054D01*
X179436172Y-57957267D01*
X179253763Y-58054767D01*
X179187787Y-58074780D01*
X179055836Y-58114807D01*
X178978707Y-58122403D01*
X178901580Y-58130000D01*
X178798420Y-58130000D01*
X178721293Y-58122403D01*
X178644164Y-58114807D01*
X178512213Y-58074780D01*
X178446237Y-58054767D01*
X178263828Y-57957267D01*
X178103946Y-57826054D01*
X177972733Y-57666172D01*
X177875233Y-57483763D01*
X177841292Y-57371874D01*
X177815193Y-57285836D01*
X177794920Y-57080000D01*
X177815193Y-56874164D01*
X177875233Y-56676238D01*
X177875233Y-56676237D01*
X177972733Y-56493828D01*
X178103946Y-56333946D01*
X178263828Y-56202733D01*
X178446237Y-56105233D01*
X178512213Y-56085220D01*
X178644164Y-56045193D01*
X178721293Y-56037596D01*
X178798420Y-56030000D01*
X178901580Y-56030000D01*
X178978707Y-56037596D01*
X178978707Y-56037596D01*
G37*
G36*
X60992323Y-52540060D02*
X61231521Y-52587639D01*
X61531947Y-52712080D01*
X61802324Y-52892740D01*
X62032260Y-53122676D01*
X62212920Y-53393053D01*
X62337361Y-53693479D01*
X62400800Y-54012410D01*
X62400800Y-54337590D01*
X62337361Y-54656521D01*
X62212920Y-54956947D01*
X62032260Y-55227324D01*
X61802324Y-55457260D01*
X61531947Y-55637920D01*
X61231521Y-55762361D01*
X60992323Y-55809940D01*
X60912591Y-55825800D01*
X60587409Y-55825800D01*
X60507677Y-55809940D01*
X60268479Y-55762361D01*
X59968053Y-55637920D01*
X59697676Y-55457260D01*
X59467740Y-55227324D01*
X59287080Y-54956947D01*
X59162639Y-54656521D01*
X59099200Y-54337590D01*
X59099200Y-54012410D01*
X59162639Y-53693479D01*
X59287080Y-53393053D01*
X59467740Y-53122676D01*
X59697676Y-52892740D01*
X59968053Y-52712080D01*
X60268479Y-52587639D01*
X60507677Y-52540060D01*
X60587409Y-52524200D01*
X60912591Y-52524200D01*
X60992323Y-52540060D01*
X60992323Y-52540060D01*
G37*
G36*
X182628707Y-53497597D02*
X182705836Y-53505193D01*
X182837787Y-53545220D01*
X182903763Y-53565233D01*
X183086172Y-53662733D01*
X183246054Y-53793946D01*
X183377267Y-53953828D01*
X183474767Y-54136237D01*
X183474767Y-54136238D01*
X183534807Y-54334164D01*
X183555080Y-54540000D01*
X183534807Y-54745836D01*
X183494780Y-54877787D01*
X183474767Y-54943763D01*
X183377267Y-55126172D01*
X183246054Y-55286054D01*
X183086172Y-55417267D01*
X182903763Y-55514767D01*
X182837787Y-55534780D01*
X182705836Y-55574807D01*
X182628707Y-55582404D01*
X182551580Y-55590000D01*
X182448420Y-55590000D01*
X182371293Y-55582404D01*
X182294164Y-55574807D01*
X182162213Y-55534780D01*
X182096237Y-55514767D01*
X181913828Y-55417267D01*
X181753946Y-55286054D01*
X181622733Y-55126172D01*
X181525233Y-54943763D01*
X181505220Y-54877787D01*
X181465193Y-54745836D01*
X181444920Y-54540000D01*
X181465193Y-54334164D01*
X181525233Y-54136238D01*
X181525233Y-54136237D01*
X181622733Y-53953828D01*
X181753946Y-53793946D01*
X181913828Y-53662733D01*
X182096237Y-53565233D01*
X182162213Y-53545220D01*
X182294164Y-53505193D01*
X182371293Y-53497597D01*
X182448420Y-53490000D01*
X182551580Y-53490000D01*
X182628707Y-53497597D01*
X182628707Y-53497597D01*
G37*
G36*
X178978707Y-53497597D02*
X179055836Y-53505193D01*
X179187787Y-53545220D01*
X179253763Y-53565233D01*
X179436172Y-53662733D01*
X179596054Y-53793946D01*
X179727267Y-53953828D01*
X179824767Y-54136237D01*
X179824767Y-54136238D01*
X179884807Y-54334164D01*
X179905080Y-54540000D01*
X179884807Y-54745836D01*
X179844780Y-54877787D01*
X179824767Y-54943763D01*
X179727267Y-55126172D01*
X179596054Y-55286054D01*
X179436172Y-55417267D01*
X179253763Y-55514767D01*
X179187787Y-55534780D01*
X179055836Y-55574807D01*
X178978707Y-55582404D01*
X178901580Y-55590000D01*
X178798420Y-55590000D01*
X178721293Y-55582404D01*
X178644164Y-55574807D01*
X178512213Y-55534780D01*
X178446237Y-55514767D01*
X178263828Y-55417267D01*
X178103946Y-55286054D01*
X177972733Y-55126172D01*
X177875233Y-54943763D01*
X177855220Y-54877787D01*
X177815193Y-54745836D01*
X177794920Y-54540000D01*
X177815193Y-54334164D01*
X177875233Y-54136238D01*
X177875233Y-54136237D01*
X177972733Y-53953828D01*
X178103946Y-53793946D01*
X178263828Y-53662733D01*
X178446237Y-53565233D01*
X178512213Y-53545220D01*
X178644164Y-53505193D01*
X178721293Y-53497597D01*
X178798420Y-53490000D01*
X178901580Y-53490000D01*
X178978707Y-53497597D01*
X178978707Y-53497597D01*
G37*
G36*
X179900000Y-53050000D02*
X177800000Y-53050000D01*
X177800000Y-50950000D01*
X179900000Y-50950000D01*
X179900000Y-53050000D01*
X179900000Y-53050000D01*
G37*
G36*
X183550000Y-53050000D02*
X181450000Y-53050000D01*
X181450000Y-50950000D01*
X183550000Y-50950000D01*
X183550000Y-53050000D01*
X183550000Y-53050000D01*
G37*
G36*
X89708707Y-48307596D02*
X89785836Y-48315193D01*
X89917787Y-48355220D01*
X89983763Y-48375233D01*
X90166172Y-48472733D01*
X90326054Y-48603946D01*
X90457267Y-48763828D01*
X90554767Y-48946237D01*
X90554767Y-48946238D01*
X90614807Y-49144164D01*
X90635080Y-49350000D01*
X90614807Y-49555836D01*
X90590437Y-49636172D01*
X90554767Y-49753763D01*
X90457267Y-49936172D01*
X90326054Y-50096054D01*
X90166172Y-50227267D01*
X89983763Y-50324767D01*
X89917787Y-50344780D01*
X89785836Y-50384807D01*
X89708707Y-50392404D01*
X89631580Y-50400000D01*
X89528420Y-50400000D01*
X89451293Y-50392404D01*
X89374164Y-50384807D01*
X89242213Y-50344780D01*
X89176237Y-50324767D01*
X88993828Y-50227267D01*
X88833946Y-50096054D01*
X88702733Y-49936172D01*
X88605233Y-49753763D01*
X88569563Y-49636172D01*
X88545193Y-49555836D01*
X88524920Y-49350000D01*
X88545193Y-49144164D01*
X88605233Y-48946238D01*
X88605233Y-48946237D01*
X88702733Y-48763828D01*
X88833946Y-48603946D01*
X88993828Y-48472733D01*
X89176237Y-48375233D01*
X89242213Y-48355220D01*
X89374164Y-48315193D01*
X89451293Y-48307596D01*
X89528420Y-48300000D01*
X89631580Y-48300000D01*
X89708707Y-48307596D01*
X89708707Y-48307596D01*
G37*
G36*
X92248707Y-48307596D02*
X92325836Y-48315193D01*
X92457787Y-48355220D01*
X92523763Y-48375233D01*
X92706172Y-48472733D01*
X92866054Y-48603946D01*
X92997267Y-48763828D01*
X93094767Y-48946237D01*
X93094767Y-48946238D01*
X93154807Y-49144164D01*
X93175080Y-49350000D01*
X93154807Y-49555836D01*
X93130437Y-49636172D01*
X93094767Y-49753763D01*
X92997267Y-49936172D01*
X92866054Y-50096054D01*
X92706172Y-50227267D01*
X92523763Y-50324767D01*
X92457787Y-50344780D01*
X92325836Y-50384807D01*
X92248707Y-50392404D01*
X92171580Y-50400000D01*
X92068420Y-50400000D01*
X91991293Y-50392404D01*
X91914164Y-50384807D01*
X91782213Y-50344780D01*
X91716237Y-50324767D01*
X91533828Y-50227267D01*
X91373946Y-50096054D01*
X91242733Y-49936172D01*
X91145233Y-49753763D01*
X91109563Y-49636172D01*
X91085193Y-49555836D01*
X91064920Y-49350000D01*
X91085193Y-49144164D01*
X91145233Y-48946238D01*
X91145233Y-48946237D01*
X91242733Y-48763828D01*
X91373946Y-48603946D01*
X91533828Y-48472733D01*
X91716237Y-48375233D01*
X91782213Y-48355220D01*
X91914164Y-48315193D01*
X91991293Y-48307596D01*
X92068420Y-48300000D01*
X92171580Y-48300000D01*
X92248707Y-48307596D01*
X92248707Y-48307596D01*
G37*
G36*
X87168707Y-48307596D02*
X87245836Y-48315193D01*
X87377787Y-48355220D01*
X87443763Y-48375233D01*
X87626172Y-48472733D01*
X87786054Y-48603946D01*
X87917267Y-48763828D01*
X88014767Y-48946237D01*
X88014767Y-48946238D01*
X88074807Y-49144164D01*
X88095080Y-49350000D01*
X88074807Y-49555836D01*
X88050437Y-49636172D01*
X88014767Y-49753763D01*
X87917267Y-49936172D01*
X87786054Y-50096054D01*
X87626172Y-50227267D01*
X87443763Y-50324767D01*
X87377787Y-50344780D01*
X87245836Y-50384807D01*
X87168707Y-50392404D01*
X87091580Y-50400000D01*
X86988420Y-50400000D01*
X86911293Y-50392404D01*
X86834164Y-50384807D01*
X86702213Y-50344780D01*
X86636237Y-50324767D01*
X86453828Y-50227267D01*
X86293946Y-50096054D01*
X86162733Y-49936172D01*
X86065233Y-49753763D01*
X86029563Y-49636172D01*
X86005193Y-49555836D01*
X85984920Y-49350000D01*
X86005193Y-49144164D01*
X86065233Y-48946238D01*
X86065233Y-48946237D01*
X86162733Y-48763828D01*
X86293946Y-48603946D01*
X86453828Y-48472733D01*
X86636237Y-48375233D01*
X86702213Y-48355220D01*
X86834164Y-48315193D01*
X86911293Y-48307596D01*
X86988420Y-48300000D01*
X87091580Y-48300000D01*
X87168707Y-48307596D01*
X87168707Y-48307596D01*
G37*
G36*
X85550000Y-50400000D02*
X83450000Y-50400000D01*
X83450000Y-48300000D01*
X85550000Y-48300000D01*
X85550000Y-50400000D01*
X85550000Y-50400000D01*
G37*
G36*
X66793707Y-48007596D02*
X66870836Y-48015193D01*
X67002787Y-48055220D01*
X67068763Y-48075233D01*
X67251172Y-48172733D01*
X67411054Y-48303946D01*
X67542267Y-48463828D01*
X67639767Y-48646237D01*
X67639767Y-48646238D01*
X67699807Y-48844164D01*
X67720080Y-49050000D01*
X67699807Y-49255836D01*
X67671243Y-49350000D01*
X67639767Y-49453763D01*
X67542267Y-49636172D01*
X67411054Y-49796054D01*
X67251172Y-49927267D01*
X67068763Y-50024767D01*
X67002787Y-50044780D01*
X66870836Y-50084807D01*
X66793707Y-50092403D01*
X66716580Y-50100000D01*
X66613420Y-50100000D01*
X66536293Y-50092404D01*
X66459164Y-50084807D01*
X66327213Y-50044780D01*
X66261237Y-50024767D01*
X66078828Y-49927267D01*
X65918946Y-49796054D01*
X65787733Y-49636172D01*
X65690233Y-49453763D01*
X65658757Y-49350000D01*
X65630193Y-49255836D01*
X65609920Y-49050000D01*
X65630193Y-48844164D01*
X65690233Y-48646238D01*
X65690233Y-48646237D01*
X65787733Y-48463828D01*
X65918946Y-48303946D01*
X66078828Y-48172733D01*
X66261237Y-48075233D01*
X66327213Y-48055220D01*
X66459164Y-48015193D01*
X66536293Y-48007597D01*
X66613420Y-48000000D01*
X66716580Y-48000000D01*
X66793707Y-48007596D01*
X66793707Y-48007596D01*
G37*
G36*
X65175000Y-50100000D02*
X63075000Y-50100000D01*
X63075000Y-48000000D01*
X65175000Y-48000000D01*
X65175000Y-50100000D01*
X65175000Y-50100000D01*
G37*
G36*
X69333707Y-48007596D02*
X69410836Y-48015193D01*
X69542787Y-48055220D01*
X69608763Y-48075233D01*
X69791172Y-48172733D01*
X69951054Y-48303946D01*
X70082267Y-48463828D01*
X70179767Y-48646237D01*
X70179767Y-48646238D01*
X70239807Y-48844164D01*
X70260080Y-49050000D01*
X70239807Y-49255836D01*
X70211243Y-49350000D01*
X70179767Y-49453763D01*
X70082267Y-49636172D01*
X69951054Y-49796054D01*
X69791172Y-49927267D01*
X69608763Y-50024767D01*
X69542787Y-50044780D01*
X69410836Y-50084807D01*
X69333707Y-50092403D01*
X69256580Y-50100000D01*
X69153420Y-50100000D01*
X69076293Y-50092404D01*
X68999164Y-50084807D01*
X68867213Y-50044780D01*
X68801237Y-50024767D01*
X68618828Y-49927267D01*
X68458946Y-49796054D01*
X68327733Y-49636172D01*
X68230233Y-49453763D01*
X68198757Y-49350000D01*
X68170193Y-49255836D01*
X68149920Y-49050000D01*
X68170193Y-48844164D01*
X68230233Y-48646238D01*
X68230233Y-48646237D01*
X68327733Y-48463828D01*
X68458946Y-48303946D01*
X68618828Y-48172733D01*
X68801237Y-48075233D01*
X68867213Y-48055220D01*
X68999164Y-48015193D01*
X69076293Y-48007597D01*
X69153420Y-48000000D01*
X69256580Y-48000000D01*
X69333707Y-48007596D01*
X69333707Y-48007596D01*
G37*
G36*
X69556811Y-44595786D02*
X69764823Y-44681947D01*
X69952033Y-44807037D01*
X70111234Y-44966238D01*
X70236324Y-45153448D01*
X70322485Y-45361460D01*
X70366410Y-45582285D01*
X70366410Y-45807437D01*
X70322485Y-46028262D01*
X70236324Y-46236274D01*
X70111234Y-46423484D01*
X69952033Y-46582685D01*
X69764823Y-46707775D01*
X69556811Y-46793936D01*
X69335986Y-46837861D01*
X69110834Y-46837861D01*
X68890009Y-46793936D01*
X68681997Y-46707775D01*
X68494787Y-46582685D01*
X68335586Y-46423484D01*
X68210496Y-46236274D01*
X68124335Y-46028262D01*
X68080410Y-45807437D01*
X68080410Y-45582285D01*
X68124335Y-45361460D01*
X68210496Y-45153448D01*
X68335586Y-44966238D01*
X68494787Y-44807037D01*
X68681997Y-44681947D01*
X68890009Y-44595786D01*
X69110834Y-44551861D01*
X69335986Y-44551861D01*
X69556811Y-44595786D01*
X69556811Y-44595786D01*
G37*
G36*
X89876811Y-44595786D02*
X90084823Y-44681947D01*
X90272033Y-44807037D01*
X90431234Y-44966238D01*
X90556324Y-45153448D01*
X90642485Y-45361460D01*
X90686410Y-45582285D01*
X90686410Y-45807437D01*
X90642485Y-46028262D01*
X90556324Y-46236274D01*
X90431234Y-46423484D01*
X90272033Y-46582685D01*
X90084823Y-46707775D01*
X89876811Y-46793936D01*
X89655986Y-46837861D01*
X89430834Y-46837861D01*
X89210009Y-46793936D01*
X89001997Y-46707775D01*
X88814787Y-46582685D01*
X88655586Y-46423484D01*
X88530496Y-46236274D01*
X88444335Y-46028262D01*
X88400410Y-45807437D01*
X88400410Y-45582285D01*
X88444335Y-45361460D01*
X88530496Y-45153448D01*
X88655586Y-44966238D01*
X88814787Y-44807037D01*
X89001997Y-44681947D01*
X89210009Y-44595786D01*
X89430834Y-44551861D01*
X89655986Y-44551861D01*
X89876811Y-44595786D01*
X89876811Y-44595786D01*
G37*
G36*
X87336811Y-44595786D02*
X87544823Y-44681947D01*
X87732033Y-44807037D01*
X87891234Y-44966238D01*
X88016324Y-45153448D01*
X88102485Y-45361460D01*
X88146410Y-45582285D01*
X88146410Y-45807437D01*
X88102485Y-46028262D01*
X88016324Y-46236274D01*
X87891234Y-46423484D01*
X87732033Y-46582685D01*
X87544823Y-46707775D01*
X87336811Y-46793936D01*
X87115986Y-46837861D01*
X86890834Y-46837861D01*
X86670009Y-46793936D01*
X86461997Y-46707775D01*
X86274787Y-46582685D01*
X86115586Y-46423484D01*
X85990496Y-46236274D01*
X85904335Y-46028262D01*
X85860410Y-45807437D01*
X85860410Y-45582285D01*
X85904335Y-45361460D01*
X85990496Y-45153448D01*
X86115586Y-44966238D01*
X86274787Y-44807037D01*
X86461997Y-44681947D01*
X86670009Y-44595786D01*
X86890834Y-44551861D01*
X87115986Y-44551861D01*
X87336811Y-44595786D01*
X87336811Y-44595786D01*
G37*
G36*
X84796811Y-44595786D02*
X85004823Y-44681947D01*
X85192033Y-44807037D01*
X85351234Y-44966238D01*
X85476324Y-45153448D01*
X85562485Y-45361460D01*
X85606410Y-45582285D01*
X85606410Y-45807437D01*
X85562485Y-46028262D01*
X85476324Y-46236274D01*
X85351234Y-46423484D01*
X85192033Y-46582685D01*
X85004823Y-46707775D01*
X84796811Y-46793936D01*
X84575986Y-46837861D01*
X84350834Y-46837861D01*
X84130009Y-46793936D01*
X83921997Y-46707775D01*
X83734787Y-46582685D01*
X83575586Y-46423484D01*
X83450496Y-46236274D01*
X83364335Y-46028262D01*
X83320410Y-45807437D01*
X83320410Y-45582285D01*
X83364335Y-45361460D01*
X83450496Y-45153448D01*
X83575586Y-44966238D01*
X83734787Y-44807037D01*
X83921997Y-44681947D01*
X84130009Y-44595786D01*
X84350834Y-44551861D01*
X84575986Y-44551861D01*
X84796811Y-44595786D01*
X84796811Y-44595786D01*
G37*
G36*
X92416811Y-44595786D02*
X92624823Y-44681947D01*
X92812033Y-44807037D01*
X92971234Y-44966238D01*
X93096324Y-45153448D01*
X93182485Y-45361460D01*
X93226410Y-45582285D01*
X93226410Y-45807437D01*
X93182485Y-46028262D01*
X93096324Y-46236274D01*
X92971234Y-46423484D01*
X92812033Y-46582685D01*
X92624823Y-46707775D01*
X92416811Y-46793936D01*
X92195986Y-46837861D01*
X91970834Y-46837861D01*
X91750009Y-46793936D01*
X91541997Y-46707775D01*
X91354787Y-46582685D01*
X91195586Y-46423484D01*
X91070496Y-46236274D01*
X90984335Y-46028262D01*
X90940410Y-45807437D01*
X90940410Y-45582285D01*
X90984335Y-45361460D01*
X91070496Y-45153448D01*
X91195586Y-44966238D01*
X91354787Y-44807037D01*
X91541997Y-44681947D01*
X91750009Y-44595786D01*
X91970834Y-44551861D01*
X92195986Y-44551861D01*
X92416811Y-44595786D01*
X92416811Y-44595786D01*
G37*
G36*
X64476811Y-44595786D02*
X64684823Y-44681947D01*
X64872033Y-44807037D01*
X65031234Y-44966238D01*
X65156324Y-45153448D01*
X65242485Y-45361460D01*
X65286410Y-45582285D01*
X65286410Y-45807437D01*
X65242485Y-46028262D01*
X65156324Y-46236274D01*
X65031234Y-46423484D01*
X64872033Y-46582685D01*
X64684823Y-46707775D01*
X64476811Y-46793936D01*
X64255986Y-46837861D01*
X64030834Y-46837861D01*
X63810009Y-46793936D01*
X63601997Y-46707775D01*
X63414787Y-46582685D01*
X63264598Y-46432496D01*
X63245656Y-46416950D01*
X63224045Y-46405399D01*
X63200596Y-46398286D01*
X63176210Y-46395884D01*
X63151824Y-46398286D01*
X63128375Y-46405399D01*
X63106764Y-46416950D01*
X63087822Y-46432496D01*
X63072276Y-46451438D01*
X63060725Y-46473049D01*
X63057931Y-46482261D01*
X58885610Y-46482261D01*
X58885610Y-44856661D01*
X63051210Y-44856661D01*
X63051210Y-44868838D01*
X63053612Y-44893224D01*
X63060725Y-44916673D01*
X63072276Y-44938284D01*
X63087822Y-44957226D01*
X63106764Y-44972772D01*
X63128375Y-44984323D01*
X63151824Y-44991436D01*
X63176210Y-44993838D01*
X63200596Y-44991436D01*
X63224045Y-44984323D01*
X63245656Y-44972772D01*
X63264598Y-44957226D01*
X63414787Y-44807037D01*
X63601997Y-44681947D01*
X63810009Y-44595786D01*
X64030834Y-44551861D01*
X64255986Y-44551861D01*
X64476811Y-44595786D01*
X64476811Y-44595786D01*
G37*
G36*
X67016811Y-44595786D02*
X67224823Y-44681947D01*
X67412033Y-44807037D01*
X67571234Y-44966238D01*
X67696324Y-45153448D01*
X67782485Y-45361460D01*
X67826410Y-45582285D01*
X67826410Y-45807437D01*
X67782485Y-46028262D01*
X67696324Y-46236274D01*
X67571234Y-46423484D01*
X67412033Y-46582685D01*
X67224823Y-46707775D01*
X67016811Y-46793936D01*
X66795986Y-46837861D01*
X66570834Y-46837861D01*
X66350009Y-46793936D01*
X66141997Y-46707775D01*
X65954787Y-46582685D01*
X65795586Y-46423484D01*
X65670496Y-46236274D01*
X65584335Y-46028262D01*
X65540410Y-45807437D01*
X65540410Y-45582285D01*
X65584335Y-45361460D01*
X65670496Y-45153448D01*
X65795586Y-44966238D01*
X65954787Y-44807037D01*
X66141997Y-44681947D01*
X66350009Y-44595786D01*
X66570834Y-44551861D01*
X66795986Y-44551861D01*
X67016811Y-44595786D01*
X67016811Y-44595786D01*
G37*
G36*
X183239707Y-44111596D02*
X183316836Y-44119193D01*
X183448787Y-44159220D01*
X183514763Y-44179233D01*
X183697172Y-44276733D01*
X183857054Y-44407946D01*
X183988267Y-44567828D01*
X184085767Y-44750237D01*
X184085767Y-44750238D01*
X184145807Y-44948164D01*
X184166080Y-45154000D01*
X184145807Y-45359836D01*
X184145314Y-45361460D01*
X184085767Y-45557763D01*
X183988267Y-45740172D01*
X183857054Y-45900054D01*
X183697172Y-46031267D01*
X183514763Y-46128767D01*
X183448787Y-46148780D01*
X183316836Y-46188807D01*
X183239707Y-46196403D01*
X183162580Y-46204000D01*
X183059420Y-46204000D01*
X182982293Y-46196404D01*
X182905164Y-46188807D01*
X182773213Y-46148780D01*
X182707237Y-46128767D01*
X182524828Y-46031267D01*
X182364946Y-45900054D01*
X182233733Y-45740172D01*
X182136233Y-45557763D01*
X182076686Y-45361460D01*
X182076193Y-45359836D01*
X182055920Y-45154000D01*
X182076193Y-44948164D01*
X182136233Y-44750238D01*
X182136233Y-44750237D01*
X182233733Y-44567828D01*
X182364946Y-44407946D01*
X182524828Y-44276733D01*
X182707237Y-44179233D01*
X182773213Y-44159220D01*
X182905164Y-44119193D01*
X182982293Y-44111597D01*
X183059420Y-44104000D01*
X183162580Y-44104000D01*
X183239707Y-44111596D01*
X183239707Y-44111596D01*
G37*
G36*
X63051210Y-43942261D02*
X58885610Y-43942261D01*
X58885610Y-42316661D01*
X63051210Y-42316661D01*
X63051210Y-43942261D01*
X63051210Y-43942261D01*
G37*
G36*
X183239707Y-41571596D02*
X183316836Y-41579193D01*
X183448787Y-41619220D01*
X183514763Y-41639233D01*
X183697172Y-41736733D01*
X183857054Y-41867946D01*
X183988267Y-42027828D01*
X184085767Y-42210237D01*
X184085767Y-42210238D01*
X184145807Y-42408164D01*
X184166080Y-42614000D01*
X184145807Y-42819836D01*
X184105780Y-42951787D01*
X184085767Y-43017763D01*
X183988267Y-43200172D01*
X183857054Y-43360054D01*
X183697172Y-43491267D01*
X183514763Y-43588767D01*
X183448787Y-43608780D01*
X183316836Y-43648807D01*
X183239707Y-43656403D01*
X183162580Y-43664000D01*
X183059420Y-43664000D01*
X182982293Y-43656404D01*
X182905164Y-43648807D01*
X182773213Y-43608780D01*
X182707237Y-43588767D01*
X182524828Y-43491267D01*
X182364946Y-43360054D01*
X182233733Y-43200172D01*
X182136233Y-43017763D01*
X182116220Y-42951787D01*
X182076193Y-42819836D01*
X182055920Y-42614000D01*
X182076193Y-42408164D01*
X182136233Y-42210238D01*
X182136233Y-42210237D01*
X182233733Y-42027828D01*
X182364946Y-41867946D01*
X182524828Y-41736733D01*
X182707237Y-41639233D01*
X182773213Y-41619220D01*
X182905164Y-41579193D01*
X182982293Y-41571596D01*
X183059420Y-41564000D01*
X183162580Y-41564000D01*
X183239707Y-41571596D01*
X183239707Y-41571596D01*
G37*
G36*
X156569707Y-40555597D02*
X156646836Y-40563193D01*
X156778787Y-40603220D01*
X156844763Y-40623233D01*
X157027172Y-40720733D01*
X157187054Y-40851946D01*
X157318267Y-41011828D01*
X157415767Y-41194237D01*
X157415767Y-41194238D01*
X157475807Y-41392164D01*
X157496080Y-41598000D01*
X157475807Y-41803836D01*
X157435780Y-41935787D01*
X157415767Y-42001763D01*
X157318267Y-42184172D01*
X157187054Y-42344054D01*
X157027172Y-42475267D01*
X156844763Y-42572767D01*
X156778787Y-42592780D01*
X156646836Y-42632807D01*
X156569707Y-42640404D01*
X156492580Y-42648000D01*
X156389420Y-42648000D01*
X156312293Y-42640404D01*
X156235164Y-42632807D01*
X156103213Y-42592780D01*
X156037237Y-42572767D01*
X155854828Y-42475267D01*
X155694946Y-42344054D01*
X155563733Y-42184172D01*
X155466233Y-42001763D01*
X155446220Y-41935787D01*
X155406193Y-41803836D01*
X155385920Y-41598000D01*
X155406193Y-41392164D01*
X155466233Y-41194238D01*
X155466233Y-41194237D01*
X155563733Y-41011828D01*
X155694946Y-40851946D01*
X155854828Y-40720733D01*
X156037237Y-40623233D01*
X156103213Y-40603220D01*
X156235164Y-40563193D01*
X156312293Y-40555596D01*
X156389420Y-40548000D01*
X156492580Y-40548000D01*
X156569707Y-40555597D01*
X156569707Y-40555597D01*
G37*
G36*
X63051210Y-41402261D02*
X58885610Y-41402261D01*
X58885610Y-39776661D01*
X63051210Y-39776661D01*
X63051210Y-41402261D01*
X63051210Y-41402261D01*
G37*
G36*
X183239707Y-39031596D02*
X183316836Y-39039193D01*
X183448787Y-39079220D01*
X183514763Y-39099233D01*
X183697172Y-39196733D01*
X183857054Y-39327946D01*
X183988267Y-39487828D01*
X184085767Y-39670237D01*
X184085767Y-39670238D01*
X184145807Y-39868164D01*
X184166080Y-40074000D01*
X184145807Y-40279836D01*
X184105780Y-40411787D01*
X184085767Y-40477763D01*
X183988267Y-40660172D01*
X183857054Y-40820054D01*
X183697172Y-40951267D01*
X183514763Y-41048767D01*
X183448787Y-41068780D01*
X183316836Y-41108807D01*
X183239707Y-41116404D01*
X183162580Y-41124000D01*
X183059420Y-41124000D01*
X182982293Y-41116404D01*
X182905164Y-41108807D01*
X182773213Y-41068780D01*
X182707237Y-41048767D01*
X182524828Y-40951267D01*
X182364946Y-40820054D01*
X182233733Y-40660172D01*
X182136233Y-40477763D01*
X182116220Y-40411787D01*
X182076193Y-40279836D01*
X182055920Y-40074000D01*
X182076193Y-39868164D01*
X182136233Y-39670238D01*
X182136233Y-39670237D01*
X182233733Y-39487828D01*
X182364946Y-39327946D01*
X182524828Y-39196733D01*
X182707237Y-39099233D01*
X182773213Y-39079220D01*
X182905164Y-39039193D01*
X182982293Y-39031596D01*
X183059420Y-39024000D01*
X183162580Y-39024000D01*
X183239707Y-39031596D01*
X183239707Y-39031596D01*
G37*
G36*
X156569707Y-38015597D02*
X156646836Y-38023193D01*
X156778787Y-38063220D01*
X156844763Y-38083233D01*
X157027172Y-38180733D01*
X157187054Y-38311946D01*
X157318267Y-38471828D01*
X157415767Y-38654237D01*
X157415767Y-38654238D01*
X157475807Y-38852164D01*
X157496080Y-39058000D01*
X157475807Y-39263836D01*
X157435780Y-39395787D01*
X157415767Y-39461763D01*
X157318267Y-39644172D01*
X157187054Y-39804054D01*
X157027172Y-39935267D01*
X156844763Y-40032767D01*
X156778787Y-40052780D01*
X156646836Y-40092807D01*
X156569707Y-40100403D01*
X156492580Y-40108000D01*
X156389420Y-40108000D01*
X156312293Y-40100404D01*
X156235164Y-40092807D01*
X156103213Y-40052780D01*
X156037237Y-40032767D01*
X155854828Y-39935267D01*
X155694946Y-39804054D01*
X155563733Y-39644172D01*
X155466233Y-39461763D01*
X155446220Y-39395787D01*
X155406193Y-39263836D01*
X155385920Y-39058000D01*
X155406193Y-38852164D01*
X155466233Y-38654238D01*
X155466233Y-38654237D01*
X155563733Y-38471828D01*
X155694946Y-38311946D01*
X155854828Y-38180733D01*
X156037237Y-38083233D01*
X156103213Y-38063220D01*
X156235164Y-38023193D01*
X156312293Y-38015597D01*
X156389420Y-38008000D01*
X156492580Y-38008000D01*
X156569707Y-38015597D01*
X156569707Y-38015597D01*
G37*
G36*
X183239707Y-36491596D02*
X183316836Y-36499193D01*
X183448787Y-36539220D01*
X183514763Y-36559233D01*
X183697172Y-36656733D01*
X183857054Y-36787946D01*
X183988267Y-36947828D01*
X184085767Y-37130237D01*
X184085767Y-37130238D01*
X184145807Y-37328164D01*
X184166080Y-37534000D01*
X184145807Y-37739836D01*
X184105780Y-37871787D01*
X184085767Y-37937763D01*
X183988267Y-38120172D01*
X183857054Y-38280054D01*
X183697172Y-38411267D01*
X183514763Y-38508767D01*
X183448787Y-38528780D01*
X183316836Y-38568807D01*
X183239707Y-38576403D01*
X183162580Y-38584000D01*
X183059420Y-38584000D01*
X182982293Y-38576403D01*
X182905164Y-38568807D01*
X182773213Y-38528780D01*
X182707237Y-38508767D01*
X182524828Y-38411267D01*
X182364946Y-38280054D01*
X182233733Y-38120172D01*
X182136233Y-37937763D01*
X182116220Y-37871787D01*
X182076193Y-37739836D01*
X182055920Y-37534000D01*
X182076193Y-37328164D01*
X182136233Y-37130238D01*
X182136233Y-37130237D01*
X182233733Y-36947828D01*
X182364946Y-36787946D01*
X182524828Y-36656733D01*
X182707237Y-36559233D01*
X182773213Y-36539220D01*
X182905164Y-36499193D01*
X182982293Y-36491596D01*
X183059420Y-36484000D01*
X183162580Y-36484000D01*
X183239707Y-36491596D01*
X183239707Y-36491596D01*
G37*
G36*
X157491000Y-37568000D02*
X155391000Y-37568000D01*
X155391000Y-35468000D01*
X157491000Y-35468000D01*
X157491000Y-37568000D01*
X157491000Y-37568000D01*
G37*
G36*
X183239707Y-33951597D02*
X183316836Y-33959193D01*
X183448787Y-33999220D01*
X183514763Y-34019233D01*
X183697172Y-34116733D01*
X183857054Y-34247946D01*
X183988267Y-34407828D01*
X184085767Y-34590237D01*
X184085767Y-34590238D01*
X184145807Y-34788164D01*
X184166080Y-34994000D01*
X184145807Y-35199836D01*
X184105780Y-35331787D01*
X184085767Y-35397763D01*
X183988267Y-35580172D01*
X183857054Y-35740054D01*
X183697172Y-35871267D01*
X183514763Y-35968767D01*
X183448787Y-35988780D01*
X183316836Y-36028807D01*
X183239707Y-36036403D01*
X183162580Y-36044000D01*
X183059420Y-36044000D01*
X182982293Y-36036403D01*
X182905164Y-36028807D01*
X182773213Y-35988780D01*
X182707237Y-35968767D01*
X182524828Y-35871267D01*
X182364946Y-35740054D01*
X182233733Y-35580172D01*
X182136233Y-35397763D01*
X182116220Y-35331787D01*
X182076193Y-35199836D01*
X182055920Y-34994000D01*
X182076193Y-34788164D01*
X182136233Y-34590238D01*
X182136233Y-34590237D01*
X182233733Y-34407828D01*
X182364946Y-34247946D01*
X182524828Y-34116733D01*
X182707237Y-34019233D01*
X182773213Y-33999220D01*
X182905164Y-33959193D01*
X182982293Y-33951597D01*
X183059420Y-33944000D01*
X183162580Y-33944000D01*
X183239707Y-33951597D01*
X183239707Y-33951597D01*
G37*
G36*
X184161000Y-33504000D02*
X182061000Y-33504000D01*
X182061000Y-31404000D01*
X184161000Y-31404000D01*
X184161000Y-33504000D01*
X184161000Y-33504000D01*
G37*
G36*
X189867323Y-28640060D02*
X190106521Y-28687639D01*
X190406947Y-28812080D01*
X190677324Y-28992740D01*
X190907260Y-29222676D01*
X191087920Y-29493053D01*
X191212361Y-29793479D01*
X191275800Y-30112410D01*
X191275800Y-30437590D01*
X191212361Y-30756521D01*
X191087920Y-31056947D01*
X190907260Y-31327324D01*
X190677324Y-31557260D01*
X190406947Y-31737920D01*
X190106521Y-31862361D01*
X189867323Y-31909940D01*
X189787591Y-31925800D01*
X189462409Y-31925800D01*
X189382677Y-31909940D01*
X189143479Y-31862361D01*
X188843053Y-31737920D01*
X188572676Y-31557260D01*
X188342740Y-31327324D01*
X188162080Y-31056947D01*
X188037639Y-30756521D01*
X187974200Y-30437590D01*
X187974200Y-30112410D01*
X188037639Y-29793479D01*
X188162080Y-29493053D01*
X188342740Y-29222676D01*
X188572676Y-28992740D01*
X188843053Y-28812080D01*
X189143479Y-28687639D01*
X189382677Y-28640060D01*
X189462409Y-28624200D01*
X189787591Y-28624200D01*
X189867323Y-28640060D01*
X189867323Y-28640060D01*
G37*
G36*
X154017323Y-28640060D02*
X154256521Y-28687639D01*
X154556947Y-28812080D01*
X154827324Y-28992740D01*
X155057260Y-29222676D01*
X155237920Y-29493053D01*
X155362361Y-29793479D01*
X155425800Y-30112410D01*
X155425800Y-30437590D01*
X155362361Y-30756521D01*
X155237920Y-31056947D01*
X155057260Y-31327324D01*
X154827324Y-31557260D01*
X154556947Y-31737920D01*
X154256521Y-31862361D01*
X154017323Y-31909940D01*
X153937591Y-31925800D01*
X153612409Y-31925800D01*
X153532677Y-31909940D01*
X153293479Y-31862361D01*
X152993053Y-31737920D01*
X152722676Y-31557260D01*
X152492740Y-31327324D01*
X152312080Y-31056947D01*
X152187639Y-30756521D01*
X152124200Y-30437590D01*
X152124200Y-30112410D01*
X152187639Y-29793479D01*
X152312080Y-29493053D01*
X152492740Y-29222676D01*
X152722676Y-28992740D01*
X152993053Y-28812080D01*
X153293479Y-28687639D01*
X153532677Y-28640060D01*
X153612409Y-28624200D01*
X153937591Y-28624200D01*
X154017323Y-28640060D01*
X154017323Y-28640060D01*
G37*
G36*
X106417323Y-28565060D02*
X106656521Y-28612639D01*
X106956947Y-28737080D01*
X107227324Y-28917740D01*
X107457260Y-29147676D01*
X107637920Y-29418053D01*
X107762361Y-29718479D01*
X107825800Y-30037410D01*
X107825800Y-30362590D01*
X107762361Y-30681521D01*
X107637920Y-30981947D01*
X107457260Y-31252324D01*
X107227324Y-31482260D01*
X106956947Y-31662920D01*
X106656521Y-31787361D01*
X106417323Y-31834940D01*
X106337591Y-31850800D01*
X106012409Y-31850800D01*
X105932677Y-31834940D01*
X105693479Y-31787361D01*
X105393053Y-31662920D01*
X105122676Y-31482260D01*
X104892740Y-31252324D01*
X104712080Y-30981947D01*
X104587639Y-30681521D01*
X104524200Y-30362590D01*
X104524200Y-30037410D01*
X104587639Y-29718479D01*
X104712080Y-29418053D01*
X104892740Y-29147676D01*
X105122676Y-28917740D01*
X105393053Y-28737080D01*
X105693479Y-28612639D01*
X105932677Y-28565060D01*
X106012409Y-28549200D01*
X106337591Y-28549200D01*
X106417323Y-28565060D01*
X106417323Y-28565060D01*
G37*
M02*
