G04 #@! TF.GenerationSoftware,KiCad,Pcbnew,5.0.1-33cea8e~68~ubuntu16.04.1*
G04 #@! TF.CreationDate,2018-10-29T00:17:57-07:00*
G04 #@! TF.ProjectId,integrated-board-design-1,696E74656772617465642D626F617264,rev?*
G04 #@! TF.SameCoordinates,Original*
G04 #@! TF.FileFunction,Paste,Bot*
G04 #@! TF.FilePolarity,Positive*
%FSLAX46Y46*%
G04 Gerber Fmt 4.6, Leading zero omitted, Abs format (unit mm)*
G04 Created by KiCad (PCBNEW 5.0.1-33cea8e~68~ubuntu16.04.1) date Mon 29 Oct 2018 12:17:57 AM PDT*
%MOMM*%
%LPD*%
G01*
G04 APERTURE LIST*
%ADD10C,0.375000*%
%ADD11R,3.200000X3.200000*%
G04 APERTURE END LIST*
D10*
X125167857Y-138528571D02*
X125167857Y-137028571D01*
X125525000Y-137028571D01*
X125739285Y-137100000D01*
X125882142Y-137242857D01*
X125953571Y-137385714D01*
X126025000Y-137671428D01*
X126025000Y-137885714D01*
X125953571Y-138171428D01*
X125882142Y-138314285D01*
X125739285Y-138457142D01*
X125525000Y-138528571D01*
X125167857Y-138528571D01*
X126667857Y-137742857D02*
X127167857Y-137742857D01*
X127382142Y-138528571D02*
X126667857Y-138528571D01*
X126667857Y-137028571D01*
X127382142Y-137028571D01*
X128025000Y-138528571D02*
X128025000Y-137028571D01*
X128882142Y-138528571D01*
X128882142Y-137028571D01*
X130025000Y-139100000D02*
X129953571Y-139028571D01*
X129810714Y-138814285D01*
X129739285Y-138671428D01*
X129667857Y-138457142D01*
X129596428Y-138100000D01*
X129596428Y-137814285D01*
X129667857Y-137457142D01*
X129739285Y-137242857D01*
X129810714Y-137100000D01*
X129953571Y-136885714D01*
X130025000Y-136814285D01*
X131382142Y-137100000D02*
X131239285Y-137028571D01*
X131025000Y-137028571D01*
X130810714Y-137100000D01*
X130667857Y-137242857D01*
X130596428Y-137385714D01*
X130525000Y-137671428D01*
X130525000Y-137885714D01*
X130596428Y-138171428D01*
X130667857Y-138314285D01*
X130810714Y-138457142D01*
X131025000Y-138528571D01*
X131167857Y-138528571D01*
X131382142Y-138457142D01*
X131453571Y-138385714D01*
X131453571Y-137885714D01*
X131167857Y-137885714D01*
X131953571Y-139100000D02*
X132025000Y-139028571D01*
X132167857Y-138814285D01*
X132239285Y-138671428D01*
X132310714Y-138457142D01*
X132382142Y-138100000D01*
X132382142Y-137814285D01*
X132310714Y-137457142D01*
X132239285Y-137242857D01*
X132167857Y-137100000D01*
X132025000Y-136885714D01*
X131953571Y-136814285D01*
D11*
G04 #@! TO.C,B1*
X69226015Y-116881709D03*
X69226015Y-100430909D03*
G04 #@! TD*
M02*
