M48
;DRILL file {KiCad 5.0.1-33cea8e~68~ubuntu16.04.1} date Mon 29 Oct 2018 12:18:01 AM PDT
;FORMAT={-:-/ absolute / metric / decimal}
FMAT,2
METRIC,TZ
T1C0.400
T2C0.500
T3C0.700
T4C1.000
T5C1.020
T6C2.500
%
G90
G05
M71
T1
X106.85Y-76.
X107.21Y-73.506
X109.78Y-135.185
X109.95Y-70.825
X111.887Y-72.881
X112.53Y-136.62
X114.08Y-128.02
X114.08Y-134.37
X116.143Y-85.279
X117.174Y-85.319
X118.144Y-85.355
X118.287Y-72.116
X118.647Y-75.094
X119.048Y-85.277
X119.55Y-89.7
X120.432Y-85.729
X122.05Y-90.775
X122.348Y-89.045
X123.275Y-92.
X123.6Y-94.95
X124.55Y-91.3
X125.688Y-83.552
X125.861Y-93.94
X125.914Y-82.691
X126.041Y-81.901
X126.181Y-81.113
X127.161Y-81.133
X127.439Y-78.729
X127.45Y-63.125
X128.593Y-61.098
X128.597Y-72.895
X128.726Y-70.435
X130.541Y-82.857
X130.718Y-91.234
X130.73Y-92.098
X130.734Y-93.069
X131.093Y-94.726
X131.276Y-60.775
X131.667Y-78.431
X131.84Y-74.839
X132.145Y-91.45
X132.287Y-73.844
X132.875Y-61.4
X133.11Y-91.428
X133.567Y-97.036
X133.925Y-86.
X133.99Y-91.301
X134.007Y-90.482
X134.17Y-97.561
X134.917Y-97.847
X135.873Y-98.167
X136.794Y-73.244
X136.826Y-74.044
X137.541Y-74.402
X138.17Y-90.963
X138.192Y-74.867
X138.195Y-87.072
X138.275Y-84.125
X138.711Y-133.011
X138.711Y-140.377
X138.743Y-80.327
X140.232Y-67.016
X140.462Y-88.396
X142.Y-67.895
X142.775Y-135.297
X142.775Y-138.599
X142.883Y-87.053
X143.428Y-86.468
X143.875Y-78.979
X143.932Y-85.846
X144.35Y-77.55
X144.433Y-85.223
X145.45Y-70.725
X146.062Y-70.081
X146.196Y-76.323
X146.585Y-120.819
X146.597Y-69.486
X147.14Y-68.898
X147.665Y-68.295
X148.01Y-67.55
X148.499Y-76.223
X149.184Y-73.157
X149.749Y-72.591
X150.323Y-72.034
X150.903Y-126.153
X150.942Y-71.527
X151.411Y-131.741
X151.545Y-71.001
X152.427Y-116.755
X152.427Y-127.169
X153.697Y-133.519
X154.205Y-128.185
X155.983Y-137.075
X156.999Y-126.153
X157.761Y-129.709
X158.015Y-131.741
X158.015Y-132.757
X158.015Y-133.773
X158.523Y-128.185
X158.777Y-135.551
X159.539Y-136.313
X160.047Y-129.709
X160.047Y-130.725
X161.063Y-129.455
X162.587Y-129.201
X163.575Y-39.05
X163.603Y-127.169
X163.603Y-129.201
X163.65Y-43.65
X164.619Y-138.599
X164.873Y-139.869
X167.159Y-132.757
X168.914Y-119.572
X168.914Y-137.814
X170.275Y-41.425
X171.Y-45.075
X171.173Y-36.264
X179.575Y-107.425
X180.6Y-100.8
X180.666Y-107.427
X181.85Y-65.95
X182.076Y-110.13
X182.2Y-59.225
X182.875Y-65.95
X184.05Y-68.2
X184.4Y-103.25
X184.4Y-104.55
X184.583Y-93.686
X184.875Y-60.65
X184.875Y-61.7
X185.5Y-52.775
X185.75Y-103.25
X185.75Y-104.55
X185.975Y-60.675
X186.025Y-61.7
X186.107Y-107.399
X188.25Y-65.95
X189.85Y-113.
X190.249Y-106.536
X190.346Y-116.673
X190.75Y-65.6
X190.775Y-78.2
T2
X64.273Y-109.736
X65.162Y-106.878
X65.289Y-103.83
X66.305Y-104.973
X66.432Y-112.085
X66.94Y-99.639
X67.067Y-114.371
X67.328Y-118.957
X67.328Y-120.357
X67.829Y-104.973
X68.728Y-120.557
X68.845Y-114.498
X68.928Y-97.757
X69.099Y-103.894
X71.639Y-100.909
X71.928Y-97.957
X74.128Y-98.157
X75.128Y-99.157
X75.928Y-97.357
X75.928Y-100.357
X77.728Y-97.757
X78.728Y-100.357
X79.128Y-97.557
X79.328Y-117.757
X80.128Y-100.157
X80.656Y-119.197
X81.328Y-97.557
X81.328Y-100.557
X81.863Y-120.15
X82.728Y-100.357
X83.45Y-96.972
X84.657Y-120.15
X87.528Y-120.357
X88.728Y-120.357
X89.038Y-96.972
X89.038Y-115.768
X89.728Y-109.357
X89.928Y-120.157
X90.562Y-99.893
X91.528Y-120.157
X92.928Y-120.157
T3
X64.143Y-45.695
X66.683Y-45.695
X69.223Y-45.695
X84.463Y-45.695
X87.003Y-45.695
X89.543Y-45.695
X92.083Y-45.695
T4
X59.927Y-43.129
X59.927Y-45.669
X156.441Y-36.518
X156.441Y-39.058
X156.441Y-41.598
X134.648Y-117.514
X134.648Y-120.054
X134.648Y-122.594
X134.648Y-125.134
X134.648Y-127.674
X134.648Y-130.214
X134.648Y-132.754
X134.648Y-135.294
X134.648Y-137.834
X116.3Y-127.97
X116.3Y-130.51
X116.3Y-133.05
X116.3Y-135.59
X116.3Y-138.13
X94.245Y-98.496
X94.245Y-101.036
X94.245Y-103.576
X94.245Y-106.116
X94.245Y-108.656
X94.245Y-111.196
X94.245Y-113.736
X94.245Y-116.276
X94.245Y-118.816
X183.111Y-32.454
X183.111Y-34.994
X183.111Y-37.534
X183.111Y-40.074
X183.111Y-42.614
X183.111Y-45.154
X179.051Y-111.283
X179.051Y-113.823
X179.051Y-116.363
X179.297Y-94.938
X179.297Y-97.478
X182.5Y-52.
X182.5Y-54.54
X182.5Y-57.08
X62.6Y-130.165
X62.6Y-132.705
X64.125Y-49.05
X66.665Y-49.05
X69.205Y-49.05
X155.983Y-119.549
X155.983Y-122.089
X89.27Y-126.355
X89.27Y-128.895
X89.27Y-131.435
X89.27Y-133.975
X89.27Y-136.515
X157.56Y-60.737
X157.56Y-63.277
X157.56Y-65.817
X157.56Y-68.357
X157.56Y-70.897
X157.56Y-73.437
X157.56Y-75.977
X157.56Y-78.517
X157.56Y-81.057
X157.56Y-83.597
X157.56Y-86.137
X157.56Y-88.677
X157.56Y-91.217
X157.56Y-93.757
X157.56Y-96.297
X157.56Y-98.837
X179.175Y-73.285
X179.175Y-75.825
X179.124Y-90.803
X181.664Y-90.803
X184.204Y-90.803
X186.744Y-90.803
X189.284Y-90.803
X102.295Y-102.373
X104.835Y-102.373
X179.175Y-79.475
X181.715Y-79.475
X184.255Y-79.475
X186.795Y-79.475
X102.193Y-69.389
X102.193Y-71.929
X102.193Y-74.469
X102.193Y-77.009
X102.193Y-79.549
X102.193Y-82.089
X102.193Y-84.629
X102.193Y-87.169
X102.193Y-89.709
X102.193Y-92.249
X104.733Y-69.389
X104.733Y-71.929
X104.733Y-74.469
X104.733Y-77.009
X104.733Y-79.549
X104.733Y-82.089
X104.733Y-84.629
X104.733Y-87.169
X104.733Y-89.709
X104.733Y-92.249
X173.06Y-84.875
X175.6Y-84.875
X84.5Y-49.35
X87.04Y-49.35
X89.58Y-49.35
X92.12Y-49.35
X177.519Y-139.648
X180.059Y-139.648
X113.283Y-102.388
X115.823Y-102.388
X118.363Y-102.388
X120.903Y-102.388
X123.443Y-102.388
X125.983Y-102.388
X128.523Y-102.388
X131.063Y-102.388
X133.603Y-102.388
X136.143Y-102.388
X138.683Y-102.388
X141.223Y-102.388
X143.763Y-102.388
X146.303Y-102.388
X148.843Y-102.388
X151.383Y-102.388
X91.146Y-59.844
X91.146Y-62.384
X91.146Y-64.924
X91.146Y-67.464
X91.146Y-70.004
X91.146Y-72.544
X91.146Y-75.084
X91.146Y-77.624
X91.146Y-80.164
X91.146Y-82.704
X91.146Y-85.244
X113.476Y-57.166
X116.016Y-57.166
X118.556Y-57.166
X121.096Y-57.166
X123.636Y-57.166
X126.176Y-57.166
X128.716Y-57.166
X131.256Y-57.166
X133.796Y-57.166
X136.336Y-57.166
X138.876Y-57.166
X141.416Y-57.166
X143.956Y-57.166
X146.496Y-57.166
X149.036Y-57.166
X151.576Y-57.166
X178.85Y-52.
X178.85Y-54.54
X178.85Y-57.08
X178.85Y-59.62
X178.85Y-62.16
T5
X175.859Y-124.248
X178.399Y-124.248
X180.939Y-124.248
X183.479Y-124.248
T6
X64.527Y-98.496
X60.875Y-139.95
X106.175Y-30.2
X64.527Y-118.816
X60.9Y-90.65
X153.775Y-30.275
X99.35Y-139.8
X189.35Y-84.75
X163.25Y-112.2
X189.625Y-30.275
X60.75Y-54.175
X189.675Y-140.15
T0
M30
