G04 #@! TF.GenerationSoftware,KiCad,Pcbnew,5.0.1-33cea8e~68~ubuntu16.04.1*
G04 #@! TF.CreationDate,2018-10-29T00:17:57-07:00*
G04 #@! TF.ProjectId,integrated-board-design-1,696E74656772617465642D626F617264,rev?*
G04 #@! TF.SameCoordinates,Original*
G04 #@! TF.FileFunction,Other,Fab,Top*
%FSLAX46Y46*%
G04 Gerber Fmt 4.6, Leading zero omitted, Abs format (unit mm)*
G04 Created by KiCad (PCBNEW 5.0.1-33cea8e~68~ubuntu16.04.1) date Mon 29 Oct 2018 12:17:57 AM PDT*
%MOMM*%
%LPD*%
G01*
G04 APERTURE LIST*
%ADD10C,0.100000*%
%ADD11C,0.203200*%
%ADD12C,0.127000*%
%ADD13C,0.076200*%
%ADD14C,0.101600*%
%ADD15C,0.150000*%
%ADD16C,0.075000*%
%ADD17C,0.040000*%
%ADD18C,0.060000*%
%ADD19C,0.077216*%
%ADD20C,0.020320*%
%ADD21C,0.061772*%
%ADD22C,0.096520*%
G04 APERTURE END LIST*
D10*
G04 #@! TO.C,C1*
X178275000Y-137275000D02*
X178275000Y-136475000D01*
X179875000Y-137275000D02*
X178275000Y-137275000D01*
X179875000Y-136475000D02*
X179875000Y-137275000D01*
X178275000Y-136475000D02*
X179875000Y-136475000D01*
G04 #@! TO.C,*
X178379203Y-120948068D02*
X178379203Y-121948068D01*
X178379203Y-121948068D02*
X183479203Y-121948068D01*
X183479203Y-121948068D02*
X183479203Y-120948068D01*
X177729203Y-126748068D02*
X174629203Y-126748068D01*
X174629203Y-126748068D02*
X174629203Y-120948068D01*
X174629203Y-120948068D02*
X184679203Y-120948068D01*
X184679203Y-120948068D02*
X184729203Y-120948068D01*
X184729203Y-120948068D02*
X184729203Y-126748068D01*
X184729203Y-126748068D02*
X179079203Y-126748068D01*
G04 #@! TO.C,J2*
X66105440Y-69991760D02*
X65605440Y-69491760D01*
X66555440Y-69991760D02*
X66105440Y-69991760D01*
X66105440Y-79141760D02*
X66105440Y-78141760D01*
X65605440Y-65291760D02*
X65605440Y-69491760D01*
X64105440Y-77641760D02*
G75*
G03X64605440Y-78141760I500000J0D01*
G01*
X64605440Y-67141760D02*
G75*
G03X64105440Y-67641760I0J-500000D01*
G01*
X64105440Y-67641760D02*
X64105440Y-77641760D01*
X66555440Y-69991760D02*
X66555440Y-78141760D01*
X65605440Y-65291760D02*
X81655440Y-65291760D01*
X66105440Y-79141760D02*
X81655440Y-79141760D01*
X81655440Y-65291760D02*
X81655440Y-79141760D01*
X60105440Y-67641760D02*
X60105440Y-77641760D01*
X60105440Y-77641760D02*
G75*
G03X60605440Y-78141760I500000J0D01*
G01*
X60605440Y-67141760D02*
G75*
G03X60105440Y-67641760I0J-500000D01*
G01*
X60605440Y-78141760D02*
X66555440Y-78141760D01*
X65605440Y-67141760D02*
X60605440Y-67141760D01*
G04 #@! TO.C,J9*
X90511480Y-58574400D02*
X92416480Y-58574400D01*
X92416480Y-58574400D02*
X92416480Y-86514400D01*
X92416480Y-86514400D02*
X89876480Y-86514400D01*
X89876480Y-86514400D02*
X89876480Y-59209400D01*
X89876480Y-59209400D02*
X90511480Y-58574400D01*
G04 #@! TO.C,C16*
X180925000Y-66750000D02*
X180125000Y-66750000D01*
X180925000Y-65150000D02*
X180925000Y-66750000D01*
X180125000Y-65150000D02*
X180925000Y-65150000D01*
X180125000Y-66750000D02*
X180125000Y-65150000D01*
G04 #@! TO.C,C17*
X187725000Y-61850000D02*
X188525000Y-61850000D01*
X187725000Y-63450000D02*
X187725000Y-61850000D01*
X188525000Y-63450000D02*
X187725000Y-63450000D01*
X188525000Y-61850000D02*
X188525000Y-63450000D01*
G04 #@! TO.C,C18*
X188050000Y-50975000D02*
X188050000Y-51775000D01*
X186450000Y-50975000D02*
X188050000Y-50975000D01*
X186450000Y-51775000D02*
X186450000Y-50975000D01*
X188050000Y-51775000D02*
X186450000Y-51775000D01*
G04 #@! TO.C,C19*
X178425000Y-108175000D02*
X177625000Y-108175000D01*
X178425000Y-106575000D02*
X178425000Y-108175000D01*
X177625000Y-106575000D02*
X178425000Y-106575000D01*
X177625000Y-108175000D02*
X177625000Y-106575000D01*
G04 #@! TO.C,C20*
X187571120Y-104717080D02*
X188371120Y-104717080D01*
X187571120Y-106317080D02*
X187571120Y-104717080D01*
X188371120Y-106317080D02*
X187571120Y-106317080D01*
X188371120Y-104717080D02*
X188371120Y-106317080D01*
G04 #@! TO.C,C21*
X187790720Y-93278100D02*
X187790720Y-94078100D01*
X186190720Y-93278100D02*
X187790720Y-93278100D01*
X186190720Y-94078100D02*
X186190720Y-93278100D01*
X187790720Y-94078100D02*
X186190720Y-94078100D01*
G04 #@! TO.C,J10*
X179932020Y-98747940D02*
X178027020Y-98747940D01*
X178027020Y-98747940D02*
X178027020Y-93667940D01*
X178027020Y-93667940D02*
X180567020Y-93667940D01*
X180567020Y-93667940D02*
X180567020Y-98112940D01*
X180567020Y-98112940D02*
X179932020Y-98747940D01*
G04 #@! TO.C,R5*
X190425000Y-66675000D02*
X190425000Y-67475000D01*
X188825000Y-66675000D02*
X190425000Y-66675000D01*
X188825000Y-67475000D02*
X188825000Y-66675000D01*
X190425000Y-67475000D02*
X188825000Y-67475000D01*
G04 #@! TO.C,R6*
X188127260Y-69022680D02*
X188927260Y-69022680D01*
X188127260Y-70622680D02*
X188127260Y-69022680D01*
X188927260Y-70622680D02*
X188127260Y-70622680D01*
X188927260Y-69022680D02*
X188927260Y-70622680D01*
G04 #@! TO.C,R7*
X190002840Y-107888180D02*
X190002840Y-108688180D01*
X188402840Y-107888180D02*
X190002840Y-107888180D01*
X188402840Y-108688180D02*
X188402840Y-107888180D01*
X190002840Y-108688180D02*
X188402840Y-108688180D01*
G04 #@! TO.C,R8*
X187733680Y-110515860D02*
X188533680Y-110515860D01*
X187733680Y-112115860D02*
X187733680Y-110515860D01*
X188533680Y-112115860D02*
X187733680Y-112115860D01*
X188533680Y-110515860D02*
X188533680Y-112115860D01*
G04 #@! TO.C,J7*
X176870000Y-84240000D02*
X176870000Y-86145000D01*
X176870000Y-86145000D02*
X171790000Y-86145000D01*
X171790000Y-86145000D02*
X171790000Y-83605000D01*
X171790000Y-83605000D02*
X176235000Y-83605000D01*
X176235000Y-83605000D02*
X176870000Y-84240000D01*
G04 #@! TO.C,J8*
X179810000Y-77095000D02*
X177905000Y-77095000D01*
X177905000Y-77095000D02*
X177905000Y-72015000D01*
X177905000Y-72015000D02*
X180445000Y-72015000D01*
X180445000Y-72015000D02*
X180445000Y-76460000D01*
X180445000Y-76460000D02*
X179810000Y-77095000D01*
G04 #@! TO.C,D4*
X187938760Y-115600180D02*
X188338760Y-115600180D01*
X188138760Y-115550180D02*
X187938760Y-115250180D01*
X188338760Y-115250180D02*
X188138760Y-115550180D01*
X187938760Y-115250180D02*
X188338760Y-115250180D01*
X188538760Y-114600180D02*
X188538760Y-116200180D01*
X187738760Y-114600180D02*
X188538760Y-114600180D01*
X187738760Y-116200180D02*
X187738760Y-114600180D01*
X187738760Y-116200180D02*
X188538760Y-116200180D01*
G04 #@! TO.C,D5*
X188339960Y-74135120D02*
X188739960Y-74135120D01*
X188539960Y-74085120D02*
X188339960Y-73785120D01*
X188739960Y-73785120D02*
X188539960Y-74085120D01*
X188339960Y-73785120D02*
X188739960Y-73785120D01*
X188939960Y-73135120D02*
X188939960Y-74735120D01*
X188139960Y-73135120D02*
X188939960Y-73135120D01*
X188139960Y-74735120D02*
X188139960Y-73135120D01*
X188139960Y-74735120D02*
X188939960Y-74735120D01*
G04 #@! TO.C,R9*
X190036040Y-117961820D02*
X190036040Y-118761820D01*
X188436040Y-117961820D02*
X190036040Y-117961820D01*
X188436040Y-118761820D02*
X188436040Y-117961820D01*
X190036040Y-118761820D02*
X188436040Y-118761820D01*
G04 #@! TO.C,R10*
X190442500Y-76359600D02*
X190442500Y-77159600D01*
X188842500Y-76359600D02*
X190442500Y-76359600D01*
X188842500Y-77159600D02*
X188842500Y-76359600D01*
X190442500Y-77159600D02*
X188842500Y-77159600D01*
G04 #@! TO.C,J13*
X177905000Y-80110000D02*
X177905000Y-78205000D01*
X177905000Y-78205000D02*
X188065000Y-78205000D01*
X188065000Y-78205000D02*
X188065000Y-80745000D01*
X188065000Y-80745000D02*
X178540000Y-80745000D01*
X178540000Y-80745000D02*
X177905000Y-80110000D01*
G04 #@! TO.C,J14*
X177854300Y-91437820D02*
X177854300Y-89532820D01*
X177854300Y-89532820D02*
X190554300Y-89532820D01*
X190554300Y-89532820D02*
X190554300Y-92072820D01*
X190554300Y-92072820D02*
X178489300Y-92072820D01*
X178489300Y-92072820D02*
X177854300Y-91437820D01*
G04 #@! TO.C,J12*
X178415640Y-110012840D02*
X180320640Y-110012840D01*
X180320640Y-110012840D02*
X180320640Y-117632840D01*
X180320640Y-117632840D02*
X177780640Y-117632840D01*
X177780640Y-117632840D02*
X177780640Y-110647840D01*
X177780640Y-110647840D02*
X178415640Y-110012840D01*
G04 #@! TO.C,*
X177519203Y-138378068D02*
X181329203Y-138378068D01*
X181329203Y-138378068D02*
X181329203Y-140918068D01*
X181329203Y-140918068D02*
X176249203Y-140918068D01*
X176249203Y-140918068D02*
X176249203Y-139648068D01*
X176249203Y-139648068D02*
X177519203Y-138378068D01*
G04 #@! TO.C,JP2*
X115030080Y-127334560D02*
X115665080Y-126699560D01*
X115030080Y-139399560D02*
X115030080Y-127334560D01*
X117570080Y-139399560D02*
X115030080Y-139399560D01*
X117570080Y-126699560D02*
X117570080Y-139399560D01*
X115665080Y-126699560D02*
X117570080Y-126699560D01*
G04 #@! TO.C,C1*
X103850080Y-134304560D02*
X103850080Y-135304560D01*
X103350080Y-134304560D02*
X103850080Y-134304560D01*
X103350080Y-135304560D02*
X103350080Y-134304560D01*
X103850080Y-135304560D02*
X103350080Y-135304560D01*
G04 #@! TO.C,C2*
X108930080Y-135304560D02*
X108430080Y-135304560D01*
X108430080Y-135304560D02*
X108430080Y-134304560D01*
X108430080Y-134304560D02*
X108930080Y-134304560D01*
X108930080Y-134304560D02*
X108930080Y-135304560D01*
G04 #@! TO.C,R3*
X112740080Y-134304560D02*
X112740080Y-135304560D01*
X112240080Y-134304560D02*
X112740080Y-134304560D01*
X112240080Y-135304560D02*
X112240080Y-134304560D01*
X112740080Y-135304560D02*
X112240080Y-135304560D01*
G04 #@! TO.C,J2*
X158118300Y-118279160D02*
X160023300Y-118279160D01*
X160023300Y-118279160D02*
X160023300Y-123359160D01*
X160023300Y-123359160D02*
X157483300Y-123359160D01*
X157483300Y-123359160D02*
X157483300Y-118914160D01*
X157483300Y-118914160D02*
X158118300Y-118279160D01*
X155663300Y-119229160D02*
X157483300Y-119229160D01*
X155663300Y-119229160D02*
X155663300Y-119869160D01*
X155663300Y-119869160D02*
X157483300Y-119869160D01*
X160023300Y-119229160D02*
X166023300Y-119229160D01*
X166023300Y-119229160D02*
X166023300Y-119869160D01*
X160023300Y-119869160D02*
X166023300Y-119869160D01*
X155663300Y-121769160D02*
X157483300Y-121769160D01*
X155663300Y-121769160D02*
X155663300Y-122409160D01*
X155663300Y-122409160D02*
X157483300Y-122409160D01*
X160023300Y-121769160D02*
X166023300Y-121769160D01*
X166023300Y-121769160D02*
X166023300Y-122409160D01*
X160023300Y-122409160D02*
X166023300Y-122409160D01*
G04 #@! TO.C,C1*
X167929300Y-127673160D02*
X167929300Y-127173160D01*
X167929300Y-127173160D02*
X168929300Y-127173160D01*
X168929300Y-127173160D02*
X168929300Y-127673160D01*
X168929300Y-127673160D02*
X167929300Y-127673160D01*
G04 #@! TO.C,C2*
X168929300Y-130721160D02*
X167929300Y-130721160D01*
X168929300Y-130221160D02*
X168929300Y-130721160D01*
X167929300Y-130221160D02*
X168929300Y-130221160D01*
X167929300Y-130721160D02*
X167929300Y-130221160D01*
G04 #@! TO.C,C3*
X143799300Y-137325160D02*
X143799300Y-136825160D01*
X143799300Y-136825160D02*
X144799300Y-136825160D01*
X144799300Y-136825160D02*
X144799300Y-137325160D01*
X144799300Y-137325160D02*
X143799300Y-137325160D01*
G04 #@! TO.C,D1*
X144307300Y-125387160D02*
X144307300Y-124887160D01*
X144307300Y-124887160D02*
X145307300Y-124887160D01*
X145307300Y-124887160D02*
X145307300Y-125387160D01*
X145307300Y-125387160D02*
X144307300Y-125387160D01*
X144407300Y-125387160D02*
X144407300Y-124887160D01*
X144507300Y-125387160D02*
X144507300Y-124887160D01*
G04 #@! TO.C,D2*
X144507300Y-121069160D02*
X144507300Y-120569160D01*
X144407300Y-121069160D02*
X144407300Y-120569160D01*
X145307300Y-121069160D02*
X144307300Y-121069160D01*
X145307300Y-120569160D02*
X145307300Y-121069160D01*
X144307300Y-120569160D02*
X145307300Y-120569160D01*
X144307300Y-121069160D02*
X144307300Y-120569160D01*
G04 #@! TO.C,J1*
X124618301Y-116244161D02*
X132158301Y-116244161D01*
X132158301Y-116244161D02*
X133128301Y-117214161D01*
X133128301Y-117214161D02*
X133128301Y-139104161D01*
X133128301Y-139104161D02*
X124618301Y-139104161D01*
X124618301Y-139104161D02*
X124618301Y-116244161D01*
X134648301Y-117214161D02*
X133128301Y-117214161D01*
X133128301Y-117814161D02*
X134648301Y-117814161D01*
X134648301Y-117814161D02*
X134648301Y-117214161D01*
X134648301Y-119754161D02*
X133128301Y-119754161D01*
X133128301Y-120354161D02*
X134648301Y-120354161D01*
X134648301Y-120354161D02*
X134648301Y-119754161D01*
X134648301Y-122294161D02*
X133128301Y-122294161D01*
X133128301Y-122894161D02*
X134648301Y-122894161D01*
X134648301Y-122894161D02*
X134648301Y-122294161D01*
X134648301Y-124834161D02*
X133128301Y-124834161D01*
X133128301Y-125434161D02*
X134648301Y-125434161D01*
X134648301Y-125434161D02*
X134648301Y-124834161D01*
X134648301Y-127374161D02*
X133128301Y-127374161D01*
X133128301Y-127974161D02*
X134648301Y-127974161D01*
X134648301Y-127974161D02*
X134648301Y-127374161D01*
X134648301Y-129914161D02*
X133128301Y-129914161D01*
X133128301Y-130514161D02*
X134648301Y-130514161D01*
X134648301Y-130514161D02*
X134648301Y-129914161D01*
X134648301Y-132454161D02*
X133128301Y-132454161D01*
X133128301Y-133054161D02*
X134648301Y-133054161D01*
X134648301Y-133054161D02*
X134648301Y-132454161D01*
X134648301Y-134994161D02*
X133128301Y-134994161D01*
X133128301Y-135594161D02*
X134648301Y-135594161D01*
X134648301Y-135594161D02*
X134648301Y-134994161D01*
X134648301Y-137534161D02*
X133128301Y-137534161D01*
X133128301Y-138134161D02*
X134648301Y-138134161D01*
X134648301Y-138134161D02*
X134648301Y-137534161D01*
G04 #@! TO.C,R1*
X144307300Y-117005160D02*
X144307300Y-116505160D01*
X144307300Y-116505160D02*
X145307300Y-116505160D01*
X145307300Y-116505160D02*
X145307300Y-117005160D01*
X145307300Y-117005160D02*
X144307300Y-117005160D01*
G04 #@! TO.C,R2*
X167929300Y-136563160D02*
X167929300Y-136063160D01*
X167929300Y-136063160D02*
X168929300Y-136063160D01*
X168929300Y-136063160D02*
X168929300Y-136563160D01*
X168929300Y-136563160D02*
X167929300Y-136563160D01*
G04 #@! TO.C,R3*
X145307300Y-129705160D02*
X144307300Y-129705160D01*
X145307300Y-129205160D02*
X145307300Y-129705160D01*
X144307300Y-129205160D02*
X145307300Y-129205160D01*
X144307300Y-129705160D02*
X144307300Y-129205160D01*
G04 #@! TO.C,R4*
X168929300Y-133769160D02*
X167929300Y-133769160D01*
X168929300Y-133269160D02*
X168929300Y-133769160D01*
X167929300Y-133269160D02*
X168929300Y-133269160D01*
X167929300Y-133769160D02*
X167929300Y-133269160D01*
G04 #@! TO.C,C1*
X168250000Y-45000000D02*
X167450000Y-45000000D01*
X167450000Y-45000000D02*
X167450000Y-43400000D01*
X167450000Y-43400000D02*
X168250000Y-43400000D01*
X168250000Y-43400000D02*
X168250000Y-45000000D01*
G04 #@! TO.C,C2*
X165275000Y-43475000D02*
X165275000Y-41875000D01*
X166075000Y-43475000D02*
X165275000Y-43475000D01*
X166075000Y-41875000D02*
X166075000Y-43475000D01*
X165275000Y-41875000D02*
X166075000Y-41875000D01*
G04 #@! TO.C,C3*
X172975000Y-37875000D02*
X172975000Y-38675000D01*
X172975000Y-38675000D02*
X171375000Y-38675000D01*
X171375000Y-38675000D02*
X171375000Y-37875000D01*
X171375000Y-37875000D02*
X172975000Y-37875000D01*
G04 #@! TO.C,C4*
X171375000Y-39600000D02*
X172975000Y-39600000D01*
X171375000Y-40400000D02*
X171375000Y-39600000D01*
X172975000Y-40400000D02*
X171375000Y-40400000D01*
X172975000Y-39600000D02*
X172975000Y-40400000D01*
G04 #@! TO.C,J1*
X155806000Y-35248000D02*
X157711000Y-35248000D01*
X157711000Y-35248000D02*
X157711000Y-42868000D01*
X157711000Y-42868000D02*
X155171000Y-42868000D01*
X155171000Y-42868000D02*
X155171000Y-35883000D01*
X155171000Y-35883000D02*
X155806000Y-35248000D01*
G04 #@! TO.C,J2*
X182476000Y-31184000D02*
X184381000Y-31184000D01*
X184381000Y-31184000D02*
X184381000Y-46424000D01*
X184381000Y-46424000D02*
X181841000Y-46424000D01*
X181841000Y-46424000D02*
X181841000Y-31819000D01*
X181841000Y-31819000D02*
X182476000Y-31184000D01*
G04 #@! TO.C,REF\002A\002A*
X62855000Y-49685000D02*
X62855000Y-47780000D01*
X62855000Y-47780000D02*
X70475000Y-47780000D01*
X70475000Y-47780000D02*
X70475000Y-50320000D01*
X70475000Y-50320000D02*
X63490000Y-50320000D01*
X63490000Y-50320000D02*
X62855000Y-49685000D01*
X83230000Y-49985000D02*
X83230000Y-48080000D01*
X83230000Y-48080000D02*
X93390000Y-48080000D01*
X93390000Y-48080000D02*
X93390000Y-50620000D01*
X93390000Y-50620000D02*
X83865000Y-50620000D01*
X83865000Y-50620000D02*
X83230000Y-49985000D01*
G04 #@! TO.C,J20*
X181230000Y-51365000D02*
X181865000Y-50730000D01*
X181230000Y-58350000D02*
X181230000Y-51365000D01*
X183770000Y-58350000D02*
X181230000Y-58350000D01*
X183770000Y-50730000D02*
X183770000Y-58350000D01*
X181865000Y-50730000D02*
X183770000Y-50730000D01*
G04 #@! TO.C,J21*
X177580000Y-51365000D02*
X178215000Y-50730000D01*
X177580000Y-63430000D02*
X177580000Y-51365000D01*
X180120000Y-63430000D02*
X177580000Y-63430000D01*
X180120000Y-50730000D02*
X180120000Y-63430000D01*
X178215000Y-50730000D02*
X180120000Y-50730000D01*
D11*
G04 #@! TO.C,U1*
X86751015Y-101164309D02*
X86751015Y-117164309D01*
X70751015Y-101164309D02*
X86751015Y-101164309D01*
D12*
X70751015Y-117164309D02*
X70751015Y-101164309D01*
D11*
X86751015Y-117164309D02*
X70751015Y-117164309D01*
D10*
G04 #@! TO.C,LED1*
G36*
X75231015Y-118548309D02*
X75231015Y-118873309D01*
X75306015Y-118873309D01*
X75306015Y-118548309D01*
X75231015Y-118548309D01*
G37*
G36*
X74806015Y-118573309D02*
X74806015Y-118873309D01*
X75068015Y-118873309D01*
X75068015Y-118573309D01*
X74806015Y-118573309D01*
G37*
G36*
X73631015Y-118973309D02*
X73631015Y-119373309D01*
X73806015Y-119373309D01*
X73806015Y-118973309D01*
X73631015Y-118973309D01*
G37*
G36*
X73556015Y-118848309D02*
X73556015Y-118998309D01*
X73806015Y-118998309D01*
X73806015Y-118848309D01*
X73556015Y-118848309D01*
G37*
G36*
X73556015Y-119348309D02*
X73556015Y-119498309D01*
X73806015Y-119498309D01*
X73806015Y-119348309D01*
X73556015Y-119348309D01*
G37*
G36*
X73306015Y-118548309D02*
X73306015Y-118873309D01*
X73806015Y-118873309D01*
X73806015Y-118548309D01*
X73306015Y-118548309D01*
G37*
G36*
X73306015Y-119473309D02*
X73306015Y-119798309D01*
X73806015Y-119798309D01*
X73806015Y-119473309D01*
X73306015Y-119473309D01*
G37*
G36*
X74806015Y-118973309D02*
X74806015Y-119373309D01*
X74981015Y-119373309D01*
X74981015Y-118973309D01*
X74806015Y-118973309D01*
G37*
G36*
X74806015Y-119348309D02*
X74806015Y-119498309D01*
X75056015Y-119498309D01*
X75056015Y-119348309D01*
X74806015Y-119348309D01*
G37*
G36*
X74806015Y-118848309D02*
X74806015Y-118998309D01*
X75056015Y-118998309D01*
X75056015Y-118848309D01*
X74806015Y-118848309D01*
G37*
G36*
X74806015Y-119473309D02*
X74806015Y-119798309D01*
X75306015Y-119798309D01*
X75306015Y-119473309D01*
X74806015Y-119473309D01*
G37*
D13*
X75259015Y-118723309D02*
G75*
G03X75259015Y-118723309I-103000J0D01*
G01*
D14*
X73806015Y-118598309D02*
X75231015Y-118598309D01*
X74831015Y-119748309D02*
X73781015Y-119748309D01*
X73381017Y-119523309D02*
G75*
G03X73381015Y-118823309I-54201J350000D01*
G01*
X75231013Y-119523309D02*
G75*
G02X75231015Y-118823309I54201J350000D01*
G01*
D10*
G04 #@! TO.C,R1*
G36*
X78014415Y-118497409D02*
X77264315Y-118497409D01*
X77264315Y-119947509D01*
X78014415Y-119947509D01*
X78014415Y-118497409D01*
G37*
G36*
X79462215Y-118497409D02*
X78712115Y-118497409D01*
X78712115Y-119947509D01*
X79462215Y-119947509D01*
X79462215Y-118497409D01*
G37*
D14*
X78726015Y-118561309D02*
X77989015Y-118561309D01*
X78751015Y-119881309D02*
X77989015Y-119881309D01*
D10*
G04 #@! TO.C,C1*
G36*
X71005415Y-98661409D02*
X70255315Y-98661409D01*
X70255315Y-100111509D01*
X71005415Y-100111509D01*
X71005415Y-98661409D01*
G37*
G36*
X72453215Y-98661409D02*
X71703115Y-98661409D01*
X71703115Y-100111509D01*
X72453215Y-100111509D01*
X72453215Y-98661409D01*
G37*
D14*
X71717015Y-98725309D02*
X70980015Y-98725309D01*
X71742015Y-100045309D02*
X70980015Y-100045309D01*
D11*
G04 #@! TO.C,D1*
X86482015Y-98812309D02*
X86482015Y-100212309D01*
X84482015Y-100212309D02*
X84482015Y-98812309D01*
D10*
G04 #@! TO.C,R3*
G36*
X85507415Y-96907409D02*
X84757315Y-96907409D01*
X84757315Y-98357509D01*
X85507415Y-98357509D01*
X85507415Y-96907409D01*
G37*
G36*
X86955215Y-96907409D02*
X86205115Y-96907409D01*
X86205115Y-98357509D01*
X86955215Y-98357509D01*
X86955215Y-96907409D01*
G37*
D14*
X86219015Y-96971309D02*
X85482015Y-96971309D01*
X86244015Y-98291309D02*
X85482015Y-98291309D01*
D10*
G04 #@! TO.C,JP1*
G36*
X93991015Y-118562309D02*
X93991015Y-119070309D01*
X94499015Y-119070309D01*
X94499015Y-118562309D01*
X93991015Y-118562309D01*
G37*
G36*
X93991015Y-98242309D02*
X93991015Y-98750309D01*
X94499015Y-98750309D01*
X94499015Y-98242309D01*
X93991015Y-98242309D01*
G37*
G36*
X93991015Y-100782309D02*
X93991015Y-101290309D01*
X94499015Y-101290309D01*
X94499015Y-100782309D01*
X93991015Y-100782309D01*
G37*
G36*
X93991015Y-103322309D02*
X93991015Y-103830309D01*
X94499015Y-103830309D01*
X94499015Y-103322309D01*
X93991015Y-103322309D01*
G37*
G36*
X93991015Y-105862309D02*
X93991015Y-106370309D01*
X94499015Y-106370309D01*
X94499015Y-105862309D01*
X93991015Y-105862309D01*
G37*
G36*
X93991015Y-108402309D02*
X93991015Y-108910309D01*
X94499015Y-108910309D01*
X94499015Y-108402309D01*
X93991015Y-108402309D01*
G37*
G36*
X93991015Y-110942309D02*
X93991015Y-111450309D01*
X94499015Y-111450309D01*
X94499015Y-110942309D01*
X93991015Y-110942309D01*
G37*
G36*
X93991015Y-113482309D02*
X93991015Y-113990309D01*
X94499015Y-113990309D01*
X94499015Y-113482309D01*
X93991015Y-113482309D01*
G37*
G36*
X93991015Y-116022309D02*
X93991015Y-116530309D01*
X94499015Y-116530309D01*
X94499015Y-116022309D01*
X93991015Y-116022309D01*
G37*
D11*
X94880015Y-97226309D02*
X93610015Y-97226309D01*
G04 #@! TO.C,D2*
X84323015Y-118243309D02*
X84323015Y-119643309D01*
X82323015Y-119643309D02*
X82323015Y-118243309D01*
D10*
G04 #@! TO.C,L1*
X67362500Y-133575000D02*
X68962500Y-133575000D01*
X67362500Y-134375000D02*
X67362500Y-133575000D01*
X68962500Y-134375000D02*
X67362500Y-134375000D01*
X68962500Y-133575000D02*
X68962500Y-134375000D01*
G04 #@! TO.C,L2*
X66880000Y-127225000D02*
X68480000Y-127225000D01*
X66880000Y-128025000D02*
X66880000Y-127225000D01*
X68480000Y-128025000D02*
X66880000Y-128025000D01*
X68480000Y-127225000D02*
X68480000Y-128025000D01*
G04 #@! TO.C,C1*
X71890000Y-130152500D02*
X71890000Y-131752500D01*
X71090000Y-130152500D02*
X71890000Y-130152500D01*
X71090000Y-131752500D02*
X71090000Y-130152500D01*
X71890000Y-131752500D02*
X71090000Y-131752500D01*
G04 #@! TO.C,C2*
X83002500Y-124615000D02*
X83002500Y-123015000D01*
X83802500Y-124615000D02*
X83002500Y-124615000D01*
X83802500Y-123015000D02*
X83802500Y-124615000D01*
X83002500Y-123015000D02*
X83802500Y-123015000D01*
G04 #@! TO.C,J1*
X63235000Y-133975000D02*
X61330000Y-133975000D01*
X61330000Y-133975000D02*
X61330000Y-128895000D01*
X61330000Y-128895000D02*
X63870000Y-128895000D01*
X63870000Y-128895000D02*
X63870000Y-133340000D01*
X63870000Y-133340000D02*
X63235000Y-133975000D01*
G04 #@! TO.C,J2*
X88000000Y-125085000D02*
X89905000Y-125085000D01*
X89905000Y-125085000D02*
X90540000Y-125720000D01*
X90540000Y-125720000D02*
X90540000Y-137785000D01*
X90540000Y-137785000D02*
X88000000Y-137785000D01*
X88000000Y-137785000D02*
X88000000Y-125085000D01*
G04 #@! TO.C,REF\002A\002A*
X87600000Y-43675000D02*
X87600000Y-42875000D01*
X89200000Y-43675000D02*
X87600000Y-43675000D01*
X89200000Y-42875000D02*
X89200000Y-43675000D01*
X87600000Y-42875000D02*
X89200000Y-42875000D01*
G04 #@! TO.C,0k1*
X124252920Y-79011360D02*
X124252920Y-79811360D01*
X122652920Y-79011360D02*
X124252920Y-79011360D01*
X122652920Y-79811360D02*
X122652920Y-79011360D01*
X124252920Y-79811360D02*
X122652920Y-79811360D01*
G04 #@! TO.C,0k2*
X124263080Y-80438840D02*
X124263080Y-81238840D01*
X122663080Y-80438840D02*
X124263080Y-80438840D01*
X122663080Y-81238840D02*
X122663080Y-80438840D01*
X124263080Y-81238840D02*
X122663080Y-81238840D01*
G04 #@! TO.C,1uF1*
X122627520Y-86745560D02*
X122627520Y-85945560D01*
X124227520Y-86745560D02*
X122627520Y-86745560D01*
X124227520Y-85945560D02*
X124227520Y-86745560D01*
X122627520Y-85945560D02*
X124227520Y-85945560D01*
G04 #@! TO.C,1uF2*
X130733880Y-70584960D02*
X131533880Y-70584960D01*
X130733880Y-72184960D02*
X130733880Y-70584960D01*
X131533880Y-72184960D02*
X130733880Y-72184960D01*
X131533880Y-70584960D02*
X131533880Y-72184960D01*
G04 #@! TO.C,1uF3*
X132565120Y-94506520D02*
X131765120Y-94506520D01*
X132565120Y-92906520D02*
X132565120Y-94506520D01*
X131765120Y-92906520D02*
X132565120Y-92906520D01*
X131765120Y-94506520D02*
X131765120Y-92906520D01*
G04 #@! TO.C,1uF4*
X140307040Y-94689360D02*
X139507040Y-94689360D01*
X140307040Y-93089360D02*
X140307040Y-94689360D01*
X139507040Y-93089360D02*
X140307040Y-93089360D01*
X139507040Y-94689360D02*
X139507040Y-93089360D01*
G04 #@! TO.C,1uF5*
X147935880Y-77202880D02*
X147935880Y-78002880D01*
X146335880Y-77202880D02*
X147935880Y-77202880D01*
X146335880Y-78002880D02*
X146335880Y-77202880D01*
X147935880Y-78002880D02*
X146335880Y-78002880D01*
G04 #@! TO.C,4.7uF1*
X138569680Y-94694480D02*
X137769680Y-94694480D01*
X138569680Y-93094480D02*
X138569680Y-94694480D01*
X137769680Y-93094480D02*
X138569680Y-93094480D01*
X137769680Y-94694480D02*
X137769680Y-93094480D01*
G04 #@! TO.C,10k1*
X118014680Y-70502360D02*
X118014680Y-71302360D01*
X116414680Y-70502360D02*
X118014680Y-70502360D01*
X116414680Y-71302360D02*
X116414680Y-70502360D01*
X118014680Y-71302360D02*
X116414680Y-71302360D01*
G04 #@! TO.C,10k2*
X118014680Y-67601680D02*
X118014680Y-68401680D01*
X116414680Y-67601680D02*
X118014680Y-67601680D01*
X116414680Y-68401680D02*
X116414680Y-67601680D01*
X118014680Y-68401680D02*
X116414680Y-68401680D01*
G04 #@! TO.C,10k3*
X118014680Y-69044400D02*
X118014680Y-69844400D01*
X116414680Y-69044400D02*
X118014680Y-69044400D01*
X116414680Y-69844400D02*
X116414680Y-69044400D01*
X118014680Y-69844400D02*
X116414680Y-69844400D01*
G04 #@! TO.C,10k4*
X132951200Y-72034920D02*
X132151200Y-72034920D01*
X132951200Y-70434920D02*
X132951200Y-72034920D01*
X132151200Y-70434920D02*
X132951200Y-70434920D01*
X132151200Y-72034920D02*
X132151200Y-70434920D01*
G04 #@! TO.C,10nF1*
X122630060Y-85401900D02*
X122630060Y-84601900D01*
X124230060Y-85401900D02*
X122630060Y-85401900D01*
X124230060Y-84601900D02*
X124230060Y-85401900D01*
X122630060Y-84601900D02*
X124230060Y-84601900D01*
G04 #@! TO.C,22uH1*
X124247840Y-87444160D02*
X124247840Y-88244160D01*
X122647840Y-87444160D02*
X124247840Y-87444160D01*
X122647840Y-88244160D02*
X122647840Y-87444160D01*
X124247840Y-88244160D02*
X122647840Y-88244160D01*
G04 #@! TO.C,100nF1*
X104456120Y-64350480D02*
X104456120Y-65150480D01*
X102856120Y-64350480D02*
X104456120Y-64350480D01*
X102856120Y-65150480D02*
X102856120Y-64350480D01*
X104456120Y-65150480D02*
X102856120Y-65150480D01*
G04 #@! TO.C,100nF2*
X129377520Y-70584960D02*
X130177520Y-70584960D01*
X129377520Y-72184960D02*
X129377520Y-70584960D01*
X130177520Y-72184960D02*
X129377520Y-72184960D01*
X130177520Y-70584960D02*
X130177520Y-72184960D01*
G04 #@! TO.C,100nF3*
X133916400Y-94506520D02*
X133116400Y-94506520D01*
X133916400Y-92906520D02*
X133916400Y-94506520D01*
X133116400Y-92906520D02*
X133916400Y-92906520D01*
X133116400Y-94506520D02*
X133116400Y-92906520D01*
G04 #@! TO.C,100nF4*
X141632920Y-94689320D02*
X140832920Y-94689320D01*
X141632920Y-93089320D02*
X141632920Y-94689320D01*
X140832920Y-93089320D02*
X141632920Y-93089320D01*
X140832920Y-94689320D02*
X140832920Y-93089320D01*
G04 #@! TO.C,100nF5*
X147930800Y-78564320D02*
X147930800Y-79364320D01*
X146330800Y-78564320D02*
X147930800Y-78564320D01*
X146330800Y-79364320D02*
X146330800Y-78564320D01*
X147930800Y-79364320D02*
X146330800Y-79364320D01*
G04 #@! TO.C,C1*
X120392120Y-75724600D02*
X120392120Y-76524600D01*
X118792120Y-75724600D02*
X120392120Y-75724600D01*
X118792120Y-76524600D02*
X118792120Y-75724600D01*
X120392120Y-76524600D02*
X118792120Y-76524600D01*
G04 #@! TO.C,C2*
X120387040Y-83796720D02*
X120387040Y-84596720D01*
X118787040Y-83796720D02*
X120387040Y-83796720D01*
X118787040Y-84596720D02*
X118787040Y-83796720D01*
X120387040Y-84596720D02*
X118787040Y-84596720D01*
G04 #@! TO.C,J1*
X104733120Y-93518520D02*
X100923120Y-93518520D01*
X100923120Y-93518520D02*
X100923120Y-68118520D01*
X100923120Y-68118520D02*
X106003120Y-68118520D01*
X106003120Y-68118520D02*
X106003120Y-92248520D01*
X106003120Y-92248520D02*
X104733120Y-93518520D01*
G04 #@! TO.C,J3*
X158195040Y-100107280D02*
X156290040Y-100107280D01*
X156290040Y-100107280D02*
X156290040Y-59467280D01*
X156290040Y-59467280D02*
X158830040Y-59467280D01*
X158830040Y-59467280D02*
X158830040Y-99472280D01*
X158830040Y-99472280D02*
X158195040Y-100107280D01*
G04 #@! TO.C,J4*
X152845800Y-56531040D02*
X152845800Y-58436040D01*
X152845800Y-58436040D02*
X112205800Y-58436040D01*
X112205800Y-58436040D02*
X112205800Y-55896040D01*
X112205800Y-55896040D02*
X152210800Y-55896040D01*
X152210800Y-55896040D02*
X152845800Y-56531040D01*
G04 #@! TO.C,J5*
X112012760Y-103023200D02*
X112012760Y-101118200D01*
X112012760Y-101118200D02*
X152652760Y-101118200D01*
X152652760Y-101118200D02*
X152652760Y-103658200D01*
X152652760Y-103658200D02*
X112647760Y-103658200D01*
X112647760Y-103658200D02*
X112012760Y-103023200D01*
G04 #@! TO.C,J6*
X101024720Y-103007960D02*
X101024720Y-101102960D01*
X101024720Y-101102960D02*
X106104720Y-101102960D01*
X106104720Y-101102960D02*
X106104720Y-103642960D01*
X106104720Y-103642960D02*
X101659720Y-103642960D01*
X101659720Y-103642960D02*
X101024720Y-103007960D01*
G04 #@! TO.C,SW1*
X102278080Y-60665840D02*
X105278080Y-60665840D01*
X105278080Y-60665840D02*
X105278080Y-63165840D01*
X105278080Y-63165840D02*
X102278080Y-63165840D01*
X102278080Y-63165840D02*
X102278080Y-60665840D01*
X104528080Y-61915840D02*
G75*
G03X104528080Y-61915840I-750000J0D01*
G01*
G04 #@! TO.C,Y1*
X120023240Y-81872560D02*
X114223240Y-81872560D01*
X114223240Y-81872560D02*
X114123240Y-81772560D01*
X114123240Y-81772560D02*
X114123240Y-78472560D01*
X114123240Y-78472560D02*
X114223240Y-78372560D01*
X114223240Y-78372560D02*
X120023240Y-78372560D01*
X120023240Y-78372560D02*
X120123240Y-78472560D01*
X120123240Y-78472560D02*
X120123240Y-81772560D01*
X120123240Y-81772560D02*
X120023240Y-81872560D01*
X120123240Y-79372560D02*
X119123240Y-78372560D01*
G04 #@! TD*
G04 #@! TO.C,C1*
D15*
X181708333Y-137232142D02*
X181660714Y-137279761D01*
X181517857Y-137327380D01*
X181422619Y-137327380D01*
X181279761Y-137279761D01*
X181184523Y-137184523D01*
X181136904Y-137089285D01*
X181089285Y-136898809D01*
X181089285Y-136755952D01*
X181136904Y-136565476D01*
X181184523Y-136470238D01*
X181279761Y-136375000D01*
X181422619Y-136327380D01*
X181517857Y-136327380D01*
X181660714Y-136375000D01*
X181708333Y-136422619D01*
X182660714Y-137327380D02*
X182089285Y-137327380D01*
X182375000Y-137327380D02*
X182375000Y-136327380D01*
X182279761Y-136470238D01*
X182184523Y-136565476D01*
X182089285Y-136613095D01*
G04 #@! TO.C,*
G04 #@! TO.C,J2*
X64707820Y-79451283D02*
X63707820Y-79451283D01*
X64422106Y-79117950D01*
X63707820Y-78784617D01*
X64707820Y-78784617D01*
X64707820Y-78308426D02*
X64041154Y-78308426D01*
X63707820Y-78308426D02*
X63755440Y-78356045D01*
X63803059Y-78308426D01*
X63755440Y-78260807D01*
X63707820Y-78308426D01*
X63803059Y-78308426D01*
X64660201Y-77403664D02*
X64707820Y-77498902D01*
X64707820Y-77689379D01*
X64660201Y-77784617D01*
X64612582Y-77832236D01*
X64517344Y-77879855D01*
X64231630Y-77879855D01*
X64136392Y-77832236D01*
X64088773Y-77784617D01*
X64041154Y-77689379D01*
X64041154Y-77498902D01*
X64088773Y-77403664D01*
X64707820Y-76975093D02*
X64041154Y-76975093D01*
X64231630Y-76975093D02*
X64136392Y-76927474D01*
X64088773Y-76879855D01*
X64041154Y-76784617D01*
X64041154Y-76689379D01*
X64707820Y-76213188D02*
X64660201Y-76308426D01*
X64612582Y-76356045D01*
X64517344Y-76403664D01*
X64231630Y-76403664D01*
X64136392Y-76356045D01*
X64088773Y-76308426D01*
X64041154Y-76213188D01*
X64041154Y-76070331D01*
X64088773Y-75975093D01*
X64136392Y-75927474D01*
X64231630Y-75879855D01*
X64517344Y-75879855D01*
X64612582Y-75927474D01*
X64660201Y-75975093D01*
X64707820Y-76070331D01*
X64707820Y-76213188D01*
X64803059Y-75689379D02*
X64803059Y-74927474D01*
X64660201Y-74736998D02*
X64707820Y-74594140D01*
X64707820Y-74356045D01*
X64660201Y-74260807D01*
X64612582Y-74213188D01*
X64517344Y-74165569D01*
X64422106Y-74165569D01*
X64326868Y-74213188D01*
X64279249Y-74260807D01*
X64231630Y-74356045D01*
X64184011Y-74546521D01*
X64136392Y-74641760D01*
X64088773Y-74689379D01*
X63993535Y-74736998D01*
X63898297Y-74736998D01*
X63803059Y-74689379D01*
X63755440Y-74641760D01*
X63707820Y-74546521D01*
X63707820Y-74308426D01*
X63755440Y-74165569D01*
X64707820Y-73736998D02*
X63707820Y-73736998D01*
X63707820Y-73498902D01*
X63755440Y-73356045D01*
X63850678Y-73260807D01*
X63945916Y-73213188D01*
X64136392Y-73165569D01*
X64279249Y-73165569D01*
X64469725Y-73213188D01*
X64564963Y-73260807D01*
X64660201Y-73356045D01*
X64707820Y-73498902D01*
X64707820Y-73736998D01*
X64803059Y-72975093D02*
X64803059Y-72213188D01*
X64612582Y-71403664D02*
X64660201Y-71451283D01*
X64707820Y-71594140D01*
X64707820Y-71689379D01*
X64660201Y-71832236D01*
X64564963Y-71927474D01*
X64469725Y-71975093D01*
X64279249Y-72022712D01*
X64136392Y-72022712D01*
X63945916Y-71975093D01*
X63850678Y-71927474D01*
X63755440Y-71832236D01*
X63707820Y-71689379D01*
X63707820Y-71594140D01*
X63755440Y-71451283D01*
X63803059Y-71403664D01*
X64707820Y-70546521D02*
X64184011Y-70546521D01*
X64088773Y-70594140D01*
X64041154Y-70689379D01*
X64041154Y-70879855D01*
X64088773Y-70975093D01*
X64660201Y-70546521D02*
X64707820Y-70641760D01*
X64707820Y-70879855D01*
X64660201Y-70975093D01*
X64564963Y-71022712D01*
X64469725Y-71022712D01*
X64374487Y-70975093D01*
X64326868Y-70879855D01*
X64326868Y-70641760D01*
X64279249Y-70546521D01*
X64707820Y-70070331D02*
X64041154Y-70070331D01*
X64231630Y-70070331D02*
X64136392Y-70022712D01*
X64088773Y-69975093D01*
X64041154Y-69879855D01*
X64041154Y-69784617D01*
X64707820Y-69022712D02*
X63707820Y-69022712D01*
X64660201Y-69022712D02*
X64707820Y-69117950D01*
X64707820Y-69308426D01*
X64660201Y-69403664D01*
X64612582Y-69451283D01*
X64517344Y-69498902D01*
X64231630Y-69498902D01*
X64136392Y-69451283D01*
X64088773Y-69403664D01*
X64041154Y-69308426D01*
X64041154Y-69117950D01*
X64088773Y-69022712D01*
X64803059Y-68784617D02*
X64803059Y-68022712D01*
X64707820Y-67784617D02*
X63707820Y-67784617D01*
X63707820Y-67546521D01*
X63755440Y-67403664D01*
X63850678Y-67308426D01*
X63945916Y-67260807D01*
X64136392Y-67213188D01*
X64279249Y-67213188D01*
X64469725Y-67260807D01*
X64564963Y-67308426D01*
X64660201Y-67403664D01*
X64707820Y-67546521D01*
X64707820Y-67784617D01*
X64660201Y-66403664D02*
X64707820Y-66498902D01*
X64707820Y-66689379D01*
X64660201Y-66784617D01*
X64564963Y-66832236D01*
X64184011Y-66832236D01*
X64088773Y-66784617D01*
X64041154Y-66689379D01*
X64041154Y-66498902D01*
X64088773Y-66403664D01*
X64184011Y-66356045D01*
X64279249Y-66356045D01*
X64374487Y-66832236D01*
X64041154Y-66070331D02*
X64041154Y-65689379D01*
X63707820Y-65927474D02*
X64564963Y-65927474D01*
X64660201Y-65879855D01*
X64707820Y-65784617D01*
X64707820Y-65689379D01*
D10*
X71707820Y-72875093D02*
X72422106Y-72875093D01*
X72564963Y-72922712D01*
X72660201Y-73017950D01*
X72707820Y-73160807D01*
X72707820Y-73256045D01*
X71803059Y-72446521D02*
X71755440Y-72398902D01*
X71707820Y-72303664D01*
X71707820Y-72065569D01*
X71755440Y-71970331D01*
X71803059Y-71922712D01*
X71898297Y-71875093D01*
X71993535Y-71875093D01*
X72136392Y-71922712D01*
X72707820Y-72494140D01*
X72707820Y-71875093D01*
G04 #@! TO.C,J9*
D15*
X90598860Y-72877733D02*
X91313146Y-72877733D01*
X91456003Y-72925352D01*
X91551241Y-73020590D01*
X91598860Y-73163447D01*
X91598860Y-73258685D01*
X91598860Y-72353923D02*
X91598860Y-72163447D01*
X91551241Y-72068209D01*
X91503622Y-72020590D01*
X91360765Y-71925352D01*
X91170289Y-71877733D01*
X90789337Y-71877733D01*
X90694099Y-71925352D01*
X90646480Y-71972971D01*
X90598860Y-72068209D01*
X90598860Y-72258685D01*
X90646480Y-72353923D01*
X90694099Y-72401542D01*
X90789337Y-72449161D01*
X91027432Y-72449161D01*
X91122670Y-72401542D01*
X91170289Y-72353923D01*
X91217908Y-72258685D01*
X91217908Y-72068209D01*
X91170289Y-71972971D01*
X91122670Y-71925352D01*
X91027432Y-71877733D01*
G04 #@! TO.C,C16*
X180882142Y-70267857D02*
X180929761Y-70315476D01*
X180977380Y-70458333D01*
X180977380Y-70553571D01*
X180929761Y-70696428D01*
X180834523Y-70791666D01*
X180739285Y-70839285D01*
X180548809Y-70886904D01*
X180405952Y-70886904D01*
X180215476Y-70839285D01*
X180120238Y-70791666D01*
X180025000Y-70696428D01*
X179977380Y-70553571D01*
X179977380Y-70458333D01*
X180025000Y-70315476D01*
X180072619Y-70267857D01*
X180977380Y-69315476D02*
X180977380Y-69886904D01*
X180977380Y-69601190D02*
X179977380Y-69601190D01*
X180120238Y-69696428D01*
X180215476Y-69791666D01*
X180263095Y-69886904D01*
X179977380Y-68458333D02*
X179977380Y-68648809D01*
X180025000Y-68744047D01*
X180072619Y-68791666D01*
X180215476Y-68886904D01*
X180405952Y-68934523D01*
X180786904Y-68934523D01*
X180882142Y-68886904D01*
X180929761Y-68839285D01*
X180977380Y-68744047D01*
X180977380Y-68553571D01*
X180929761Y-68458333D01*
X180882142Y-68410714D01*
X180786904Y-68363095D01*
X180548809Y-68363095D01*
X180453571Y-68410714D01*
X180405952Y-68458333D01*
X180358333Y-68553571D01*
X180358333Y-68744047D01*
X180405952Y-68839285D01*
X180453571Y-68886904D01*
X180548809Y-68934523D01*
G04 #@! TO.C,C17*
X189732142Y-63292857D02*
X189779761Y-63340476D01*
X189827380Y-63483333D01*
X189827380Y-63578571D01*
X189779761Y-63721428D01*
X189684523Y-63816666D01*
X189589285Y-63864285D01*
X189398809Y-63911904D01*
X189255952Y-63911904D01*
X189065476Y-63864285D01*
X188970238Y-63816666D01*
X188875000Y-63721428D01*
X188827380Y-63578571D01*
X188827380Y-63483333D01*
X188875000Y-63340476D01*
X188922619Y-63292857D01*
X189827380Y-62340476D02*
X189827380Y-62911904D01*
X189827380Y-62626190D02*
X188827380Y-62626190D01*
X188970238Y-62721428D01*
X189065476Y-62816666D01*
X189113095Y-62911904D01*
X188827380Y-62007142D02*
X188827380Y-61340476D01*
X189827380Y-61769047D01*
G04 #@! TO.C,C19*
X178382142Y-104667857D02*
X178429761Y-104715476D01*
X178477380Y-104858333D01*
X178477380Y-104953571D01*
X178429761Y-105096428D01*
X178334523Y-105191666D01*
X178239285Y-105239285D01*
X178048809Y-105286904D01*
X177905952Y-105286904D01*
X177715476Y-105239285D01*
X177620238Y-105191666D01*
X177525000Y-105096428D01*
X177477380Y-104953571D01*
X177477380Y-104858333D01*
X177525000Y-104715476D01*
X177572619Y-104667857D01*
X178477380Y-103715476D02*
X178477380Y-104286904D01*
X178477380Y-104001190D02*
X177477380Y-104001190D01*
X177620238Y-104096428D01*
X177715476Y-104191666D01*
X177763095Y-104286904D01*
X178477380Y-103239285D02*
X178477380Y-103048809D01*
X178429761Y-102953571D01*
X178382142Y-102905952D01*
X178239285Y-102810714D01*
X178048809Y-102763095D01*
X177667857Y-102763095D01*
X177572619Y-102810714D01*
X177525000Y-102858333D01*
X177477380Y-102953571D01*
X177477380Y-103144047D01*
X177525000Y-103239285D01*
X177572619Y-103286904D01*
X177667857Y-103334523D01*
X177905952Y-103334523D01*
X178001190Y-103286904D01*
X178048809Y-103239285D01*
X178096428Y-103144047D01*
X178096428Y-102953571D01*
X178048809Y-102858333D01*
X178001190Y-102810714D01*
X177905952Y-102763095D01*
G04 #@! TO.C,C20*
X189578262Y-106159937D02*
X189625881Y-106207556D01*
X189673500Y-106350413D01*
X189673500Y-106445651D01*
X189625881Y-106588508D01*
X189530643Y-106683746D01*
X189435405Y-106731365D01*
X189244929Y-106778984D01*
X189102072Y-106778984D01*
X188911596Y-106731365D01*
X188816358Y-106683746D01*
X188721120Y-106588508D01*
X188673500Y-106445651D01*
X188673500Y-106350413D01*
X188721120Y-106207556D01*
X188768739Y-106159937D01*
X188768739Y-105778984D02*
X188721120Y-105731365D01*
X188673500Y-105636127D01*
X188673500Y-105398032D01*
X188721120Y-105302794D01*
X188768739Y-105255175D01*
X188863977Y-105207556D01*
X188959215Y-105207556D01*
X189102072Y-105255175D01*
X189673500Y-105826603D01*
X189673500Y-105207556D01*
X188673500Y-104588508D02*
X188673500Y-104493270D01*
X188721120Y-104398032D01*
X188768739Y-104350413D01*
X188863977Y-104302794D01*
X189054453Y-104255175D01*
X189292548Y-104255175D01*
X189483024Y-104302794D01*
X189578262Y-104350413D01*
X189625881Y-104398032D01*
X189673500Y-104493270D01*
X189673500Y-104588508D01*
X189625881Y-104683746D01*
X189578262Y-104731365D01*
X189483024Y-104778984D01*
X189292548Y-104826603D01*
X189054453Y-104826603D01*
X188863977Y-104778984D01*
X188768739Y-104731365D01*
X188721120Y-104683746D01*
X188673500Y-104588508D01*
G04 #@! TO.C,J10*
X178749400Y-97017463D02*
X179463686Y-97017463D01*
X179606543Y-97065082D01*
X179701781Y-97160320D01*
X179749400Y-97303178D01*
X179749400Y-97398416D01*
X179749400Y-96017463D02*
X179749400Y-96588892D01*
X179749400Y-96303178D02*
X178749400Y-96303178D01*
X178892258Y-96398416D01*
X178987496Y-96493654D01*
X179035115Y-96588892D01*
X178749400Y-95398416D02*
X178749400Y-95303178D01*
X178797020Y-95207940D01*
X178844639Y-95160320D01*
X178939877Y-95112701D01*
X179130353Y-95065082D01*
X179368448Y-95065082D01*
X179558924Y-95112701D01*
X179654162Y-95160320D01*
X179701781Y-95207940D01*
X179749400Y-95303178D01*
X179749400Y-95398416D01*
X179701781Y-95493654D01*
X179654162Y-95541273D01*
X179558924Y-95588892D01*
X179368448Y-95636511D01*
X179130353Y-95636511D01*
X178939877Y-95588892D01*
X178844639Y-95541273D01*
X178797020Y-95493654D01*
X178749400Y-95398416D01*
G04 #@! TO.C,R5*
D16*
X189558333Y-67255952D02*
X189425000Y-67065476D01*
X189329761Y-67255952D02*
X189329761Y-66855952D01*
X189482142Y-66855952D01*
X189520238Y-66875000D01*
X189539285Y-66894047D01*
X189558333Y-66932142D01*
X189558333Y-66989285D01*
X189539285Y-67027380D01*
X189520238Y-67046428D01*
X189482142Y-67065476D01*
X189329761Y-67065476D01*
X189920238Y-66855952D02*
X189729761Y-66855952D01*
X189710714Y-67046428D01*
X189729761Y-67027380D01*
X189767857Y-67008333D01*
X189863095Y-67008333D01*
X189901190Y-67027380D01*
X189920238Y-67046428D01*
X189939285Y-67084523D01*
X189939285Y-67179761D01*
X189920238Y-67217857D01*
X189901190Y-67236904D01*
X189863095Y-67255952D01*
X189767857Y-67255952D01*
X189729761Y-67236904D01*
X189710714Y-67217857D01*
G04 #@! TO.C,R6*
X188708212Y-69889346D02*
X188517736Y-70022680D01*
X188708212Y-70117918D02*
X188308212Y-70117918D01*
X188308212Y-69965537D01*
X188327260Y-69927441D01*
X188346307Y-69908394D01*
X188384402Y-69889346D01*
X188441545Y-69889346D01*
X188479640Y-69908394D01*
X188498688Y-69927441D01*
X188517736Y-69965537D01*
X188517736Y-70117918D01*
X188308212Y-69546489D02*
X188308212Y-69622680D01*
X188327260Y-69660775D01*
X188346307Y-69679822D01*
X188403450Y-69717918D01*
X188479640Y-69736965D01*
X188632021Y-69736965D01*
X188670117Y-69717918D01*
X188689164Y-69698870D01*
X188708212Y-69660775D01*
X188708212Y-69584584D01*
X188689164Y-69546489D01*
X188670117Y-69527441D01*
X188632021Y-69508394D01*
X188536783Y-69508394D01*
X188498688Y-69527441D01*
X188479640Y-69546489D01*
X188460593Y-69584584D01*
X188460593Y-69660775D01*
X188479640Y-69698870D01*
X188498688Y-69717918D01*
X188536783Y-69736965D01*
G04 #@! TO.C,R7*
X189136173Y-108469132D02*
X189002840Y-108278656D01*
X188907601Y-108469132D02*
X188907601Y-108069132D01*
X189059982Y-108069132D01*
X189098078Y-108088180D01*
X189117125Y-108107227D01*
X189136173Y-108145322D01*
X189136173Y-108202465D01*
X189117125Y-108240560D01*
X189098078Y-108259608D01*
X189059982Y-108278656D01*
X188907601Y-108278656D01*
X189269506Y-108069132D02*
X189536173Y-108069132D01*
X189364744Y-108469132D01*
G04 #@! TO.C,R8*
X188299392Y-111407926D02*
X188108916Y-111541260D01*
X188299392Y-111636498D02*
X187899392Y-111636498D01*
X187899392Y-111484117D01*
X187918440Y-111446021D01*
X187937487Y-111426974D01*
X187975582Y-111407926D01*
X188032725Y-111407926D01*
X188070820Y-111426974D01*
X188089868Y-111446021D01*
X188108916Y-111484117D01*
X188108916Y-111636498D01*
X188070820Y-111179355D02*
X188051773Y-111217450D01*
X188032725Y-111236498D01*
X187994630Y-111255545D01*
X187975582Y-111255545D01*
X187937487Y-111236498D01*
X187918440Y-111217450D01*
X187899392Y-111179355D01*
X187899392Y-111103164D01*
X187918440Y-111065069D01*
X187937487Y-111046021D01*
X187975582Y-111026974D01*
X187994630Y-111026974D01*
X188032725Y-111046021D01*
X188051773Y-111065069D01*
X188070820Y-111103164D01*
X188070820Y-111179355D01*
X188089868Y-111217450D01*
X188108916Y-111236498D01*
X188147011Y-111255545D01*
X188223201Y-111255545D01*
X188261297Y-111236498D01*
X188280344Y-111217450D01*
X188299392Y-111179355D01*
X188299392Y-111103164D01*
X188280344Y-111065069D01*
X188261297Y-111046021D01*
X188223201Y-111026974D01*
X188147011Y-111026974D01*
X188108916Y-111046021D01*
X188089868Y-111065069D01*
X188070820Y-111103164D01*
G04 #@! TO.C,J7*
D15*
X173996666Y-84327380D02*
X173996666Y-85041666D01*
X173949047Y-85184523D01*
X173853809Y-85279761D01*
X173710952Y-85327380D01*
X173615714Y-85327380D01*
X174377619Y-84327380D02*
X175044285Y-84327380D01*
X174615714Y-85327380D01*
G04 #@! TO.C,J8*
X178627380Y-74888333D02*
X179341666Y-74888333D01*
X179484523Y-74935952D01*
X179579761Y-75031190D01*
X179627380Y-75174047D01*
X179627380Y-75269285D01*
X179055952Y-74269285D02*
X179008333Y-74364523D01*
X178960714Y-74412142D01*
X178865476Y-74459761D01*
X178817857Y-74459761D01*
X178722619Y-74412142D01*
X178675000Y-74364523D01*
X178627380Y-74269285D01*
X178627380Y-74078809D01*
X178675000Y-73983571D01*
X178722619Y-73935952D01*
X178817857Y-73888333D01*
X178865476Y-73888333D01*
X178960714Y-73935952D01*
X179008333Y-73983571D01*
X179055952Y-74078809D01*
X179055952Y-74269285D01*
X179103571Y-74364523D01*
X179151190Y-74412142D01*
X179246428Y-74459761D01*
X179436904Y-74459761D01*
X179532142Y-74412142D01*
X179579761Y-74364523D01*
X179627380Y-74269285D01*
X179627380Y-74078809D01*
X179579761Y-73983571D01*
X179532142Y-73935952D01*
X179436904Y-73888333D01*
X179246428Y-73888333D01*
X179151190Y-73935952D01*
X179103571Y-73983571D01*
X179055952Y-74078809D01*
G04 #@! TO.C,R9*
D16*
X189169373Y-118542772D02*
X189036040Y-118352296D01*
X188940801Y-118542772D02*
X188940801Y-118142772D01*
X189093182Y-118142772D01*
X189131278Y-118161820D01*
X189150325Y-118180867D01*
X189169373Y-118218962D01*
X189169373Y-118276105D01*
X189150325Y-118314200D01*
X189131278Y-118333248D01*
X189093182Y-118352296D01*
X188940801Y-118352296D01*
X189359849Y-118542772D02*
X189436040Y-118542772D01*
X189474135Y-118523724D01*
X189493182Y-118504677D01*
X189531278Y-118447534D01*
X189550325Y-118371343D01*
X189550325Y-118218962D01*
X189531278Y-118180867D01*
X189512230Y-118161820D01*
X189474135Y-118142772D01*
X189397944Y-118142772D01*
X189359849Y-118161820D01*
X189340801Y-118180867D01*
X189321754Y-118218962D01*
X189321754Y-118314200D01*
X189340801Y-118352296D01*
X189359849Y-118371343D01*
X189397944Y-118390391D01*
X189474135Y-118390391D01*
X189512230Y-118371343D01*
X189531278Y-118352296D01*
X189550325Y-118314200D01*
G04 #@! TO.C,R10*
X189385357Y-76940552D02*
X189252023Y-76750076D01*
X189156785Y-76940552D02*
X189156785Y-76540552D01*
X189309166Y-76540552D01*
X189347261Y-76559600D01*
X189366309Y-76578647D01*
X189385357Y-76616742D01*
X189385357Y-76673885D01*
X189366309Y-76711980D01*
X189347261Y-76731028D01*
X189309166Y-76750076D01*
X189156785Y-76750076D01*
X189766309Y-76940552D02*
X189537738Y-76940552D01*
X189652023Y-76940552D02*
X189652023Y-76540552D01*
X189613928Y-76597695D01*
X189575833Y-76635790D01*
X189537738Y-76654838D01*
X190013928Y-76540552D02*
X190052023Y-76540552D01*
X190090119Y-76559600D01*
X190109166Y-76578647D01*
X190128214Y-76616742D01*
X190147261Y-76692933D01*
X190147261Y-76788171D01*
X190128214Y-76864361D01*
X190109166Y-76902457D01*
X190090119Y-76921504D01*
X190052023Y-76940552D01*
X190013928Y-76940552D01*
X189975833Y-76921504D01*
X189956785Y-76902457D01*
X189937738Y-76864361D01*
X189918690Y-76788171D01*
X189918690Y-76692933D01*
X189937738Y-76616742D01*
X189956785Y-76578647D01*
X189975833Y-76559600D01*
X190013928Y-76540552D01*
G04 #@! TO.C,J13*
D15*
X182175476Y-78927380D02*
X182175476Y-79641666D01*
X182127857Y-79784523D01*
X182032619Y-79879761D01*
X181889761Y-79927380D01*
X181794523Y-79927380D01*
X183175476Y-79927380D02*
X182604047Y-79927380D01*
X182889761Y-79927380D02*
X182889761Y-78927380D01*
X182794523Y-79070238D01*
X182699285Y-79165476D01*
X182604047Y-79213095D01*
X183508809Y-78927380D02*
X184127857Y-78927380D01*
X183794523Y-79308333D01*
X183937380Y-79308333D01*
X184032619Y-79355952D01*
X184080238Y-79403571D01*
X184127857Y-79498809D01*
X184127857Y-79736904D01*
X184080238Y-79832142D01*
X184032619Y-79879761D01*
X183937380Y-79927380D01*
X183651666Y-79927380D01*
X183556428Y-79879761D01*
X183508809Y-79832142D01*
G04 #@! TO.C,J14*
X183394776Y-90255200D02*
X183394776Y-90969486D01*
X183347157Y-91112343D01*
X183251919Y-91207581D01*
X183109061Y-91255200D01*
X183013823Y-91255200D01*
X184394776Y-91255200D02*
X183823347Y-91255200D01*
X184109061Y-91255200D02*
X184109061Y-90255200D01*
X184013823Y-90398058D01*
X183918585Y-90493296D01*
X183823347Y-90540915D01*
X185251919Y-90588534D02*
X185251919Y-91255200D01*
X185013823Y-90207581D02*
X184775728Y-90921867D01*
X185394776Y-90921867D01*
G04 #@! TO.C,J12*
X178503020Y-114632363D02*
X179217306Y-114632363D01*
X179360163Y-114679982D01*
X179455401Y-114775220D01*
X179503020Y-114918078D01*
X179503020Y-115013316D01*
X179503020Y-113632363D02*
X179503020Y-114203792D01*
X179503020Y-113918078D02*
X178503020Y-113918078D01*
X178645878Y-114013316D01*
X178741116Y-114108554D01*
X178788735Y-114203792D01*
X178598259Y-113251411D02*
X178550640Y-113203792D01*
X178503020Y-113108554D01*
X178503020Y-112870459D01*
X178550640Y-112775220D01*
X178598259Y-112727601D01*
X178693497Y-112679982D01*
X178788735Y-112679982D01*
X178931592Y-112727601D01*
X179503020Y-113299030D01*
X179503020Y-112679982D01*
G04 #@! TO.C,*
G04 #@! TO.C,IC1*
X104013413Y-134524060D02*
X103680080Y-134047870D01*
X103441984Y-134524060D02*
X103441984Y-133524060D01*
X103822937Y-133524060D01*
X103918175Y-133571680D01*
X103965794Y-133619299D01*
X104013413Y-133714537D01*
X104013413Y-133857394D01*
X103965794Y-133952632D01*
X103918175Y-134000251D01*
X103822937Y-134047870D01*
X103441984Y-134047870D01*
X104299127Y-133524060D02*
X104870556Y-133524060D01*
X104584841Y-134524060D02*
X104584841Y-133524060D01*
X105775318Y-134428822D02*
X105727699Y-134476441D01*
X105584841Y-134524060D01*
X105489603Y-134524060D01*
X105346746Y-134476441D01*
X105251508Y-134381203D01*
X105203889Y-134285965D01*
X105156270Y-134095489D01*
X105156270Y-133952632D01*
X105203889Y-133762156D01*
X105251508Y-133666918D01*
X105346746Y-133571680D01*
X105489603Y-133524060D01*
X105584841Y-133524060D01*
X105727699Y-133571680D01*
X105775318Y-133619299D01*
X105965794Y-134619299D02*
X106727699Y-134619299D01*
X106965794Y-134524060D02*
X106965794Y-133524060D01*
X107346746Y-133524060D01*
X107441984Y-133571680D01*
X107489603Y-133619299D01*
X107537222Y-133714537D01*
X107537222Y-133857394D01*
X107489603Y-133952632D01*
X107441984Y-134000251D01*
X107346746Y-134047870D01*
X106965794Y-134047870D01*
X108537222Y-134428822D02*
X108489603Y-134476441D01*
X108346746Y-134524060D01*
X108251508Y-134524060D01*
X108108651Y-134476441D01*
X108013413Y-134381203D01*
X107965794Y-134285965D01*
X107918175Y-134095489D01*
X107918175Y-133952632D01*
X107965794Y-133762156D01*
X108013413Y-133666918D01*
X108108651Y-133571680D01*
X108251508Y-133524060D01*
X108346746Y-133524060D01*
X108489603Y-133571680D01*
X108537222Y-133619299D01*
X109299127Y-134000251D02*
X108965794Y-134000251D01*
X108965794Y-134524060D02*
X108965794Y-133524060D01*
X109441984Y-133524060D01*
X109965794Y-133952632D02*
X109870556Y-133905013D01*
X109822937Y-133857394D01*
X109775318Y-133762156D01*
X109775318Y-133714537D01*
X109822937Y-133619299D01*
X109870556Y-133571680D01*
X109965794Y-133524060D01*
X110156270Y-133524060D01*
X110251508Y-133571680D01*
X110299127Y-133619299D01*
X110346746Y-133714537D01*
X110346746Y-133762156D01*
X110299127Y-133857394D01*
X110251508Y-133905013D01*
X110156270Y-133952632D01*
X109965794Y-133952632D01*
X109870556Y-134000251D01*
X109822937Y-134047870D01*
X109775318Y-134143108D01*
X109775318Y-134333584D01*
X109822937Y-134428822D01*
X109870556Y-134476441D01*
X109965794Y-134524060D01*
X110156270Y-134524060D01*
X110251508Y-134476441D01*
X110299127Y-134428822D01*
X110346746Y-134333584D01*
X110346746Y-134143108D01*
X110299127Y-134047870D01*
X110251508Y-134000251D01*
X110156270Y-133952632D01*
X111251508Y-133524060D02*
X110775318Y-133524060D01*
X110727699Y-134000251D01*
X110775318Y-133952632D01*
X110870556Y-133905013D01*
X111108651Y-133905013D01*
X111203889Y-133952632D01*
X111251508Y-134000251D01*
X111299127Y-134095489D01*
X111299127Y-134333584D01*
X111251508Y-134428822D01*
X111203889Y-134476441D01*
X111108651Y-134524060D01*
X110870556Y-134524060D01*
X110775318Y-134476441D01*
X110727699Y-134428822D01*
X111680080Y-133619299D02*
X111727699Y-133571680D01*
X111822937Y-133524060D01*
X112061032Y-133524060D01*
X112156270Y-133571680D01*
X112203889Y-133619299D01*
X112251508Y-133714537D01*
X112251508Y-133809775D01*
X112203889Y-133952632D01*
X111632460Y-134524060D01*
X112251508Y-134524060D01*
X112584841Y-133524060D02*
X113203889Y-133524060D01*
X112870556Y-133905013D01*
X113013413Y-133905013D01*
X113108651Y-133952632D01*
X113156270Y-134000251D01*
X113203889Y-134095489D01*
X113203889Y-134333584D01*
X113156270Y-134428822D01*
X113108651Y-134476441D01*
X113013413Y-134524060D01*
X112727699Y-134524060D01*
X112632460Y-134476441D01*
X112584841Y-134428822D01*
X113489603Y-133524060D02*
X114061032Y-133524060D01*
X113775318Y-134524060D02*
X113775318Y-133524060D01*
G04 #@! TO.C,JP2*
X115752460Y-133882893D02*
X116466746Y-133882893D01*
X116609603Y-133930512D01*
X116704841Y-134025750D01*
X116752460Y-134168607D01*
X116752460Y-134263845D01*
X116752460Y-133406702D02*
X115752460Y-133406702D01*
X115752460Y-133025750D01*
X115800080Y-132930512D01*
X115847699Y-132882893D01*
X115942937Y-132835274D01*
X116085794Y-132835274D01*
X116181032Y-132882893D01*
X116228651Y-132930512D01*
X116276270Y-133025750D01*
X116276270Y-133406702D01*
X115847699Y-132454321D02*
X115800080Y-132406702D01*
X115752460Y-132311464D01*
X115752460Y-132073369D01*
X115800080Y-131978131D01*
X115847699Y-131930512D01*
X115942937Y-131882893D01*
X116038175Y-131882893D01*
X116181032Y-131930512D01*
X116752460Y-132501940D01*
X116752460Y-131882893D01*
G04 #@! TO.C,C1*
X102528651Y-132716940D02*
X101957222Y-132716940D01*
X102242937Y-132716940D02*
X102242937Y-131716940D01*
X102147699Y-131859798D01*
X102052460Y-131955036D01*
X101957222Y-132002655D01*
X103147699Y-131716940D02*
X103242937Y-131716940D01*
X103338175Y-131764560D01*
X103385794Y-131812179D01*
X103433413Y-131907417D01*
X103481032Y-132097893D01*
X103481032Y-132335988D01*
X103433413Y-132526464D01*
X103385794Y-132621702D01*
X103338175Y-132669321D01*
X103242937Y-132716940D01*
X103147699Y-132716940D01*
X103052460Y-132669321D01*
X103004841Y-132621702D01*
X102957222Y-132526464D01*
X102909603Y-132335988D01*
X102909603Y-132097893D01*
X102957222Y-131907417D01*
X103004841Y-131812179D01*
X103052460Y-131764560D01*
X103147699Y-131716940D01*
X104338175Y-132050274D02*
X104338175Y-132716940D01*
X103909603Y-132050274D02*
X103909603Y-132574083D01*
X103957222Y-132669321D01*
X104052460Y-132716940D01*
X104195318Y-132716940D01*
X104290556Y-132669321D01*
X104338175Y-132621702D01*
X105147699Y-132193131D02*
X104814365Y-132193131D01*
X104814365Y-132716940D02*
X104814365Y-131716940D01*
X105290556Y-131716940D01*
D17*
X103558413Y-134893845D02*
X103546508Y-134905750D01*
X103510794Y-134917655D01*
X103486984Y-134917655D01*
X103451270Y-134905750D01*
X103427460Y-134881940D01*
X103415556Y-134858131D01*
X103403651Y-134810512D01*
X103403651Y-134774798D01*
X103415556Y-134727179D01*
X103427460Y-134703369D01*
X103451270Y-134679560D01*
X103486984Y-134667655D01*
X103510794Y-134667655D01*
X103546508Y-134679560D01*
X103558413Y-134691464D01*
X103796508Y-134917655D02*
X103653651Y-134917655D01*
X103725080Y-134917655D02*
X103725080Y-134667655D01*
X103701270Y-134703369D01*
X103677460Y-134727179D01*
X103653651Y-134739083D01*
G04 #@! TO.C,C2*
D15*
X110302460Y-135875988D02*
X110302460Y-136447417D01*
X110302460Y-136161702D02*
X109302460Y-136161702D01*
X109445318Y-136256940D01*
X109540556Y-136352179D01*
X109588175Y-136447417D01*
X109302460Y-135256940D02*
X109302460Y-135161702D01*
X109350080Y-135066464D01*
X109397699Y-135018845D01*
X109492937Y-134971226D01*
X109683413Y-134923607D01*
X109921508Y-134923607D01*
X110111984Y-134971226D01*
X110207222Y-135018845D01*
X110254841Y-135066464D01*
X110302460Y-135161702D01*
X110302460Y-135256940D01*
X110254841Y-135352179D01*
X110207222Y-135399798D01*
X110111984Y-135447417D01*
X109921508Y-135495036D01*
X109683413Y-135495036D01*
X109492937Y-135447417D01*
X109397699Y-135399798D01*
X109350080Y-135352179D01*
X109302460Y-135256940D01*
X109635794Y-134066464D02*
X110302460Y-134066464D01*
X109635794Y-134495036D02*
X110159603Y-134495036D01*
X110254841Y-134447417D01*
X110302460Y-134352179D01*
X110302460Y-134209321D01*
X110254841Y-134114083D01*
X110207222Y-134066464D01*
X109778651Y-133256940D02*
X109778651Y-133590274D01*
X110302460Y-133590274D02*
X109302460Y-133590274D01*
X109302460Y-133114083D01*
D17*
X108769365Y-134846226D02*
X108781270Y-134858131D01*
X108793175Y-134893845D01*
X108793175Y-134917655D01*
X108781270Y-134953369D01*
X108757460Y-134977179D01*
X108733651Y-134989083D01*
X108686032Y-135000988D01*
X108650318Y-135000988D01*
X108602699Y-134989083D01*
X108578889Y-134977179D01*
X108555080Y-134953369D01*
X108543175Y-134917655D01*
X108543175Y-134893845D01*
X108555080Y-134858131D01*
X108566984Y-134846226D01*
X108566984Y-134750988D02*
X108555080Y-134739083D01*
X108543175Y-134715274D01*
X108543175Y-134655750D01*
X108555080Y-134631940D01*
X108566984Y-134620036D01*
X108590794Y-134608131D01*
X108614603Y-134608131D01*
X108650318Y-134620036D01*
X108793175Y-134762893D01*
X108793175Y-134608131D01*
G04 #@! TO.C,R3*
D15*
X114112460Y-135018845D02*
X114112460Y-135590274D01*
X114112460Y-135304560D02*
X113112460Y-135304560D01*
X113255318Y-135399798D01*
X113350556Y-135495036D01*
X113398175Y-135590274D01*
X114112460Y-134590274D02*
X113112460Y-134590274D01*
X114112460Y-134018845D02*
X113541032Y-134447417D01*
X113112460Y-134018845D02*
X113683889Y-134590274D01*
D17*
X112603175Y-134846226D02*
X112484127Y-134929560D01*
X112603175Y-134989083D02*
X112353175Y-134989083D01*
X112353175Y-134893845D01*
X112365080Y-134870036D01*
X112376984Y-134858131D01*
X112400794Y-134846226D01*
X112436508Y-134846226D01*
X112460318Y-134858131D01*
X112472222Y-134870036D01*
X112484127Y-134893845D01*
X112484127Y-134989083D01*
X112353175Y-134762893D02*
X112353175Y-134608131D01*
X112448413Y-134691464D01*
X112448413Y-134655750D01*
X112460318Y-134631940D01*
X112472222Y-134620036D01*
X112496032Y-134608131D01*
X112555556Y-134608131D01*
X112579365Y-134620036D01*
X112591270Y-134631940D01*
X112603175Y-134655750D01*
X112603175Y-134727179D01*
X112591270Y-134750988D01*
X112579365Y-134762893D01*
G04 #@! TO.C,B1*
D15*
X98307222Y-122444798D02*
X98354841Y-122492417D01*
X98402460Y-122635274D01*
X98402460Y-122730512D01*
X98354841Y-122873369D01*
X98259603Y-122968607D01*
X98164365Y-123016226D01*
X97973889Y-123063845D01*
X97831032Y-123063845D01*
X97640556Y-123016226D01*
X97545318Y-122968607D01*
X97450080Y-122873369D01*
X97402460Y-122730512D01*
X97402460Y-122635274D01*
X97450080Y-122492417D01*
X97497699Y-122444798D01*
X98402460Y-121444798D02*
X97926270Y-121778131D01*
X98402460Y-122016226D02*
X97402460Y-122016226D01*
X97402460Y-121635274D01*
X97450080Y-121540036D01*
X97497699Y-121492417D01*
X97592937Y-121444798D01*
X97735794Y-121444798D01*
X97831032Y-121492417D01*
X97878651Y-121540036D01*
X97926270Y-121635274D01*
X97926270Y-122016226D01*
X98402460Y-120492417D02*
X98402460Y-121063845D01*
X98402460Y-120778131D02*
X97402460Y-120778131D01*
X97545318Y-120873369D01*
X97640556Y-120968607D01*
X97688175Y-121063845D01*
X97497699Y-120111464D02*
X97450080Y-120063845D01*
X97402460Y-119968607D01*
X97402460Y-119730512D01*
X97450080Y-119635274D01*
X97497699Y-119587655D01*
X97592937Y-119540036D01*
X97688175Y-119540036D01*
X97831032Y-119587655D01*
X98402460Y-120159083D01*
X98402460Y-119540036D01*
X97497699Y-119159083D02*
X97450080Y-119111464D01*
X97402460Y-119016226D01*
X97402460Y-118778131D01*
X97450080Y-118682893D01*
X97497699Y-118635274D01*
X97592937Y-118587655D01*
X97688175Y-118587655D01*
X97831032Y-118635274D01*
X98402460Y-119206702D01*
X98402460Y-118587655D01*
X97402460Y-117968607D02*
X97402460Y-117873369D01*
X97450080Y-117778131D01*
X97497699Y-117730512D01*
X97592937Y-117682893D01*
X97783413Y-117635274D01*
X98021508Y-117635274D01*
X98211984Y-117682893D01*
X98307222Y-117730512D01*
X98354841Y-117778131D01*
X98402460Y-117873369D01*
X98402460Y-117968607D01*
X98354841Y-118063845D01*
X98307222Y-118111464D01*
X98211984Y-118159083D01*
X98021508Y-118206702D01*
X97783413Y-118206702D01*
X97592937Y-118159083D01*
X97497699Y-118111464D01*
X97450080Y-118063845D01*
X97402460Y-117968607D01*
G04 #@! TO.C,J2*
X158229680Y-122168493D02*
X158943966Y-122168493D01*
X159086823Y-122216112D01*
X159182061Y-122311350D01*
X159229680Y-122454207D01*
X159229680Y-122549445D01*
X158324919Y-121739921D02*
X158277300Y-121692302D01*
X158229680Y-121597064D01*
X158229680Y-121358969D01*
X158277300Y-121263731D01*
X158324919Y-121216112D01*
X158420157Y-121168493D01*
X158515395Y-121168493D01*
X158658252Y-121216112D01*
X159229680Y-121787540D01*
X159229680Y-121168493D01*
G04 #@! TO.C,C1*
X166881680Y-129045540D02*
X166310252Y-129045540D01*
X166595966Y-129045540D02*
X166595966Y-128045540D01*
X166500728Y-128188398D01*
X166405490Y-128283636D01*
X166310252Y-128331255D01*
X167500728Y-128045540D02*
X167595966Y-128045540D01*
X167691204Y-128093160D01*
X167738823Y-128140779D01*
X167786442Y-128236017D01*
X167834061Y-128426493D01*
X167834061Y-128664588D01*
X167786442Y-128855064D01*
X167738823Y-128950302D01*
X167691204Y-128997921D01*
X167595966Y-129045540D01*
X167500728Y-129045540D01*
X167405490Y-128997921D01*
X167357871Y-128950302D01*
X167310252Y-128855064D01*
X167262633Y-128664588D01*
X167262633Y-128426493D01*
X167310252Y-128236017D01*
X167357871Y-128140779D01*
X167405490Y-128093160D01*
X167500728Y-128045540D01*
X168453109Y-128045540D02*
X168548347Y-128045540D01*
X168643585Y-128093160D01*
X168691204Y-128140779D01*
X168738823Y-128236017D01*
X168786442Y-128426493D01*
X168786442Y-128664588D01*
X168738823Y-128855064D01*
X168691204Y-128950302D01*
X168643585Y-128997921D01*
X168548347Y-129045540D01*
X168453109Y-129045540D01*
X168357871Y-128997921D01*
X168310252Y-128950302D01*
X168262633Y-128855064D01*
X168215014Y-128664588D01*
X168215014Y-128426493D01*
X168262633Y-128236017D01*
X168310252Y-128140779D01*
X168357871Y-128093160D01*
X168453109Y-128045540D01*
X169215014Y-128378874D02*
X169215014Y-129045540D01*
X169215014Y-128474112D02*
X169262633Y-128426493D01*
X169357871Y-128378874D01*
X169500728Y-128378874D01*
X169595966Y-128426493D01*
X169643585Y-128521731D01*
X169643585Y-129045540D01*
X170453109Y-128521731D02*
X170119776Y-128521731D01*
X170119776Y-129045540D02*
X170119776Y-128045540D01*
X170595966Y-128045540D01*
D17*
X168387633Y-127512445D02*
X168375728Y-127524350D01*
X168340014Y-127536255D01*
X168316204Y-127536255D01*
X168280490Y-127524350D01*
X168256680Y-127500540D01*
X168244776Y-127476731D01*
X168232871Y-127429112D01*
X168232871Y-127393398D01*
X168244776Y-127345779D01*
X168256680Y-127321969D01*
X168280490Y-127298160D01*
X168316204Y-127286255D01*
X168340014Y-127286255D01*
X168375728Y-127298160D01*
X168387633Y-127310064D01*
X168625728Y-127536255D02*
X168482871Y-127536255D01*
X168554300Y-127536255D02*
X168554300Y-127286255D01*
X168530490Y-127321969D01*
X168506680Y-127345779D01*
X168482871Y-127357683D01*
G04 #@! TO.C,C2*
X168387633Y-130560445D02*
X168375728Y-130572350D01*
X168340014Y-130584255D01*
X168316204Y-130584255D01*
X168280490Y-130572350D01*
X168256680Y-130548540D01*
X168244776Y-130524731D01*
X168232871Y-130477112D01*
X168232871Y-130441398D01*
X168244776Y-130393779D01*
X168256680Y-130369969D01*
X168280490Y-130346160D01*
X168316204Y-130334255D01*
X168340014Y-130334255D01*
X168375728Y-130346160D01*
X168387633Y-130358064D01*
X168482871Y-130358064D02*
X168494776Y-130346160D01*
X168518585Y-130334255D01*
X168578109Y-130334255D01*
X168601919Y-130346160D01*
X168613823Y-130358064D01*
X168625728Y-130381874D01*
X168625728Y-130405683D01*
X168613823Y-130441398D01*
X168470966Y-130584255D01*
X168625728Y-130584255D01*
G04 #@! TO.C,C3*
D15*
X142180252Y-137697540D02*
X142275490Y-137697540D01*
X142370728Y-137745160D01*
X142418347Y-137792779D01*
X142465966Y-137888017D01*
X142513585Y-138078493D01*
X142513585Y-138316588D01*
X142465966Y-138507064D01*
X142418347Y-138602302D01*
X142370728Y-138649921D01*
X142275490Y-138697540D01*
X142180252Y-138697540D01*
X142085014Y-138649921D01*
X142037395Y-138602302D01*
X141989776Y-138507064D01*
X141942157Y-138316588D01*
X141942157Y-138078493D01*
X141989776Y-137888017D01*
X142037395Y-137792779D01*
X142085014Y-137745160D01*
X142180252Y-137697540D01*
X142942157Y-138602302D02*
X142989776Y-138649921D01*
X142942157Y-138697540D01*
X142894538Y-138649921D01*
X142942157Y-138602302D01*
X142942157Y-138697540D01*
X143370728Y-137792779D02*
X143418347Y-137745160D01*
X143513585Y-137697540D01*
X143751680Y-137697540D01*
X143846919Y-137745160D01*
X143894538Y-137792779D01*
X143942157Y-137888017D01*
X143942157Y-137983255D01*
X143894538Y-138126112D01*
X143323109Y-138697540D01*
X143942157Y-138697540D01*
X144323109Y-137792779D02*
X144370728Y-137745160D01*
X144465966Y-137697540D01*
X144704061Y-137697540D01*
X144799300Y-137745160D01*
X144846919Y-137792779D01*
X144894538Y-137888017D01*
X144894538Y-137983255D01*
X144846919Y-138126112D01*
X144275490Y-138697540D01*
X144894538Y-138697540D01*
X145751680Y-138030874D02*
X145751680Y-138697540D01*
X145323109Y-138030874D02*
X145323109Y-138554683D01*
X145370728Y-138649921D01*
X145465966Y-138697540D01*
X145608823Y-138697540D01*
X145704061Y-138649921D01*
X145751680Y-138602302D01*
X146561204Y-138173731D02*
X146227871Y-138173731D01*
X146227871Y-138697540D02*
X146227871Y-137697540D01*
X146704061Y-137697540D01*
D17*
X144257633Y-137164445D02*
X144245728Y-137176350D01*
X144210014Y-137188255D01*
X144186204Y-137188255D01*
X144150490Y-137176350D01*
X144126680Y-137152540D01*
X144114776Y-137128731D01*
X144102871Y-137081112D01*
X144102871Y-137045398D01*
X144114776Y-136997779D01*
X144126680Y-136973969D01*
X144150490Y-136950160D01*
X144186204Y-136938255D01*
X144210014Y-136938255D01*
X144245728Y-136950160D01*
X144257633Y-136962064D01*
X144340966Y-136938255D02*
X144495728Y-136938255D01*
X144412395Y-137033493D01*
X144448109Y-137033493D01*
X144471919Y-137045398D01*
X144483823Y-137057302D01*
X144495728Y-137081112D01*
X144495728Y-137140636D01*
X144483823Y-137164445D01*
X144471919Y-137176350D01*
X144448109Y-137188255D01*
X144376680Y-137188255D01*
X144352871Y-137176350D01*
X144340966Y-137164445D01*
G04 #@! TO.C,D1*
D15*
X142045395Y-126759540D02*
X142045395Y-125759540D01*
X142283490Y-125759540D01*
X142426347Y-125807160D01*
X142521585Y-125902398D01*
X142569204Y-125997636D01*
X142616823Y-126188112D01*
X142616823Y-126330969D01*
X142569204Y-126521445D01*
X142521585Y-126616683D01*
X142426347Y-126711921D01*
X142283490Y-126759540D01*
X142045395Y-126759540D01*
X142807300Y-126854779D02*
X143569204Y-126854779D01*
X143759680Y-126711921D02*
X143902538Y-126759540D01*
X144140633Y-126759540D01*
X144235871Y-126711921D01*
X144283490Y-126664302D01*
X144331109Y-126569064D01*
X144331109Y-126473826D01*
X144283490Y-126378588D01*
X144235871Y-126330969D01*
X144140633Y-126283350D01*
X143950157Y-126235731D01*
X143854919Y-126188112D01*
X143807300Y-126140493D01*
X143759680Y-126045255D01*
X143759680Y-125950017D01*
X143807300Y-125854779D01*
X143854919Y-125807160D01*
X143950157Y-125759540D01*
X144188252Y-125759540D01*
X144331109Y-125807160D01*
X144759680Y-126759540D02*
X144759680Y-126092874D01*
X144759680Y-126188112D02*
X144807300Y-126140493D01*
X144902538Y-126092874D01*
X145045395Y-126092874D01*
X145140633Y-126140493D01*
X145188252Y-126235731D01*
X145188252Y-126759540D01*
X145188252Y-126235731D02*
X145235871Y-126140493D01*
X145331109Y-126092874D01*
X145473966Y-126092874D01*
X145569204Y-126140493D01*
X145616823Y-126235731D01*
X145616823Y-126759540D01*
X146521585Y-126759540D02*
X146521585Y-126235731D01*
X146473966Y-126140493D01*
X146378728Y-126092874D01*
X146188252Y-126092874D01*
X146093014Y-126140493D01*
X146521585Y-126711921D02*
X146426347Y-126759540D01*
X146188252Y-126759540D01*
X146093014Y-126711921D01*
X146045395Y-126616683D01*
X146045395Y-126521445D01*
X146093014Y-126426207D01*
X146188252Y-126378588D01*
X146426347Y-126378588D01*
X146521585Y-126330969D01*
X147140633Y-126759540D02*
X147045395Y-126711921D01*
X146997776Y-126616683D01*
X146997776Y-125759540D01*
X147664442Y-126759540D02*
X147569204Y-126711921D01*
X147521585Y-126616683D01*
X147521585Y-125759540D01*
D17*
X144622776Y-125250255D02*
X144622776Y-125000255D01*
X144682300Y-125000255D01*
X144718014Y-125012160D01*
X144741823Y-125035969D01*
X144753728Y-125059779D01*
X144765633Y-125107398D01*
X144765633Y-125143112D01*
X144753728Y-125190731D01*
X144741823Y-125214540D01*
X144718014Y-125238350D01*
X144682300Y-125250255D01*
X144622776Y-125250255D01*
X145003728Y-125250255D02*
X144860871Y-125250255D01*
X144932300Y-125250255D02*
X144932300Y-125000255D01*
X144908490Y-125035969D01*
X144884680Y-125059779D01*
X144860871Y-125071683D01*
G04 #@! TO.C,D2*
D15*
X142045395Y-122441540D02*
X142045395Y-121441540D01*
X142283490Y-121441540D01*
X142426347Y-121489160D01*
X142521585Y-121584398D01*
X142569204Y-121679636D01*
X142616823Y-121870112D01*
X142616823Y-122012969D01*
X142569204Y-122203445D01*
X142521585Y-122298683D01*
X142426347Y-122393921D01*
X142283490Y-122441540D01*
X142045395Y-122441540D01*
X142807300Y-122536779D02*
X143569204Y-122536779D01*
X143759680Y-122393921D02*
X143902538Y-122441540D01*
X144140633Y-122441540D01*
X144235871Y-122393921D01*
X144283490Y-122346302D01*
X144331109Y-122251064D01*
X144331109Y-122155826D01*
X144283490Y-122060588D01*
X144235871Y-122012969D01*
X144140633Y-121965350D01*
X143950157Y-121917731D01*
X143854919Y-121870112D01*
X143807300Y-121822493D01*
X143759680Y-121727255D01*
X143759680Y-121632017D01*
X143807300Y-121536779D01*
X143854919Y-121489160D01*
X143950157Y-121441540D01*
X144188252Y-121441540D01*
X144331109Y-121489160D01*
X144759680Y-122441540D02*
X144759680Y-121774874D01*
X144759680Y-121870112D02*
X144807300Y-121822493D01*
X144902538Y-121774874D01*
X145045395Y-121774874D01*
X145140633Y-121822493D01*
X145188252Y-121917731D01*
X145188252Y-122441540D01*
X145188252Y-121917731D02*
X145235871Y-121822493D01*
X145331109Y-121774874D01*
X145473966Y-121774874D01*
X145569204Y-121822493D01*
X145616823Y-121917731D01*
X145616823Y-122441540D01*
X146521585Y-122441540D02*
X146521585Y-121917731D01*
X146473966Y-121822493D01*
X146378728Y-121774874D01*
X146188252Y-121774874D01*
X146093014Y-121822493D01*
X146521585Y-122393921D02*
X146426347Y-122441540D01*
X146188252Y-122441540D01*
X146093014Y-122393921D01*
X146045395Y-122298683D01*
X146045395Y-122203445D01*
X146093014Y-122108207D01*
X146188252Y-122060588D01*
X146426347Y-122060588D01*
X146521585Y-122012969D01*
X147140633Y-122441540D02*
X147045395Y-122393921D01*
X146997776Y-122298683D01*
X146997776Y-121441540D01*
X147664442Y-122441540D02*
X147569204Y-122393921D01*
X147521585Y-122298683D01*
X147521585Y-121441540D01*
D17*
X144622776Y-120932255D02*
X144622776Y-120682255D01*
X144682300Y-120682255D01*
X144718014Y-120694160D01*
X144741823Y-120717969D01*
X144753728Y-120741779D01*
X144765633Y-120789398D01*
X144765633Y-120825112D01*
X144753728Y-120872731D01*
X144741823Y-120896540D01*
X144718014Y-120920350D01*
X144682300Y-120932255D01*
X144622776Y-120932255D01*
X144860871Y-120706064D02*
X144872776Y-120694160D01*
X144896585Y-120682255D01*
X144956109Y-120682255D01*
X144979919Y-120694160D01*
X144991823Y-120706064D01*
X145003728Y-120729874D01*
X145003728Y-120753683D01*
X144991823Y-120789398D01*
X144848966Y-120932255D01*
X145003728Y-120932255D01*
G04 #@! TO.C,J1*
D15*
X128027380Y-114983333D02*
X128741666Y-114983333D01*
X128884523Y-115030952D01*
X128979761Y-115126190D01*
X129027380Y-115269047D01*
X129027380Y-115364285D01*
X129027380Y-113983333D02*
X129027380Y-114554761D01*
X129027380Y-114269047D02*
X128027380Y-114269047D01*
X128170238Y-114364285D01*
X128265476Y-114459523D01*
X128313095Y-114554761D01*
G04 #@! TO.C,R1*
X144212061Y-118377540D02*
X143640633Y-118377540D01*
X143926347Y-118377540D02*
X143926347Y-117377540D01*
X143831109Y-117520398D01*
X143735871Y-117615636D01*
X143640633Y-117663255D01*
X144831109Y-117377540D02*
X144926347Y-117377540D01*
X145021585Y-117425160D01*
X145069204Y-117472779D01*
X145116823Y-117568017D01*
X145164442Y-117758493D01*
X145164442Y-117996588D01*
X145116823Y-118187064D01*
X145069204Y-118282302D01*
X145021585Y-118329921D01*
X144926347Y-118377540D01*
X144831109Y-118377540D01*
X144735871Y-118329921D01*
X144688252Y-118282302D01*
X144640633Y-118187064D01*
X144593014Y-117996588D01*
X144593014Y-117758493D01*
X144640633Y-117568017D01*
X144688252Y-117472779D01*
X144735871Y-117425160D01*
X144831109Y-117377540D01*
X145593014Y-118377540D02*
X145593014Y-117377540D01*
X145688252Y-117996588D02*
X145973966Y-118377540D01*
X145973966Y-117710874D02*
X145593014Y-118091826D01*
D17*
X144765633Y-116868255D02*
X144682300Y-116749207D01*
X144622776Y-116868255D02*
X144622776Y-116618255D01*
X144718014Y-116618255D01*
X144741823Y-116630160D01*
X144753728Y-116642064D01*
X144765633Y-116665874D01*
X144765633Y-116701588D01*
X144753728Y-116725398D01*
X144741823Y-116737302D01*
X144718014Y-116749207D01*
X144622776Y-116749207D01*
X145003728Y-116868255D02*
X144860871Y-116868255D01*
X144932300Y-116868255D02*
X144932300Y-116618255D01*
X144908490Y-116653969D01*
X144884680Y-116677779D01*
X144860871Y-116689683D01*
G04 #@! TO.C,R2*
D15*
X167834061Y-138035540D02*
X167262633Y-138035540D01*
X167548347Y-138035540D02*
X167548347Y-137035540D01*
X167453109Y-137178398D01*
X167357871Y-137273636D01*
X167262633Y-137321255D01*
X168453109Y-137035540D02*
X168548347Y-137035540D01*
X168643585Y-137083160D01*
X168691204Y-137130779D01*
X168738823Y-137226017D01*
X168786442Y-137416493D01*
X168786442Y-137654588D01*
X168738823Y-137845064D01*
X168691204Y-137940302D01*
X168643585Y-137987921D01*
X168548347Y-138035540D01*
X168453109Y-138035540D01*
X168357871Y-137987921D01*
X168310252Y-137940302D01*
X168262633Y-137845064D01*
X168215014Y-137654588D01*
X168215014Y-137416493D01*
X168262633Y-137226017D01*
X168310252Y-137130779D01*
X168357871Y-137083160D01*
X168453109Y-137035540D01*
X169215014Y-138035540D02*
X169215014Y-137035540D01*
X169310252Y-137654588D02*
X169595966Y-138035540D01*
X169595966Y-137368874D02*
X169215014Y-137749826D01*
D17*
X168387633Y-136426255D02*
X168304300Y-136307207D01*
X168244776Y-136426255D02*
X168244776Y-136176255D01*
X168340014Y-136176255D01*
X168363823Y-136188160D01*
X168375728Y-136200064D01*
X168387633Y-136223874D01*
X168387633Y-136259588D01*
X168375728Y-136283398D01*
X168363823Y-136295302D01*
X168340014Y-136307207D01*
X168244776Y-136307207D01*
X168482871Y-136200064D02*
X168494776Y-136188160D01*
X168518585Y-136176255D01*
X168578109Y-136176255D01*
X168601919Y-136188160D01*
X168613823Y-136200064D01*
X168625728Y-136223874D01*
X168625728Y-136247683D01*
X168613823Y-136283398D01*
X168470966Y-136426255D01*
X168625728Y-136426255D01*
G04 #@! TO.C,R3*
D15*
X144212061Y-131077540D02*
X143640633Y-131077540D01*
X143926347Y-131077540D02*
X143926347Y-130077540D01*
X143831109Y-130220398D01*
X143735871Y-130315636D01*
X143640633Y-130363255D01*
X144831109Y-130077540D02*
X144926347Y-130077540D01*
X145021585Y-130125160D01*
X145069204Y-130172779D01*
X145116823Y-130268017D01*
X145164442Y-130458493D01*
X145164442Y-130696588D01*
X145116823Y-130887064D01*
X145069204Y-130982302D01*
X145021585Y-131029921D01*
X144926347Y-131077540D01*
X144831109Y-131077540D01*
X144735871Y-131029921D01*
X144688252Y-130982302D01*
X144640633Y-130887064D01*
X144593014Y-130696588D01*
X144593014Y-130458493D01*
X144640633Y-130268017D01*
X144688252Y-130172779D01*
X144735871Y-130125160D01*
X144831109Y-130077540D01*
X145593014Y-131077540D02*
X145593014Y-130077540D01*
X145688252Y-130696588D02*
X145973966Y-131077540D01*
X145973966Y-130410874D02*
X145593014Y-130791826D01*
D17*
X144765633Y-129568255D02*
X144682300Y-129449207D01*
X144622776Y-129568255D02*
X144622776Y-129318255D01*
X144718014Y-129318255D01*
X144741823Y-129330160D01*
X144753728Y-129342064D01*
X144765633Y-129365874D01*
X144765633Y-129401588D01*
X144753728Y-129425398D01*
X144741823Y-129437302D01*
X144718014Y-129449207D01*
X144622776Y-129449207D01*
X144848966Y-129318255D02*
X145003728Y-129318255D01*
X144920395Y-129413493D01*
X144956109Y-129413493D01*
X144979919Y-129425398D01*
X144991823Y-129437302D01*
X145003728Y-129461112D01*
X145003728Y-129520636D01*
X144991823Y-129544445D01*
X144979919Y-129556350D01*
X144956109Y-129568255D01*
X144884680Y-129568255D01*
X144860871Y-129556350D01*
X144848966Y-129544445D01*
G04 #@! TO.C,R4*
D15*
X167834061Y-135141540D02*
X167262633Y-135141540D01*
X167548347Y-135141540D02*
X167548347Y-134141540D01*
X167453109Y-134284398D01*
X167357871Y-134379636D01*
X167262633Y-134427255D01*
X168453109Y-134141540D02*
X168548347Y-134141540D01*
X168643585Y-134189160D01*
X168691204Y-134236779D01*
X168738823Y-134332017D01*
X168786442Y-134522493D01*
X168786442Y-134760588D01*
X168738823Y-134951064D01*
X168691204Y-135046302D01*
X168643585Y-135093921D01*
X168548347Y-135141540D01*
X168453109Y-135141540D01*
X168357871Y-135093921D01*
X168310252Y-135046302D01*
X168262633Y-134951064D01*
X168215014Y-134760588D01*
X168215014Y-134522493D01*
X168262633Y-134332017D01*
X168310252Y-134236779D01*
X168357871Y-134189160D01*
X168453109Y-134141540D01*
X169215014Y-135141540D02*
X169215014Y-134141540D01*
X169310252Y-134760588D02*
X169595966Y-135141540D01*
X169595966Y-134474874D02*
X169215014Y-134855826D01*
D17*
X168387633Y-133632255D02*
X168304300Y-133513207D01*
X168244776Y-133632255D02*
X168244776Y-133382255D01*
X168340014Y-133382255D01*
X168363823Y-133394160D01*
X168375728Y-133406064D01*
X168387633Y-133429874D01*
X168387633Y-133465588D01*
X168375728Y-133489398D01*
X168363823Y-133501302D01*
X168340014Y-133513207D01*
X168244776Y-133513207D01*
X168601919Y-133465588D02*
X168601919Y-133632255D01*
X168542395Y-133370350D02*
X168482871Y-133548921D01*
X168637633Y-133548921D01*
G04 #@! TO.C,C1*
D18*
X167992857Y-44266666D02*
X168011904Y-44285714D01*
X168030952Y-44342857D01*
X168030952Y-44380952D01*
X168011904Y-44438095D01*
X167973809Y-44476190D01*
X167935714Y-44495238D01*
X167859523Y-44514285D01*
X167802380Y-44514285D01*
X167726190Y-44495238D01*
X167688095Y-44476190D01*
X167650000Y-44438095D01*
X167630952Y-44380952D01*
X167630952Y-44342857D01*
X167650000Y-44285714D01*
X167669047Y-44266666D01*
X168030952Y-43885714D02*
X168030952Y-44114285D01*
X168030952Y-44000000D02*
X167630952Y-44000000D01*
X167688095Y-44038095D01*
X167726190Y-44076190D01*
X167745238Y-44114285D01*
G04 #@! TO.C,C2*
X165817857Y-42741666D02*
X165836904Y-42760714D01*
X165855952Y-42817857D01*
X165855952Y-42855952D01*
X165836904Y-42913095D01*
X165798809Y-42951190D01*
X165760714Y-42970238D01*
X165684523Y-42989285D01*
X165627380Y-42989285D01*
X165551190Y-42970238D01*
X165513095Y-42951190D01*
X165475000Y-42913095D01*
X165455952Y-42855952D01*
X165455952Y-42817857D01*
X165475000Y-42760714D01*
X165494047Y-42741666D01*
X165494047Y-42589285D02*
X165475000Y-42570238D01*
X165455952Y-42532142D01*
X165455952Y-42436904D01*
X165475000Y-42398809D01*
X165494047Y-42379761D01*
X165532142Y-42360714D01*
X165570238Y-42360714D01*
X165627380Y-42379761D01*
X165855952Y-42608333D01*
X165855952Y-42360714D01*
G04 #@! TO.C,C3*
X172108333Y-38417857D02*
X172089285Y-38436904D01*
X172032142Y-38455952D01*
X171994047Y-38455952D01*
X171936904Y-38436904D01*
X171898809Y-38398809D01*
X171879761Y-38360714D01*
X171860714Y-38284523D01*
X171860714Y-38227380D01*
X171879761Y-38151190D01*
X171898809Y-38113095D01*
X171936904Y-38075000D01*
X171994047Y-38055952D01*
X172032142Y-38055952D01*
X172089285Y-38075000D01*
X172108333Y-38094047D01*
X172241666Y-38055952D02*
X172489285Y-38055952D01*
X172355952Y-38208333D01*
X172413095Y-38208333D01*
X172451190Y-38227380D01*
X172470238Y-38246428D01*
X172489285Y-38284523D01*
X172489285Y-38379761D01*
X172470238Y-38417857D01*
X172451190Y-38436904D01*
X172413095Y-38455952D01*
X172298809Y-38455952D01*
X172260714Y-38436904D01*
X172241666Y-38417857D01*
G04 #@! TO.C,C4*
X172108333Y-40142857D02*
X172089285Y-40161904D01*
X172032142Y-40180952D01*
X171994047Y-40180952D01*
X171936904Y-40161904D01*
X171898809Y-40123809D01*
X171879761Y-40085714D01*
X171860714Y-40009523D01*
X171860714Y-39952380D01*
X171879761Y-39876190D01*
X171898809Y-39838095D01*
X171936904Y-39800000D01*
X171994047Y-39780952D01*
X172032142Y-39780952D01*
X172089285Y-39800000D01*
X172108333Y-39819047D01*
X172451190Y-39914285D02*
X172451190Y-40180952D01*
X172355952Y-39761904D02*
X172260714Y-40047619D01*
X172508333Y-40047619D01*
G04 #@! TO.C,J1*
D15*
X155893380Y-39391333D02*
X156607666Y-39391333D01*
X156750523Y-39438952D01*
X156845761Y-39534190D01*
X156893380Y-39677047D01*
X156893380Y-39772285D01*
X156893380Y-38391333D02*
X156893380Y-38962761D01*
X156893380Y-38677047D02*
X155893380Y-38677047D01*
X156036238Y-38772285D01*
X156131476Y-38867523D01*
X156179095Y-38962761D01*
G04 #@! TO.C,J2*
X182563380Y-39137333D02*
X183277666Y-39137333D01*
X183420523Y-39184952D01*
X183515761Y-39280190D01*
X183563380Y-39423047D01*
X183563380Y-39518285D01*
X182658619Y-38708761D02*
X182611000Y-38661142D01*
X182563380Y-38565904D01*
X182563380Y-38327809D01*
X182611000Y-38232571D01*
X182658619Y-38184952D01*
X182753857Y-38137333D01*
X182849095Y-38137333D01*
X182991952Y-38184952D01*
X183563380Y-38756380D01*
X183563380Y-38137333D01*
G04 #@! TO.C,REF\002A\002A*
X65331666Y-49502380D02*
X64998333Y-49026190D01*
X64760238Y-49502380D02*
X64760238Y-48502380D01*
X65141190Y-48502380D01*
X65236428Y-48550000D01*
X65284047Y-48597619D01*
X65331666Y-48692857D01*
X65331666Y-48835714D01*
X65284047Y-48930952D01*
X65236428Y-48978571D01*
X65141190Y-49026190D01*
X64760238Y-49026190D01*
X65760238Y-48978571D02*
X66093571Y-48978571D01*
X66236428Y-49502380D02*
X65760238Y-49502380D01*
X65760238Y-48502380D01*
X66236428Y-48502380D01*
X66998333Y-48978571D02*
X66665000Y-48978571D01*
X66665000Y-49502380D02*
X66665000Y-48502380D01*
X67141190Y-48502380D01*
X67665000Y-48502380D02*
X67665000Y-48740476D01*
X67426904Y-48645238D02*
X67665000Y-48740476D01*
X67903095Y-48645238D01*
X67522142Y-48930952D02*
X67665000Y-48740476D01*
X67807857Y-48930952D01*
X68426904Y-48502380D02*
X68426904Y-48740476D01*
X68188809Y-48645238D02*
X68426904Y-48740476D01*
X68665000Y-48645238D01*
X68284047Y-48930952D02*
X68426904Y-48740476D01*
X68569761Y-48930952D01*
X86976666Y-49802380D02*
X86643333Y-49326190D01*
X86405238Y-49802380D02*
X86405238Y-48802380D01*
X86786190Y-48802380D01*
X86881428Y-48850000D01*
X86929047Y-48897619D01*
X86976666Y-48992857D01*
X86976666Y-49135714D01*
X86929047Y-49230952D01*
X86881428Y-49278571D01*
X86786190Y-49326190D01*
X86405238Y-49326190D01*
X87405238Y-49278571D02*
X87738571Y-49278571D01*
X87881428Y-49802380D02*
X87405238Y-49802380D01*
X87405238Y-48802380D01*
X87881428Y-48802380D01*
X88643333Y-49278571D02*
X88310000Y-49278571D01*
X88310000Y-49802380D02*
X88310000Y-48802380D01*
X88786190Y-48802380D01*
X89310000Y-48802380D02*
X89310000Y-49040476D01*
X89071904Y-48945238D02*
X89310000Y-49040476D01*
X89548095Y-48945238D01*
X89167142Y-49230952D02*
X89310000Y-49040476D01*
X89452857Y-49230952D01*
X90071904Y-48802380D02*
X90071904Y-49040476D01*
X89833809Y-48945238D02*
X90071904Y-49040476D01*
X90310000Y-48945238D01*
X89929047Y-49230952D02*
X90071904Y-49040476D01*
X90214761Y-49230952D01*
G04 #@! TO.C,J20*
X181952380Y-55349523D02*
X182666666Y-55349523D01*
X182809523Y-55397142D01*
X182904761Y-55492380D01*
X182952380Y-55635238D01*
X182952380Y-55730476D01*
X182047619Y-54920952D02*
X182000000Y-54873333D01*
X181952380Y-54778095D01*
X181952380Y-54540000D01*
X182000000Y-54444761D01*
X182047619Y-54397142D01*
X182142857Y-54349523D01*
X182238095Y-54349523D01*
X182380952Y-54397142D01*
X182952380Y-54968571D01*
X182952380Y-54349523D01*
X181952380Y-53730476D02*
X181952380Y-53635238D01*
X182000000Y-53540000D01*
X182047619Y-53492380D01*
X182142857Y-53444761D01*
X182333333Y-53397142D01*
X182571428Y-53397142D01*
X182761904Y-53444761D01*
X182857142Y-53492380D01*
X182904761Y-53540000D01*
X182952380Y-53635238D01*
X182952380Y-53730476D01*
X182904761Y-53825714D01*
X182857142Y-53873333D01*
X182761904Y-53920952D01*
X182571428Y-53968571D01*
X182333333Y-53968571D01*
X182142857Y-53920952D01*
X182047619Y-53873333D01*
X182000000Y-53825714D01*
X181952380Y-53730476D01*
G04 #@! TO.C,J21*
X178302380Y-57889523D02*
X179016666Y-57889523D01*
X179159523Y-57937142D01*
X179254761Y-58032380D01*
X179302380Y-58175238D01*
X179302380Y-58270476D01*
X178397619Y-57460952D02*
X178350000Y-57413333D01*
X178302380Y-57318095D01*
X178302380Y-57080000D01*
X178350000Y-56984761D01*
X178397619Y-56937142D01*
X178492857Y-56889523D01*
X178588095Y-56889523D01*
X178730952Y-56937142D01*
X179302380Y-57508571D01*
X179302380Y-56889523D01*
X179302380Y-55937142D02*
X179302380Y-56508571D01*
X179302380Y-56222857D02*
X178302380Y-56222857D01*
X178445238Y-56318095D01*
X178540476Y-56413333D01*
X178588095Y-56508571D01*
G04 #@! TO.C,U1*
D19*
X86199472Y-99062575D02*
X86199472Y-99384309D01*
X86705053Y-99384309D02*
X85739853Y-99384309D01*
X85739853Y-98924690D01*
X85785815Y-98051413D02*
X85739853Y-98143337D01*
X85739853Y-98281223D01*
X85785815Y-98419109D01*
X85877738Y-98511032D01*
X85969662Y-98556994D01*
X86153510Y-98602956D01*
X86291395Y-98602956D01*
X86475243Y-98556994D01*
X86567167Y-98511032D01*
X86659091Y-98419109D01*
X86705053Y-98281223D01*
X86705053Y-98189299D01*
X86659091Y-98051413D01*
X86613129Y-98005451D01*
X86291395Y-98005451D01*
X86291395Y-98189299D01*
X86705053Y-97591794D02*
X85739853Y-97591794D01*
X85739853Y-97224099D01*
X85785815Y-97132175D01*
X85831776Y-97086213D01*
X85923700Y-97040251D01*
X86061586Y-97040251D01*
X86153510Y-97086213D01*
X86199472Y-97132175D01*
X86245434Y-97224099D01*
X86245434Y-97591794D01*
X86705053Y-96626594D02*
X85739853Y-96626594D01*
X86429281Y-96304861D01*
X85739853Y-95983128D01*
X86705053Y-95983128D01*
X86705053Y-95523509D02*
X85739853Y-95523509D01*
X86429281Y-95201775D01*
X85739853Y-94880042D01*
X86705053Y-94880042D01*
X85739853Y-94236575D02*
X85739853Y-94052728D01*
X85785815Y-93960804D01*
X85877738Y-93868880D01*
X86061586Y-93822918D01*
X86383319Y-93822918D01*
X86567167Y-93868880D01*
X86659091Y-93960804D01*
X86705053Y-94052728D01*
X86705053Y-94236575D01*
X86659091Y-94328499D01*
X86567167Y-94420423D01*
X86383319Y-94466385D01*
X86061586Y-94466385D01*
X85877738Y-94420423D01*
X85785815Y-94328499D01*
X85739853Y-94236575D01*
X86705053Y-93409261D02*
X85739853Y-93409261D01*
X85739853Y-93041566D01*
X85785815Y-92949642D01*
X85831776Y-92903680D01*
X85923700Y-92857718D01*
X86061586Y-92857718D01*
X86153510Y-92903680D01*
X86199472Y-92949642D01*
X86245434Y-93041566D01*
X86245434Y-93409261D01*
X86429281Y-92490023D02*
X86429281Y-92030404D01*
X86705053Y-92581947D02*
X85739853Y-92260213D01*
X86705053Y-91938480D01*
X85739853Y-91203090D02*
X85739853Y-91386937D01*
X85785815Y-91478861D01*
X85831776Y-91524823D01*
X85969662Y-91616747D01*
X86153510Y-91662709D01*
X86521205Y-91662709D01*
X86613129Y-91616747D01*
X86659091Y-91570785D01*
X86705053Y-91478861D01*
X86705053Y-91295013D01*
X86659091Y-91203090D01*
X86613129Y-91157128D01*
X86521205Y-91111166D01*
X86291395Y-91111166D01*
X86199472Y-91157128D01*
X86153510Y-91203090D01*
X86107548Y-91295013D01*
X86107548Y-91478861D01*
X86153510Y-91570785D01*
X86199472Y-91616747D01*
X86291395Y-91662709D01*
X86705053Y-90697509D02*
X85739853Y-90697509D01*
X86199472Y-90697509D02*
X86199472Y-90145966D01*
X86705053Y-90145966D02*
X85739853Y-90145966D01*
G04 #@! TO.C,LED1*
X73359557Y-120524347D02*
X73037824Y-120064728D01*
X72808014Y-120524347D02*
X72808014Y-119559147D01*
X73175710Y-119559147D01*
X73267633Y-119605109D01*
X73313595Y-119651070D01*
X73359557Y-119742994D01*
X73359557Y-119880880D01*
X73313595Y-119972804D01*
X73267633Y-120018766D01*
X73175710Y-120064728D01*
X72808014Y-120064728D01*
X73773214Y-120018766D02*
X74094948Y-120018766D01*
X74232833Y-120524347D02*
X73773214Y-120524347D01*
X73773214Y-119559147D01*
X74232833Y-119559147D01*
X74646491Y-120524347D02*
X74646491Y-119559147D01*
X74876300Y-119559147D01*
X75014186Y-119605109D01*
X75106110Y-119697032D01*
X75152072Y-119788956D01*
X75198033Y-119972804D01*
X75198033Y-120110689D01*
X75152072Y-120294537D01*
X75106110Y-120386461D01*
X75014186Y-120478385D01*
X74876300Y-120524347D01*
X74646491Y-120524347D01*
D20*
X75471543Y-118864762D02*
X75483034Y-118876253D01*
X75494524Y-118910724D01*
X75494524Y-118933705D01*
X75483034Y-118968177D01*
X75460053Y-118991158D01*
X75437072Y-119002648D01*
X75391110Y-119014139D01*
X75356638Y-119014139D01*
X75310676Y-119002648D01*
X75287695Y-118991158D01*
X75264715Y-118968177D01*
X75253224Y-118933705D01*
X75253224Y-118910724D01*
X75264715Y-118876253D01*
X75276205Y-118864762D01*
X72825581Y-119014139D02*
X72825581Y-118899234D01*
X72894524Y-119037120D02*
X72653224Y-118956686D01*
X72894524Y-118876253D01*
G04 #@! TO.C,R1*
D19*
X76292053Y-117673728D02*
X76292053Y-118225270D01*
X76292053Y-117949499D02*
X75326853Y-117949499D01*
X75464738Y-118041423D01*
X75556662Y-118133347D01*
X75602624Y-118225270D01*
X76292053Y-117260070D02*
X75326853Y-117260070D01*
X76292053Y-116708528D02*
X75740510Y-117122185D01*
X75326853Y-116708528D02*
X75878395Y-117260070D01*
G04 #@! TO.C,C1*
X69792862Y-97612147D02*
X69884786Y-97612147D01*
X69976710Y-97658109D01*
X70022672Y-97704070D01*
X70068633Y-97795994D01*
X70114595Y-97979842D01*
X70114595Y-98209651D01*
X70068633Y-98393499D01*
X70022672Y-98485423D01*
X69976710Y-98531385D01*
X69884786Y-98577347D01*
X69792862Y-98577347D01*
X69700938Y-98531385D01*
X69654976Y-98485423D01*
X69609014Y-98393499D01*
X69563053Y-98209651D01*
X69563053Y-97979842D01*
X69609014Y-97795994D01*
X69654976Y-97704070D01*
X69700938Y-97658109D01*
X69792862Y-97612147D01*
X70528253Y-98485423D02*
X70574214Y-98531385D01*
X70528253Y-98577347D01*
X70482291Y-98531385D01*
X70528253Y-98485423D01*
X70528253Y-98577347D01*
X71493453Y-98577347D02*
X70941910Y-98577347D01*
X71217681Y-98577347D02*
X71217681Y-97612147D01*
X71125757Y-97750032D01*
X71033833Y-97841956D01*
X70941910Y-97887918D01*
X72320767Y-97933880D02*
X72320767Y-98577347D01*
X71907110Y-97933880D02*
X71907110Y-98439461D01*
X71953072Y-98531385D01*
X72044995Y-98577347D01*
X72182881Y-98577347D01*
X72274805Y-98531385D01*
X72320767Y-98485423D01*
X73102119Y-98071766D02*
X72780386Y-98071766D01*
X72780386Y-98577347D02*
X72780386Y-97612147D01*
X73240005Y-97612147D01*
G04 #@! TO.C,D1*
X81659862Y-98639547D02*
X81108319Y-98639547D01*
X81384091Y-98639547D02*
X81384091Y-97674347D01*
X81292167Y-97812232D01*
X81200243Y-97904156D01*
X81108319Y-97950118D01*
X82073519Y-98639547D02*
X82073519Y-97674347D01*
X82625062Y-98639547D01*
X82625062Y-97674347D01*
X83498338Y-97996080D02*
X83498338Y-98639547D01*
X83268529Y-97628385D02*
X83038719Y-98317813D01*
X83636224Y-98317813D01*
X84509500Y-98639547D02*
X83957957Y-98639547D01*
X84233729Y-98639547D02*
X84233729Y-97674347D01*
X84141805Y-97812232D01*
X84049881Y-97904156D01*
X83957957Y-97950118D01*
X85336815Y-97996080D02*
X85336815Y-98639547D01*
X85107005Y-97628385D02*
X84877196Y-98317813D01*
X85474700Y-98317813D01*
X85980281Y-98088004D02*
X85888357Y-98042042D01*
X85842396Y-97996080D01*
X85796434Y-97904156D01*
X85796434Y-97858194D01*
X85842396Y-97766270D01*
X85888357Y-97720309D01*
X85980281Y-97674347D01*
X86164129Y-97674347D01*
X86256053Y-97720309D01*
X86302015Y-97766270D01*
X86347976Y-97858194D01*
X86347976Y-97904156D01*
X86302015Y-97996080D01*
X86256053Y-98042042D01*
X86164129Y-98088004D01*
X85980281Y-98088004D01*
X85888357Y-98133966D01*
X85842396Y-98179928D01*
X85796434Y-98271851D01*
X85796434Y-98455699D01*
X85842396Y-98547623D01*
X85888357Y-98593585D01*
X85980281Y-98639547D01*
X86164129Y-98639547D01*
X86256053Y-98593585D01*
X86302015Y-98547623D01*
X86347976Y-98455699D01*
X86347976Y-98271851D01*
X86302015Y-98179928D01*
X86256053Y-98133966D01*
X86164129Y-98088004D01*
G04 #@! TO.C,R3*
X81712538Y-97788547D02*
X81160996Y-97788547D01*
X81436767Y-97788547D02*
X81436767Y-96823347D01*
X81344843Y-96961232D01*
X81252919Y-97053156D01*
X81160996Y-97099118D01*
X82310043Y-96823347D02*
X82401967Y-96823347D01*
X82493891Y-96869309D01*
X82539853Y-96915270D01*
X82585815Y-97007194D01*
X82631776Y-97191042D01*
X82631776Y-97420851D01*
X82585815Y-97604699D01*
X82539853Y-97696623D01*
X82493891Y-97742585D01*
X82401967Y-97788547D01*
X82310043Y-97788547D01*
X82218119Y-97742585D01*
X82172157Y-97696623D01*
X82126196Y-97604699D01*
X82080234Y-97420851D01*
X82080234Y-97191042D01*
X82126196Y-97007194D01*
X82172157Y-96915270D01*
X82218119Y-96869309D01*
X82310043Y-96823347D01*
X83045434Y-97788547D02*
X83045434Y-96823347D01*
X83596976Y-97788547D02*
X83183319Y-97237004D01*
X83596976Y-96823347D02*
X83045434Y-97374889D01*
G04 #@! TO.C,JP1*
D21*
X91805405Y-108003161D02*
X91033245Y-108003161D01*
X91400940Y-108003161D02*
X91400940Y-107561927D01*
X91805405Y-107561927D02*
X91033245Y-107561927D01*
X91400940Y-107194232D02*
X91400940Y-106936845D01*
X91805405Y-106826536D02*
X91805405Y-107194232D01*
X91033245Y-107194232D01*
X91033245Y-106826536D01*
X91584788Y-106532380D02*
X91584788Y-106164685D01*
X91805405Y-106605919D02*
X91033245Y-106348533D01*
X91805405Y-106091146D01*
X91805405Y-105833759D02*
X91033245Y-105833759D01*
X91033245Y-105649912D01*
X91070015Y-105539603D01*
X91143554Y-105466064D01*
X91217093Y-105429295D01*
X91364171Y-105392525D01*
X91474479Y-105392525D01*
X91621557Y-105429295D01*
X91695096Y-105466064D01*
X91768635Y-105539603D01*
X91805405Y-105649912D01*
X91805405Y-105833759D01*
X91400940Y-105061599D02*
X91400940Y-104804213D01*
X91805405Y-104693904D02*
X91805405Y-105061599D01*
X91033245Y-105061599D01*
X91033245Y-104693904D01*
X91805405Y-103921744D02*
X91437710Y-104179131D01*
X91805405Y-104362978D02*
X91033245Y-104362978D01*
X91033245Y-104068822D01*
X91070015Y-103995283D01*
X91106784Y-103958514D01*
X91180323Y-103921744D01*
X91290632Y-103921744D01*
X91364171Y-103958514D01*
X91400940Y-103995283D01*
X91437710Y-104068822D01*
X91437710Y-104362978D01*
X91511249Y-103590818D02*
X91511249Y-103002506D01*
X91805405Y-102230346D02*
X91805405Y-102671580D01*
X91805405Y-102450963D02*
X91033245Y-102450963D01*
X91143554Y-102524502D01*
X91217093Y-102598041D01*
X91253862Y-102671580D01*
X91033245Y-101972959D02*
X91805405Y-101458186D01*
X91033245Y-101458186D02*
X91805405Y-101972959D01*
X91805405Y-101127260D02*
X91805405Y-100980182D01*
X91768635Y-100906643D01*
X91731866Y-100869874D01*
X91621557Y-100796335D01*
X91474479Y-100759565D01*
X91180323Y-100759565D01*
X91106784Y-100796335D01*
X91070015Y-100833104D01*
X91033245Y-100906643D01*
X91033245Y-101053721D01*
X91070015Y-101127260D01*
X91106784Y-101164030D01*
X91180323Y-101200799D01*
X91364171Y-101200799D01*
X91437710Y-101164030D01*
X91474479Y-101127260D01*
X91511249Y-101053721D01*
X91511249Y-100906643D01*
X91474479Y-100833104D01*
X91437710Y-100796335D01*
X91364171Y-100759565D01*
X91033245Y-100502178D02*
X91033245Y-99987405D01*
X91805405Y-100318331D01*
X91033245Y-99546171D02*
X91033245Y-99472632D01*
X91070015Y-99399093D01*
X91106784Y-99362323D01*
X91180323Y-99325554D01*
X91327401Y-99288784D01*
X91511249Y-99288784D01*
X91658327Y-99325554D01*
X91731866Y-99362323D01*
X91768635Y-99399093D01*
X91805405Y-99472632D01*
X91805405Y-99546171D01*
X91768635Y-99619710D01*
X91731866Y-99656479D01*
X91658327Y-99693249D01*
X91511249Y-99730018D01*
X91327401Y-99730018D01*
X91180323Y-99693249D01*
X91106784Y-99656479D01*
X91070015Y-99619710D01*
X91033245Y-99546171D01*
X91805405Y-98957858D02*
X91033245Y-98957858D01*
X91584788Y-98700472D01*
X91033245Y-98443085D01*
X91805405Y-98443085D01*
X91805405Y-98075390D02*
X91033245Y-98075390D01*
X91805405Y-97339999D02*
X91805405Y-97707695D01*
X91033245Y-97707695D01*
G04 #@! TO.C,D2*
D22*
X85267105Y-117013423D02*
X85221143Y-117059385D01*
X85083257Y-117105347D01*
X84991333Y-117105347D01*
X84853448Y-117059385D01*
X84761524Y-116967461D01*
X84715562Y-116875537D01*
X84669600Y-116691689D01*
X84669600Y-116553804D01*
X84715562Y-116369956D01*
X84761524Y-116278032D01*
X84853448Y-116186109D01*
X84991333Y-116140147D01*
X85083257Y-116140147D01*
X85221143Y-116186109D01*
X85267105Y-116232070D01*
X85680762Y-116140147D02*
X85680762Y-116921499D01*
X85726724Y-117013423D01*
X85772686Y-117059385D01*
X85864610Y-117105347D01*
X86048457Y-117105347D01*
X86140381Y-117059385D01*
X86186343Y-117013423D01*
X86232305Y-116921499D01*
X86232305Y-116140147D01*
X86645962Y-117059385D02*
X86783848Y-117105347D01*
X87013657Y-117105347D01*
X87105581Y-117059385D01*
X87151543Y-117013423D01*
X87197505Y-116921499D01*
X87197505Y-116829575D01*
X87151543Y-116737651D01*
X87105581Y-116691689D01*
X87013657Y-116645728D01*
X86829810Y-116599766D01*
X86737886Y-116553804D01*
X86691924Y-116507842D01*
X86645962Y-116415918D01*
X86645962Y-116323994D01*
X86691924Y-116232070D01*
X86737886Y-116186109D01*
X86829810Y-116140147D01*
X87059619Y-116140147D01*
X87197505Y-116186109D01*
X88070781Y-116140147D02*
X87611162Y-116140147D01*
X87565200Y-116599766D01*
X87611162Y-116553804D01*
X87703086Y-116507842D01*
X87932895Y-116507842D01*
X88024819Y-116553804D01*
X88070781Y-116599766D01*
X88116743Y-116691689D01*
X88116743Y-116921499D01*
X88070781Y-117013423D01*
X88024819Y-117059385D01*
X87932895Y-117105347D01*
X87703086Y-117105347D01*
X87611162Y-117059385D01*
X87565200Y-117013423D01*
X88484438Y-116232070D02*
X88530400Y-116186109D01*
X88622324Y-116140147D01*
X88852133Y-116140147D01*
X88944057Y-116186109D01*
X88990019Y-116232070D01*
X89035981Y-116323994D01*
X89035981Y-116415918D01*
X88990019Y-116553804D01*
X88438476Y-117105347D01*
X89035981Y-117105347D01*
X89633486Y-116140147D02*
X89725410Y-116140147D01*
X89817333Y-116186109D01*
X89863295Y-116232070D01*
X89909257Y-116323994D01*
X89955219Y-116507842D01*
X89955219Y-116737651D01*
X89909257Y-116921499D01*
X89863295Y-117013423D01*
X89817333Y-117059385D01*
X89725410Y-117105347D01*
X89633486Y-117105347D01*
X89541562Y-117059385D01*
X89495600Y-117013423D01*
X89449638Y-116921499D01*
X89403676Y-116737651D01*
X89403676Y-116507842D01*
X89449638Y-116323994D01*
X89495600Y-116232070D01*
X89541562Y-116186109D01*
X89633486Y-116140147D01*
G04 #@! TO.C,L1*
D18*
X68095833Y-134155952D02*
X67905357Y-134155952D01*
X67905357Y-133755952D01*
X68438690Y-134155952D02*
X68210119Y-134155952D01*
X68324404Y-134155952D02*
X68324404Y-133755952D01*
X68286309Y-133813095D01*
X68248214Y-133851190D01*
X68210119Y-133870238D01*
G04 #@! TO.C,L2*
X67613333Y-127805952D02*
X67422857Y-127805952D01*
X67422857Y-127405952D01*
X67727619Y-127444047D02*
X67746666Y-127425000D01*
X67784761Y-127405952D01*
X67880000Y-127405952D01*
X67918095Y-127425000D01*
X67937142Y-127444047D01*
X67956190Y-127482142D01*
X67956190Y-127520238D01*
X67937142Y-127577380D01*
X67708571Y-127805952D01*
X67956190Y-127805952D01*
G04 #@! TO.C,C1*
X71632857Y-131019166D02*
X71651904Y-131038214D01*
X71670952Y-131095357D01*
X71670952Y-131133452D01*
X71651904Y-131190595D01*
X71613809Y-131228690D01*
X71575714Y-131247738D01*
X71499523Y-131266785D01*
X71442380Y-131266785D01*
X71366190Y-131247738D01*
X71328095Y-131228690D01*
X71290000Y-131190595D01*
X71270952Y-131133452D01*
X71270952Y-131095357D01*
X71290000Y-131038214D01*
X71309047Y-131019166D01*
X71670952Y-130638214D02*
X71670952Y-130866785D01*
X71670952Y-130752500D02*
X71270952Y-130752500D01*
X71328095Y-130790595D01*
X71366190Y-130828690D01*
X71385238Y-130866785D01*
G04 #@! TO.C,C2*
D15*
X81424880Y-125838809D02*
X81424880Y-125743571D01*
X81472500Y-125648333D01*
X81520119Y-125600714D01*
X81615357Y-125553095D01*
X81805833Y-125505476D01*
X82043928Y-125505476D01*
X82234404Y-125553095D01*
X82329642Y-125600714D01*
X82377261Y-125648333D01*
X82424880Y-125743571D01*
X82424880Y-125838809D01*
X82377261Y-125934047D01*
X82329642Y-125981666D01*
X82234404Y-126029285D01*
X82043928Y-126076904D01*
X81805833Y-126076904D01*
X81615357Y-126029285D01*
X81520119Y-125981666D01*
X81472500Y-125934047D01*
X81424880Y-125838809D01*
X82329642Y-125076904D02*
X82377261Y-125029285D01*
X82424880Y-125076904D01*
X82377261Y-125124523D01*
X82329642Y-125076904D01*
X82424880Y-125076904D01*
X82424880Y-124076904D02*
X82424880Y-124648333D01*
X82424880Y-124362619D02*
X81424880Y-124362619D01*
X81567738Y-124457857D01*
X81662976Y-124553095D01*
X81710595Y-124648333D01*
X81758214Y-122457857D02*
X82424880Y-122457857D01*
X81758214Y-122886428D02*
X82282023Y-122886428D01*
X82377261Y-122838809D01*
X82424880Y-122743571D01*
X82424880Y-122600714D01*
X82377261Y-122505476D01*
X82329642Y-122457857D01*
X81901071Y-121648333D02*
X81901071Y-121981666D01*
X82424880Y-121981666D02*
X81424880Y-121981666D01*
X81424880Y-121505476D01*
D18*
X83545357Y-123881666D02*
X83564404Y-123900714D01*
X83583452Y-123957857D01*
X83583452Y-123995952D01*
X83564404Y-124053095D01*
X83526309Y-124091190D01*
X83488214Y-124110238D01*
X83412023Y-124129285D01*
X83354880Y-124129285D01*
X83278690Y-124110238D01*
X83240595Y-124091190D01*
X83202500Y-124053095D01*
X83183452Y-123995952D01*
X83183452Y-123957857D01*
X83202500Y-123900714D01*
X83221547Y-123881666D01*
X83221547Y-123729285D02*
X83202500Y-123710238D01*
X83183452Y-123672142D01*
X83183452Y-123576904D01*
X83202500Y-123538809D01*
X83221547Y-123519761D01*
X83259642Y-123500714D01*
X83297738Y-123500714D01*
X83354880Y-123519761D01*
X83583452Y-123748333D01*
X83583452Y-123500714D01*
G04 #@! TO.C,J1*
D15*
X62052380Y-131768333D02*
X62766666Y-131768333D01*
X62909523Y-131815952D01*
X63004761Y-131911190D01*
X63052380Y-132054047D01*
X63052380Y-132149285D01*
X63052380Y-130768333D02*
X63052380Y-131339761D01*
X63052380Y-131054047D02*
X62052380Y-131054047D01*
X62195238Y-131149285D01*
X62290476Y-131244523D01*
X62338095Y-131339761D01*
G04 #@! TO.C,J2*
X88722380Y-131768333D02*
X89436666Y-131768333D01*
X89579523Y-131815952D01*
X89674761Y-131911190D01*
X89722380Y-132054047D01*
X89722380Y-132149285D01*
X88817619Y-131339761D02*
X88770000Y-131292142D01*
X88722380Y-131196904D01*
X88722380Y-130958809D01*
X88770000Y-130863571D01*
X88817619Y-130815952D01*
X88912857Y-130768333D01*
X89008095Y-130768333D01*
X89150952Y-130815952D01*
X89722380Y-131387380D01*
X89722380Y-130768333D01*
G04 #@! TO.C,0k1*
X123291333Y-78426100D02*
X122958000Y-77949910D01*
X122719904Y-78426100D02*
X122719904Y-77426100D01*
X123100857Y-77426100D01*
X123196095Y-77473720D01*
X123243714Y-77521339D01*
X123291333Y-77616577D01*
X123291333Y-77759434D01*
X123243714Y-77854672D01*
X123196095Y-77902291D01*
X123100857Y-77949910D01*
X122719904Y-77949910D01*
X124243714Y-78426100D02*
X123672285Y-78426100D01*
X123958000Y-78426100D02*
X123958000Y-77426100D01*
X123862761Y-77568958D01*
X123767523Y-77664196D01*
X123672285Y-77711815D01*
D16*
X123081491Y-79192312D02*
X123119586Y-79192312D01*
X123157681Y-79211360D01*
X123176729Y-79230407D01*
X123195777Y-79268502D01*
X123214824Y-79344693D01*
X123214824Y-79439931D01*
X123195777Y-79516121D01*
X123176729Y-79554217D01*
X123157681Y-79573264D01*
X123119586Y-79592312D01*
X123081491Y-79592312D01*
X123043396Y-79573264D01*
X123024348Y-79554217D01*
X123005300Y-79516121D01*
X122986253Y-79439931D01*
X122986253Y-79344693D01*
X123005300Y-79268502D01*
X123024348Y-79230407D01*
X123043396Y-79211360D01*
X123081491Y-79192312D01*
X123386253Y-79592312D02*
X123386253Y-79192312D01*
X123424348Y-79439931D02*
X123538634Y-79592312D01*
X123538634Y-79325645D02*
X123386253Y-79478026D01*
X123919586Y-79592312D02*
X123691015Y-79592312D01*
X123805300Y-79592312D02*
X123805300Y-79192312D01*
X123767205Y-79249455D01*
X123729110Y-79287550D01*
X123691015Y-79306598D01*
G04 #@! TO.C,0k2*
D15*
X123291333Y-82728860D02*
X122958000Y-82252670D01*
X122719904Y-82728860D02*
X122719904Y-81728860D01*
X123100857Y-81728860D01*
X123196095Y-81776480D01*
X123243714Y-81824099D01*
X123291333Y-81919337D01*
X123291333Y-82062194D01*
X123243714Y-82157432D01*
X123196095Y-82205051D01*
X123100857Y-82252670D01*
X122719904Y-82252670D01*
X123672285Y-81824099D02*
X123719904Y-81776480D01*
X123815142Y-81728860D01*
X124053238Y-81728860D01*
X124148476Y-81776480D01*
X124196095Y-81824099D01*
X124243714Y-81919337D01*
X124243714Y-82014575D01*
X124196095Y-82157432D01*
X123624666Y-82728860D01*
X124243714Y-82728860D01*
D16*
X123091651Y-80619792D02*
X123129746Y-80619792D01*
X123167841Y-80638840D01*
X123186889Y-80657887D01*
X123205937Y-80695982D01*
X123224984Y-80772173D01*
X123224984Y-80867411D01*
X123205937Y-80943601D01*
X123186889Y-80981697D01*
X123167841Y-81000744D01*
X123129746Y-81019792D01*
X123091651Y-81019792D01*
X123053556Y-81000744D01*
X123034508Y-80981697D01*
X123015460Y-80943601D01*
X122996413Y-80867411D01*
X122996413Y-80772173D01*
X123015460Y-80695982D01*
X123034508Y-80657887D01*
X123053556Y-80638840D01*
X123091651Y-80619792D01*
X123396413Y-81019792D02*
X123396413Y-80619792D01*
X123434508Y-80867411D02*
X123548794Y-81019792D01*
X123548794Y-80753125D02*
X123396413Y-80905506D01*
X123701175Y-80657887D02*
X123720222Y-80638840D01*
X123758318Y-80619792D01*
X123853556Y-80619792D01*
X123891651Y-80638840D01*
X123910699Y-80657887D01*
X123929746Y-80695982D01*
X123929746Y-80734078D01*
X123910699Y-80791220D01*
X123682127Y-81019792D01*
X123929746Y-81019792D01*
G04 #@! TO.C,1uF1*
D15*
X120240793Y-86842402D02*
X120193174Y-86890021D01*
X120050317Y-86937640D01*
X119955079Y-86937640D01*
X119812221Y-86890021D01*
X119716983Y-86794783D01*
X119669364Y-86699545D01*
X119621745Y-86509069D01*
X119621745Y-86366212D01*
X119669364Y-86175736D01*
X119716983Y-86080498D01*
X119812221Y-85985260D01*
X119955079Y-85937640D01*
X120050317Y-85937640D01*
X120193174Y-85985260D01*
X120240793Y-86032879D01*
X121097936Y-85937640D02*
X120907460Y-85937640D01*
X120812221Y-85985260D01*
X120764602Y-86032879D01*
X120669364Y-86175736D01*
X120621745Y-86366212D01*
X120621745Y-86747164D01*
X120669364Y-86842402D01*
X120716983Y-86890021D01*
X120812221Y-86937640D01*
X121002698Y-86937640D01*
X121097936Y-86890021D01*
X121145555Y-86842402D01*
X121193174Y-86747164D01*
X121193174Y-86509069D01*
X121145555Y-86413831D01*
X121097936Y-86366212D01*
X121002698Y-86318593D01*
X120812221Y-86318593D01*
X120716983Y-86366212D01*
X120669364Y-86413831D01*
X120621745Y-86509069D01*
G04 #@! TO.C,1uF2*
X131607862Y-68385457D02*
X131655481Y-68433076D01*
X131703100Y-68575933D01*
X131703100Y-68671171D01*
X131655481Y-68814028D01*
X131560243Y-68909266D01*
X131465005Y-68956885D01*
X131274529Y-69004504D01*
X131131672Y-69004504D01*
X130941196Y-68956885D01*
X130845958Y-68909266D01*
X130750720Y-68814028D01*
X130703100Y-68671171D01*
X130703100Y-68575933D01*
X130750720Y-68433076D01*
X130798339Y-68385457D01*
X131703100Y-67433076D02*
X131703100Y-68004504D01*
X131703100Y-67718790D02*
X130703100Y-67718790D01*
X130845958Y-67814028D01*
X130941196Y-67909266D01*
X130988815Y-68004504D01*
X131036434Y-66575933D02*
X131703100Y-66575933D01*
X130655481Y-66814028D02*
X131369767Y-67052123D01*
X131369767Y-66433076D01*
G04 #@! TO.C,1uF3*
X132547662Y-96707786D02*
X132595281Y-96755405D01*
X132642900Y-96898262D01*
X132642900Y-96993500D01*
X132595281Y-97136358D01*
X132500043Y-97231596D01*
X132404805Y-97279215D01*
X132214329Y-97326834D01*
X132071472Y-97326834D01*
X131880996Y-97279215D01*
X131785758Y-97231596D01*
X131690520Y-97136358D01*
X131642900Y-96993500D01*
X131642900Y-96898262D01*
X131690520Y-96755405D01*
X131738139Y-96707786D01*
X132071472Y-96136358D02*
X132023853Y-96231596D01*
X131976234Y-96279215D01*
X131880996Y-96326834D01*
X131833377Y-96326834D01*
X131738139Y-96279215D01*
X131690520Y-96231596D01*
X131642900Y-96136358D01*
X131642900Y-95945881D01*
X131690520Y-95850643D01*
X131738139Y-95803024D01*
X131833377Y-95755405D01*
X131880996Y-95755405D01*
X131976234Y-95803024D01*
X132023853Y-95850643D01*
X132071472Y-95945881D01*
X132071472Y-96136358D01*
X132119091Y-96231596D01*
X132166710Y-96279215D01*
X132261948Y-96326834D01*
X132452424Y-96326834D01*
X132547662Y-96279215D01*
X132595281Y-96231596D01*
X132642900Y-96136358D01*
X132642900Y-95945881D01*
X132595281Y-95850643D01*
X132547662Y-95803024D01*
X132452424Y-95755405D01*
X132261948Y-95755405D01*
X132166710Y-95803024D01*
X132119091Y-95850643D01*
X132071472Y-95945881D01*
G04 #@! TO.C,1uF4*
X140391182Y-97813897D02*
X140438801Y-97861516D01*
X140486420Y-98004373D01*
X140486420Y-98099611D01*
X140438801Y-98242468D01*
X140343563Y-98337706D01*
X140248325Y-98385325D01*
X140057849Y-98432944D01*
X139914992Y-98432944D01*
X139724516Y-98385325D01*
X139629278Y-98337706D01*
X139534040Y-98242468D01*
X139486420Y-98099611D01*
X139486420Y-98004373D01*
X139534040Y-97861516D01*
X139581659Y-97813897D01*
X140486420Y-96861516D02*
X140486420Y-97432944D01*
X140486420Y-97147230D02*
X139486420Y-97147230D01*
X139629278Y-97242468D01*
X139724516Y-97337706D01*
X139772135Y-97432944D01*
X139581659Y-96480563D02*
X139534040Y-96432944D01*
X139486420Y-96337706D01*
X139486420Y-96099611D01*
X139534040Y-96004373D01*
X139581659Y-95956754D01*
X139676897Y-95909135D01*
X139772135Y-95909135D01*
X139914992Y-95956754D01*
X140486420Y-96528182D01*
X140486420Y-95909135D01*
G04 #@! TO.C,1uF5*
X149779782Y-78031142D02*
X149732163Y-78078761D01*
X149589306Y-78126380D01*
X149494068Y-78126380D01*
X149351211Y-78078761D01*
X149255973Y-77983523D01*
X149208354Y-77888285D01*
X149160735Y-77697809D01*
X149160735Y-77554952D01*
X149208354Y-77364476D01*
X149255973Y-77269238D01*
X149351211Y-77174000D01*
X149494068Y-77126380D01*
X149589306Y-77126380D01*
X149732163Y-77174000D01*
X149779782Y-77221619D01*
X150732163Y-78126380D02*
X150160735Y-78126380D01*
X150446449Y-78126380D02*
X150446449Y-77126380D01*
X150351211Y-77269238D01*
X150255973Y-77364476D01*
X150160735Y-77412095D01*
X151351211Y-77126380D02*
X151446449Y-77126380D01*
X151541687Y-77174000D01*
X151589306Y-77221619D01*
X151636925Y-77316857D01*
X151684544Y-77507333D01*
X151684544Y-77745428D01*
X151636925Y-77935904D01*
X151589306Y-78031142D01*
X151541687Y-78078761D01*
X151446449Y-78126380D01*
X151351211Y-78126380D01*
X151255973Y-78078761D01*
X151208354Y-78031142D01*
X151160735Y-77935904D01*
X151113116Y-77745428D01*
X151113116Y-77507333D01*
X151160735Y-77316857D01*
X151208354Y-77221619D01*
X151255973Y-77174000D01*
X151351211Y-77126380D01*
G04 #@! TO.C,4.7uF1*
X138552222Y-97839297D02*
X138599841Y-97886916D01*
X138647460Y-98029773D01*
X138647460Y-98125011D01*
X138599841Y-98267868D01*
X138504603Y-98363106D01*
X138409365Y-98410725D01*
X138218889Y-98458344D01*
X138076032Y-98458344D01*
X137885556Y-98410725D01*
X137790318Y-98363106D01*
X137695080Y-98267868D01*
X137647460Y-98125011D01*
X137647460Y-98029773D01*
X137695080Y-97886916D01*
X137742699Y-97839297D01*
X137742699Y-97458344D02*
X137695080Y-97410725D01*
X137647460Y-97315487D01*
X137647460Y-97077392D01*
X137695080Y-96982154D01*
X137742699Y-96934535D01*
X137837937Y-96886916D01*
X137933175Y-96886916D01*
X138076032Y-96934535D01*
X138647460Y-97505963D01*
X138647460Y-96886916D01*
X138647460Y-95934535D02*
X138647460Y-96505963D01*
X138647460Y-96220249D02*
X137647460Y-96220249D01*
X137790318Y-96315487D01*
X137885556Y-96410725D01*
X137933175Y-96505963D01*
G04 #@! TO.C,10k1*
X119979173Y-71405540D02*
X119645840Y-70929350D01*
X119407744Y-71405540D02*
X119407744Y-70405540D01*
X119788697Y-70405540D01*
X119883935Y-70453160D01*
X119931554Y-70500779D01*
X119979173Y-70596017D01*
X119979173Y-70738874D01*
X119931554Y-70834112D01*
X119883935Y-70881731D01*
X119788697Y-70929350D01*
X119407744Y-70929350D01*
X120836316Y-70405540D02*
X120645840Y-70405540D01*
X120550601Y-70453160D01*
X120502982Y-70500779D01*
X120407744Y-70643636D01*
X120360125Y-70834112D01*
X120360125Y-71215064D01*
X120407744Y-71310302D01*
X120455363Y-71357921D01*
X120550601Y-71405540D01*
X120741078Y-71405540D01*
X120836316Y-71357921D01*
X120883935Y-71310302D01*
X120931554Y-71215064D01*
X120931554Y-70976969D01*
X120883935Y-70881731D01*
X120836316Y-70834112D01*
X120741078Y-70786493D01*
X120550601Y-70786493D01*
X120455363Y-70834112D01*
X120407744Y-70881731D01*
X120360125Y-70976969D01*
D16*
X116786108Y-71083312D02*
X116557537Y-71083312D01*
X116671822Y-71083312D02*
X116671822Y-70683312D01*
X116633727Y-70740455D01*
X116595632Y-70778550D01*
X116557537Y-70797598D01*
X117033727Y-70683312D02*
X117071822Y-70683312D01*
X117109918Y-70702360D01*
X117128965Y-70721407D01*
X117148013Y-70759502D01*
X117167060Y-70835693D01*
X117167060Y-70930931D01*
X117148013Y-71007121D01*
X117128965Y-71045217D01*
X117109918Y-71064264D01*
X117071822Y-71083312D01*
X117033727Y-71083312D01*
X116995632Y-71064264D01*
X116976584Y-71045217D01*
X116957537Y-71007121D01*
X116938489Y-70930931D01*
X116938489Y-70835693D01*
X116957537Y-70759502D01*
X116976584Y-70721407D01*
X116995632Y-70702360D01*
X117033727Y-70683312D01*
X117338489Y-71083312D02*
X117338489Y-70683312D01*
X117376584Y-70930931D02*
X117490870Y-71083312D01*
X117490870Y-70816645D02*
X117338489Y-70969026D01*
X117871822Y-71083312D02*
X117643251Y-71083312D01*
X117757537Y-71083312D02*
X117757537Y-70683312D01*
X117719441Y-70740455D01*
X117681346Y-70778550D01*
X117643251Y-70797598D01*
G04 #@! TO.C,10k2*
D15*
X120029973Y-68484540D02*
X119696640Y-68008350D01*
X119458544Y-68484540D02*
X119458544Y-67484540D01*
X119839497Y-67484540D01*
X119934735Y-67532160D01*
X119982354Y-67579779D01*
X120029973Y-67675017D01*
X120029973Y-67817874D01*
X119982354Y-67913112D01*
X119934735Y-67960731D01*
X119839497Y-68008350D01*
X119458544Y-68008350D01*
X120363306Y-67484540D02*
X121029973Y-67484540D01*
X120601401Y-68484540D01*
D16*
X116786108Y-68182632D02*
X116557537Y-68182632D01*
X116671822Y-68182632D02*
X116671822Y-67782632D01*
X116633727Y-67839775D01*
X116595632Y-67877870D01*
X116557537Y-67896918D01*
X117033727Y-67782632D02*
X117071822Y-67782632D01*
X117109918Y-67801680D01*
X117128965Y-67820727D01*
X117148013Y-67858822D01*
X117167060Y-67935013D01*
X117167060Y-68030251D01*
X117148013Y-68106441D01*
X117128965Y-68144537D01*
X117109918Y-68163584D01*
X117071822Y-68182632D01*
X117033727Y-68182632D01*
X116995632Y-68163584D01*
X116976584Y-68144537D01*
X116957537Y-68106441D01*
X116938489Y-68030251D01*
X116938489Y-67935013D01*
X116957537Y-67858822D01*
X116976584Y-67820727D01*
X116995632Y-67801680D01*
X117033727Y-67782632D01*
X117338489Y-68182632D02*
X117338489Y-67782632D01*
X117376584Y-68030251D02*
X117490870Y-68182632D01*
X117490870Y-67915965D02*
X117338489Y-68068346D01*
X117643251Y-67820727D02*
X117662299Y-67801680D01*
X117700394Y-67782632D01*
X117795632Y-67782632D01*
X117833727Y-67801680D01*
X117852775Y-67820727D01*
X117871822Y-67858822D01*
X117871822Y-67896918D01*
X117852775Y-67954060D01*
X117624203Y-68182632D01*
X117871822Y-68182632D01*
G04 #@! TO.C,10k3*
D15*
X120029973Y-69912020D02*
X119696640Y-69435830D01*
X119458544Y-69912020D02*
X119458544Y-68912020D01*
X119839497Y-68912020D01*
X119934735Y-68959640D01*
X119982354Y-69007259D01*
X120029973Y-69102497D01*
X120029973Y-69245354D01*
X119982354Y-69340592D01*
X119934735Y-69388211D01*
X119839497Y-69435830D01*
X119458544Y-69435830D01*
X120601401Y-69340592D02*
X120506163Y-69292973D01*
X120458544Y-69245354D01*
X120410925Y-69150116D01*
X120410925Y-69102497D01*
X120458544Y-69007259D01*
X120506163Y-68959640D01*
X120601401Y-68912020D01*
X120791878Y-68912020D01*
X120887116Y-68959640D01*
X120934735Y-69007259D01*
X120982354Y-69102497D01*
X120982354Y-69150116D01*
X120934735Y-69245354D01*
X120887116Y-69292973D01*
X120791878Y-69340592D01*
X120601401Y-69340592D01*
X120506163Y-69388211D01*
X120458544Y-69435830D01*
X120410925Y-69531068D01*
X120410925Y-69721544D01*
X120458544Y-69816782D01*
X120506163Y-69864401D01*
X120601401Y-69912020D01*
X120791878Y-69912020D01*
X120887116Y-69864401D01*
X120934735Y-69816782D01*
X120982354Y-69721544D01*
X120982354Y-69531068D01*
X120934735Y-69435830D01*
X120887116Y-69388211D01*
X120791878Y-69340592D01*
D16*
X116786108Y-69625352D02*
X116557537Y-69625352D01*
X116671822Y-69625352D02*
X116671822Y-69225352D01*
X116633727Y-69282495D01*
X116595632Y-69320590D01*
X116557537Y-69339638D01*
X117033727Y-69225352D02*
X117071822Y-69225352D01*
X117109918Y-69244400D01*
X117128965Y-69263447D01*
X117148013Y-69301542D01*
X117167060Y-69377733D01*
X117167060Y-69472971D01*
X117148013Y-69549161D01*
X117128965Y-69587257D01*
X117109918Y-69606304D01*
X117071822Y-69625352D01*
X117033727Y-69625352D01*
X116995632Y-69606304D01*
X116976584Y-69587257D01*
X116957537Y-69549161D01*
X116938489Y-69472971D01*
X116938489Y-69377733D01*
X116957537Y-69301542D01*
X116976584Y-69263447D01*
X116995632Y-69244400D01*
X117033727Y-69225352D01*
X117338489Y-69625352D02*
X117338489Y-69225352D01*
X117376584Y-69472971D02*
X117490870Y-69625352D01*
X117490870Y-69358685D02*
X117338489Y-69511066D01*
X117624203Y-69225352D02*
X117871822Y-69225352D01*
X117738489Y-69377733D01*
X117795632Y-69377733D01*
X117833727Y-69396780D01*
X117852775Y-69415828D01*
X117871822Y-69453923D01*
X117871822Y-69549161D01*
X117852775Y-69587257D01*
X117833727Y-69606304D01*
X117795632Y-69625352D01*
X117681346Y-69625352D01*
X117643251Y-69606304D01*
X117624203Y-69587257D01*
G04 #@! TO.C,10k4*
D15*
X133115340Y-68346146D02*
X132639150Y-68679480D01*
X133115340Y-68917575D02*
X132115340Y-68917575D01*
X132115340Y-68536622D01*
X132162960Y-68441384D01*
X132210579Y-68393765D01*
X132305817Y-68346146D01*
X132448674Y-68346146D01*
X132543912Y-68393765D01*
X132591531Y-68441384D01*
X132639150Y-68536622D01*
X132639150Y-68917575D01*
X132115340Y-67441384D02*
X132115340Y-67917575D01*
X132591531Y-67965194D01*
X132543912Y-67917575D01*
X132496293Y-67822337D01*
X132496293Y-67584241D01*
X132543912Y-67489003D01*
X132591531Y-67441384D01*
X132686769Y-67393765D01*
X132924864Y-67393765D01*
X133020102Y-67441384D01*
X133067721Y-67489003D01*
X133115340Y-67584241D01*
X133115340Y-67822337D01*
X133067721Y-67917575D01*
X133020102Y-67965194D01*
D16*
X132732152Y-71663491D02*
X132732152Y-71892062D01*
X132732152Y-71777777D02*
X132332152Y-71777777D01*
X132389295Y-71815872D01*
X132427390Y-71853967D01*
X132446438Y-71892062D01*
X132332152Y-71415872D02*
X132332152Y-71377777D01*
X132351200Y-71339681D01*
X132370247Y-71320634D01*
X132408342Y-71301586D01*
X132484533Y-71282539D01*
X132579771Y-71282539D01*
X132655961Y-71301586D01*
X132694057Y-71320634D01*
X132713104Y-71339681D01*
X132732152Y-71377777D01*
X132732152Y-71415872D01*
X132713104Y-71453967D01*
X132694057Y-71473015D01*
X132655961Y-71492062D01*
X132579771Y-71511110D01*
X132484533Y-71511110D01*
X132408342Y-71492062D01*
X132370247Y-71473015D01*
X132351200Y-71453967D01*
X132332152Y-71415872D01*
X132732152Y-71111110D02*
X132332152Y-71111110D01*
X132579771Y-71073015D02*
X132732152Y-70958729D01*
X132465485Y-70958729D02*
X132617866Y-71111110D01*
X132465485Y-70615872D02*
X132732152Y-70615872D01*
X132313104Y-70711110D02*
X132598819Y-70806348D01*
X132598819Y-70558729D01*
G04 #@! TO.C,10nF1*
D15*
X123230373Y-84000142D02*
X123182754Y-84047761D01*
X123039897Y-84095380D01*
X122944659Y-84095380D01*
X122801801Y-84047761D01*
X122706563Y-83952523D01*
X122658944Y-83857285D01*
X122611325Y-83666809D01*
X122611325Y-83523952D01*
X122658944Y-83333476D01*
X122706563Y-83238238D01*
X122801801Y-83143000D01*
X122944659Y-83095380D01*
X123039897Y-83095380D01*
X123182754Y-83143000D01*
X123230373Y-83190619D01*
X123563706Y-83095380D02*
X124230373Y-83095380D01*
X123801801Y-84095380D01*
G04 #@! TO.C,22uH1*
X120329693Y-88357500D02*
X119853502Y-88357500D01*
X119853502Y-87357500D01*
X121186836Y-88357500D02*
X120615407Y-88357500D01*
X120901121Y-88357500D02*
X120901121Y-87357500D01*
X120805883Y-87500358D01*
X120710645Y-87595596D01*
X120615407Y-87643215D01*
D16*
X122562125Y-87663207D02*
X122581173Y-87644160D01*
X122619268Y-87625112D01*
X122714506Y-87625112D01*
X122752601Y-87644160D01*
X122771649Y-87663207D01*
X122790697Y-87701302D01*
X122790697Y-87739398D01*
X122771649Y-87796540D01*
X122543078Y-88025112D01*
X122790697Y-88025112D01*
X122943078Y-87663207D02*
X122962125Y-87644160D01*
X123000220Y-87625112D01*
X123095459Y-87625112D01*
X123133554Y-87644160D01*
X123152601Y-87663207D01*
X123171649Y-87701302D01*
X123171649Y-87739398D01*
X123152601Y-87796540D01*
X122924030Y-88025112D01*
X123171649Y-88025112D01*
X123514506Y-87758445D02*
X123514506Y-88025112D01*
X123343078Y-87758445D02*
X123343078Y-87967969D01*
X123362125Y-88006064D01*
X123400220Y-88025112D01*
X123457363Y-88025112D01*
X123495459Y-88006064D01*
X123514506Y-87987017D01*
X123704982Y-88025112D02*
X123704982Y-87625112D01*
X123704982Y-87815588D02*
X123933554Y-87815588D01*
X123933554Y-88025112D02*
X123933554Y-87625112D01*
X124333554Y-88025112D02*
X124104982Y-88025112D01*
X124219268Y-88025112D02*
X124219268Y-87625112D01*
X124181173Y-87682255D01*
X124143078Y-87720350D01*
X124104982Y-87739398D01*
G04 #@! TO.C,100nF1*
D15*
X101478382Y-64942546D02*
X101526001Y-64990165D01*
X101573620Y-65133022D01*
X101573620Y-65228260D01*
X101526001Y-65371118D01*
X101430763Y-65466356D01*
X101335525Y-65513975D01*
X101145049Y-65561594D01*
X101002192Y-65561594D01*
X100811716Y-65513975D01*
X100716478Y-65466356D01*
X100621240Y-65371118D01*
X100573620Y-65228260D01*
X100573620Y-65133022D01*
X100621240Y-64990165D01*
X100668859Y-64942546D01*
X100573620Y-64037784D02*
X100573620Y-64513975D01*
X101049811Y-64561594D01*
X101002192Y-64513975D01*
X100954573Y-64418737D01*
X100954573Y-64180641D01*
X101002192Y-64085403D01*
X101049811Y-64037784D01*
X101145049Y-63990165D01*
X101383144Y-63990165D01*
X101478382Y-64037784D01*
X101526001Y-64085403D01*
X101573620Y-64180641D01*
X101573620Y-64418737D01*
X101526001Y-64513975D01*
X101478382Y-64561594D01*
G04 #@! TO.C,100nF2*
X130088942Y-68481977D02*
X130136561Y-68529596D01*
X130184180Y-68672453D01*
X130184180Y-68767691D01*
X130136561Y-68910548D01*
X130041323Y-69005786D01*
X129946085Y-69053405D01*
X129755609Y-69101024D01*
X129612752Y-69101024D01*
X129422276Y-69053405D01*
X129327038Y-69005786D01*
X129231800Y-68910548D01*
X129184180Y-68767691D01*
X129184180Y-68672453D01*
X129231800Y-68529596D01*
X129279419Y-68481977D01*
X130184180Y-67529596D02*
X130184180Y-68101024D01*
X130184180Y-67815310D02*
X129184180Y-67815310D01*
X129327038Y-67910548D01*
X129422276Y-68005786D01*
X129469895Y-68101024D01*
X129184180Y-66624834D02*
X129184180Y-67101024D01*
X129660371Y-67148643D01*
X129612752Y-67101024D01*
X129565133Y-67005786D01*
X129565133Y-66767691D01*
X129612752Y-66672453D01*
X129660371Y-66624834D01*
X129755609Y-66577215D01*
X129993704Y-66577215D01*
X130088942Y-66624834D01*
X130136561Y-66672453D01*
X130184180Y-66767691D01*
X130184180Y-67005786D01*
X130136561Y-67101024D01*
X130088942Y-67148643D01*
G04 #@! TO.C,100nF3*
X133934502Y-96702746D02*
X133982121Y-96750365D01*
X134029740Y-96893222D01*
X134029740Y-96988460D01*
X133982121Y-97131318D01*
X133886883Y-97226556D01*
X133791645Y-97274175D01*
X133601169Y-97321794D01*
X133458312Y-97321794D01*
X133267836Y-97274175D01*
X133172598Y-97226556D01*
X133077360Y-97131318D01*
X133029740Y-96988460D01*
X133029740Y-96893222D01*
X133077360Y-96750365D01*
X133124979Y-96702746D01*
X134029740Y-96226556D02*
X134029740Y-96036080D01*
X133982121Y-95940841D01*
X133934502Y-95893222D01*
X133791645Y-95797984D01*
X133601169Y-95750365D01*
X133220217Y-95750365D01*
X133124979Y-95797984D01*
X133077360Y-95845603D01*
X133029740Y-95940841D01*
X133029740Y-96131318D01*
X133077360Y-96226556D01*
X133124979Y-96274175D01*
X133220217Y-96321794D01*
X133458312Y-96321794D01*
X133553550Y-96274175D01*
X133601169Y-96226556D01*
X133648788Y-96131318D01*
X133648788Y-95940841D01*
X133601169Y-95845603D01*
X133553550Y-95797984D01*
X133458312Y-95750365D01*
G04 #@! TO.C,100nF4*
X141727222Y-97829137D02*
X141774841Y-97876756D01*
X141822460Y-98019613D01*
X141822460Y-98114851D01*
X141774841Y-98257708D01*
X141679603Y-98352946D01*
X141584365Y-98400565D01*
X141393889Y-98448184D01*
X141251032Y-98448184D01*
X141060556Y-98400565D01*
X140965318Y-98352946D01*
X140870080Y-98257708D01*
X140822460Y-98114851D01*
X140822460Y-98019613D01*
X140870080Y-97876756D01*
X140917699Y-97829137D01*
X141822460Y-96876756D02*
X141822460Y-97448184D01*
X141822460Y-97162470D02*
X140822460Y-97162470D01*
X140965318Y-97257708D01*
X141060556Y-97352946D01*
X141108175Y-97448184D01*
X140822460Y-96543422D02*
X140822460Y-95924375D01*
X141203413Y-96257708D01*
X141203413Y-96114851D01*
X141251032Y-96019613D01*
X141298651Y-95971994D01*
X141393889Y-95924375D01*
X141631984Y-95924375D01*
X141727222Y-95971994D01*
X141774841Y-96019613D01*
X141822460Y-96114851D01*
X141822460Y-96400565D01*
X141774841Y-96495803D01*
X141727222Y-96543422D01*
G04 #@! TO.C,100nF5*
X149744222Y-79392582D02*
X149696603Y-79440201D01*
X149553746Y-79487820D01*
X149458508Y-79487820D01*
X149315651Y-79440201D01*
X149220413Y-79344963D01*
X149172794Y-79249725D01*
X149125175Y-79059249D01*
X149125175Y-78916392D01*
X149172794Y-78725916D01*
X149220413Y-78630678D01*
X149315651Y-78535440D01*
X149458508Y-78487820D01*
X149553746Y-78487820D01*
X149696603Y-78535440D01*
X149744222Y-78583059D01*
X150696603Y-79487820D02*
X150125175Y-79487820D01*
X150410889Y-79487820D02*
X150410889Y-78487820D01*
X150315651Y-78630678D01*
X150220413Y-78725916D01*
X150125175Y-78773535D01*
X151648984Y-79487820D02*
X151077556Y-79487820D01*
X151363270Y-79487820D02*
X151363270Y-78487820D01*
X151268032Y-78630678D01*
X151172794Y-78725916D01*
X151077556Y-78773535D01*
G04 #@! TO.C,C1*
X116524773Y-76542702D02*
X116477154Y-76590321D01*
X116334297Y-76637940D01*
X116239059Y-76637940D01*
X116096201Y-76590321D01*
X116000963Y-76495083D01*
X115953344Y-76399845D01*
X115905725Y-76209369D01*
X115905725Y-76066512D01*
X115953344Y-75876036D01*
X116000963Y-75780798D01*
X116096201Y-75685560D01*
X116239059Y-75637940D01*
X116334297Y-75637940D01*
X116477154Y-75685560D01*
X116524773Y-75733179D01*
X117477154Y-76637940D02*
X116905725Y-76637940D01*
X117191440Y-76637940D02*
X117191440Y-75637940D01*
X117096201Y-75780798D01*
X117000963Y-75876036D01*
X116905725Y-75923655D01*
G04 #@! TO.C,C2*
X116387613Y-84614822D02*
X116339994Y-84662441D01*
X116197137Y-84710060D01*
X116101899Y-84710060D01*
X115959041Y-84662441D01*
X115863803Y-84567203D01*
X115816184Y-84471965D01*
X115768565Y-84281489D01*
X115768565Y-84138632D01*
X115816184Y-83948156D01*
X115863803Y-83852918D01*
X115959041Y-83757680D01*
X116101899Y-83710060D01*
X116197137Y-83710060D01*
X116339994Y-83757680D01*
X116387613Y-83805299D01*
X116768565Y-83805299D02*
X116816184Y-83757680D01*
X116911422Y-83710060D01*
X117149518Y-83710060D01*
X117244756Y-83757680D01*
X117292375Y-83805299D01*
X117339994Y-83900537D01*
X117339994Y-83995775D01*
X117292375Y-84138632D01*
X116720946Y-84710060D01*
X117339994Y-84710060D01*
G04 #@! TO.C,J1*
X102915500Y-81151853D02*
X103629786Y-81151853D01*
X103772643Y-81199472D01*
X103867881Y-81294710D01*
X103915500Y-81437567D01*
X103915500Y-81532805D01*
X103915500Y-80151853D02*
X103915500Y-80723281D01*
X103915500Y-80437567D02*
X102915500Y-80437567D01*
X103058358Y-80532805D01*
X103153596Y-80628043D01*
X103201215Y-80723281D01*
G04 #@! TO.C,J3*
X157012420Y-80120613D02*
X157726706Y-80120613D01*
X157869563Y-80168232D01*
X157964801Y-80263470D01*
X158012420Y-80406327D01*
X158012420Y-80501565D01*
X157012420Y-79739660D02*
X157012420Y-79120613D01*
X157393373Y-79453946D01*
X157393373Y-79311089D01*
X157440992Y-79215851D01*
X157488611Y-79168232D01*
X157583849Y-79120613D01*
X157821944Y-79120613D01*
X157917182Y-79168232D01*
X157964801Y-79215851D01*
X158012420Y-79311089D01*
X158012420Y-79596803D01*
X157964801Y-79692041D01*
X157917182Y-79739660D01*
G04 #@! TO.C,J4*
X132192466Y-56618420D02*
X132192466Y-57332706D01*
X132144847Y-57475563D01*
X132049609Y-57570801D01*
X131906752Y-57618420D01*
X131811514Y-57618420D01*
X133097228Y-56951754D02*
X133097228Y-57618420D01*
X132859133Y-56570801D02*
X132621038Y-57285087D01*
X133240085Y-57285087D01*
G04 #@! TO.C,J5*
X131999426Y-101840580D02*
X131999426Y-102554866D01*
X131951807Y-102697723D01*
X131856569Y-102792961D01*
X131713712Y-102840580D01*
X131618474Y-102840580D01*
X132951807Y-101840580D02*
X132475617Y-101840580D01*
X132427998Y-102316771D01*
X132475617Y-102269152D01*
X132570855Y-102221533D01*
X132808950Y-102221533D01*
X132904188Y-102269152D01*
X132951807Y-102316771D01*
X132999426Y-102412009D01*
X132999426Y-102650104D01*
X132951807Y-102745342D01*
X132904188Y-102792961D01*
X132808950Y-102840580D01*
X132570855Y-102840580D01*
X132475617Y-102792961D01*
X132427998Y-102745342D01*
G04 #@! TO.C,J6*
X103231386Y-101825340D02*
X103231386Y-102539626D01*
X103183767Y-102682483D01*
X103088529Y-102777721D01*
X102945672Y-102825340D01*
X102850434Y-102825340D01*
X104136148Y-101825340D02*
X103945672Y-101825340D01*
X103850434Y-101872960D01*
X103802815Y-101920579D01*
X103707577Y-102063436D01*
X103659958Y-102253912D01*
X103659958Y-102634864D01*
X103707577Y-102730102D01*
X103755196Y-102777721D01*
X103850434Y-102825340D01*
X104040910Y-102825340D01*
X104136148Y-102777721D01*
X104183767Y-102730102D01*
X104231386Y-102634864D01*
X104231386Y-102396769D01*
X104183767Y-102301531D01*
X104136148Y-102253912D01*
X104040910Y-102206293D01*
X103850434Y-102206293D01*
X103755196Y-102253912D01*
X103707577Y-102301531D01*
X103659958Y-102396769D01*
G04 #@! TO.C,SW1*
X101167220Y-62356779D02*
X100691030Y-62690112D01*
X101167220Y-62928207D02*
X100167220Y-62928207D01*
X100167220Y-62547255D01*
X100214840Y-62452017D01*
X100262459Y-62404398D01*
X100357697Y-62356779D01*
X100500554Y-62356779D01*
X100595792Y-62404398D01*
X100643411Y-62452017D01*
X100691030Y-62547255D01*
X100691030Y-62928207D01*
X101119601Y-61975826D02*
X101167220Y-61832969D01*
X101167220Y-61594874D01*
X101119601Y-61499636D01*
X101071982Y-61452017D01*
X100976744Y-61404398D01*
X100881506Y-61404398D01*
X100786268Y-61452017D01*
X100738649Y-61499636D01*
X100691030Y-61594874D01*
X100643411Y-61785350D01*
X100595792Y-61880588D01*
X100548173Y-61928207D01*
X100452935Y-61975826D01*
X100357697Y-61975826D01*
X100262459Y-61928207D01*
X100214840Y-61880588D01*
X100167220Y-61785350D01*
X100167220Y-61547255D01*
X100214840Y-61404398D01*
X100167220Y-61118683D02*
X100167220Y-60547255D01*
X101167220Y-60832969D02*
X100167220Y-60832969D01*
G04 #@! TO.C,Y1*
X111592140Y-84149550D02*
X111592140Y-83530502D01*
X111973093Y-83863836D01*
X111973093Y-83720979D01*
X112020712Y-83625740D01*
X112068331Y-83578121D01*
X112163569Y-83530502D01*
X112401664Y-83530502D01*
X112496902Y-83578121D01*
X112544521Y-83625740D01*
X112592140Y-83720979D01*
X112592140Y-84006693D01*
X112544521Y-84101931D01*
X112496902Y-84149550D01*
X111687379Y-83149550D02*
X111639760Y-83101931D01*
X111592140Y-83006693D01*
X111592140Y-82768598D01*
X111639760Y-82673360D01*
X111687379Y-82625740D01*
X111782617Y-82578121D01*
X111877855Y-82578121D01*
X112020712Y-82625740D01*
X112592140Y-83197169D01*
X112592140Y-82578121D01*
X112496902Y-82149550D02*
X112544521Y-82101931D01*
X112592140Y-82149550D01*
X112544521Y-82197169D01*
X112496902Y-82149550D01*
X112592140Y-82149550D01*
X111592140Y-81768598D02*
X111592140Y-81101931D01*
X112592140Y-81530502D01*
X111592140Y-80292407D02*
X111592140Y-80482883D01*
X111639760Y-80578121D01*
X111687379Y-80625740D01*
X111830236Y-80720979D01*
X112020712Y-80768598D01*
X112401664Y-80768598D01*
X112496902Y-80720979D01*
X112544521Y-80673360D01*
X112592140Y-80578121D01*
X112592140Y-80387645D01*
X112544521Y-80292407D01*
X112496902Y-80244788D01*
X112401664Y-80197169D01*
X112163569Y-80197169D01*
X112068331Y-80244788D01*
X112020712Y-80292407D01*
X111973093Y-80387645D01*
X111973093Y-80578121D01*
X112020712Y-80673360D01*
X112068331Y-80720979D01*
X112163569Y-80768598D01*
X112020712Y-79625740D02*
X111973093Y-79720979D01*
X111925474Y-79768598D01*
X111830236Y-79816217D01*
X111782617Y-79816217D01*
X111687379Y-79768598D01*
X111639760Y-79720979D01*
X111592140Y-79625740D01*
X111592140Y-79435264D01*
X111639760Y-79340026D01*
X111687379Y-79292407D01*
X111782617Y-79244788D01*
X111830236Y-79244788D01*
X111925474Y-79292407D01*
X111973093Y-79340026D01*
X112020712Y-79435264D01*
X112020712Y-79625740D01*
X112068331Y-79720979D01*
X112115950Y-79768598D01*
X112211188Y-79816217D01*
X112401664Y-79816217D01*
X112496902Y-79768598D01*
X112544521Y-79720979D01*
X112592140Y-79625740D01*
X112592140Y-79435264D01*
X112544521Y-79340026D01*
X112496902Y-79292407D01*
X112401664Y-79244788D01*
X112211188Y-79244788D01*
X112115950Y-79292407D01*
X112068331Y-79340026D01*
X112020712Y-79435264D01*
X112592140Y-78816217D02*
X111592140Y-78816217D01*
X112306426Y-78482883D01*
X111592140Y-78149550D01*
X112592140Y-78149550D01*
X112592140Y-77673360D02*
X111592140Y-77673360D01*
X112068331Y-77673360D02*
X112068331Y-77101931D01*
X112592140Y-77101931D02*
X111592140Y-77101931D01*
X111925474Y-76720979D02*
X111925474Y-76197169D01*
X112592140Y-76720979D01*
X112592140Y-76197169D01*
X116738489Y-81196030D02*
X116738489Y-81672220D01*
X116405156Y-80672220D02*
X116738489Y-81196030D01*
X117071822Y-80672220D01*
X117928965Y-81672220D02*
X117357537Y-81672220D01*
X117643251Y-81672220D02*
X117643251Y-80672220D01*
X117548013Y-80815078D01*
X117452775Y-80910316D01*
X117357537Y-80957935D01*
G04 #@! TD*
M02*
