G04 #@! TF.GenerationSoftware,KiCad,Pcbnew,5.0.1-33cea8e~68~ubuntu16.04.1*
G04 #@! TF.CreationDate,2018-10-29T01:45:26-07:00*
G04 #@! TF.ProjectId,integrated-board-design-1,696E74656772617465642D626F617264,rev?*
G04 #@! TF.SameCoordinates,Original*
G04 #@! TF.FileFunction,Copper,L4,Bot,Signal*
G04 #@! TF.FilePolarity,Positive*
%FSLAX46Y46*%
G04 Gerber Fmt 4.6, Leading zero omitted, Abs format (unit mm)*
G04 Created by KiCad (PCBNEW 5.0.1-33cea8e~68~ubuntu16.04.1) date Mon 29 Oct 2018 01:45:26 AM PDT*
%MOMM*%
%LPD*%
G01*
G04 APERTURE LIST*
G04 #@! TA.AperFunction,WasherPad*
%ADD10C,3.000000*%
G04 #@! TD*
G04 #@! TA.AperFunction,ComponentPad*
%ADD11C,2.184400*%
G04 #@! TD*
G04 #@! TA.AperFunction,ComponentPad*
%ADD12R,1.730000X2.030000*%
G04 #@! TD*
G04 #@! TA.AperFunction,ComponentPad*
%ADD13O,1.730000X2.030000*%
G04 #@! TD*
G04 #@! TA.AperFunction,ComponentPad*
%ADD14C,3.200000*%
G04 #@! TD*
G04 #@! TA.AperFunction,ComponentPad*
%ADD15R,1.700000X1.700000*%
G04 #@! TD*
G04 #@! TA.AperFunction,ComponentPad*
%ADD16O,1.700000X1.700000*%
G04 #@! TD*
G04 #@! TA.AperFunction,WasherPad*
%ADD17C,1.350000*%
G04 #@! TD*
G04 #@! TA.AperFunction,WasherPad*
%ADD18C,1.600000*%
G04 #@! TD*
G04 #@! TA.AperFunction,SMDPad,CuDef*
%ADD19R,4.064000X1.524000*%
G04 #@! TD*
G04 #@! TA.AperFunction,SMDPad,CuDef*
%ADD20R,3.200000X3.200000*%
G04 #@! TD*
G04 #@! TA.AperFunction,Conductor*
%ADD21C,0.100000*%
G04 #@! TD*
G04 #@! TA.AperFunction,SMDPad,CuDef*
%ADD22C,4.000000*%
G04 #@! TD*
G04 #@! TA.AperFunction,ComponentPad*
%ADD23C,1.778000*%
G04 #@! TD*
G04 #@! TA.AperFunction,ViaPad*
%ADD24C,0.800000*%
G04 #@! TD*
G04 #@! TA.AperFunction,ViaPad*
%ADD25C,0.906400*%
G04 #@! TD*
G04 #@! TA.AperFunction,ViaPad*
%ADD26C,1.676400*%
G04 #@! TD*
G04 #@! TA.AperFunction,Conductor*
%ADD27C,0.250000*%
G04 #@! TD*
G04 #@! TA.AperFunction,Conductor*
%ADD28C,0.406400*%
G04 #@! TD*
G04 #@! TA.AperFunction,Conductor*
%ADD29C,0.508000*%
G04 #@! TD*
G04 #@! TA.AperFunction,Conductor*
%ADD30C,0.600000*%
G04 #@! TD*
G04 #@! TA.AperFunction,Conductor*
%ADD31C,0.700000*%
G04 #@! TD*
G04 #@! TA.AperFunction,Conductor*
%ADD32C,0.254000*%
G04 #@! TD*
G04 #@! TA.AperFunction,Conductor*
%ADD33C,0.406000*%
G04 #@! TD*
G04 APERTURE END LIST*
D10*
G04 #@! TO.N,*
G04 #@! TO.C,U1*
X78551015Y-109964309D03*
G04 #@! TD*
D11*
G04 #@! TO.P,U$2,RFGND2*
G04 #@! TO.N,GND*
X64143410Y-45694861D03*
G04 #@! TO.P,U$2,0V*
X89543410Y-45694861D03*
G04 #@! TO.P,U$2,VCC*
G04 #@! TO.N,VCC*
X87003410Y-45694861D03*
G04 #@! TO.P,U$2,EN*
G04 #@! TO.N,/D4*
X84463410Y-45694861D03*
G04 #@! TO.P,U$2,TXD*
G04 #@! TO.N,/D3*
X92083410Y-45694861D03*
G04 #@! TO.P,U$2,GND*
G04 #@! TO.N,GND*
X69223410Y-45694861D03*
G04 #@! TO.P,U$2,RFOUT*
G04 #@! TO.N,PB4*
X66683410Y-45694861D03*
G04 #@! TD*
D12*
G04 #@! TO.P,,1*
G04 #@! TO.N,/CSB*
X183479203Y-124248068D03*
D13*
G04 #@! TO.P,,2*
G04 #@! TO.N,/SDO*
X180939203Y-124248068D03*
G04 #@! TO.P,,3*
G04 #@! TO.N,/SDI*
X178399203Y-124248068D03*
G04 #@! TO.P,,4*
G04 #@! TO.N,/SCLK*
X175859203Y-124248068D03*
G04 #@! TD*
D14*
G04 #@! TO.P,U$8,P$1*
G04 #@! TO.N,N/C*
X60875000Y-139950000D03*
G04 #@! TD*
G04 #@! TO.P,U$8,P$1*
G04 #@! TO.N,N/C*
X60900000Y-90650000D03*
G04 #@! TD*
G04 #@! TO.P,U$8,P$1*
G04 #@! TO.N,N/C*
X153775000Y-30275000D03*
G04 #@! TD*
G04 #@! TO.P,U$8,P$1*
G04 #@! TO.N,N/C*
X106175000Y-30200000D03*
G04 #@! TD*
G04 #@! TO.P,U$8,P$1*
G04 #@! TO.N,N/C*
X99350000Y-139800000D03*
G04 #@! TD*
G04 #@! TO.P,U$8,P$1*
G04 #@! TO.N,N/C*
X189350000Y-84750000D03*
G04 #@! TD*
G04 #@! TO.P,U$9,P$1*
G04 #@! TO.N,N/C*
X163250000Y-112200000D03*
G04 #@! TD*
G04 #@! TO.P,U$9,P$1*
G04 #@! TO.N,N/C*
X60750000Y-54175000D03*
G04 #@! TD*
G04 #@! TO.P,U$9,P$1*
G04 #@! TO.N,N/C*
X189625000Y-30275000D03*
G04 #@! TD*
G04 #@! TO.P,U$8,P$1*
G04 #@! TO.N,N/C*
X189675000Y-140150000D03*
G04 #@! TD*
D15*
G04 #@! TO.P,J9,1*
G04 #@! TO.N,Net-(J2-Pad1)*
X91146480Y-59844400D03*
D16*
G04 #@! TO.P,J9,2*
G04 #@! TO.N,Net-(J2-Pad2)*
X91146480Y-62384400D03*
G04 #@! TO.P,J9,3*
G04 #@! TO.N,Net-(J2-Pad3)*
X91146480Y-64924400D03*
G04 #@! TO.P,J9,4*
G04 #@! TO.N,Net-(J2-Pad4)*
X91146480Y-67464400D03*
G04 #@! TO.P,J9,5*
G04 #@! TO.N,Net-(J2-Pad5)*
X91146480Y-70004400D03*
G04 #@! TO.P,J9,6*
G04 #@! TO.N,Net-(J2-Pad6)*
X91146480Y-72544400D03*
G04 #@! TO.P,J9,7*
G04 #@! TO.N,Net-(J2-Pad7)*
X91146480Y-75084400D03*
G04 #@! TO.P,J9,8*
G04 #@! TO.N,Net-(J2-Pad8)*
X91146480Y-77624400D03*
G04 #@! TO.P,J9,9*
G04 #@! TO.N,Net-(J2-Pad10)*
X91146480Y-80164400D03*
G04 #@! TO.P,J9,10*
G04 #@! TO.N,Net-(J2-Pad9)*
X91146480Y-82704400D03*
G04 #@! TO.P,J9,11*
G04 #@! TO.N,Net-(J2-Pad11)*
X91146480Y-85244400D03*
G04 #@! TD*
D15*
G04 #@! TO.P,J10,1*
G04 #@! TO.N,Net-(C16-Pad2)*
X179297020Y-97477940D03*
D16*
G04 #@! TO.P,J10,2*
G04 #@! TO.N,Net-(C21-Pad1)*
X179297020Y-94937940D03*
G04 #@! TD*
D15*
G04 #@! TO.P,J7,1*
G04 #@! TO.N,Net-(C16-Pad1)*
X175600000Y-84875000D03*
D16*
G04 #@! TO.P,J7,2*
G04 #@! TO.N,Net-(C16-Pad2)*
X173060000Y-84875000D03*
G04 #@! TD*
D15*
G04 #@! TO.P,J8,1*
G04 #@! TO.N,Net-(C16-Pad2)*
X179175000Y-75825000D03*
D16*
G04 #@! TO.P,J8,2*
G04 #@! TO.N,Net-(C18-Pad1)*
X179175000Y-73285000D03*
G04 #@! TD*
D15*
G04 #@! TO.P,J13,1*
G04 #@! TO.N,Net-(C16-Pad2)*
X179175000Y-79475000D03*
D16*
G04 #@! TO.P,J13,2*
X181715000Y-79475000D03*
G04 #@! TO.P,J13,3*
X184255000Y-79475000D03*
G04 #@! TO.P,J13,4*
X186795000Y-79475000D03*
G04 #@! TD*
D15*
G04 #@! TO.P,J14,1*
G04 #@! TO.N,Net-(C21-Pad1)*
X179124300Y-90802820D03*
D16*
G04 #@! TO.P,J14,2*
X181664300Y-90802820D03*
G04 #@! TO.P,J14,3*
X184204300Y-90802820D03*
G04 #@! TO.P,J14,4*
X186744300Y-90802820D03*
G04 #@! TO.P,J14,5*
X189284300Y-90802820D03*
G04 #@! TD*
D15*
G04 #@! TO.P,J12,1*
G04 #@! TO.N,Net-(C16-Pad2)*
X179050640Y-111282840D03*
D16*
G04 #@! TO.P,J12,2*
X179050640Y-113822840D03*
G04 #@! TO.P,J12,3*
X179050640Y-116362840D03*
G04 #@! TD*
D15*
G04 #@! TO.P,,1*
G04 #@! TO.N,+3V3*
X177519203Y-139648068D03*
D16*
G04 #@! TO.P,,2*
G04 #@! TO.N,GND*
X180059203Y-139648068D03*
G04 #@! TD*
G04 #@! TO.P,JP2,5*
G04 #@! TO.N,GND*
X116300080Y-138129560D03*
G04 #@! TO.P,JP2,4*
G04 #@! TO.N,VCC*
X116300080Y-135589560D03*
G04 #@! TO.P,JP2,3*
G04 #@! TO.N,/SDA*
X116300080Y-133049560D03*
G04 #@! TO.P,JP2,2*
G04 #@! TO.N,/SCL*
X116300080Y-130509560D03*
D15*
G04 #@! TO.P,JP2,1*
G04 #@! TO.N,/SQW*
X116300080Y-127969560D03*
G04 #@! TD*
D17*
G04 #@! TO.P,B1,*
G04 #@! TO.N,*
X113450080Y-120349560D03*
D18*
X106000080Y-120349560D03*
G04 #@! TD*
D15*
G04 #@! TO.P,J2,1*
G04 #@! TO.N,Net-(C1-Pad2)*
X155983300Y-119549160D03*
D16*
G04 #@! TO.P,J2,2*
G04 #@! TO.N,Net-(C1-Pad1)*
X155983300Y-122089160D03*
G04 #@! TD*
D15*
G04 #@! TO.P,J1,1*
G04 #@! TO.N,Net-(J1-Pad1)*
X134648301Y-117514161D03*
D16*
G04 #@! TO.P,J1,2*
G04 #@! TO.N,Net-(J1-Pad2)*
X134648301Y-120054161D03*
G04 #@! TO.P,J1,3*
G04 #@! TO.N,Net-(D2-Pad1)*
X134648301Y-122594161D03*
G04 #@! TO.P,J1,4*
G04 #@! TO.N,Net-(D1-Pad1)*
X134648301Y-125134161D03*
G04 #@! TO.P,J1,5*
G04 #@! TO.N,Net-(J1-Pad5)*
X134648301Y-127674161D03*
G04 #@! TO.P,J1,6*
G04 #@! TO.N,Net-(J1-Pad6)*
X134648301Y-130214161D03*
G04 #@! TO.P,J1,7*
G04 #@! TO.N,Net-(J1-Pad7)*
X134648301Y-132754161D03*
G04 #@! TO.P,J1,8*
G04 #@! TO.N,Net-(J1-Pad8)*
X134648301Y-135294161D03*
G04 #@! TO.P,J1,9*
G04 #@! TO.N,Net-(J1-Pad9)*
X134648301Y-137834161D03*
G04 #@! TD*
D15*
G04 #@! TO.P,J1,1*
G04 #@! TO.N,GND*
X156441000Y-36518000D03*
D16*
G04 #@! TO.P,J1,2*
G04 #@! TO.N,VDD*
X156441000Y-39058000D03*
G04 #@! TO.P,J1,3*
G04 #@! TO.N,VDDIO*
X156441000Y-41598000D03*
G04 #@! TD*
D15*
G04 #@! TO.P,J2,1*
G04 #@! TO.N,INT*
X183111000Y-32454000D03*
D16*
G04 #@! TO.P,J2,2*
G04 #@! TO.N,FSYNC*
X183111000Y-34994000D03*
G04 #@! TO.P,J2,3*
G04 #@! TO.N,nCS*
X183111000Y-37534000D03*
G04 #@! TO.P,J2,4*
G04 #@! TO.N,SCL*
X183111000Y-40074000D03*
G04 #@! TO.P,J2,5*
G04 #@! TO.N,SDA*
X183111000Y-42614000D03*
G04 #@! TO.P,J2,6*
G04 #@! TO.N,AD0*
X183111000Y-45154000D03*
G04 #@! TD*
D19*
G04 #@! TO.P,J$1,GND@1*
G04 #@! TO.N,GND*
X60968410Y-40589461D03*
G04 #@! TO.P,J$1,SIG*
G04 #@! TO.N,PB4*
X60968410Y-43129461D03*
G04 #@! TO.P,J$1,GND@0*
G04 #@! TO.N,GND*
X60968410Y-45669461D03*
G04 #@! TD*
D15*
G04 #@! TO.P,REF\002A\002A,1*
G04 #@! TO.N,GND*
X64125000Y-49050000D03*
D16*
G04 #@! TO.P,REF\002A\002A,2*
G04 #@! TO.N,PB4*
X66665000Y-49050000D03*
G04 #@! TO.P,REF\002A\002A,3*
G04 #@! TO.N,GND*
X69205000Y-49050000D03*
G04 #@! TD*
D15*
G04 #@! TO.P,REF\002A\002A,1*
G04 #@! TO.N,/D4*
X84500000Y-49350000D03*
D16*
G04 #@! TO.P,REF\002A\002A,2*
G04 #@! TO.N,VCC*
X87040000Y-49350000D03*
G04 #@! TO.P,REF\002A\002A,3*
G04 #@! TO.N,GND*
X89580000Y-49350000D03*
G04 #@! TO.P,REF\002A\002A,4*
G04 #@! TO.N,/D3*
X92120000Y-49350000D03*
G04 #@! TD*
G04 #@! TO.P,J20,3*
G04 #@! TO.N,Net-(C18-Pad1)*
X182500000Y-57080000D03*
G04 #@! TO.P,J20,2*
X182500000Y-54540000D03*
D15*
G04 #@! TO.P,J20,1*
X182500000Y-52000000D03*
G04 #@! TD*
D16*
G04 #@! TO.P,J21,5*
G04 #@! TO.N,Net-(C18-Pad1)*
X178850000Y-62160000D03*
G04 #@! TO.P,J21,4*
X178850000Y-59620000D03*
G04 #@! TO.P,J21,3*
X178850000Y-57080000D03*
G04 #@! TO.P,J21,2*
X178850000Y-54540000D03*
D15*
G04 #@! TO.P,J21,1*
X178850000Y-52000000D03*
G04 #@! TD*
D14*
G04 #@! TO.P,U$8,P$1*
G04 #@! TO.N,N/C*
X64527015Y-118816309D03*
G04 #@! TD*
G04 #@! TO.P,U$9,P$1*
G04 #@! TO.N,N/C*
X64527015Y-98496309D03*
G04 #@! TD*
D20*
G04 #@! TO.P,B1,+$2*
G04 #@! TO.N,Net-(B1-Pad+$1)*
X69226015Y-116881709D03*
G04 #@! TO.P,B1,+$1*
X69226015Y-100430909D03*
D21*
G04 #@! TD*
G04 #@! TO.N,GND*
G04 #@! TO.C,B1*
G36*
X69422050Y-106665939D02*
X69616197Y-106694737D01*
X69806585Y-106742427D01*
X69991383Y-106808549D01*
X70168809Y-106892465D01*
X70337156Y-106993369D01*
X70494803Y-107110287D01*
X70640230Y-107242094D01*
X70772037Y-107387521D01*
X70888955Y-107545168D01*
X70989859Y-107713515D01*
X71073775Y-107890941D01*
X71139897Y-108075739D01*
X71187587Y-108266127D01*
X71216385Y-108460274D01*
X71226016Y-108656308D01*
X71226016Y-108656310D01*
X71216385Y-108852344D01*
X71187587Y-109046491D01*
X71139897Y-109236879D01*
X71073775Y-109421677D01*
X70989859Y-109599103D01*
X70888955Y-109767450D01*
X70772037Y-109925097D01*
X70640230Y-110070524D01*
X70494803Y-110202331D01*
X70337156Y-110319249D01*
X70168809Y-110420153D01*
X69991383Y-110504069D01*
X69806585Y-110570191D01*
X69616197Y-110617881D01*
X69422050Y-110646679D01*
X69226016Y-110656310D01*
X69226014Y-110656310D01*
X69029980Y-110646679D01*
X68835833Y-110617881D01*
X68645445Y-110570191D01*
X68460647Y-110504069D01*
X68283221Y-110420153D01*
X68114874Y-110319249D01*
X67957227Y-110202331D01*
X67811800Y-110070524D01*
X67679993Y-109925097D01*
X67563075Y-109767450D01*
X67462171Y-109599103D01*
X67378255Y-109421677D01*
X67312133Y-109236879D01*
X67264443Y-109046491D01*
X67235645Y-108852344D01*
X67226014Y-108656310D01*
X67226014Y-108656308D01*
X67235645Y-108460274D01*
X67264443Y-108266127D01*
X67312133Y-108075739D01*
X67378255Y-107890941D01*
X67462171Y-107713515D01*
X67563075Y-107545168D01*
X67679993Y-107387521D01*
X67811800Y-107242094D01*
X67957227Y-107110287D01*
X68114874Y-106993369D01*
X68283221Y-106892465D01*
X68460647Y-106808549D01*
X68645445Y-106742427D01*
X68835833Y-106694737D01*
X69029980Y-106665939D01*
X69226014Y-106656308D01*
X69226016Y-106656308D01*
X69422050Y-106665939D01*
X69422050Y-106665939D01*
G37*
D22*
G04 #@! TO.P,B1,-*
G04 #@! TO.N,GND*
X69226015Y-108656309D03*
G04 #@! TD*
D23*
G04 #@! TO.P,JP1,9*
G04 #@! TO.N,3.3V*
X94245015Y-118816309D03*
G04 #@! TO.P,JP1,8*
G04 #@! TO.N,/ENABLE*
X94245015Y-116276309D03*
G04 #@! TO.P,JP1,7*
G04 #@! TO.N,/VBACKUP*
X94245015Y-113736309D03*
G04 #@! TO.P,JP1,6*
G04 #@! TO.N,/FIX*
X94245015Y-111196309D03*
G04 #@! TO.P,JP1,5*
G04 #@! TO.N,/TX*
X94245015Y-108656309D03*
G04 #@! TO.P,JP1,4*
G04 #@! TO.N,/RX*
X94245015Y-106116309D03*
G04 #@! TO.P,JP1,3*
G04 #@! TO.N,GND*
X94245015Y-103576309D03*
G04 #@! TO.P,JP1,2*
G04 #@! TO.N,VIN*
X94245015Y-101036309D03*
G04 #@! TO.P,JP1,1*
G04 #@! TO.N,/1PPS*
X94245015Y-98496309D03*
G04 #@! TD*
D15*
G04 #@! TO.P,J1,1*
G04 #@! TO.N,Net-(J1-Pad1)*
X62600000Y-132705000D03*
D16*
G04 #@! TO.P,J1,2*
G04 #@! TO.N,Net-(J1-Pad2)*
X62600000Y-130165000D03*
G04 #@! TD*
D15*
G04 #@! TO.P,J2,1*
G04 #@! TO.N,+3V3*
X89270000Y-126355000D03*
D16*
G04 #@! TO.P,J2,2*
G04 #@! TO.N,Net-(C2-Pad2)*
X89270000Y-128895000D03*
G04 #@! TO.P,J2,3*
G04 #@! TO.N,Net-(J2-Pad3)*
X89270000Y-131435000D03*
G04 #@! TO.P,J2,4*
G04 #@! TO.N,Net-(J2-Pad4)*
X89270000Y-133975000D03*
G04 #@! TO.P,J2,5*
G04 #@! TO.N,Net-(J2-Pad5)*
X89270000Y-136515000D03*
G04 #@! TD*
D15*
G04 #@! TO.P,J1,1*
G04 #@! TO.N,+3V3*
X105123120Y-92098520D03*
D16*
G04 #@! TO.P,J1,2*
X102583120Y-92098520D03*
G04 #@! TO.P,J1,3*
G04 #@! TO.N,PB4*
X105123120Y-89558520D03*
G04 #@! TO.P,J1,4*
G04 #@! TO.N,GND*
X102583120Y-89558520D03*
G04 #@! TO.P,J1,5*
G04 #@! TO.N,PA15*
X105123120Y-87018520D03*
G04 #@! TO.P,J1,6*
G04 #@! TO.N,GND*
X102583120Y-87018520D03*
G04 #@! TO.P,J1,7*
G04 #@! TO.N,PA13*
X105123120Y-84478520D03*
G04 #@! TO.P,J1,8*
G04 #@! TO.N,GND*
X102583120Y-84478520D03*
G04 #@! TO.P,J1,9*
G04 #@! TO.N,PA14*
X105123120Y-81938520D03*
G04 #@! TO.P,J1,10*
G04 #@! TO.N,GND*
X102583120Y-81938520D03*
G04 #@! TO.P,J1,11*
G04 #@! TO.N,Net-(10k1-Pad2)*
X105123120Y-79398520D03*
G04 #@! TO.P,J1,12*
G04 #@! TO.N,GND*
X102583120Y-79398520D03*
G04 #@! TO.P,J1,13*
G04 #@! TO.N,PB3*
X105123120Y-76858520D03*
G04 #@! TO.P,J1,14*
G04 #@! TO.N,GND*
X102583120Y-76858520D03*
G04 #@! TO.P,J1,15*
G04 #@! TO.N,RST*
X105123120Y-74318520D03*
G04 #@! TO.P,J1,16*
G04 #@! TO.N,GND*
X102583120Y-74318520D03*
G04 #@! TO.P,J1,17*
G04 #@! TO.N,Net-(10k3-Pad2)*
X105123120Y-71778520D03*
G04 #@! TO.P,J1,18*
G04 #@! TO.N,GND*
X102583120Y-71778520D03*
G04 #@! TO.P,J1,19*
G04 #@! TO.N,Net-(10k2-Pad2)*
X105123120Y-69238520D03*
G04 #@! TO.P,J1,20*
G04 #@! TO.N,GND*
X102583120Y-69238520D03*
G04 #@! TD*
D15*
G04 #@! TO.P,J3,1*
G04 #@! TO.N,PA0*
X157950040Y-98687280D03*
D16*
G04 #@! TO.P,J3,2*
G04 #@! TO.N,PA1*
X157950040Y-96147280D03*
G04 #@! TO.P,J3,3*
G04 #@! TO.N,PA2*
X157950040Y-93607280D03*
G04 #@! TO.P,J3,4*
G04 #@! TO.N,PA3*
X157950040Y-91067280D03*
G04 #@! TO.P,J3,5*
G04 #@! TO.N,PA4*
X157950040Y-88527280D03*
G04 #@! TO.P,J3,6*
G04 #@! TO.N,PA5*
X157950040Y-85987280D03*
G04 #@! TO.P,J3,7*
G04 #@! TO.N,PA6*
X157950040Y-83447280D03*
G04 #@! TO.P,J3,8*
G04 #@! TO.N,PA7*
X157950040Y-80907280D03*
G04 #@! TO.P,J3,9*
G04 #@! TO.N,PA8*
X157950040Y-78367280D03*
G04 #@! TO.P,J3,10*
G04 #@! TO.N,PA9*
X157950040Y-75827280D03*
G04 #@! TO.P,J3,11*
G04 #@! TO.N,PA10*
X157950040Y-73287280D03*
G04 #@! TO.P,J3,12*
G04 #@! TO.N,PA11*
X157950040Y-70747280D03*
G04 #@! TO.P,J3,13*
G04 #@! TO.N,PA12*
X157950040Y-68207280D03*
G04 #@! TO.P,J3,14*
G04 #@! TO.N,PA13*
X157950040Y-65667280D03*
G04 #@! TO.P,J3,15*
G04 #@! TO.N,PA14*
X157950040Y-63127280D03*
G04 #@! TO.P,J3,16*
G04 #@! TO.N,PA15*
X157950040Y-60587280D03*
G04 #@! TD*
D15*
G04 #@! TO.P,J4,1*
G04 #@! TO.N,PB0*
X151965800Y-57016040D03*
D16*
G04 #@! TO.P,J4,2*
G04 #@! TO.N,PB1*
X149425800Y-57016040D03*
G04 #@! TO.P,J4,3*
G04 #@! TO.N,PB2*
X146885800Y-57016040D03*
G04 #@! TO.P,J4,4*
G04 #@! TO.N,PB3*
X144345800Y-57016040D03*
G04 #@! TO.P,J4,5*
G04 #@! TO.N,PB4*
X141805800Y-57016040D03*
G04 #@! TO.P,J4,6*
G04 #@! TO.N,PB5*
X139265800Y-57016040D03*
G04 #@! TO.P,J4,7*
G04 #@! TO.N,PB6*
X136725800Y-57016040D03*
G04 #@! TO.P,J4,8*
G04 #@! TO.N,PB7*
X134185800Y-57016040D03*
G04 #@! TO.P,J4,9*
G04 #@! TO.N,PB8*
X131645800Y-57016040D03*
G04 #@! TO.P,J4,10*
G04 #@! TO.N,PB9*
X129105800Y-57016040D03*
G04 #@! TO.P,J4,11*
G04 #@! TO.N,PB10*
X126565800Y-57016040D03*
G04 #@! TO.P,J4,12*
G04 #@! TO.N,PB11*
X124025800Y-57016040D03*
G04 #@! TO.P,J4,13*
G04 #@! TO.N,PB12*
X121485800Y-57016040D03*
G04 #@! TO.P,J4,14*
G04 #@! TO.N,PB13*
X118945800Y-57016040D03*
G04 #@! TO.P,J4,15*
G04 #@! TO.N,PB14*
X116405800Y-57016040D03*
G04 #@! TO.P,J4,16*
G04 #@! TO.N,PB15*
X113865800Y-57016040D03*
G04 #@! TD*
D15*
G04 #@! TO.P,J5,1*
G04 #@! TO.N,PC0*
X113672760Y-102238200D03*
D16*
G04 #@! TO.P,J5,2*
G04 #@! TO.N,PC1*
X116212760Y-102238200D03*
G04 #@! TO.P,J5,3*
G04 #@! TO.N,PC2*
X118752760Y-102238200D03*
G04 #@! TO.P,J5,4*
G04 #@! TO.N,PC3*
X121292760Y-102238200D03*
G04 #@! TO.P,J5,5*
G04 #@! TO.N,PC4*
X123832760Y-102238200D03*
G04 #@! TO.P,J5,6*
G04 #@! TO.N,PC5*
X126372760Y-102238200D03*
G04 #@! TO.P,J5,7*
G04 #@! TO.N,PC6*
X128912760Y-102238200D03*
G04 #@! TO.P,J5,8*
G04 #@! TO.N,PC7*
X131452760Y-102238200D03*
G04 #@! TO.P,J5,9*
G04 #@! TO.N,PC8*
X133992760Y-102238200D03*
G04 #@! TO.P,J5,10*
G04 #@! TO.N,PC9*
X136532760Y-102238200D03*
G04 #@! TO.P,J5,11*
G04 #@! TO.N,PC10*
X139072760Y-102238200D03*
G04 #@! TO.P,J5,12*
G04 #@! TO.N,PC11*
X141612760Y-102238200D03*
G04 #@! TO.P,J5,13*
G04 #@! TO.N,PC12*
X144152760Y-102238200D03*
G04 #@! TO.P,J5,14*
G04 #@! TO.N,PC13*
X146692760Y-102238200D03*
G04 #@! TO.P,J5,15*
G04 #@! TO.N,Net-(J5-Pad15)*
X149232760Y-102238200D03*
G04 #@! TO.P,J5,16*
G04 #@! TO.N,PD2*
X151772760Y-102238200D03*
G04 #@! TD*
D15*
G04 #@! TO.P,J6,1*
G04 #@! TO.N,GND*
X102684720Y-102222960D03*
D16*
G04 #@! TO.P,J6,2*
G04 #@! TO.N,+3V3*
X105224720Y-102222960D03*
G04 #@! TD*
D24*
G04 #@! TO.N,*
X110340000Y-70675014D03*
X107565000Y-76200000D03*
G04 #@! TO.N,GND*
X171173000Y-36264000D03*
X163650000Y-43650000D03*
X171000000Y-45075000D03*
D25*
X83450015Y-96972309D03*
X82728415Y-100357409D03*
X89038015Y-115768309D03*
X91528415Y-120157409D03*
X80656015Y-119197309D03*
X88540000Y-120230000D03*
X67328415Y-120357409D03*
X68728415Y-120557409D03*
X78728415Y-100357409D03*
X75928415Y-97357409D03*
X89928415Y-120157409D03*
X79128415Y-97557409D03*
X74128415Y-98157409D03*
X68250000Y-119420000D03*
X68928415Y-97757409D03*
X92928415Y-120157409D03*
X81328415Y-97557409D03*
X75128415Y-99157409D03*
X67829015Y-104973309D03*
X69099015Y-103893809D03*
X65289015Y-103830309D03*
X68550000Y-114150000D03*
X66432015Y-112085309D03*
X67067015Y-114371309D03*
X65162015Y-106878309D03*
X64273015Y-109735809D03*
X66305015Y-104973309D03*
X66940015Y-99639309D03*
X71639015Y-100909309D03*
X77728415Y-97757409D03*
X71928415Y-97957409D03*
D26*
X59927010Y-45669461D03*
D24*
X144740000Y-77400000D03*
X122340000Y-70675000D03*
X118615000Y-74525000D03*
X114839986Y-85225000D03*
X119940000Y-89549986D03*
X123675129Y-91858324D03*
X122340000Y-91049998D03*
X124240000Y-95199999D03*
X132040000Y-78700002D03*
X138840000Y-84500000D03*
X138440000Y-86500000D03*
X131069106Y-82254106D03*
X135265170Y-85500149D03*
X130815000Y-95125000D03*
X148490000Y-75860000D03*
X138677867Y-79088821D03*
X128560000Y-70310000D03*
X139440000Y-96610000D03*
G04 #@! TO.N,+3V3*
X140851577Y-88246190D03*
X127840000Y-62975000D03*
X144265000Y-78828600D03*
X122915000Y-89275000D03*
X124664913Y-93795536D03*
X124664913Y-90700000D03*
X146586080Y-75739996D03*
X132790000Y-62040000D03*
X128480000Y-71750000D03*
X144500000Y-71240000D03*
G04 #@! TO.N,RST*
X127390000Y-81663850D03*
D26*
G04 #@! TO.N,PB4*
X59927010Y-43129461D03*
D24*
X112276489Y-72424979D03*
X140622160Y-66866176D03*
G04 #@! TO.N,PB3*
X107599759Y-72874990D03*
X142220000Y-68380000D03*
G04 #@! TO.N,PA1*
X129315000Y-94400000D03*
G04 #@! TO.N,PA2*
X129265000Y-93375000D03*
G04 #@! TO.N,PA3*
X129340168Y-90550157D03*
G04 #@! TO.N,PA4*
X130691882Y-91325179D03*
G04 #@! TO.N,PA5*
X132265000Y-91099976D03*
G04 #@! TO.N,PA6*
X133440000Y-91200000D03*
G04 #@! TO.N,PA7*
X134587491Y-91070965D03*
G04 #@! TO.N,PB0*
X133914996Y-97625010D03*
G04 #@! TO.N,PB1*
X135091446Y-97625010D03*
G04 #@! TO.N,PB2*
X136465023Y-97650023D03*
G04 #@! TO.N,PB8*
X131320000Y-61020000D03*
X132430000Y-74080000D03*
G04 #@! TO.N,PB9*
X129789998Y-61140000D03*
X131678310Y-74807960D03*
G04 #@! TO.N,PB10*
X137740000Y-97725000D03*
G04 #@! TO.N,PB12*
X142920252Y-86934867D03*
X151041901Y-71725489D03*
X147910000Y-68330000D03*
G04 #@! TO.N,PB13*
X144661006Y-87148778D03*
X150277977Y-72370813D03*
X147170000Y-69110000D03*
G04 #@! TO.N,PB14*
X144275833Y-86225921D03*
X149578593Y-73085576D03*
X146527558Y-69876350D03*
G04 #@! TO.N,PB15*
X144765000Y-85349998D03*
X148898492Y-73818711D03*
X145784151Y-70545207D03*
G04 #@! TO.N,PC0*
X116339984Y-85225000D03*
X126140000Y-81625000D03*
G04 #@! TO.N,PC1*
X117390728Y-85213447D03*
X124740000Y-82100000D03*
G04 #@! TO.N,PC2*
X118390000Y-85175000D03*
X123640000Y-82775000D03*
G04 #@! TO.N,PC3*
X120365000Y-85675000D03*
X122665000Y-83550000D03*
G04 #@! TO.N,PC10*
X139353807Y-74078517D03*
G04 #@! TO.N,PC11*
X139530000Y-72790000D03*
G04 #@! TO.N,PC12*
X137900000Y-73200000D03*
G04 #@! TO.N,PC13*
X127815000Y-77625000D03*
G04 #@! TO.N,PD2*
X139490000Y-71280000D03*
G04 #@! TO.N,PB11*
X138559698Y-90813296D03*
X151740000Y-70960001D03*
X148560000Y-67540000D03*
G04 #@! TO.N,Net-(C16-Pad1)*
X186106760Y-107399180D03*
X188250000Y-65950000D03*
X184050000Y-68200000D03*
X182075780Y-110129680D03*
G04 #@! TO.N,Net-(C16-Pad2)*
X190249500Y-106535580D03*
X190346020Y-116672720D03*
X184582760Y-93685720D03*
X185500000Y-52775000D03*
X190775000Y-78200000D03*
X190750000Y-65600000D03*
X182200000Y-59225000D03*
X180600000Y-100800000D03*
G04 #@! TO.N,Net-(C17-Pad1)*
X182875000Y-65950000D03*
X181850000Y-65950000D03*
X186025000Y-61700000D03*
X184875000Y-61700000D03*
X184875000Y-60650000D03*
X185975000Y-60675000D03*
G04 #@! TO.N,Net-(C20-Pad1)*
X180666080Y-107427120D03*
X179575000Y-107425000D03*
X185750000Y-104550000D03*
X185750000Y-103250000D03*
X184400000Y-103250000D03*
X184400000Y-104550000D03*
G04 #@! TO.N,Net-(C21-Pad1)*
X189850000Y-113000000D03*
G04 #@! TO.N,Net-(C1-Pad1)*
X114080080Y-128019560D03*
X114080080Y-134369560D03*
X158777300Y-135551160D03*
X158015300Y-133773160D03*
X158015300Y-132757160D03*
X158015300Y-131741160D03*
X155983300Y-137075160D03*
X159539286Y-136313160D03*
G04 #@! TO.N,VCC*
X112480000Y-137130000D03*
X110150000Y-135410000D03*
G04 #@! TO.N,Net-(D1-Pad2)*
X152427300Y-116755160D03*
X167159300Y-132757160D03*
G04 #@! TO.N,Net-(D2-Pad2)*
X146585300Y-120819160D03*
X152427300Y-127169160D03*
X163603300Y-129201160D03*
X163603300Y-127169160D03*
G04 #@! TO.N,Net-(J1-Pad1)*
X150903300Y-126153160D03*
X160047300Y-130725160D03*
X156999300Y-126153160D03*
G04 #@! TO.N,Net-(J1-Pad2)*
X158523300Y-128185160D03*
X162587300Y-129201160D03*
X154205300Y-128185160D03*
G04 #@! TO.N,Net-(J1-Pad5)*
X164873300Y-139869160D03*
X151411300Y-131741160D03*
G04 #@! TO.N,Net-(J1-Pad6)*
X164619300Y-138599160D03*
X153697300Y-133519160D03*
G04 #@! TO.N,Net-(J1-Pad7)*
X138711300Y-133011160D03*
X138711300Y-140377160D03*
G04 #@! TO.N,Net-(J1-Pad8)*
X142775300Y-135297160D03*
X142775300Y-138599160D03*
G04 #@! TO.N,Net-(R2-Pad2)*
X168914300Y-137814160D03*
X161063300Y-129455160D03*
G04 #@! TO.N,Net-(R3-Pad2)*
X160047300Y-129709160D03*
X157761300Y-129709160D03*
G04 #@! TO.N,Net-(C1-Pad2)*
X168914300Y-119572160D03*
D25*
G04 #@! TO.N,3.3V*
X89038015Y-96972309D03*
X75928415Y-100357409D03*
X81328415Y-100557409D03*
G04 #@! TO.N,VIN*
X90562015Y-99893309D03*
G04 #@! TO.N,/1PPS*
X80128415Y-100157409D03*
G04 #@! TO.N,/FIX*
X89728415Y-109357409D03*
X79328415Y-117757409D03*
G04 #@! TO.N,/VBACKUP*
X84656515Y-120149809D03*
G04 #@! TO.N,Net-(B1-Pad+$1)*
X81862515Y-120149809D03*
D24*
G04 #@! TO.N,VDD*
X170275000Y-41425000D03*
X163575000Y-39050000D03*
G04 #@! TD*
D27*
G04 #@! TO.N,*
X110339986Y-70675000D02*
X110340000Y-70675014D01*
X110315000Y-70675000D02*
X110339986Y-70675000D01*
G04 #@! TO.N,GND*
X162057000Y-36518000D02*
X156441000Y-36518000D01*
X171173000Y-36264000D02*
X171173000Y-32962000D01*
X171173000Y-32962000D02*
X170411000Y-32200000D01*
X170411000Y-32200000D02*
X166375000Y-32200000D01*
X166375000Y-32200000D02*
X162057000Y-36518000D01*
X163650000Y-43650000D02*
X162075000Y-42075000D01*
X162075000Y-36536000D02*
X162057000Y-36518000D01*
X162075000Y-42075000D02*
X162075000Y-36536000D01*
X170434315Y-45075000D02*
X170409315Y-45050000D01*
X171000000Y-45075000D02*
X170434315Y-45075000D01*
X165050000Y-45050000D02*
X163650000Y-43650000D01*
X170409315Y-45050000D02*
X165050000Y-45050000D01*
D28*
X83450015Y-96972309D02*
X83450015Y-96845309D01*
X89038015Y-115768309D02*
X89292015Y-115768309D01*
D27*
X64143410Y-45694861D02*
X64143410Y-44881590D01*
D29*
X89543410Y-49313410D02*
X89580000Y-49350000D01*
X89543410Y-45694861D02*
X89543410Y-49313410D01*
D30*
X102583120Y-79398520D02*
X102583120Y-81938520D01*
D27*
X121774315Y-91049998D02*
X122340000Y-91049998D01*
X121440012Y-91049998D02*
X121774315Y-91049998D01*
X119940000Y-89549986D02*
X121440012Y-91049998D01*
X123675129Y-94635128D02*
X123840001Y-94800000D01*
X123675129Y-91858324D02*
X123675129Y-94635128D01*
X123840001Y-94800000D02*
X124240000Y-95199999D01*
X138840000Y-84500000D02*
X138839999Y-86100001D01*
X138839999Y-86100001D02*
X138440000Y-86500000D01*
X146950000Y-77400000D02*
X148090001Y-76259999D01*
X148090001Y-76259999D02*
X148490000Y-75860000D01*
X144740000Y-77400000D02*
X146950000Y-77400000D01*
X139040001Y-96210001D02*
X139440000Y-96610000D01*
X137955000Y-95125000D02*
X139040001Y-96210001D01*
X130815000Y-95125000D02*
X137955000Y-95125000D01*
G04 #@! TO.N,+3V3*
X144500000Y-70674315D02*
X144500000Y-71240000D01*
X144500000Y-69380000D02*
X144500000Y-70674315D01*
X137160000Y-62040000D02*
X144500000Y-69380000D01*
X132790000Y-62040000D02*
X137160000Y-62040000D01*
X124664913Y-90700000D02*
X124664913Y-93795536D01*
G04 #@! TO.N,RST*
X119326150Y-73600000D02*
X126990001Y-81263851D01*
X126990001Y-81263851D02*
X127390000Y-81663850D01*
X106325201Y-74318520D02*
X107043721Y-73600000D01*
X107043721Y-73600000D02*
X119326150Y-73600000D01*
X105123120Y-74318520D02*
X106325201Y-74318520D01*
D29*
G04 #@! TO.N,PB4*
X66683410Y-45694861D02*
X66683410Y-44374061D01*
X66683410Y-44374061D02*
X65438810Y-43129461D01*
X65438810Y-43129461D02*
X59901610Y-43129461D01*
D27*
X140222161Y-67266175D02*
X140622160Y-66866176D01*
X130882000Y-75595002D02*
X132317582Y-75595002D01*
X132317582Y-75595002D02*
X140222161Y-67690423D01*
X140222161Y-67690423D02*
X140222161Y-67266175D01*
X127711977Y-72424979D02*
X130882000Y-75595002D01*
X112276489Y-72424979D02*
X127711977Y-72424979D01*
G04 #@! TO.N,PA15*
X157950040Y-60587280D02*
X157950040Y-59385199D01*
X100708600Y-60379000D02*
X100744160Y-60414560D01*
X157950040Y-59385199D02*
X154016241Y-55451400D01*
X154016241Y-55451400D02*
X145156572Y-55451400D01*
X144711642Y-55006470D02*
X106081130Y-55006470D01*
X145156572Y-55451400D02*
X144711642Y-55006470D01*
X106081130Y-55006470D02*
X100708600Y-60379000D01*
X100744160Y-60414560D02*
X100744160Y-84378562D01*
X100744160Y-84378562D02*
X102099714Y-85734116D01*
X102099714Y-85734116D02*
X103838716Y-85734116D01*
X103838716Y-85734116D02*
X104273121Y-86168521D01*
X104273121Y-86168521D02*
X105123120Y-87018520D01*
G04 #@! TO.N,PB3*
X132503982Y-76045013D02*
X140168995Y-68380000D01*
X141654315Y-68380000D02*
X142220000Y-68380000D01*
X108440443Y-73149989D02*
X127800576Y-73149989D01*
X108165444Y-72874990D02*
X108440443Y-73149989D01*
X107599759Y-72874990D02*
X108165444Y-72874990D01*
X130695600Y-76045013D02*
X132503982Y-76045013D01*
X127800576Y-73149989D02*
X130695600Y-76045013D01*
X140168995Y-68380000D02*
X141654315Y-68380000D01*
G04 #@! TO.N,PA1*
X138971998Y-97515002D02*
X138356996Y-96900000D01*
X129315000Y-94965685D02*
X129315000Y-94400000D01*
X156582318Y-97515002D02*
X138971998Y-97515002D01*
X131249315Y-96900000D02*
X129315000Y-94965685D01*
X138356996Y-96900000D02*
X131249315Y-96900000D01*
X157950040Y-96147280D02*
X156582318Y-97515002D01*
G04 #@! TO.N,PA2*
X157950040Y-93607280D02*
X157100041Y-94457279D01*
X129830685Y-93375000D02*
X129265000Y-93375000D01*
X131122281Y-94457279D02*
X130040002Y-93375000D01*
X157100041Y-94457279D02*
X131122281Y-94457279D01*
X130040002Y-93375000D02*
X129830685Y-93375000D01*
G04 #@! TO.N,PA3*
X130990325Y-88900000D02*
X129740167Y-90150158D01*
X159467018Y-89550302D02*
X159467018Y-80529418D01*
X158544400Y-79606800D02*
X157331393Y-79606800D01*
X159467018Y-80529418D02*
X158544400Y-79606800D01*
X157950040Y-91067280D02*
X159467018Y-89550302D01*
X134025200Y-88900000D02*
X130990325Y-88900000D01*
X157331393Y-79606800D02*
X145048367Y-91889826D01*
X137050201Y-91925001D02*
X134025200Y-88900000D01*
X145048367Y-91889826D02*
X138900174Y-91889826D01*
X138900174Y-91889826D02*
X138865000Y-91925000D01*
X129740167Y-90150158D02*
X129340168Y-90550157D01*
X138865000Y-91925000D02*
X137050201Y-91925001D01*
G04 #@! TO.N,PA4*
X131091881Y-91725178D02*
X130691882Y-91325179D01*
X152668835Y-93808485D02*
X133175188Y-93808485D01*
X133175188Y-93808485D02*
X131091881Y-91725178D01*
X157950040Y-88527280D02*
X152668835Y-93808485D01*
G04 #@! TO.N,PA5*
X134483959Y-93318935D02*
X132265000Y-91099976D01*
X150618385Y-93318935D02*
X134483959Y-93318935D01*
X157950040Y-85987280D02*
X150618385Y-93318935D01*
G04 #@! TO.N,PA6*
X137969199Y-92850023D02*
X137948561Y-92829385D01*
X157950040Y-83447280D02*
X148547297Y-92850023D01*
X137948561Y-92829385D02*
X135069385Y-92829385D01*
X148547297Y-92850023D02*
X137969199Y-92850023D01*
X135069385Y-92829385D02*
X133839999Y-91599999D01*
X133839999Y-91599999D02*
X133440000Y-91200000D01*
G04 #@! TO.N,PA7*
X138130599Y-92375012D02*
X135891538Y-92375012D01*
X134987490Y-91470964D02*
X134587491Y-91070965D01*
X138155599Y-92400012D02*
X138130599Y-92375012D01*
X135891538Y-92375012D02*
X134987490Y-91470964D01*
X157950040Y-80907280D02*
X146457308Y-92400012D01*
X146457308Y-92400012D02*
X138155599Y-92400012D01*
G04 #@! TO.N,PB0*
X137623626Y-81241373D02*
X128540000Y-90324999D01*
X130165010Y-97625010D02*
X133349311Y-97625010D01*
X138250864Y-81241373D02*
X137623626Y-81241373D01*
X151965800Y-67526437D02*
X138250864Y-81241373D01*
X128540000Y-90324999D02*
X128540000Y-96000000D01*
X128540000Y-96000000D02*
X130165010Y-97625010D01*
X133349311Y-97625010D02*
X133914996Y-97625010D01*
X151965800Y-57016040D02*
X151965800Y-67526437D01*
G04 #@! TO.N,PB1*
X128089989Y-96186400D02*
X130253601Y-98350012D01*
X151308148Y-67483850D02*
X138000636Y-80791362D01*
X137437226Y-80791362D02*
X128089989Y-90138599D01*
X128089989Y-90138599D02*
X128089989Y-96186400D01*
X134691447Y-98025009D02*
X135091446Y-97625010D01*
X149425800Y-57016040D02*
X151308148Y-58898388D01*
X134366444Y-98350012D02*
X134691447Y-98025009D01*
X130253601Y-98350012D02*
X134366444Y-98350012D01*
X138000636Y-80791362D02*
X137437226Y-80791362D01*
X151308148Y-58898388D02*
X151308148Y-67483850D01*
G04 #@! TO.N,PB2*
X146885800Y-57016040D02*
X150770614Y-60900854D01*
X137250824Y-80341353D02*
X127639978Y-89952199D01*
X137764999Y-78928677D02*
X137764998Y-79827181D01*
X130067201Y-98800023D02*
X135315023Y-98800023D01*
X127639978Y-96372800D02*
X130067201Y-98800023D01*
X127639978Y-89952199D02*
X127639978Y-96372800D01*
X150770614Y-67384974D02*
X139791777Y-78363811D01*
X135315023Y-98800023D02*
X136065024Y-98050022D01*
X136065024Y-98050022D02*
X136465023Y-97650023D01*
X137764998Y-79827181D02*
X137250824Y-80341353D01*
X139791777Y-78363811D02*
X138329865Y-78363811D01*
X138329865Y-78363811D02*
X137764999Y-78928677D01*
X150770614Y-60900854D02*
X150770614Y-67384974D01*
G04 #@! TO.N,PB8*
X131320000Y-61020000D02*
X131320000Y-72970000D01*
X131320000Y-72970000D02*
X132030001Y-73680001D01*
X132030001Y-73680001D02*
X132430000Y-74080000D01*
G04 #@! TO.N,PB9*
X129789998Y-61140000D02*
X129789998Y-72919648D01*
X129789998Y-72919648D02*
X131278311Y-74407961D01*
X131278311Y-74407961D02*
X131678310Y-74807960D01*
G04 #@! TO.N,PB10*
X137314988Y-78742278D02*
X137314988Y-79640780D01*
X126565800Y-57016040D02*
X128125360Y-55456480D01*
X139605378Y-77913800D02*
X138143465Y-77913800D01*
X129880801Y-99250034D02*
X136214966Y-99250034D01*
X136214966Y-99250034D02*
X137340001Y-98124999D01*
X149285001Y-66740496D02*
X149285001Y-68234177D01*
X137340001Y-98124999D02*
X137740000Y-97725000D01*
X149285001Y-68234177D02*
X139605378Y-77913800D01*
X127189967Y-89765799D02*
X127189967Y-96559200D01*
X136800814Y-80154952D02*
X127189967Y-89765799D01*
X138143465Y-77913800D02*
X137314988Y-78742278D01*
X137314988Y-79640780D02*
X136800814Y-80154952D01*
X128125360Y-55456480D02*
X144525242Y-55456480D01*
X127189967Y-96559200D02*
X129880801Y-99250034D01*
X145710799Y-63166294D02*
X149285001Y-66740496D01*
X145710799Y-56642037D02*
X145710799Y-63166294D01*
X144525242Y-55456480D02*
X145710799Y-56642037D01*
G04 #@! TO.N,PB12*
X145037499Y-87873788D02*
X146536812Y-86374475D01*
X142920252Y-86934867D02*
X143859173Y-87873788D01*
X146536812Y-86374475D02*
X146536812Y-85557210D01*
X151441900Y-72125488D02*
X151041901Y-71725489D01*
X146536812Y-85557210D02*
X151441900Y-80652122D01*
X151441900Y-80652122D02*
X151441900Y-72125488D01*
X143859173Y-87873788D02*
X145037499Y-87873788D01*
X147510001Y-67930001D02*
X147910000Y-68330000D01*
X138229955Y-58649955D02*
X147510001Y-67930001D01*
X123119715Y-58649955D02*
X138229955Y-58649955D01*
X121485800Y-57016040D02*
X123119715Y-58649955D01*
G04 #@! TO.N,PB13*
X144661006Y-87148778D02*
X145061005Y-86748779D01*
X150677976Y-72770812D02*
X150277977Y-72370813D01*
X146086801Y-85737616D02*
X146086801Y-85370810D01*
X145061005Y-86748779D02*
X145075638Y-86748779D01*
X146086801Y-85370810D02*
X150677976Y-80779635D01*
X145075638Y-86748779D02*
X146086801Y-85737616D01*
X150677976Y-80779635D02*
X150677976Y-72770812D01*
X146770001Y-68710001D02*
X147170000Y-69110000D01*
X118945800Y-57016040D02*
X121029726Y-59099966D01*
X137159966Y-59099966D02*
X146770001Y-68710001D01*
X121029726Y-59099966D02*
X137159966Y-59099966D01*
G04 #@! TO.N,PB14*
X144962085Y-86225921D02*
X145636790Y-85551216D01*
X149978592Y-73485575D02*
X149578593Y-73085576D01*
X145636790Y-85184411D02*
X149978592Y-80842609D01*
X149978592Y-80842609D02*
X149978592Y-73485575D01*
X144275833Y-86225921D02*
X144962085Y-86225921D01*
X145636790Y-85551216D02*
X145636790Y-85184411D01*
X146527558Y-69480562D02*
X146527558Y-69876350D01*
X116405800Y-57016040D02*
X118939737Y-59549977D01*
X118939737Y-59549977D02*
X136596973Y-59549977D01*
X136596973Y-59549977D02*
X146527558Y-69480562D01*
G04 #@! TO.N,PB15*
X144765000Y-85349998D02*
X149298491Y-80816507D01*
X149298491Y-80816507D02*
X149298491Y-74218710D01*
X149298491Y-74218710D02*
X148898492Y-73818711D01*
X145784151Y-69598466D02*
X145784151Y-69979522D01*
X136185673Y-59999988D02*
X145784151Y-69598466D01*
X116849748Y-59999988D02*
X136185673Y-59999988D01*
X113865800Y-57016040D02*
X116849748Y-59999988D01*
X145784151Y-69979522D02*
X145784151Y-70545207D01*
G04 #@! TO.N,PC0*
X116339984Y-85225000D02*
X120339983Y-81225001D01*
X120339983Y-81225001D02*
X125740001Y-81225001D01*
X125740001Y-81225001D02*
X126140000Y-81625000D01*
G04 #@! TO.N,PC1*
X117390728Y-85126268D02*
X120816995Y-81700001D01*
X120816995Y-81700001D02*
X124340001Y-81700001D01*
X117390728Y-85213447D02*
X117390728Y-85126268D01*
X124340001Y-81700001D02*
X124740000Y-82100000D01*
G04 #@! TO.N,PC2*
X118390000Y-85175000D02*
X120790000Y-82775000D01*
X120790000Y-82775000D02*
X123074315Y-82775000D01*
X123074315Y-82775000D02*
X123640000Y-82775000D01*
G04 #@! TO.N,PC3*
X120365000Y-85675000D02*
X122490000Y-83550000D01*
X122490000Y-83550000D02*
X122665000Y-83550000D01*
G04 #@! TO.N,PC10*
X139072760Y-102238200D02*
X137884638Y-101050078D01*
X135514944Y-77917380D02*
X138953808Y-74478516D01*
X137884638Y-101050078D02*
X129135201Y-101050078D01*
X125389923Y-97304800D02*
X125389923Y-89020199D01*
X138953808Y-74478516D02*
X139353807Y-74078517D01*
X125389923Y-89020199D02*
X125653534Y-88756588D01*
X129135201Y-101050078D02*
X125389923Y-97304800D01*
X135514944Y-78895182D02*
X135514944Y-77917380D01*
X125653534Y-88756588D02*
X127113173Y-87296952D01*
X127113173Y-87296952D02*
X135514944Y-78895182D01*
G04 #@! TO.N,PC11*
X139974627Y-100600067D02*
X129321601Y-100600067D01*
X129321601Y-100600067D02*
X125839934Y-97118400D01*
X140169377Y-73429377D02*
X139929999Y-73189999D01*
X141612760Y-102238200D02*
X139974627Y-100600067D01*
X135964955Y-78183078D02*
X138322895Y-75825138D01*
X125839934Y-97118400D02*
X125839934Y-89206599D01*
X125839934Y-89206599D02*
X126306817Y-88739718D01*
X140169377Y-74950623D02*
X140169377Y-73429377D01*
X138322895Y-75825138D02*
X139294862Y-75825138D01*
X139929999Y-73189999D02*
X139530000Y-72790000D01*
X139294862Y-75825138D02*
X140169377Y-74950623D01*
X135964955Y-79081581D02*
X135964955Y-78183078D01*
X126306817Y-88739718D02*
X135964955Y-79081581D01*
G04 #@! TO.N,PC12*
X139035002Y-72064998D02*
X140104998Y-72064998D01*
X129508001Y-100150056D02*
X142064616Y-100150056D01*
X137900000Y-73200000D02*
X139035002Y-72064998D01*
X134538076Y-81144869D02*
X126289945Y-89392999D01*
X140104998Y-72064998D02*
X141010009Y-72970009D01*
X141010009Y-74756401D02*
X138752632Y-77013778D01*
X126289945Y-89392999D02*
X126289945Y-96932000D01*
X141010009Y-72970009D02*
X141010009Y-74756401D01*
X138752632Y-77013778D02*
X137770665Y-77013778D01*
X137770665Y-77013778D02*
X136414966Y-78369478D01*
X126289945Y-96932000D02*
X129508001Y-100150056D01*
X136414966Y-78369478D02*
X136414966Y-79267981D01*
X143302761Y-101388201D02*
X144152760Y-102238200D01*
X136414966Y-79267981D02*
X134538076Y-81144869D01*
X142064616Y-100150056D02*
X143302761Y-101388201D01*
G04 #@! TO.N,PC13*
X146692760Y-102238200D02*
X145062080Y-103868880D01*
X145062080Y-103868880D02*
X120993040Y-103868880D01*
X128214999Y-85558718D02*
X128214999Y-78024999D01*
X120022760Y-102898600D02*
X120022760Y-94490242D01*
X120022760Y-94490242D02*
X123115001Y-91398001D01*
X120993040Y-103868880D02*
X120022760Y-102898600D01*
X123115001Y-91398001D02*
X123115001Y-90658716D01*
X123115001Y-90658716D02*
X128214999Y-85558718D01*
X128214999Y-78024999D02*
X127815000Y-77625000D01*
G04 #@! TO.N,PD2*
X137957065Y-77463789D02*
X139106211Y-77463789D01*
X136864977Y-78555878D02*
X137957065Y-77463789D01*
X126739956Y-89579399D02*
X136864977Y-79454380D01*
X149234605Y-99700045D02*
X129694401Y-99700045D01*
X141620011Y-74949989D02*
X141620011Y-72844326D01*
X136864977Y-79454380D02*
X136864977Y-78555878D01*
X139106211Y-77463789D02*
X141620011Y-74949989D01*
X151772760Y-102238200D02*
X149234605Y-99700045D01*
X129694401Y-99700045D02*
X126739956Y-96745600D01*
X126739956Y-96745600D02*
X126739956Y-89579399D01*
X140055685Y-71280000D02*
X139490000Y-71280000D01*
X141620011Y-72844326D02*
X140055685Y-71280000D01*
G04 #@! TO.N,PB11*
X152139999Y-80590433D02*
X152139999Y-71360000D01*
X142734402Y-90813296D02*
X146986823Y-86560875D01*
X138559698Y-90813296D02*
X142734402Y-90813296D01*
X146986823Y-86560875D02*
X146986823Y-85743609D01*
X146986823Y-85743609D02*
X152139999Y-80590433D01*
X152139999Y-71360000D02*
X151740000Y-70960001D01*
X148160001Y-67140001D02*
X148560000Y-67540000D01*
X139219944Y-58199944D02*
X148160001Y-67140001D01*
X124025800Y-57016040D02*
X125209704Y-58199944D01*
X125209704Y-58199944D02*
X139219944Y-58199944D01*
D30*
G04 #@! TO.N,Net-(C16-Pad1)*
X188250000Y-65950000D02*
X186000000Y-68200000D01*
X186000000Y-68200000D02*
X184050000Y-68200000D01*
X183376260Y-110129680D02*
X186106760Y-107399180D01*
X182075780Y-110129680D02*
X183376260Y-110129680D01*
G04 #@! TO.N,Net-(C17-Pad1)*
X182875000Y-65950000D02*
X182875000Y-61825000D01*
X183000000Y-61700000D02*
X184875000Y-61700000D01*
X182875000Y-61825000D02*
X183000000Y-61700000D01*
X181850000Y-65950000D02*
X181850000Y-60800000D01*
X182000000Y-60650000D02*
X184875000Y-60650000D01*
X181850000Y-60800000D02*
X182000000Y-60650000D01*
D31*
G04 #@! TO.N,Net-(C18-Pad1)*
X178850000Y-72960000D02*
X179175000Y-73285000D01*
X178850000Y-62160000D02*
X178850000Y-72960000D01*
D30*
G04 #@! TO.N,Net-(C21-Pad1)*
X189284300Y-112434300D02*
X189284300Y-90802820D01*
X189850000Y-113000000D02*
X189284300Y-112434300D01*
D27*
G04 #@! TO.N,Net-(C1-Pad1)*
X114080080Y-128019560D02*
X114080080Y-134369560D01*
X155983300Y-136313160D02*
X155983300Y-135551160D01*
X155983300Y-135551160D02*
X155983300Y-133773160D01*
X155983300Y-133773160D02*
X155983300Y-132757160D01*
X155983300Y-132757160D02*
X155983300Y-131741160D01*
X155983300Y-131741160D02*
X155983300Y-122089160D01*
X158777300Y-135551160D02*
X155983300Y-135551160D01*
X158015300Y-133773160D02*
X155983300Y-133773160D01*
X158015300Y-132757160D02*
X155983300Y-132757160D01*
X158015300Y-131741160D02*
X155983300Y-131741160D01*
X155983300Y-137075160D02*
X155983300Y-136313160D01*
X155983300Y-136313160D02*
X159539286Y-136313160D01*
D29*
G04 #@! TO.N,VCC*
X87003410Y-49313410D02*
X87040000Y-49350000D01*
X87003410Y-45694861D02*
X87003410Y-49313410D01*
D27*
X112480000Y-137130000D02*
X110760000Y-135410000D01*
X110760000Y-135410000D02*
X110715685Y-135410000D01*
X110715685Y-135410000D02*
X110150000Y-135410000D01*
G04 #@! TO.N,Net-(D1-Pad2)*
X167159300Y-132757160D02*
X170715300Y-132757160D01*
X170715300Y-132757160D02*
X170715300Y-117009160D01*
X170715300Y-117009160D02*
X170461300Y-116755160D01*
X170461300Y-116755160D02*
X152427300Y-116755160D01*
G04 #@! TO.N,Net-(D2-Pad2)*
X146585300Y-120819160D02*
X147601300Y-120819160D01*
X152427300Y-127169160D02*
X152427300Y-120819160D01*
X163603300Y-129201160D02*
X163603300Y-127169160D01*
X152427300Y-120819160D02*
X147601300Y-120819160D01*
G04 #@! TO.N,Net-(J1-Pad1)*
X134651300Y-117517160D02*
X134648301Y-117514161D01*
X139981300Y-117517160D02*
X134651300Y-117517160D01*
X147093300Y-122343160D02*
X139981300Y-122343160D01*
X150903300Y-126153160D02*
X147093300Y-122343160D01*
X156999300Y-130725160D02*
X156999300Y-126153160D01*
X160047300Y-130725160D02*
X156999300Y-130725160D01*
X139981300Y-122343160D02*
X139981300Y-117517160D01*
G04 #@! TO.N,Net-(J1-Pad2)*
X134905300Y-120311160D02*
X134648301Y-120054161D01*
X137695300Y-120311160D02*
X134905300Y-120311160D01*
X162587300Y-129201160D02*
X161571300Y-128185160D01*
X161571300Y-128185160D02*
X158523300Y-128185160D01*
X154205300Y-128185160D02*
X140743300Y-128185160D01*
X140743300Y-128185160D02*
X137695300Y-125137160D01*
X137695300Y-125137160D02*
X137695300Y-120311160D01*
G04 #@! TO.N,Net-(J1-Pad5)*
X151411300Y-139869160D02*
X151411300Y-131741160D01*
X164873300Y-139869160D02*
X151411300Y-139869160D01*
G04 #@! TO.N,Net-(J1-Pad6)*
X153697300Y-139107160D02*
X153697300Y-133519160D01*
X164619300Y-138599160D02*
X164111300Y-139107160D01*
X164111300Y-139107160D02*
X153697300Y-139107160D01*
G04 #@! TO.N,Net-(J1-Pad7)*
X138711300Y-140377160D02*
X138711300Y-133011160D01*
G04 #@! TO.N,Net-(J1-Pad8)*
X142775300Y-138599160D02*
X142775300Y-135297160D01*
G04 #@! TO.N,Net-(R2-Pad2)*
X161825300Y-130217160D02*
X161063300Y-129455160D01*
X163857300Y-130217160D02*
X161825300Y-130217160D01*
X166143300Y-132503160D02*
X163857300Y-130217160D01*
X166143300Y-133519160D02*
X166143300Y-132503160D01*
X166905300Y-137837160D02*
X168891300Y-137837160D01*
X168891300Y-137837160D02*
X168914300Y-137814160D01*
X166905300Y-137837160D02*
X166905300Y-134281160D01*
X166143300Y-133519160D02*
X166905300Y-134281160D01*
G04 #@! TO.N,Net-(R3-Pad2)*
X160047300Y-129709160D02*
X157761300Y-129709160D01*
G04 #@! TO.N,Net-(C1-Pad2)*
X155983300Y-119549160D02*
X168891300Y-119549160D01*
X168891300Y-119549160D02*
X168914300Y-119572160D01*
D28*
G04 #@! TO.N,3.3V*
X89038015Y-96972309D02*
X89038015Y-97480309D01*
X89038015Y-97480309D02*
X87641015Y-98877309D01*
X87641015Y-98877309D02*
X83323015Y-98877309D01*
X78370015Y-98877309D02*
X76592015Y-100655309D01*
X76381614Y-100810608D02*
X75928415Y-100357409D01*
D27*
X76436716Y-100810608D02*
X76381614Y-100810608D01*
D28*
X76592015Y-100655309D02*
X76436716Y-100810608D01*
D27*
X81328415Y-98877309D02*
X81328415Y-100557409D01*
D28*
X83323015Y-98877309D02*
X81328415Y-98877309D01*
X81328415Y-98877309D02*
X78370015Y-98877309D01*
D32*
G04 #@! TO.N,/1PPS*
X93610015Y-98496309D02*
X94245015Y-98496309D01*
D27*
X80128415Y-100798330D02*
X80128415Y-100157409D01*
X82509193Y-103179108D02*
X80128415Y-100798330D01*
X89562216Y-103179108D02*
X82509193Y-103179108D01*
X94245015Y-98496309D02*
X89562216Y-103179108D01*
D33*
G04 #@! TO.N,/FIX*
X82728415Y-116357409D02*
X89728415Y-109357409D01*
X82728415Y-117757409D02*
X82728415Y-116357409D01*
X82728415Y-117757409D02*
X79328415Y-117757409D01*
D32*
G04 #@! TO.N,/VBACKUP*
X84593015Y-117546309D02*
X88403015Y-113736309D01*
X88403015Y-113736309D02*
X94245015Y-113736309D01*
X84593015Y-117546309D02*
X84593015Y-120086309D01*
X84593015Y-120086309D02*
X84656515Y-120149809D01*
G04 #@! TO.N,Net-(B1-Pad+$1)*
X69226015Y-116881709D02*
X69226015Y-118371809D01*
X69226015Y-118371809D02*
X71575515Y-120721309D01*
X71575515Y-120721309D02*
X81354515Y-120721309D01*
X69226015Y-116881709D02*
X66846915Y-116881709D01*
X66846915Y-116881709D02*
X62431515Y-112466309D01*
X62431515Y-112466309D02*
X62431515Y-105290809D01*
X62431515Y-105290809D02*
X67291415Y-100430909D01*
X67291415Y-100430909D02*
X69226015Y-100430909D01*
X81354515Y-120721309D02*
X81862515Y-120213309D01*
X81862515Y-120213309D02*
X81862515Y-120149809D01*
D27*
G04 #@! TO.N,VDD*
X167900000Y-39050000D02*
X163575000Y-39050000D01*
X170275000Y-41425000D02*
X167900000Y-39050000D01*
D29*
G04 #@! TO.N,/D4*
X84463410Y-49313410D02*
X84500000Y-49350000D01*
X84463410Y-45694861D02*
X84463410Y-49313410D01*
G04 #@! TO.N,/D3*
X92083410Y-49313410D02*
X92120000Y-49350000D01*
X92083410Y-45694861D02*
X92083410Y-49313410D01*
G04 #@! TD*
D32*
G04 #@! TO.N,Net-(C16-Pad2)*
G36*
X191388810Y-88660217D02*
X191417781Y-119340301D01*
X177275531Y-119405174D01*
X177301545Y-109923806D01*
X181040780Y-109923806D01*
X181040780Y-110335554D01*
X181198349Y-110715960D01*
X181489500Y-111007111D01*
X181869906Y-111164680D01*
X182281654Y-111164680D01*
X182523076Y-111064680D01*
X183284174Y-111064680D01*
X183376260Y-111082997D01*
X183468346Y-111064680D01*
X183741079Y-111010430D01*
X184050357Y-110803777D01*
X184102521Y-110725708D01*
X186451619Y-108376610D01*
X186693040Y-108276611D01*
X186984191Y-107985460D01*
X187141760Y-107605054D01*
X187141760Y-107193306D01*
X186984191Y-106812900D01*
X186693040Y-106521749D01*
X186312634Y-106364180D01*
X185900886Y-106364180D01*
X185520480Y-106521749D01*
X185229329Y-106812900D01*
X185129330Y-107054321D01*
X182988971Y-109194680D01*
X182523076Y-109194680D01*
X182281654Y-109094680D01*
X181869906Y-109094680D01*
X181489500Y-109252249D01*
X181198349Y-109543400D01*
X181040780Y-109923806D01*
X177301545Y-109923806D01*
X177321297Y-102725000D01*
X178340000Y-102725000D01*
X178340000Y-107875000D01*
X178388336Y-108118004D01*
X178525987Y-108324013D01*
X178731996Y-108461664D01*
X178975000Y-108510000D01*
X181225000Y-108510000D01*
X181468004Y-108461664D01*
X181674013Y-108324013D01*
X181811664Y-108118004D01*
X181860000Y-107875000D01*
X181860000Y-105688135D01*
X186296872Y-105709992D01*
X186543004Y-105661664D01*
X186749013Y-105524013D01*
X186886664Y-105318004D01*
X186935000Y-105075000D01*
X186935000Y-102750000D01*
X186887489Y-102509000D01*
X186750543Y-102302522D01*
X186545005Y-102164169D01*
X186302167Y-102115004D01*
X178977167Y-102090004D01*
X178731996Y-102138336D01*
X178525987Y-102275987D01*
X178388336Y-102481996D01*
X178340000Y-102725000D01*
X177321297Y-102725000D01*
X177334167Y-98034364D01*
X178314840Y-98561847D01*
X178373329Y-98576989D01*
X180273329Y-98601989D01*
X180329472Y-98589725D01*
X180369229Y-98560147D01*
X180394640Y-98517605D01*
X180401838Y-98468578D01*
X180301838Y-96493578D01*
X180290938Y-96448160D01*
X180262274Y-96407739D01*
X180220324Y-96381363D01*
X180171474Y-96373049D01*
X179616609Y-96388462D01*
X179876438Y-96336779D01*
X180367645Y-96008565D01*
X180695859Y-95517358D01*
X180811112Y-94937940D01*
X180695859Y-94358522D01*
X180367645Y-93867315D01*
X179876438Y-93539101D01*
X179443276Y-93452940D01*
X179150764Y-93452940D01*
X178717602Y-93539101D01*
X178226395Y-93867315D01*
X177898181Y-94358522D01*
X177782928Y-94937940D01*
X177898181Y-95517358D01*
X178226395Y-96008565D01*
X178717602Y-96336779D01*
X179055754Y-96404041D01*
X178404246Y-96422139D01*
X177340102Y-95871506D01*
X177356341Y-89952820D01*
X177626860Y-89952820D01*
X177626860Y-91652820D01*
X177676143Y-91900585D01*
X177816491Y-92110629D01*
X178026535Y-92250977D01*
X178274300Y-92300260D01*
X179974300Y-92300260D01*
X180222065Y-92250977D01*
X180432109Y-92110629D01*
X180572457Y-91900585D01*
X180581484Y-91855201D01*
X180593675Y-91873445D01*
X181084882Y-92201659D01*
X181518044Y-92287820D01*
X181810556Y-92287820D01*
X182243718Y-92201659D01*
X182734925Y-91873445D01*
X182934300Y-91575059D01*
X183133675Y-91873445D01*
X183624882Y-92201659D01*
X184058044Y-92287820D01*
X184350556Y-92287820D01*
X184783718Y-92201659D01*
X185274925Y-91873445D01*
X185474300Y-91575059D01*
X185673675Y-91873445D01*
X186164882Y-92201659D01*
X186598044Y-92287820D01*
X186890556Y-92287820D01*
X187323718Y-92201659D01*
X187814925Y-91873445D01*
X188014300Y-91575059D01*
X188213675Y-91873445D01*
X188349301Y-91964067D01*
X188349300Y-112342214D01*
X188330983Y-112434300D01*
X188349300Y-112526385D01*
X188403550Y-112799118D01*
X188610203Y-113108397D01*
X188688273Y-113160562D01*
X188872569Y-113344857D01*
X188972569Y-113586280D01*
X189263720Y-113877431D01*
X189644126Y-114035000D01*
X190055874Y-114035000D01*
X190436280Y-113877431D01*
X190727431Y-113586280D01*
X190885000Y-113205874D01*
X190885000Y-112794126D01*
X190727431Y-112413720D01*
X190436280Y-112122569D01*
X190219300Y-112032693D01*
X190219300Y-91964067D01*
X190354925Y-91873445D01*
X190683139Y-91382238D01*
X190798392Y-90802820D01*
X190683139Y-90223402D01*
X190354925Y-89732195D01*
X189863718Y-89403981D01*
X189430556Y-89317820D01*
X189138044Y-89317820D01*
X188704882Y-89403981D01*
X188213675Y-89732195D01*
X188014300Y-90030581D01*
X187814925Y-89732195D01*
X187323718Y-89403981D01*
X186890556Y-89317820D01*
X186598044Y-89317820D01*
X186164882Y-89403981D01*
X185673675Y-89732195D01*
X185474300Y-90030581D01*
X185274925Y-89732195D01*
X184783718Y-89403981D01*
X184350556Y-89317820D01*
X184058044Y-89317820D01*
X183624882Y-89403981D01*
X183133675Y-89732195D01*
X182934300Y-90030581D01*
X182734925Y-89732195D01*
X182243718Y-89403981D01*
X181810556Y-89317820D01*
X181518044Y-89317820D01*
X181084882Y-89403981D01*
X180593675Y-89732195D01*
X180581484Y-89750439D01*
X180572457Y-89705055D01*
X180432109Y-89495011D01*
X180222065Y-89354663D01*
X179974300Y-89305380D01*
X178274300Y-89305380D01*
X178026535Y-89354663D01*
X177816491Y-89495011D01*
X177676143Y-89705055D01*
X177626860Y-89952820D01*
X177356341Y-89952820D01*
X177359922Y-88647743D01*
X191388810Y-88660217D01*
X191388810Y-88660217D01*
G37*
X191388810Y-88660217D02*
X191417781Y-119340301D01*
X177275531Y-119405174D01*
X177301545Y-109923806D01*
X181040780Y-109923806D01*
X181040780Y-110335554D01*
X181198349Y-110715960D01*
X181489500Y-111007111D01*
X181869906Y-111164680D01*
X182281654Y-111164680D01*
X182523076Y-111064680D01*
X183284174Y-111064680D01*
X183376260Y-111082997D01*
X183468346Y-111064680D01*
X183741079Y-111010430D01*
X184050357Y-110803777D01*
X184102521Y-110725708D01*
X186451619Y-108376610D01*
X186693040Y-108276611D01*
X186984191Y-107985460D01*
X187141760Y-107605054D01*
X187141760Y-107193306D01*
X186984191Y-106812900D01*
X186693040Y-106521749D01*
X186312634Y-106364180D01*
X185900886Y-106364180D01*
X185520480Y-106521749D01*
X185229329Y-106812900D01*
X185129330Y-107054321D01*
X182988971Y-109194680D01*
X182523076Y-109194680D01*
X182281654Y-109094680D01*
X181869906Y-109094680D01*
X181489500Y-109252249D01*
X181198349Y-109543400D01*
X181040780Y-109923806D01*
X177301545Y-109923806D01*
X177321297Y-102725000D01*
X178340000Y-102725000D01*
X178340000Y-107875000D01*
X178388336Y-108118004D01*
X178525987Y-108324013D01*
X178731996Y-108461664D01*
X178975000Y-108510000D01*
X181225000Y-108510000D01*
X181468004Y-108461664D01*
X181674013Y-108324013D01*
X181811664Y-108118004D01*
X181860000Y-107875000D01*
X181860000Y-105688135D01*
X186296872Y-105709992D01*
X186543004Y-105661664D01*
X186749013Y-105524013D01*
X186886664Y-105318004D01*
X186935000Y-105075000D01*
X186935000Y-102750000D01*
X186887489Y-102509000D01*
X186750543Y-102302522D01*
X186545005Y-102164169D01*
X186302167Y-102115004D01*
X178977167Y-102090004D01*
X178731996Y-102138336D01*
X178525987Y-102275987D01*
X178388336Y-102481996D01*
X178340000Y-102725000D01*
X177321297Y-102725000D01*
X177334167Y-98034364D01*
X178314840Y-98561847D01*
X178373329Y-98576989D01*
X180273329Y-98601989D01*
X180329472Y-98589725D01*
X180369229Y-98560147D01*
X180394640Y-98517605D01*
X180401838Y-98468578D01*
X180301838Y-96493578D01*
X180290938Y-96448160D01*
X180262274Y-96407739D01*
X180220324Y-96381363D01*
X180171474Y-96373049D01*
X179616609Y-96388462D01*
X179876438Y-96336779D01*
X180367645Y-96008565D01*
X180695859Y-95517358D01*
X180811112Y-94937940D01*
X180695859Y-94358522D01*
X180367645Y-93867315D01*
X179876438Y-93539101D01*
X179443276Y-93452940D01*
X179150764Y-93452940D01*
X178717602Y-93539101D01*
X178226395Y-93867315D01*
X177898181Y-94358522D01*
X177782928Y-94937940D01*
X177898181Y-95517358D01*
X178226395Y-96008565D01*
X178717602Y-96336779D01*
X179055754Y-96404041D01*
X178404246Y-96422139D01*
X177340102Y-95871506D01*
X177356341Y-89952820D01*
X177626860Y-89952820D01*
X177626860Y-91652820D01*
X177676143Y-91900585D01*
X177816491Y-92110629D01*
X178026535Y-92250977D01*
X178274300Y-92300260D01*
X179974300Y-92300260D01*
X180222065Y-92250977D01*
X180432109Y-92110629D01*
X180572457Y-91900585D01*
X180581484Y-91855201D01*
X180593675Y-91873445D01*
X181084882Y-92201659D01*
X181518044Y-92287820D01*
X181810556Y-92287820D01*
X182243718Y-92201659D01*
X182734925Y-91873445D01*
X182934300Y-91575059D01*
X183133675Y-91873445D01*
X183624882Y-92201659D01*
X184058044Y-92287820D01*
X184350556Y-92287820D01*
X184783718Y-92201659D01*
X185274925Y-91873445D01*
X185474300Y-91575059D01*
X185673675Y-91873445D01*
X186164882Y-92201659D01*
X186598044Y-92287820D01*
X186890556Y-92287820D01*
X187323718Y-92201659D01*
X187814925Y-91873445D01*
X188014300Y-91575059D01*
X188213675Y-91873445D01*
X188349301Y-91964067D01*
X188349300Y-112342214D01*
X188330983Y-112434300D01*
X188349300Y-112526385D01*
X188403550Y-112799118D01*
X188610203Y-113108397D01*
X188688273Y-113160562D01*
X188872569Y-113344857D01*
X188972569Y-113586280D01*
X189263720Y-113877431D01*
X189644126Y-114035000D01*
X190055874Y-114035000D01*
X190436280Y-113877431D01*
X190727431Y-113586280D01*
X190885000Y-113205874D01*
X190885000Y-112794126D01*
X190727431Y-112413720D01*
X190436280Y-112122569D01*
X190219300Y-112032693D01*
X190219300Y-91964067D01*
X190354925Y-91873445D01*
X190683139Y-91382238D01*
X190798392Y-90802820D01*
X190683139Y-90223402D01*
X190354925Y-89732195D01*
X189863718Y-89403981D01*
X189430556Y-89317820D01*
X189138044Y-89317820D01*
X188704882Y-89403981D01*
X188213675Y-89732195D01*
X188014300Y-90030581D01*
X187814925Y-89732195D01*
X187323718Y-89403981D01*
X186890556Y-89317820D01*
X186598044Y-89317820D01*
X186164882Y-89403981D01*
X185673675Y-89732195D01*
X185474300Y-90030581D01*
X185274925Y-89732195D01*
X184783718Y-89403981D01*
X184350556Y-89317820D01*
X184058044Y-89317820D01*
X183624882Y-89403981D01*
X183133675Y-89732195D01*
X182934300Y-90030581D01*
X182734925Y-89732195D01*
X182243718Y-89403981D01*
X181810556Y-89317820D01*
X181518044Y-89317820D01*
X181084882Y-89403981D01*
X180593675Y-89732195D01*
X180581484Y-89750439D01*
X180572457Y-89705055D01*
X180432109Y-89495011D01*
X180222065Y-89354663D01*
X179974300Y-89305380D01*
X178274300Y-89305380D01*
X178026535Y-89354663D01*
X177816491Y-89495011D01*
X177676143Y-89705055D01*
X177626860Y-89952820D01*
X177356341Y-89952820D01*
X177359922Y-88647743D01*
X191388810Y-88660217D01*
G36*
X191496369Y-50220780D02*
X191521258Y-81140561D01*
X179004586Y-81197977D01*
X180283259Y-80537849D01*
X180318146Y-80511330D01*
X180344092Y-80469113D01*
X180351909Y-80420181D01*
X180276909Y-78445181D01*
X180265352Y-78396868D01*
X180236238Y-78356769D01*
X180193996Y-78330864D01*
X180145056Y-78323096D01*
X178220056Y-78398096D01*
X178190411Y-78402801D01*
X178146280Y-78425340D01*
X177385224Y-79026486D01*
X177431990Y-62643036D01*
X177451161Y-62739418D01*
X177779375Y-63230625D01*
X177865000Y-63287838D01*
X177865001Y-72572624D01*
X177776161Y-72705582D01*
X177660908Y-73285000D01*
X177776161Y-73864418D01*
X178104375Y-74355625D01*
X178595582Y-74683839D01*
X179028744Y-74770000D01*
X179321256Y-74770000D01*
X179754418Y-74683839D01*
X180245625Y-74355625D01*
X180573839Y-73864418D01*
X180689092Y-73285000D01*
X180573839Y-72705582D01*
X180245625Y-72214375D01*
X179835000Y-71940004D01*
X179835000Y-67994126D01*
X183015000Y-67994126D01*
X183015000Y-68405874D01*
X183172569Y-68786280D01*
X183463720Y-69077431D01*
X183844126Y-69235000D01*
X184255874Y-69235000D01*
X184497296Y-69135000D01*
X185907914Y-69135000D01*
X186000000Y-69153317D01*
X186092086Y-69135000D01*
X186364819Y-69080750D01*
X186674097Y-68874097D01*
X186726261Y-68796028D01*
X188594858Y-66927431D01*
X188836280Y-66827431D01*
X189127431Y-66536280D01*
X189285000Y-66155874D01*
X189285000Y-65744126D01*
X189127431Y-65363720D01*
X188836280Y-65072569D01*
X188455874Y-64915000D01*
X188044126Y-64915000D01*
X187663720Y-65072569D01*
X187372569Y-65363720D01*
X187272569Y-65605142D01*
X185612711Y-67265000D01*
X184497296Y-67265000D01*
X184255874Y-67165000D01*
X183844126Y-67165000D01*
X183463720Y-67322569D01*
X183172569Y-67613720D01*
X183015000Y-67994126D01*
X179835000Y-67994126D01*
X179835000Y-63287838D01*
X179920625Y-63230625D01*
X180248839Y-62739418D01*
X180364092Y-62160000D01*
X180248839Y-61580582D01*
X179920625Y-61089375D01*
X179622239Y-60890000D01*
X179920625Y-60690625D01*
X180248839Y-60199418D01*
X180258668Y-60150000D01*
X180765000Y-60150000D01*
X180765000Y-66425000D01*
X180813336Y-66668004D01*
X180950987Y-66874013D01*
X181156996Y-67011664D01*
X181400000Y-67060000D01*
X183275000Y-67060000D01*
X183518004Y-67011664D01*
X183724013Y-66874013D01*
X183861664Y-66668004D01*
X183910000Y-66425000D01*
X183910000Y-62880208D01*
X186579810Y-62859982D01*
X186818004Y-62811664D01*
X187024013Y-62674013D01*
X187161664Y-62468004D01*
X187210000Y-62225000D01*
X187210000Y-60150000D01*
X187161664Y-59906996D01*
X187024013Y-59700987D01*
X186818004Y-59563336D01*
X186575000Y-59515000D01*
X181400000Y-59515000D01*
X181156996Y-59563336D01*
X180950987Y-59700987D01*
X180813336Y-59906996D01*
X180765000Y-60150000D01*
X180258668Y-60150000D01*
X180364092Y-59620000D01*
X180248839Y-59040582D01*
X179920625Y-58549375D01*
X179622239Y-58350000D01*
X179920625Y-58150625D01*
X180248839Y-57659418D01*
X180364092Y-57080000D01*
X180248839Y-56500582D01*
X179920625Y-56009375D01*
X179622239Y-55810000D01*
X179920625Y-55610625D01*
X180248839Y-55119418D01*
X180364092Y-54540000D01*
X180985908Y-54540000D01*
X181101161Y-55119418D01*
X181429375Y-55610625D01*
X181727761Y-55810000D01*
X181429375Y-56009375D01*
X181101161Y-56500582D01*
X180985908Y-57080000D01*
X181101161Y-57659418D01*
X181429375Y-58150625D01*
X181920582Y-58478839D01*
X182353744Y-58565000D01*
X182646256Y-58565000D01*
X183079418Y-58478839D01*
X183570625Y-58150625D01*
X183898839Y-57659418D01*
X184014092Y-57080000D01*
X183898839Y-56500582D01*
X183570625Y-56009375D01*
X183272239Y-55810000D01*
X183570625Y-55610625D01*
X183898839Y-55119418D01*
X184014092Y-54540000D01*
X183898839Y-53960582D01*
X183570625Y-53469375D01*
X183552381Y-53457184D01*
X183597765Y-53448157D01*
X183807809Y-53307809D01*
X183948157Y-53097765D01*
X183997440Y-52850000D01*
X183997440Y-51150000D01*
X183948157Y-50902235D01*
X183807809Y-50692191D01*
X183597765Y-50551843D01*
X183350000Y-50502560D01*
X181650000Y-50502560D01*
X181402235Y-50551843D01*
X181192191Y-50692191D01*
X181051843Y-50902235D01*
X181002560Y-51150000D01*
X181002560Y-52850000D01*
X181051843Y-53097765D01*
X181192191Y-53307809D01*
X181402235Y-53448157D01*
X181447619Y-53457184D01*
X181429375Y-53469375D01*
X181101161Y-53960582D01*
X180985908Y-54540000D01*
X180364092Y-54540000D01*
X180248839Y-53960582D01*
X179920625Y-53469375D01*
X179902381Y-53457184D01*
X179947765Y-53448157D01*
X180157809Y-53307809D01*
X180298157Y-53097765D01*
X180347440Y-52850000D01*
X180347440Y-51150000D01*
X180298157Y-50902235D01*
X180157809Y-50692191D01*
X179947765Y-50551843D01*
X179700000Y-50502560D01*
X178000000Y-50502560D01*
X177752235Y-50551843D01*
X177542191Y-50692191D01*
X177465776Y-50806553D01*
X177467484Y-50208306D01*
X191496369Y-50220780D01*
X191496369Y-50220780D01*
G37*
X191496369Y-50220780D02*
X191521258Y-81140561D01*
X179004586Y-81197977D01*
X180283259Y-80537849D01*
X180318146Y-80511330D01*
X180344092Y-80469113D01*
X180351909Y-80420181D01*
X180276909Y-78445181D01*
X180265352Y-78396868D01*
X180236238Y-78356769D01*
X180193996Y-78330864D01*
X180145056Y-78323096D01*
X178220056Y-78398096D01*
X178190411Y-78402801D01*
X178146280Y-78425340D01*
X177385224Y-79026486D01*
X177431990Y-62643036D01*
X177451161Y-62739418D01*
X177779375Y-63230625D01*
X177865000Y-63287838D01*
X177865001Y-72572624D01*
X177776161Y-72705582D01*
X177660908Y-73285000D01*
X177776161Y-73864418D01*
X178104375Y-74355625D01*
X178595582Y-74683839D01*
X179028744Y-74770000D01*
X179321256Y-74770000D01*
X179754418Y-74683839D01*
X180245625Y-74355625D01*
X180573839Y-73864418D01*
X180689092Y-73285000D01*
X180573839Y-72705582D01*
X180245625Y-72214375D01*
X179835000Y-71940004D01*
X179835000Y-67994126D01*
X183015000Y-67994126D01*
X183015000Y-68405874D01*
X183172569Y-68786280D01*
X183463720Y-69077431D01*
X183844126Y-69235000D01*
X184255874Y-69235000D01*
X184497296Y-69135000D01*
X185907914Y-69135000D01*
X186000000Y-69153317D01*
X186092086Y-69135000D01*
X186364819Y-69080750D01*
X186674097Y-68874097D01*
X186726261Y-68796028D01*
X188594858Y-66927431D01*
X188836280Y-66827431D01*
X189127431Y-66536280D01*
X189285000Y-66155874D01*
X189285000Y-65744126D01*
X189127431Y-65363720D01*
X188836280Y-65072569D01*
X188455874Y-64915000D01*
X188044126Y-64915000D01*
X187663720Y-65072569D01*
X187372569Y-65363720D01*
X187272569Y-65605142D01*
X185612711Y-67265000D01*
X184497296Y-67265000D01*
X184255874Y-67165000D01*
X183844126Y-67165000D01*
X183463720Y-67322569D01*
X183172569Y-67613720D01*
X183015000Y-67994126D01*
X179835000Y-67994126D01*
X179835000Y-63287838D01*
X179920625Y-63230625D01*
X180248839Y-62739418D01*
X180364092Y-62160000D01*
X180248839Y-61580582D01*
X179920625Y-61089375D01*
X179622239Y-60890000D01*
X179920625Y-60690625D01*
X180248839Y-60199418D01*
X180258668Y-60150000D01*
X180765000Y-60150000D01*
X180765000Y-66425000D01*
X180813336Y-66668004D01*
X180950987Y-66874013D01*
X181156996Y-67011664D01*
X181400000Y-67060000D01*
X183275000Y-67060000D01*
X183518004Y-67011664D01*
X183724013Y-66874013D01*
X183861664Y-66668004D01*
X183910000Y-66425000D01*
X183910000Y-62880208D01*
X186579810Y-62859982D01*
X186818004Y-62811664D01*
X187024013Y-62674013D01*
X187161664Y-62468004D01*
X187210000Y-62225000D01*
X187210000Y-60150000D01*
X187161664Y-59906996D01*
X187024013Y-59700987D01*
X186818004Y-59563336D01*
X186575000Y-59515000D01*
X181400000Y-59515000D01*
X181156996Y-59563336D01*
X180950987Y-59700987D01*
X180813336Y-59906996D01*
X180765000Y-60150000D01*
X180258668Y-60150000D01*
X180364092Y-59620000D01*
X180248839Y-59040582D01*
X179920625Y-58549375D01*
X179622239Y-58350000D01*
X179920625Y-58150625D01*
X180248839Y-57659418D01*
X180364092Y-57080000D01*
X180248839Y-56500582D01*
X179920625Y-56009375D01*
X179622239Y-55810000D01*
X179920625Y-55610625D01*
X180248839Y-55119418D01*
X180364092Y-54540000D01*
X180985908Y-54540000D01*
X181101161Y-55119418D01*
X181429375Y-55610625D01*
X181727761Y-55810000D01*
X181429375Y-56009375D01*
X181101161Y-56500582D01*
X180985908Y-57080000D01*
X181101161Y-57659418D01*
X181429375Y-58150625D01*
X181920582Y-58478839D01*
X182353744Y-58565000D01*
X182646256Y-58565000D01*
X183079418Y-58478839D01*
X183570625Y-58150625D01*
X183898839Y-57659418D01*
X184014092Y-57080000D01*
X183898839Y-56500582D01*
X183570625Y-56009375D01*
X183272239Y-55810000D01*
X183570625Y-55610625D01*
X183898839Y-55119418D01*
X184014092Y-54540000D01*
X183898839Y-53960582D01*
X183570625Y-53469375D01*
X183552381Y-53457184D01*
X183597765Y-53448157D01*
X183807809Y-53307809D01*
X183948157Y-53097765D01*
X183997440Y-52850000D01*
X183997440Y-51150000D01*
X183948157Y-50902235D01*
X183807809Y-50692191D01*
X183597765Y-50551843D01*
X183350000Y-50502560D01*
X181650000Y-50502560D01*
X181402235Y-50551843D01*
X181192191Y-50692191D01*
X181051843Y-50902235D01*
X181002560Y-51150000D01*
X181002560Y-52850000D01*
X181051843Y-53097765D01*
X181192191Y-53307809D01*
X181402235Y-53448157D01*
X181447619Y-53457184D01*
X181429375Y-53469375D01*
X181101161Y-53960582D01*
X180985908Y-54540000D01*
X180364092Y-54540000D01*
X180248839Y-53960582D01*
X179920625Y-53469375D01*
X179902381Y-53457184D01*
X179947765Y-53448157D01*
X180157809Y-53307809D01*
X180298157Y-53097765D01*
X180347440Y-52850000D01*
X180347440Y-51150000D01*
X180298157Y-50902235D01*
X180157809Y-50692191D01*
X179947765Y-50551843D01*
X179700000Y-50502560D01*
X178000000Y-50502560D01*
X177752235Y-50551843D01*
X177542191Y-50692191D01*
X177465776Y-50806553D01*
X177467484Y-50208306D01*
X191496369Y-50220780D01*
D28*
G04 #@! TO.N,GND*
G36*
X65386114Y-44441764D02*
X65282618Y-44545260D01*
X65085258Y-44840631D01*
X64949314Y-45168829D01*
X64880010Y-45517242D01*
X64880010Y-45872480D01*
X64949314Y-46220893D01*
X65085258Y-46549091D01*
X65282618Y-46844462D01*
X65533809Y-47095653D01*
X65621800Y-47154447D01*
X65621800Y-47886497D01*
X65555724Y-47940724D01*
X65360630Y-48178448D01*
X65215661Y-48449664D01*
X65126390Y-48743951D01*
X65096247Y-49050000D01*
X65126390Y-49356049D01*
X65215661Y-49650336D01*
X65360630Y-49921552D01*
X65430816Y-50007074D01*
X58836200Y-50021136D01*
X58836200Y-44596232D01*
X58936410Y-44606102D01*
X59443158Y-44606102D01*
X59475067Y-44619319D01*
X59774407Y-44678861D01*
X60079613Y-44678861D01*
X60378953Y-44619319D01*
X60410862Y-44606102D01*
X63000410Y-44606102D01*
X63139830Y-44592370D01*
X63273891Y-44551703D01*
X63397443Y-44485663D01*
X63505737Y-44396788D01*
X63594612Y-44288494D01*
X63660652Y-44164942D01*
X63681972Y-44094661D01*
X65039013Y-44094661D01*
X65386114Y-44441764D01*
X65386114Y-44441764D01*
G37*
X65386114Y-44441764D02*
X65282618Y-44545260D01*
X65085258Y-44840631D01*
X64949314Y-45168829D01*
X64880010Y-45517242D01*
X64880010Y-45872480D01*
X64949314Y-46220893D01*
X65085258Y-46549091D01*
X65282618Y-46844462D01*
X65533809Y-47095653D01*
X65621800Y-47154447D01*
X65621800Y-47886497D01*
X65555724Y-47940724D01*
X65360630Y-48178448D01*
X65215661Y-48449664D01*
X65126390Y-48743951D01*
X65096247Y-49050000D01*
X65126390Y-49356049D01*
X65215661Y-49650336D01*
X65360630Y-49921552D01*
X65430816Y-50007074D01*
X58836200Y-50021136D01*
X58836200Y-44596232D01*
X58936410Y-44606102D01*
X59443158Y-44606102D01*
X59475067Y-44619319D01*
X59774407Y-44678861D01*
X60079613Y-44678861D01*
X60378953Y-44619319D01*
X60410862Y-44606102D01*
X63000410Y-44606102D01*
X63139830Y-44592370D01*
X63273891Y-44551703D01*
X63397443Y-44485663D01*
X63505737Y-44396788D01*
X63594612Y-44288494D01*
X63660652Y-44164942D01*
X63681972Y-44094661D01*
X65039013Y-44094661D01*
X65386114Y-44441764D01*
G36*
X70046800Y-44682743D02*
X70046800Y-49997232D01*
X67903511Y-50001802D01*
X67969370Y-49921552D01*
X68114339Y-49650336D01*
X68203610Y-49356049D01*
X68233753Y-49050000D01*
X68203610Y-48743951D01*
X68114339Y-48449664D01*
X67969370Y-48178448D01*
X67774276Y-47940724D01*
X67753200Y-47923427D01*
X67753200Y-47148981D01*
X67833011Y-47095653D01*
X68084202Y-46844462D01*
X68281562Y-46549091D01*
X68417506Y-46220893D01*
X68486810Y-45872480D01*
X68486810Y-45517242D01*
X68417506Y-45168829D01*
X68281562Y-44840631D01*
X68084202Y-44545260D01*
X67833011Y-44294069D01*
X67625770Y-44155595D01*
X67579453Y-44002908D01*
X67489827Y-43835230D01*
X67369212Y-43688259D01*
X67332379Y-43658032D01*
X66154848Y-42480502D01*
X66124612Y-42443659D01*
X65977641Y-42323044D01*
X65809963Y-42233418D01*
X65628022Y-42178227D01*
X65486225Y-42164261D01*
X65486222Y-42164261D01*
X65438810Y-42159591D01*
X65391398Y-42164261D01*
X63681972Y-42164261D01*
X63660652Y-42093980D01*
X63594612Y-41970428D01*
X63505737Y-41862134D01*
X63397443Y-41773259D01*
X63273891Y-41707219D01*
X63139830Y-41666552D01*
X63000410Y-41652820D01*
X60410862Y-41652820D01*
X60378953Y-41639603D01*
X60079613Y-41580061D01*
X59774407Y-41580061D01*
X59475067Y-41639603D01*
X59443158Y-41652820D01*
X58936410Y-41652820D01*
X58836200Y-41662690D01*
X58836200Y-40029557D01*
X65480513Y-40005571D01*
X70046800Y-44682743D01*
X70046800Y-44682743D01*
G37*
X70046800Y-44682743D02*
X70046800Y-49997232D01*
X67903511Y-50001802D01*
X67969370Y-49921552D01*
X68114339Y-49650336D01*
X68203610Y-49356049D01*
X68233753Y-49050000D01*
X68203610Y-48743951D01*
X68114339Y-48449664D01*
X67969370Y-48178448D01*
X67774276Y-47940724D01*
X67753200Y-47923427D01*
X67753200Y-47148981D01*
X67833011Y-47095653D01*
X68084202Y-46844462D01*
X68281562Y-46549091D01*
X68417506Y-46220893D01*
X68486810Y-45872480D01*
X68486810Y-45517242D01*
X68417506Y-45168829D01*
X68281562Y-44840631D01*
X68084202Y-44545260D01*
X67833011Y-44294069D01*
X67625770Y-44155595D01*
X67579453Y-44002908D01*
X67489827Y-43835230D01*
X67369212Y-43688259D01*
X67332379Y-43658032D01*
X66154848Y-42480502D01*
X66124612Y-42443659D01*
X65977641Y-42323044D01*
X65809963Y-42233418D01*
X65628022Y-42178227D01*
X65486225Y-42164261D01*
X65486222Y-42164261D01*
X65438810Y-42159591D01*
X65391398Y-42164261D01*
X63681972Y-42164261D01*
X63660652Y-42093980D01*
X63594612Y-41970428D01*
X63505737Y-41862134D01*
X63397443Y-41773259D01*
X63273891Y-41707219D01*
X63139830Y-41666552D01*
X63000410Y-41652820D01*
X60410862Y-41652820D01*
X60378953Y-41639603D01*
X60079613Y-41580061D01*
X59774407Y-41580061D01*
X59475067Y-41639603D01*
X59443158Y-41652820D01*
X58936410Y-41652820D01*
X58836200Y-41662690D01*
X58836200Y-40029557D01*
X65480513Y-40005571D01*
X70046800Y-44682743D01*
D32*
G04 #@! TO.N,Net-(C17-Pad1)*
G36*
X186448000Y-62098959D02*
X183274038Y-62123004D01*
X183225512Y-62133039D01*
X183184520Y-62160880D01*
X183157302Y-62202289D01*
X183148000Y-62250000D01*
X183148000Y-66298000D01*
X181527000Y-66298000D01*
X181527000Y-60277000D01*
X186448000Y-60277000D01*
X186448000Y-62098959D01*
X186448000Y-62098959D01*
G37*
X186448000Y-62098959D02*
X183274038Y-62123004D01*
X183225512Y-62133039D01*
X183184520Y-62160880D01*
X183157302Y-62202289D01*
X183148000Y-62250000D01*
X183148000Y-66298000D01*
X181527000Y-66298000D01*
X181527000Y-60277000D01*
X186448000Y-60277000D01*
X186448000Y-62098959D01*
G04 #@! TO.N,Net-(C20-Pad1)*
G36*
X186173000Y-102876567D02*
X186173000Y-104947373D01*
X181225626Y-104923002D01*
X181176978Y-104932429D01*
X181135641Y-104959756D01*
X181107908Y-105000822D01*
X181098000Y-105050000D01*
X181098000Y-107748000D01*
X179102000Y-107748000D01*
X179102000Y-102852434D01*
X186173000Y-102876567D01*
X186173000Y-102876567D01*
G37*
X186173000Y-102876567D02*
X186173000Y-104947373D01*
X181225626Y-104923002D01*
X181176978Y-104932429D01*
X181135641Y-104959756D01*
X181107908Y-105000822D01*
X181098000Y-105050000D01*
X181098000Y-107748000D01*
X179102000Y-107748000D01*
X179102000Y-102852434D01*
X186173000Y-102876567D01*
G04 #@! TO.N,Net-(C16-Pad2)*
G36*
X180095029Y-80349173D02*
X174016741Y-83487151D01*
X173977990Y-83518036D01*
X173954008Y-83561399D01*
X173948006Y-83598813D01*
X173923006Y-86273813D01*
X173923001Y-86275394D01*
X173948001Y-94325394D01*
X173957819Y-94373965D01*
X173985477Y-94415081D01*
X174016635Y-94437794D01*
X178316635Y-96662794D01*
X178378526Y-96676951D01*
X180054439Y-96630398D01*
X180141317Y-98346230D01*
X178407769Y-98323420D01*
X171902217Y-94824222D01*
X171926999Y-86175364D01*
X171927000Y-86175000D01*
X171927000Y-83661524D01*
X178271267Y-78650294D01*
X180027915Y-78581853D01*
X180095029Y-80349173D01*
X180095029Y-80349173D01*
G37*
X180095029Y-80349173D02*
X174016741Y-83487151D01*
X173977990Y-83518036D01*
X173954008Y-83561399D01*
X173948006Y-83598813D01*
X173923006Y-86273813D01*
X173923001Y-86275394D01*
X173948001Y-94325394D01*
X173957819Y-94373965D01*
X173985477Y-94415081D01*
X174016635Y-94437794D01*
X178316635Y-96662794D01*
X178378526Y-96676951D01*
X180054439Y-96630398D01*
X180141317Y-98346230D01*
X178407769Y-98323420D01*
X171902217Y-94824222D01*
X171926999Y-86175364D01*
X171927000Y-86175000D01*
X171927000Y-83661524D01*
X178271267Y-78650294D01*
X180027915Y-78581853D01*
X180095029Y-80349173D01*
G04 #@! TO.N,GND*
G36*
X66507750Y-117189123D02*
X66522062Y-117206562D01*
X66539501Y-117220874D01*
X66539507Y-117220880D01*
X66591679Y-117263696D01*
X66671105Y-117306150D01*
X66757288Y-117332294D01*
X66824455Y-117338909D01*
X66824463Y-117338909D01*
X66846915Y-117341120D01*
X66869367Y-117338909D01*
X67294218Y-117338909D01*
X67294218Y-118481709D01*
X67300593Y-118546439D01*
X67319475Y-118608682D01*
X67350136Y-118666046D01*
X67391399Y-118716325D01*
X67441678Y-118757588D01*
X67499042Y-118788249D01*
X67561285Y-118807131D01*
X67626015Y-118813506D01*
X69021135Y-118813506D01*
X71158736Y-120951109D01*
X64546832Y-120951109D01*
X64112743Y-120908546D01*
X63714249Y-120788234D01*
X63346711Y-120592812D01*
X63024130Y-120329721D01*
X62758799Y-120008990D01*
X62560813Y-119642824D01*
X62479015Y-119378577D01*
X62479015Y-118626201D01*
X62596815Y-118626201D01*
X62596815Y-119006417D01*
X62670992Y-119379327D01*
X62816494Y-119730601D01*
X63027731Y-120046740D01*
X63296584Y-120315593D01*
X63612723Y-120526830D01*
X63963997Y-120672332D01*
X64336907Y-120746509D01*
X64717123Y-120746509D01*
X65090033Y-120672332D01*
X65441307Y-120526830D01*
X65757446Y-120315593D01*
X66026299Y-120046740D01*
X66237536Y-119730601D01*
X66383038Y-119379327D01*
X66457215Y-119006417D01*
X66457215Y-118626201D01*
X66383038Y-118253291D01*
X66237536Y-117902017D01*
X66026299Y-117585878D01*
X65757446Y-117317025D01*
X65441307Y-117105788D01*
X65090033Y-116960286D01*
X64717123Y-116886109D01*
X64336907Y-116886109D01*
X63963997Y-116960286D01*
X63612723Y-117105788D01*
X63296584Y-117317025D01*
X63027731Y-117585878D01*
X62816494Y-117902017D01*
X62670992Y-118253291D01*
X62596815Y-118626201D01*
X62479015Y-118626201D01*
X62479015Y-113160386D01*
X66507750Y-117189123D01*
X66507750Y-117189123D01*
G37*
X66507750Y-117189123D02*
X66522062Y-117206562D01*
X66539501Y-117220874D01*
X66539507Y-117220880D01*
X66591679Y-117263696D01*
X66671105Y-117306150D01*
X66757288Y-117332294D01*
X66824455Y-117338909D01*
X66824463Y-117338909D01*
X66846915Y-117341120D01*
X66869367Y-117338909D01*
X67294218Y-117338909D01*
X67294218Y-118481709D01*
X67300593Y-118546439D01*
X67319475Y-118608682D01*
X67350136Y-118666046D01*
X67391399Y-118716325D01*
X67441678Y-118757588D01*
X67499042Y-118788249D01*
X67561285Y-118807131D01*
X67626015Y-118813506D01*
X69021135Y-118813506D01*
X71158736Y-120951109D01*
X64546832Y-120951109D01*
X64112743Y-120908546D01*
X63714249Y-120788234D01*
X63346711Y-120592812D01*
X63024130Y-120329721D01*
X62758799Y-120008990D01*
X62560813Y-119642824D01*
X62479015Y-119378577D01*
X62479015Y-118626201D01*
X62596815Y-118626201D01*
X62596815Y-119006417D01*
X62670992Y-119379327D01*
X62816494Y-119730601D01*
X63027731Y-120046740D01*
X63296584Y-120315593D01*
X63612723Y-120526830D01*
X63963997Y-120672332D01*
X64336907Y-120746509D01*
X64717123Y-120746509D01*
X65090033Y-120672332D01*
X65441307Y-120526830D01*
X65757446Y-120315593D01*
X66026299Y-120046740D01*
X66237536Y-119730601D01*
X66383038Y-119379327D01*
X66457215Y-119006417D01*
X66457215Y-118626201D01*
X66383038Y-118253291D01*
X66237536Y-117902017D01*
X66026299Y-117585878D01*
X65757446Y-117317025D01*
X65441307Y-117105788D01*
X65090033Y-116960286D01*
X64717123Y-116886109D01*
X64336907Y-116886109D01*
X63963997Y-116960286D01*
X63612723Y-117105788D01*
X63296584Y-117317025D01*
X63027731Y-117585878D01*
X62816494Y-117902017D01*
X62670992Y-118253291D01*
X62596815Y-118626201D01*
X62479015Y-118626201D01*
X62479015Y-113160386D01*
X66507750Y-117189123D01*
G36*
X88538626Y-96363802D02*
X88429508Y-96472920D01*
X88343775Y-96601230D01*
X88284720Y-96743800D01*
X88254615Y-96895151D01*
X88254615Y-97049467D01*
X88284720Y-97200818D01*
X88343775Y-97343388D01*
X88374544Y-97389438D01*
X87420074Y-98343909D01*
X78396209Y-98343909D01*
X78370015Y-98341329D01*
X78343821Y-98343909D01*
X78343820Y-98343909D01*
X78265450Y-98351628D01*
X78164904Y-98382128D01*
X78072240Y-98431658D01*
X77991020Y-98498314D01*
X77974322Y-98518661D01*
X76576191Y-99916792D01*
X76536922Y-99858020D01*
X76427804Y-99748902D01*
X76299494Y-99663169D01*
X76156924Y-99604114D01*
X76005573Y-99574009D01*
X75851257Y-99574009D01*
X75699906Y-99604114D01*
X75557336Y-99663169D01*
X75429026Y-99748902D01*
X75319908Y-99858020D01*
X75234175Y-99986330D01*
X75175120Y-100128900D01*
X75145015Y-100280251D01*
X75145015Y-100434567D01*
X75175120Y-100585918D01*
X75234175Y-100728488D01*
X75319908Y-100856798D01*
X75429026Y-100965916D01*
X75557336Y-101051649D01*
X75699906Y-101110704D01*
X75851257Y-101140809D01*
X75957473Y-101140809D01*
X76022965Y-101206301D01*
X76083839Y-101256259D01*
X76176503Y-101305789D01*
X76277049Y-101336289D01*
X76381613Y-101346587D01*
X76409165Y-101343874D01*
X76436716Y-101346587D01*
X76541280Y-101336289D01*
X76641826Y-101305789D01*
X76734489Y-101256259D01*
X76795364Y-101206301D01*
X78590956Y-99410709D01*
X79883984Y-99410709D01*
X79757336Y-99463169D01*
X79629026Y-99548902D01*
X79519908Y-99658020D01*
X79434175Y-99786330D01*
X79375120Y-99928900D01*
X79345015Y-100080251D01*
X79345015Y-100234567D01*
X79375120Y-100385918D01*
X79434175Y-100528488D01*
X79519908Y-100656798D01*
X79629026Y-100765916D01*
X79671417Y-100794240D01*
X79671014Y-100798330D01*
X79673215Y-100820679D01*
X79673215Y-100820686D01*
X79679802Y-100887564D01*
X79705831Y-100973369D01*
X79748099Y-101052448D01*
X79804983Y-101121762D01*
X79822354Y-101136018D01*
X82171509Y-103485174D01*
X82185761Y-103502540D01*
X82203126Y-103516791D01*
X82203127Y-103516792D01*
X82255074Y-103559424D01*
X82334153Y-103601692D01*
X82419958Y-103627721D01*
X82509193Y-103636510D01*
X82531550Y-103634308D01*
X89539867Y-103634308D01*
X89562216Y-103636509D01*
X89584565Y-103634308D01*
X89584573Y-103634308D01*
X89651451Y-103627721D01*
X89737256Y-103601692D01*
X89816335Y-103559424D01*
X89885648Y-103502540D01*
X89899904Y-103485169D01*
X92468845Y-100916228D01*
X93025815Y-100916228D01*
X93025815Y-101156390D01*
X93072668Y-101391936D01*
X93164574Y-101613817D01*
X93298001Y-101813504D01*
X93467820Y-101983323D01*
X93667507Y-102116750D01*
X93889388Y-102208656D01*
X94124934Y-102255509D01*
X94365096Y-102255509D01*
X94600642Y-102208656D01*
X94822523Y-102116750D01*
X95022210Y-101983323D01*
X95192029Y-101813504D01*
X95325456Y-101613817D01*
X95417362Y-101391936D01*
X95464215Y-101156390D01*
X95464215Y-100916228D01*
X95417362Y-100680682D01*
X95325456Y-100458801D01*
X95192029Y-100259114D01*
X95022210Y-100089295D01*
X94822523Y-99955868D01*
X94600642Y-99863962D01*
X94365096Y-99817109D01*
X94124934Y-99817109D01*
X93889388Y-99863962D01*
X93667507Y-99955868D01*
X93467820Y-100089295D01*
X93298001Y-100259114D01*
X93164574Y-100458801D01*
X93072668Y-100680682D01*
X93025815Y-100916228D01*
X92468845Y-100916228D01*
X93767080Y-99617994D01*
X93889388Y-99668656D01*
X94124934Y-99715509D01*
X94365096Y-99715509D01*
X94600642Y-99668656D01*
X94822523Y-99576750D01*
X95022210Y-99443323D01*
X95192029Y-99273504D01*
X95325456Y-99073817D01*
X95417362Y-98851936D01*
X95464215Y-98616390D01*
X95464215Y-98376228D01*
X95417362Y-98140682D01*
X95325456Y-97918801D01*
X95192029Y-97719114D01*
X95022210Y-97549295D01*
X94822523Y-97415868D01*
X94600642Y-97323962D01*
X94365096Y-97277109D01*
X94124934Y-97277109D01*
X93889388Y-97323962D01*
X93667507Y-97415868D01*
X93467820Y-97549295D01*
X93298001Y-97719114D01*
X93164574Y-97918801D01*
X93072668Y-98140682D01*
X93025815Y-98376228D01*
X93025815Y-98616390D01*
X93072668Y-98851936D01*
X93123330Y-98974244D01*
X89373667Y-102723908D01*
X82697743Y-102723908D01*
X81314643Y-101340809D01*
X81405573Y-101340809D01*
X81556924Y-101310704D01*
X81699494Y-101251649D01*
X81827804Y-101165916D01*
X81936922Y-101056798D01*
X82022655Y-100928488D01*
X82081710Y-100785918D01*
X82111815Y-100634567D01*
X82111815Y-100480251D01*
X82081710Y-100328900D01*
X82022655Y-100186330D01*
X81936922Y-100058020D01*
X81827804Y-99948902D01*
X81783615Y-99919376D01*
X81783615Y-99816151D01*
X89778615Y-99816151D01*
X89778615Y-99970467D01*
X89808720Y-100121818D01*
X89867775Y-100264388D01*
X89953508Y-100392698D01*
X90062626Y-100501816D01*
X90190936Y-100587549D01*
X90333506Y-100646604D01*
X90484857Y-100676709D01*
X90639173Y-100676709D01*
X90790524Y-100646604D01*
X90933094Y-100587549D01*
X91061404Y-100501816D01*
X91170522Y-100392698D01*
X91256255Y-100264388D01*
X91315310Y-100121818D01*
X91345415Y-99970467D01*
X91345415Y-99816151D01*
X91315310Y-99664800D01*
X91256255Y-99522230D01*
X91170522Y-99393920D01*
X91061404Y-99284802D01*
X90933094Y-99199069D01*
X90790524Y-99140014D01*
X90639173Y-99109909D01*
X90484857Y-99109909D01*
X90333506Y-99140014D01*
X90190936Y-99199069D01*
X90062626Y-99284802D01*
X89953508Y-99393920D01*
X89867775Y-99522230D01*
X89808720Y-99664800D01*
X89778615Y-99816151D01*
X81783615Y-99816151D01*
X81783615Y-99410709D01*
X87614828Y-99410709D01*
X87641015Y-99413288D01*
X87667202Y-99410709D01*
X87667210Y-99410709D01*
X87745580Y-99402990D01*
X87846126Y-99372490D01*
X87938790Y-99322960D01*
X88020010Y-99256304D01*
X88036710Y-99235955D01*
X89396666Y-97876000D01*
X89417010Y-97859304D01*
X89483666Y-97778084D01*
X89533196Y-97685420D01*
X89563696Y-97584874D01*
X89567012Y-97551208D01*
X89646522Y-97471698D01*
X89732255Y-97343388D01*
X89791310Y-97200818D01*
X89821415Y-97049467D01*
X89821415Y-96895151D01*
X89791310Y-96743800D01*
X89732255Y-96601230D01*
X89646522Y-96472920D01*
X89537404Y-96363802D01*
X89533972Y-96361509D01*
X93717198Y-96361509D01*
X94151289Y-96404072D01*
X94549785Y-96524385D01*
X94917318Y-96719806D01*
X95239900Y-96982897D01*
X95505232Y-97303629D01*
X95703216Y-97669790D01*
X95826309Y-98067441D01*
X95871815Y-98500400D01*
X95871816Y-118796482D01*
X95829252Y-119230581D01*
X95708940Y-119629075D01*
X95513518Y-119996613D01*
X95250427Y-120319194D01*
X94929696Y-120584525D01*
X94563530Y-120782511D01*
X94165883Y-120905603D01*
X93732924Y-120951109D01*
X81771292Y-120951109D01*
X81789192Y-120933209D01*
X81939673Y-120933209D01*
X82091024Y-120903104D01*
X82233594Y-120844049D01*
X82361904Y-120758316D01*
X82471022Y-120649198D01*
X82556755Y-120520888D01*
X82615810Y-120378318D01*
X82645915Y-120226967D01*
X82645915Y-120072651D01*
X83873115Y-120072651D01*
X83873115Y-120226967D01*
X83903220Y-120378318D01*
X83962275Y-120520888D01*
X84048008Y-120649198D01*
X84157126Y-120758316D01*
X84285436Y-120844049D01*
X84428006Y-120903104D01*
X84579357Y-120933209D01*
X84733673Y-120933209D01*
X84885024Y-120903104D01*
X85027594Y-120844049D01*
X85155904Y-120758316D01*
X85265022Y-120649198D01*
X85350755Y-120520888D01*
X85409810Y-120378318D01*
X85439915Y-120226967D01*
X85439915Y-120072651D01*
X85409810Y-119921300D01*
X85350755Y-119778730D01*
X85265022Y-119650420D01*
X85155904Y-119541302D01*
X85050215Y-119470684D01*
X85050215Y-118696228D01*
X93025815Y-118696228D01*
X93025815Y-118936390D01*
X93072668Y-119171936D01*
X93164574Y-119393817D01*
X93298001Y-119593504D01*
X93467820Y-119763323D01*
X93667507Y-119896750D01*
X93889388Y-119988656D01*
X94124934Y-120035509D01*
X94365096Y-120035509D01*
X94600642Y-119988656D01*
X94822523Y-119896750D01*
X95022210Y-119763323D01*
X95192029Y-119593504D01*
X95325456Y-119393817D01*
X95417362Y-119171936D01*
X95464215Y-118936390D01*
X95464215Y-118696228D01*
X95417362Y-118460682D01*
X95325456Y-118238801D01*
X95192029Y-118039114D01*
X95022210Y-117869295D01*
X94822523Y-117735868D01*
X94600642Y-117643962D01*
X94365096Y-117597109D01*
X94124934Y-117597109D01*
X93889388Y-117643962D01*
X93667507Y-117735868D01*
X93467820Y-117869295D01*
X93298001Y-118039114D01*
X93164574Y-118238801D01*
X93072668Y-118460682D01*
X93025815Y-118696228D01*
X85050215Y-118696228D01*
X85050215Y-117735686D01*
X86629673Y-116156228D01*
X93025815Y-116156228D01*
X93025815Y-116396390D01*
X93072668Y-116631936D01*
X93164574Y-116853817D01*
X93298001Y-117053504D01*
X93467820Y-117223323D01*
X93667507Y-117356750D01*
X93889388Y-117448656D01*
X94124934Y-117495509D01*
X94365096Y-117495509D01*
X94600642Y-117448656D01*
X94822523Y-117356750D01*
X95022210Y-117223323D01*
X95192029Y-117053504D01*
X95325456Y-116853817D01*
X95417362Y-116631936D01*
X95464215Y-116396390D01*
X95464215Y-116156228D01*
X95417362Y-115920682D01*
X95325456Y-115698801D01*
X95192029Y-115499114D01*
X95022210Y-115329295D01*
X94822523Y-115195868D01*
X94600642Y-115103962D01*
X94365096Y-115057109D01*
X94124934Y-115057109D01*
X93889388Y-115103962D01*
X93667507Y-115195868D01*
X93467820Y-115329295D01*
X93298001Y-115499114D01*
X93164574Y-115698801D01*
X93072668Y-115920682D01*
X93025815Y-116156228D01*
X86629673Y-116156228D01*
X88592394Y-114193509D01*
X93114741Y-114193509D01*
X93164574Y-114313817D01*
X93298001Y-114513504D01*
X93467820Y-114683323D01*
X93667507Y-114816750D01*
X93889388Y-114908656D01*
X94124934Y-114955509D01*
X94365096Y-114955509D01*
X94600642Y-114908656D01*
X94822523Y-114816750D01*
X95022210Y-114683323D01*
X95192029Y-114513504D01*
X95325456Y-114313817D01*
X95417362Y-114091936D01*
X95464215Y-113856390D01*
X95464215Y-113616228D01*
X95417362Y-113380682D01*
X95325456Y-113158801D01*
X95192029Y-112959114D01*
X95022210Y-112789295D01*
X94822523Y-112655868D01*
X94600642Y-112563962D01*
X94365096Y-112517109D01*
X94124934Y-112517109D01*
X93889388Y-112563962D01*
X93667507Y-112655868D01*
X93467820Y-112789295D01*
X93298001Y-112959114D01*
X93164574Y-113158801D01*
X93114741Y-113279109D01*
X88425465Y-113279109D01*
X88403015Y-113276898D01*
X88380565Y-113279109D01*
X88380555Y-113279109D01*
X88313388Y-113285724D01*
X88247264Y-113305783D01*
X88227205Y-113311868D01*
X88147779Y-113354322D01*
X88095607Y-113397138D01*
X88095601Y-113397144D01*
X88078162Y-113411456D01*
X88063850Y-113428895D01*
X84285612Y-117207135D01*
X84268162Y-117221456D01*
X84211028Y-117291074D01*
X84168574Y-117370501D01*
X84142430Y-117456683D01*
X84135815Y-117523850D01*
X84135815Y-117523859D01*
X84133604Y-117546309D01*
X84135815Y-117568759D01*
X84135816Y-119562612D01*
X84048008Y-119650420D01*
X83962275Y-119778730D01*
X83903220Y-119921300D01*
X83873115Y-120072651D01*
X82645915Y-120072651D01*
X82615810Y-119921300D01*
X82556755Y-119778730D01*
X82471022Y-119650420D01*
X82361904Y-119541302D01*
X82233594Y-119455569D01*
X82091024Y-119396514D01*
X81939673Y-119366409D01*
X81785357Y-119366409D01*
X81634006Y-119396514D01*
X81491436Y-119455569D01*
X81363126Y-119541302D01*
X81254008Y-119650420D01*
X81168275Y-119778730D01*
X81109220Y-119921300D01*
X81079115Y-120072651D01*
X81079115Y-120226967D01*
X81086503Y-120264109D01*
X71764894Y-120264109D01*
X70314290Y-118813506D01*
X70826015Y-118813506D01*
X70890745Y-118807131D01*
X70952988Y-118788249D01*
X71010352Y-118757588D01*
X71060631Y-118716325D01*
X71101894Y-118666046D01*
X71132555Y-118608682D01*
X71151437Y-118546439D01*
X71157812Y-118481709D01*
X71157812Y-117680251D01*
X78545015Y-117680251D01*
X78545015Y-117834567D01*
X78575120Y-117985918D01*
X78634175Y-118128488D01*
X78719908Y-118256798D01*
X78829026Y-118365916D01*
X78957336Y-118451649D01*
X79099906Y-118510704D01*
X79251257Y-118540809D01*
X79405573Y-118540809D01*
X79556924Y-118510704D01*
X79699494Y-118451649D01*
X79827804Y-118365916D01*
X79903111Y-118290609D01*
X82702230Y-118290609D01*
X82728415Y-118293188D01*
X82754599Y-118290609D01*
X82754600Y-118290609D01*
X82832940Y-118282893D01*
X82933449Y-118252404D01*
X83026078Y-118202893D01*
X83107268Y-118136262D01*
X83173899Y-118055072D01*
X83223410Y-117962443D01*
X83253899Y-117861934D01*
X83264194Y-117757409D01*
X83261615Y-117731224D01*
X83261615Y-116578266D01*
X88763653Y-111076228D01*
X93025815Y-111076228D01*
X93025815Y-111316390D01*
X93072668Y-111551936D01*
X93164574Y-111773817D01*
X93298001Y-111973504D01*
X93467820Y-112143323D01*
X93667507Y-112276750D01*
X93889388Y-112368656D01*
X94124934Y-112415509D01*
X94365096Y-112415509D01*
X94600642Y-112368656D01*
X94822523Y-112276750D01*
X95022210Y-112143323D01*
X95192029Y-111973504D01*
X95325456Y-111773817D01*
X95417362Y-111551936D01*
X95464215Y-111316390D01*
X95464215Y-111076228D01*
X95417362Y-110840682D01*
X95325456Y-110618801D01*
X95192029Y-110419114D01*
X95022210Y-110249295D01*
X94822523Y-110115868D01*
X94600642Y-110023962D01*
X94365096Y-109977109D01*
X94124934Y-109977109D01*
X93889388Y-110023962D01*
X93667507Y-110115868D01*
X93467820Y-110249295D01*
X93298001Y-110419114D01*
X93164574Y-110618801D01*
X93072668Y-110840682D01*
X93025815Y-111076228D01*
X88763653Y-111076228D01*
X89699073Y-110140809D01*
X89805573Y-110140809D01*
X89956924Y-110110704D01*
X90099494Y-110051649D01*
X90227804Y-109965916D01*
X90336922Y-109856798D01*
X90422655Y-109728488D01*
X90481710Y-109585918D01*
X90511815Y-109434567D01*
X90511815Y-109280251D01*
X90481710Y-109128900D01*
X90422655Y-108986330D01*
X90336922Y-108858020D01*
X90227804Y-108748902D01*
X90099494Y-108663169D01*
X89956924Y-108604114D01*
X89805573Y-108574009D01*
X89651257Y-108574009D01*
X89499906Y-108604114D01*
X89357336Y-108663169D01*
X89229026Y-108748902D01*
X89119908Y-108858020D01*
X89034175Y-108986330D01*
X88975120Y-109128900D01*
X88945015Y-109280251D01*
X88945015Y-109386751D01*
X82369906Y-115961861D01*
X82349563Y-115978556D01*
X82282932Y-116059746D01*
X82256467Y-116109258D01*
X82233420Y-116152376D01*
X82202931Y-116252884D01*
X82192636Y-116357409D01*
X82195216Y-116383603D01*
X82195215Y-117224209D01*
X79903111Y-117224209D01*
X79827804Y-117148902D01*
X79699494Y-117063169D01*
X79556924Y-117004114D01*
X79405573Y-116974009D01*
X79251257Y-116974009D01*
X79099906Y-117004114D01*
X78957336Y-117063169D01*
X78829026Y-117148902D01*
X78719908Y-117258020D01*
X78634175Y-117386330D01*
X78575120Y-117528900D01*
X78545015Y-117680251D01*
X71157812Y-117680251D01*
X71157812Y-115281709D01*
X71151437Y-115216979D01*
X71132555Y-115154736D01*
X71101894Y-115097372D01*
X71060631Y-115047093D01*
X71010352Y-115005830D01*
X70952988Y-114975169D01*
X70890745Y-114956287D01*
X70826015Y-114949912D01*
X67626015Y-114949912D01*
X67561285Y-114956287D01*
X67499042Y-114975169D01*
X67441678Y-115005830D01*
X67391399Y-115047093D01*
X67350136Y-115097372D01*
X67319475Y-115154736D01*
X67300593Y-115216979D01*
X67294218Y-115281709D01*
X67294218Y-116424509D01*
X67036294Y-116424509D01*
X62888715Y-112276932D01*
X62888715Y-109784050D01*
X76720815Y-109784050D01*
X76720815Y-110144568D01*
X76791148Y-110498159D01*
X76929112Y-110831234D01*
X77129405Y-111130994D01*
X77384330Y-111385919D01*
X77684090Y-111586212D01*
X78017165Y-111724176D01*
X78370756Y-111794509D01*
X78731274Y-111794509D01*
X79084865Y-111724176D01*
X79417940Y-111586212D01*
X79717700Y-111385919D01*
X79972625Y-111130994D01*
X80172918Y-110831234D01*
X80310882Y-110498159D01*
X80381215Y-110144568D01*
X80381215Y-109784050D01*
X80310882Y-109430459D01*
X80172918Y-109097384D01*
X79972625Y-108797624D01*
X79717700Y-108542699D01*
X79708016Y-108536228D01*
X93025815Y-108536228D01*
X93025815Y-108776390D01*
X93072668Y-109011936D01*
X93164574Y-109233817D01*
X93298001Y-109433504D01*
X93467820Y-109603323D01*
X93667507Y-109736750D01*
X93889388Y-109828656D01*
X94124934Y-109875509D01*
X94365096Y-109875509D01*
X94600642Y-109828656D01*
X94822523Y-109736750D01*
X95022210Y-109603323D01*
X95192029Y-109433504D01*
X95325456Y-109233817D01*
X95417362Y-109011936D01*
X95464215Y-108776390D01*
X95464215Y-108536228D01*
X95417362Y-108300682D01*
X95325456Y-108078801D01*
X95192029Y-107879114D01*
X95022210Y-107709295D01*
X94822523Y-107575868D01*
X94600642Y-107483962D01*
X94365096Y-107437109D01*
X94124934Y-107437109D01*
X93889388Y-107483962D01*
X93667507Y-107575868D01*
X93467820Y-107709295D01*
X93298001Y-107879114D01*
X93164574Y-108078801D01*
X93072668Y-108300682D01*
X93025815Y-108536228D01*
X79708016Y-108536228D01*
X79417940Y-108342406D01*
X79084865Y-108204442D01*
X78731274Y-108134109D01*
X78370756Y-108134109D01*
X78017165Y-108204442D01*
X77684090Y-108342406D01*
X77384330Y-108542699D01*
X77129405Y-108797624D01*
X76929112Y-109097384D01*
X76791148Y-109430459D01*
X76720815Y-109784050D01*
X62888715Y-109784050D01*
X62888715Y-105996228D01*
X93025815Y-105996228D01*
X93025815Y-106236390D01*
X93072668Y-106471936D01*
X93164574Y-106693817D01*
X93298001Y-106893504D01*
X93467820Y-107063323D01*
X93667507Y-107196750D01*
X93889388Y-107288656D01*
X94124934Y-107335509D01*
X94365096Y-107335509D01*
X94600642Y-107288656D01*
X94822523Y-107196750D01*
X95022210Y-107063323D01*
X95192029Y-106893504D01*
X95325456Y-106693817D01*
X95417362Y-106471936D01*
X95464215Y-106236390D01*
X95464215Y-105996228D01*
X95417362Y-105760682D01*
X95325456Y-105538801D01*
X95192029Y-105339114D01*
X95022210Y-105169295D01*
X94822523Y-105035868D01*
X94600642Y-104943962D01*
X94365096Y-104897109D01*
X94124934Y-104897109D01*
X93889388Y-104943962D01*
X93667507Y-105035868D01*
X93467820Y-105169295D01*
X93298001Y-105339114D01*
X93164574Y-105538801D01*
X93072668Y-105760682D01*
X93025815Y-105996228D01*
X62888715Y-105996228D01*
X62888715Y-105480186D01*
X67294218Y-101074684D01*
X67294218Y-102030909D01*
X67300593Y-102095639D01*
X67319475Y-102157882D01*
X67350136Y-102215246D01*
X67391399Y-102265525D01*
X67441678Y-102306788D01*
X67499042Y-102337449D01*
X67561285Y-102356331D01*
X67626015Y-102362706D01*
X70826015Y-102362706D01*
X70890745Y-102356331D01*
X70952988Y-102337449D01*
X71010352Y-102306788D01*
X71060631Y-102265525D01*
X71101894Y-102215246D01*
X71132555Y-102157882D01*
X71151437Y-102095639D01*
X71157812Y-102030909D01*
X71157812Y-98830909D01*
X71151437Y-98766179D01*
X71132555Y-98703936D01*
X71101894Y-98646572D01*
X71060631Y-98596293D01*
X71010352Y-98555030D01*
X70952988Y-98524369D01*
X70890745Y-98505487D01*
X70826015Y-98499112D01*
X67626015Y-98499112D01*
X67561285Y-98505487D01*
X67499042Y-98524369D01*
X67441678Y-98555030D01*
X67391399Y-98596293D01*
X67350136Y-98646572D01*
X67319475Y-98703936D01*
X67300593Y-98766179D01*
X67294218Y-98830909D01*
X67294218Y-99971774D01*
X67291414Y-99971498D01*
X67268964Y-99973709D01*
X67268955Y-99973709D01*
X67201788Y-99980324D01*
X67115606Y-100006468D01*
X67078632Y-100026231D01*
X67036178Y-100048922D01*
X66998005Y-100080251D01*
X66966562Y-100106056D01*
X66952245Y-100123501D01*
X62479015Y-104596732D01*
X62479015Y-98306201D01*
X62596815Y-98306201D01*
X62596815Y-98686417D01*
X62670992Y-99059327D01*
X62816494Y-99410601D01*
X63027731Y-99726740D01*
X63296584Y-99995593D01*
X63612723Y-100206830D01*
X63963997Y-100352332D01*
X64336907Y-100426509D01*
X64717123Y-100426509D01*
X65090033Y-100352332D01*
X65441307Y-100206830D01*
X65757446Y-99995593D01*
X66026299Y-99726740D01*
X66237536Y-99410601D01*
X66383038Y-99059327D01*
X66457215Y-98686417D01*
X66457215Y-98306201D01*
X66383038Y-97933291D01*
X66237536Y-97582017D01*
X66026299Y-97265878D01*
X65757446Y-96997025D01*
X65441307Y-96785788D01*
X65090033Y-96640286D01*
X64717123Y-96566109D01*
X64336907Y-96566109D01*
X63963997Y-96640286D01*
X63612723Y-96785788D01*
X63296584Y-96997025D01*
X63027731Y-97265878D01*
X62816494Y-97582017D01*
X62670992Y-97933291D01*
X62596815Y-98306201D01*
X62479015Y-98306201D01*
X62479015Y-97935515D01*
X62555091Y-97683539D01*
X62750512Y-97316006D01*
X63013603Y-96993424D01*
X63334335Y-96728092D01*
X63700496Y-96530108D01*
X64098147Y-96407015D01*
X64531106Y-96361509D01*
X88542058Y-96361509D01*
X88538626Y-96363802D01*
X88538626Y-96363802D01*
G37*
X88538626Y-96363802D02*
X88429508Y-96472920D01*
X88343775Y-96601230D01*
X88284720Y-96743800D01*
X88254615Y-96895151D01*
X88254615Y-97049467D01*
X88284720Y-97200818D01*
X88343775Y-97343388D01*
X88374544Y-97389438D01*
X87420074Y-98343909D01*
X78396209Y-98343909D01*
X78370015Y-98341329D01*
X78343821Y-98343909D01*
X78343820Y-98343909D01*
X78265450Y-98351628D01*
X78164904Y-98382128D01*
X78072240Y-98431658D01*
X77991020Y-98498314D01*
X77974322Y-98518661D01*
X76576191Y-99916792D01*
X76536922Y-99858020D01*
X76427804Y-99748902D01*
X76299494Y-99663169D01*
X76156924Y-99604114D01*
X76005573Y-99574009D01*
X75851257Y-99574009D01*
X75699906Y-99604114D01*
X75557336Y-99663169D01*
X75429026Y-99748902D01*
X75319908Y-99858020D01*
X75234175Y-99986330D01*
X75175120Y-100128900D01*
X75145015Y-100280251D01*
X75145015Y-100434567D01*
X75175120Y-100585918D01*
X75234175Y-100728488D01*
X75319908Y-100856798D01*
X75429026Y-100965916D01*
X75557336Y-101051649D01*
X75699906Y-101110704D01*
X75851257Y-101140809D01*
X75957473Y-101140809D01*
X76022965Y-101206301D01*
X76083839Y-101256259D01*
X76176503Y-101305789D01*
X76277049Y-101336289D01*
X76381613Y-101346587D01*
X76409165Y-101343874D01*
X76436716Y-101346587D01*
X76541280Y-101336289D01*
X76641826Y-101305789D01*
X76734489Y-101256259D01*
X76795364Y-101206301D01*
X78590956Y-99410709D01*
X79883984Y-99410709D01*
X79757336Y-99463169D01*
X79629026Y-99548902D01*
X79519908Y-99658020D01*
X79434175Y-99786330D01*
X79375120Y-99928900D01*
X79345015Y-100080251D01*
X79345015Y-100234567D01*
X79375120Y-100385918D01*
X79434175Y-100528488D01*
X79519908Y-100656798D01*
X79629026Y-100765916D01*
X79671417Y-100794240D01*
X79671014Y-100798330D01*
X79673215Y-100820679D01*
X79673215Y-100820686D01*
X79679802Y-100887564D01*
X79705831Y-100973369D01*
X79748099Y-101052448D01*
X79804983Y-101121762D01*
X79822354Y-101136018D01*
X82171509Y-103485174D01*
X82185761Y-103502540D01*
X82203126Y-103516791D01*
X82203127Y-103516792D01*
X82255074Y-103559424D01*
X82334153Y-103601692D01*
X82419958Y-103627721D01*
X82509193Y-103636510D01*
X82531550Y-103634308D01*
X89539867Y-103634308D01*
X89562216Y-103636509D01*
X89584565Y-103634308D01*
X89584573Y-103634308D01*
X89651451Y-103627721D01*
X89737256Y-103601692D01*
X89816335Y-103559424D01*
X89885648Y-103502540D01*
X89899904Y-103485169D01*
X92468845Y-100916228D01*
X93025815Y-100916228D01*
X93025815Y-101156390D01*
X93072668Y-101391936D01*
X93164574Y-101613817D01*
X93298001Y-101813504D01*
X93467820Y-101983323D01*
X93667507Y-102116750D01*
X93889388Y-102208656D01*
X94124934Y-102255509D01*
X94365096Y-102255509D01*
X94600642Y-102208656D01*
X94822523Y-102116750D01*
X95022210Y-101983323D01*
X95192029Y-101813504D01*
X95325456Y-101613817D01*
X95417362Y-101391936D01*
X95464215Y-101156390D01*
X95464215Y-100916228D01*
X95417362Y-100680682D01*
X95325456Y-100458801D01*
X95192029Y-100259114D01*
X95022210Y-100089295D01*
X94822523Y-99955868D01*
X94600642Y-99863962D01*
X94365096Y-99817109D01*
X94124934Y-99817109D01*
X93889388Y-99863962D01*
X93667507Y-99955868D01*
X93467820Y-100089295D01*
X93298001Y-100259114D01*
X93164574Y-100458801D01*
X93072668Y-100680682D01*
X93025815Y-100916228D01*
X92468845Y-100916228D01*
X93767080Y-99617994D01*
X93889388Y-99668656D01*
X94124934Y-99715509D01*
X94365096Y-99715509D01*
X94600642Y-99668656D01*
X94822523Y-99576750D01*
X95022210Y-99443323D01*
X95192029Y-99273504D01*
X95325456Y-99073817D01*
X95417362Y-98851936D01*
X95464215Y-98616390D01*
X95464215Y-98376228D01*
X95417362Y-98140682D01*
X95325456Y-97918801D01*
X95192029Y-97719114D01*
X95022210Y-97549295D01*
X94822523Y-97415868D01*
X94600642Y-97323962D01*
X94365096Y-97277109D01*
X94124934Y-97277109D01*
X93889388Y-97323962D01*
X93667507Y-97415868D01*
X93467820Y-97549295D01*
X93298001Y-97719114D01*
X93164574Y-97918801D01*
X93072668Y-98140682D01*
X93025815Y-98376228D01*
X93025815Y-98616390D01*
X93072668Y-98851936D01*
X93123330Y-98974244D01*
X89373667Y-102723908D01*
X82697743Y-102723908D01*
X81314643Y-101340809D01*
X81405573Y-101340809D01*
X81556924Y-101310704D01*
X81699494Y-101251649D01*
X81827804Y-101165916D01*
X81936922Y-101056798D01*
X82022655Y-100928488D01*
X82081710Y-100785918D01*
X82111815Y-100634567D01*
X82111815Y-100480251D01*
X82081710Y-100328900D01*
X82022655Y-100186330D01*
X81936922Y-100058020D01*
X81827804Y-99948902D01*
X81783615Y-99919376D01*
X81783615Y-99816151D01*
X89778615Y-99816151D01*
X89778615Y-99970467D01*
X89808720Y-100121818D01*
X89867775Y-100264388D01*
X89953508Y-100392698D01*
X90062626Y-100501816D01*
X90190936Y-100587549D01*
X90333506Y-100646604D01*
X90484857Y-100676709D01*
X90639173Y-100676709D01*
X90790524Y-100646604D01*
X90933094Y-100587549D01*
X91061404Y-100501816D01*
X91170522Y-100392698D01*
X91256255Y-100264388D01*
X91315310Y-100121818D01*
X91345415Y-99970467D01*
X91345415Y-99816151D01*
X91315310Y-99664800D01*
X91256255Y-99522230D01*
X91170522Y-99393920D01*
X91061404Y-99284802D01*
X90933094Y-99199069D01*
X90790524Y-99140014D01*
X90639173Y-99109909D01*
X90484857Y-99109909D01*
X90333506Y-99140014D01*
X90190936Y-99199069D01*
X90062626Y-99284802D01*
X89953508Y-99393920D01*
X89867775Y-99522230D01*
X89808720Y-99664800D01*
X89778615Y-99816151D01*
X81783615Y-99816151D01*
X81783615Y-99410709D01*
X87614828Y-99410709D01*
X87641015Y-99413288D01*
X87667202Y-99410709D01*
X87667210Y-99410709D01*
X87745580Y-99402990D01*
X87846126Y-99372490D01*
X87938790Y-99322960D01*
X88020010Y-99256304D01*
X88036710Y-99235955D01*
X89396666Y-97876000D01*
X89417010Y-97859304D01*
X89483666Y-97778084D01*
X89533196Y-97685420D01*
X89563696Y-97584874D01*
X89567012Y-97551208D01*
X89646522Y-97471698D01*
X89732255Y-97343388D01*
X89791310Y-97200818D01*
X89821415Y-97049467D01*
X89821415Y-96895151D01*
X89791310Y-96743800D01*
X89732255Y-96601230D01*
X89646522Y-96472920D01*
X89537404Y-96363802D01*
X89533972Y-96361509D01*
X93717198Y-96361509D01*
X94151289Y-96404072D01*
X94549785Y-96524385D01*
X94917318Y-96719806D01*
X95239900Y-96982897D01*
X95505232Y-97303629D01*
X95703216Y-97669790D01*
X95826309Y-98067441D01*
X95871815Y-98500400D01*
X95871816Y-118796482D01*
X95829252Y-119230581D01*
X95708940Y-119629075D01*
X95513518Y-119996613D01*
X95250427Y-120319194D01*
X94929696Y-120584525D01*
X94563530Y-120782511D01*
X94165883Y-120905603D01*
X93732924Y-120951109D01*
X81771292Y-120951109D01*
X81789192Y-120933209D01*
X81939673Y-120933209D01*
X82091024Y-120903104D01*
X82233594Y-120844049D01*
X82361904Y-120758316D01*
X82471022Y-120649198D01*
X82556755Y-120520888D01*
X82615810Y-120378318D01*
X82645915Y-120226967D01*
X82645915Y-120072651D01*
X83873115Y-120072651D01*
X83873115Y-120226967D01*
X83903220Y-120378318D01*
X83962275Y-120520888D01*
X84048008Y-120649198D01*
X84157126Y-120758316D01*
X84285436Y-120844049D01*
X84428006Y-120903104D01*
X84579357Y-120933209D01*
X84733673Y-120933209D01*
X84885024Y-120903104D01*
X85027594Y-120844049D01*
X85155904Y-120758316D01*
X85265022Y-120649198D01*
X85350755Y-120520888D01*
X85409810Y-120378318D01*
X85439915Y-120226967D01*
X85439915Y-120072651D01*
X85409810Y-119921300D01*
X85350755Y-119778730D01*
X85265022Y-119650420D01*
X85155904Y-119541302D01*
X85050215Y-119470684D01*
X85050215Y-118696228D01*
X93025815Y-118696228D01*
X93025815Y-118936390D01*
X93072668Y-119171936D01*
X93164574Y-119393817D01*
X93298001Y-119593504D01*
X93467820Y-119763323D01*
X93667507Y-119896750D01*
X93889388Y-119988656D01*
X94124934Y-120035509D01*
X94365096Y-120035509D01*
X94600642Y-119988656D01*
X94822523Y-119896750D01*
X95022210Y-119763323D01*
X95192029Y-119593504D01*
X95325456Y-119393817D01*
X95417362Y-119171936D01*
X95464215Y-118936390D01*
X95464215Y-118696228D01*
X95417362Y-118460682D01*
X95325456Y-118238801D01*
X95192029Y-118039114D01*
X95022210Y-117869295D01*
X94822523Y-117735868D01*
X94600642Y-117643962D01*
X94365096Y-117597109D01*
X94124934Y-117597109D01*
X93889388Y-117643962D01*
X93667507Y-117735868D01*
X93467820Y-117869295D01*
X93298001Y-118039114D01*
X93164574Y-118238801D01*
X93072668Y-118460682D01*
X93025815Y-118696228D01*
X85050215Y-118696228D01*
X85050215Y-117735686D01*
X86629673Y-116156228D01*
X93025815Y-116156228D01*
X93025815Y-116396390D01*
X93072668Y-116631936D01*
X93164574Y-116853817D01*
X93298001Y-117053504D01*
X93467820Y-117223323D01*
X93667507Y-117356750D01*
X93889388Y-117448656D01*
X94124934Y-117495509D01*
X94365096Y-117495509D01*
X94600642Y-117448656D01*
X94822523Y-117356750D01*
X95022210Y-117223323D01*
X95192029Y-117053504D01*
X95325456Y-116853817D01*
X95417362Y-116631936D01*
X95464215Y-116396390D01*
X95464215Y-116156228D01*
X95417362Y-115920682D01*
X95325456Y-115698801D01*
X95192029Y-115499114D01*
X95022210Y-115329295D01*
X94822523Y-115195868D01*
X94600642Y-115103962D01*
X94365096Y-115057109D01*
X94124934Y-115057109D01*
X93889388Y-115103962D01*
X93667507Y-115195868D01*
X93467820Y-115329295D01*
X93298001Y-115499114D01*
X93164574Y-115698801D01*
X93072668Y-115920682D01*
X93025815Y-116156228D01*
X86629673Y-116156228D01*
X88592394Y-114193509D01*
X93114741Y-114193509D01*
X93164574Y-114313817D01*
X93298001Y-114513504D01*
X93467820Y-114683323D01*
X93667507Y-114816750D01*
X93889388Y-114908656D01*
X94124934Y-114955509D01*
X94365096Y-114955509D01*
X94600642Y-114908656D01*
X94822523Y-114816750D01*
X95022210Y-114683323D01*
X95192029Y-114513504D01*
X95325456Y-114313817D01*
X95417362Y-114091936D01*
X95464215Y-113856390D01*
X95464215Y-113616228D01*
X95417362Y-113380682D01*
X95325456Y-113158801D01*
X95192029Y-112959114D01*
X95022210Y-112789295D01*
X94822523Y-112655868D01*
X94600642Y-112563962D01*
X94365096Y-112517109D01*
X94124934Y-112517109D01*
X93889388Y-112563962D01*
X93667507Y-112655868D01*
X93467820Y-112789295D01*
X93298001Y-112959114D01*
X93164574Y-113158801D01*
X93114741Y-113279109D01*
X88425465Y-113279109D01*
X88403015Y-113276898D01*
X88380565Y-113279109D01*
X88380555Y-113279109D01*
X88313388Y-113285724D01*
X88247264Y-113305783D01*
X88227205Y-113311868D01*
X88147779Y-113354322D01*
X88095607Y-113397138D01*
X88095601Y-113397144D01*
X88078162Y-113411456D01*
X88063850Y-113428895D01*
X84285612Y-117207135D01*
X84268162Y-117221456D01*
X84211028Y-117291074D01*
X84168574Y-117370501D01*
X84142430Y-117456683D01*
X84135815Y-117523850D01*
X84135815Y-117523859D01*
X84133604Y-117546309D01*
X84135815Y-117568759D01*
X84135816Y-119562612D01*
X84048008Y-119650420D01*
X83962275Y-119778730D01*
X83903220Y-119921300D01*
X83873115Y-120072651D01*
X82645915Y-120072651D01*
X82615810Y-119921300D01*
X82556755Y-119778730D01*
X82471022Y-119650420D01*
X82361904Y-119541302D01*
X82233594Y-119455569D01*
X82091024Y-119396514D01*
X81939673Y-119366409D01*
X81785357Y-119366409D01*
X81634006Y-119396514D01*
X81491436Y-119455569D01*
X81363126Y-119541302D01*
X81254008Y-119650420D01*
X81168275Y-119778730D01*
X81109220Y-119921300D01*
X81079115Y-120072651D01*
X81079115Y-120226967D01*
X81086503Y-120264109D01*
X71764894Y-120264109D01*
X70314290Y-118813506D01*
X70826015Y-118813506D01*
X70890745Y-118807131D01*
X70952988Y-118788249D01*
X71010352Y-118757588D01*
X71060631Y-118716325D01*
X71101894Y-118666046D01*
X71132555Y-118608682D01*
X71151437Y-118546439D01*
X71157812Y-118481709D01*
X71157812Y-117680251D01*
X78545015Y-117680251D01*
X78545015Y-117834567D01*
X78575120Y-117985918D01*
X78634175Y-118128488D01*
X78719908Y-118256798D01*
X78829026Y-118365916D01*
X78957336Y-118451649D01*
X79099906Y-118510704D01*
X79251257Y-118540809D01*
X79405573Y-118540809D01*
X79556924Y-118510704D01*
X79699494Y-118451649D01*
X79827804Y-118365916D01*
X79903111Y-118290609D01*
X82702230Y-118290609D01*
X82728415Y-118293188D01*
X82754599Y-118290609D01*
X82754600Y-118290609D01*
X82832940Y-118282893D01*
X82933449Y-118252404D01*
X83026078Y-118202893D01*
X83107268Y-118136262D01*
X83173899Y-118055072D01*
X83223410Y-117962443D01*
X83253899Y-117861934D01*
X83264194Y-117757409D01*
X83261615Y-117731224D01*
X83261615Y-116578266D01*
X88763653Y-111076228D01*
X93025815Y-111076228D01*
X93025815Y-111316390D01*
X93072668Y-111551936D01*
X93164574Y-111773817D01*
X93298001Y-111973504D01*
X93467820Y-112143323D01*
X93667507Y-112276750D01*
X93889388Y-112368656D01*
X94124934Y-112415509D01*
X94365096Y-112415509D01*
X94600642Y-112368656D01*
X94822523Y-112276750D01*
X95022210Y-112143323D01*
X95192029Y-111973504D01*
X95325456Y-111773817D01*
X95417362Y-111551936D01*
X95464215Y-111316390D01*
X95464215Y-111076228D01*
X95417362Y-110840682D01*
X95325456Y-110618801D01*
X95192029Y-110419114D01*
X95022210Y-110249295D01*
X94822523Y-110115868D01*
X94600642Y-110023962D01*
X94365096Y-109977109D01*
X94124934Y-109977109D01*
X93889388Y-110023962D01*
X93667507Y-110115868D01*
X93467820Y-110249295D01*
X93298001Y-110419114D01*
X93164574Y-110618801D01*
X93072668Y-110840682D01*
X93025815Y-111076228D01*
X88763653Y-111076228D01*
X89699073Y-110140809D01*
X89805573Y-110140809D01*
X89956924Y-110110704D01*
X90099494Y-110051649D01*
X90227804Y-109965916D01*
X90336922Y-109856798D01*
X90422655Y-109728488D01*
X90481710Y-109585918D01*
X90511815Y-109434567D01*
X90511815Y-109280251D01*
X90481710Y-109128900D01*
X90422655Y-108986330D01*
X90336922Y-108858020D01*
X90227804Y-108748902D01*
X90099494Y-108663169D01*
X89956924Y-108604114D01*
X89805573Y-108574009D01*
X89651257Y-108574009D01*
X89499906Y-108604114D01*
X89357336Y-108663169D01*
X89229026Y-108748902D01*
X89119908Y-108858020D01*
X89034175Y-108986330D01*
X88975120Y-109128900D01*
X88945015Y-109280251D01*
X88945015Y-109386751D01*
X82369906Y-115961861D01*
X82349563Y-115978556D01*
X82282932Y-116059746D01*
X82256467Y-116109258D01*
X82233420Y-116152376D01*
X82202931Y-116252884D01*
X82192636Y-116357409D01*
X82195216Y-116383603D01*
X82195215Y-117224209D01*
X79903111Y-117224209D01*
X79827804Y-117148902D01*
X79699494Y-117063169D01*
X79556924Y-117004114D01*
X79405573Y-116974009D01*
X79251257Y-116974009D01*
X79099906Y-117004114D01*
X78957336Y-117063169D01*
X78829026Y-117148902D01*
X78719908Y-117258020D01*
X78634175Y-117386330D01*
X78575120Y-117528900D01*
X78545015Y-117680251D01*
X71157812Y-117680251D01*
X71157812Y-115281709D01*
X71151437Y-115216979D01*
X71132555Y-115154736D01*
X71101894Y-115097372D01*
X71060631Y-115047093D01*
X71010352Y-115005830D01*
X70952988Y-114975169D01*
X70890745Y-114956287D01*
X70826015Y-114949912D01*
X67626015Y-114949912D01*
X67561285Y-114956287D01*
X67499042Y-114975169D01*
X67441678Y-115005830D01*
X67391399Y-115047093D01*
X67350136Y-115097372D01*
X67319475Y-115154736D01*
X67300593Y-115216979D01*
X67294218Y-115281709D01*
X67294218Y-116424509D01*
X67036294Y-116424509D01*
X62888715Y-112276932D01*
X62888715Y-109784050D01*
X76720815Y-109784050D01*
X76720815Y-110144568D01*
X76791148Y-110498159D01*
X76929112Y-110831234D01*
X77129405Y-111130994D01*
X77384330Y-111385919D01*
X77684090Y-111586212D01*
X78017165Y-111724176D01*
X78370756Y-111794509D01*
X78731274Y-111794509D01*
X79084865Y-111724176D01*
X79417940Y-111586212D01*
X79717700Y-111385919D01*
X79972625Y-111130994D01*
X80172918Y-110831234D01*
X80310882Y-110498159D01*
X80381215Y-110144568D01*
X80381215Y-109784050D01*
X80310882Y-109430459D01*
X80172918Y-109097384D01*
X79972625Y-108797624D01*
X79717700Y-108542699D01*
X79708016Y-108536228D01*
X93025815Y-108536228D01*
X93025815Y-108776390D01*
X93072668Y-109011936D01*
X93164574Y-109233817D01*
X93298001Y-109433504D01*
X93467820Y-109603323D01*
X93667507Y-109736750D01*
X93889388Y-109828656D01*
X94124934Y-109875509D01*
X94365096Y-109875509D01*
X94600642Y-109828656D01*
X94822523Y-109736750D01*
X95022210Y-109603323D01*
X95192029Y-109433504D01*
X95325456Y-109233817D01*
X95417362Y-109011936D01*
X95464215Y-108776390D01*
X95464215Y-108536228D01*
X95417362Y-108300682D01*
X95325456Y-108078801D01*
X95192029Y-107879114D01*
X95022210Y-107709295D01*
X94822523Y-107575868D01*
X94600642Y-107483962D01*
X94365096Y-107437109D01*
X94124934Y-107437109D01*
X93889388Y-107483962D01*
X93667507Y-107575868D01*
X93467820Y-107709295D01*
X93298001Y-107879114D01*
X93164574Y-108078801D01*
X93072668Y-108300682D01*
X93025815Y-108536228D01*
X79708016Y-108536228D01*
X79417940Y-108342406D01*
X79084865Y-108204442D01*
X78731274Y-108134109D01*
X78370756Y-108134109D01*
X78017165Y-108204442D01*
X77684090Y-108342406D01*
X77384330Y-108542699D01*
X77129405Y-108797624D01*
X76929112Y-109097384D01*
X76791148Y-109430459D01*
X76720815Y-109784050D01*
X62888715Y-109784050D01*
X62888715Y-105996228D01*
X93025815Y-105996228D01*
X93025815Y-106236390D01*
X93072668Y-106471936D01*
X93164574Y-106693817D01*
X93298001Y-106893504D01*
X93467820Y-107063323D01*
X93667507Y-107196750D01*
X93889388Y-107288656D01*
X94124934Y-107335509D01*
X94365096Y-107335509D01*
X94600642Y-107288656D01*
X94822523Y-107196750D01*
X95022210Y-107063323D01*
X95192029Y-106893504D01*
X95325456Y-106693817D01*
X95417362Y-106471936D01*
X95464215Y-106236390D01*
X95464215Y-105996228D01*
X95417362Y-105760682D01*
X95325456Y-105538801D01*
X95192029Y-105339114D01*
X95022210Y-105169295D01*
X94822523Y-105035868D01*
X94600642Y-104943962D01*
X94365096Y-104897109D01*
X94124934Y-104897109D01*
X93889388Y-104943962D01*
X93667507Y-105035868D01*
X93467820Y-105169295D01*
X93298001Y-105339114D01*
X93164574Y-105538801D01*
X93072668Y-105760682D01*
X93025815Y-105996228D01*
X62888715Y-105996228D01*
X62888715Y-105480186D01*
X67294218Y-101074684D01*
X67294218Y-102030909D01*
X67300593Y-102095639D01*
X67319475Y-102157882D01*
X67350136Y-102215246D01*
X67391399Y-102265525D01*
X67441678Y-102306788D01*
X67499042Y-102337449D01*
X67561285Y-102356331D01*
X67626015Y-102362706D01*
X70826015Y-102362706D01*
X70890745Y-102356331D01*
X70952988Y-102337449D01*
X71010352Y-102306788D01*
X71060631Y-102265525D01*
X71101894Y-102215246D01*
X71132555Y-102157882D01*
X71151437Y-102095639D01*
X71157812Y-102030909D01*
X71157812Y-98830909D01*
X71151437Y-98766179D01*
X71132555Y-98703936D01*
X71101894Y-98646572D01*
X71060631Y-98596293D01*
X71010352Y-98555030D01*
X70952988Y-98524369D01*
X70890745Y-98505487D01*
X70826015Y-98499112D01*
X67626015Y-98499112D01*
X67561285Y-98505487D01*
X67499042Y-98524369D01*
X67441678Y-98555030D01*
X67391399Y-98596293D01*
X67350136Y-98646572D01*
X67319475Y-98703936D01*
X67300593Y-98766179D01*
X67294218Y-98830909D01*
X67294218Y-99971774D01*
X67291414Y-99971498D01*
X67268964Y-99973709D01*
X67268955Y-99973709D01*
X67201788Y-99980324D01*
X67115606Y-100006468D01*
X67078632Y-100026231D01*
X67036178Y-100048922D01*
X66998005Y-100080251D01*
X66966562Y-100106056D01*
X66952245Y-100123501D01*
X62479015Y-104596732D01*
X62479015Y-98306201D01*
X62596815Y-98306201D01*
X62596815Y-98686417D01*
X62670992Y-99059327D01*
X62816494Y-99410601D01*
X63027731Y-99726740D01*
X63296584Y-99995593D01*
X63612723Y-100206830D01*
X63963997Y-100352332D01*
X64336907Y-100426509D01*
X64717123Y-100426509D01*
X65090033Y-100352332D01*
X65441307Y-100206830D01*
X65757446Y-99995593D01*
X66026299Y-99726740D01*
X66237536Y-99410601D01*
X66383038Y-99059327D01*
X66457215Y-98686417D01*
X66457215Y-98306201D01*
X66383038Y-97933291D01*
X66237536Y-97582017D01*
X66026299Y-97265878D01*
X65757446Y-96997025D01*
X65441307Y-96785788D01*
X65090033Y-96640286D01*
X64717123Y-96566109D01*
X64336907Y-96566109D01*
X63963997Y-96640286D01*
X63612723Y-96785788D01*
X63296584Y-96997025D01*
X63027731Y-97265878D01*
X62816494Y-97582017D01*
X62670992Y-97933291D01*
X62596815Y-98306201D01*
X62479015Y-98306201D01*
X62479015Y-97935515D01*
X62555091Y-97683539D01*
X62750512Y-97316006D01*
X63013603Y-96993424D01*
X63334335Y-96728092D01*
X63700496Y-96530108D01*
X64098147Y-96407015D01*
X64531106Y-96361509D01*
X88542058Y-96361509D01*
X88538626Y-96363802D01*
G04 #@! TO.N,+3V3*
G36*
X160576388Y-54023665D02*
X160571332Y-106063355D01*
X99972469Y-106022885D01*
X99989607Y-101372960D01*
X101187280Y-101372960D01*
X101187280Y-103072960D01*
X101236563Y-103320725D01*
X101376911Y-103530769D01*
X101586955Y-103671117D01*
X101834720Y-103720400D01*
X103534720Y-103720400D01*
X103782485Y-103671117D01*
X103992529Y-103530769D01*
X104132877Y-103320725D01*
X104153459Y-103217252D01*
X104457796Y-103494605D01*
X104867830Y-103664436D01*
X105097720Y-103543115D01*
X105097720Y-102349960D01*
X105351720Y-102349960D01*
X105351720Y-103543115D01*
X105581610Y-103664436D01*
X105991644Y-103494605D01*
X106419903Y-103104318D01*
X106666206Y-102579852D01*
X106545539Y-102349960D01*
X105351720Y-102349960D01*
X105097720Y-102349960D01*
X105077720Y-102349960D01*
X105077720Y-102095960D01*
X105097720Y-102095960D01*
X105097720Y-100902805D01*
X105351720Y-100902805D01*
X105351720Y-102095960D01*
X106545539Y-102095960D01*
X106666206Y-101866068D01*
X106419903Y-101341602D01*
X105991644Y-100951315D01*
X105581610Y-100781484D01*
X105351720Y-100902805D01*
X105097720Y-100902805D01*
X104867830Y-100781484D01*
X104457796Y-100951315D01*
X104153459Y-101228668D01*
X104132877Y-101125195D01*
X103992529Y-100915151D01*
X103782485Y-100774803D01*
X103534720Y-100725520D01*
X101834720Y-100725520D01*
X101586955Y-100774803D01*
X101376911Y-100915151D01*
X101236563Y-101125195D01*
X101187280Y-101372960D01*
X99989607Y-101372960D01*
X100022475Y-92455410D01*
X101141644Y-92455410D01*
X101311475Y-92865444D01*
X101701762Y-93293703D01*
X102226228Y-93540006D01*
X102456120Y-93419339D01*
X102456120Y-92225520D01*
X102710120Y-92225520D01*
X102710120Y-93419339D01*
X102940012Y-93540006D01*
X103464478Y-93293703D01*
X103646190Y-93094312D01*
X103734793Y-93308219D01*
X103913422Y-93486847D01*
X104146811Y-93583520D01*
X104837370Y-93583520D01*
X104996120Y-93424770D01*
X104996120Y-92225520D01*
X105250120Y-92225520D01*
X105250120Y-93424770D01*
X105408870Y-93583520D01*
X106099429Y-93583520D01*
X106332818Y-93486847D01*
X106511447Y-93308219D01*
X106608120Y-93074830D01*
X106608120Y-92384270D01*
X106449370Y-92225520D01*
X105250120Y-92225520D01*
X104996120Y-92225520D01*
X102710120Y-92225520D01*
X102456120Y-92225520D01*
X101262965Y-92225520D01*
X101141644Y-92455410D01*
X100022475Y-92455410D01*
X100051026Y-84709175D01*
X100135309Y-84835313D01*
X100196232Y-84926491D01*
X100259688Y-84968891D01*
X101402825Y-86112028D01*
X101184281Y-86439102D01*
X101069028Y-87018520D01*
X101184281Y-87597938D01*
X101512495Y-88089145D01*
X101810881Y-88288520D01*
X101512495Y-88487895D01*
X101184281Y-88979102D01*
X101069028Y-89558520D01*
X101184281Y-90137938D01*
X101512495Y-90629145D01*
X101831598Y-90842363D01*
X101701762Y-90903337D01*
X101311475Y-91331596D01*
X101141644Y-91741630D01*
X101262965Y-91971520D01*
X102456120Y-91971520D01*
X102456120Y-91951520D01*
X102710120Y-91951520D01*
X102710120Y-91971520D01*
X104996120Y-91971520D01*
X104996120Y-91951520D01*
X105250120Y-91951520D01*
X105250120Y-91971520D01*
X106449370Y-91971520D01*
X106608120Y-91812770D01*
X106608120Y-91122210D01*
X106511447Y-90888821D01*
X106332818Y-90710193D01*
X106172087Y-90643616D01*
X106193745Y-90629145D01*
X106521959Y-90137938D01*
X106637212Y-89558520D01*
X106521959Y-88979102D01*
X106193745Y-88487895D01*
X105895359Y-88288520D01*
X106193745Y-88089145D01*
X106521959Y-87597938D01*
X106637212Y-87018520D01*
X106521959Y-86439102D01*
X106193745Y-85947895D01*
X105895359Y-85748520D01*
X106193745Y-85549145D01*
X106521959Y-85057938D01*
X106637212Y-84478520D01*
X106521959Y-83899102D01*
X106193745Y-83407895D01*
X105895359Y-83208520D01*
X106193745Y-83009145D01*
X106521959Y-82517938D01*
X106637212Y-81938520D01*
X106521959Y-81359102D01*
X106193745Y-80867895D01*
X105895359Y-80668520D01*
X106193745Y-80469145D01*
X106521959Y-79977938D01*
X106637212Y-79398520D01*
X106521959Y-78819102D01*
X106193745Y-78327895D01*
X105895359Y-78128520D01*
X106193745Y-77929145D01*
X106521959Y-77437938D01*
X106637212Y-76858520D01*
X106563043Y-76485648D01*
X106687569Y-76786280D01*
X106978720Y-77077431D01*
X107359126Y-77235000D01*
X107770874Y-77235000D01*
X108151280Y-77077431D01*
X108442431Y-76786280D01*
X108600000Y-76405874D01*
X108600000Y-75994126D01*
X108442431Y-75613720D01*
X108151280Y-75322569D01*
X107770874Y-75165000D01*
X107359126Y-75165000D01*
X106978720Y-75322569D01*
X106687569Y-75613720D01*
X106530000Y-75994126D01*
X106530000Y-76319527D01*
X106521959Y-76279102D01*
X106193745Y-75787895D01*
X105895359Y-75588520D01*
X106193745Y-75389145D01*
X106401489Y-75078234D01*
X106621738Y-75034424D01*
X106873130Y-74866449D01*
X106915532Y-74802990D01*
X107358523Y-74360000D01*
X117580000Y-74360000D01*
X117580000Y-74730874D01*
X117737569Y-75111280D01*
X118028720Y-75402431D01*
X118409126Y-75560000D01*
X118820874Y-75560000D01*
X119201280Y-75402431D01*
X119492431Y-75111280D01*
X119571570Y-74920221D01*
X125116349Y-80465001D01*
X120414831Y-80465001D01*
X120339983Y-80450113D01*
X120265135Y-80465001D01*
X120265131Y-80465001D01*
X120115196Y-80494825D01*
X120043445Y-80509097D01*
X119911980Y-80596940D01*
X119792054Y-80677072D01*
X119749654Y-80740528D01*
X116300183Y-84190000D01*
X116134110Y-84190000D01*
X115753704Y-84347569D01*
X115589985Y-84511288D01*
X115426266Y-84347569D01*
X115045860Y-84190000D01*
X114634112Y-84190000D01*
X114253706Y-84347569D01*
X113962555Y-84638720D01*
X113804986Y-85019126D01*
X113804986Y-85430874D01*
X113962555Y-85811280D01*
X114253706Y-86102431D01*
X114634112Y-86260000D01*
X115045860Y-86260000D01*
X115426266Y-86102431D01*
X115589985Y-85938712D01*
X115753704Y-86102431D01*
X116134110Y-86260000D01*
X116545858Y-86260000D01*
X116879302Y-86121883D01*
X117184854Y-86248447D01*
X117596602Y-86248447D01*
X117936774Y-86107544D01*
X118184126Y-86210000D01*
X118595874Y-86210000D01*
X118976280Y-86052431D01*
X119267431Y-85761280D01*
X119330000Y-85610225D01*
X119330000Y-85880874D01*
X119487569Y-86261280D01*
X119778720Y-86552431D01*
X120159126Y-86710000D01*
X120570874Y-86710000D01*
X120951280Y-86552431D01*
X121242431Y-86261280D01*
X121400000Y-85880874D01*
X121400000Y-85714801D01*
X122529802Y-84585000D01*
X122870874Y-84585000D01*
X123251280Y-84427431D01*
X123542431Y-84136280D01*
X123677580Y-83810000D01*
X123845874Y-83810000D01*
X124226280Y-83652431D01*
X124517431Y-83361280D01*
X124611159Y-83135000D01*
X124945874Y-83135000D01*
X125326280Y-82977431D01*
X125617431Y-82686280D01*
X125673101Y-82551880D01*
X125934126Y-82660000D01*
X126345874Y-82660000D01*
X126726280Y-82502431D01*
X126745575Y-82483136D01*
X126803720Y-82541281D01*
X127184126Y-82698850D01*
X127454999Y-82698850D01*
X127454999Y-85243915D01*
X122643486Y-90055430D01*
X122545874Y-90014998D01*
X122134126Y-90014998D01*
X121753720Y-90172567D01*
X121695552Y-90230735D01*
X120975000Y-89510184D01*
X120975000Y-89344112D01*
X120817431Y-88963706D01*
X120526280Y-88672555D01*
X120145874Y-88514986D01*
X119734126Y-88514986D01*
X119353720Y-88672555D01*
X119062569Y-88963706D01*
X118905000Y-89344112D01*
X118905000Y-89755860D01*
X119062569Y-90136266D01*
X119353720Y-90427417D01*
X119734126Y-90584986D01*
X119900198Y-90584986D01*
X120849685Y-91534474D01*
X120892083Y-91597927D01*
X120955536Y-91640325D01*
X120955538Y-91640327D01*
X121036670Y-91694537D01*
X121143475Y-91765902D01*
X121365160Y-91809998D01*
X121365164Y-91809998D01*
X121440011Y-91824886D01*
X121514858Y-91809998D01*
X121628202Y-91809998D01*
X119538288Y-93899913D01*
X119474832Y-93942313D01*
X119432432Y-94005769D01*
X119432431Y-94005770D01*
X119374979Y-94091753D01*
X119306857Y-94193705D01*
X119281225Y-94322568D01*
X119247872Y-94490242D01*
X119262761Y-94565094D01*
X119262760Y-100825553D01*
X118899016Y-100753200D01*
X118606504Y-100753200D01*
X118173342Y-100839361D01*
X117682135Y-101167575D01*
X117482760Y-101465961D01*
X117283385Y-101167575D01*
X116792178Y-100839361D01*
X116359016Y-100753200D01*
X116066504Y-100753200D01*
X115633342Y-100839361D01*
X115142135Y-101167575D01*
X115129944Y-101185819D01*
X115120917Y-101140435D01*
X114980569Y-100930391D01*
X114770525Y-100790043D01*
X114522760Y-100740760D01*
X112822760Y-100740760D01*
X112574995Y-100790043D01*
X112364951Y-100930391D01*
X112224603Y-101140435D01*
X112175320Y-101388200D01*
X112175320Y-103088200D01*
X112224603Y-103335965D01*
X112364951Y-103546009D01*
X112574995Y-103686357D01*
X112822760Y-103735640D01*
X114522760Y-103735640D01*
X114770525Y-103686357D01*
X114980569Y-103546009D01*
X115120917Y-103335965D01*
X115129944Y-103290581D01*
X115142135Y-103308825D01*
X115633342Y-103637039D01*
X116066504Y-103723200D01*
X116359016Y-103723200D01*
X116792178Y-103637039D01*
X117283385Y-103308825D01*
X117482760Y-103010439D01*
X117682135Y-103308825D01*
X118173342Y-103637039D01*
X118606504Y-103723200D01*
X118899016Y-103723200D01*
X119332178Y-103637039D01*
X119544517Y-103495158D01*
X120402711Y-104353353D01*
X120445111Y-104416809D01*
X120696503Y-104584784D01*
X120918188Y-104628880D01*
X120918192Y-104628880D01*
X120993039Y-104643768D01*
X121067886Y-104628880D01*
X144987233Y-104628880D01*
X145062080Y-104643768D01*
X145136927Y-104628880D01*
X145136932Y-104628880D01*
X145358617Y-104584784D01*
X145610009Y-104416809D01*
X145652411Y-104353350D01*
X146326352Y-103679409D01*
X146546504Y-103723200D01*
X146839016Y-103723200D01*
X147272178Y-103637039D01*
X147763385Y-103308825D01*
X147962760Y-103010439D01*
X148162135Y-103308825D01*
X148653342Y-103637039D01*
X149086504Y-103723200D01*
X149379016Y-103723200D01*
X149812178Y-103637039D01*
X150303385Y-103308825D01*
X150502760Y-103010439D01*
X150702135Y-103308825D01*
X151193342Y-103637039D01*
X151626504Y-103723200D01*
X151919016Y-103723200D01*
X152352178Y-103637039D01*
X152843385Y-103308825D01*
X153171599Y-102817618D01*
X153286852Y-102238200D01*
X153171599Y-101658782D01*
X152843385Y-101167575D01*
X152352178Y-100839361D01*
X151919016Y-100753200D01*
X151626504Y-100753200D01*
X151406352Y-100796991D01*
X149824936Y-99215575D01*
X149782534Y-99152116D01*
X149531142Y-98984141D01*
X149309457Y-98940045D01*
X149309452Y-98940045D01*
X149234605Y-98925157D01*
X149159758Y-98940045D01*
X137599757Y-98940045D01*
X137779802Y-98760000D01*
X137945874Y-98760000D01*
X138326280Y-98602431D01*
X138617431Y-98311280D01*
X138656085Y-98217960D01*
X138675461Y-98230906D01*
X138897146Y-98275002D01*
X138897150Y-98275002D01*
X138971997Y-98289890D01*
X139046844Y-98275002D01*
X156452600Y-98275002D01*
X156452600Y-99537280D01*
X156501883Y-99785045D01*
X156642231Y-99995089D01*
X156852275Y-100135437D01*
X157100040Y-100184720D01*
X158800040Y-100184720D01*
X159047805Y-100135437D01*
X159257849Y-99995089D01*
X159398197Y-99785045D01*
X159447480Y-99537280D01*
X159447480Y-97837280D01*
X159398197Y-97589515D01*
X159257849Y-97379471D01*
X159047805Y-97239123D01*
X159002421Y-97230096D01*
X159020665Y-97217905D01*
X159348879Y-96726698D01*
X159464132Y-96147280D01*
X159348879Y-95567862D01*
X159020665Y-95076655D01*
X158722279Y-94877280D01*
X159020665Y-94677905D01*
X159348879Y-94186698D01*
X159464132Y-93607280D01*
X159348879Y-93027862D01*
X159020665Y-92536655D01*
X158722279Y-92337280D01*
X159020665Y-92137905D01*
X159348879Y-91646698D01*
X159464132Y-91067280D01*
X159391249Y-90700872D01*
X159951491Y-90140631D01*
X160014947Y-90098231D01*
X160182922Y-89846839D01*
X160227018Y-89625154D01*
X160227018Y-89625149D01*
X160241906Y-89550302D01*
X160227018Y-89475455D01*
X160227018Y-80604265D01*
X160241906Y-80529418D01*
X160227018Y-80454571D01*
X160227018Y-80454566D01*
X160182922Y-80232881D01*
X160014947Y-79981489D01*
X159951491Y-79939089D01*
X159192755Y-79180354D01*
X159348879Y-78946698D01*
X159464132Y-78367280D01*
X159348879Y-77787862D01*
X159020665Y-77296655D01*
X158722279Y-77097280D01*
X159020665Y-76897905D01*
X159348879Y-76406698D01*
X159464132Y-75827280D01*
X159348879Y-75247862D01*
X159020665Y-74756655D01*
X158722279Y-74557280D01*
X159020665Y-74357905D01*
X159348879Y-73866698D01*
X159464132Y-73287280D01*
X159348879Y-72707862D01*
X159020665Y-72216655D01*
X158722279Y-72017280D01*
X159020665Y-71817905D01*
X159348879Y-71326698D01*
X159464132Y-70747280D01*
X159348879Y-70167862D01*
X159020665Y-69676655D01*
X158722279Y-69477280D01*
X159020665Y-69277905D01*
X159348879Y-68786698D01*
X159464132Y-68207280D01*
X159348879Y-67627862D01*
X159020665Y-67136655D01*
X158722279Y-66937280D01*
X159020665Y-66737905D01*
X159348879Y-66246698D01*
X159464132Y-65667280D01*
X159348879Y-65087862D01*
X159020665Y-64596655D01*
X158722279Y-64397280D01*
X159020665Y-64197905D01*
X159348879Y-63706698D01*
X159464132Y-63127280D01*
X159348879Y-62547862D01*
X159020665Y-62056655D01*
X158722279Y-61857280D01*
X159020665Y-61657905D01*
X159348879Y-61166698D01*
X159464132Y-60587280D01*
X159348879Y-60007862D01*
X159020665Y-59516655D01*
X158709754Y-59308911D01*
X158665944Y-59088662D01*
X158497969Y-58837270D01*
X158434513Y-58794870D01*
X154606572Y-54966930D01*
X154564170Y-54903471D01*
X154312778Y-54735496D01*
X154091093Y-54691400D01*
X154091088Y-54691400D01*
X154016241Y-54676512D01*
X153941394Y-54691400D01*
X145471373Y-54691400D01*
X145301973Y-54522000D01*
X145259571Y-54458541D01*
X145008179Y-54290566D01*
X144786494Y-54246470D01*
X144786489Y-54246470D01*
X144711642Y-54231582D01*
X144636795Y-54246470D01*
X106155978Y-54246470D01*
X106081130Y-54231582D01*
X106006282Y-54246470D01*
X106006278Y-54246470D01*
X105832735Y-54280990D01*
X105784592Y-54290566D01*
X105597548Y-54415546D01*
X105533201Y-54458541D01*
X105490801Y-54521997D01*
X100224129Y-59788670D01*
X100160671Y-59831071D01*
X100142620Y-59858086D01*
X100164572Y-53902255D01*
X160576388Y-54023665D01*
X160576388Y-54023665D01*
G37*
X160576388Y-54023665D02*
X160571332Y-106063355D01*
X99972469Y-106022885D01*
X99989607Y-101372960D01*
X101187280Y-101372960D01*
X101187280Y-103072960D01*
X101236563Y-103320725D01*
X101376911Y-103530769D01*
X101586955Y-103671117D01*
X101834720Y-103720400D01*
X103534720Y-103720400D01*
X103782485Y-103671117D01*
X103992529Y-103530769D01*
X104132877Y-103320725D01*
X104153459Y-103217252D01*
X104457796Y-103494605D01*
X104867830Y-103664436D01*
X105097720Y-103543115D01*
X105097720Y-102349960D01*
X105351720Y-102349960D01*
X105351720Y-103543115D01*
X105581610Y-103664436D01*
X105991644Y-103494605D01*
X106419903Y-103104318D01*
X106666206Y-102579852D01*
X106545539Y-102349960D01*
X105351720Y-102349960D01*
X105097720Y-102349960D01*
X105077720Y-102349960D01*
X105077720Y-102095960D01*
X105097720Y-102095960D01*
X105097720Y-100902805D01*
X105351720Y-100902805D01*
X105351720Y-102095960D01*
X106545539Y-102095960D01*
X106666206Y-101866068D01*
X106419903Y-101341602D01*
X105991644Y-100951315D01*
X105581610Y-100781484D01*
X105351720Y-100902805D01*
X105097720Y-100902805D01*
X104867830Y-100781484D01*
X104457796Y-100951315D01*
X104153459Y-101228668D01*
X104132877Y-101125195D01*
X103992529Y-100915151D01*
X103782485Y-100774803D01*
X103534720Y-100725520D01*
X101834720Y-100725520D01*
X101586955Y-100774803D01*
X101376911Y-100915151D01*
X101236563Y-101125195D01*
X101187280Y-101372960D01*
X99989607Y-101372960D01*
X100022475Y-92455410D01*
X101141644Y-92455410D01*
X101311475Y-92865444D01*
X101701762Y-93293703D01*
X102226228Y-93540006D01*
X102456120Y-93419339D01*
X102456120Y-92225520D01*
X102710120Y-92225520D01*
X102710120Y-93419339D01*
X102940012Y-93540006D01*
X103464478Y-93293703D01*
X103646190Y-93094312D01*
X103734793Y-93308219D01*
X103913422Y-93486847D01*
X104146811Y-93583520D01*
X104837370Y-93583520D01*
X104996120Y-93424770D01*
X104996120Y-92225520D01*
X105250120Y-92225520D01*
X105250120Y-93424770D01*
X105408870Y-93583520D01*
X106099429Y-93583520D01*
X106332818Y-93486847D01*
X106511447Y-93308219D01*
X106608120Y-93074830D01*
X106608120Y-92384270D01*
X106449370Y-92225520D01*
X105250120Y-92225520D01*
X104996120Y-92225520D01*
X102710120Y-92225520D01*
X102456120Y-92225520D01*
X101262965Y-92225520D01*
X101141644Y-92455410D01*
X100022475Y-92455410D01*
X100051026Y-84709175D01*
X100135309Y-84835313D01*
X100196232Y-84926491D01*
X100259688Y-84968891D01*
X101402825Y-86112028D01*
X101184281Y-86439102D01*
X101069028Y-87018520D01*
X101184281Y-87597938D01*
X101512495Y-88089145D01*
X101810881Y-88288520D01*
X101512495Y-88487895D01*
X101184281Y-88979102D01*
X101069028Y-89558520D01*
X101184281Y-90137938D01*
X101512495Y-90629145D01*
X101831598Y-90842363D01*
X101701762Y-90903337D01*
X101311475Y-91331596D01*
X101141644Y-91741630D01*
X101262965Y-91971520D01*
X102456120Y-91971520D01*
X102456120Y-91951520D01*
X102710120Y-91951520D01*
X102710120Y-91971520D01*
X104996120Y-91971520D01*
X104996120Y-91951520D01*
X105250120Y-91951520D01*
X105250120Y-91971520D01*
X106449370Y-91971520D01*
X106608120Y-91812770D01*
X106608120Y-91122210D01*
X106511447Y-90888821D01*
X106332818Y-90710193D01*
X106172087Y-90643616D01*
X106193745Y-90629145D01*
X106521959Y-90137938D01*
X106637212Y-89558520D01*
X106521959Y-88979102D01*
X106193745Y-88487895D01*
X105895359Y-88288520D01*
X106193745Y-88089145D01*
X106521959Y-87597938D01*
X106637212Y-87018520D01*
X106521959Y-86439102D01*
X106193745Y-85947895D01*
X105895359Y-85748520D01*
X106193745Y-85549145D01*
X106521959Y-85057938D01*
X106637212Y-84478520D01*
X106521959Y-83899102D01*
X106193745Y-83407895D01*
X105895359Y-83208520D01*
X106193745Y-83009145D01*
X106521959Y-82517938D01*
X106637212Y-81938520D01*
X106521959Y-81359102D01*
X106193745Y-80867895D01*
X105895359Y-80668520D01*
X106193745Y-80469145D01*
X106521959Y-79977938D01*
X106637212Y-79398520D01*
X106521959Y-78819102D01*
X106193745Y-78327895D01*
X105895359Y-78128520D01*
X106193745Y-77929145D01*
X106521959Y-77437938D01*
X106637212Y-76858520D01*
X106563043Y-76485648D01*
X106687569Y-76786280D01*
X106978720Y-77077431D01*
X107359126Y-77235000D01*
X107770874Y-77235000D01*
X108151280Y-77077431D01*
X108442431Y-76786280D01*
X108600000Y-76405874D01*
X108600000Y-75994126D01*
X108442431Y-75613720D01*
X108151280Y-75322569D01*
X107770874Y-75165000D01*
X107359126Y-75165000D01*
X106978720Y-75322569D01*
X106687569Y-75613720D01*
X106530000Y-75994126D01*
X106530000Y-76319527D01*
X106521959Y-76279102D01*
X106193745Y-75787895D01*
X105895359Y-75588520D01*
X106193745Y-75389145D01*
X106401489Y-75078234D01*
X106621738Y-75034424D01*
X106873130Y-74866449D01*
X106915532Y-74802990D01*
X107358523Y-74360000D01*
X117580000Y-74360000D01*
X117580000Y-74730874D01*
X117737569Y-75111280D01*
X118028720Y-75402431D01*
X118409126Y-75560000D01*
X118820874Y-75560000D01*
X119201280Y-75402431D01*
X119492431Y-75111280D01*
X119571570Y-74920221D01*
X125116349Y-80465001D01*
X120414831Y-80465001D01*
X120339983Y-80450113D01*
X120265135Y-80465001D01*
X120265131Y-80465001D01*
X120115196Y-80494825D01*
X120043445Y-80509097D01*
X119911980Y-80596940D01*
X119792054Y-80677072D01*
X119749654Y-80740528D01*
X116300183Y-84190000D01*
X116134110Y-84190000D01*
X115753704Y-84347569D01*
X115589985Y-84511288D01*
X115426266Y-84347569D01*
X115045860Y-84190000D01*
X114634112Y-84190000D01*
X114253706Y-84347569D01*
X113962555Y-84638720D01*
X113804986Y-85019126D01*
X113804986Y-85430874D01*
X113962555Y-85811280D01*
X114253706Y-86102431D01*
X114634112Y-86260000D01*
X115045860Y-86260000D01*
X115426266Y-86102431D01*
X115589985Y-85938712D01*
X115753704Y-86102431D01*
X116134110Y-86260000D01*
X116545858Y-86260000D01*
X116879302Y-86121883D01*
X117184854Y-86248447D01*
X117596602Y-86248447D01*
X117936774Y-86107544D01*
X118184126Y-86210000D01*
X118595874Y-86210000D01*
X118976280Y-86052431D01*
X119267431Y-85761280D01*
X119330000Y-85610225D01*
X119330000Y-85880874D01*
X119487569Y-86261280D01*
X119778720Y-86552431D01*
X120159126Y-86710000D01*
X120570874Y-86710000D01*
X120951280Y-86552431D01*
X121242431Y-86261280D01*
X121400000Y-85880874D01*
X121400000Y-85714801D01*
X122529802Y-84585000D01*
X122870874Y-84585000D01*
X123251280Y-84427431D01*
X123542431Y-84136280D01*
X123677580Y-83810000D01*
X123845874Y-83810000D01*
X124226280Y-83652431D01*
X124517431Y-83361280D01*
X124611159Y-83135000D01*
X124945874Y-83135000D01*
X125326280Y-82977431D01*
X125617431Y-82686280D01*
X125673101Y-82551880D01*
X125934126Y-82660000D01*
X126345874Y-82660000D01*
X126726280Y-82502431D01*
X126745575Y-82483136D01*
X126803720Y-82541281D01*
X127184126Y-82698850D01*
X127454999Y-82698850D01*
X127454999Y-85243915D01*
X122643486Y-90055430D01*
X122545874Y-90014998D01*
X122134126Y-90014998D01*
X121753720Y-90172567D01*
X121695552Y-90230735D01*
X120975000Y-89510184D01*
X120975000Y-89344112D01*
X120817431Y-88963706D01*
X120526280Y-88672555D01*
X120145874Y-88514986D01*
X119734126Y-88514986D01*
X119353720Y-88672555D01*
X119062569Y-88963706D01*
X118905000Y-89344112D01*
X118905000Y-89755860D01*
X119062569Y-90136266D01*
X119353720Y-90427417D01*
X119734126Y-90584986D01*
X119900198Y-90584986D01*
X120849685Y-91534474D01*
X120892083Y-91597927D01*
X120955536Y-91640325D01*
X120955538Y-91640327D01*
X121036670Y-91694537D01*
X121143475Y-91765902D01*
X121365160Y-91809998D01*
X121365164Y-91809998D01*
X121440011Y-91824886D01*
X121514858Y-91809998D01*
X121628202Y-91809998D01*
X119538288Y-93899913D01*
X119474832Y-93942313D01*
X119432432Y-94005769D01*
X119432431Y-94005770D01*
X119374979Y-94091753D01*
X119306857Y-94193705D01*
X119281225Y-94322568D01*
X119247872Y-94490242D01*
X119262761Y-94565094D01*
X119262760Y-100825553D01*
X118899016Y-100753200D01*
X118606504Y-100753200D01*
X118173342Y-100839361D01*
X117682135Y-101167575D01*
X117482760Y-101465961D01*
X117283385Y-101167575D01*
X116792178Y-100839361D01*
X116359016Y-100753200D01*
X116066504Y-100753200D01*
X115633342Y-100839361D01*
X115142135Y-101167575D01*
X115129944Y-101185819D01*
X115120917Y-101140435D01*
X114980569Y-100930391D01*
X114770525Y-100790043D01*
X114522760Y-100740760D01*
X112822760Y-100740760D01*
X112574995Y-100790043D01*
X112364951Y-100930391D01*
X112224603Y-101140435D01*
X112175320Y-101388200D01*
X112175320Y-103088200D01*
X112224603Y-103335965D01*
X112364951Y-103546009D01*
X112574995Y-103686357D01*
X112822760Y-103735640D01*
X114522760Y-103735640D01*
X114770525Y-103686357D01*
X114980569Y-103546009D01*
X115120917Y-103335965D01*
X115129944Y-103290581D01*
X115142135Y-103308825D01*
X115633342Y-103637039D01*
X116066504Y-103723200D01*
X116359016Y-103723200D01*
X116792178Y-103637039D01*
X117283385Y-103308825D01*
X117482760Y-103010439D01*
X117682135Y-103308825D01*
X118173342Y-103637039D01*
X118606504Y-103723200D01*
X118899016Y-103723200D01*
X119332178Y-103637039D01*
X119544517Y-103495158D01*
X120402711Y-104353353D01*
X120445111Y-104416809D01*
X120696503Y-104584784D01*
X120918188Y-104628880D01*
X120918192Y-104628880D01*
X120993039Y-104643768D01*
X121067886Y-104628880D01*
X144987233Y-104628880D01*
X145062080Y-104643768D01*
X145136927Y-104628880D01*
X145136932Y-104628880D01*
X145358617Y-104584784D01*
X145610009Y-104416809D01*
X145652411Y-104353350D01*
X146326352Y-103679409D01*
X146546504Y-103723200D01*
X146839016Y-103723200D01*
X147272178Y-103637039D01*
X147763385Y-103308825D01*
X147962760Y-103010439D01*
X148162135Y-103308825D01*
X148653342Y-103637039D01*
X149086504Y-103723200D01*
X149379016Y-103723200D01*
X149812178Y-103637039D01*
X150303385Y-103308825D01*
X150502760Y-103010439D01*
X150702135Y-103308825D01*
X151193342Y-103637039D01*
X151626504Y-103723200D01*
X151919016Y-103723200D01*
X152352178Y-103637039D01*
X152843385Y-103308825D01*
X153171599Y-102817618D01*
X153286852Y-102238200D01*
X153171599Y-101658782D01*
X152843385Y-101167575D01*
X152352178Y-100839361D01*
X151919016Y-100753200D01*
X151626504Y-100753200D01*
X151406352Y-100796991D01*
X149824936Y-99215575D01*
X149782534Y-99152116D01*
X149531142Y-98984141D01*
X149309457Y-98940045D01*
X149309452Y-98940045D01*
X149234605Y-98925157D01*
X149159758Y-98940045D01*
X137599757Y-98940045D01*
X137779802Y-98760000D01*
X137945874Y-98760000D01*
X138326280Y-98602431D01*
X138617431Y-98311280D01*
X138656085Y-98217960D01*
X138675461Y-98230906D01*
X138897146Y-98275002D01*
X138897150Y-98275002D01*
X138971997Y-98289890D01*
X139046844Y-98275002D01*
X156452600Y-98275002D01*
X156452600Y-99537280D01*
X156501883Y-99785045D01*
X156642231Y-99995089D01*
X156852275Y-100135437D01*
X157100040Y-100184720D01*
X158800040Y-100184720D01*
X159047805Y-100135437D01*
X159257849Y-99995089D01*
X159398197Y-99785045D01*
X159447480Y-99537280D01*
X159447480Y-97837280D01*
X159398197Y-97589515D01*
X159257849Y-97379471D01*
X159047805Y-97239123D01*
X159002421Y-97230096D01*
X159020665Y-97217905D01*
X159348879Y-96726698D01*
X159464132Y-96147280D01*
X159348879Y-95567862D01*
X159020665Y-95076655D01*
X158722279Y-94877280D01*
X159020665Y-94677905D01*
X159348879Y-94186698D01*
X159464132Y-93607280D01*
X159348879Y-93027862D01*
X159020665Y-92536655D01*
X158722279Y-92337280D01*
X159020665Y-92137905D01*
X159348879Y-91646698D01*
X159464132Y-91067280D01*
X159391249Y-90700872D01*
X159951491Y-90140631D01*
X160014947Y-90098231D01*
X160182922Y-89846839D01*
X160227018Y-89625154D01*
X160227018Y-89625149D01*
X160241906Y-89550302D01*
X160227018Y-89475455D01*
X160227018Y-80604265D01*
X160241906Y-80529418D01*
X160227018Y-80454571D01*
X160227018Y-80454566D01*
X160182922Y-80232881D01*
X160014947Y-79981489D01*
X159951491Y-79939089D01*
X159192755Y-79180354D01*
X159348879Y-78946698D01*
X159464132Y-78367280D01*
X159348879Y-77787862D01*
X159020665Y-77296655D01*
X158722279Y-77097280D01*
X159020665Y-76897905D01*
X159348879Y-76406698D01*
X159464132Y-75827280D01*
X159348879Y-75247862D01*
X159020665Y-74756655D01*
X158722279Y-74557280D01*
X159020665Y-74357905D01*
X159348879Y-73866698D01*
X159464132Y-73287280D01*
X159348879Y-72707862D01*
X159020665Y-72216655D01*
X158722279Y-72017280D01*
X159020665Y-71817905D01*
X159348879Y-71326698D01*
X159464132Y-70747280D01*
X159348879Y-70167862D01*
X159020665Y-69676655D01*
X158722279Y-69477280D01*
X159020665Y-69277905D01*
X159348879Y-68786698D01*
X159464132Y-68207280D01*
X159348879Y-67627862D01*
X159020665Y-67136655D01*
X158722279Y-66937280D01*
X159020665Y-66737905D01*
X159348879Y-66246698D01*
X159464132Y-65667280D01*
X159348879Y-65087862D01*
X159020665Y-64596655D01*
X158722279Y-64397280D01*
X159020665Y-64197905D01*
X159348879Y-63706698D01*
X159464132Y-63127280D01*
X159348879Y-62547862D01*
X159020665Y-62056655D01*
X158722279Y-61857280D01*
X159020665Y-61657905D01*
X159348879Y-61166698D01*
X159464132Y-60587280D01*
X159348879Y-60007862D01*
X159020665Y-59516655D01*
X158709754Y-59308911D01*
X158665944Y-59088662D01*
X158497969Y-58837270D01*
X158434513Y-58794870D01*
X154606572Y-54966930D01*
X154564170Y-54903471D01*
X154312778Y-54735496D01*
X154091093Y-54691400D01*
X154091088Y-54691400D01*
X154016241Y-54676512D01*
X153941394Y-54691400D01*
X145471373Y-54691400D01*
X145301973Y-54522000D01*
X145259571Y-54458541D01*
X145008179Y-54290566D01*
X144786494Y-54246470D01*
X144786489Y-54246470D01*
X144711642Y-54231582D01*
X144636795Y-54246470D01*
X106155978Y-54246470D01*
X106081130Y-54231582D01*
X106006282Y-54246470D01*
X106006278Y-54246470D01*
X105832735Y-54280990D01*
X105784592Y-54290566D01*
X105597548Y-54415546D01*
X105533201Y-54458541D01*
X105490801Y-54521997D01*
X100224129Y-59788670D01*
X100160671Y-59831071D01*
X100142620Y-59858086D01*
X100164572Y-53902255D01*
X160576388Y-54023665D01*
G36*
X124629923Y-94241235D02*
X124445874Y-94164999D01*
X124435129Y-94164999D01*
X124435129Y-92562035D01*
X124552560Y-92444604D01*
X124629924Y-92257831D01*
X124629923Y-94241235D01*
X124629923Y-94241235D01*
G37*
X124629923Y-94241235D02*
X124445874Y-94164999D01*
X124435129Y-94164999D01*
X124435129Y-92562035D01*
X124552560Y-92444604D01*
X124629924Y-92257831D01*
X124629923Y-94241235D01*
G36*
X124629924Y-91458817D02*
X124552560Y-91272044D01*
X124261409Y-90980893D01*
X123982962Y-90865557D01*
X124629924Y-90218595D01*
X124629924Y-91458817D01*
X124629924Y-91458817D01*
G37*
X124629924Y-91458817D02*
X124552560Y-91272044D01*
X124261409Y-90980893D01*
X123982962Y-90865557D01*
X124629924Y-90218595D01*
X124629924Y-91458817D01*
G36*
X156955713Y-59465674D02*
X156879415Y-59516655D01*
X156551201Y-60007862D01*
X156435948Y-60587280D01*
X156551201Y-61166698D01*
X156879415Y-61657905D01*
X157177801Y-61857280D01*
X156879415Y-62056655D01*
X156551201Y-62547862D01*
X156435948Y-63127280D01*
X156551201Y-63706698D01*
X156879415Y-64197905D01*
X157177801Y-64397280D01*
X156879415Y-64596655D01*
X156551201Y-65087862D01*
X156435948Y-65667280D01*
X156551201Y-66246698D01*
X156879415Y-66737905D01*
X157177801Y-66937280D01*
X156879415Y-67136655D01*
X156551201Y-67627862D01*
X156435948Y-68207280D01*
X156551201Y-68786698D01*
X156879415Y-69277905D01*
X157177801Y-69477280D01*
X156879415Y-69676655D01*
X156551201Y-70167862D01*
X156435948Y-70747280D01*
X156551201Y-71326698D01*
X156879415Y-71817905D01*
X157177801Y-72017280D01*
X156879415Y-72216655D01*
X156551201Y-72707862D01*
X156435948Y-73287280D01*
X156551201Y-73866698D01*
X156879415Y-74357905D01*
X157177801Y-74557280D01*
X156879415Y-74756655D01*
X156551201Y-75247862D01*
X156435948Y-75827280D01*
X156551201Y-76406698D01*
X156879415Y-76897905D01*
X157177801Y-77097280D01*
X156879415Y-77296655D01*
X156551201Y-77787862D01*
X156435948Y-78367280D01*
X156551201Y-78946698D01*
X156697597Y-79165794D01*
X144733566Y-91129826D01*
X143492673Y-91129826D01*
X147471299Y-87151202D01*
X147534752Y-87108804D01*
X147577150Y-87045351D01*
X147577152Y-87045349D01*
X147691049Y-86874889D01*
X147702727Y-86857412D01*
X147746823Y-86635727D01*
X147746823Y-86635723D01*
X147761711Y-86560876D01*
X147746823Y-86486029D01*
X147746823Y-86058410D01*
X152624475Y-81180760D01*
X152687928Y-81138362D01*
X152730326Y-81074909D01*
X152730328Y-81074907D01*
X152827258Y-80929840D01*
X152855903Y-80886970D01*
X152899999Y-80665285D01*
X152899999Y-80665281D01*
X152914887Y-80590434D01*
X152899999Y-80515587D01*
X152899999Y-71434846D01*
X152914887Y-71359999D01*
X152899999Y-71285152D01*
X152899999Y-71285148D01*
X152855903Y-71063463D01*
X152775000Y-70942383D01*
X152775000Y-70754127D01*
X152617431Y-70373721D01*
X152326280Y-70082570D01*
X151945874Y-69925001D01*
X151534126Y-69925001D01*
X151153720Y-70082570D01*
X150862569Y-70373721D01*
X150709682Y-70742823D01*
X150455621Y-70848058D01*
X150164470Y-71139209D01*
X150083034Y-71335813D01*
X150072103Y-71335813D01*
X149691697Y-71493382D01*
X149400546Y-71784533D01*
X149273288Y-72091762D01*
X148992313Y-72208145D01*
X148701162Y-72499296D01*
X148560724Y-72838343D01*
X148312212Y-72941280D01*
X148021061Y-73232431D01*
X147863492Y-73612837D01*
X147863492Y-74024585D01*
X148021061Y-74404991D01*
X148312212Y-74696142D01*
X148538492Y-74789870D01*
X148538492Y-74825000D01*
X148284126Y-74825000D01*
X147903720Y-74982569D01*
X147612569Y-75273720D01*
X147455000Y-75654126D01*
X147455000Y-75820198D01*
X146635199Y-76640000D01*
X145443711Y-76640000D01*
X145326280Y-76522569D01*
X144945874Y-76365000D01*
X144534126Y-76365000D01*
X144153720Y-76522569D01*
X143862569Y-76813720D01*
X143705000Y-77194126D01*
X143705000Y-77605874D01*
X143862569Y-77986280D01*
X144153720Y-78277431D01*
X144534126Y-78435000D01*
X144945874Y-78435000D01*
X145326280Y-78277431D01*
X145443711Y-78160000D01*
X146875153Y-78160000D01*
X146950000Y-78174888D01*
X147024847Y-78160000D01*
X147024852Y-78160000D01*
X147246537Y-78115904D01*
X147497929Y-77947929D01*
X147540331Y-77884470D01*
X148529802Y-76895000D01*
X148538492Y-76895000D01*
X148538491Y-80501704D01*
X144725199Y-84314998D01*
X144559126Y-84314998D01*
X144178720Y-84472567D01*
X143887569Y-84763718D01*
X143730000Y-85144124D01*
X143730000Y-85331736D01*
X143689553Y-85348490D01*
X143398402Y-85639641D01*
X143266525Y-85958022D01*
X143126126Y-85899867D01*
X142714378Y-85899867D01*
X142333972Y-86057436D01*
X142042821Y-86348587D01*
X141885252Y-86728993D01*
X141885252Y-87140741D01*
X142042821Y-87521147D01*
X142333972Y-87812298D01*
X142714378Y-87969867D01*
X142880450Y-87969867D01*
X143268844Y-88358261D01*
X143311244Y-88421717D01*
X143374700Y-88464117D01*
X143562635Y-88589692D01*
X143610778Y-88599268D01*
X143784321Y-88633788D01*
X143784325Y-88633788D01*
X143830019Y-88642877D01*
X142419601Y-90053296D01*
X139263409Y-90053296D01*
X139145978Y-89935865D01*
X138765572Y-89778296D01*
X138353824Y-89778296D01*
X137973418Y-89935865D01*
X137682267Y-90227016D01*
X137524698Y-90607422D01*
X137524698Y-91019170D01*
X137585103Y-91165001D01*
X137365004Y-91165002D01*
X134615531Y-88415530D01*
X134573129Y-88352071D01*
X134321737Y-88184096D01*
X134100052Y-88140000D01*
X134100047Y-88140000D01*
X134025200Y-88125112D01*
X133950353Y-88140000D01*
X131799800Y-88140000D01*
X134231227Y-85708574D01*
X134387739Y-86086429D01*
X134678890Y-86377580D01*
X135059296Y-86535149D01*
X135471044Y-86535149D01*
X135851450Y-86377580D01*
X135934904Y-86294126D01*
X137405000Y-86294126D01*
X137405000Y-86705874D01*
X137562569Y-87086280D01*
X137853720Y-87377431D01*
X138234126Y-87535000D01*
X138645874Y-87535000D01*
X139026280Y-87377431D01*
X139317431Y-87086280D01*
X139475000Y-86705874D01*
X139475000Y-86517617D01*
X139555902Y-86396539D01*
X139614887Y-86100002D01*
X139599998Y-86025151D01*
X139599999Y-85203712D01*
X139717431Y-85086280D01*
X139875000Y-84705874D01*
X139875000Y-84294126D01*
X139717431Y-83913720D01*
X139426280Y-83622569D01*
X139045874Y-83465000D01*
X138634126Y-83465000D01*
X138253720Y-83622569D01*
X137962569Y-83913720D01*
X137805000Y-84294126D01*
X137805000Y-84705874D01*
X137962569Y-85086280D01*
X138080000Y-85203711D01*
X138080000Y-85528841D01*
X137853720Y-85622569D01*
X137562569Y-85913720D01*
X137405000Y-86294126D01*
X135934904Y-86294126D01*
X136142601Y-86086429D01*
X136300170Y-85706023D01*
X136300170Y-85294275D01*
X136142601Y-84913869D01*
X135851450Y-84622718D01*
X135473595Y-84466206D01*
X137938428Y-82001373D01*
X138176017Y-82001373D01*
X138250864Y-82016261D01*
X138325711Y-82001373D01*
X138325716Y-82001373D01*
X138547401Y-81957277D01*
X138798793Y-81789302D01*
X138841195Y-81725843D01*
X152450276Y-68116764D01*
X152513729Y-68074366D01*
X152556127Y-68010913D01*
X152556129Y-68010911D01*
X152666634Y-67845528D01*
X152681704Y-67822974D01*
X152725800Y-67601289D01*
X152725800Y-67601285D01*
X152740688Y-67526438D01*
X152725800Y-67451591D01*
X152725800Y-58513480D01*
X152815800Y-58513480D01*
X153063565Y-58464197D01*
X153273609Y-58323849D01*
X153413957Y-58113805D01*
X153463240Y-57866040D01*
X153463240Y-56211400D01*
X153701440Y-56211400D01*
X156955713Y-59465674D01*
X156955713Y-59465674D01*
G37*
X156955713Y-59465674D02*
X156879415Y-59516655D01*
X156551201Y-60007862D01*
X156435948Y-60587280D01*
X156551201Y-61166698D01*
X156879415Y-61657905D01*
X157177801Y-61857280D01*
X156879415Y-62056655D01*
X156551201Y-62547862D01*
X156435948Y-63127280D01*
X156551201Y-63706698D01*
X156879415Y-64197905D01*
X157177801Y-64397280D01*
X156879415Y-64596655D01*
X156551201Y-65087862D01*
X156435948Y-65667280D01*
X156551201Y-66246698D01*
X156879415Y-66737905D01*
X157177801Y-66937280D01*
X156879415Y-67136655D01*
X156551201Y-67627862D01*
X156435948Y-68207280D01*
X156551201Y-68786698D01*
X156879415Y-69277905D01*
X157177801Y-69477280D01*
X156879415Y-69676655D01*
X156551201Y-70167862D01*
X156435948Y-70747280D01*
X156551201Y-71326698D01*
X156879415Y-71817905D01*
X157177801Y-72017280D01*
X156879415Y-72216655D01*
X156551201Y-72707862D01*
X156435948Y-73287280D01*
X156551201Y-73866698D01*
X156879415Y-74357905D01*
X157177801Y-74557280D01*
X156879415Y-74756655D01*
X156551201Y-75247862D01*
X156435948Y-75827280D01*
X156551201Y-76406698D01*
X156879415Y-76897905D01*
X157177801Y-77097280D01*
X156879415Y-77296655D01*
X156551201Y-77787862D01*
X156435948Y-78367280D01*
X156551201Y-78946698D01*
X156697597Y-79165794D01*
X144733566Y-91129826D01*
X143492673Y-91129826D01*
X147471299Y-87151202D01*
X147534752Y-87108804D01*
X147577150Y-87045351D01*
X147577152Y-87045349D01*
X147691049Y-86874889D01*
X147702727Y-86857412D01*
X147746823Y-86635727D01*
X147746823Y-86635723D01*
X147761711Y-86560876D01*
X147746823Y-86486029D01*
X147746823Y-86058410D01*
X152624475Y-81180760D01*
X152687928Y-81138362D01*
X152730326Y-81074909D01*
X152730328Y-81074907D01*
X152827258Y-80929840D01*
X152855903Y-80886970D01*
X152899999Y-80665285D01*
X152899999Y-80665281D01*
X152914887Y-80590434D01*
X152899999Y-80515587D01*
X152899999Y-71434846D01*
X152914887Y-71359999D01*
X152899999Y-71285152D01*
X152899999Y-71285148D01*
X152855903Y-71063463D01*
X152775000Y-70942383D01*
X152775000Y-70754127D01*
X152617431Y-70373721D01*
X152326280Y-70082570D01*
X151945874Y-69925001D01*
X151534126Y-69925001D01*
X151153720Y-70082570D01*
X150862569Y-70373721D01*
X150709682Y-70742823D01*
X150455621Y-70848058D01*
X150164470Y-71139209D01*
X150083034Y-71335813D01*
X150072103Y-71335813D01*
X149691697Y-71493382D01*
X149400546Y-71784533D01*
X149273288Y-72091762D01*
X148992313Y-72208145D01*
X148701162Y-72499296D01*
X148560724Y-72838343D01*
X148312212Y-72941280D01*
X148021061Y-73232431D01*
X147863492Y-73612837D01*
X147863492Y-74024585D01*
X148021061Y-74404991D01*
X148312212Y-74696142D01*
X148538492Y-74789870D01*
X148538492Y-74825000D01*
X148284126Y-74825000D01*
X147903720Y-74982569D01*
X147612569Y-75273720D01*
X147455000Y-75654126D01*
X147455000Y-75820198D01*
X146635199Y-76640000D01*
X145443711Y-76640000D01*
X145326280Y-76522569D01*
X144945874Y-76365000D01*
X144534126Y-76365000D01*
X144153720Y-76522569D01*
X143862569Y-76813720D01*
X143705000Y-77194126D01*
X143705000Y-77605874D01*
X143862569Y-77986280D01*
X144153720Y-78277431D01*
X144534126Y-78435000D01*
X144945874Y-78435000D01*
X145326280Y-78277431D01*
X145443711Y-78160000D01*
X146875153Y-78160000D01*
X146950000Y-78174888D01*
X147024847Y-78160000D01*
X147024852Y-78160000D01*
X147246537Y-78115904D01*
X147497929Y-77947929D01*
X147540331Y-77884470D01*
X148529802Y-76895000D01*
X148538492Y-76895000D01*
X148538491Y-80501704D01*
X144725199Y-84314998D01*
X144559126Y-84314998D01*
X144178720Y-84472567D01*
X143887569Y-84763718D01*
X143730000Y-85144124D01*
X143730000Y-85331736D01*
X143689553Y-85348490D01*
X143398402Y-85639641D01*
X143266525Y-85958022D01*
X143126126Y-85899867D01*
X142714378Y-85899867D01*
X142333972Y-86057436D01*
X142042821Y-86348587D01*
X141885252Y-86728993D01*
X141885252Y-87140741D01*
X142042821Y-87521147D01*
X142333972Y-87812298D01*
X142714378Y-87969867D01*
X142880450Y-87969867D01*
X143268844Y-88358261D01*
X143311244Y-88421717D01*
X143374700Y-88464117D01*
X143562635Y-88589692D01*
X143610778Y-88599268D01*
X143784321Y-88633788D01*
X143784325Y-88633788D01*
X143830019Y-88642877D01*
X142419601Y-90053296D01*
X139263409Y-90053296D01*
X139145978Y-89935865D01*
X138765572Y-89778296D01*
X138353824Y-89778296D01*
X137973418Y-89935865D01*
X137682267Y-90227016D01*
X137524698Y-90607422D01*
X137524698Y-91019170D01*
X137585103Y-91165001D01*
X137365004Y-91165002D01*
X134615531Y-88415530D01*
X134573129Y-88352071D01*
X134321737Y-88184096D01*
X134100052Y-88140000D01*
X134100047Y-88140000D01*
X134025200Y-88125112D01*
X133950353Y-88140000D01*
X131799800Y-88140000D01*
X134231227Y-85708574D01*
X134387739Y-86086429D01*
X134678890Y-86377580D01*
X135059296Y-86535149D01*
X135471044Y-86535149D01*
X135851450Y-86377580D01*
X135934904Y-86294126D01*
X137405000Y-86294126D01*
X137405000Y-86705874D01*
X137562569Y-87086280D01*
X137853720Y-87377431D01*
X138234126Y-87535000D01*
X138645874Y-87535000D01*
X139026280Y-87377431D01*
X139317431Y-87086280D01*
X139475000Y-86705874D01*
X139475000Y-86517617D01*
X139555902Y-86396539D01*
X139614887Y-86100002D01*
X139599998Y-86025151D01*
X139599999Y-85203712D01*
X139717431Y-85086280D01*
X139875000Y-84705874D01*
X139875000Y-84294126D01*
X139717431Y-83913720D01*
X139426280Y-83622569D01*
X139045874Y-83465000D01*
X138634126Y-83465000D01*
X138253720Y-83622569D01*
X137962569Y-83913720D01*
X137805000Y-84294126D01*
X137805000Y-84705874D01*
X137962569Y-85086280D01*
X138080000Y-85203711D01*
X138080000Y-85528841D01*
X137853720Y-85622569D01*
X137562569Y-85913720D01*
X137405000Y-86294126D01*
X135934904Y-86294126D01*
X136142601Y-86086429D01*
X136300170Y-85706023D01*
X136300170Y-85294275D01*
X136142601Y-84913869D01*
X135851450Y-84622718D01*
X135473595Y-84466206D01*
X137938428Y-82001373D01*
X138176017Y-82001373D01*
X138250864Y-82016261D01*
X138325711Y-82001373D01*
X138325716Y-82001373D01*
X138547401Y-81957277D01*
X138798793Y-81789302D01*
X138841195Y-81725843D01*
X152450276Y-68116764D01*
X152513729Y-68074366D01*
X152556127Y-68010913D01*
X152556129Y-68010911D01*
X152666634Y-67845528D01*
X152681704Y-67822974D01*
X152725800Y-67601289D01*
X152725800Y-67601285D01*
X152740688Y-67526438D01*
X152725800Y-67451591D01*
X152725800Y-58513480D01*
X152815800Y-58513480D01*
X153063565Y-58464197D01*
X153273609Y-58323849D01*
X153413957Y-58113805D01*
X153463240Y-57866040D01*
X153463240Y-56211400D01*
X153701440Y-56211400D01*
X156955713Y-59465674D01*
G36*
X144988265Y-69877382D02*
X144906720Y-69958927D01*
X144749151Y-70339333D01*
X144749151Y-70751081D01*
X144906720Y-71131487D01*
X145109805Y-71334572D01*
X142380011Y-74064366D01*
X142380011Y-72919172D01*
X142394899Y-72844325D01*
X142380011Y-72769478D01*
X142380011Y-72769474D01*
X142335915Y-72547789D01*
X142167940Y-72296397D01*
X142104484Y-72253997D01*
X140646016Y-70795530D01*
X140603614Y-70732071D01*
X140352222Y-70564096D01*
X140209397Y-70535686D01*
X140076280Y-70402569D01*
X139695874Y-70245000D01*
X139378798Y-70245000D01*
X140483798Y-69140000D01*
X141516289Y-69140000D01*
X141633720Y-69257431D01*
X142014126Y-69415000D01*
X142425874Y-69415000D01*
X142806280Y-69257431D01*
X143097431Y-68966280D01*
X143255000Y-68585874D01*
X143255000Y-68174126D01*
X143233780Y-68122897D01*
X144988265Y-69877382D01*
X144988265Y-69877382D01*
G37*
X144988265Y-69877382D02*
X144906720Y-69958927D01*
X144749151Y-70339333D01*
X144749151Y-70751081D01*
X144906720Y-71131487D01*
X145109805Y-71334572D01*
X142380011Y-74064366D01*
X142380011Y-72919172D01*
X142394899Y-72844325D01*
X142380011Y-72769478D01*
X142380011Y-72769474D01*
X142335915Y-72547789D01*
X142167940Y-72296397D01*
X142104484Y-72253997D01*
X140646016Y-70795530D01*
X140603614Y-70732071D01*
X140352222Y-70564096D01*
X140209397Y-70535686D01*
X140076280Y-70402569D01*
X139695874Y-70245000D01*
X139378798Y-70245000D01*
X140483798Y-69140000D01*
X141516289Y-69140000D01*
X141633720Y-69257431D01*
X142014126Y-69415000D01*
X142425874Y-69415000D01*
X142806280Y-69257431D01*
X143097431Y-68966280D01*
X143255000Y-68585874D01*
X143255000Y-68174126D01*
X143233780Y-68122897D01*
X144988265Y-69877382D01*
G36*
X141022687Y-65911804D02*
X140828034Y-65831176D01*
X140416286Y-65831176D01*
X140035880Y-65988745D01*
X139744729Y-66279896D01*
X139587160Y-66660302D01*
X139587160Y-66848559D01*
X139506257Y-66969638D01*
X139462161Y-67191323D01*
X139462161Y-67191328D01*
X139447273Y-67266175D01*
X139462161Y-67341022D01*
X139462161Y-67375621D01*
X133318160Y-73519623D01*
X133307431Y-73493720D01*
X133016280Y-73202569D01*
X132635874Y-73045000D01*
X132469802Y-73045000D01*
X132080000Y-72655199D01*
X132080000Y-61723711D01*
X132197431Y-61606280D01*
X132355000Y-61225874D01*
X132355000Y-60814126D01*
X132332575Y-60759988D01*
X135870872Y-60759988D01*
X141022687Y-65911804D01*
X141022687Y-65911804D01*
G37*
X141022687Y-65911804D02*
X140828034Y-65831176D01*
X140416286Y-65831176D01*
X140035880Y-65988745D01*
X139744729Y-66279896D01*
X139587160Y-66660302D01*
X139587160Y-66848559D01*
X139506257Y-66969638D01*
X139462161Y-67191323D01*
X139462161Y-67191328D01*
X139447273Y-67266175D01*
X139462161Y-67341022D01*
X139462161Y-67375621D01*
X133318160Y-73519623D01*
X133307431Y-73493720D01*
X133016280Y-73202569D01*
X132635874Y-73045000D01*
X132469802Y-73045000D01*
X132080000Y-72655199D01*
X132080000Y-61723711D01*
X132197431Y-61606280D01*
X132355000Y-61225874D01*
X132355000Y-60814126D01*
X132332575Y-60759988D01*
X135870872Y-60759988D01*
X141022687Y-65911804D01*
G36*
X112795175Y-55945415D02*
X112466961Y-56436622D01*
X112351708Y-57016040D01*
X112466961Y-57595458D01*
X112795175Y-58086665D01*
X113286382Y-58414879D01*
X113719544Y-58501040D01*
X114012056Y-58501040D01*
X114232208Y-58457249D01*
X116259418Y-60484460D01*
X116301819Y-60547917D01*
X116365275Y-60590317D01*
X116553210Y-60715892D01*
X116591273Y-60723463D01*
X116774896Y-60759988D01*
X116774900Y-60759988D01*
X116849748Y-60774876D01*
X116924596Y-60759988D01*
X128827128Y-60759988D01*
X128754998Y-60934126D01*
X128754998Y-61345874D01*
X128912567Y-61726280D01*
X129029998Y-61843711D01*
X129029999Y-69384404D01*
X128765874Y-69275000D01*
X128354126Y-69275000D01*
X127973720Y-69432569D01*
X127682569Y-69723720D01*
X127525000Y-70104126D01*
X127525000Y-70515874D01*
X127682569Y-70896280D01*
X127973720Y-71187431D01*
X128354126Y-71345000D01*
X128765874Y-71345000D01*
X129029999Y-71235596D01*
X129029999Y-72668200D01*
X128302308Y-71940509D01*
X128259906Y-71877050D01*
X128008514Y-71709075D01*
X127786829Y-71664979D01*
X127786824Y-71664979D01*
X127711977Y-71650091D01*
X127637130Y-71664979D01*
X122654565Y-71664979D01*
X122926280Y-71552431D01*
X123217431Y-71261280D01*
X123375000Y-70880874D01*
X123375000Y-70469126D01*
X123217431Y-70088720D01*
X122926280Y-69797569D01*
X122545874Y-69640000D01*
X122134126Y-69640000D01*
X121753720Y-69797569D01*
X121462569Y-70088720D01*
X121305000Y-70469126D01*
X121305000Y-70880874D01*
X121462569Y-71261280D01*
X121753720Y-71552431D01*
X122025435Y-71664979D01*
X112980200Y-71664979D01*
X112862769Y-71547548D01*
X112482363Y-71389979D01*
X112070615Y-71389979D01*
X111690209Y-71547548D01*
X111399058Y-71838699D01*
X111241489Y-72219105D01*
X111241489Y-72389989D01*
X108755420Y-72389989D01*
X108713373Y-72327061D01*
X108461981Y-72159086D01*
X108319156Y-72130676D01*
X108186039Y-71997559D01*
X107805633Y-71839990D01*
X107393885Y-71839990D01*
X107013479Y-71997559D01*
X106722328Y-72288710D01*
X106564759Y-72669116D01*
X106564759Y-73005989D01*
X106495792Y-73052071D01*
X106453392Y-73115527D01*
X106244726Y-73324193D01*
X106193745Y-73247895D01*
X105895359Y-73048520D01*
X106193745Y-72849145D01*
X106521959Y-72357938D01*
X106637212Y-71778520D01*
X106521959Y-71199102D01*
X106193745Y-70707895D01*
X105895359Y-70508520D01*
X105954295Y-70469140D01*
X109305000Y-70469140D01*
X109305000Y-70880888D01*
X109462569Y-71261294D01*
X109753720Y-71552445D01*
X110134126Y-71710014D01*
X110545874Y-71710014D01*
X110926280Y-71552445D01*
X111217431Y-71261294D01*
X111375000Y-70880888D01*
X111375000Y-70469140D01*
X111217431Y-70088734D01*
X110926280Y-69797583D01*
X110545874Y-69640014D01*
X110134126Y-69640014D01*
X109753720Y-69797583D01*
X109462569Y-70088734D01*
X109305000Y-70469140D01*
X105954295Y-70469140D01*
X106193745Y-70309145D01*
X106521959Y-69817938D01*
X106637212Y-69238520D01*
X106521959Y-68659102D01*
X106193745Y-68167895D01*
X105702538Y-67839681D01*
X105269376Y-67753520D01*
X104976864Y-67753520D01*
X104543702Y-67839681D01*
X104052495Y-68167895D01*
X103853120Y-68466281D01*
X103653745Y-68167895D01*
X103162538Y-67839681D01*
X102729376Y-67753520D01*
X102436864Y-67753520D01*
X102003702Y-67839681D01*
X101512495Y-68167895D01*
X101504160Y-68180369D01*
X101504160Y-60658241D01*
X106395932Y-55766470D01*
X113062985Y-55766470D01*
X112795175Y-55945415D01*
X112795175Y-55945415D01*
G37*
X112795175Y-55945415D02*
X112466961Y-56436622D01*
X112351708Y-57016040D01*
X112466961Y-57595458D01*
X112795175Y-58086665D01*
X113286382Y-58414879D01*
X113719544Y-58501040D01*
X114012056Y-58501040D01*
X114232208Y-58457249D01*
X116259418Y-60484460D01*
X116301819Y-60547917D01*
X116365275Y-60590317D01*
X116553210Y-60715892D01*
X116591273Y-60723463D01*
X116774896Y-60759988D01*
X116774900Y-60759988D01*
X116849748Y-60774876D01*
X116924596Y-60759988D01*
X128827128Y-60759988D01*
X128754998Y-60934126D01*
X128754998Y-61345874D01*
X128912567Y-61726280D01*
X129029998Y-61843711D01*
X129029999Y-69384404D01*
X128765874Y-69275000D01*
X128354126Y-69275000D01*
X127973720Y-69432569D01*
X127682569Y-69723720D01*
X127525000Y-70104126D01*
X127525000Y-70515874D01*
X127682569Y-70896280D01*
X127973720Y-71187431D01*
X128354126Y-71345000D01*
X128765874Y-71345000D01*
X129029999Y-71235596D01*
X129029999Y-72668200D01*
X128302308Y-71940509D01*
X128259906Y-71877050D01*
X128008514Y-71709075D01*
X127786829Y-71664979D01*
X127786824Y-71664979D01*
X127711977Y-71650091D01*
X127637130Y-71664979D01*
X122654565Y-71664979D01*
X122926280Y-71552431D01*
X123217431Y-71261280D01*
X123375000Y-70880874D01*
X123375000Y-70469126D01*
X123217431Y-70088720D01*
X122926280Y-69797569D01*
X122545874Y-69640000D01*
X122134126Y-69640000D01*
X121753720Y-69797569D01*
X121462569Y-70088720D01*
X121305000Y-70469126D01*
X121305000Y-70880874D01*
X121462569Y-71261280D01*
X121753720Y-71552431D01*
X122025435Y-71664979D01*
X112980200Y-71664979D01*
X112862769Y-71547548D01*
X112482363Y-71389979D01*
X112070615Y-71389979D01*
X111690209Y-71547548D01*
X111399058Y-71838699D01*
X111241489Y-72219105D01*
X111241489Y-72389989D01*
X108755420Y-72389989D01*
X108713373Y-72327061D01*
X108461981Y-72159086D01*
X108319156Y-72130676D01*
X108186039Y-71997559D01*
X107805633Y-71839990D01*
X107393885Y-71839990D01*
X107013479Y-71997559D01*
X106722328Y-72288710D01*
X106564759Y-72669116D01*
X106564759Y-73005989D01*
X106495792Y-73052071D01*
X106453392Y-73115527D01*
X106244726Y-73324193D01*
X106193745Y-73247895D01*
X105895359Y-73048520D01*
X106193745Y-72849145D01*
X106521959Y-72357938D01*
X106637212Y-71778520D01*
X106521959Y-71199102D01*
X106193745Y-70707895D01*
X105895359Y-70508520D01*
X105954295Y-70469140D01*
X109305000Y-70469140D01*
X109305000Y-70880888D01*
X109462569Y-71261294D01*
X109753720Y-71552445D01*
X110134126Y-71710014D01*
X110545874Y-71710014D01*
X110926280Y-71552445D01*
X111217431Y-71261294D01*
X111375000Y-70880888D01*
X111375000Y-70469140D01*
X111217431Y-70088734D01*
X110926280Y-69797583D01*
X110545874Y-69640014D01*
X110134126Y-69640014D01*
X109753720Y-69797583D01*
X109462569Y-70088734D01*
X109305000Y-70469140D01*
X105954295Y-70469140D01*
X106193745Y-70309145D01*
X106521959Y-69817938D01*
X106637212Y-69238520D01*
X106521959Y-68659102D01*
X106193745Y-68167895D01*
X105702538Y-67839681D01*
X105269376Y-67753520D01*
X104976864Y-67753520D01*
X104543702Y-67839681D01*
X104052495Y-68167895D01*
X103853120Y-68466281D01*
X103653745Y-68167895D01*
X103162538Y-67839681D01*
X102729376Y-67753520D01*
X102436864Y-67753520D01*
X102003702Y-67839681D01*
X101512495Y-68167895D01*
X101504160Y-68180369D01*
X101504160Y-60658241D01*
X106395932Y-55766470D01*
X113062985Y-55766470D01*
X112795175Y-55945415D01*
G04 #@! TD*
M02*
