G04 #@! TF.GenerationSoftware,KiCad,Pcbnew,5.0.2-bee76a0~70~ubuntu18.04.1*
G04 #@! TF.CreationDate,2019-09-22T14:56:38-07:00*
G04 #@! TF.ProjectId,habiv-board,68616269-762d-4626-9f61-72642e6b6963,rev?*
G04 #@! TF.SameCoordinates,Original*
G04 #@! TF.FileFunction,Copper,L3,Inr*
G04 #@! TF.FilePolarity,Positive*
%FSLAX46Y46*%
G04 Gerber Fmt 4.6, Leading zero omitted, Abs format (unit mm)*
G04 Created by KiCad (PCBNEW 5.0.2-bee76a0~70~ubuntu18.04.1) date Sun 22 Sep 2019 02:56:38 PM PDT*
%MOMM*%
%LPD*%
G01*
G04 APERTURE LIST*
G04 #@! TA.AperFunction,ViaPad*
%ADD10R,1.700000X1.700000*%
G04 #@! TD*
G04 #@! TA.AperFunction,ViaPad*
%ADD11O,1.700000X1.700000*%
G04 #@! TD*
G04 #@! TA.AperFunction,ViaPad*
%ADD12C,4.000000*%
G04 #@! TD*
G04 #@! TA.AperFunction,ViaPad*
%ADD13R,3.800000X3.800000*%
G04 #@! TD*
G04 #@! TA.AperFunction,ViaPad*
%ADD14C,3.800000*%
G04 #@! TD*
G04 #@! TA.AperFunction,WasherPad*
%ADD15C,1.600000*%
G04 #@! TD*
G04 #@! TA.AperFunction,WasherPad*
%ADD16C,1.350000*%
G04 #@! TD*
G04 #@! TA.AperFunction,ViaPad*
%ADD17C,0.800000*%
G04 #@! TD*
G04 #@! TA.AperFunction,ViaPad*
%ADD18C,0.600000*%
G04 #@! TD*
G04 #@! TA.AperFunction,ViaPad*
%ADD19C,0.906400*%
G04 #@! TD*
G04 #@! TA.AperFunction,ViaPad*
%ADD20C,2.000000*%
G04 #@! TD*
G04 #@! TA.AperFunction,Conductor*
%ADD21C,0.500000*%
G04 #@! TD*
G04 #@! TA.AperFunction,Conductor*
%ADD22C,0.400000*%
G04 #@! TD*
G04 #@! TA.AperFunction,Conductor*
%ADD23C,0.600000*%
G04 #@! TD*
G04 #@! TA.AperFunction,Conductor*
%ADD24C,0.300000*%
G04 #@! TD*
G04 #@! TA.AperFunction,Conductor*
%ADD25C,2.000000*%
G04 #@! TD*
G04 APERTURE END LIST*
D10*
G04 #@! TO.N,GND*
G04 #@! TO.C,J21*
X177546000Y-66040000D03*
D11*
G04 #@! TO.N,PB5*
X177546000Y-63500000D03*
G04 #@! TO.N,PB3*
X177546000Y-60960000D03*
G04 #@! TO.N,+3V3*
X177546000Y-58420000D03*
G04 #@! TD*
D10*
G04 #@! TO.N,PA12*
G04 #@! TO.C,J20*
X173736000Y-83312000D03*
D11*
G04 #@! TO.N,PA11*
X173736000Y-80772000D03*
G04 #@! TO.N,PB10*
X173736000Y-78232000D03*
G04 #@! TO.N,+5V*
X173736000Y-75692000D03*
G04 #@! TO.N,GND*
X173736000Y-73152000D03*
G04 #@! TD*
G04 #@! TO.N,PA10*
G04 #@! TO.C,J18*
X128778000Y-12192000D03*
G04 #@! TO.N,+5V*
X126238000Y-12192000D03*
D10*
G04 #@! TO.N,GND*
X123698000Y-12192000D03*
G04 #@! TD*
G04 #@! TO.N,GND*
G04 #@! TO.C,J17*
X121920000Y-127508000D03*
D11*
G04 #@! TO.N,+5V*
X124460000Y-127508000D03*
G04 #@! TO.N,PA1*
X127000000Y-127508000D03*
G04 #@! TD*
G04 #@! TO.N,PA0*
G04 #@! TO.C,J5*
X127000000Y-123619974D03*
G04 #@! TO.N,+5V*
X124460000Y-123619974D03*
D10*
G04 #@! TO.N,GND*
X121920000Y-123619974D03*
G04 #@! TD*
G04 #@! TO.N,GND*
G04 #@! TO.C,J19*
X123698000Y-16002000D03*
D11*
G04 #@! TO.N,+5V*
X126238000Y-16002000D03*
G04 #@! TO.N,PA9*
X128778000Y-16002000D03*
G04 #@! TD*
D12*
G04 #@! TO.N,+5V*
G04 #@! TO.C,J15*
X92710000Y-41179121D03*
D13*
G04 #@! TO.N,GND*
X92710000Y-36179121D03*
G04 #@! TD*
G04 #@! TO.N,GND*
G04 #@! TO.C,J16*
X99822000Y-36179121D03*
D12*
G04 #@! TO.N,+5V*
X99822000Y-41179121D03*
G04 #@! TD*
G04 #@! TO.N,+3V3*
G04 #@! TO.C,J13*
X85598000Y-24464000D03*
D13*
G04 #@! TO.N,GND*
X85598000Y-29464000D03*
G04 #@! TD*
G04 #@! TO.N,GND*
G04 #@! TO.C,J14*
X106934000Y-29464000D03*
D12*
G04 #@! TO.N,+3V3*
X106934000Y-24464000D03*
G04 #@! TD*
G04 #@! TO.N,+3V3*
G04 #@! TO.C,J12*
X99822000Y-24384000D03*
D13*
G04 #@! TO.N,GND*
X99822000Y-29384000D03*
G04 #@! TD*
G04 #@! TO.N,GND*
G04 #@! TO.C,J11*
X85598000Y-36179121D03*
D12*
G04 #@! TO.N,+5V*
X85598000Y-41179121D03*
G04 #@! TD*
G04 #@! TO.N,+3V3*
G04 #@! TO.C,J10*
X92710000Y-24464000D03*
D13*
G04 #@! TO.N,GND*
X92710000Y-29464000D03*
G04 #@! TD*
G04 #@! TO.N,GND*
G04 #@! TO.C,J8*
X106934000Y-36179121D03*
D12*
G04 #@! TO.N,+5V*
X106934000Y-41179121D03*
G04 #@! TD*
D13*
G04 #@! TO.N,GND*
G04 #@! TO.C,J9*
X109474000Y-60706000D03*
D14*
G04 #@! TO.N,Net-(C8-Pad1)*
X109474000Y-55706000D03*
G04 #@! TD*
D10*
G04 #@! TO.N,Net-(J2-Pad1)*
G04 #@! TO.C,J2*
X132418247Y-65931568D03*
D11*
X132418247Y-63391568D03*
G04 #@! TO.N,PB4*
X134958247Y-65931568D03*
G04 #@! TO.N,GND*
X134958247Y-63391568D03*
G04 #@! TO.N,PA15*
X137498247Y-65931568D03*
G04 #@! TO.N,GND*
X137498247Y-63391568D03*
G04 #@! TO.N,PA13*
X140038247Y-65931568D03*
G04 #@! TO.N,GND*
X140038247Y-63391568D03*
G04 #@! TO.N,PA14*
X142578247Y-65931568D03*
G04 #@! TO.N,GND*
X142578247Y-63391568D03*
G04 #@! TO.N,Net-(10k2-Pad2)*
X145118247Y-65931568D03*
G04 #@! TO.N,GND*
X145118247Y-63391568D03*
G04 #@! TO.N,PB3*
X147658247Y-65931568D03*
G04 #@! TO.N,GND*
X147658247Y-63391568D03*
G04 #@! TO.N,RST*
X150198247Y-65931568D03*
G04 #@! TO.N,GND*
X150198247Y-63391568D03*
G04 #@! TO.N,Net-(10k4-Pad2)*
X152738247Y-65931568D03*
G04 #@! TO.N,GND*
X152738247Y-63391568D03*
G04 #@! TO.N,Net-(10k3-Pad2)*
X155278247Y-65931568D03*
G04 #@! TO.N,GND*
X155278247Y-63391568D03*
G04 #@! TD*
D10*
G04 #@! TO.N,PA0*
G04 #@! TO.C,J4*
X125829487Y-118758488D03*
D11*
G04 #@! TO.N,PA1*
X128369487Y-118758488D03*
G04 #@! TO.N,PA2*
X130909487Y-118758488D03*
G04 #@! TO.N,PA3*
X133449487Y-118758488D03*
G04 #@! TO.N,PA4*
X135989487Y-118758488D03*
G04 #@! TO.N,PA5*
X138529487Y-118758488D03*
G04 #@! TO.N,PA6*
X141069487Y-118758488D03*
G04 #@! TO.N,PA7*
X143609487Y-118758488D03*
G04 #@! TO.N,PA8*
X146149487Y-118758488D03*
G04 #@! TO.N,PA9*
X148689487Y-118758488D03*
G04 #@! TO.N,PA10*
X151229487Y-118758488D03*
G04 #@! TO.N,PA11*
X153769487Y-118758488D03*
G04 #@! TO.N,PA12*
X156309487Y-118758488D03*
G04 #@! TO.N,PA13*
X158849487Y-118758488D03*
G04 #@! TO.N,PA14*
X161389487Y-118758488D03*
G04 #@! TO.N,PA15*
X163929487Y-118758488D03*
G04 #@! TD*
D10*
G04 #@! TO.N,PB0*
G04 #@! TO.C,J6*
X167500727Y-112774248D03*
D11*
G04 #@! TO.N,PB1*
X167500727Y-110234248D03*
G04 #@! TO.N,PB2*
X167500727Y-107694248D03*
G04 #@! TO.N,PB3*
X167500727Y-105154248D03*
G04 #@! TO.N,PB4*
X167500727Y-102614248D03*
G04 #@! TO.N,PB5*
X167500727Y-100074248D03*
G04 #@! TO.N,PB6*
X167500727Y-97534248D03*
G04 #@! TO.N,PB7*
X167500727Y-94994248D03*
G04 #@! TO.N,PB8*
X167500727Y-92454248D03*
G04 #@! TO.N,PB9*
X167500727Y-89914248D03*
G04 #@! TO.N,PB10*
X167500727Y-87374248D03*
G04 #@! TO.N,PB11*
X167500727Y-84834248D03*
G04 #@! TO.N,PB12*
X167500727Y-82294248D03*
G04 #@! TO.N,PB13*
X167500727Y-79754248D03*
G04 #@! TO.N,PB14*
X167500727Y-77214248D03*
G04 #@! TO.N,PB15*
X167500727Y-74674248D03*
G04 #@! TD*
G04 #@! TO.N,PD2*
G04 #@! TO.C,J7*
X122278567Y-112581208D03*
G04 #@! TO.N,N/C*
X122278567Y-110041208D03*
G04 #@! TO.N,PC13*
X122278567Y-107501208D03*
G04 #@! TO.N,PC12*
X122278567Y-104961208D03*
G04 #@! TO.N,PC11*
X122278567Y-102421208D03*
G04 #@! TO.N,PC10*
X122278567Y-99881208D03*
G04 #@! TO.N,PC9*
X122278567Y-97341208D03*
G04 #@! TO.N,PC8*
X122278567Y-94801208D03*
G04 #@! TO.N,PC7*
X122278567Y-92261208D03*
G04 #@! TO.N,PC6*
X122278567Y-89721208D03*
G04 #@! TO.N,PC5*
X122278567Y-87181208D03*
G04 #@! TO.N,PC4*
X122278567Y-84641208D03*
G04 #@! TO.N,PC3*
X122278567Y-82101208D03*
G04 #@! TO.N,PC2*
X122278567Y-79561208D03*
G04 #@! TO.N,PC1*
X122278567Y-77021208D03*
D10*
G04 #@! TO.N,PC0*
X122278567Y-74481208D03*
G04 #@! TD*
G04 #@! TO.N,Net-(J3-Pad1)*
G04 #@! TO.C,J3*
X110226000Y-126024000D03*
D11*
G04 #@! TO.N,Net-(J3-Pad2)*
X107686000Y-126024000D03*
G04 #@! TD*
D15*
G04 #@! TO.N,*
G04 #@! TO.C,B2*
X172336000Y-53812000D03*
D16*
X164886000Y-53812000D03*
G04 #@! TD*
D17*
G04 #@! TO.N,+3V3*
X101346000Y-107188000D03*
X109474000Y-88392000D03*
X136270577Y-101660025D03*
X145688167Y-105073448D03*
X133858000Y-85344000D03*
X153836767Y-85658448D03*
D18*
X130136767Y-72558448D03*
X132170190Y-51213369D03*
D17*
X143256000Y-37846000D03*
X132643766Y-90498447D03*
D18*
X87886000Y-104912000D03*
D17*
X96774000Y-92710000D03*
X85852000Y-88392000D03*
X140462000Y-40640000D03*
X142748000Y-44450000D03*
X132080000Y-53340000D03*
X135128000Y-51213369D03*
X148844000Y-38608000D03*
X150876000Y-42164000D03*
X165862000Y-37084000D03*
X174244000Y-28194000D03*
G04 #@! TO.N,GND*
X176022000Y-31496000D03*
X177546000Y-50800000D03*
X150622000Y-37084000D03*
X148794000Y-48768000D03*
X144394000Y-44518000D03*
D19*
X163761600Y-10616900D03*
X163040000Y-14002000D03*
X169349600Y-29412900D03*
X171840000Y-33802000D03*
X160967600Y-32841900D03*
X169040000Y-34002000D03*
X147640000Y-34002000D03*
X149040000Y-34202000D03*
X159040000Y-14002000D03*
X156240000Y-11002000D03*
X170240000Y-33802000D03*
X159440000Y-11202000D03*
X154440000Y-11802000D03*
X147640000Y-32602000D03*
X173240000Y-33802000D03*
X161640000Y-11202000D03*
X155440000Y-12802000D03*
X148140600Y-18617900D03*
X149410600Y-17538400D03*
X145600600Y-17474900D03*
X149156600Y-28142900D03*
X146743600Y-25729900D03*
X147378600Y-28015900D03*
X145473600Y-20522900D03*
X144584600Y-23380400D03*
X146616600Y-18617900D03*
X147251600Y-13283900D03*
X151950600Y-14553900D03*
X158040000Y-11402000D03*
X152240000Y-11602000D03*
X167840000Y-34002000D03*
D17*
X147116767Y-105548448D03*
X153841767Y-83148448D03*
X149991767Y-79423448D03*
X139291767Y-75648434D03*
X134966781Y-80748448D03*
X132658443Y-84483577D03*
X133466769Y-83148448D03*
X129316768Y-85048448D03*
X145816765Y-92848448D03*
X140016767Y-99648448D03*
X138016767Y-99248448D03*
X142262661Y-91877554D03*
X139016618Y-96073618D03*
X149606000Y-109298448D03*
X145427946Y-99486315D03*
X156036767Y-86208448D03*
X127906767Y-100248448D03*
D18*
X105843090Y-59798569D03*
X104933770Y-59813809D03*
X103943170Y-59798569D03*
X102886530Y-59798569D03*
X101926410Y-59798569D03*
X102947490Y-71822929D03*
X101931490Y-71822929D03*
X100981530Y-71833089D03*
X100036650Y-71843249D03*
X99127330Y-71843249D03*
X98223090Y-71833089D03*
X82876410Y-81993089D03*
X84578210Y-81993089D03*
X86478130Y-82008329D03*
X86462890Y-80453849D03*
X84593450Y-80453849D03*
X82861170Y-80453849D03*
X82876410Y-78716489D03*
X84623930Y-78736809D03*
X86478130Y-78701249D03*
X86493370Y-77207729D03*
X84669650Y-77222969D03*
X82891650Y-77207729D03*
X82911970Y-75399249D03*
X84669650Y-75419569D03*
X86523850Y-75419569D03*
X86523850Y-73920969D03*
X84684890Y-73905729D03*
X82927210Y-73905729D03*
X82911970Y-72117569D03*
X84669650Y-72117569D03*
X86523850Y-72132809D03*
X91852770Y-60504689D03*
X91019650Y-60494529D03*
X91009490Y-61373369D03*
X91852770Y-61388609D03*
X85807570Y-55561849D03*
X85782170Y-54754129D03*
X85772010Y-53900689D03*
X85772010Y-53098049D03*
X85761850Y-52295409D03*
X85761850Y-51513089D03*
X85761850Y-50674889D03*
X119640370Y-32447849D03*
X120691930Y-32442769D03*
X121611410Y-32437689D03*
X122546130Y-32437689D03*
X123343690Y-32432609D03*
X124263170Y-32463089D03*
X116506010Y-44436649D03*
X117420410Y-44416329D03*
X118350050Y-44441729D03*
X119330490Y-44441729D03*
X120275370Y-44441729D03*
X139604770Y-22277689D03*
X137867410Y-22257369D03*
X135987810Y-22257369D03*
X135967490Y-23811849D03*
X137806450Y-23811849D03*
X139584450Y-23811849D03*
X139584450Y-25610169D03*
X137826770Y-25589849D03*
X135926850Y-25589849D03*
X135886210Y-27057969D03*
X137765810Y-27057969D03*
X139543810Y-27078289D03*
X139543810Y-28815649D03*
X137765810Y-28795329D03*
X135865890Y-28856289D03*
X135865890Y-30370129D03*
X137704850Y-30329489D03*
X139564130Y-30370129D03*
X139564130Y-32087169D03*
X137745490Y-32127809D03*
X135865890Y-32148129D03*
X136658370Y-48708929D03*
X136668530Y-49521729D03*
X136658370Y-50298969D03*
X136658370Y-51096529D03*
X136668530Y-51914409D03*
X136668530Y-52701809D03*
X136658370Y-53565409D03*
X136658370Y-54454409D03*
X131420890Y-43720369D03*
X131420890Y-42866929D03*
X130608090Y-42887249D03*
X130608090Y-43720369D03*
D17*
X138176000Y-82042000D03*
X139700000Y-86868000D03*
X134874000Y-102616000D03*
X134620000Y-99822000D03*
X173482000Y-40386000D03*
X102839234Y-87630000D03*
D20*
X118872000Y-10922000D03*
D17*
G04 #@! TO.N,PA5*
X133416791Y-93073448D03*
X177292000Y-111252000D03*
X172466000Y-111252000D03*
X160274000Y-114808000D03*
X135340999Y-115824000D03*
X90678000Y-87122000D03*
X113196020Y-93874091D03*
G04 #@! TO.N,PA7*
X112268000Y-94488000D03*
X88392000Y-87122000D03*
X133445802Y-95395939D03*
X140420999Y-115570000D03*
X165608000Y-125984000D03*
G04 #@! TO.N,PA6*
X112268000Y-96266000D03*
X93218000Y-87122000D03*
X133316767Y-94248448D03*
X137880999Y-115570000D03*
X106172000Y-100076000D03*
X169672000Y-125984000D03*
G04 #@! TO.N,PA8*
X112268000Y-97790000D03*
X142188167Y-113538000D03*
X114808000Y-100330000D03*
X157480000Y-125984000D03*
G04 #@! TO.N,Net-(C1-Pad1)*
X164256000Y-46142000D03*
X164256000Y-39792000D03*
G04 #@! TO.N,Net-(B2-Pad2)*
X160186000Y-51562000D03*
X172906000Y-42837000D03*
G04 #@! TO.N,Net-(IC1-Pad8)*
X163206000Y-39792000D03*
X163256000Y-44442000D03*
G04 #@! TO.N,PB9*
X153162000Y-45720000D03*
X163376767Y-90598446D03*
X149708807Y-92486758D03*
X177292000Y-107188000D03*
G04 #@! TO.N,PB8*
X158496000Y-47498000D03*
X152400000Y-44450000D03*
X158496000Y-44450000D03*
X163496767Y-92128448D03*
X150436767Y-93238448D03*
X173736000Y-125984000D03*
G04 #@! TO.N,RST*
X151892000Y-128016000D03*
X142852917Y-88198448D03*
X151892000Y-121666000D03*
G04 #@! TO.N,PB4*
X179070000Y-101600000D03*
X152091788Y-73084937D03*
X157650591Y-101430608D03*
X171450000Y-101600000D03*
G04 #@! TO.N,PB3*
X151641777Y-68408207D03*
X156136767Y-103028448D03*
X160782000Y-70358000D03*
X153416000Y-70612000D03*
G04 #@! TO.N,PA1*
X130556000Y-90123448D03*
G04 #@! TO.N,PA2*
X131572000Y-90073448D03*
G04 #@! TO.N,PA3*
X133966610Y-90148616D03*
X95504000Y-87122000D03*
X113792000Y-105410000D03*
X177292000Y-115570000D03*
G04 #@! TO.N,PA4*
X133191588Y-91500330D03*
G04 #@! TO.N,PA9*
X155448000Y-114046000D03*
G04 #@! TO.N,PA10*
X154432000Y-101600000D03*
G04 #@! TO.N,PA11*
X159258000Y-96266000D03*
G04 #@! TO.N,PB0*
X126891757Y-94723444D03*
G04 #@! TO.N,PB1*
X126891757Y-95899894D03*
G04 #@! TO.N,PB2*
X126866744Y-97273471D03*
G04 #@! TO.N,PB5*
X170434000Y-99314000D03*
G04 #@! TO.N,PB6*
X180340000Y-14986000D03*
X161036000Y-97534248D03*
X161544000Y-125984000D03*
G04 #@! TO.N,PB7*
X174244000Y-19558000D03*
X177292000Y-119380000D03*
X171450000Y-98298000D03*
G04 #@! TO.N,PB10*
X126791767Y-98548448D03*
G04 #@! TO.N,PB12*
X137581900Y-103728700D03*
X152791278Y-111850349D03*
X156186767Y-108718448D03*
G04 #@! TO.N,PB13*
X137367989Y-105469454D03*
X152145954Y-111086425D03*
X155406767Y-107978448D03*
G04 #@! TO.N,PB14*
X138290846Y-105084281D03*
X151431191Y-110387041D03*
X154640417Y-107336006D03*
G04 #@! TO.N,PB15*
X175768000Y-23114000D03*
X139166769Y-105573448D03*
X150698056Y-109706940D03*
X153971560Y-106592599D03*
G04 #@! TO.N,PC0*
X98298000Y-113792000D03*
X139291767Y-77148432D03*
X142891767Y-86948448D03*
G04 #@! TO.N,PC1*
X95504000Y-101092000D03*
X139303320Y-78199176D03*
X142416767Y-85548448D03*
X113284000Y-83312000D03*
G04 #@! TO.N,PC2*
X137668000Y-79502000D03*
X141741767Y-84448448D03*
X138430000Y-39370000D03*
G04 #@! TO.N,PC3*
X135636000Y-82042000D03*
X140966767Y-83473448D03*
X138430000Y-40386000D03*
X129486766Y-49784000D03*
X129486766Y-57404000D03*
G04 #@! TO.N,PC4*
X138430000Y-41402000D03*
X131218246Y-57404000D03*
X131218246Y-49784000D03*
G04 #@! TO.N,PC5*
X138430000Y-42418000D03*
G04 #@! TO.N,PC6*
X138430000Y-43434000D03*
G04 #@! TO.N,PC7*
X177292000Y-123444000D03*
X110490000Y-100584000D03*
X158750000Y-115570000D03*
X128016000Y-103886000D03*
G04 #@! TO.N,PC8*
X138430000Y-44450000D03*
X135382000Y-76200000D03*
X135128000Y-72390000D03*
G04 #@! TO.N,PC10*
X150486209Y-100182571D03*
G04 #@! TO.N,PC11*
X151438806Y-100486844D03*
G04 #@! TO.N,PC12*
X151316767Y-98708448D03*
G04 #@! TO.N,PC13*
X146891767Y-88623448D03*
G04 #@! TO.N,PD2*
X152400000Y-99314000D03*
G04 #@! TO.N,PB11*
X133703471Y-99368146D03*
X153556766Y-112548448D03*
X156976767Y-109368448D03*
G04 #@! TO.N,Net-(10k4-Pad2)*
X152908000Y-68326000D03*
X139954000Y-72390000D03*
D18*
G04 #@! TO.N,Net-(C8-Pad1)*
X128908830Y-48241569D03*
X132835670Y-46001289D03*
X93409790Y-55998729D03*
X89482950Y-58239009D03*
G04 #@! TO.N,Net-(C13-Pad1)*
X126650770Y-41299749D03*
X126650770Y-45991129D03*
X127565170Y-41337849D03*
X127542310Y-46047009D03*
G04 #@! TO.N,Net-(C14-Pad1)*
X94819490Y-62856729D03*
X95665310Y-62844029D03*
X95665310Y-58249169D03*
X94816950Y-58239009D03*
D20*
G04 #@! TO.N,+5V*
X116840000Y-121158000D03*
X118872000Y-20320000D03*
D17*
X91948000Y-73152000D03*
X91440000Y-53086000D03*
D20*
X104902000Y-76962000D03*
D18*
G04 #@! TO.N,Net-(J1-Pad5)*
X91236000Y-101262000D03*
X90936000Y-92962000D03*
D17*
G04 #@! TO.N,Net-(R19-Pad2)*
X105596000Y-111974000D03*
X110998000Y-114554000D03*
G04 #@! TO.N,Net-(C12-Pad1)*
X145796000Y-41402000D03*
X145034000Y-45720000D03*
G04 #@! TO.N,Net-(C19-Pad2)*
X145542000Y-37084000D03*
X145796000Y-39624000D03*
G04 #@! TO.N,Net-(R33-Pad1)*
X144272000Y-38354000D03*
X150114000Y-49276000D03*
D19*
G04 #@! TO.N,Net-(LED1-PadA)*
X170040000Y-23002000D03*
X159640000Y-31402000D03*
D17*
G04 #@! TO.N,Net-(C4-Pad1)*
X176530000Y-37084000D03*
X167640000Y-40386000D03*
D19*
G04 #@! TO.N,Net-(C7-Pad1)*
X156240000Y-14002000D03*
X161640000Y-14202000D03*
G04 #@! TD*
D21*
G04 #@! TO.N,GND*
X127906767Y-86458449D02*
X129316768Y-85048448D01*
X127906767Y-100248448D02*
X127906767Y-86458449D01*
D22*
G04 #@! TO.N,PA5*
X172466000Y-111252000D02*
X172466000Y-112522000D01*
X172466000Y-112522000D02*
X168656000Y-116332000D01*
X168656000Y-116332000D02*
X167132000Y-114808000D01*
X167132000Y-114808000D02*
X160274000Y-114808000D01*
X160274000Y-114808000D02*
X160274000Y-114808000D01*
D21*
X135340999Y-115824000D02*
X133604000Y-115824000D01*
X133604000Y-115824000D02*
X117711998Y-115824000D01*
X117711998Y-115824000D02*
X117348000Y-115460002D01*
X117457998Y-115570000D02*
X117348000Y-115460002D01*
D23*
X117348000Y-115460002D02*
X90678000Y-88790002D01*
X90678000Y-88790002D02*
X90678000Y-87687685D01*
X90678000Y-87687685D02*
X90678000Y-87122000D01*
G04 #@! TO.N,PA7*
X88392000Y-87687685D02*
X88392000Y-87122000D01*
X88392000Y-89254002D02*
X88392000Y-87687685D01*
X88791999Y-86722001D02*
X88392000Y-87122000D01*
X103901999Y-86121999D02*
X89392001Y-86121999D01*
X89392001Y-86121999D02*
X88791999Y-86722001D01*
X112268000Y-94488000D02*
X103901999Y-86121999D01*
D21*
X115723998Y-116586000D02*
X115570000Y-116432002D01*
D23*
X115570000Y-116432002D02*
X88392000Y-89254002D01*
D21*
X115977998Y-116840000D02*
X115570000Y-116432002D01*
X139150999Y-116840000D02*
X115977998Y-116840000D01*
X140420999Y-115570000D02*
X139150999Y-116840000D01*
D22*
X162654002Y-125984000D02*
X159352002Y-122682000D01*
X165608000Y-125984000D02*
X162654002Y-125984000D01*
X159352002Y-122682000D02*
X144272000Y-122682000D01*
X143609487Y-122019487D02*
X143609487Y-118758488D01*
X144272000Y-122682000D02*
X143609487Y-122019487D01*
D23*
G04 #@! TO.N,PA6*
X120865999Y-114769999D02*
X106172000Y-100076000D01*
X137080998Y-114769999D02*
X120865999Y-114769999D01*
X93617999Y-87521999D02*
X93218000Y-87122000D01*
X137880999Y-115570000D02*
X137080998Y-114769999D01*
X106172000Y-100076000D02*
X93617999Y-87521999D01*
D22*
X168356314Y-126734001D02*
X145784001Y-126734001D01*
X169672000Y-125984000D02*
X169106315Y-125984000D01*
X169106315Y-125984000D02*
X168356314Y-126734001D01*
X141069487Y-122019487D02*
X141069487Y-118758488D01*
X145784001Y-126734001D02*
X141069487Y-122019487D01*
D24*
G04 #@! TO.N,PA8*
X114046000Y-101092000D02*
X114808000Y-100330000D01*
X121655209Y-108701209D02*
X114046000Y-101092000D01*
X142188167Y-113538000D02*
X140664167Y-112014000D01*
X137351376Y-108701209D02*
X121655209Y-108701209D01*
X140664167Y-112014000D02*
X137351376Y-108701209D01*
D23*
G04 #@! TO.N,PB9*
X163376767Y-90032761D02*
X163376767Y-90598446D01*
X163376767Y-56500452D02*
X163376767Y-88900000D01*
X153162000Y-46285685D02*
X163376767Y-56500452D01*
X153162000Y-45720000D02*
X153162000Y-46285685D01*
X163376767Y-88900000D02*
X163376767Y-90032761D01*
D21*
G04 #@! TO.N,PB8*
X158496000Y-47498000D02*
X161290000Y-47498000D01*
X161290000Y-47498000D02*
X167386000Y-53594000D01*
X167386000Y-53594000D02*
X165100000Y-55880000D01*
X165100000Y-90525215D02*
X163496767Y-92128448D01*
X165100000Y-55880000D02*
X165100000Y-90525215D01*
D22*
G04 #@! TO.N,RST*
X143252916Y-88598447D02*
X142852917Y-88198448D01*
X143252916Y-104055366D02*
X143252916Y-88598447D01*
X149889488Y-119663488D02*
X149889488Y-110691938D01*
X149889488Y-110691938D02*
X143252916Y-104055366D01*
X151892000Y-121666000D02*
X149889488Y-119663488D01*
D23*
G04 #@! TO.N,PA3*
X95903999Y-87521999D02*
X95504000Y-87122000D01*
X108966000Y-100584000D02*
X95903999Y-87521999D01*
X113792000Y-105410000D02*
X108966000Y-100584000D01*
D21*
G04 #@! TO.N,PA9*
X156850590Y-97398269D02*
X156850590Y-102558269D01*
X140694320Y-81241999D02*
X156850590Y-97398269D01*
X137784316Y-81241999D02*
X140694320Y-81241999D01*
X125950769Y-69408452D02*
X137784316Y-81241999D01*
X125950769Y-43988252D02*
X125950769Y-69408452D01*
X128778000Y-41161021D02*
X125950769Y-43988252D01*
X128778000Y-16002000D02*
X128778000Y-41161021D01*
X157776768Y-103484447D02*
X157776768Y-112479232D01*
X156850590Y-102558269D02*
X157776768Y-103484447D01*
X157014768Y-112479232D02*
X155448000Y-114046000D01*
X157776768Y-112479232D02*
X157014768Y-112479232D01*
G04 #@! TO.N,PA10*
X152079486Y-117908489D02*
X151229487Y-118758488D01*
X154356767Y-115631208D02*
X152079486Y-117908489D01*
X154356767Y-112164447D02*
X154356767Y-115631208D01*
X152945955Y-110753635D02*
X154356767Y-112164447D01*
X152945955Y-103086045D02*
X152945955Y-110753635D01*
X154432000Y-101600000D02*
X152945955Y-103086045D01*
G04 #@! TO.N,PA11*
X159258000Y-113269975D02*
X153769487Y-118758488D01*
X159258000Y-96266000D02*
X159258000Y-113269975D01*
D23*
G04 #@! TO.N,PB6*
X180340000Y-84694975D02*
X180340000Y-14986000D01*
X167500727Y-97534248D02*
X180340000Y-84694975D01*
G04 #@! TO.N,PB7*
X174244000Y-21273998D02*
X174244000Y-19558000D01*
X158632000Y-56388000D02*
X151499999Y-49255999D01*
X151499999Y-49255999D02*
X151499999Y-44017999D01*
X151499999Y-44017999D02*
X174244000Y-21273998D01*
D22*
X174498000Y-116586000D02*
X174498000Y-101346000D01*
X177292000Y-119380000D02*
X174498000Y-116586000D01*
X174498000Y-101346000D02*
X171450000Y-98298000D01*
X171450000Y-98298000D02*
X171450000Y-98298000D01*
D23*
X166298646Y-94994248D02*
X167500727Y-94994248D01*
X158632000Y-88521683D02*
X165104565Y-94994248D01*
X165104565Y-94994248D02*
X166298646Y-94994248D01*
X158632000Y-56388000D02*
X158632000Y-88521683D01*
G04 #@! TO.N,PB15*
X168350726Y-73824249D02*
X167500727Y-74674248D01*
X175121999Y-67052976D02*
X168350726Y-73824249D01*
X175121999Y-23760001D02*
X175121999Y-67052976D01*
X175768000Y-23114000D02*
X175121999Y-23760001D01*
G04 #@! TO.N,PC1*
X115987775Y-83312000D02*
X122278567Y-77021208D01*
X113284000Y-83312000D02*
X115987775Y-83312000D01*
D22*
G04 #@! TO.N,PC2*
X137668000Y-76162199D02*
X137668000Y-78936315D01*
X137668000Y-78936315D02*
X137668000Y-79502000D01*
X138838246Y-74991953D02*
X137668000Y-76162199D01*
X138838246Y-62815567D02*
X138838246Y-74991953D01*
X139462246Y-62191567D02*
X138838246Y-62815567D01*
X139462246Y-39836561D02*
X139462246Y-62191567D01*
X138995685Y-39370000D02*
X139462246Y-39836561D01*
X138430000Y-39370000D02*
X138995685Y-39370000D01*
D23*
G04 #@! TO.N,PC7*
X112219207Y-100184001D02*
X120142000Y-92261208D01*
X110889999Y-100184001D02*
X112219207Y-100184001D01*
X110490000Y-100584000D02*
X110889999Y-100184001D01*
X120142000Y-92261208D02*
X122278567Y-92261208D01*
D22*
X176892001Y-123044001D02*
X172066001Y-123044001D01*
X177292000Y-123444000D02*
X176892001Y-123044001D01*
X172066001Y-123044001D02*
X164846000Y-115824000D01*
X164846000Y-115824000D02*
X164592000Y-115570000D01*
X164592000Y-115570000D02*
X158750000Y-115570000D01*
X158750000Y-115570000D02*
X158750000Y-115570000D01*
X128016000Y-103886000D02*
X125222000Y-101092000D01*
X125222000Y-101092000D02*
X125222000Y-94742000D01*
X124759359Y-94742000D02*
X122278567Y-92261208D01*
X125222000Y-94742000D02*
X124759359Y-94742000D01*
G04 #@! TO.N,PC8*
X135382000Y-75634315D02*
X135128000Y-75380315D01*
X135382000Y-76200000D02*
X135382000Y-75634315D01*
X135128000Y-75380315D02*
X135128000Y-72390000D01*
X135128000Y-72390000D02*
X135128000Y-72390000D01*
D23*
G04 #@! TO.N,Net-(10k4-Pad2)*
X152508001Y-68873985D02*
X152508001Y-68725999D01*
X152073778Y-69308208D02*
X152508001Y-68873985D01*
X152508001Y-68725999D02*
X152908000Y-68326000D01*
X143035792Y-69308208D02*
X152073778Y-69308208D01*
X139954000Y-72390000D02*
X143035792Y-69308208D01*
D25*
G04 #@! TO.N,+5V*
X99822000Y-44007548D02*
X99822000Y-41179121D01*
X99822000Y-66551437D02*
X99822000Y-44007548D01*
X104902000Y-71631437D02*
X99822000Y-66551437D01*
X104902000Y-76962000D02*
X104902000Y-71631437D01*
X99822000Y-41179121D02*
X106934000Y-41179121D01*
X99822000Y-41179121D02*
X92710000Y-41179121D01*
X92710000Y-41179121D02*
X85598000Y-41179121D01*
G04 #@! TD*
M02*
