G04 #@! TF.GenerationSoftware,KiCad,Pcbnew,5.0.2-bee76a0~70~ubuntu18.04.1*
G04 #@! TF.CreationDate,2019-09-22T14:56:38-07:00*
G04 #@! TF.ProjectId,habiv-board,68616269-762d-4626-9f61-72642e6b6963,rev?*
G04 #@! TF.SameCoordinates,Original*
G04 #@! TF.FileFunction,Legend,Bot*
G04 #@! TF.FilePolarity,Positive*
%FSLAX46Y46*%
G04 Gerber Fmt 4.6, Leading zero omitted, Abs format (unit mm)*
G04 Created by KiCad (PCBNEW 5.0.2-bee76a0~70~ubuntu18.04.1) date Sun 22 Sep 2019 02:56:38 PM PDT*
%MOMM*%
%LPD*%
G01*
G04 APERTURE LIST*
%ADD10C,0.190500*%
G04 APERTURE END LIST*
D10*
X164090047Y-17002729D02*
X165296547Y-17404896D01*
X164090047Y-17807063D01*
X165296547Y-18209229D02*
X164090047Y-18209229D01*
X165296547Y-18783753D02*
X164090047Y-18783753D01*
X165296547Y-19473182D01*
X164090047Y-19473182D01*
X165181642Y-20047705D02*
X165239095Y-20105158D01*
X165296547Y-20047705D01*
X165239095Y-19990253D01*
X165181642Y-20047705D01*
X165296547Y-20047705D01*
X164549666Y-20047705D02*
X164607119Y-20105158D01*
X164664571Y-20047705D01*
X164607119Y-19990253D01*
X164549666Y-20047705D01*
X164664571Y-20047705D01*
X164090047Y-21426563D02*
X164090047Y-22173444D01*
X164549666Y-21771277D01*
X164549666Y-21943634D01*
X164607119Y-22058539D01*
X164664571Y-22115991D01*
X164779476Y-22173444D01*
X165066738Y-22173444D01*
X165181642Y-22115991D01*
X165239095Y-22058539D01*
X165296547Y-21943634D01*
X165296547Y-21598920D01*
X165239095Y-21484015D01*
X165181642Y-21426563D01*
X165181642Y-22690515D02*
X165239095Y-22747967D01*
X165296547Y-22690515D01*
X165239095Y-22633063D01*
X165181642Y-22690515D01*
X165296547Y-22690515D01*
X164090047Y-23150134D02*
X164090047Y-23897015D01*
X164549666Y-23494848D01*
X164549666Y-23667205D01*
X164607119Y-23782110D01*
X164664571Y-23839563D01*
X164779476Y-23897015D01*
X165066738Y-23897015D01*
X165181642Y-23839563D01*
X165239095Y-23782110D01*
X165296547Y-23667205D01*
X165296547Y-23322491D01*
X165239095Y-23207586D01*
X165181642Y-23150134D01*
X164836928Y-24414086D02*
X164836928Y-25333325D01*
X164090047Y-26482372D02*
X164090047Y-25907848D01*
X164664571Y-25850396D01*
X164607119Y-25907848D01*
X164549666Y-26022753D01*
X164549666Y-26310015D01*
X164607119Y-26424920D01*
X164664571Y-26482372D01*
X164779476Y-26539825D01*
X165066738Y-26539825D01*
X165181642Y-26482372D01*
X165239095Y-26424920D01*
X165296547Y-26310015D01*
X165296547Y-26022753D01*
X165239095Y-25907848D01*
X165181642Y-25850396D01*
X164090047Y-26884539D02*
X165296547Y-27286705D01*
X164090047Y-27688872D01*
M02*
