M48
;DRILL file {KiCad 5.0.2-bee76a0~70~ubuntu18.04.1} date Sun 22 Sep 2019 01:34:04 PM PDT
;FORMAT={-:-/ absolute / inch / decimal}
FMAT,2
INCH,TZ
T1C0.0157
T2C0.0197
T3C0.0394
T4C0.1063
%
G90
G05
T1
X3.2623Y-3.1675
X3.2629Y-3.0991
X3.2629Y-3.2281
X3.2635Y-3.0397
X3.2643Y-2.8393
X3.2643Y-2.9685
X3.2649Y-2.9097
X3.3299Y-3.2281
X3.3305Y-3.1675
X3.3317Y-3.0999
X3.3335Y-2.8393
X3.3335Y-2.9693
X3.3335Y-3.0403
X3.3341Y-2.9097
X3.3765Y-1.9951
X3.3765Y-2.0281
X3.3765Y-2.0589
X3.3769Y-2.0905
X3.3769Y-2.1221
X3.3773Y-2.1557
X3.3783Y-2.1875
X3.38Y-3.48
X3.4041Y-3.1675
X3.4047Y-3.0985
X3.4047Y-3.2287
X3.4053Y-3.0397
X3.4065Y-2.8399
X3.4065Y-2.9103
X3.4065Y-2.9693
X3.4601Y-4.1304
X3.48Y-3.43
X3.523Y-2.2929
X3.57Y-3.43
X3.5802Y-3.6599
X3.5831Y-2.4163
X3.5835Y-2.3817
X3.592Y-3.9867
X3.6Y-2.09
X3.6163Y-2.3821
X3.6163Y-2.4169
X3.62Y-2.88
X3.67Y-3.43
X3.6776Y-2.2047
X3.733Y-2.2929
X3.7331Y-2.4747
X3.76Y-3.43
X3.76Y-3.98
X3.7664Y-2.2933
X3.7664Y-2.4742
X3.81Y-3.65
X3.8671Y-2.8281
X3.87Y-4.48
X3.9027Y-2.8285
X3.9385Y-2.8285
X3.9757Y-2.8281
X3.99Y-4.22
X4.0129Y-2.3543
X4.0131Y-2.8277
X4.0488Y-3.45
X4.0507Y-2.3543
X4.0531Y-2.8277
X4.0923Y-2.3543
X4.13Y-3.03
X4.1313Y-2.3549
X4.1573Y-4.4084
X4.1671Y-2.3543
X4.18Y-3.94
X4.31Y-3.48
X4.35Y-3.96
X4.37Y-4.51
X4.42Y-3.72
X4.42Y-3.79
X4.42Y-3.85
X4.4565Y-3.6958
X4.46Y-3.28
X4.48Y-4.15
X4.52Y-3.95
X4.5869Y-1.7495
X4.6229Y-1.7487
X4.6595Y-1.7497
X4.6981Y-1.7497
X4.7103Y-1.2775
X4.7353Y-1.7497
X4.7517Y-1.2773
X4.7879Y-1.2771
X4.8247Y-1.2771
X4.8561Y-1.2769
X4.8923Y-1.2781
X4.9863Y-1.626
X4.9863Y-1.8107
X4.9918Y-3.8799
X4.9948Y-3.8297
X4.9957Y-3.7293
X4.9957Y-3.7756
X5.0214Y-1.8129
X5.0223Y-1.6275
X5.0357Y-3.9468
X5.04Y-4.09
X5.0752Y-1.8993
X5.0912Y-3.3484
X5.0979Y-1.96
X5.0979Y-2.26
X5.1235Y-2.8566
X5.14Y-3.5482
X5.1421Y-1.6885
X5.1421Y-1.7213
X5.1661Y-1.96
X5.1661Y-2.26
X5.1741Y-1.6877
X5.1741Y-1.7213
X5.18Y-3.5462
X5.2Y-2.1
X5.2036Y-2.0163
X5.2222Y-3.5629
X5.2228Y-3.3261
X5.2298Y-1.8111
X5.2438Y-3.6024
X5.2487Y-3.7106
X5.2526Y-3.6643
X5.2538Y-3.7557
X5.2546Y-3.2736
X5.2639Y-3.9121
X5.27Y-3.36
X5.2743Y-3.5492
X5.3Y-3.93
X5.31Y-4.04
X5.3137Y-3.1791
X5.32Y-2.0163
X5.32Y-2.85
X5.3284Y-4.56
X5.33Y-3.
X5.34Y-3.23
X5.3491Y-1.1361
X5.3491Y-1.1957
X5.3491Y-1.2657
X5.3499Y-1.0653
X5.3515Y-1.0075
X5.3531Y-0.9375
X5.3539Y-0.8763
X5.365Y-4.0024
X5.3803Y-1.9177
X5.3803Y-1.9803
X5.3803Y-2.0117
X5.3803Y-2.1089
X5.3803Y-2.1439
X5.3807Y-1.9497
X5.3807Y-2.0439
X5.3807Y-2.0749
X5.4082Y-4.1523
X5.4166Y-4.0838
X5.42Y-3.13
X5.4215Y-1.1941
X5.4231Y-1.2649
X5.4239Y-1.0653
X5.4239Y-1.1337
X5.4255Y-0.9375
X5.4263Y-1.0075
X5.4279Y-0.8763
X5.4284Y-4.55
X5.4337Y-3.9074
X5.44Y-3.23
X5.4445Y-4.1372
X5.45Y-1.55
X5.45Y-1.59
X5.45Y-1.63
X5.45Y-1.67
X5.45Y-1.71
X5.45Y-1.75
X5.4731Y-3.7824
X5.479Y-4.1564
X5.4839Y-2.9783
X5.4839Y-3.0373
X5.4844Y-3.0787
X5.4939Y-1.0661
X5.4939Y-1.1345
X5.4947Y-1.1957
X5.4947Y-1.2633
X5.4955Y-0.9375
X5.4955Y-1.0083
X5.4963Y-0.8771
X5.5Y-3.42
X5.51Y-2.85
X5.5125Y-3.9232
X5.5284Y-4.55
X5.53Y-1.6
X5.5499Y-3.2864
X5.5804Y-3.3247
X5.598Y-4.47
X5.6009Y-3.6172
X5.607Y-3.368
X5.62Y-1.75
X5.6241Y-3.4724
X5.6257Y-3.4232
X5.64Y-1.49
X5.68Y-1.51
X5.6848Y-1.7527
X5.71Y-1.8
X5.7255Y-3.9168
X5.73Y-1.46
X5.7358Y-4.1367
X5.74Y-1.56
X5.74Y-1.63
X5.7408Y-3.6555
X5.7831Y-3.4891
X5.792Y-4.1555
X5.858Y-1.92
X5.86Y-1.52
X5.89Y-4.3031
X5.894Y-3.6412
X5.9052Y-3.1269
X5.91Y-1.94
X5.9227Y-3.6708
X5.9247Y-3.9442
X5.93Y-1.46
X5.933Y-4.3192
X5.94Y-1.66
X5.9574Y-3.8862
X5.9619Y-4.3459
X5.9622Y-3.9562
X5.9701Y-2.6932
X5.98Y-4.79
X5.98Y-5.04
X5.9879Y-2.8774
X5.99Y-4.3735
X6.Y-1.75
X6.Y-3.91
X6.0154Y-4.4036
X6.02Y-2.69
X6.03Y-1.8
X6.04Y-2.78
X6.0455Y-4.431
X6.0566Y-3.3724
X6.0568Y-3.2736
X6.0619Y-4.1966
X6.08Y-4.
X6.0882Y-4.2258
X6.1184Y-4.2511
X6.12Y-4.49
X6.1432Y-3.394
X6.1471Y-4.0562
X6.1491Y-4.2803
X6.1802Y-4.3058
X6.2Y-4.96
X6.2067Y-3.9933
X6.24Y-1.75
X6.24Y-1.87
X6.25Y-4.55
X6.27Y-3.79
X6.3065Y-2.03
X6.31Y-4.52
X6.33Y-2.77
X6.34Y-3.8399
X6.36Y-4.96
X6.4254Y-1.5666
X6.4274Y-1.7497
X6.4322Y-3.5669
X6.4369Y-3.6271
X6.4668Y-1.5666
X6.4668Y-1.8166
X6.52Y-4.96
X6.53Y-1.46
X6.6Y-1.59
X6.68Y-4.96
X6.71Y-3.91
X6.75Y-3.87
X6.75Y-4.
X6.79Y-4.38
X6.8073Y-1.6865
X6.83Y-1.59
X6.84Y-4.96
X6.86Y-0.77
X6.86Y-1.11
X6.92Y-0.91
X6.93Y-1.24
X6.95Y-1.46
X6.98Y-4.22
X6.98Y-4.38
X6.98Y-4.55
X6.98Y-4.7
X6.98Y-4.86
X6.99Y-2.
X7.05Y-4.
X7.1Y-0.59
T2
X5.6923Y-0.9205
X5.7273Y-0.808
X5.7323Y-0.688
X5.7723Y-0.733
X5.7773Y-1.013
X5.7973Y-0.523
X5.8023Y-1.103
X5.8126Y-1.2835
X5.8126Y-1.3387
X5.8323Y-0.733
X5.8677Y-1.3465
X5.8723Y-1.108
X5.8823Y-0.6905
X5.9823Y-0.573
X5.9937Y-0.4568
X6.0803Y-0.4646
X6.1197Y-0.504
X6.1512Y-0.4331
X6.1512Y-0.5513
X6.222Y-0.4489
X6.2614Y-0.5513
X6.2772Y-0.441
X6.285Y-1.2363
X6.3373Y-1.293
X6.3638Y-0.441
X6.3638Y-0.5591
X6.4189Y-0.5513
X6.4473Y-0.418
X6.6079Y-1.3387
X6.6551Y-1.3387
X6.6673Y-1.158
X6.6945Y-0.9056
X6.7024Y-1.3308
X6.7654Y-1.3308
X6.8205Y-1.3308
T3
X4.6Y-4.77
X4.68Y-0.43
X4.68Y-0.8
X4.8Y-4.8669
X4.9Y-4.8669
X5.Y-4.8669
X4.9539Y-4.6755
X5.0539Y-4.6755
X5.1539Y-4.6755
X5.2539Y-4.6755
X5.3539Y-4.6755
X5.4539Y-4.6755
X5.5539Y-4.6755
X5.6539Y-4.6755
X5.7539Y-4.6755
X5.8539Y-4.6755
X5.9539Y-4.6755
X6.0539Y-4.6755
X6.1539Y-4.6755
X6.2539Y-4.6755
X6.3539Y-4.6755
X6.4539Y-4.6755
X4.8Y-5.02
X4.9Y-5.02
X5.Y-5.02
X4.87Y-0.48
X4.97Y-0.48
X5.07Y-0.48
X5.2133Y-2.4957
X5.2133Y-2.5957
X5.3133Y-2.4957
X5.3133Y-2.5957
X5.4133Y-2.4957
X5.4133Y-2.5957
X5.5133Y-2.4957
X5.5133Y-2.5957
X5.6133Y-2.4957
X5.6133Y-2.5957
X5.7133Y-2.4957
X5.7133Y-2.5957
X5.8133Y-2.4957
X5.8133Y-2.5957
X5.9133Y-2.4957
X5.9133Y-2.5957
X6.0133Y-2.4957
X6.0133Y-2.5957
X6.1133Y-2.4957
X6.1133Y-2.5957
X4.8141Y-2.9323
X4.8141Y-3.0323
X4.8141Y-3.1323
X4.8141Y-3.2323
X4.8141Y-3.3323
X4.8141Y-3.4323
X4.8141Y-3.5323
X4.8141Y-3.6323
X4.8141Y-3.7323
X4.8141Y-3.8323
X4.8141Y-3.9323
X4.8141Y-4.0323
X4.8141Y-4.1323
X4.8141Y-4.2323
X4.8141Y-4.3323
X4.8141Y-4.4323
X4.2396Y-4.9616
X4.3396Y-4.9616
X6.84Y-2.88
X6.84Y-2.98
X6.84Y-3.08
X6.84Y-3.18
X6.84Y-3.28
X4.87Y-0.63
X4.97Y-0.63
X5.07Y-0.63
X6.99Y-2.3
X6.99Y-2.4
X6.99Y-2.5
X6.99Y-2.6
X6.5945Y-2.9399
X6.5945Y-3.0399
X6.5945Y-3.1399
X6.5945Y-3.2399
X6.5945Y-3.3399
X6.5945Y-3.4399
X6.5945Y-3.5399
X6.5945Y-3.6399
X6.5945Y-3.7399
X6.5945Y-3.8399
X6.5945Y-3.9399
X6.5945Y-4.0399
X6.5945Y-4.1399
X6.5945Y-4.2399
X6.5945Y-4.3399
X6.5945Y-4.4399
T4
X3.37Y-1.4244
X3.37Y-1.6212
X3.93Y-0.96
X3.93Y-1.1569
X4.21Y-0.9631
X4.21Y-1.16
X3.65Y-1.4244
X3.65Y-1.6212
X4.31Y-2.1931
X4.31Y-2.39
X4.21Y-1.4244
X4.21Y-1.6212
X3.93Y-1.4244
X3.93Y-1.6212
X3.37Y-0.9631
X3.37Y-1.16
X3.65Y-0.9631
X3.65Y-1.16
T0
M30
