G04 #@! TF.GenerationSoftware,KiCad,Pcbnew,5.0.1-33cea8e~68~ubuntu16.04.1*
G04 #@! TF.CreationDate,2018-10-29T00:19:41-07:00*
G04 #@! TF.ProjectId,integrated-board-design-2,696E74656772617465642D626F617264,rev?*
G04 #@! TF.SameCoordinates,Original*
G04 #@! TF.FileFunction,Other,Fab,Bot*
%FSLAX46Y46*%
G04 Gerber Fmt 4.6, Leading zero omitted, Abs format (unit mm)*
G04 Created by KiCad (PCBNEW 5.0.1-33cea8e~68~ubuntu16.04.1) date Mon 29 Oct 2018 12:19:41 AM PDT*
%MOMM*%
%LPD*%
G01*
G04 APERTURE LIST*
%ADD10C,0.203200*%
%ADD11C,0.040640*%
G04 APERTURE END LIST*
D10*
G04 #@! TO.C,B1*
X67448015Y-115260309D02*
X62622015Y-115260309D01*
X67448015Y-118816309D02*
X67448015Y-115260309D01*
X71004015Y-118816309D02*
X67448015Y-118816309D01*
X71004015Y-115260309D02*
X71004015Y-118816309D01*
X73036015Y-115260309D02*
X71004015Y-115260309D01*
X75830015Y-112466309D02*
X73036015Y-115260309D01*
X75830015Y-104846309D02*
X75830015Y-112466309D01*
X73036015Y-102052309D02*
X75830015Y-104846309D01*
X71004015Y-102052309D02*
X73036015Y-102052309D01*
X71004015Y-98496309D02*
X71004015Y-102052309D01*
X67448015Y-98496309D02*
X71004015Y-98496309D01*
X67448015Y-102052309D02*
X67448015Y-98496309D01*
X62622015Y-102052309D02*
X67448015Y-102052309D01*
X69987815Y-117081709D02*
G75*
G03X69987815Y-117081709I-915800J0D01*
G01*
X70141815Y-100376909D02*
G75*
G03X70141815Y-100376909I-915800J0D01*
G01*
X62622015Y-103322309D02*
X62622015Y-102052309D01*
X64908015Y-105608309D02*
X62622015Y-103322309D01*
X64908015Y-111704309D02*
X64908015Y-105608309D01*
X62622015Y-113990309D02*
X64908015Y-111704309D01*
X62622015Y-115260309D02*
X62622015Y-113990309D01*
G04 #@! TD*
G04 #@! TO.C,B1*
D11*
X78038860Y-105693265D02*
X78057245Y-105674881D01*
X78075630Y-105619726D01*
X78075630Y-105582957D01*
X78057245Y-105527803D01*
X78020475Y-105491033D01*
X77983706Y-105472648D01*
X77910167Y-105454264D01*
X77855013Y-105454264D01*
X77781474Y-105472648D01*
X77744704Y-105491033D01*
X77707935Y-105527803D01*
X77689550Y-105582957D01*
X77689550Y-105619726D01*
X77707935Y-105674881D01*
X77726319Y-105693265D01*
X78075630Y-106079345D02*
X77891782Y-105950652D01*
X78075630Y-105858728D02*
X77689550Y-105858728D01*
X77689550Y-106005806D01*
X77707935Y-106042576D01*
X77726319Y-106060961D01*
X77763089Y-106079345D01*
X77818243Y-106079345D01*
X77855013Y-106060961D01*
X77873397Y-106042576D01*
X77891782Y-106005806D01*
X77891782Y-105858728D01*
X78075630Y-106447041D02*
X78075630Y-106226424D01*
X78075630Y-106336732D02*
X77689550Y-106336732D01*
X77744704Y-106299963D01*
X77781474Y-106263193D01*
X77799858Y-106226424D01*
X77726319Y-106594119D02*
X77707935Y-106612504D01*
X77689550Y-106649273D01*
X77689550Y-106741197D01*
X77707935Y-106777966D01*
X77726319Y-106796351D01*
X77763089Y-106814736D01*
X77799858Y-106814736D01*
X77855013Y-106796351D01*
X78075630Y-106575734D01*
X78075630Y-106814736D01*
X77726319Y-106961814D02*
X77707935Y-106980199D01*
X77689550Y-107016968D01*
X77689550Y-107108892D01*
X77707935Y-107145662D01*
X77726319Y-107164046D01*
X77763089Y-107182431D01*
X77799858Y-107182431D01*
X77855013Y-107164046D01*
X78075630Y-106943429D01*
X78075630Y-107182431D01*
X77689550Y-107421433D02*
X77689550Y-107458203D01*
X77707935Y-107494972D01*
X77726319Y-107513357D01*
X77763089Y-107531742D01*
X77836628Y-107550126D01*
X77928552Y-107550126D01*
X78002091Y-107531742D01*
X78038860Y-107513357D01*
X78057245Y-107494972D01*
X78075630Y-107458203D01*
X78075630Y-107421433D01*
X78057245Y-107384664D01*
X78038860Y-107366279D01*
X78002091Y-107347894D01*
X77928552Y-107329509D01*
X77836628Y-107329509D01*
X77763089Y-107347894D01*
X77726319Y-107366279D01*
X77707935Y-107384664D01*
X77689550Y-107421433D01*
G04 #@! TD*
M02*
