G04 #@! TF.GenerationSoftware,KiCad,Pcbnew,5.0.1-33cea8e~68~ubuntu16.04.1*
G04 #@! TF.CreationDate,2018-10-29T00:19:41-07:00*
G04 #@! TF.ProjectId,integrated-board-design-2,696E74656772617465642D626F617264,rev?*
G04 #@! TF.SameCoordinates,Original*
G04 #@! TF.FileFunction,Paste,Bot*
G04 #@! TF.FilePolarity,Positive*
%FSLAX46Y46*%
G04 Gerber Fmt 4.6, Leading zero omitted, Abs format (unit mm)*
G04 Created by KiCad (PCBNEW 5.0.1-33cea8e~68~ubuntu16.04.1) date Mon 29 Oct 2018 12:19:41 AM PDT*
%MOMM*%
%LPD*%
G01*
G04 APERTURE LIST*
%ADD10C,0.375000*%
%ADD11R,3.200000X3.200000*%
G04 APERTURE END LIST*
D10*
X197553571Y-80307142D02*
X196053571Y-80307142D01*
X196053571Y-79950000D01*
X196125000Y-79735714D01*
X196267857Y-79592857D01*
X196410714Y-79521428D01*
X196696428Y-79450000D01*
X196910714Y-79450000D01*
X197196428Y-79521428D01*
X197339285Y-79592857D01*
X197482142Y-79735714D01*
X197553571Y-79950000D01*
X197553571Y-80307142D01*
X196767857Y-78807142D02*
X196767857Y-78307142D01*
X197553571Y-78092857D02*
X197553571Y-78807142D01*
X196053571Y-78807142D01*
X196053571Y-78092857D01*
X197553571Y-77450000D02*
X196053571Y-77450000D01*
X197553571Y-76592857D01*
X196053571Y-76592857D01*
X198125000Y-75450000D02*
X198053571Y-75521428D01*
X197839285Y-75664285D01*
X197696428Y-75735714D01*
X197482142Y-75807142D01*
X197125000Y-75878571D01*
X196839285Y-75878571D01*
X196482142Y-75807142D01*
X196267857Y-75735714D01*
X196125000Y-75664285D01*
X195910714Y-75521428D01*
X195839285Y-75450000D01*
X196125000Y-74092857D02*
X196053571Y-74235714D01*
X196053571Y-74450000D01*
X196125000Y-74664285D01*
X196267857Y-74807142D01*
X196410714Y-74878571D01*
X196696428Y-74950000D01*
X196910714Y-74950000D01*
X197196428Y-74878571D01*
X197339285Y-74807142D01*
X197482142Y-74664285D01*
X197553571Y-74450000D01*
X197553571Y-74307142D01*
X197482142Y-74092857D01*
X197410714Y-74021428D01*
X196910714Y-74021428D01*
X196910714Y-74307142D01*
X198125000Y-73521428D02*
X198053571Y-73450000D01*
X197839285Y-73307142D01*
X197696428Y-73235714D01*
X197482142Y-73164285D01*
X197125000Y-73092857D01*
X196839285Y-73092857D01*
X196482142Y-73164285D01*
X196267857Y-73235714D01*
X196125000Y-73307142D01*
X195910714Y-73450000D01*
X195839285Y-73521428D01*
D11*
G04 #@! TO.C,B1*
X69226015Y-116881709D03*
X69226015Y-100430909D03*
G04 #@! TD*
M02*
