G04 #@! TF.GenerationSoftware,KiCad,Pcbnew,5.0.1-33cea8e~68~ubuntu16.04.1*
G04 #@! TF.CreationDate,2018-10-29T00:19:41-07:00*
G04 #@! TF.ProjectId,integrated-board-design-2,696E74656772617465642D626F617264,rev?*
G04 #@! TF.SameCoordinates,Original*
G04 #@! TF.FileFunction,Paste,Top*
G04 #@! TF.FilePolarity,Positive*
%FSLAX46Y46*%
G04 Gerber Fmt 4.6, Leading zero omitted, Abs format (unit mm)*
G04 Created by KiCad (PCBNEW 5.0.1-33cea8e~68~ubuntu16.04.1) date Mon 29 Oct 2018 12:19:41 AM PDT*
%MOMM*%
%LPD*%
G01*
G04 APERTURE LIST*
%ADD10C,0.100000*%
%ADD11R,1.200000X0.750000*%
%ADD12R,1.400000X0.700000*%
%ADD13R,1.900000X1.500000*%
%ADD14R,1.400000X1.000000*%
%ADD15R,1.200000X1.200000*%
%ADD16R,3.200000X1.200000*%
%ADD17R,1.200000X0.700000*%
%ADD18R,0.500000X0.500000*%
%ADD19R,0.800000X1.200000*%
%ADD20C,0.200000*%
%ADD21R,0.650000X1.360000*%
%ADD22R,1.650000X0.610000*%
%ADD23C,0.590000*%
%ADD24R,1.905000X1.092200*%
%ADD25R,4.500000X2.300000*%
%ADD26R,0.290000X0.700000*%
%ADD27R,0.700000X0.290000*%
%ADD28C,0.950000*%
%ADD29R,0.260000X0.790000*%
%ADD30R,0.790000X0.260000*%
%ADD31R,2.600000X2.700000*%
%ADD32R,4.064000X1.524000*%
%ADD33R,2.000000X1.000000*%
%ADD34R,1.240000X1.500000*%
%ADD35R,1.350000X0.800000*%
%ADD36R,1.050000X1.000000*%
%ADD37R,2.200000X0.850000*%
%ADD38R,1.980000X0.530000*%
%ADD39R,1.500000X0.300000*%
%ADD40R,0.300000X1.500000*%
%ADD41R,1.200000X0.900000*%
%ADD42R,0.750000X1.200000*%
%ADD43R,0.900000X1.200000*%
%ADD44R,0.900000X1.700000*%
%ADD45R,2.700000X2.100000*%
%ADD46R,2.200000X1.500000*%
%ADD47R,1.270000X0.558800*%
G04 APERTURE END LIST*
D10*
G04 #@! TO.C,U1*
G36*
X131552000Y-137128200D02*
X131552000Y-136167000D01*
X132461857Y-136167000D01*
X132461857Y-137128200D01*
X131552000Y-137128200D01*
G37*
G36*
X131552000Y-135906837D02*
X131552000Y-134947000D01*
X132461837Y-134947000D01*
X132461837Y-135906837D01*
X131552000Y-135906837D01*
G37*
G36*
X132722000Y-135906981D02*
X132722000Y-134947000D01*
X133632160Y-134947000D01*
X133632160Y-135906981D01*
X132722000Y-135906981D01*
G37*
G36*
X132722000Y-137128180D02*
X132722000Y-136167000D01*
X133633130Y-136167000D01*
X133633130Y-137128180D01*
X132722000Y-137128180D01*
G37*
G04 #@! TD*
D11*
G04 #@! TO.C,C1*
X185300000Y-146000000D03*
X187200000Y-146000000D03*
G04 #@! TD*
D12*
G04 #@! TO.C,J2*
X81455440Y-69441760D03*
D13*
X66455440Y-65641760D03*
D14*
X81455440Y-67541760D03*
D15*
X77255440Y-78941760D03*
D16*
X67455440Y-78941760D03*
D17*
X81555440Y-78091760D03*
D12*
X81455440Y-70541760D03*
X81455440Y-71641760D03*
X81455440Y-72741760D03*
X81455440Y-73841760D03*
X81455440Y-74941760D03*
X81455440Y-76041760D03*
X81455440Y-77141760D03*
D18*
X65755440Y-66641760D03*
D19*
X71055440Y-78941760D03*
D20*
X66005440Y-66391760D03*
D10*
G36*
X65864019Y-66391760D02*
X66005440Y-66250339D01*
X66146861Y-66391760D01*
X66005440Y-66533181D01*
X65864019Y-66391760D01*
X65864019Y-66391760D01*
G37*
G04 #@! TD*
D21*
G04 #@! TO.C,U1*
X185614203Y-143533068D03*
X185614203Y-141183068D03*
X186864203Y-143533068D03*
X188114203Y-143533068D03*
X189364203Y-143533068D03*
X189364203Y-141183068D03*
X188114203Y-141183068D03*
X186864203Y-141183068D03*
G04 #@! TD*
D22*
G04 #@! TO.C,IC1*
X112580080Y-127969560D03*
X112580080Y-129239560D03*
X112580080Y-130509560D03*
X112580080Y-131779560D03*
X107320080Y-131779560D03*
X107320080Y-130509560D03*
X107320080Y-129239560D03*
X107320080Y-127969560D03*
G04 #@! TD*
D10*
G04 #@! TO.C,C1*
G36*
X103787038Y-134025270D02*
X103801356Y-134027394D01*
X103815397Y-134030911D01*
X103829026Y-134035788D01*
X103842111Y-134041977D01*
X103854527Y-134049418D01*
X103866153Y-134058041D01*
X103876878Y-134067762D01*
X103886599Y-134078487D01*
X103895222Y-134090113D01*
X103902663Y-134102529D01*
X103908852Y-134115614D01*
X103913729Y-134129243D01*
X103917246Y-134143284D01*
X103919370Y-134157602D01*
X103920080Y-134172060D01*
X103920080Y-134467060D01*
X103919370Y-134481518D01*
X103917246Y-134495836D01*
X103913729Y-134509877D01*
X103908852Y-134523506D01*
X103902663Y-134536591D01*
X103895222Y-134549007D01*
X103886599Y-134560633D01*
X103876878Y-134571358D01*
X103866153Y-134581079D01*
X103854527Y-134589702D01*
X103842111Y-134597143D01*
X103829026Y-134603332D01*
X103815397Y-134608209D01*
X103801356Y-134611726D01*
X103787038Y-134613850D01*
X103772580Y-134614560D01*
X103427580Y-134614560D01*
X103413122Y-134613850D01*
X103398804Y-134611726D01*
X103384763Y-134608209D01*
X103371134Y-134603332D01*
X103358049Y-134597143D01*
X103345633Y-134589702D01*
X103334007Y-134581079D01*
X103323282Y-134571358D01*
X103313561Y-134560633D01*
X103304938Y-134549007D01*
X103297497Y-134536591D01*
X103291308Y-134523506D01*
X103286431Y-134509877D01*
X103282914Y-134495836D01*
X103280790Y-134481518D01*
X103280080Y-134467060D01*
X103280080Y-134172060D01*
X103280790Y-134157602D01*
X103282914Y-134143284D01*
X103286431Y-134129243D01*
X103291308Y-134115614D01*
X103297497Y-134102529D01*
X103304938Y-134090113D01*
X103313561Y-134078487D01*
X103323282Y-134067762D01*
X103334007Y-134058041D01*
X103345633Y-134049418D01*
X103358049Y-134041977D01*
X103371134Y-134035788D01*
X103384763Y-134030911D01*
X103398804Y-134027394D01*
X103413122Y-134025270D01*
X103427580Y-134024560D01*
X103772580Y-134024560D01*
X103787038Y-134025270D01*
X103787038Y-134025270D01*
G37*
D23*
X103600080Y-134319560D03*
D10*
G36*
X103787038Y-134995270D02*
X103801356Y-134997394D01*
X103815397Y-135000911D01*
X103829026Y-135005788D01*
X103842111Y-135011977D01*
X103854527Y-135019418D01*
X103866153Y-135028041D01*
X103876878Y-135037762D01*
X103886599Y-135048487D01*
X103895222Y-135060113D01*
X103902663Y-135072529D01*
X103908852Y-135085614D01*
X103913729Y-135099243D01*
X103917246Y-135113284D01*
X103919370Y-135127602D01*
X103920080Y-135142060D01*
X103920080Y-135437060D01*
X103919370Y-135451518D01*
X103917246Y-135465836D01*
X103913729Y-135479877D01*
X103908852Y-135493506D01*
X103902663Y-135506591D01*
X103895222Y-135519007D01*
X103886599Y-135530633D01*
X103876878Y-135541358D01*
X103866153Y-135551079D01*
X103854527Y-135559702D01*
X103842111Y-135567143D01*
X103829026Y-135573332D01*
X103815397Y-135578209D01*
X103801356Y-135581726D01*
X103787038Y-135583850D01*
X103772580Y-135584560D01*
X103427580Y-135584560D01*
X103413122Y-135583850D01*
X103398804Y-135581726D01*
X103384763Y-135578209D01*
X103371134Y-135573332D01*
X103358049Y-135567143D01*
X103345633Y-135559702D01*
X103334007Y-135551079D01*
X103323282Y-135541358D01*
X103313561Y-135530633D01*
X103304938Y-135519007D01*
X103297497Y-135506591D01*
X103291308Y-135493506D01*
X103286431Y-135479877D01*
X103282914Y-135465836D01*
X103280790Y-135451518D01*
X103280080Y-135437060D01*
X103280080Y-135142060D01*
X103280790Y-135127602D01*
X103282914Y-135113284D01*
X103286431Y-135099243D01*
X103291308Y-135085614D01*
X103297497Y-135072529D01*
X103304938Y-135060113D01*
X103313561Y-135048487D01*
X103323282Y-135037762D01*
X103334007Y-135028041D01*
X103345633Y-135019418D01*
X103358049Y-135011977D01*
X103371134Y-135005788D01*
X103384763Y-135000911D01*
X103398804Y-134997394D01*
X103413122Y-134995270D01*
X103427580Y-134994560D01*
X103772580Y-134994560D01*
X103787038Y-134995270D01*
X103787038Y-134995270D01*
G37*
D23*
X103600080Y-135289560D03*
G04 #@! TD*
D10*
G04 #@! TO.C,C2*
G36*
X108867038Y-134995270D02*
X108881356Y-134997394D01*
X108895397Y-135000911D01*
X108909026Y-135005788D01*
X108922111Y-135011977D01*
X108934527Y-135019418D01*
X108946153Y-135028041D01*
X108956878Y-135037762D01*
X108966599Y-135048487D01*
X108975222Y-135060113D01*
X108982663Y-135072529D01*
X108988852Y-135085614D01*
X108993729Y-135099243D01*
X108997246Y-135113284D01*
X108999370Y-135127602D01*
X109000080Y-135142060D01*
X109000080Y-135437060D01*
X108999370Y-135451518D01*
X108997246Y-135465836D01*
X108993729Y-135479877D01*
X108988852Y-135493506D01*
X108982663Y-135506591D01*
X108975222Y-135519007D01*
X108966599Y-135530633D01*
X108956878Y-135541358D01*
X108946153Y-135551079D01*
X108934527Y-135559702D01*
X108922111Y-135567143D01*
X108909026Y-135573332D01*
X108895397Y-135578209D01*
X108881356Y-135581726D01*
X108867038Y-135583850D01*
X108852580Y-135584560D01*
X108507580Y-135584560D01*
X108493122Y-135583850D01*
X108478804Y-135581726D01*
X108464763Y-135578209D01*
X108451134Y-135573332D01*
X108438049Y-135567143D01*
X108425633Y-135559702D01*
X108414007Y-135551079D01*
X108403282Y-135541358D01*
X108393561Y-135530633D01*
X108384938Y-135519007D01*
X108377497Y-135506591D01*
X108371308Y-135493506D01*
X108366431Y-135479877D01*
X108362914Y-135465836D01*
X108360790Y-135451518D01*
X108360080Y-135437060D01*
X108360080Y-135142060D01*
X108360790Y-135127602D01*
X108362914Y-135113284D01*
X108366431Y-135099243D01*
X108371308Y-135085614D01*
X108377497Y-135072529D01*
X108384938Y-135060113D01*
X108393561Y-135048487D01*
X108403282Y-135037762D01*
X108414007Y-135028041D01*
X108425633Y-135019418D01*
X108438049Y-135011977D01*
X108451134Y-135005788D01*
X108464763Y-135000911D01*
X108478804Y-134997394D01*
X108493122Y-134995270D01*
X108507580Y-134994560D01*
X108852580Y-134994560D01*
X108867038Y-134995270D01*
X108867038Y-134995270D01*
G37*
D23*
X108680080Y-135289560D03*
D10*
G36*
X108867038Y-134025270D02*
X108881356Y-134027394D01*
X108895397Y-134030911D01*
X108909026Y-134035788D01*
X108922111Y-134041977D01*
X108934527Y-134049418D01*
X108946153Y-134058041D01*
X108956878Y-134067762D01*
X108966599Y-134078487D01*
X108975222Y-134090113D01*
X108982663Y-134102529D01*
X108988852Y-134115614D01*
X108993729Y-134129243D01*
X108997246Y-134143284D01*
X108999370Y-134157602D01*
X109000080Y-134172060D01*
X109000080Y-134467060D01*
X108999370Y-134481518D01*
X108997246Y-134495836D01*
X108993729Y-134509877D01*
X108988852Y-134523506D01*
X108982663Y-134536591D01*
X108975222Y-134549007D01*
X108966599Y-134560633D01*
X108956878Y-134571358D01*
X108946153Y-134581079D01*
X108934527Y-134589702D01*
X108922111Y-134597143D01*
X108909026Y-134603332D01*
X108895397Y-134608209D01*
X108881356Y-134611726D01*
X108867038Y-134613850D01*
X108852580Y-134614560D01*
X108507580Y-134614560D01*
X108493122Y-134613850D01*
X108478804Y-134611726D01*
X108464763Y-134608209D01*
X108451134Y-134603332D01*
X108438049Y-134597143D01*
X108425633Y-134589702D01*
X108414007Y-134581079D01*
X108403282Y-134571358D01*
X108393561Y-134560633D01*
X108384938Y-134549007D01*
X108377497Y-134536591D01*
X108371308Y-134523506D01*
X108366431Y-134509877D01*
X108362914Y-134495836D01*
X108360790Y-134481518D01*
X108360080Y-134467060D01*
X108360080Y-134172060D01*
X108360790Y-134157602D01*
X108362914Y-134143284D01*
X108366431Y-134129243D01*
X108371308Y-134115614D01*
X108377497Y-134102529D01*
X108384938Y-134090113D01*
X108393561Y-134078487D01*
X108403282Y-134067762D01*
X108414007Y-134058041D01*
X108425633Y-134049418D01*
X108438049Y-134041977D01*
X108451134Y-134035788D01*
X108464763Y-134030911D01*
X108478804Y-134027394D01*
X108493122Y-134025270D01*
X108507580Y-134024560D01*
X108852580Y-134024560D01*
X108867038Y-134025270D01*
X108867038Y-134025270D01*
G37*
D23*
X108680080Y-134319560D03*
G04 #@! TD*
D24*
G04 #@! TO.C,Q1*
X103600080Y-131677960D03*
X103600080Y-129239560D03*
G04 #@! TD*
D10*
G04 #@! TO.C,R3*
G36*
X112677038Y-134025270D02*
X112691356Y-134027394D01*
X112705397Y-134030911D01*
X112719026Y-134035788D01*
X112732111Y-134041977D01*
X112744527Y-134049418D01*
X112756153Y-134058041D01*
X112766878Y-134067762D01*
X112776599Y-134078487D01*
X112785222Y-134090113D01*
X112792663Y-134102529D01*
X112798852Y-134115614D01*
X112803729Y-134129243D01*
X112807246Y-134143284D01*
X112809370Y-134157602D01*
X112810080Y-134172060D01*
X112810080Y-134467060D01*
X112809370Y-134481518D01*
X112807246Y-134495836D01*
X112803729Y-134509877D01*
X112798852Y-134523506D01*
X112792663Y-134536591D01*
X112785222Y-134549007D01*
X112776599Y-134560633D01*
X112766878Y-134571358D01*
X112756153Y-134581079D01*
X112744527Y-134589702D01*
X112732111Y-134597143D01*
X112719026Y-134603332D01*
X112705397Y-134608209D01*
X112691356Y-134611726D01*
X112677038Y-134613850D01*
X112662580Y-134614560D01*
X112317580Y-134614560D01*
X112303122Y-134613850D01*
X112288804Y-134611726D01*
X112274763Y-134608209D01*
X112261134Y-134603332D01*
X112248049Y-134597143D01*
X112235633Y-134589702D01*
X112224007Y-134581079D01*
X112213282Y-134571358D01*
X112203561Y-134560633D01*
X112194938Y-134549007D01*
X112187497Y-134536591D01*
X112181308Y-134523506D01*
X112176431Y-134509877D01*
X112172914Y-134495836D01*
X112170790Y-134481518D01*
X112170080Y-134467060D01*
X112170080Y-134172060D01*
X112170790Y-134157602D01*
X112172914Y-134143284D01*
X112176431Y-134129243D01*
X112181308Y-134115614D01*
X112187497Y-134102529D01*
X112194938Y-134090113D01*
X112203561Y-134078487D01*
X112213282Y-134067762D01*
X112224007Y-134058041D01*
X112235633Y-134049418D01*
X112248049Y-134041977D01*
X112261134Y-134035788D01*
X112274763Y-134030911D01*
X112288804Y-134027394D01*
X112303122Y-134025270D01*
X112317580Y-134024560D01*
X112662580Y-134024560D01*
X112677038Y-134025270D01*
X112677038Y-134025270D01*
G37*
D23*
X112490080Y-134319560D03*
D10*
G36*
X112677038Y-134995270D02*
X112691356Y-134997394D01*
X112705397Y-135000911D01*
X112719026Y-135005788D01*
X112732111Y-135011977D01*
X112744527Y-135019418D01*
X112756153Y-135028041D01*
X112766878Y-135037762D01*
X112776599Y-135048487D01*
X112785222Y-135060113D01*
X112792663Y-135072529D01*
X112798852Y-135085614D01*
X112803729Y-135099243D01*
X112807246Y-135113284D01*
X112809370Y-135127602D01*
X112810080Y-135142060D01*
X112810080Y-135437060D01*
X112809370Y-135451518D01*
X112807246Y-135465836D01*
X112803729Y-135479877D01*
X112798852Y-135493506D01*
X112792663Y-135506591D01*
X112785222Y-135519007D01*
X112776599Y-135530633D01*
X112766878Y-135541358D01*
X112756153Y-135551079D01*
X112744527Y-135559702D01*
X112732111Y-135567143D01*
X112719026Y-135573332D01*
X112705397Y-135578209D01*
X112691356Y-135581726D01*
X112677038Y-135583850D01*
X112662580Y-135584560D01*
X112317580Y-135584560D01*
X112303122Y-135583850D01*
X112288804Y-135581726D01*
X112274763Y-135578209D01*
X112261134Y-135573332D01*
X112248049Y-135567143D01*
X112235633Y-135559702D01*
X112224007Y-135551079D01*
X112213282Y-135541358D01*
X112203561Y-135530633D01*
X112194938Y-135519007D01*
X112187497Y-135506591D01*
X112181308Y-135493506D01*
X112176431Y-135479877D01*
X112172914Y-135465836D01*
X112170790Y-135451518D01*
X112170080Y-135437060D01*
X112170080Y-135142060D01*
X112170790Y-135127602D01*
X112172914Y-135113284D01*
X112176431Y-135099243D01*
X112181308Y-135085614D01*
X112187497Y-135072529D01*
X112194938Y-135060113D01*
X112203561Y-135048487D01*
X112213282Y-135037762D01*
X112224007Y-135028041D01*
X112235633Y-135019418D01*
X112248049Y-135011977D01*
X112261134Y-135005788D01*
X112274763Y-135000911D01*
X112288804Y-134997394D01*
X112303122Y-134995270D01*
X112317580Y-134994560D01*
X112662580Y-134994560D01*
X112677038Y-134995270D01*
X112677038Y-134995270D01*
G37*
D23*
X112490080Y-135289560D03*
G04 #@! TD*
D25*
G04 #@! TO.C,B1*
X118150080Y-120349560D03*
X101750080Y-120349560D03*
G04 #@! TD*
D10*
G04 #@! TO.C,C1*
G36*
X186635118Y-36266410D02*
X186649436Y-36268534D01*
X186663477Y-36272051D01*
X186677106Y-36276928D01*
X186690191Y-36283117D01*
X186702607Y-36290558D01*
X186714233Y-36299181D01*
X186724958Y-36308902D01*
X186734679Y-36319627D01*
X186743302Y-36331253D01*
X186750743Y-36343669D01*
X186756932Y-36356754D01*
X186761809Y-36370383D01*
X186765326Y-36384424D01*
X186767450Y-36398742D01*
X186768160Y-36413200D01*
X186768160Y-36708200D01*
X186767450Y-36722658D01*
X186765326Y-36736976D01*
X186761809Y-36751017D01*
X186756932Y-36764646D01*
X186750743Y-36777731D01*
X186743302Y-36790147D01*
X186734679Y-36801773D01*
X186724958Y-36812498D01*
X186714233Y-36822219D01*
X186702607Y-36830842D01*
X186690191Y-36838283D01*
X186677106Y-36844472D01*
X186663477Y-36849349D01*
X186649436Y-36852866D01*
X186635118Y-36854990D01*
X186620660Y-36855700D01*
X186275660Y-36855700D01*
X186261202Y-36854990D01*
X186246884Y-36852866D01*
X186232843Y-36849349D01*
X186219214Y-36844472D01*
X186206129Y-36838283D01*
X186193713Y-36830842D01*
X186182087Y-36822219D01*
X186171362Y-36812498D01*
X186161641Y-36801773D01*
X186153018Y-36790147D01*
X186145577Y-36777731D01*
X186139388Y-36764646D01*
X186134511Y-36751017D01*
X186130994Y-36736976D01*
X186128870Y-36722658D01*
X186128160Y-36708200D01*
X186128160Y-36413200D01*
X186128870Y-36398742D01*
X186130994Y-36384424D01*
X186134511Y-36370383D01*
X186139388Y-36356754D01*
X186145577Y-36343669D01*
X186153018Y-36331253D01*
X186161641Y-36319627D01*
X186171362Y-36308902D01*
X186182087Y-36299181D01*
X186193713Y-36290558D01*
X186206129Y-36283117D01*
X186219214Y-36276928D01*
X186232843Y-36272051D01*
X186246884Y-36268534D01*
X186261202Y-36266410D01*
X186275660Y-36265700D01*
X186620660Y-36265700D01*
X186635118Y-36266410D01*
X186635118Y-36266410D01*
G37*
D23*
X186448160Y-36560700D03*
D10*
G36*
X186635118Y-37236410D02*
X186649436Y-37238534D01*
X186663477Y-37242051D01*
X186677106Y-37246928D01*
X186690191Y-37253117D01*
X186702607Y-37260558D01*
X186714233Y-37269181D01*
X186724958Y-37278902D01*
X186734679Y-37289627D01*
X186743302Y-37301253D01*
X186750743Y-37313669D01*
X186756932Y-37326754D01*
X186761809Y-37340383D01*
X186765326Y-37354424D01*
X186767450Y-37368742D01*
X186768160Y-37383200D01*
X186768160Y-37678200D01*
X186767450Y-37692658D01*
X186765326Y-37706976D01*
X186761809Y-37721017D01*
X186756932Y-37734646D01*
X186750743Y-37747731D01*
X186743302Y-37760147D01*
X186734679Y-37771773D01*
X186724958Y-37782498D01*
X186714233Y-37792219D01*
X186702607Y-37800842D01*
X186690191Y-37808283D01*
X186677106Y-37814472D01*
X186663477Y-37819349D01*
X186649436Y-37822866D01*
X186635118Y-37824990D01*
X186620660Y-37825700D01*
X186275660Y-37825700D01*
X186261202Y-37824990D01*
X186246884Y-37822866D01*
X186232843Y-37819349D01*
X186219214Y-37814472D01*
X186206129Y-37808283D01*
X186193713Y-37800842D01*
X186182087Y-37792219D01*
X186171362Y-37782498D01*
X186161641Y-37771773D01*
X186153018Y-37760147D01*
X186145577Y-37747731D01*
X186139388Y-37734646D01*
X186134511Y-37721017D01*
X186130994Y-37706976D01*
X186128870Y-37692658D01*
X186128160Y-37678200D01*
X186128160Y-37383200D01*
X186128870Y-37368742D01*
X186130994Y-37354424D01*
X186134511Y-37340383D01*
X186139388Y-37326754D01*
X186145577Y-37313669D01*
X186153018Y-37301253D01*
X186161641Y-37289627D01*
X186171362Y-37278902D01*
X186182087Y-37269181D01*
X186193713Y-37260558D01*
X186206129Y-37253117D01*
X186219214Y-37246928D01*
X186232843Y-37242051D01*
X186246884Y-37238534D01*
X186261202Y-37236410D01*
X186275660Y-37235700D01*
X186620660Y-37235700D01*
X186635118Y-37236410D01*
X186635118Y-37236410D01*
G37*
D23*
X186448160Y-37530700D03*
G04 #@! TD*
D10*
G04 #@! TO.C,C2*
G36*
X189683118Y-37236410D02*
X189697436Y-37238534D01*
X189711477Y-37242051D01*
X189725106Y-37246928D01*
X189738191Y-37253117D01*
X189750607Y-37260558D01*
X189762233Y-37269181D01*
X189772958Y-37278902D01*
X189782679Y-37289627D01*
X189791302Y-37301253D01*
X189798743Y-37313669D01*
X189804932Y-37326754D01*
X189809809Y-37340383D01*
X189813326Y-37354424D01*
X189815450Y-37368742D01*
X189816160Y-37383200D01*
X189816160Y-37678200D01*
X189815450Y-37692658D01*
X189813326Y-37706976D01*
X189809809Y-37721017D01*
X189804932Y-37734646D01*
X189798743Y-37747731D01*
X189791302Y-37760147D01*
X189782679Y-37771773D01*
X189772958Y-37782498D01*
X189762233Y-37792219D01*
X189750607Y-37800842D01*
X189738191Y-37808283D01*
X189725106Y-37814472D01*
X189711477Y-37819349D01*
X189697436Y-37822866D01*
X189683118Y-37824990D01*
X189668660Y-37825700D01*
X189323660Y-37825700D01*
X189309202Y-37824990D01*
X189294884Y-37822866D01*
X189280843Y-37819349D01*
X189267214Y-37814472D01*
X189254129Y-37808283D01*
X189241713Y-37800842D01*
X189230087Y-37792219D01*
X189219362Y-37782498D01*
X189209641Y-37771773D01*
X189201018Y-37760147D01*
X189193577Y-37747731D01*
X189187388Y-37734646D01*
X189182511Y-37721017D01*
X189178994Y-37706976D01*
X189176870Y-37692658D01*
X189176160Y-37678200D01*
X189176160Y-37383200D01*
X189176870Y-37368742D01*
X189178994Y-37354424D01*
X189182511Y-37340383D01*
X189187388Y-37326754D01*
X189193577Y-37313669D01*
X189201018Y-37301253D01*
X189209641Y-37289627D01*
X189219362Y-37278902D01*
X189230087Y-37269181D01*
X189241713Y-37260558D01*
X189254129Y-37253117D01*
X189267214Y-37246928D01*
X189280843Y-37242051D01*
X189294884Y-37238534D01*
X189309202Y-37236410D01*
X189323660Y-37235700D01*
X189668660Y-37235700D01*
X189683118Y-37236410D01*
X189683118Y-37236410D01*
G37*
D23*
X189496160Y-37530700D03*
D10*
G36*
X189683118Y-36266410D02*
X189697436Y-36268534D01*
X189711477Y-36272051D01*
X189725106Y-36276928D01*
X189738191Y-36283117D01*
X189750607Y-36290558D01*
X189762233Y-36299181D01*
X189772958Y-36308902D01*
X189782679Y-36319627D01*
X189791302Y-36331253D01*
X189798743Y-36343669D01*
X189804932Y-36356754D01*
X189809809Y-36370383D01*
X189813326Y-36384424D01*
X189815450Y-36398742D01*
X189816160Y-36413200D01*
X189816160Y-36708200D01*
X189815450Y-36722658D01*
X189813326Y-36736976D01*
X189809809Y-36751017D01*
X189804932Y-36764646D01*
X189798743Y-36777731D01*
X189791302Y-36790147D01*
X189782679Y-36801773D01*
X189772958Y-36812498D01*
X189762233Y-36822219D01*
X189750607Y-36830842D01*
X189738191Y-36838283D01*
X189725106Y-36844472D01*
X189711477Y-36849349D01*
X189697436Y-36852866D01*
X189683118Y-36854990D01*
X189668660Y-36855700D01*
X189323660Y-36855700D01*
X189309202Y-36854990D01*
X189294884Y-36852866D01*
X189280843Y-36849349D01*
X189267214Y-36844472D01*
X189254129Y-36838283D01*
X189241713Y-36830842D01*
X189230087Y-36822219D01*
X189219362Y-36812498D01*
X189209641Y-36801773D01*
X189201018Y-36790147D01*
X189193577Y-36777731D01*
X189187388Y-36764646D01*
X189182511Y-36751017D01*
X189178994Y-36736976D01*
X189176870Y-36722658D01*
X189176160Y-36708200D01*
X189176160Y-36413200D01*
X189176870Y-36398742D01*
X189178994Y-36384424D01*
X189182511Y-36370383D01*
X189187388Y-36356754D01*
X189193577Y-36343669D01*
X189201018Y-36331253D01*
X189209641Y-36319627D01*
X189219362Y-36308902D01*
X189230087Y-36299181D01*
X189241713Y-36290558D01*
X189254129Y-36283117D01*
X189267214Y-36276928D01*
X189280843Y-36272051D01*
X189294884Y-36268534D01*
X189309202Y-36266410D01*
X189323660Y-36265700D01*
X189668660Y-36265700D01*
X189683118Y-36266410D01*
X189683118Y-36266410D01*
G37*
D23*
X189496160Y-36560700D03*
G04 #@! TD*
D10*
G04 #@! TO.C,C3*
G36*
X196287118Y-60396410D02*
X196301436Y-60398534D01*
X196315477Y-60402051D01*
X196329106Y-60406928D01*
X196342191Y-60413117D01*
X196354607Y-60420558D01*
X196366233Y-60429181D01*
X196376958Y-60438902D01*
X196386679Y-60449627D01*
X196395302Y-60461253D01*
X196402743Y-60473669D01*
X196408932Y-60486754D01*
X196413809Y-60500383D01*
X196417326Y-60514424D01*
X196419450Y-60528742D01*
X196420160Y-60543200D01*
X196420160Y-60838200D01*
X196419450Y-60852658D01*
X196417326Y-60866976D01*
X196413809Y-60881017D01*
X196408932Y-60894646D01*
X196402743Y-60907731D01*
X196395302Y-60920147D01*
X196386679Y-60931773D01*
X196376958Y-60942498D01*
X196366233Y-60952219D01*
X196354607Y-60960842D01*
X196342191Y-60968283D01*
X196329106Y-60974472D01*
X196315477Y-60979349D01*
X196301436Y-60982866D01*
X196287118Y-60984990D01*
X196272660Y-60985700D01*
X195927660Y-60985700D01*
X195913202Y-60984990D01*
X195898884Y-60982866D01*
X195884843Y-60979349D01*
X195871214Y-60974472D01*
X195858129Y-60968283D01*
X195845713Y-60960842D01*
X195834087Y-60952219D01*
X195823362Y-60942498D01*
X195813641Y-60931773D01*
X195805018Y-60920147D01*
X195797577Y-60907731D01*
X195791388Y-60894646D01*
X195786511Y-60881017D01*
X195782994Y-60866976D01*
X195780870Y-60852658D01*
X195780160Y-60838200D01*
X195780160Y-60543200D01*
X195780870Y-60528742D01*
X195782994Y-60514424D01*
X195786511Y-60500383D01*
X195791388Y-60486754D01*
X195797577Y-60473669D01*
X195805018Y-60461253D01*
X195813641Y-60449627D01*
X195823362Y-60438902D01*
X195834087Y-60429181D01*
X195845713Y-60420558D01*
X195858129Y-60413117D01*
X195871214Y-60406928D01*
X195884843Y-60402051D01*
X195898884Y-60398534D01*
X195913202Y-60396410D01*
X195927660Y-60395700D01*
X196272660Y-60395700D01*
X196287118Y-60396410D01*
X196287118Y-60396410D01*
G37*
D23*
X196100160Y-60690700D03*
D10*
G36*
X196287118Y-61366410D02*
X196301436Y-61368534D01*
X196315477Y-61372051D01*
X196329106Y-61376928D01*
X196342191Y-61383117D01*
X196354607Y-61390558D01*
X196366233Y-61399181D01*
X196376958Y-61408902D01*
X196386679Y-61419627D01*
X196395302Y-61431253D01*
X196402743Y-61443669D01*
X196408932Y-61456754D01*
X196413809Y-61470383D01*
X196417326Y-61484424D01*
X196419450Y-61498742D01*
X196420160Y-61513200D01*
X196420160Y-61808200D01*
X196419450Y-61822658D01*
X196417326Y-61836976D01*
X196413809Y-61851017D01*
X196408932Y-61864646D01*
X196402743Y-61877731D01*
X196395302Y-61890147D01*
X196386679Y-61901773D01*
X196376958Y-61912498D01*
X196366233Y-61922219D01*
X196354607Y-61930842D01*
X196342191Y-61938283D01*
X196329106Y-61944472D01*
X196315477Y-61949349D01*
X196301436Y-61952866D01*
X196287118Y-61954990D01*
X196272660Y-61955700D01*
X195927660Y-61955700D01*
X195913202Y-61954990D01*
X195898884Y-61952866D01*
X195884843Y-61949349D01*
X195871214Y-61944472D01*
X195858129Y-61938283D01*
X195845713Y-61930842D01*
X195834087Y-61922219D01*
X195823362Y-61912498D01*
X195813641Y-61901773D01*
X195805018Y-61890147D01*
X195797577Y-61877731D01*
X195791388Y-61864646D01*
X195786511Y-61851017D01*
X195782994Y-61836976D01*
X195780870Y-61822658D01*
X195780160Y-61808200D01*
X195780160Y-61513200D01*
X195780870Y-61498742D01*
X195782994Y-61484424D01*
X195786511Y-61470383D01*
X195791388Y-61456754D01*
X195797577Y-61443669D01*
X195805018Y-61431253D01*
X195813641Y-61419627D01*
X195823362Y-61408902D01*
X195834087Y-61399181D01*
X195845713Y-61390558D01*
X195858129Y-61383117D01*
X195871214Y-61376928D01*
X195884843Y-61372051D01*
X195898884Y-61368534D01*
X195913202Y-61366410D01*
X195927660Y-61365700D01*
X196272660Y-61365700D01*
X196287118Y-61366410D01*
X196287118Y-61366410D01*
G37*
D23*
X196100160Y-61660700D03*
G04 #@! TD*
D10*
G04 #@! TO.C,D1*
G36*
X184349118Y-59888410D02*
X184363436Y-59890534D01*
X184377477Y-59894051D01*
X184391106Y-59898928D01*
X184404191Y-59905117D01*
X184416607Y-59912558D01*
X184428233Y-59921181D01*
X184438958Y-59930902D01*
X184448679Y-59941627D01*
X184457302Y-59953253D01*
X184464743Y-59965669D01*
X184470932Y-59978754D01*
X184475809Y-59992383D01*
X184479326Y-60006424D01*
X184481450Y-60020742D01*
X184482160Y-60035200D01*
X184482160Y-60330200D01*
X184481450Y-60344658D01*
X184479326Y-60358976D01*
X184475809Y-60373017D01*
X184470932Y-60386646D01*
X184464743Y-60399731D01*
X184457302Y-60412147D01*
X184448679Y-60423773D01*
X184438958Y-60434498D01*
X184428233Y-60444219D01*
X184416607Y-60452842D01*
X184404191Y-60460283D01*
X184391106Y-60466472D01*
X184377477Y-60471349D01*
X184363436Y-60474866D01*
X184349118Y-60476990D01*
X184334660Y-60477700D01*
X183989660Y-60477700D01*
X183975202Y-60476990D01*
X183960884Y-60474866D01*
X183946843Y-60471349D01*
X183933214Y-60466472D01*
X183920129Y-60460283D01*
X183907713Y-60452842D01*
X183896087Y-60444219D01*
X183885362Y-60434498D01*
X183875641Y-60423773D01*
X183867018Y-60412147D01*
X183859577Y-60399731D01*
X183853388Y-60386646D01*
X183848511Y-60373017D01*
X183844994Y-60358976D01*
X183842870Y-60344658D01*
X183842160Y-60330200D01*
X183842160Y-60035200D01*
X183842870Y-60020742D01*
X183844994Y-60006424D01*
X183848511Y-59992383D01*
X183853388Y-59978754D01*
X183859577Y-59965669D01*
X183867018Y-59953253D01*
X183875641Y-59941627D01*
X183885362Y-59930902D01*
X183896087Y-59921181D01*
X183907713Y-59912558D01*
X183920129Y-59905117D01*
X183933214Y-59898928D01*
X183946843Y-59894051D01*
X183960884Y-59890534D01*
X183975202Y-59888410D01*
X183989660Y-59887700D01*
X184334660Y-59887700D01*
X184349118Y-59888410D01*
X184349118Y-59888410D01*
G37*
D23*
X184162160Y-60182700D03*
D10*
G36*
X184349118Y-60858410D02*
X184363436Y-60860534D01*
X184377477Y-60864051D01*
X184391106Y-60868928D01*
X184404191Y-60875117D01*
X184416607Y-60882558D01*
X184428233Y-60891181D01*
X184438958Y-60900902D01*
X184448679Y-60911627D01*
X184457302Y-60923253D01*
X184464743Y-60935669D01*
X184470932Y-60948754D01*
X184475809Y-60962383D01*
X184479326Y-60976424D01*
X184481450Y-60990742D01*
X184482160Y-61005200D01*
X184482160Y-61300200D01*
X184481450Y-61314658D01*
X184479326Y-61328976D01*
X184475809Y-61343017D01*
X184470932Y-61356646D01*
X184464743Y-61369731D01*
X184457302Y-61382147D01*
X184448679Y-61393773D01*
X184438958Y-61404498D01*
X184428233Y-61414219D01*
X184416607Y-61422842D01*
X184404191Y-61430283D01*
X184391106Y-61436472D01*
X184377477Y-61441349D01*
X184363436Y-61444866D01*
X184349118Y-61446990D01*
X184334660Y-61447700D01*
X183989660Y-61447700D01*
X183975202Y-61446990D01*
X183960884Y-61444866D01*
X183946843Y-61441349D01*
X183933214Y-61436472D01*
X183920129Y-61430283D01*
X183907713Y-61422842D01*
X183896087Y-61414219D01*
X183885362Y-61404498D01*
X183875641Y-61393773D01*
X183867018Y-61382147D01*
X183859577Y-61369731D01*
X183853388Y-61356646D01*
X183848511Y-61343017D01*
X183844994Y-61328976D01*
X183842870Y-61314658D01*
X183842160Y-61300200D01*
X183842160Y-61005200D01*
X183842870Y-60990742D01*
X183844994Y-60976424D01*
X183848511Y-60962383D01*
X183853388Y-60948754D01*
X183859577Y-60935669D01*
X183867018Y-60923253D01*
X183875641Y-60911627D01*
X183885362Y-60900902D01*
X183896087Y-60891181D01*
X183907713Y-60882558D01*
X183920129Y-60875117D01*
X183933214Y-60868928D01*
X183946843Y-60864051D01*
X183960884Y-60860534D01*
X183975202Y-60858410D01*
X183989660Y-60857700D01*
X184334660Y-60857700D01*
X184349118Y-60858410D01*
X184349118Y-60858410D01*
G37*
D23*
X184162160Y-61152700D03*
G04 #@! TD*
D10*
G04 #@! TO.C,D2*
G36*
X180031118Y-60858410D02*
X180045436Y-60860534D01*
X180059477Y-60864051D01*
X180073106Y-60868928D01*
X180086191Y-60875117D01*
X180098607Y-60882558D01*
X180110233Y-60891181D01*
X180120958Y-60900902D01*
X180130679Y-60911627D01*
X180139302Y-60923253D01*
X180146743Y-60935669D01*
X180152932Y-60948754D01*
X180157809Y-60962383D01*
X180161326Y-60976424D01*
X180163450Y-60990742D01*
X180164160Y-61005200D01*
X180164160Y-61300200D01*
X180163450Y-61314658D01*
X180161326Y-61328976D01*
X180157809Y-61343017D01*
X180152932Y-61356646D01*
X180146743Y-61369731D01*
X180139302Y-61382147D01*
X180130679Y-61393773D01*
X180120958Y-61404498D01*
X180110233Y-61414219D01*
X180098607Y-61422842D01*
X180086191Y-61430283D01*
X180073106Y-61436472D01*
X180059477Y-61441349D01*
X180045436Y-61444866D01*
X180031118Y-61446990D01*
X180016660Y-61447700D01*
X179671660Y-61447700D01*
X179657202Y-61446990D01*
X179642884Y-61444866D01*
X179628843Y-61441349D01*
X179615214Y-61436472D01*
X179602129Y-61430283D01*
X179589713Y-61422842D01*
X179578087Y-61414219D01*
X179567362Y-61404498D01*
X179557641Y-61393773D01*
X179549018Y-61382147D01*
X179541577Y-61369731D01*
X179535388Y-61356646D01*
X179530511Y-61343017D01*
X179526994Y-61328976D01*
X179524870Y-61314658D01*
X179524160Y-61300200D01*
X179524160Y-61005200D01*
X179524870Y-60990742D01*
X179526994Y-60976424D01*
X179530511Y-60962383D01*
X179535388Y-60948754D01*
X179541577Y-60935669D01*
X179549018Y-60923253D01*
X179557641Y-60911627D01*
X179567362Y-60900902D01*
X179578087Y-60891181D01*
X179589713Y-60882558D01*
X179602129Y-60875117D01*
X179615214Y-60868928D01*
X179628843Y-60864051D01*
X179642884Y-60860534D01*
X179657202Y-60858410D01*
X179671660Y-60857700D01*
X180016660Y-60857700D01*
X180031118Y-60858410D01*
X180031118Y-60858410D01*
G37*
D23*
X179844160Y-61152700D03*
D10*
G36*
X180031118Y-59888410D02*
X180045436Y-59890534D01*
X180059477Y-59894051D01*
X180073106Y-59898928D01*
X180086191Y-59905117D01*
X180098607Y-59912558D01*
X180110233Y-59921181D01*
X180120958Y-59930902D01*
X180130679Y-59941627D01*
X180139302Y-59953253D01*
X180146743Y-59965669D01*
X180152932Y-59978754D01*
X180157809Y-59992383D01*
X180161326Y-60006424D01*
X180163450Y-60020742D01*
X180164160Y-60035200D01*
X180164160Y-60330200D01*
X180163450Y-60344658D01*
X180161326Y-60358976D01*
X180157809Y-60373017D01*
X180152932Y-60386646D01*
X180146743Y-60399731D01*
X180139302Y-60412147D01*
X180130679Y-60423773D01*
X180120958Y-60434498D01*
X180110233Y-60444219D01*
X180098607Y-60452842D01*
X180086191Y-60460283D01*
X180073106Y-60466472D01*
X180059477Y-60471349D01*
X180045436Y-60474866D01*
X180031118Y-60476990D01*
X180016660Y-60477700D01*
X179671660Y-60477700D01*
X179657202Y-60476990D01*
X179642884Y-60474866D01*
X179628843Y-60471349D01*
X179615214Y-60466472D01*
X179602129Y-60460283D01*
X179589713Y-60452842D01*
X179578087Y-60444219D01*
X179567362Y-60434498D01*
X179557641Y-60423773D01*
X179549018Y-60412147D01*
X179541577Y-60399731D01*
X179535388Y-60386646D01*
X179530511Y-60373017D01*
X179526994Y-60358976D01*
X179524870Y-60344658D01*
X179524160Y-60330200D01*
X179524160Y-60035200D01*
X179524870Y-60020742D01*
X179526994Y-60006424D01*
X179530511Y-59992383D01*
X179535388Y-59978754D01*
X179541577Y-59965669D01*
X179549018Y-59953253D01*
X179557641Y-59941627D01*
X179567362Y-59930902D01*
X179578087Y-59921181D01*
X179589713Y-59912558D01*
X179602129Y-59905117D01*
X179615214Y-59898928D01*
X179628843Y-59894051D01*
X179642884Y-59890534D01*
X179657202Y-59888410D01*
X179671660Y-59887700D01*
X180016660Y-59887700D01*
X180031118Y-59888410D01*
X180031118Y-59888410D01*
G37*
D23*
X179844160Y-60182700D03*
G04 #@! TD*
D10*
G04 #@! TO.C,R1*
G36*
X175967118Y-59888410D02*
X175981436Y-59890534D01*
X175995477Y-59894051D01*
X176009106Y-59898928D01*
X176022191Y-59905117D01*
X176034607Y-59912558D01*
X176046233Y-59921181D01*
X176056958Y-59930902D01*
X176066679Y-59941627D01*
X176075302Y-59953253D01*
X176082743Y-59965669D01*
X176088932Y-59978754D01*
X176093809Y-59992383D01*
X176097326Y-60006424D01*
X176099450Y-60020742D01*
X176100160Y-60035200D01*
X176100160Y-60330200D01*
X176099450Y-60344658D01*
X176097326Y-60358976D01*
X176093809Y-60373017D01*
X176088932Y-60386646D01*
X176082743Y-60399731D01*
X176075302Y-60412147D01*
X176066679Y-60423773D01*
X176056958Y-60434498D01*
X176046233Y-60444219D01*
X176034607Y-60452842D01*
X176022191Y-60460283D01*
X176009106Y-60466472D01*
X175995477Y-60471349D01*
X175981436Y-60474866D01*
X175967118Y-60476990D01*
X175952660Y-60477700D01*
X175607660Y-60477700D01*
X175593202Y-60476990D01*
X175578884Y-60474866D01*
X175564843Y-60471349D01*
X175551214Y-60466472D01*
X175538129Y-60460283D01*
X175525713Y-60452842D01*
X175514087Y-60444219D01*
X175503362Y-60434498D01*
X175493641Y-60423773D01*
X175485018Y-60412147D01*
X175477577Y-60399731D01*
X175471388Y-60386646D01*
X175466511Y-60373017D01*
X175462994Y-60358976D01*
X175460870Y-60344658D01*
X175460160Y-60330200D01*
X175460160Y-60035200D01*
X175460870Y-60020742D01*
X175462994Y-60006424D01*
X175466511Y-59992383D01*
X175471388Y-59978754D01*
X175477577Y-59965669D01*
X175485018Y-59953253D01*
X175493641Y-59941627D01*
X175503362Y-59930902D01*
X175514087Y-59921181D01*
X175525713Y-59912558D01*
X175538129Y-59905117D01*
X175551214Y-59898928D01*
X175564843Y-59894051D01*
X175578884Y-59890534D01*
X175593202Y-59888410D01*
X175607660Y-59887700D01*
X175952660Y-59887700D01*
X175967118Y-59888410D01*
X175967118Y-59888410D01*
G37*
D23*
X175780160Y-60182700D03*
D10*
G36*
X175967118Y-60858410D02*
X175981436Y-60860534D01*
X175995477Y-60864051D01*
X176009106Y-60868928D01*
X176022191Y-60875117D01*
X176034607Y-60882558D01*
X176046233Y-60891181D01*
X176056958Y-60900902D01*
X176066679Y-60911627D01*
X176075302Y-60923253D01*
X176082743Y-60935669D01*
X176088932Y-60948754D01*
X176093809Y-60962383D01*
X176097326Y-60976424D01*
X176099450Y-60990742D01*
X176100160Y-61005200D01*
X176100160Y-61300200D01*
X176099450Y-61314658D01*
X176097326Y-61328976D01*
X176093809Y-61343017D01*
X176088932Y-61356646D01*
X176082743Y-61369731D01*
X176075302Y-61382147D01*
X176066679Y-61393773D01*
X176056958Y-61404498D01*
X176046233Y-61414219D01*
X176034607Y-61422842D01*
X176022191Y-61430283D01*
X176009106Y-61436472D01*
X175995477Y-61441349D01*
X175981436Y-61444866D01*
X175967118Y-61446990D01*
X175952660Y-61447700D01*
X175607660Y-61447700D01*
X175593202Y-61446990D01*
X175578884Y-61444866D01*
X175564843Y-61441349D01*
X175551214Y-61436472D01*
X175538129Y-61430283D01*
X175525713Y-61422842D01*
X175514087Y-61414219D01*
X175503362Y-61404498D01*
X175493641Y-61393773D01*
X175485018Y-61382147D01*
X175477577Y-61369731D01*
X175471388Y-61356646D01*
X175466511Y-61343017D01*
X175462994Y-61328976D01*
X175460870Y-61314658D01*
X175460160Y-61300200D01*
X175460160Y-61005200D01*
X175460870Y-60990742D01*
X175462994Y-60976424D01*
X175466511Y-60962383D01*
X175471388Y-60948754D01*
X175477577Y-60935669D01*
X175485018Y-60923253D01*
X175493641Y-60911627D01*
X175503362Y-60900902D01*
X175514087Y-60891181D01*
X175525713Y-60882558D01*
X175538129Y-60875117D01*
X175551214Y-60868928D01*
X175564843Y-60864051D01*
X175578884Y-60860534D01*
X175593202Y-60858410D01*
X175607660Y-60857700D01*
X175952660Y-60857700D01*
X175967118Y-60858410D01*
X175967118Y-60858410D01*
G37*
D23*
X175780160Y-61152700D03*
G04 #@! TD*
D10*
G04 #@! TO.C,R2*
G36*
X195525118Y-36266410D02*
X195539436Y-36268534D01*
X195553477Y-36272051D01*
X195567106Y-36276928D01*
X195580191Y-36283117D01*
X195592607Y-36290558D01*
X195604233Y-36299181D01*
X195614958Y-36308902D01*
X195624679Y-36319627D01*
X195633302Y-36331253D01*
X195640743Y-36343669D01*
X195646932Y-36356754D01*
X195651809Y-36370383D01*
X195655326Y-36384424D01*
X195657450Y-36398742D01*
X195658160Y-36413200D01*
X195658160Y-36708200D01*
X195657450Y-36722658D01*
X195655326Y-36736976D01*
X195651809Y-36751017D01*
X195646932Y-36764646D01*
X195640743Y-36777731D01*
X195633302Y-36790147D01*
X195624679Y-36801773D01*
X195614958Y-36812498D01*
X195604233Y-36822219D01*
X195592607Y-36830842D01*
X195580191Y-36838283D01*
X195567106Y-36844472D01*
X195553477Y-36849349D01*
X195539436Y-36852866D01*
X195525118Y-36854990D01*
X195510660Y-36855700D01*
X195165660Y-36855700D01*
X195151202Y-36854990D01*
X195136884Y-36852866D01*
X195122843Y-36849349D01*
X195109214Y-36844472D01*
X195096129Y-36838283D01*
X195083713Y-36830842D01*
X195072087Y-36822219D01*
X195061362Y-36812498D01*
X195051641Y-36801773D01*
X195043018Y-36790147D01*
X195035577Y-36777731D01*
X195029388Y-36764646D01*
X195024511Y-36751017D01*
X195020994Y-36736976D01*
X195018870Y-36722658D01*
X195018160Y-36708200D01*
X195018160Y-36413200D01*
X195018870Y-36398742D01*
X195020994Y-36384424D01*
X195024511Y-36370383D01*
X195029388Y-36356754D01*
X195035577Y-36343669D01*
X195043018Y-36331253D01*
X195051641Y-36319627D01*
X195061362Y-36308902D01*
X195072087Y-36299181D01*
X195083713Y-36290558D01*
X195096129Y-36283117D01*
X195109214Y-36276928D01*
X195122843Y-36272051D01*
X195136884Y-36268534D01*
X195151202Y-36266410D01*
X195165660Y-36265700D01*
X195510660Y-36265700D01*
X195525118Y-36266410D01*
X195525118Y-36266410D01*
G37*
D23*
X195338160Y-36560700D03*
D10*
G36*
X195525118Y-37236410D02*
X195539436Y-37238534D01*
X195553477Y-37242051D01*
X195567106Y-37246928D01*
X195580191Y-37253117D01*
X195592607Y-37260558D01*
X195604233Y-37269181D01*
X195614958Y-37278902D01*
X195624679Y-37289627D01*
X195633302Y-37301253D01*
X195640743Y-37313669D01*
X195646932Y-37326754D01*
X195651809Y-37340383D01*
X195655326Y-37354424D01*
X195657450Y-37368742D01*
X195658160Y-37383200D01*
X195658160Y-37678200D01*
X195657450Y-37692658D01*
X195655326Y-37706976D01*
X195651809Y-37721017D01*
X195646932Y-37734646D01*
X195640743Y-37747731D01*
X195633302Y-37760147D01*
X195624679Y-37771773D01*
X195614958Y-37782498D01*
X195604233Y-37792219D01*
X195592607Y-37800842D01*
X195580191Y-37808283D01*
X195567106Y-37814472D01*
X195553477Y-37819349D01*
X195539436Y-37822866D01*
X195525118Y-37824990D01*
X195510660Y-37825700D01*
X195165660Y-37825700D01*
X195151202Y-37824990D01*
X195136884Y-37822866D01*
X195122843Y-37819349D01*
X195109214Y-37814472D01*
X195096129Y-37808283D01*
X195083713Y-37800842D01*
X195072087Y-37792219D01*
X195061362Y-37782498D01*
X195051641Y-37771773D01*
X195043018Y-37760147D01*
X195035577Y-37747731D01*
X195029388Y-37734646D01*
X195024511Y-37721017D01*
X195020994Y-37706976D01*
X195018870Y-37692658D01*
X195018160Y-37678200D01*
X195018160Y-37383200D01*
X195018870Y-37368742D01*
X195020994Y-37354424D01*
X195024511Y-37340383D01*
X195029388Y-37326754D01*
X195035577Y-37313669D01*
X195043018Y-37301253D01*
X195051641Y-37289627D01*
X195061362Y-37278902D01*
X195072087Y-37269181D01*
X195083713Y-37260558D01*
X195096129Y-37253117D01*
X195109214Y-37246928D01*
X195122843Y-37242051D01*
X195136884Y-37238534D01*
X195151202Y-37236410D01*
X195165660Y-37235700D01*
X195510660Y-37235700D01*
X195525118Y-37236410D01*
X195525118Y-37236410D01*
G37*
D23*
X195338160Y-37530700D03*
G04 #@! TD*
D10*
G04 #@! TO.C,R3*
G36*
X188667118Y-60858410D02*
X188681436Y-60860534D01*
X188695477Y-60864051D01*
X188709106Y-60868928D01*
X188722191Y-60875117D01*
X188734607Y-60882558D01*
X188746233Y-60891181D01*
X188756958Y-60900902D01*
X188766679Y-60911627D01*
X188775302Y-60923253D01*
X188782743Y-60935669D01*
X188788932Y-60948754D01*
X188793809Y-60962383D01*
X188797326Y-60976424D01*
X188799450Y-60990742D01*
X188800160Y-61005200D01*
X188800160Y-61300200D01*
X188799450Y-61314658D01*
X188797326Y-61328976D01*
X188793809Y-61343017D01*
X188788932Y-61356646D01*
X188782743Y-61369731D01*
X188775302Y-61382147D01*
X188766679Y-61393773D01*
X188756958Y-61404498D01*
X188746233Y-61414219D01*
X188734607Y-61422842D01*
X188722191Y-61430283D01*
X188709106Y-61436472D01*
X188695477Y-61441349D01*
X188681436Y-61444866D01*
X188667118Y-61446990D01*
X188652660Y-61447700D01*
X188307660Y-61447700D01*
X188293202Y-61446990D01*
X188278884Y-61444866D01*
X188264843Y-61441349D01*
X188251214Y-61436472D01*
X188238129Y-61430283D01*
X188225713Y-61422842D01*
X188214087Y-61414219D01*
X188203362Y-61404498D01*
X188193641Y-61393773D01*
X188185018Y-61382147D01*
X188177577Y-61369731D01*
X188171388Y-61356646D01*
X188166511Y-61343017D01*
X188162994Y-61328976D01*
X188160870Y-61314658D01*
X188160160Y-61300200D01*
X188160160Y-61005200D01*
X188160870Y-60990742D01*
X188162994Y-60976424D01*
X188166511Y-60962383D01*
X188171388Y-60948754D01*
X188177577Y-60935669D01*
X188185018Y-60923253D01*
X188193641Y-60911627D01*
X188203362Y-60900902D01*
X188214087Y-60891181D01*
X188225713Y-60882558D01*
X188238129Y-60875117D01*
X188251214Y-60868928D01*
X188264843Y-60864051D01*
X188278884Y-60860534D01*
X188293202Y-60858410D01*
X188307660Y-60857700D01*
X188652660Y-60857700D01*
X188667118Y-60858410D01*
X188667118Y-60858410D01*
G37*
D23*
X188480160Y-61152700D03*
D10*
G36*
X188667118Y-59888410D02*
X188681436Y-59890534D01*
X188695477Y-59894051D01*
X188709106Y-59898928D01*
X188722191Y-59905117D01*
X188734607Y-59912558D01*
X188746233Y-59921181D01*
X188756958Y-59930902D01*
X188766679Y-59941627D01*
X188775302Y-59953253D01*
X188782743Y-59965669D01*
X188788932Y-59978754D01*
X188793809Y-59992383D01*
X188797326Y-60006424D01*
X188799450Y-60020742D01*
X188800160Y-60035200D01*
X188800160Y-60330200D01*
X188799450Y-60344658D01*
X188797326Y-60358976D01*
X188793809Y-60373017D01*
X188788932Y-60386646D01*
X188782743Y-60399731D01*
X188775302Y-60412147D01*
X188766679Y-60423773D01*
X188756958Y-60434498D01*
X188746233Y-60444219D01*
X188734607Y-60452842D01*
X188722191Y-60460283D01*
X188709106Y-60466472D01*
X188695477Y-60471349D01*
X188681436Y-60474866D01*
X188667118Y-60476990D01*
X188652660Y-60477700D01*
X188307660Y-60477700D01*
X188293202Y-60476990D01*
X188278884Y-60474866D01*
X188264843Y-60471349D01*
X188251214Y-60466472D01*
X188238129Y-60460283D01*
X188225713Y-60452842D01*
X188214087Y-60444219D01*
X188203362Y-60434498D01*
X188193641Y-60423773D01*
X188185018Y-60412147D01*
X188177577Y-60399731D01*
X188171388Y-60386646D01*
X188166511Y-60373017D01*
X188162994Y-60358976D01*
X188160870Y-60344658D01*
X188160160Y-60330200D01*
X188160160Y-60035200D01*
X188160870Y-60020742D01*
X188162994Y-60006424D01*
X188166511Y-59992383D01*
X188171388Y-59978754D01*
X188177577Y-59965669D01*
X188185018Y-59953253D01*
X188193641Y-59941627D01*
X188203362Y-59930902D01*
X188214087Y-59921181D01*
X188225713Y-59912558D01*
X188238129Y-59905117D01*
X188251214Y-59898928D01*
X188264843Y-59894051D01*
X188278884Y-59890534D01*
X188293202Y-59888410D01*
X188307660Y-59887700D01*
X188652660Y-59887700D01*
X188667118Y-59888410D01*
X188667118Y-59888410D01*
G37*
D23*
X188480160Y-60182700D03*
G04 #@! TD*
D10*
G04 #@! TO.C,R4*
G36*
X192731118Y-37236410D02*
X192745436Y-37238534D01*
X192759477Y-37242051D01*
X192773106Y-37246928D01*
X192786191Y-37253117D01*
X192798607Y-37260558D01*
X192810233Y-37269181D01*
X192820958Y-37278902D01*
X192830679Y-37289627D01*
X192839302Y-37301253D01*
X192846743Y-37313669D01*
X192852932Y-37326754D01*
X192857809Y-37340383D01*
X192861326Y-37354424D01*
X192863450Y-37368742D01*
X192864160Y-37383200D01*
X192864160Y-37678200D01*
X192863450Y-37692658D01*
X192861326Y-37706976D01*
X192857809Y-37721017D01*
X192852932Y-37734646D01*
X192846743Y-37747731D01*
X192839302Y-37760147D01*
X192830679Y-37771773D01*
X192820958Y-37782498D01*
X192810233Y-37792219D01*
X192798607Y-37800842D01*
X192786191Y-37808283D01*
X192773106Y-37814472D01*
X192759477Y-37819349D01*
X192745436Y-37822866D01*
X192731118Y-37824990D01*
X192716660Y-37825700D01*
X192371660Y-37825700D01*
X192357202Y-37824990D01*
X192342884Y-37822866D01*
X192328843Y-37819349D01*
X192315214Y-37814472D01*
X192302129Y-37808283D01*
X192289713Y-37800842D01*
X192278087Y-37792219D01*
X192267362Y-37782498D01*
X192257641Y-37771773D01*
X192249018Y-37760147D01*
X192241577Y-37747731D01*
X192235388Y-37734646D01*
X192230511Y-37721017D01*
X192226994Y-37706976D01*
X192224870Y-37692658D01*
X192224160Y-37678200D01*
X192224160Y-37383200D01*
X192224870Y-37368742D01*
X192226994Y-37354424D01*
X192230511Y-37340383D01*
X192235388Y-37326754D01*
X192241577Y-37313669D01*
X192249018Y-37301253D01*
X192257641Y-37289627D01*
X192267362Y-37278902D01*
X192278087Y-37269181D01*
X192289713Y-37260558D01*
X192302129Y-37253117D01*
X192315214Y-37246928D01*
X192328843Y-37242051D01*
X192342884Y-37238534D01*
X192357202Y-37236410D01*
X192371660Y-37235700D01*
X192716660Y-37235700D01*
X192731118Y-37236410D01*
X192731118Y-37236410D01*
G37*
D23*
X192544160Y-37530700D03*
D10*
G36*
X192731118Y-36266410D02*
X192745436Y-36268534D01*
X192759477Y-36272051D01*
X192773106Y-36276928D01*
X192786191Y-36283117D01*
X192798607Y-36290558D01*
X192810233Y-36299181D01*
X192820958Y-36308902D01*
X192830679Y-36319627D01*
X192839302Y-36331253D01*
X192846743Y-36343669D01*
X192852932Y-36356754D01*
X192857809Y-36370383D01*
X192861326Y-36384424D01*
X192863450Y-36398742D01*
X192864160Y-36413200D01*
X192864160Y-36708200D01*
X192863450Y-36722658D01*
X192861326Y-36736976D01*
X192857809Y-36751017D01*
X192852932Y-36764646D01*
X192846743Y-36777731D01*
X192839302Y-36790147D01*
X192830679Y-36801773D01*
X192820958Y-36812498D01*
X192810233Y-36822219D01*
X192798607Y-36830842D01*
X192786191Y-36838283D01*
X192773106Y-36844472D01*
X192759477Y-36849349D01*
X192745436Y-36852866D01*
X192731118Y-36854990D01*
X192716660Y-36855700D01*
X192371660Y-36855700D01*
X192357202Y-36854990D01*
X192342884Y-36852866D01*
X192328843Y-36849349D01*
X192315214Y-36844472D01*
X192302129Y-36838283D01*
X192289713Y-36830842D01*
X192278087Y-36822219D01*
X192267362Y-36812498D01*
X192257641Y-36801773D01*
X192249018Y-36790147D01*
X192241577Y-36777731D01*
X192235388Y-36764646D01*
X192230511Y-36751017D01*
X192226994Y-36736976D01*
X192224870Y-36722658D01*
X192224160Y-36708200D01*
X192224160Y-36413200D01*
X192224870Y-36398742D01*
X192226994Y-36384424D01*
X192230511Y-36370383D01*
X192235388Y-36356754D01*
X192241577Y-36343669D01*
X192249018Y-36331253D01*
X192257641Y-36319627D01*
X192267362Y-36308902D01*
X192278087Y-36299181D01*
X192289713Y-36290558D01*
X192302129Y-36283117D01*
X192315214Y-36276928D01*
X192328843Y-36272051D01*
X192342884Y-36268534D01*
X192357202Y-36266410D01*
X192371660Y-36265700D01*
X192716660Y-36265700D01*
X192731118Y-36266410D01*
X192731118Y-36266410D01*
G37*
D23*
X192544160Y-36560700D03*
G04 #@! TD*
D26*
G04 #@! TO.C,U1*
X191294160Y-45016700D03*
X191794160Y-45016700D03*
X192294160Y-45016700D03*
X192794160Y-45016700D03*
X193294160Y-45016700D03*
X193794160Y-45016700D03*
D27*
X194419160Y-44391700D03*
X194419160Y-43891700D03*
X194419160Y-43391700D03*
X194419160Y-42891700D03*
X194419160Y-42391700D03*
X194419160Y-41891700D03*
D26*
X193794160Y-41266700D03*
X193294160Y-41266700D03*
X192794160Y-41266700D03*
X192294160Y-41266700D03*
X191794160Y-41266700D03*
X191294160Y-41266700D03*
D27*
X190669160Y-41891700D03*
X190669160Y-42391700D03*
X190669160Y-42891700D03*
X190669160Y-43391700D03*
X190669160Y-43891700D03*
X190669160Y-44391700D03*
G04 #@! TD*
D10*
G04 #@! TO.C,C1*
G36*
X139935779Y-135076144D02*
X139958834Y-135079563D01*
X139981443Y-135085227D01*
X140003387Y-135093079D01*
X140024457Y-135103044D01*
X140044448Y-135115026D01*
X140063168Y-135128910D01*
X140080438Y-135144562D01*
X140096090Y-135161832D01*
X140109974Y-135180552D01*
X140121956Y-135200543D01*
X140131921Y-135221613D01*
X140139773Y-135243557D01*
X140145437Y-135266166D01*
X140148856Y-135289221D01*
X140150000Y-135312500D01*
X140150000Y-135787500D01*
X140148856Y-135810779D01*
X140145437Y-135833834D01*
X140139773Y-135856443D01*
X140131921Y-135878387D01*
X140121956Y-135899457D01*
X140109974Y-135919448D01*
X140096090Y-135938168D01*
X140080438Y-135955438D01*
X140063168Y-135971090D01*
X140044448Y-135984974D01*
X140024457Y-135996956D01*
X140003387Y-136006921D01*
X139981443Y-136014773D01*
X139958834Y-136020437D01*
X139935779Y-136023856D01*
X139912500Y-136025000D01*
X139337500Y-136025000D01*
X139314221Y-136023856D01*
X139291166Y-136020437D01*
X139268557Y-136014773D01*
X139246613Y-136006921D01*
X139225543Y-135996956D01*
X139205552Y-135984974D01*
X139186832Y-135971090D01*
X139169562Y-135955438D01*
X139153910Y-135938168D01*
X139140026Y-135919448D01*
X139128044Y-135899457D01*
X139118079Y-135878387D01*
X139110227Y-135856443D01*
X139104563Y-135833834D01*
X139101144Y-135810779D01*
X139100000Y-135787500D01*
X139100000Y-135312500D01*
X139101144Y-135289221D01*
X139104563Y-135266166D01*
X139110227Y-135243557D01*
X139118079Y-135221613D01*
X139128044Y-135200543D01*
X139140026Y-135180552D01*
X139153910Y-135161832D01*
X139169562Y-135144562D01*
X139186832Y-135128910D01*
X139205552Y-135115026D01*
X139225543Y-135103044D01*
X139246613Y-135093079D01*
X139268557Y-135085227D01*
X139291166Y-135079563D01*
X139314221Y-135076144D01*
X139337500Y-135075000D01*
X139912500Y-135075000D01*
X139935779Y-135076144D01*
X139935779Y-135076144D01*
G37*
D28*
X139625000Y-135550000D03*
D10*
G36*
X138185779Y-135076144D02*
X138208834Y-135079563D01*
X138231443Y-135085227D01*
X138253387Y-135093079D01*
X138274457Y-135103044D01*
X138294448Y-135115026D01*
X138313168Y-135128910D01*
X138330438Y-135144562D01*
X138346090Y-135161832D01*
X138359974Y-135180552D01*
X138371956Y-135200543D01*
X138381921Y-135221613D01*
X138389773Y-135243557D01*
X138395437Y-135266166D01*
X138398856Y-135289221D01*
X138400000Y-135312500D01*
X138400000Y-135787500D01*
X138398856Y-135810779D01*
X138395437Y-135833834D01*
X138389773Y-135856443D01*
X138381921Y-135878387D01*
X138371956Y-135899457D01*
X138359974Y-135919448D01*
X138346090Y-135938168D01*
X138330438Y-135955438D01*
X138313168Y-135971090D01*
X138294448Y-135984974D01*
X138274457Y-135996956D01*
X138253387Y-136006921D01*
X138231443Y-136014773D01*
X138208834Y-136020437D01*
X138185779Y-136023856D01*
X138162500Y-136025000D01*
X137587500Y-136025000D01*
X137564221Y-136023856D01*
X137541166Y-136020437D01*
X137518557Y-136014773D01*
X137496613Y-136006921D01*
X137475543Y-135996956D01*
X137455552Y-135984974D01*
X137436832Y-135971090D01*
X137419562Y-135955438D01*
X137403910Y-135938168D01*
X137390026Y-135919448D01*
X137378044Y-135899457D01*
X137368079Y-135878387D01*
X137360227Y-135856443D01*
X137354563Y-135833834D01*
X137351144Y-135810779D01*
X137350000Y-135787500D01*
X137350000Y-135312500D01*
X137351144Y-135289221D01*
X137354563Y-135266166D01*
X137360227Y-135243557D01*
X137368079Y-135221613D01*
X137378044Y-135200543D01*
X137390026Y-135180552D01*
X137403910Y-135161832D01*
X137419562Y-135144562D01*
X137436832Y-135128910D01*
X137455552Y-135115026D01*
X137475543Y-135103044D01*
X137496613Y-135093079D01*
X137518557Y-135085227D01*
X137541166Y-135079563D01*
X137564221Y-135076144D01*
X137587500Y-135075000D01*
X138162500Y-135075000D01*
X138185779Y-135076144D01*
X138185779Y-135076144D01*
G37*
D28*
X137875000Y-135550000D03*
G04 #@! TD*
D10*
G04 #@! TO.C,C2*
G36*
X138410779Y-137251144D02*
X138433834Y-137254563D01*
X138456443Y-137260227D01*
X138478387Y-137268079D01*
X138499457Y-137278044D01*
X138519448Y-137290026D01*
X138538168Y-137303910D01*
X138555438Y-137319562D01*
X138571090Y-137336832D01*
X138584974Y-137355552D01*
X138596956Y-137375543D01*
X138606921Y-137396613D01*
X138614773Y-137418557D01*
X138620437Y-137441166D01*
X138623856Y-137464221D01*
X138625000Y-137487500D01*
X138625000Y-137962500D01*
X138623856Y-137985779D01*
X138620437Y-138008834D01*
X138614773Y-138031443D01*
X138606921Y-138053387D01*
X138596956Y-138074457D01*
X138584974Y-138094448D01*
X138571090Y-138113168D01*
X138555438Y-138130438D01*
X138538168Y-138146090D01*
X138519448Y-138159974D01*
X138499457Y-138171956D01*
X138478387Y-138181921D01*
X138456443Y-138189773D01*
X138433834Y-138195437D01*
X138410779Y-138198856D01*
X138387500Y-138200000D01*
X137812500Y-138200000D01*
X137789221Y-138198856D01*
X137766166Y-138195437D01*
X137743557Y-138189773D01*
X137721613Y-138181921D01*
X137700543Y-138171956D01*
X137680552Y-138159974D01*
X137661832Y-138146090D01*
X137644562Y-138130438D01*
X137628910Y-138113168D01*
X137615026Y-138094448D01*
X137603044Y-138074457D01*
X137593079Y-138053387D01*
X137585227Y-138031443D01*
X137579563Y-138008834D01*
X137576144Y-137985779D01*
X137575000Y-137962500D01*
X137575000Y-137487500D01*
X137576144Y-137464221D01*
X137579563Y-137441166D01*
X137585227Y-137418557D01*
X137593079Y-137396613D01*
X137603044Y-137375543D01*
X137615026Y-137355552D01*
X137628910Y-137336832D01*
X137644562Y-137319562D01*
X137661832Y-137303910D01*
X137680552Y-137290026D01*
X137700543Y-137278044D01*
X137721613Y-137268079D01*
X137743557Y-137260227D01*
X137766166Y-137254563D01*
X137789221Y-137251144D01*
X137812500Y-137250000D01*
X138387500Y-137250000D01*
X138410779Y-137251144D01*
X138410779Y-137251144D01*
G37*
D28*
X138100000Y-137725000D03*
D10*
G36*
X136660779Y-137251144D02*
X136683834Y-137254563D01*
X136706443Y-137260227D01*
X136728387Y-137268079D01*
X136749457Y-137278044D01*
X136769448Y-137290026D01*
X136788168Y-137303910D01*
X136805438Y-137319562D01*
X136821090Y-137336832D01*
X136834974Y-137355552D01*
X136846956Y-137375543D01*
X136856921Y-137396613D01*
X136864773Y-137418557D01*
X136870437Y-137441166D01*
X136873856Y-137464221D01*
X136875000Y-137487500D01*
X136875000Y-137962500D01*
X136873856Y-137985779D01*
X136870437Y-138008834D01*
X136864773Y-138031443D01*
X136856921Y-138053387D01*
X136846956Y-138074457D01*
X136834974Y-138094448D01*
X136821090Y-138113168D01*
X136805438Y-138130438D01*
X136788168Y-138146090D01*
X136769448Y-138159974D01*
X136749457Y-138171956D01*
X136728387Y-138181921D01*
X136706443Y-138189773D01*
X136683834Y-138195437D01*
X136660779Y-138198856D01*
X136637500Y-138200000D01*
X136062500Y-138200000D01*
X136039221Y-138198856D01*
X136016166Y-138195437D01*
X135993557Y-138189773D01*
X135971613Y-138181921D01*
X135950543Y-138171956D01*
X135930552Y-138159974D01*
X135911832Y-138146090D01*
X135894562Y-138130438D01*
X135878910Y-138113168D01*
X135865026Y-138094448D01*
X135853044Y-138074457D01*
X135843079Y-138053387D01*
X135835227Y-138031443D01*
X135829563Y-138008834D01*
X135826144Y-137985779D01*
X135825000Y-137962500D01*
X135825000Y-137487500D01*
X135826144Y-137464221D01*
X135829563Y-137441166D01*
X135835227Y-137418557D01*
X135843079Y-137396613D01*
X135853044Y-137375543D01*
X135865026Y-137355552D01*
X135878910Y-137336832D01*
X135894562Y-137319562D01*
X135911832Y-137303910D01*
X135930552Y-137290026D01*
X135950543Y-137278044D01*
X135971613Y-137268079D01*
X135993557Y-137260227D01*
X136016166Y-137254563D01*
X136039221Y-137251144D01*
X136062500Y-137250000D01*
X136637500Y-137250000D01*
X136660779Y-137251144D01*
X136660779Y-137251144D01*
G37*
D28*
X136350000Y-137725000D03*
G04 #@! TD*
D10*
G04 #@! TO.C,C3*
G36*
X133085779Y-129826144D02*
X133108834Y-129829563D01*
X133131443Y-129835227D01*
X133153387Y-129843079D01*
X133174457Y-129853044D01*
X133194448Y-129865026D01*
X133213168Y-129878910D01*
X133230438Y-129894562D01*
X133246090Y-129911832D01*
X133259974Y-129930552D01*
X133271956Y-129950543D01*
X133281921Y-129971613D01*
X133289773Y-129993557D01*
X133295437Y-130016166D01*
X133298856Y-130039221D01*
X133300000Y-130062500D01*
X133300000Y-130637500D01*
X133298856Y-130660779D01*
X133295437Y-130683834D01*
X133289773Y-130706443D01*
X133281921Y-130728387D01*
X133271956Y-130749457D01*
X133259974Y-130769448D01*
X133246090Y-130788168D01*
X133230438Y-130805438D01*
X133213168Y-130821090D01*
X133194448Y-130834974D01*
X133174457Y-130846956D01*
X133153387Y-130856921D01*
X133131443Y-130864773D01*
X133108834Y-130870437D01*
X133085779Y-130873856D01*
X133062500Y-130875000D01*
X132587500Y-130875000D01*
X132564221Y-130873856D01*
X132541166Y-130870437D01*
X132518557Y-130864773D01*
X132496613Y-130856921D01*
X132475543Y-130846956D01*
X132455552Y-130834974D01*
X132436832Y-130821090D01*
X132419562Y-130805438D01*
X132403910Y-130788168D01*
X132390026Y-130769448D01*
X132378044Y-130749457D01*
X132368079Y-130728387D01*
X132360227Y-130706443D01*
X132354563Y-130683834D01*
X132351144Y-130660779D01*
X132350000Y-130637500D01*
X132350000Y-130062500D01*
X132351144Y-130039221D01*
X132354563Y-130016166D01*
X132360227Y-129993557D01*
X132368079Y-129971613D01*
X132378044Y-129950543D01*
X132390026Y-129930552D01*
X132403910Y-129911832D01*
X132419562Y-129894562D01*
X132436832Y-129878910D01*
X132455552Y-129865026D01*
X132475543Y-129853044D01*
X132496613Y-129843079D01*
X132518557Y-129835227D01*
X132541166Y-129829563D01*
X132564221Y-129826144D01*
X132587500Y-129825000D01*
X133062500Y-129825000D01*
X133085779Y-129826144D01*
X133085779Y-129826144D01*
G37*
D28*
X132825000Y-130350000D03*
D10*
G36*
X133085779Y-131576144D02*
X133108834Y-131579563D01*
X133131443Y-131585227D01*
X133153387Y-131593079D01*
X133174457Y-131603044D01*
X133194448Y-131615026D01*
X133213168Y-131628910D01*
X133230438Y-131644562D01*
X133246090Y-131661832D01*
X133259974Y-131680552D01*
X133271956Y-131700543D01*
X133281921Y-131721613D01*
X133289773Y-131743557D01*
X133295437Y-131766166D01*
X133298856Y-131789221D01*
X133300000Y-131812500D01*
X133300000Y-132387500D01*
X133298856Y-132410779D01*
X133295437Y-132433834D01*
X133289773Y-132456443D01*
X133281921Y-132478387D01*
X133271956Y-132499457D01*
X133259974Y-132519448D01*
X133246090Y-132538168D01*
X133230438Y-132555438D01*
X133213168Y-132571090D01*
X133194448Y-132584974D01*
X133174457Y-132596956D01*
X133153387Y-132606921D01*
X133131443Y-132614773D01*
X133108834Y-132620437D01*
X133085779Y-132623856D01*
X133062500Y-132625000D01*
X132587500Y-132625000D01*
X132564221Y-132623856D01*
X132541166Y-132620437D01*
X132518557Y-132614773D01*
X132496613Y-132606921D01*
X132475543Y-132596956D01*
X132455552Y-132584974D01*
X132436832Y-132571090D01*
X132419562Y-132555438D01*
X132403910Y-132538168D01*
X132390026Y-132519448D01*
X132378044Y-132499457D01*
X132368079Y-132478387D01*
X132360227Y-132456443D01*
X132354563Y-132433834D01*
X132351144Y-132410779D01*
X132350000Y-132387500D01*
X132350000Y-131812500D01*
X132351144Y-131789221D01*
X132354563Y-131766166D01*
X132360227Y-131743557D01*
X132368079Y-131721613D01*
X132378044Y-131700543D01*
X132390026Y-131680552D01*
X132403910Y-131661832D01*
X132419562Y-131644562D01*
X132436832Y-131628910D01*
X132455552Y-131615026D01*
X132475543Y-131603044D01*
X132496613Y-131593079D01*
X132518557Y-131585227D01*
X132541166Y-131579563D01*
X132564221Y-131576144D01*
X132587500Y-131575000D01*
X133062500Y-131575000D01*
X133085779Y-131576144D01*
X133085779Y-131576144D01*
G37*
D28*
X132825000Y-132100000D03*
G04 #@! TD*
D10*
G04 #@! TO.C,C4*
G36*
X134810779Y-131576144D02*
X134833834Y-131579563D01*
X134856443Y-131585227D01*
X134878387Y-131593079D01*
X134899457Y-131603044D01*
X134919448Y-131615026D01*
X134938168Y-131628910D01*
X134955438Y-131644562D01*
X134971090Y-131661832D01*
X134984974Y-131680552D01*
X134996956Y-131700543D01*
X135006921Y-131721613D01*
X135014773Y-131743557D01*
X135020437Y-131766166D01*
X135023856Y-131789221D01*
X135025000Y-131812500D01*
X135025000Y-132387500D01*
X135023856Y-132410779D01*
X135020437Y-132433834D01*
X135014773Y-132456443D01*
X135006921Y-132478387D01*
X134996956Y-132499457D01*
X134984974Y-132519448D01*
X134971090Y-132538168D01*
X134955438Y-132555438D01*
X134938168Y-132571090D01*
X134919448Y-132584974D01*
X134899457Y-132596956D01*
X134878387Y-132606921D01*
X134856443Y-132614773D01*
X134833834Y-132620437D01*
X134810779Y-132623856D01*
X134787500Y-132625000D01*
X134312500Y-132625000D01*
X134289221Y-132623856D01*
X134266166Y-132620437D01*
X134243557Y-132614773D01*
X134221613Y-132606921D01*
X134200543Y-132596956D01*
X134180552Y-132584974D01*
X134161832Y-132571090D01*
X134144562Y-132555438D01*
X134128910Y-132538168D01*
X134115026Y-132519448D01*
X134103044Y-132499457D01*
X134093079Y-132478387D01*
X134085227Y-132456443D01*
X134079563Y-132433834D01*
X134076144Y-132410779D01*
X134075000Y-132387500D01*
X134075000Y-131812500D01*
X134076144Y-131789221D01*
X134079563Y-131766166D01*
X134085227Y-131743557D01*
X134093079Y-131721613D01*
X134103044Y-131700543D01*
X134115026Y-131680552D01*
X134128910Y-131661832D01*
X134144562Y-131644562D01*
X134161832Y-131628910D01*
X134180552Y-131615026D01*
X134200543Y-131603044D01*
X134221613Y-131593079D01*
X134243557Y-131585227D01*
X134266166Y-131579563D01*
X134289221Y-131576144D01*
X134312500Y-131575000D01*
X134787500Y-131575000D01*
X134810779Y-131576144D01*
X134810779Y-131576144D01*
G37*
D28*
X134550000Y-132100000D03*
D10*
G36*
X134810779Y-129826144D02*
X134833834Y-129829563D01*
X134856443Y-129835227D01*
X134878387Y-129843079D01*
X134899457Y-129853044D01*
X134919448Y-129865026D01*
X134938168Y-129878910D01*
X134955438Y-129894562D01*
X134971090Y-129911832D01*
X134984974Y-129930552D01*
X134996956Y-129950543D01*
X135006921Y-129971613D01*
X135014773Y-129993557D01*
X135020437Y-130016166D01*
X135023856Y-130039221D01*
X135025000Y-130062500D01*
X135025000Y-130637500D01*
X135023856Y-130660779D01*
X135020437Y-130683834D01*
X135014773Y-130706443D01*
X135006921Y-130728387D01*
X134996956Y-130749457D01*
X134984974Y-130769448D01*
X134971090Y-130788168D01*
X134955438Y-130805438D01*
X134938168Y-130821090D01*
X134919448Y-130834974D01*
X134899457Y-130846956D01*
X134878387Y-130856921D01*
X134856443Y-130864773D01*
X134833834Y-130870437D01*
X134810779Y-130873856D01*
X134787500Y-130875000D01*
X134312500Y-130875000D01*
X134289221Y-130873856D01*
X134266166Y-130870437D01*
X134243557Y-130864773D01*
X134221613Y-130856921D01*
X134200543Y-130846956D01*
X134180552Y-130834974D01*
X134161832Y-130821090D01*
X134144562Y-130805438D01*
X134128910Y-130788168D01*
X134115026Y-130769448D01*
X134103044Y-130749457D01*
X134093079Y-130728387D01*
X134085227Y-130706443D01*
X134079563Y-130683834D01*
X134076144Y-130660779D01*
X134075000Y-130637500D01*
X134075000Y-130062500D01*
X134076144Y-130039221D01*
X134079563Y-130016166D01*
X134085227Y-129993557D01*
X134093079Y-129971613D01*
X134103044Y-129950543D01*
X134115026Y-129930552D01*
X134128910Y-129911832D01*
X134144562Y-129894562D01*
X134161832Y-129878910D01*
X134180552Y-129865026D01*
X134200543Y-129853044D01*
X134221613Y-129843079D01*
X134243557Y-129835227D01*
X134266166Y-129829563D01*
X134289221Y-129826144D01*
X134312500Y-129825000D01*
X134787500Y-129825000D01*
X134810779Y-129826144D01*
X134810779Y-129826144D01*
G37*
D28*
X134550000Y-130350000D03*
G04 #@! TD*
D29*
G04 #@! TO.C,U1*
X131342000Y-138007000D03*
X131842000Y-138007000D03*
X132342000Y-138007000D03*
X132842000Y-138007000D03*
X133342000Y-138007000D03*
X133842000Y-138007000D03*
D30*
X134562000Y-137287000D03*
X134562000Y-136787000D03*
X134562000Y-136287000D03*
X134562000Y-135787000D03*
X134562000Y-135287000D03*
X134562000Y-134787000D03*
D29*
X133842000Y-134067000D03*
X133342000Y-134067000D03*
X132842000Y-134067000D03*
X132342000Y-134067000D03*
X131842000Y-134067000D03*
X131342000Y-134067000D03*
D30*
X130622000Y-134787000D03*
X130622000Y-135287000D03*
X130622000Y-135787000D03*
X130622000Y-136287000D03*
X130622000Y-136787000D03*
X130622000Y-137287000D03*
D31*
X132592000Y-136037000D03*
G04 #@! TD*
D32*
G04 #@! TO.C,J$1*
X60968410Y-40589461D03*
X60968410Y-45669461D03*
G04 #@! TD*
D33*
G04 #@! TO.C,U1*
X70751015Y-115914309D03*
X70751015Y-114414309D03*
X70751015Y-112914309D03*
X70751015Y-111414309D03*
X70751015Y-109914309D03*
X70751015Y-108414309D03*
X70751015Y-106914309D03*
X70751015Y-105414309D03*
X70751015Y-103914309D03*
X70751015Y-102414309D03*
X86751015Y-102414309D03*
X86751015Y-103914309D03*
X86751015Y-105414309D03*
X86751015Y-106914309D03*
X86751015Y-108414309D03*
X86751015Y-109914309D03*
X86751015Y-111414309D03*
X86751015Y-112914309D03*
X86751015Y-114414309D03*
X86751015Y-115914309D03*
G04 #@! TD*
D15*
G04 #@! TO.C,LED1*
X73256015Y-119173309D03*
X75356015Y-119173309D03*
G04 #@! TD*
D34*
G04 #@! TO.C,R1*
X77420015Y-119221309D03*
X79320015Y-119221309D03*
G04 #@! TD*
G04 #@! TO.C,C1*
X70411015Y-99385309D03*
X72311015Y-99385309D03*
G04 #@! TD*
D35*
G04 #@! TO.C,D1*
X84212015Y-99512309D03*
X86752015Y-99512309D03*
G04 #@! TD*
D34*
G04 #@! TO.C,R3*
X84913015Y-97631309D03*
X86813015Y-97631309D03*
G04 #@! TD*
D36*
G04 #@! TO.C,U$20*
X65796015Y-102433309D03*
X68846015Y-102433309D03*
D37*
X67321015Y-103808309D03*
X67321015Y-101058309D03*
G04 #@! TD*
D35*
G04 #@! TO.C,D2*
X82053015Y-118943309D03*
X84593015Y-118943309D03*
G04 #@! TD*
D10*
G04 #@! TO.C,L1*
G36*
X67598279Y-133501144D02*
X67621334Y-133504563D01*
X67643943Y-133510227D01*
X67665887Y-133518079D01*
X67686957Y-133528044D01*
X67706948Y-133540026D01*
X67725668Y-133553910D01*
X67742938Y-133569562D01*
X67758590Y-133586832D01*
X67772474Y-133605552D01*
X67784456Y-133625543D01*
X67794421Y-133646613D01*
X67802273Y-133668557D01*
X67807937Y-133691166D01*
X67811356Y-133714221D01*
X67812500Y-133737500D01*
X67812500Y-134212500D01*
X67811356Y-134235779D01*
X67807937Y-134258834D01*
X67802273Y-134281443D01*
X67794421Y-134303387D01*
X67784456Y-134324457D01*
X67772474Y-134344448D01*
X67758590Y-134363168D01*
X67742938Y-134380438D01*
X67725668Y-134396090D01*
X67706948Y-134409974D01*
X67686957Y-134421956D01*
X67665887Y-134431921D01*
X67643943Y-134439773D01*
X67621334Y-134445437D01*
X67598279Y-134448856D01*
X67575000Y-134450000D01*
X67000000Y-134450000D01*
X66976721Y-134448856D01*
X66953666Y-134445437D01*
X66931057Y-134439773D01*
X66909113Y-134431921D01*
X66888043Y-134421956D01*
X66868052Y-134409974D01*
X66849332Y-134396090D01*
X66832062Y-134380438D01*
X66816410Y-134363168D01*
X66802526Y-134344448D01*
X66790544Y-134324457D01*
X66780579Y-134303387D01*
X66772727Y-134281443D01*
X66767063Y-134258834D01*
X66763644Y-134235779D01*
X66762500Y-134212500D01*
X66762500Y-133737500D01*
X66763644Y-133714221D01*
X66767063Y-133691166D01*
X66772727Y-133668557D01*
X66780579Y-133646613D01*
X66790544Y-133625543D01*
X66802526Y-133605552D01*
X66816410Y-133586832D01*
X66832062Y-133569562D01*
X66849332Y-133553910D01*
X66868052Y-133540026D01*
X66888043Y-133528044D01*
X66909113Y-133518079D01*
X66931057Y-133510227D01*
X66953666Y-133504563D01*
X66976721Y-133501144D01*
X67000000Y-133500000D01*
X67575000Y-133500000D01*
X67598279Y-133501144D01*
X67598279Y-133501144D01*
G37*
D28*
X67287500Y-133975000D03*
D10*
G36*
X69348279Y-133501144D02*
X69371334Y-133504563D01*
X69393943Y-133510227D01*
X69415887Y-133518079D01*
X69436957Y-133528044D01*
X69456948Y-133540026D01*
X69475668Y-133553910D01*
X69492938Y-133569562D01*
X69508590Y-133586832D01*
X69522474Y-133605552D01*
X69534456Y-133625543D01*
X69544421Y-133646613D01*
X69552273Y-133668557D01*
X69557937Y-133691166D01*
X69561356Y-133714221D01*
X69562500Y-133737500D01*
X69562500Y-134212500D01*
X69561356Y-134235779D01*
X69557937Y-134258834D01*
X69552273Y-134281443D01*
X69544421Y-134303387D01*
X69534456Y-134324457D01*
X69522474Y-134344448D01*
X69508590Y-134363168D01*
X69492938Y-134380438D01*
X69475668Y-134396090D01*
X69456948Y-134409974D01*
X69436957Y-134421956D01*
X69415887Y-134431921D01*
X69393943Y-134439773D01*
X69371334Y-134445437D01*
X69348279Y-134448856D01*
X69325000Y-134450000D01*
X68750000Y-134450000D01*
X68726721Y-134448856D01*
X68703666Y-134445437D01*
X68681057Y-134439773D01*
X68659113Y-134431921D01*
X68638043Y-134421956D01*
X68618052Y-134409974D01*
X68599332Y-134396090D01*
X68582062Y-134380438D01*
X68566410Y-134363168D01*
X68552526Y-134344448D01*
X68540544Y-134324457D01*
X68530579Y-134303387D01*
X68522727Y-134281443D01*
X68517063Y-134258834D01*
X68513644Y-134235779D01*
X68512500Y-134212500D01*
X68512500Y-133737500D01*
X68513644Y-133714221D01*
X68517063Y-133691166D01*
X68522727Y-133668557D01*
X68530579Y-133646613D01*
X68540544Y-133625543D01*
X68552526Y-133605552D01*
X68566410Y-133586832D01*
X68582062Y-133569562D01*
X68599332Y-133553910D01*
X68618052Y-133540026D01*
X68638043Y-133528044D01*
X68659113Y-133518079D01*
X68681057Y-133510227D01*
X68703666Y-133504563D01*
X68726721Y-133501144D01*
X68750000Y-133500000D01*
X69325000Y-133500000D01*
X69348279Y-133501144D01*
X69348279Y-133501144D01*
G37*
D28*
X69037500Y-133975000D03*
G04 #@! TD*
D10*
G04 #@! TO.C,L2*
G36*
X67115779Y-127151144D02*
X67138834Y-127154563D01*
X67161443Y-127160227D01*
X67183387Y-127168079D01*
X67204457Y-127178044D01*
X67224448Y-127190026D01*
X67243168Y-127203910D01*
X67260438Y-127219562D01*
X67276090Y-127236832D01*
X67289974Y-127255552D01*
X67301956Y-127275543D01*
X67311921Y-127296613D01*
X67319773Y-127318557D01*
X67325437Y-127341166D01*
X67328856Y-127364221D01*
X67330000Y-127387500D01*
X67330000Y-127862500D01*
X67328856Y-127885779D01*
X67325437Y-127908834D01*
X67319773Y-127931443D01*
X67311921Y-127953387D01*
X67301956Y-127974457D01*
X67289974Y-127994448D01*
X67276090Y-128013168D01*
X67260438Y-128030438D01*
X67243168Y-128046090D01*
X67224448Y-128059974D01*
X67204457Y-128071956D01*
X67183387Y-128081921D01*
X67161443Y-128089773D01*
X67138834Y-128095437D01*
X67115779Y-128098856D01*
X67092500Y-128100000D01*
X66517500Y-128100000D01*
X66494221Y-128098856D01*
X66471166Y-128095437D01*
X66448557Y-128089773D01*
X66426613Y-128081921D01*
X66405543Y-128071956D01*
X66385552Y-128059974D01*
X66366832Y-128046090D01*
X66349562Y-128030438D01*
X66333910Y-128013168D01*
X66320026Y-127994448D01*
X66308044Y-127974457D01*
X66298079Y-127953387D01*
X66290227Y-127931443D01*
X66284563Y-127908834D01*
X66281144Y-127885779D01*
X66280000Y-127862500D01*
X66280000Y-127387500D01*
X66281144Y-127364221D01*
X66284563Y-127341166D01*
X66290227Y-127318557D01*
X66298079Y-127296613D01*
X66308044Y-127275543D01*
X66320026Y-127255552D01*
X66333910Y-127236832D01*
X66349562Y-127219562D01*
X66366832Y-127203910D01*
X66385552Y-127190026D01*
X66405543Y-127178044D01*
X66426613Y-127168079D01*
X66448557Y-127160227D01*
X66471166Y-127154563D01*
X66494221Y-127151144D01*
X66517500Y-127150000D01*
X67092500Y-127150000D01*
X67115779Y-127151144D01*
X67115779Y-127151144D01*
G37*
D28*
X66805000Y-127625000D03*
D10*
G36*
X68865779Y-127151144D02*
X68888834Y-127154563D01*
X68911443Y-127160227D01*
X68933387Y-127168079D01*
X68954457Y-127178044D01*
X68974448Y-127190026D01*
X68993168Y-127203910D01*
X69010438Y-127219562D01*
X69026090Y-127236832D01*
X69039974Y-127255552D01*
X69051956Y-127275543D01*
X69061921Y-127296613D01*
X69069773Y-127318557D01*
X69075437Y-127341166D01*
X69078856Y-127364221D01*
X69080000Y-127387500D01*
X69080000Y-127862500D01*
X69078856Y-127885779D01*
X69075437Y-127908834D01*
X69069773Y-127931443D01*
X69061921Y-127953387D01*
X69051956Y-127974457D01*
X69039974Y-127994448D01*
X69026090Y-128013168D01*
X69010438Y-128030438D01*
X68993168Y-128046090D01*
X68974448Y-128059974D01*
X68954457Y-128071956D01*
X68933387Y-128081921D01*
X68911443Y-128089773D01*
X68888834Y-128095437D01*
X68865779Y-128098856D01*
X68842500Y-128100000D01*
X68267500Y-128100000D01*
X68244221Y-128098856D01*
X68221166Y-128095437D01*
X68198557Y-128089773D01*
X68176613Y-128081921D01*
X68155543Y-128071956D01*
X68135552Y-128059974D01*
X68116832Y-128046090D01*
X68099562Y-128030438D01*
X68083910Y-128013168D01*
X68070026Y-127994448D01*
X68058044Y-127974457D01*
X68048079Y-127953387D01*
X68040227Y-127931443D01*
X68034563Y-127908834D01*
X68031144Y-127885779D01*
X68030000Y-127862500D01*
X68030000Y-127387500D01*
X68031144Y-127364221D01*
X68034563Y-127341166D01*
X68040227Y-127318557D01*
X68048079Y-127296613D01*
X68058044Y-127275543D01*
X68070026Y-127255552D01*
X68083910Y-127236832D01*
X68099562Y-127219562D01*
X68116832Y-127203910D01*
X68135552Y-127190026D01*
X68155543Y-127178044D01*
X68176613Y-127168079D01*
X68198557Y-127160227D01*
X68221166Y-127154563D01*
X68244221Y-127151144D01*
X68267500Y-127150000D01*
X68842500Y-127150000D01*
X68865779Y-127151144D01*
X68865779Y-127151144D01*
G37*
D28*
X68555000Y-127625000D03*
G04 #@! TD*
D10*
G04 #@! TO.C,C1*
G36*
X71750779Y-129553644D02*
X71773834Y-129557063D01*
X71796443Y-129562727D01*
X71818387Y-129570579D01*
X71839457Y-129580544D01*
X71859448Y-129592526D01*
X71878168Y-129606410D01*
X71895438Y-129622062D01*
X71911090Y-129639332D01*
X71924974Y-129658052D01*
X71936956Y-129678043D01*
X71946921Y-129699113D01*
X71954773Y-129721057D01*
X71960437Y-129743666D01*
X71963856Y-129766721D01*
X71965000Y-129790000D01*
X71965000Y-130365000D01*
X71963856Y-130388279D01*
X71960437Y-130411334D01*
X71954773Y-130433943D01*
X71946921Y-130455887D01*
X71936956Y-130476957D01*
X71924974Y-130496948D01*
X71911090Y-130515668D01*
X71895438Y-130532938D01*
X71878168Y-130548590D01*
X71859448Y-130562474D01*
X71839457Y-130574456D01*
X71818387Y-130584421D01*
X71796443Y-130592273D01*
X71773834Y-130597937D01*
X71750779Y-130601356D01*
X71727500Y-130602500D01*
X71252500Y-130602500D01*
X71229221Y-130601356D01*
X71206166Y-130597937D01*
X71183557Y-130592273D01*
X71161613Y-130584421D01*
X71140543Y-130574456D01*
X71120552Y-130562474D01*
X71101832Y-130548590D01*
X71084562Y-130532938D01*
X71068910Y-130515668D01*
X71055026Y-130496948D01*
X71043044Y-130476957D01*
X71033079Y-130455887D01*
X71025227Y-130433943D01*
X71019563Y-130411334D01*
X71016144Y-130388279D01*
X71015000Y-130365000D01*
X71015000Y-129790000D01*
X71016144Y-129766721D01*
X71019563Y-129743666D01*
X71025227Y-129721057D01*
X71033079Y-129699113D01*
X71043044Y-129678043D01*
X71055026Y-129658052D01*
X71068910Y-129639332D01*
X71084562Y-129622062D01*
X71101832Y-129606410D01*
X71120552Y-129592526D01*
X71140543Y-129580544D01*
X71161613Y-129570579D01*
X71183557Y-129562727D01*
X71206166Y-129557063D01*
X71229221Y-129553644D01*
X71252500Y-129552500D01*
X71727500Y-129552500D01*
X71750779Y-129553644D01*
X71750779Y-129553644D01*
G37*
D28*
X71490000Y-130077500D03*
D10*
G36*
X71750779Y-131303644D02*
X71773834Y-131307063D01*
X71796443Y-131312727D01*
X71818387Y-131320579D01*
X71839457Y-131330544D01*
X71859448Y-131342526D01*
X71878168Y-131356410D01*
X71895438Y-131372062D01*
X71911090Y-131389332D01*
X71924974Y-131408052D01*
X71936956Y-131428043D01*
X71946921Y-131449113D01*
X71954773Y-131471057D01*
X71960437Y-131493666D01*
X71963856Y-131516721D01*
X71965000Y-131540000D01*
X71965000Y-132115000D01*
X71963856Y-132138279D01*
X71960437Y-132161334D01*
X71954773Y-132183943D01*
X71946921Y-132205887D01*
X71936956Y-132226957D01*
X71924974Y-132246948D01*
X71911090Y-132265668D01*
X71895438Y-132282938D01*
X71878168Y-132298590D01*
X71859448Y-132312474D01*
X71839457Y-132324456D01*
X71818387Y-132334421D01*
X71796443Y-132342273D01*
X71773834Y-132347937D01*
X71750779Y-132351356D01*
X71727500Y-132352500D01*
X71252500Y-132352500D01*
X71229221Y-132351356D01*
X71206166Y-132347937D01*
X71183557Y-132342273D01*
X71161613Y-132334421D01*
X71140543Y-132324456D01*
X71120552Y-132312474D01*
X71101832Y-132298590D01*
X71084562Y-132282938D01*
X71068910Y-132265668D01*
X71055026Y-132246948D01*
X71043044Y-132226957D01*
X71033079Y-132205887D01*
X71025227Y-132183943D01*
X71019563Y-132161334D01*
X71016144Y-132138279D01*
X71015000Y-132115000D01*
X71015000Y-131540000D01*
X71016144Y-131516721D01*
X71019563Y-131493666D01*
X71025227Y-131471057D01*
X71033079Y-131449113D01*
X71043044Y-131428043D01*
X71055026Y-131408052D01*
X71068910Y-131389332D01*
X71084562Y-131372062D01*
X71101832Y-131356410D01*
X71120552Y-131342526D01*
X71140543Y-131330544D01*
X71161613Y-131320579D01*
X71183557Y-131312727D01*
X71206166Y-131307063D01*
X71229221Y-131303644D01*
X71252500Y-131302500D01*
X71727500Y-131302500D01*
X71750779Y-131303644D01*
X71750779Y-131303644D01*
G37*
D28*
X71490000Y-131827500D03*
G04 #@! TD*
D10*
G04 #@! TO.C,C2*
G36*
X83663279Y-124166144D02*
X83686334Y-124169563D01*
X83708943Y-124175227D01*
X83730887Y-124183079D01*
X83751957Y-124193044D01*
X83771948Y-124205026D01*
X83790668Y-124218910D01*
X83807938Y-124234562D01*
X83823590Y-124251832D01*
X83837474Y-124270552D01*
X83849456Y-124290543D01*
X83859421Y-124311613D01*
X83867273Y-124333557D01*
X83872937Y-124356166D01*
X83876356Y-124379221D01*
X83877500Y-124402500D01*
X83877500Y-124977500D01*
X83876356Y-125000779D01*
X83872937Y-125023834D01*
X83867273Y-125046443D01*
X83859421Y-125068387D01*
X83849456Y-125089457D01*
X83837474Y-125109448D01*
X83823590Y-125128168D01*
X83807938Y-125145438D01*
X83790668Y-125161090D01*
X83771948Y-125174974D01*
X83751957Y-125186956D01*
X83730887Y-125196921D01*
X83708943Y-125204773D01*
X83686334Y-125210437D01*
X83663279Y-125213856D01*
X83640000Y-125215000D01*
X83165000Y-125215000D01*
X83141721Y-125213856D01*
X83118666Y-125210437D01*
X83096057Y-125204773D01*
X83074113Y-125196921D01*
X83053043Y-125186956D01*
X83033052Y-125174974D01*
X83014332Y-125161090D01*
X82997062Y-125145438D01*
X82981410Y-125128168D01*
X82967526Y-125109448D01*
X82955544Y-125089457D01*
X82945579Y-125068387D01*
X82937727Y-125046443D01*
X82932063Y-125023834D01*
X82928644Y-125000779D01*
X82927500Y-124977500D01*
X82927500Y-124402500D01*
X82928644Y-124379221D01*
X82932063Y-124356166D01*
X82937727Y-124333557D01*
X82945579Y-124311613D01*
X82955544Y-124290543D01*
X82967526Y-124270552D01*
X82981410Y-124251832D01*
X82997062Y-124234562D01*
X83014332Y-124218910D01*
X83033052Y-124205026D01*
X83053043Y-124193044D01*
X83074113Y-124183079D01*
X83096057Y-124175227D01*
X83118666Y-124169563D01*
X83141721Y-124166144D01*
X83165000Y-124165000D01*
X83640000Y-124165000D01*
X83663279Y-124166144D01*
X83663279Y-124166144D01*
G37*
D28*
X83402500Y-124690000D03*
D10*
G36*
X83663279Y-122416144D02*
X83686334Y-122419563D01*
X83708943Y-122425227D01*
X83730887Y-122433079D01*
X83751957Y-122443044D01*
X83771948Y-122455026D01*
X83790668Y-122468910D01*
X83807938Y-122484562D01*
X83823590Y-122501832D01*
X83837474Y-122520552D01*
X83849456Y-122540543D01*
X83859421Y-122561613D01*
X83867273Y-122583557D01*
X83872937Y-122606166D01*
X83876356Y-122629221D01*
X83877500Y-122652500D01*
X83877500Y-123227500D01*
X83876356Y-123250779D01*
X83872937Y-123273834D01*
X83867273Y-123296443D01*
X83859421Y-123318387D01*
X83849456Y-123339457D01*
X83837474Y-123359448D01*
X83823590Y-123378168D01*
X83807938Y-123395438D01*
X83790668Y-123411090D01*
X83771948Y-123424974D01*
X83751957Y-123436956D01*
X83730887Y-123446921D01*
X83708943Y-123454773D01*
X83686334Y-123460437D01*
X83663279Y-123463856D01*
X83640000Y-123465000D01*
X83165000Y-123465000D01*
X83141721Y-123463856D01*
X83118666Y-123460437D01*
X83096057Y-123454773D01*
X83074113Y-123446921D01*
X83053043Y-123436956D01*
X83033052Y-123424974D01*
X83014332Y-123411090D01*
X82997062Y-123395438D01*
X82981410Y-123378168D01*
X82967526Y-123359448D01*
X82955544Y-123339457D01*
X82945579Y-123318387D01*
X82937727Y-123296443D01*
X82932063Y-123273834D01*
X82928644Y-123250779D01*
X82927500Y-123227500D01*
X82927500Y-122652500D01*
X82928644Y-122629221D01*
X82932063Y-122606166D01*
X82937727Y-122583557D01*
X82945579Y-122561613D01*
X82955544Y-122540543D01*
X82967526Y-122520552D01*
X82981410Y-122501832D01*
X82997062Y-122484562D01*
X83014332Y-122468910D01*
X83033052Y-122455026D01*
X83053043Y-122443044D01*
X83074113Y-122433079D01*
X83096057Y-122425227D01*
X83118666Y-122419563D01*
X83141721Y-122416144D01*
X83165000Y-122415000D01*
X83640000Y-122415000D01*
X83663279Y-122416144D01*
X83663279Y-122416144D01*
G37*
D28*
X83402500Y-122940000D03*
G04 #@! TD*
D38*
G04 #@! TO.C,U1*
X76645000Y-129530000D03*
X76645000Y-130800000D03*
X76645000Y-132070000D03*
X76645000Y-133340000D03*
X81575000Y-133340000D03*
X81575000Y-132070000D03*
X81575000Y-130800000D03*
X81575000Y-129530000D03*
G04 #@! TD*
D11*
G04 #@! TO.C,REF\002A\002A*
X87450000Y-43275000D03*
X89350000Y-43275000D03*
G04 #@! TD*
D39*
G04 #@! TO.C,U1*
X129256100Y-78978600D03*
X129256100Y-79478600D03*
X129256100Y-79978600D03*
X129256100Y-80478600D03*
X129256100Y-80978600D03*
X129256100Y-81478600D03*
X129256100Y-81978600D03*
X129256100Y-82478600D03*
X129256100Y-82978600D03*
X129256100Y-83478600D03*
X129256100Y-83978600D03*
X129256100Y-84478600D03*
X129256100Y-84978600D03*
X129256100Y-85478600D03*
X129256100Y-85978600D03*
X129256100Y-86478600D03*
D40*
X131176100Y-88398600D03*
X131676100Y-88398600D03*
X132176100Y-88398600D03*
X132676100Y-88398600D03*
X133176100Y-88398600D03*
X133676100Y-88398600D03*
X134176100Y-88398600D03*
X134676100Y-88398600D03*
X135176100Y-88398600D03*
X135676100Y-88398600D03*
X136176100Y-88398600D03*
X136676100Y-88398600D03*
X137176100Y-88398600D03*
X137676100Y-88398600D03*
X138176100Y-88398600D03*
X138676100Y-88398600D03*
D39*
X140596100Y-86478600D03*
X140596100Y-85978600D03*
X140596100Y-85478600D03*
X140596100Y-84978600D03*
X140596100Y-84478600D03*
X140596100Y-83978600D03*
X140596100Y-83478600D03*
X140596100Y-82978600D03*
X140596100Y-82478600D03*
X140596100Y-81978600D03*
X140596100Y-81478600D03*
X140596100Y-80978600D03*
X140596100Y-80478600D03*
X140596100Y-79978600D03*
X140596100Y-79478600D03*
X140596100Y-78978600D03*
D40*
X138676100Y-77058600D03*
X138176100Y-77058600D03*
X137676100Y-77058600D03*
X137176100Y-77058600D03*
X136676100Y-77058600D03*
X136176100Y-77058600D03*
X135676100Y-77058600D03*
X135176100Y-77058600D03*
X134676100Y-77058600D03*
X134176100Y-77058600D03*
X133676100Y-77058600D03*
X133176100Y-77058600D03*
X132676100Y-77058600D03*
X132176100Y-77058600D03*
X131676100Y-77058600D03*
X131176100Y-77058600D03*
G04 #@! TD*
D41*
G04 #@! TO.C,0k1*
X124552920Y-79411360D03*
X122352920Y-79411360D03*
G04 #@! TD*
G04 #@! TO.C,0k2*
X124563080Y-80838840D03*
X122363080Y-80838840D03*
G04 #@! TD*
D11*
G04 #@! TO.C,1uF1*
X122477520Y-86345560D03*
X124377520Y-86345560D03*
G04 #@! TD*
D42*
G04 #@! TO.C,1uF2*
X131133880Y-70434960D03*
X131133880Y-72334960D03*
G04 #@! TD*
G04 #@! TO.C,1uF3*
X132165120Y-94656520D03*
X132165120Y-92756520D03*
G04 #@! TD*
G04 #@! TO.C,1uF4*
X139907040Y-94839360D03*
X139907040Y-92939360D03*
G04 #@! TD*
D11*
G04 #@! TO.C,1uF5*
X148085880Y-77602880D03*
X146185880Y-77602880D03*
G04 #@! TD*
D42*
G04 #@! TO.C,4.7uF1*
X138169680Y-94844480D03*
X138169680Y-92944480D03*
G04 #@! TD*
D41*
G04 #@! TO.C,10k1*
X118314680Y-70902360D03*
X116114680Y-70902360D03*
G04 #@! TD*
G04 #@! TO.C,10k2*
X118314680Y-68001680D03*
X116114680Y-68001680D03*
G04 #@! TD*
G04 #@! TO.C,10k3*
X118314680Y-69444400D03*
X116114680Y-69444400D03*
G04 #@! TD*
D43*
G04 #@! TO.C,10k4*
X132551200Y-72334920D03*
X132551200Y-70134920D03*
G04 #@! TD*
D11*
G04 #@! TO.C,10nF1*
X122480060Y-85001900D03*
X124380060Y-85001900D03*
G04 #@! TD*
D41*
G04 #@! TO.C,22uH1*
X124547840Y-87844160D03*
X122347840Y-87844160D03*
G04 #@! TD*
D11*
G04 #@! TO.C,100nF1*
X104606120Y-64750480D03*
X102706120Y-64750480D03*
G04 #@! TD*
D42*
G04 #@! TO.C,100nF2*
X129777520Y-70434960D03*
X129777520Y-72334960D03*
G04 #@! TD*
G04 #@! TO.C,100nF3*
X133516400Y-94656520D03*
X133516400Y-92756520D03*
G04 #@! TD*
G04 #@! TO.C,100nF4*
X141232920Y-94839320D03*
X141232920Y-92939320D03*
G04 #@! TD*
D11*
G04 #@! TO.C,100nF5*
X148080800Y-78964320D03*
X146180800Y-78964320D03*
G04 #@! TD*
G04 #@! TO.C,C1*
X120542120Y-76124600D03*
X118642120Y-76124600D03*
G04 #@! TD*
G04 #@! TO.C,C2*
X120537040Y-84196720D03*
X118637040Y-84196720D03*
G04 #@! TD*
D44*
G04 #@! TO.C,SW1*
X102078080Y-61915840D03*
X105478080Y-61915840D03*
G04 #@! TD*
D45*
G04 #@! TO.C,Y1*
X119773240Y-78572560D03*
X114473240Y-78572560D03*
X114473240Y-81672560D03*
X119773240Y-81672560D03*
G04 #@! TD*
D42*
G04 #@! TO.C,C16*
X159860780Y-125389540D03*
X159860780Y-127289540D03*
G04 #@! TD*
G04 #@! TO.C,C17*
X150874260Y-131122400D03*
X150874260Y-129222400D03*
G04 #@! TD*
G04 #@! TO.C,C18*
X160724380Y-143421080D03*
X160724380Y-141521080D03*
G04 #@! TD*
G04 #@! TO.C,C19*
X186627300Y-115023880D03*
X186627300Y-113123880D03*
G04 #@! TD*
G04 #@! TO.C,C20*
X195060100Y-109217360D03*
X195060100Y-111117360D03*
G04 #@! TD*
G04 #@! TO.C,C21*
X186017700Y-96781480D03*
X186017700Y-98681480D03*
G04 #@! TD*
D46*
G04 #@! TO.C,L2*
X153637780Y-138990880D03*
X153637780Y-132590880D03*
G04 #@! TD*
G04 #@! TO.C,L3*
X192255940Y-101313720D03*
X192255940Y-107713720D03*
G04 #@! TD*
D41*
G04 #@! TO.C,R5*
X148430420Y-125194000D03*
X150630420Y-125194000D03*
G04 #@! TD*
D43*
G04 #@! TO.C,R6*
X150610100Y-123274120D03*
X150610100Y-121074120D03*
G04 #@! TD*
D41*
G04 #@! TO.C,R7*
X197462940Y-115161000D03*
X195262940Y-115161000D03*
G04 #@! TD*
D43*
G04 #@! TO.C,R8*
X195293780Y-117088680D03*
X195293780Y-119288680D03*
G04 #@! TD*
D47*
G04 #@! TO.C,U3*
X190564300Y-113108680D03*
X190564300Y-114048480D03*
X190564300Y-114988280D03*
X193155100Y-114988280D03*
X193155100Y-114048480D03*
X193155100Y-113108680D03*
G04 #@! TD*
G04 #@! TO.C,U2*
X155243060Y-127218380D03*
X155243060Y-126278580D03*
X155243060Y-125338780D03*
X152652260Y-125338780D03*
X152652260Y-126278580D03*
X152652260Y-127218380D03*
G04 #@! TD*
D43*
G04 #@! TO.C,D4*
X195298860Y-123373000D03*
X195298860Y-121173000D03*
G04 #@! TD*
G04 #@! TO.C,D5*
X150597400Y-116961680D03*
X150597400Y-119161680D03*
G04 #@! TD*
D41*
G04 #@! TO.C,R9*
X197496140Y-125234640D03*
X195296140Y-125234640D03*
G04 #@! TD*
G04 #@! TO.C,R10*
X148394860Y-115237200D03*
X150594860Y-115237200D03*
G04 #@! TD*
M02*
