M48
;DRILL file {KiCad 5.0.1-33cea8e~68~ubuntu16.04.1} date Mon 29 Oct 2018 12:19:43 AM PDT
;FORMAT={-:-/ absolute / metric / decimal}
FMAT,2
METRIC,TZ
T1C0.400
T2C0.500
T3C0.700
T4C1.000
T5C1.020
T6C2.500
%
G90
G05
M71
T1
X106.85Y-76.
X107.21Y-73.506
X109.78Y-135.185
X109.95Y-70.825
X111.887Y-72.881
X112.53Y-136.62
X114.08Y-128.02
X114.08Y-134.37
X116.143Y-85.279
X117.174Y-85.319
X118.144Y-85.355
X118.287Y-72.116
X118.647Y-75.094
X119.048Y-85.277
X119.55Y-89.7
X120.432Y-85.729
X122.05Y-90.775
X122.348Y-89.045
X123.275Y-92.
X123.6Y-94.95
X124.55Y-91.3
X125.688Y-83.552
X125.861Y-93.94
X125.914Y-82.691
X126.041Y-81.901
X126.181Y-81.113
X127.161Y-81.133
X127.439Y-78.729
X127.45Y-63.125
X128.593Y-61.098
X128.597Y-72.895
X128.726Y-70.435
X130.541Y-82.857
X130.718Y-91.234
X130.73Y-92.098
X130.734Y-93.069
X130.814Y-132.227
X131.093Y-94.726
X131.276Y-60.775
X131.667Y-78.431
X131.84Y-74.839
X132.145Y-91.45
X132.287Y-73.844
X132.875Y-61.4
X133.11Y-91.428
X133.567Y-97.036
X133.6Y-139.825
X133.925Y-86.
X133.99Y-91.301
X134.007Y-90.482
X134.17Y-97.561
X134.917Y-97.847
X135.873Y-98.167
X135.975Y-133.125
X136.794Y-73.244
X136.826Y-74.044
X137.541Y-74.402
X138.17Y-90.963
X138.192Y-74.867
X138.195Y-87.072
X138.2Y-139.75
X138.275Y-84.125
X138.743Y-80.327
X139.625Y-132.4
X140.232Y-67.016
X140.462Y-88.396
X142.Y-67.895
X142.883Y-87.053
X143.428Y-86.468
X143.875Y-78.979
X143.932Y-85.846
X144.35Y-77.55
X144.433Y-85.223
X144.506Y-150.01
X144.527Y-146.677
X144.527Y-148.476
X144.547Y-140.2
X144.547Y-141.917
X144.567Y-143.472
X144.567Y-145.209
X145.45Y-70.725
X146.062Y-70.081
X146.196Y-76.323
X146.244Y-150.03
X146.284Y-146.698
X146.305Y-148.476
X146.345Y-143.492
X146.345Y-145.23
X146.366Y-140.16
X146.406Y-141.958
X146.597Y-69.486
X147.14Y-68.898
X147.443Y-119.586
X147.443Y-120.373
X147.443Y-122.766
X147.453Y-117.833
X147.453Y-118.722
X147.453Y-121.191
X147.453Y-121.989
X147.453Y-123.579
X147.665Y-68.295
X148.01Y-67.55
X148.123Y-150.03
X148.144Y-148.476
X148.184Y-146.698
X148.225Y-145.23
X148.245Y-140.139
X148.245Y-141.917
X148.245Y-143.431
X148.499Y-76.223
X149.184Y-73.157
X149.749Y-72.591
X150.323Y-72.034
X150.942Y-71.527
X151.276Y-126.286
X151.545Y-71.001
X151.941Y-121.074
X152.69Y-128.567
X152.69Y-129.421
X153.503Y-128.567
X153.503Y-129.4
X155.202Y-124.046
X156.546Y-130.95
X156.569Y-126.24
X157.46Y-126.296
X157.46Y-130.988
X159.848Y-139.824
X160.768Y-139.855
X161.565Y-139.85
X162.5Y-139.85
X163.419Y-139.845
X163.836Y-127.846
X164.471Y-139.84
X164.781Y-127.846
X165.761Y-127.846
X166.691Y-127.871
X167.605Y-127.851
X175.78Y-53.048
X178.268Y-112.489
X178.597Y-36.561
X179.177Y-112.474
X179.844Y-58.89
X180.168Y-112.489
X181.164Y-100.465
X181.225Y-112.489
X182.18Y-100.465
X182.185Y-112.489
X183.13Y-100.454
X184.075Y-100.444
X184.984Y-100.444
X185.178Y-48.476
X185.178Y-54.572
X185.888Y-100.454
X186.194Y-41.872
X186.194Y-53.048
X187.21Y-46.952
X187.21Y-51.27
X188.226Y-41.872
X188.226Y-42.888
X188.446Y-109.443
X188.446Y-114.038
X188.48Y-44.412
X188.734Y-45.428
X188.734Y-47.714
X189.292Y-109.431
X189.294Y-114.048
X189.75Y-45.428
X190.701Y-116.289
X190.766Y-47.46
X190.766Y-54.064
X191.782Y-38.316
X191.782Y-47.46
X192.036Y-66.764
X192.258Y-110.899
X192.258Y-111.783
X192.544Y-51.778
X192.798Y-47.46
X193.092Y-111.793
X193.102Y-110.914
X193.958Y-119.296
X194.322Y-62.7
X194.576Y-46.698
X194.628Y-114.048
X195.338Y-45.936
X196.1Y-49.492
X196.839Y-36.561
X197.587Y-96.868
X197.587Y-98.367
X197.587Y-100.155
X197.618Y-95.08
X197.624Y-40.856
X197.624Y-62.7
X197.633Y-90.279
X197.633Y-93.586
X197.648Y-91.834
X198.304Y-116.726
X198.329Y-117.533
X198.339Y-118.387
X198.339Y-119.189
X198.349Y-119.992
X198.349Y-120.774
X198.349Y-121.613
X198.894Y-40.602
X199.402Y-66.764
X199.426Y-98.382
X199.442Y-95.065
X199.442Y-96.868
X199.442Y-100.17
X199.487Y-93.551
X199.518Y-91.834
X199.533Y-90.294
X201.184Y-98.382
X201.199Y-96.888
X201.199Y-100.17
X201.22Y-95.08
X201.235Y-90.294
X201.235Y-93.571
X201.25Y-91.834
T2
X64.273Y-109.736
X65.162Y-106.878
X65.289Y-103.83
X66.305Y-104.973
X66.432Y-112.085
X66.94Y-99.639
X67.067Y-114.371
X67.328Y-118.957
X67.328Y-120.357
X67.829Y-104.973
X68.728Y-120.557
X68.845Y-114.498
X68.928Y-97.757
X69.099Y-103.894
X71.639Y-100.909
X71.928Y-97.957
X74.128Y-98.157
X75.128Y-99.157
X75.928Y-97.357
X75.928Y-100.357
X77.728Y-97.757
X78.728Y-100.357
X79.128Y-97.557
X79.328Y-117.757
X80.128Y-100.157
X80.656Y-119.197
X81.328Y-97.557
X81.328Y-100.557
X81.863Y-120.15
X82.728Y-100.357
X83.45Y-96.972
X84.657Y-120.15
X87.528Y-120.357
X88.728Y-120.357
X89.038Y-96.972
X89.038Y-115.768
X89.728Y-109.357
X89.928Y-120.157
X90.562Y-99.893
X91.528Y-120.157
X92.928Y-120.157
T3
X64.143Y-45.695
X66.683Y-45.695
X69.223Y-45.695
X84.463Y-45.695
X87.003Y-45.695
X89.543Y-45.695
X92.083Y-45.695
T4
X59.927Y-43.129
X59.927Y-45.669
X178.574Y-49.492
X181.114Y-49.492
X184.694Y-148.773
X187.234Y-148.773
X62.6Y-130.165
X62.6Y-132.705
X102.295Y-102.373
X104.835Y-102.373
X175.517Y-96.314
X175.517Y-98.854
X170.468Y-129.375
X170.468Y-131.915
X170.468Y-134.455
X170.468Y-136.995
X94.245Y-98.496
X94.245Y-101.036
X94.245Y-103.576
X94.245Y-106.116
X94.245Y-108.656
X94.245Y-111.196
X94.245Y-113.736
X94.245Y-116.276
X94.245Y-118.816
X84.5Y-49.35
X87.04Y-49.35
X89.58Y-49.35
X92.12Y-49.35
X170.392Y-141.445
X170.392Y-143.985
X89.27Y-126.355
X89.27Y-128.895
X89.27Y-131.435
X89.27Y-133.975
X89.27Y-136.515
X175.494Y-102.588
X175.494Y-105.128
X175.494Y-107.668
X91.146Y-59.844
X91.146Y-62.384
X91.146Y-64.924
X91.146Y-67.464
X91.146Y-70.004
X91.146Y-72.544
X91.146Y-75.084
X91.146Y-77.624
X91.146Y-80.164
X91.146Y-82.704
X91.146Y-85.244
X176.539Y-70.827
X179.079Y-70.827
X181.619Y-70.827
X184.159Y-70.827
X186.699Y-70.827
X189.239Y-70.827
X191.779Y-70.827
X194.319Y-70.827
X196.859Y-70.827
X175.533Y-92.517
X178.073Y-92.517
X180.613Y-92.517
X183.153Y-92.517
X185.693Y-92.517
X127.004Y-120.289
X129.544Y-120.289
X132.084Y-120.289
X134.624Y-120.289
X137.164Y-120.289
X139.704Y-120.289
X113.283Y-102.388
X115.823Y-102.388
X118.363Y-102.388
X120.903Y-102.388
X123.443Y-102.388
X125.983Y-102.388
X128.523Y-102.388
X131.063Y-102.388
X133.603Y-102.388
X136.143Y-102.388
X138.683Y-102.388
X141.223Y-102.388
X143.763Y-102.388
X146.303Y-102.388
X148.843Y-102.388
X151.383Y-102.388
X152.673Y-147.686
X155.213Y-147.686
X157.753Y-147.686
X160.293Y-147.686
X162.833Y-147.686
X165.373Y-147.686
X167.913Y-147.686
X170.453Y-147.686
X102.193Y-69.389
X102.193Y-71.929
X102.193Y-74.469
X102.193Y-77.009
X102.193Y-79.549
X102.193Y-82.089
X102.193Y-84.629
X102.193Y-87.169
X102.193Y-89.709
X102.193Y-92.249
X104.733Y-69.389
X104.733Y-71.929
X104.733Y-74.469
X104.733Y-77.009
X104.733Y-79.549
X104.733Y-82.089
X104.733Y-84.629
X104.733Y-87.169
X104.733Y-89.709
X104.733Y-92.249
X113.476Y-57.166
X116.016Y-57.166
X118.556Y-57.166
X121.096Y-57.166
X123.636Y-57.166
X126.176Y-57.166
X128.716Y-57.166
X131.256Y-57.166
X133.796Y-57.166
X136.336Y-57.166
X138.876Y-57.166
X141.416Y-57.166
X143.956Y-57.166
X146.496Y-57.166
X149.036Y-57.166
X151.576Y-57.166
X116.3Y-127.97
X116.3Y-130.51
X116.3Y-133.05
X116.3Y-135.59
X116.3Y-138.13
X131.068Y-146.959
X133.608Y-146.959
X136.148Y-146.959
X64.125Y-49.05
X66.665Y-49.05
X69.205Y-49.05
X157.56Y-60.737
X157.56Y-63.277
X157.56Y-65.817
X157.56Y-68.357
X157.56Y-70.897
X157.56Y-73.437
X157.56Y-75.977
X157.56Y-78.517
X157.56Y-81.057
X157.56Y-83.597
X157.56Y-86.137
X157.56Y-88.677
X157.56Y-91.217
X157.56Y-93.757
X157.56Y-96.297
X157.56Y-98.837
X175.477Y-112.763
X175.477Y-115.303
T5
X183.034Y-133.373
X185.574Y-133.373
X188.114Y-133.373
X190.654Y-133.373
T6
X199.3Y-31.125
X153.7Y-31.25
X64.527Y-98.496
X105.8Y-31.125
X61.525Y-90.15
X61.4Y-54.6
X105.8Y-149.45
X64.527Y-118.816
X61.525Y-149.3
X199.3Y-149.3
T0
M30
