G04 #@! TF.GenerationSoftware,KiCad,Pcbnew,5.0.1-33cea8e~68~ubuntu16.04.1*
G04 #@! TF.CreationDate,2018-10-29T00:19:41-07:00*
G04 #@! TF.ProjectId,integrated-board-design-2,696E74656772617465642D626F617264,rev?*
G04 #@! TF.SameCoordinates,Original*
G04 #@! TF.FileFunction,Other,User*
%FSLAX46Y46*%
G04 Gerber Fmt 4.6, Leading zero omitted, Abs format (unit mm)*
G04 Created by KiCad (PCBNEW 5.0.1-33cea8e~68~ubuntu16.04.1) date Mon 29 Oct 2018 12:19:41 AM PDT*
%MOMM*%
%LPD*%
G01*
G04 APERTURE LIST*
%ADD10C,0.050000*%
G04 APERTURE END LIST*
D10*
G04 #@! TO.C,C1*
X184450000Y-145350000D02*
X188050000Y-145350000D01*
X184450000Y-145350000D02*
X184450000Y-146650000D01*
X188050000Y-146650000D02*
X188050000Y-145350000D01*
X188050000Y-146650000D02*
X184450000Y-146650000D01*
G04 #@! TO.C,*
X192404203Y-129573068D02*
X192404203Y-136573068D01*
X192404203Y-129573068D02*
X181304203Y-129573068D01*
X181304203Y-136573068D02*
X192404203Y-136573068D01*
X181304203Y-136573068D02*
X181304203Y-129573068D01*
G04 #@! TO.C,J2*
X64955440Y-64341760D02*
X82655440Y-64341760D01*
X64955440Y-80041760D02*
X64955440Y-64341760D01*
X82655440Y-80041760D02*
X64955440Y-80041760D01*
X82655440Y-64341760D02*
X82655440Y-80041760D01*
G04 #@! TO.C,J9*
X89346480Y-58044400D02*
X89346480Y-87044400D01*
X89346480Y-87044400D02*
X92946480Y-87044400D01*
X92946480Y-87044400D02*
X92946480Y-58044400D01*
X92946480Y-58044400D02*
X89346480Y-58044400D01*
G04 #@! TO.C,*
X182894203Y-146973068D02*
X182894203Y-150573068D01*
X182894203Y-150573068D02*
X189044203Y-150573068D01*
X189044203Y-150573068D02*
X189044203Y-146973068D01*
X189044203Y-146973068D02*
X182894203Y-146973068D01*
G04 #@! TO.C,JP2*
X118100080Y-126169560D02*
X114500080Y-126169560D01*
X118100080Y-139919560D02*
X118100080Y-126169560D01*
X114500080Y-139919560D02*
X118100080Y-139919560D01*
X114500080Y-126169560D02*
X114500080Y-139919560D01*
G04 #@! TO.C,C1*
X104070080Y-133874560D02*
X104070080Y-135734560D01*
X103130080Y-133874560D02*
X104070080Y-133874560D01*
X103130080Y-135734560D02*
X103130080Y-133874560D01*
X104070080Y-135734560D02*
X103130080Y-135734560D01*
G04 #@! TO.C,C2*
X109150080Y-135734560D02*
X108210080Y-135734560D01*
X108210080Y-135734560D02*
X108210080Y-133874560D01*
X108210080Y-133874560D02*
X109150080Y-133874560D01*
X109150080Y-133874560D02*
X109150080Y-135734560D01*
G04 #@! TO.C,R3*
X112960080Y-133874560D02*
X112960080Y-135734560D01*
X112020080Y-133874560D02*
X112960080Y-133874560D01*
X112020080Y-135734560D02*
X112020080Y-133874560D01*
X112960080Y-135734560D02*
X112020080Y-135734560D01*
G04 #@! TO.C,J2*
X176774160Y-38941700D02*
X176774160Y-51291700D01*
X182924160Y-38941700D02*
X176774160Y-38941700D01*
X182924160Y-51291700D02*
X182924160Y-38941700D01*
X176774160Y-51291700D02*
X182924160Y-51291700D01*
G04 #@! TO.C,C1*
X186918160Y-36115700D02*
X186918160Y-37975700D01*
X185978160Y-36115700D02*
X186918160Y-36115700D01*
X185978160Y-37975700D02*
X185978160Y-36115700D01*
X186918160Y-37975700D02*
X185978160Y-37975700D01*
G04 #@! TO.C,C2*
X189966160Y-37975700D02*
X189026160Y-37975700D01*
X189026160Y-37975700D02*
X189026160Y-36115700D01*
X189026160Y-36115700D02*
X189966160Y-36115700D01*
X189966160Y-36115700D02*
X189966160Y-37975700D01*
G04 #@! TO.C,C3*
X196570160Y-60245700D02*
X196570160Y-62105700D01*
X195630160Y-60245700D02*
X196570160Y-60245700D01*
X195630160Y-62105700D02*
X195630160Y-60245700D01*
X196570160Y-62105700D02*
X195630160Y-62105700D01*
G04 #@! TO.C,D1*
X184632160Y-59737700D02*
X184632160Y-61597700D01*
X183692160Y-59737700D02*
X184632160Y-59737700D01*
X183692160Y-61597700D02*
X183692160Y-59737700D01*
X184632160Y-61597700D02*
X183692160Y-61597700D01*
G04 #@! TO.C,D2*
X180314160Y-61597700D02*
X179374160Y-61597700D01*
X179374160Y-61597700D02*
X179374160Y-59737700D01*
X179374160Y-59737700D02*
X180314160Y-59737700D01*
X180314160Y-59737700D02*
X180314160Y-61597700D01*
G04 #@! TO.C,J1*
X198689161Y-69076699D02*
X174789161Y-69076699D01*
X198689161Y-81376699D02*
X198689161Y-69076699D01*
X174789161Y-81376699D02*
X198689161Y-81376699D01*
X174789161Y-69076699D02*
X174789161Y-81376699D01*
G04 #@! TO.C,R1*
X176250160Y-59737700D02*
X176250160Y-61597700D01*
X175310160Y-59737700D02*
X176250160Y-59737700D01*
X175310160Y-61597700D02*
X175310160Y-59737700D01*
X176250160Y-61597700D02*
X175310160Y-61597700D01*
G04 #@! TO.C,R2*
X195808160Y-36115700D02*
X195808160Y-37975700D01*
X194868160Y-36115700D02*
X195808160Y-36115700D01*
X194868160Y-37975700D02*
X194868160Y-36115700D01*
X195808160Y-37975700D02*
X194868160Y-37975700D01*
G04 #@! TO.C,R3*
X188950160Y-61597700D02*
X188010160Y-61597700D01*
X188010160Y-61597700D02*
X188010160Y-59737700D01*
X188010160Y-59737700D02*
X188950160Y-59737700D01*
X188950160Y-59737700D02*
X188950160Y-61597700D01*
G04 #@! TO.C,R4*
X193014160Y-37975700D02*
X192074160Y-37975700D01*
X192074160Y-37975700D02*
X192074160Y-36115700D01*
X192074160Y-36115700D02*
X193014160Y-36115700D01*
X193014160Y-36115700D02*
X193014160Y-37975700D01*
G04 #@! TO.C,C1*
X140400000Y-134820000D02*
X140400000Y-136280000D01*
X140400000Y-136280000D02*
X137100000Y-136280000D01*
X137100000Y-136280000D02*
X137100000Y-134820000D01*
X137100000Y-134820000D02*
X140400000Y-134820000D01*
G04 #@! TO.C,C2*
X138875000Y-138455000D02*
X135575000Y-138455000D01*
X138875000Y-136995000D02*
X138875000Y-138455000D01*
X135575000Y-136995000D02*
X138875000Y-136995000D01*
X135575000Y-138455000D02*
X135575000Y-136995000D01*
G04 #@! TO.C,C3*
X132095000Y-129575000D02*
X133555000Y-129575000D01*
X133555000Y-129575000D02*
X133555000Y-132875000D01*
X133555000Y-132875000D02*
X132095000Y-132875000D01*
X132095000Y-132875000D02*
X132095000Y-129575000D01*
G04 #@! TO.C,C4*
X133820000Y-132875000D02*
X133820000Y-129575000D01*
X135280000Y-132875000D02*
X133820000Y-132875000D01*
X135280000Y-129575000D02*
X135280000Y-132875000D01*
X133820000Y-129575000D02*
X135280000Y-129575000D01*
G04 #@! TO.C,J1*
X129268000Y-148759000D02*
X137918000Y-148759000D01*
X137918000Y-148759000D02*
X137918000Y-145159000D01*
X137918000Y-145159000D02*
X129268000Y-145159000D01*
X129268000Y-145159000D02*
X129268000Y-148759000D01*
G04 #@! TO.C,J2*
X125204000Y-122089000D02*
X141504000Y-122089000D01*
X141504000Y-122089000D02*
X141504000Y-118489000D01*
X141504000Y-118489000D02*
X125204000Y-118489000D01*
X125204000Y-118489000D02*
X125204000Y-122089000D01*
G04 #@! TO.C,REF\002A\002A*
X62325000Y-50850000D02*
X70975000Y-50850000D01*
X70975000Y-50850000D02*
X70975000Y-47250000D01*
X70975000Y-47250000D02*
X62325000Y-47250000D01*
X62325000Y-47250000D02*
X62325000Y-50850000D01*
X82700000Y-51150000D02*
X93900000Y-51150000D01*
X93900000Y-51150000D02*
X93900000Y-47550000D01*
X93900000Y-47550000D02*
X82700000Y-47550000D01*
X82700000Y-47550000D02*
X82700000Y-51150000D01*
G04 #@! TO.C,L1*
X66512500Y-133245000D02*
X69812500Y-133245000D01*
X66512500Y-134705000D02*
X66512500Y-133245000D01*
X69812500Y-134705000D02*
X66512500Y-134705000D01*
X69812500Y-133245000D02*
X69812500Y-134705000D01*
G04 #@! TO.C,L2*
X66030000Y-126895000D02*
X69330000Y-126895000D01*
X66030000Y-128355000D02*
X66030000Y-126895000D01*
X69330000Y-128355000D02*
X66030000Y-128355000D01*
X69330000Y-126895000D02*
X69330000Y-128355000D01*
G04 #@! TO.C,C1*
X72220000Y-129302500D02*
X72220000Y-132602500D01*
X70760000Y-129302500D02*
X72220000Y-129302500D01*
X70760000Y-132602500D02*
X70760000Y-129302500D01*
X72220000Y-132602500D02*
X70760000Y-132602500D01*
G04 #@! TO.C,C2*
X82672500Y-125465000D02*
X82672500Y-122165000D01*
X84132500Y-125465000D02*
X82672500Y-125465000D01*
X84132500Y-122165000D02*
X84132500Y-125465000D01*
X82672500Y-122165000D02*
X84132500Y-122165000D01*
G04 #@! TO.C,J1*
X64400000Y-134505000D02*
X64400000Y-128355000D01*
X64400000Y-128355000D02*
X60800000Y-128355000D01*
X60800000Y-128355000D02*
X60800000Y-134505000D01*
X60800000Y-134505000D02*
X64400000Y-134505000D01*
G04 #@! TO.C,J2*
X87470000Y-124555000D02*
X91020000Y-124555000D01*
X91020000Y-124555000D02*
X91020000Y-138255000D01*
X91020000Y-138255000D02*
X87470000Y-138255000D01*
X87470000Y-138255000D02*
X87470000Y-124555000D01*
G04 #@! TO.C,REF\002A\002A*
X86600000Y-42625000D02*
X90200000Y-42625000D01*
X86600000Y-42625000D02*
X86600000Y-43925000D01*
X90200000Y-43925000D02*
X90200000Y-42625000D01*
X90200000Y-43925000D02*
X86600000Y-43925000D01*
G04 #@! TO.C,0k1*
X125412920Y-80111360D02*
X121502920Y-80111360D01*
X125412920Y-80111360D02*
X125412920Y-78711360D01*
X121502920Y-78711360D02*
X121502920Y-80111360D01*
X121502920Y-78711360D02*
X125412920Y-78711360D01*
G04 #@! TO.C,0k2*
X125423080Y-81538840D02*
X121513080Y-81538840D01*
X125423080Y-81538840D02*
X125423080Y-80138840D01*
X121513080Y-80138840D02*
X121513080Y-81538840D01*
X121513080Y-80138840D02*
X125423080Y-80138840D01*
G04 #@! TO.C,1uF1*
X121627520Y-85695560D02*
X125227520Y-85695560D01*
X121627520Y-85695560D02*
X121627520Y-86995560D01*
X125227520Y-86995560D02*
X125227520Y-85695560D01*
X125227520Y-86995560D02*
X121627520Y-86995560D01*
G04 #@! TO.C,1uF2*
X131783880Y-69584960D02*
X131783880Y-73184960D01*
X131783880Y-69584960D02*
X130483880Y-69584960D01*
X130483880Y-73184960D02*
X131783880Y-73184960D01*
X130483880Y-73184960D02*
X130483880Y-69584960D01*
G04 #@! TO.C,1uF3*
X131515120Y-95506520D02*
X131515120Y-91906520D01*
X131515120Y-95506520D02*
X132815120Y-95506520D01*
X132815120Y-91906520D02*
X131515120Y-91906520D01*
X132815120Y-91906520D02*
X132815120Y-95506520D01*
G04 #@! TO.C,1uF4*
X139257040Y-95689360D02*
X139257040Y-92089360D01*
X139257040Y-95689360D02*
X140557040Y-95689360D01*
X140557040Y-92089360D02*
X139257040Y-92089360D01*
X140557040Y-92089360D02*
X140557040Y-95689360D01*
G04 #@! TO.C,1uF5*
X148935880Y-78252880D02*
X145335880Y-78252880D01*
X148935880Y-78252880D02*
X148935880Y-76952880D01*
X145335880Y-76952880D02*
X145335880Y-78252880D01*
X145335880Y-76952880D02*
X148935880Y-76952880D01*
G04 #@! TO.C,4.7uF1*
X137519680Y-95694480D02*
X137519680Y-92094480D01*
X137519680Y-95694480D02*
X138819680Y-95694480D01*
X138819680Y-92094480D02*
X137519680Y-92094480D01*
X138819680Y-92094480D02*
X138819680Y-95694480D01*
G04 #@! TO.C,10k1*
X119174680Y-71602360D02*
X115264680Y-71602360D01*
X119174680Y-71602360D02*
X119174680Y-70202360D01*
X115264680Y-70202360D02*
X115264680Y-71602360D01*
X115264680Y-70202360D02*
X119174680Y-70202360D01*
G04 #@! TO.C,10k2*
X119174680Y-68701680D02*
X115264680Y-68701680D01*
X119174680Y-68701680D02*
X119174680Y-67301680D01*
X115264680Y-67301680D02*
X115264680Y-68701680D01*
X115264680Y-67301680D02*
X119174680Y-67301680D01*
G04 #@! TO.C,10k3*
X119174680Y-70144400D02*
X115264680Y-70144400D01*
X119174680Y-70144400D02*
X119174680Y-68744400D01*
X115264680Y-68744400D02*
X115264680Y-70144400D01*
X115264680Y-68744400D02*
X119174680Y-68744400D01*
G04 #@! TO.C,10k4*
X131851200Y-73194920D02*
X131851200Y-69284920D01*
X131851200Y-73194920D02*
X133251200Y-73194920D01*
X133251200Y-69284920D02*
X131851200Y-69284920D01*
X133251200Y-69284920D02*
X133251200Y-73194920D01*
G04 #@! TO.C,10nF1*
X121630060Y-84351900D02*
X125230060Y-84351900D01*
X121630060Y-84351900D02*
X121630060Y-85651900D01*
X125230060Y-85651900D02*
X125230060Y-84351900D01*
X125230060Y-85651900D02*
X121630060Y-85651900D01*
G04 #@! TO.C,22uH1*
X125447840Y-88644160D02*
X121447840Y-88644160D01*
X125447840Y-87044160D02*
X121447840Y-87044160D01*
X125447840Y-88644160D02*
X125447840Y-87044160D01*
X121447840Y-88644160D02*
X121447840Y-87044160D01*
G04 #@! TO.C,100nF1*
X105456120Y-65400480D02*
X101856120Y-65400480D01*
X105456120Y-65400480D02*
X105456120Y-64100480D01*
X101856120Y-64100480D02*
X101856120Y-65400480D01*
X101856120Y-64100480D02*
X105456120Y-64100480D01*
G04 #@! TO.C,100nF2*
X130427520Y-69584960D02*
X130427520Y-73184960D01*
X130427520Y-69584960D02*
X129127520Y-69584960D01*
X129127520Y-73184960D02*
X130427520Y-73184960D01*
X129127520Y-73184960D02*
X129127520Y-69584960D01*
G04 #@! TO.C,100nF3*
X132866400Y-95506520D02*
X132866400Y-91906520D01*
X132866400Y-95506520D02*
X134166400Y-95506520D01*
X134166400Y-91906520D02*
X132866400Y-91906520D01*
X134166400Y-91906520D02*
X134166400Y-95506520D01*
G04 #@! TO.C,100nF4*
X140582920Y-95689320D02*
X140582920Y-92089320D01*
X140582920Y-95689320D02*
X141882920Y-95689320D01*
X141882920Y-92089320D02*
X140582920Y-92089320D01*
X141882920Y-92089320D02*
X141882920Y-95689320D01*
G04 #@! TO.C,100nF5*
X148930800Y-79614320D02*
X145330800Y-79614320D01*
X148930800Y-79614320D02*
X148930800Y-78314320D01*
X145330800Y-78314320D02*
X145330800Y-79614320D01*
X145330800Y-78314320D02*
X148930800Y-78314320D01*
G04 #@! TO.C,C1*
X121392120Y-76774600D02*
X117792120Y-76774600D01*
X121392120Y-76774600D02*
X121392120Y-75474600D01*
X117792120Y-75474600D02*
X117792120Y-76774600D01*
X117792120Y-75474600D02*
X121392120Y-75474600D01*
G04 #@! TO.C,C2*
X121387040Y-84846720D02*
X117787040Y-84846720D01*
X121387040Y-84846720D02*
X121387040Y-83546720D01*
X117787040Y-83546720D02*
X117787040Y-84846720D01*
X117787040Y-83546720D02*
X121387040Y-83546720D01*
G04 #@! TO.C,J1*
X106533120Y-94048520D02*
X106533120Y-67598520D01*
X106533120Y-67598520D02*
X100383120Y-67598520D01*
X100383120Y-67598520D02*
X100383120Y-94048520D01*
X100383120Y-94048520D02*
X106533120Y-94048520D01*
G04 #@! TO.C,J3*
X159360040Y-100637280D02*
X159360040Y-58937280D01*
X159360040Y-58937280D02*
X155760040Y-58937280D01*
X155760040Y-58937280D02*
X155760040Y-100637280D01*
X155760040Y-100637280D02*
X159360040Y-100637280D01*
G04 #@! TO.C,J4*
X153375800Y-55366040D02*
X111675800Y-55366040D01*
X111675800Y-55366040D02*
X111675800Y-58966040D01*
X111675800Y-58966040D02*
X153375800Y-58966040D01*
X153375800Y-58966040D02*
X153375800Y-55366040D01*
G04 #@! TO.C,J5*
X111482760Y-104188200D02*
X153182760Y-104188200D01*
X153182760Y-104188200D02*
X153182760Y-100588200D01*
X153182760Y-100588200D02*
X111482760Y-100588200D01*
X111482760Y-100588200D02*
X111482760Y-104188200D01*
G04 #@! TO.C,J6*
X100494720Y-104172960D02*
X106644720Y-104172960D01*
X106644720Y-104172960D02*
X106644720Y-100572960D01*
X106644720Y-100572960D02*
X100494720Y-100572960D01*
X100494720Y-100572960D02*
X100494720Y-104172960D01*
G04 #@! TO.C,SW1*
X101378080Y-63565840D02*
X106178080Y-63565840D01*
X106178080Y-63565840D02*
X106178080Y-60265840D01*
X106178080Y-60265840D02*
X101378080Y-60265840D01*
X101378080Y-60265840D02*
X101378080Y-63565840D01*
G04 #@! TO.C,Y1*
X121423240Y-83022560D02*
X121423240Y-77222560D01*
X121423240Y-77222560D02*
X112823240Y-77222560D01*
X112823240Y-77222560D02*
X112823240Y-83022560D01*
X112823240Y-83022560D02*
X121423240Y-83022560D01*
G04 #@! TO.C,C16*
X160510780Y-124539540D02*
X160510780Y-128139540D01*
X160510780Y-124539540D02*
X159210780Y-124539540D01*
X159210780Y-128139540D02*
X160510780Y-128139540D01*
X159210780Y-128139540D02*
X159210780Y-124539540D01*
G04 #@! TO.C,C17*
X150224260Y-131972400D02*
X150224260Y-128372400D01*
X150224260Y-131972400D02*
X151524260Y-131972400D01*
X151524260Y-128372400D02*
X150224260Y-128372400D01*
X151524260Y-128372400D02*
X151524260Y-131972400D01*
G04 #@! TO.C,C18*
X160074380Y-144271080D02*
X160074380Y-140671080D01*
X160074380Y-144271080D02*
X161374380Y-144271080D01*
X161374380Y-140671080D02*
X160074380Y-140671080D01*
X161374380Y-140671080D02*
X161374380Y-144271080D01*
G04 #@! TO.C,C19*
X185977300Y-115873880D02*
X185977300Y-112273880D01*
X185977300Y-115873880D02*
X187277300Y-115873880D01*
X187277300Y-112273880D02*
X185977300Y-112273880D01*
X187277300Y-112273880D02*
X187277300Y-115873880D01*
G04 #@! TO.C,C20*
X195710100Y-108367360D02*
X195710100Y-111967360D01*
X195710100Y-108367360D02*
X194410100Y-108367360D01*
X194410100Y-111967360D02*
X195710100Y-111967360D01*
X194410100Y-111967360D02*
X194410100Y-108367360D01*
G04 #@! TO.C,C21*
X186667700Y-95931480D02*
X186667700Y-99531480D01*
X186667700Y-95931480D02*
X185367700Y-95931480D01*
X185367700Y-99531480D02*
X186667700Y-99531480D01*
X185367700Y-99531480D02*
X185367700Y-95931480D01*
G04 #@! TO.C,J10*
X177317340Y-100654200D02*
X177317340Y-94504200D01*
X177317340Y-94504200D02*
X173717340Y-94504200D01*
X173717340Y-94504200D02*
X173717340Y-100654200D01*
X173717340Y-100654200D02*
X177317340Y-100654200D01*
G04 #@! TO.C,R5*
X147570420Y-124494000D02*
X151480420Y-124494000D01*
X147570420Y-124494000D02*
X147570420Y-125894000D01*
X151480420Y-125894000D02*
X151480420Y-124494000D01*
X151480420Y-125894000D02*
X147570420Y-125894000D01*
G04 #@! TO.C,R6*
X149910100Y-124134120D02*
X149910100Y-120224120D01*
X149910100Y-124134120D02*
X151310100Y-124134120D01*
X151310100Y-120224120D02*
X149910100Y-120224120D01*
X151310100Y-120224120D02*
X151310100Y-124134120D01*
G04 #@! TO.C,R7*
X198322940Y-115861000D02*
X194412940Y-115861000D01*
X198322940Y-115861000D02*
X198322940Y-114461000D01*
X194412940Y-114461000D02*
X194412940Y-115861000D01*
X194412940Y-114461000D02*
X198322940Y-114461000D01*
G04 #@! TO.C,R8*
X195993780Y-116228680D02*
X195993780Y-120138680D01*
X195993780Y-116228680D02*
X194593780Y-116228680D01*
X194593780Y-120138680D02*
X195993780Y-120138680D01*
X194593780Y-120138680D02*
X194593780Y-116228680D01*
G04 #@! TO.C,J7*
X177276700Y-117103240D02*
X177276700Y-110953240D01*
X177276700Y-110953240D02*
X173676700Y-110953240D01*
X173676700Y-110953240D02*
X173676700Y-117103240D01*
X173676700Y-117103240D02*
X177276700Y-117103240D01*
G04 #@! TO.C,J8*
X168591620Y-139644920D02*
X168591620Y-145794920D01*
X168591620Y-145794920D02*
X172191620Y-145794920D01*
X172191620Y-145794920D02*
X172191620Y-139644920D01*
X172191620Y-139644920D02*
X168591620Y-139644920D01*
G04 #@! TO.C,D4*
X194598860Y-124233000D02*
X194598860Y-120323000D01*
X194598860Y-124233000D02*
X195998860Y-124233000D01*
X195998860Y-120323000D02*
X194598860Y-120323000D01*
X195998860Y-120323000D02*
X195998860Y-124233000D01*
G04 #@! TO.C,D5*
X151297400Y-116101680D02*
X151297400Y-120011680D01*
X151297400Y-116101680D02*
X149897400Y-116101680D01*
X149897400Y-120011680D02*
X151297400Y-120011680D01*
X149897400Y-120011680D02*
X149897400Y-116101680D01*
G04 #@! TO.C,R9*
X198356140Y-125934640D02*
X194446140Y-125934640D01*
X198356140Y-125934640D02*
X198356140Y-124534640D01*
X194446140Y-124534640D02*
X194446140Y-125934640D01*
X194446140Y-124534640D02*
X198356140Y-124534640D01*
G04 #@! TO.C,R10*
X147534860Y-114537200D02*
X151444860Y-114537200D01*
X147534860Y-114537200D02*
X147534860Y-115937200D01*
X151444860Y-115937200D02*
X151444860Y-114537200D01*
X151444860Y-115937200D02*
X147534860Y-115937200D01*
G04 #@! TO.C,J13*
X168667820Y-127574840D02*
X168667820Y-138774840D01*
X168667820Y-138774840D02*
X172267820Y-138774840D01*
X172267820Y-138774840D02*
X172267820Y-127574840D01*
X172267820Y-127574840D02*
X168667820Y-127574840D01*
G04 #@! TO.C,J14*
X173732580Y-94316900D02*
X187482580Y-94316900D01*
X187482580Y-94316900D02*
X187482580Y-90716900D01*
X187482580Y-90716900D02*
X173732580Y-90716900D01*
X173732580Y-90716900D02*
X173732580Y-94316900D01*
G04 #@! TO.C,J12*
X173694480Y-100788000D02*
X173694480Y-109438000D01*
X173694480Y-109438000D02*
X177294480Y-109438000D01*
X177294480Y-109438000D02*
X177294480Y-100788000D01*
X177294480Y-100788000D02*
X173694480Y-100788000D01*
G04 #@! TO.C,J15*
X150872580Y-149485700D02*
X172222580Y-149485700D01*
X172222580Y-149485700D02*
X172222580Y-145885700D01*
X172222580Y-145885700D02*
X150872580Y-145885700D01*
X150872580Y-145885700D02*
X150872580Y-149485700D01*
G04 #@! TD*
M02*
