G04 #@! TF.GenerationSoftware,KiCad,Pcbnew,5.0.1-33cea8e~68~ubuntu16.04.1*
G04 #@! TF.CreationDate,2018-10-29T02:33:34-07:00*
G04 #@! TF.ProjectId,integrated-board-design-2,696E74656772617465642D626F617264,rev?*
G04 #@! TF.SameCoordinates,Original*
G04 #@! TF.FileFunction,Copper,L4,Bot,Signal*
G04 #@! TF.FilePolarity,Positive*
%FSLAX46Y46*%
G04 Gerber Fmt 4.6, Leading zero omitted, Abs format (unit mm)*
G04 Created by KiCad (PCBNEW 5.0.1-33cea8e~68~ubuntu16.04.1) date Mon 29 Oct 2018 02:33:34 AM PDT*
%MOMM*%
%LPD*%
G01*
G04 APERTURE LIST*
G04 #@! TA.AperFunction,ComponentPad*
%ADD10C,2.184400*%
G04 #@! TD*
G04 #@! TA.AperFunction,ComponentPad*
%ADD11R,1.730000X2.030000*%
G04 #@! TD*
G04 #@! TA.AperFunction,ComponentPad*
%ADD12O,1.730000X2.030000*%
G04 #@! TD*
G04 #@! TA.AperFunction,ComponentPad*
%ADD13C,3.200000*%
G04 #@! TD*
G04 #@! TA.AperFunction,ComponentPad*
%ADD14R,1.700000X1.700000*%
G04 #@! TD*
G04 #@! TA.AperFunction,ComponentPad*
%ADD15O,1.700000X1.700000*%
G04 #@! TD*
G04 #@! TA.AperFunction,SMDPad,CuDef*
%ADD16R,4.064000X1.524000*%
G04 #@! TD*
G04 #@! TA.AperFunction,WasherPad*
%ADD17C,3.000000*%
G04 #@! TD*
G04 #@! TA.AperFunction,WasherPad*
%ADD18C,1.350000*%
G04 #@! TD*
G04 #@! TA.AperFunction,WasherPad*
%ADD19C,1.600000*%
G04 #@! TD*
G04 #@! TA.AperFunction,SMDPad,CuDef*
%ADD20R,3.200000X3.200000*%
G04 #@! TD*
G04 #@! TA.AperFunction,Conductor*
%ADD21C,0.100000*%
G04 #@! TD*
G04 #@! TA.AperFunction,SMDPad,CuDef*
%ADD22C,4.000000*%
G04 #@! TD*
G04 #@! TA.AperFunction,ComponentPad*
%ADD23C,1.778000*%
G04 #@! TD*
G04 #@! TA.AperFunction,ViaPad*
%ADD24C,0.800000*%
G04 #@! TD*
G04 #@! TA.AperFunction,ViaPad*
%ADD25C,1.676400*%
G04 #@! TD*
G04 #@! TA.AperFunction,ViaPad*
%ADD26C,0.906400*%
G04 #@! TD*
G04 #@! TA.AperFunction,Conductor*
%ADD27C,0.250000*%
G04 #@! TD*
G04 #@! TA.AperFunction,Conductor*
%ADD28C,0.508000*%
G04 #@! TD*
G04 #@! TA.AperFunction,Conductor*
%ADD29C,0.406400*%
G04 #@! TD*
G04 #@! TA.AperFunction,Conductor*
%ADD30C,0.600000*%
G04 #@! TD*
G04 #@! TA.AperFunction,Conductor*
%ADD31C,0.254000*%
G04 #@! TD*
G04 #@! TA.AperFunction,Conductor*
%ADD32C,0.406000*%
G04 #@! TD*
G04 APERTURE END LIST*
D10*
G04 #@! TO.P,U$2,RFGND2*
G04 #@! TO.N,GND*
X79193410Y-47354861D03*
G04 #@! TO.P,U$2,0V*
X104593410Y-47354861D03*
G04 #@! TO.P,U$2,VCC*
G04 #@! TO.N,VCC*
X102053410Y-47354861D03*
G04 #@! TO.P,U$2,EN*
G04 #@! TO.N,/D4*
X99513410Y-47354861D03*
G04 #@! TO.P,U$2,TXD*
G04 #@! TO.N,/D3*
X107133410Y-47354861D03*
G04 #@! TO.P,U$2,GND*
G04 #@! TO.N,GND*
X84273410Y-47354861D03*
G04 #@! TO.P,U$2,RFOUT*
G04 #@! TO.N,PB4*
X81733410Y-47354861D03*
G04 #@! TD*
D11*
G04 #@! TO.P,,1*
G04 #@! TO.N,/CSB*
X205704203Y-135033068D03*
D12*
G04 #@! TO.P,,2*
G04 #@! TO.N,/SDO*
X203164203Y-135033068D03*
G04 #@! TO.P,,3*
G04 #@! TO.N,/SDI*
X200624203Y-135033068D03*
G04 #@! TO.P,,4*
G04 #@! TO.N,/SCLK*
X198084203Y-135033068D03*
G04 #@! TD*
D13*
G04 #@! TO.P,U$8,P$1*
G04 #@! TO.N,N/C*
X76575000Y-150960000D03*
G04 #@! TD*
G04 #@! TO.P,U$8,P$1*
G04 #@! TO.N,N/C*
X76575000Y-91810000D03*
G04 #@! TD*
G04 #@! TO.P,U$8,P$1*
G04 #@! TO.N,N/C*
X168750000Y-32910000D03*
G04 #@! TD*
G04 #@! TO.P,U$8,P$1*
G04 #@! TO.N,N/C*
X120850000Y-32785000D03*
G04 #@! TD*
G04 #@! TO.P,U$8,P$1*
G04 #@! TO.N,N/C*
X120850000Y-151110000D03*
G04 #@! TD*
G04 #@! TO.P,U$9,P$1*
G04 #@! TO.N,N/C*
X76450000Y-56260000D03*
G04 #@! TD*
G04 #@! TO.P,U$9,P$1*
G04 #@! TO.N,N/C*
X214350000Y-32785000D03*
G04 #@! TD*
G04 #@! TO.P,U$8,P$1*
G04 #@! TO.N,N/C*
X214350000Y-150960000D03*
G04 #@! TD*
D14*
G04 #@! TO.P,J9,1*
G04 #@! TO.N,Net-(J2-Pad1)*
X106196480Y-61504400D03*
D15*
G04 #@! TO.P,J9,2*
G04 #@! TO.N,Net-(J2-Pad2)*
X106196480Y-64044400D03*
G04 #@! TO.P,J9,3*
G04 #@! TO.N,Net-(J2-Pad3)*
X106196480Y-66584400D03*
G04 #@! TO.P,J9,4*
G04 #@! TO.N,Net-(J2-Pad4)*
X106196480Y-69124400D03*
G04 #@! TO.P,J9,5*
G04 #@! TO.N,Net-(J2-Pad5)*
X106196480Y-71664400D03*
G04 #@! TO.P,J9,6*
G04 #@! TO.N,Net-(J2-Pad6)*
X106196480Y-74204400D03*
G04 #@! TO.P,J9,7*
G04 #@! TO.N,Net-(J2-Pad7)*
X106196480Y-76744400D03*
G04 #@! TO.P,J9,8*
G04 #@! TO.N,Net-(J2-Pad8)*
X106196480Y-79284400D03*
G04 #@! TO.P,J9,9*
G04 #@! TO.N,Net-(J2-Pad10)*
X106196480Y-81824400D03*
G04 #@! TO.P,J9,10*
G04 #@! TO.N,Net-(J2-Pad9)*
X106196480Y-84364400D03*
G04 #@! TO.P,J9,11*
G04 #@! TO.N,Net-(J2-Pad11)*
X106196480Y-86904400D03*
G04 #@! TD*
D14*
G04 #@! TO.P,,1*
G04 #@! TO.N,+3V3*
X199744203Y-150433068D03*
D15*
G04 #@! TO.P,,2*
G04 #@! TO.N,GND*
X202284203Y-150433068D03*
G04 #@! TD*
G04 #@! TO.P,J2,2*
G04 #@! TO.N,Net-(C1-Pad1)*
X196164160Y-51151700D03*
D14*
G04 #@! TO.P,J2,1*
G04 #@! TO.N,Net-(C1-Pad2)*
X193624160Y-51151700D03*
G04 #@! TD*
D15*
G04 #@! TO.P,J1,9*
G04 #@! TO.N,Net-(J1-Pad9)*
X211909161Y-72486699D03*
G04 #@! TO.P,J1,8*
G04 #@! TO.N,Net-(J1-Pad8)*
X209369161Y-72486699D03*
G04 #@! TO.P,J1,7*
G04 #@! TO.N,Net-(J1-Pad7)*
X206829161Y-72486699D03*
G04 #@! TO.P,J1,6*
G04 #@! TO.N,Net-(J1-Pad6)*
X204289161Y-72486699D03*
G04 #@! TO.P,J1,5*
G04 #@! TO.N,Net-(J1-Pad5)*
X201749161Y-72486699D03*
G04 #@! TO.P,J1,4*
G04 #@! TO.N,Net-(D1-Pad1)*
X199209161Y-72486699D03*
G04 #@! TO.P,J1,3*
G04 #@! TO.N,Net-(D2-Pad1)*
X196669161Y-72486699D03*
G04 #@! TO.P,J1,2*
G04 #@! TO.N,Net-(J1-Pad2)*
X194129161Y-72486699D03*
D14*
G04 #@! TO.P,J1,1*
G04 #@! TO.N,Net-(J1-Pad1)*
X191589161Y-72486699D03*
G04 #@! TD*
G04 #@! TO.P,J1,1*
G04 #@! TO.N,GND*
X146118000Y-148619000D03*
D15*
G04 #@! TO.P,J1,2*
G04 #@! TO.N,VDD*
X148658000Y-148619000D03*
G04 #@! TO.P,J1,3*
G04 #@! TO.N,VDDIO*
X151198000Y-148619000D03*
G04 #@! TD*
D14*
G04 #@! TO.P,J2,1*
G04 #@! TO.N,INT*
X142054000Y-121949000D03*
D15*
G04 #@! TO.P,J2,2*
G04 #@! TO.N,FSYNC*
X144594000Y-121949000D03*
G04 #@! TO.P,J2,3*
G04 #@! TO.N,nCS*
X147134000Y-121949000D03*
G04 #@! TO.P,J2,4*
G04 #@! TO.N,SCL*
X149674000Y-121949000D03*
G04 #@! TO.P,J2,5*
G04 #@! TO.N,SDA*
X152214000Y-121949000D03*
G04 #@! TO.P,J2,6*
G04 #@! TO.N,AD0*
X154754000Y-121949000D03*
G04 #@! TD*
D16*
G04 #@! TO.P,J$1,GND@1*
G04 #@! TO.N,GND*
X76018410Y-42249461D03*
G04 #@! TO.P,J$1,SIG*
G04 #@! TO.N,PB4*
X76018410Y-44789461D03*
G04 #@! TO.P,J$1,GND@0*
G04 #@! TO.N,GND*
X76018410Y-47329461D03*
G04 #@! TD*
D14*
G04 #@! TO.P,REF\002A\002A,1*
G04 #@! TO.N,GND*
X79175000Y-50710000D03*
D15*
G04 #@! TO.P,REF\002A\002A,2*
G04 #@! TO.N,PB4*
X81715000Y-50710000D03*
G04 #@! TO.P,REF\002A\002A,3*
G04 #@! TO.N,GND*
X84255000Y-50710000D03*
G04 #@! TD*
D14*
G04 #@! TO.P,REF\002A\002A,1*
G04 #@! TO.N,/D4*
X99550000Y-51010000D03*
D15*
G04 #@! TO.P,REF\002A\002A,2*
G04 #@! TO.N,VCC*
X102090000Y-51010000D03*
G04 #@! TO.P,REF\002A\002A,3*
G04 #@! TO.N,GND*
X104630000Y-51010000D03*
G04 #@! TO.P,REF\002A\002A,4*
G04 #@! TO.N,/D3*
X107170000Y-51010000D03*
G04 #@! TD*
D14*
G04 #@! TO.P,J1,1*
G04 #@! TO.N,Net-(J1-Pad1)*
X77650000Y-134365000D03*
D15*
G04 #@! TO.P,J1,2*
G04 #@! TO.N,Net-(J1-Pad2)*
X77650000Y-131825000D03*
G04 #@! TD*
D14*
G04 #@! TO.P,J2,1*
G04 #@! TO.N,+3V3*
X104320000Y-128015000D03*
D15*
G04 #@! TO.P,J2,2*
G04 #@! TO.N,Net-(C2-Pad2)*
X104320000Y-130555000D03*
G04 #@! TO.P,J2,3*
G04 #@! TO.N,Net-(J2-Pad3)*
X104320000Y-133095000D03*
G04 #@! TO.P,J2,4*
G04 #@! TO.N,Net-(J2-Pad4)*
X104320000Y-135635000D03*
G04 #@! TO.P,J2,5*
G04 #@! TO.N,Net-(J2-Pad5)*
X104320000Y-138175000D03*
G04 #@! TD*
D14*
G04 #@! TO.P,J10,1*
G04 #@! TO.N,Net-(C16-Pad2)*
X190567340Y-100514200D03*
D15*
G04 #@! TO.P,J10,2*
G04 #@! TO.N,Net-(C21-Pad1)*
X190567340Y-97974200D03*
G04 #@! TD*
D14*
G04 #@! TO.P,J7,1*
G04 #@! TO.N,Net-(C16-Pad1)*
X190526700Y-116963240D03*
D15*
G04 #@! TO.P,J7,2*
G04 #@! TO.N,Net-(C16-Pad2)*
X190526700Y-114423240D03*
G04 #@! TD*
D14*
G04 #@! TO.P,J8,1*
G04 #@! TO.N,Net-(C16-Pad2)*
X185441620Y-143104920D03*
D15*
G04 #@! TO.P,J8,2*
G04 #@! TO.N,Net-(C18-Pad1)*
X185441620Y-145644920D03*
G04 #@! TD*
D14*
G04 #@! TO.P,J13,1*
G04 #@! TO.N,Net-(C16-Pad2)*
X185517820Y-131034840D03*
D15*
G04 #@! TO.P,J13,2*
X185517820Y-133574840D03*
G04 #@! TO.P,J13,3*
X185517820Y-136114840D03*
G04 #@! TO.P,J13,4*
X185517820Y-138654840D03*
G04 #@! TD*
D14*
G04 #@! TO.P,J14,1*
G04 #@! TO.N,Net-(C21-Pad1)*
X190582580Y-94176900D03*
D15*
G04 #@! TO.P,J14,2*
X193122580Y-94176900D03*
G04 #@! TO.P,J14,3*
X195662580Y-94176900D03*
G04 #@! TO.P,J14,4*
X198202580Y-94176900D03*
G04 #@! TO.P,J14,5*
X200742580Y-94176900D03*
G04 #@! TD*
D14*
G04 #@! TO.P,J12,1*
G04 #@! TO.N,Net-(C16-Pad2)*
X190544480Y-104248000D03*
D15*
G04 #@! TO.P,J12,2*
X190544480Y-106788000D03*
G04 #@! TO.P,J12,3*
X190544480Y-109328000D03*
G04 #@! TD*
D14*
G04 #@! TO.P,J15,1*
G04 #@! TO.N,Net-(C18-Pad1)*
X167722580Y-149345700D03*
D15*
G04 #@! TO.P,J15,2*
X170262580Y-149345700D03*
G04 #@! TO.P,J15,3*
X172802580Y-149345700D03*
G04 #@! TO.P,J15,4*
X175342580Y-149345700D03*
G04 #@! TO.P,J15,5*
X177882580Y-149345700D03*
G04 #@! TO.P,J15,6*
X180422580Y-149345700D03*
G04 #@! TO.P,J15,7*
X182962580Y-149345700D03*
G04 #@! TO.P,J15,8*
X185502580Y-149345700D03*
G04 #@! TD*
D17*
G04 #@! TO.N,*
G04 #@! TO.C,U1*
X94391015Y-109204309D03*
G04 #@! TD*
D15*
G04 #@! TO.P,JP2,5*
G04 #@! TO.N,GND*
X131990080Y-140729560D03*
G04 #@! TO.P,JP2,4*
G04 #@! TO.N,VCC*
X131990080Y-138189560D03*
G04 #@! TO.P,JP2,3*
G04 #@! TO.N,/SDA*
X131990080Y-135649560D03*
G04 #@! TO.P,JP2,2*
G04 #@! TO.N,/SCL*
X131990080Y-133109560D03*
D14*
G04 #@! TO.P,JP2,1*
G04 #@! TO.N,/SQW*
X131990080Y-130569560D03*
G04 #@! TD*
D18*
G04 #@! TO.P,B1,*
G04 #@! TO.N,*
X129140080Y-122949560D03*
D19*
X121690080Y-122949560D03*
G04 #@! TD*
D13*
G04 #@! TO.P,U$8,P$1*
G04 #@! TO.N,N/C*
X80367015Y-118056309D03*
G04 #@! TD*
G04 #@! TO.P,U$9,P$1*
G04 #@! TO.N,N/C*
X80367015Y-97736309D03*
G04 #@! TD*
D20*
G04 #@! TO.P,B1,+$2*
G04 #@! TO.N,Net-(B1-Pad+$1)*
X85066015Y-116121709D03*
G04 #@! TO.P,B1,+$1*
X85066015Y-99670909D03*
D21*
G04 #@! TD*
G04 #@! TO.N,GND*
G04 #@! TO.C,B1*
G36*
X85262050Y-105905939D02*
X85456197Y-105934737D01*
X85646585Y-105982427D01*
X85831383Y-106048549D01*
X86008809Y-106132465D01*
X86177156Y-106233369D01*
X86334803Y-106350287D01*
X86480230Y-106482094D01*
X86612037Y-106627521D01*
X86728955Y-106785168D01*
X86829859Y-106953515D01*
X86913775Y-107130941D01*
X86979897Y-107315739D01*
X87027587Y-107506127D01*
X87056385Y-107700274D01*
X87066016Y-107896308D01*
X87066016Y-107896310D01*
X87056385Y-108092344D01*
X87027587Y-108286491D01*
X86979897Y-108476879D01*
X86913775Y-108661677D01*
X86829859Y-108839103D01*
X86728955Y-109007450D01*
X86612037Y-109165097D01*
X86480230Y-109310524D01*
X86334803Y-109442331D01*
X86177156Y-109559249D01*
X86008809Y-109660153D01*
X85831383Y-109744069D01*
X85646585Y-109810191D01*
X85456197Y-109857881D01*
X85262050Y-109886679D01*
X85066016Y-109896310D01*
X85066014Y-109896310D01*
X84869980Y-109886679D01*
X84675833Y-109857881D01*
X84485445Y-109810191D01*
X84300647Y-109744069D01*
X84123221Y-109660153D01*
X83954874Y-109559249D01*
X83797227Y-109442331D01*
X83651800Y-109310524D01*
X83519993Y-109165097D01*
X83403075Y-109007450D01*
X83302171Y-108839103D01*
X83218255Y-108661677D01*
X83152133Y-108476879D01*
X83104443Y-108286491D01*
X83075645Y-108092344D01*
X83066014Y-107896310D01*
X83066014Y-107896308D01*
X83075645Y-107700274D01*
X83104443Y-107506127D01*
X83152133Y-107315739D01*
X83218255Y-107130941D01*
X83302171Y-106953515D01*
X83403075Y-106785168D01*
X83519993Y-106627521D01*
X83651800Y-106482094D01*
X83797227Y-106350287D01*
X83954874Y-106233369D01*
X84123221Y-106132465D01*
X84300647Y-106048549D01*
X84485445Y-105982427D01*
X84675833Y-105934737D01*
X84869980Y-105905939D01*
X85066014Y-105896308D01*
X85066016Y-105896308D01*
X85262050Y-105905939D01*
X85262050Y-105905939D01*
G37*
D22*
G04 #@! TO.P,B1,-*
G04 #@! TO.N,GND*
X85066015Y-107896309D03*
G04 #@! TD*
D23*
G04 #@! TO.P,JP1,9*
G04 #@! TO.N,3.3V*
X110085015Y-118056309D03*
G04 #@! TO.P,JP1,8*
G04 #@! TO.N,/ENABLE*
X110085015Y-115516309D03*
G04 #@! TO.P,JP1,7*
G04 #@! TO.N,/VBACKUP*
X110085015Y-112976309D03*
G04 #@! TO.P,JP1,6*
G04 #@! TO.N,/FIX*
X110085015Y-110436309D03*
G04 #@! TO.P,JP1,5*
G04 #@! TO.N,/TX*
X110085015Y-107896309D03*
G04 #@! TO.P,JP1,4*
G04 #@! TO.N,/RX*
X110085015Y-105356309D03*
G04 #@! TO.P,JP1,3*
G04 #@! TO.N,GND*
X110085015Y-102816309D03*
G04 #@! TO.P,JP1,2*
G04 #@! TO.N,VIN*
X110085015Y-100276309D03*
G04 #@! TO.P,JP1,1*
G04 #@! TO.N,/1PPS*
X110085015Y-97736309D03*
G04 #@! TD*
D14*
G04 #@! TO.P,J1,1*
G04 #@! TO.N,+3V3*
X120173120Y-93008520D03*
D15*
G04 #@! TO.P,J1,2*
X117633120Y-93008520D03*
G04 #@! TO.P,J1,3*
G04 #@! TO.N,PB4*
X120173120Y-90468520D03*
G04 #@! TO.P,J1,4*
G04 #@! TO.N,GND*
X117633120Y-90468520D03*
G04 #@! TO.P,J1,5*
G04 #@! TO.N,PA15*
X120173120Y-87928520D03*
G04 #@! TO.P,J1,6*
G04 #@! TO.N,GND*
X117633120Y-87928520D03*
G04 #@! TO.P,J1,7*
G04 #@! TO.N,PA13*
X120173120Y-85388520D03*
G04 #@! TO.P,J1,8*
G04 #@! TO.N,GND*
X117633120Y-85388520D03*
G04 #@! TO.P,J1,9*
G04 #@! TO.N,PA14*
X120173120Y-82848520D03*
G04 #@! TO.P,J1,10*
G04 #@! TO.N,GND*
X117633120Y-82848520D03*
G04 #@! TO.P,J1,11*
G04 #@! TO.N,Net-(10k1-Pad2)*
X120173120Y-80308520D03*
G04 #@! TO.P,J1,12*
G04 #@! TO.N,GND*
X117633120Y-80308520D03*
G04 #@! TO.P,J1,13*
G04 #@! TO.N,PB3*
X120173120Y-77768520D03*
G04 #@! TO.P,J1,14*
G04 #@! TO.N,GND*
X117633120Y-77768520D03*
G04 #@! TO.P,J1,15*
G04 #@! TO.N,RST*
X120173120Y-75228520D03*
G04 #@! TO.P,J1,16*
G04 #@! TO.N,GND*
X117633120Y-75228520D03*
G04 #@! TO.P,J1,17*
G04 #@! TO.N,Net-(10k3-Pad2)*
X120173120Y-72688520D03*
G04 #@! TO.P,J1,18*
G04 #@! TO.N,GND*
X117633120Y-72688520D03*
G04 #@! TO.P,J1,19*
G04 #@! TO.N,Net-(10k2-Pad2)*
X120173120Y-70148520D03*
G04 #@! TO.P,J1,20*
G04 #@! TO.N,GND*
X117633120Y-70148520D03*
G04 #@! TD*
D14*
G04 #@! TO.P,J3,1*
G04 #@! TO.N,PA0*
X173000040Y-99597280D03*
D15*
G04 #@! TO.P,J3,2*
G04 #@! TO.N,PA1*
X173000040Y-97057280D03*
G04 #@! TO.P,J3,3*
G04 #@! TO.N,PA2*
X173000040Y-94517280D03*
G04 #@! TO.P,J3,4*
G04 #@! TO.N,PA3*
X173000040Y-91977280D03*
G04 #@! TO.P,J3,5*
G04 #@! TO.N,PA4*
X173000040Y-89437280D03*
G04 #@! TO.P,J3,6*
G04 #@! TO.N,PA5*
X173000040Y-86897280D03*
G04 #@! TO.P,J3,7*
G04 #@! TO.N,PA6*
X173000040Y-84357280D03*
G04 #@! TO.P,J3,8*
G04 #@! TO.N,PA7*
X173000040Y-81817280D03*
G04 #@! TO.P,J3,9*
G04 #@! TO.N,PA8*
X173000040Y-79277280D03*
G04 #@! TO.P,J3,10*
G04 #@! TO.N,PA9*
X173000040Y-76737280D03*
G04 #@! TO.P,J3,11*
G04 #@! TO.N,PA10*
X173000040Y-74197280D03*
G04 #@! TO.P,J3,12*
G04 #@! TO.N,PA11*
X173000040Y-71657280D03*
G04 #@! TO.P,J3,13*
G04 #@! TO.N,PA12*
X173000040Y-69117280D03*
G04 #@! TO.P,J3,14*
G04 #@! TO.N,PA13*
X173000040Y-66577280D03*
G04 #@! TO.P,J3,15*
G04 #@! TO.N,PA14*
X173000040Y-64037280D03*
G04 #@! TO.P,J3,16*
G04 #@! TO.N,PA15*
X173000040Y-61497280D03*
G04 #@! TD*
D14*
G04 #@! TO.P,J4,1*
G04 #@! TO.N,PB0*
X167015800Y-57926040D03*
D15*
G04 #@! TO.P,J4,2*
G04 #@! TO.N,PB1*
X164475800Y-57926040D03*
G04 #@! TO.P,J4,3*
G04 #@! TO.N,PB2*
X161935800Y-57926040D03*
G04 #@! TO.P,J4,4*
G04 #@! TO.N,PB3*
X159395800Y-57926040D03*
G04 #@! TO.P,J4,5*
G04 #@! TO.N,PB4*
X156855800Y-57926040D03*
G04 #@! TO.P,J4,6*
G04 #@! TO.N,PB5*
X154315800Y-57926040D03*
G04 #@! TO.P,J4,7*
G04 #@! TO.N,PB6*
X151775800Y-57926040D03*
G04 #@! TO.P,J4,8*
G04 #@! TO.N,PB7*
X149235800Y-57926040D03*
G04 #@! TO.P,J4,9*
G04 #@! TO.N,PB8*
X146695800Y-57926040D03*
G04 #@! TO.P,J4,10*
G04 #@! TO.N,PB9*
X144155800Y-57926040D03*
G04 #@! TO.P,J4,11*
G04 #@! TO.N,PB10*
X141615800Y-57926040D03*
G04 #@! TO.P,J4,12*
G04 #@! TO.N,PB11*
X139075800Y-57926040D03*
G04 #@! TO.P,J4,13*
G04 #@! TO.N,PB12*
X136535800Y-57926040D03*
G04 #@! TO.P,J4,14*
G04 #@! TO.N,PB13*
X133995800Y-57926040D03*
G04 #@! TO.P,J4,15*
G04 #@! TO.N,PB14*
X131455800Y-57926040D03*
G04 #@! TO.P,J4,16*
G04 #@! TO.N,PB15*
X128915800Y-57926040D03*
G04 #@! TD*
D14*
G04 #@! TO.P,J5,1*
G04 #@! TO.N,PC0*
X128722760Y-103148200D03*
D15*
G04 #@! TO.P,J5,2*
G04 #@! TO.N,PC1*
X131262760Y-103148200D03*
G04 #@! TO.P,J5,3*
G04 #@! TO.N,PC2*
X133802760Y-103148200D03*
G04 #@! TO.P,J5,4*
G04 #@! TO.N,PC3*
X136342760Y-103148200D03*
G04 #@! TO.P,J5,5*
G04 #@! TO.N,PC4*
X138882760Y-103148200D03*
G04 #@! TO.P,J5,6*
G04 #@! TO.N,PC5*
X141422760Y-103148200D03*
G04 #@! TO.P,J5,7*
G04 #@! TO.N,PC6*
X143962760Y-103148200D03*
G04 #@! TO.P,J5,8*
G04 #@! TO.N,PC7*
X146502760Y-103148200D03*
G04 #@! TO.P,J5,9*
G04 #@! TO.N,PC8*
X149042760Y-103148200D03*
G04 #@! TO.P,J5,10*
G04 #@! TO.N,PC9*
X151582760Y-103148200D03*
G04 #@! TO.P,J5,11*
G04 #@! TO.N,PC10*
X154122760Y-103148200D03*
G04 #@! TO.P,J5,12*
G04 #@! TO.N,PC11*
X156662760Y-103148200D03*
G04 #@! TO.P,J5,13*
G04 #@! TO.N,PC12*
X159202760Y-103148200D03*
G04 #@! TO.P,J5,14*
G04 #@! TO.N,PC13*
X161742760Y-103148200D03*
G04 #@! TO.P,J5,15*
G04 #@! TO.N,Net-(J5-Pad15)*
X164282760Y-103148200D03*
G04 #@! TO.P,J5,16*
G04 #@! TO.N,PD2*
X166822760Y-103148200D03*
G04 #@! TD*
D14*
G04 #@! TO.P,J6,1*
G04 #@! TO.N,GND*
X117734720Y-103132960D03*
D15*
G04 #@! TO.P,J6,2*
G04 #@! TO.N,+3V3*
X120274720Y-103132960D03*
G04 #@! TD*
D24*
G04 #@! TO.N,*
X125390000Y-71585014D03*
X122615000Y-77110000D03*
G04 #@! TO.N,GND*
X145864000Y-133887000D03*
X153250000Y-141410000D03*
X154675000Y-134060000D03*
D25*
X74977010Y-47329461D03*
D26*
X99290015Y-96212309D03*
X98568415Y-99597409D03*
X104878015Y-115008309D03*
X107368415Y-119397409D03*
X96496015Y-118437309D03*
X104380000Y-119470000D03*
X83168415Y-119597409D03*
X84568415Y-119797409D03*
X94568415Y-99597409D03*
X91768415Y-96597409D03*
X105768415Y-119397409D03*
X94968415Y-96797409D03*
X89968415Y-97397409D03*
X84090000Y-118660000D03*
X84768415Y-96997409D03*
X108768415Y-119397409D03*
X97168415Y-96797409D03*
X90968415Y-98397409D03*
X83669015Y-104213309D03*
X84939015Y-103133809D03*
X81129015Y-103070309D03*
X84390000Y-113390000D03*
X82272015Y-111325309D03*
X82907015Y-113611309D03*
X81002015Y-106118309D03*
X80113015Y-108975809D03*
X82145015Y-104213309D03*
X82780015Y-98879309D03*
X93568415Y-96997409D03*
X87768415Y-97197409D03*
D24*
X159790000Y-78310000D03*
X137390000Y-71585000D03*
X133665000Y-75435000D03*
X129889986Y-86135000D03*
X134990000Y-90459986D03*
X138725129Y-92768324D03*
X137390000Y-91959998D03*
X139290000Y-96109999D03*
X147090000Y-79610002D03*
X153890000Y-85410000D03*
X153490000Y-87410000D03*
X146119106Y-83164106D03*
X150315170Y-86410149D03*
X145865000Y-96035000D03*
X163540000Y-76770000D03*
X153727867Y-79998821D03*
X143610000Y-71220000D03*
X154490000Y-97520000D03*
G04 #@! TO.N,+3V3*
X155901577Y-89156190D03*
X142890000Y-63885000D03*
X159315000Y-79738600D03*
X137965000Y-90185000D03*
X139714913Y-94705536D03*
X139714913Y-91610000D03*
X161636080Y-76649996D03*
X147840000Y-62950000D03*
X143530000Y-72660000D03*
X159550000Y-72150000D03*
G04 #@! TO.N,RST*
X142440000Y-82573850D03*
D25*
G04 #@! TO.N,PB4*
X74977010Y-44789461D03*
D24*
X127326489Y-73334979D03*
X155672160Y-67776176D03*
G04 #@! TO.N,PB3*
X122649759Y-73784990D03*
X157270000Y-69290000D03*
G04 #@! TO.N,PA1*
X144365000Y-95310000D03*
G04 #@! TO.N,PA2*
X144315000Y-94285000D03*
G04 #@! TO.N,PA3*
X144390168Y-91460157D03*
G04 #@! TO.N,PA4*
X145741882Y-92235179D03*
G04 #@! TO.N,PA5*
X147315000Y-92009976D03*
G04 #@! TO.N,PA6*
X148490000Y-92110000D03*
G04 #@! TO.N,PA7*
X149637491Y-91980965D03*
G04 #@! TO.N,PB0*
X148964996Y-98535010D03*
G04 #@! TO.N,PB1*
X150141446Y-98535010D03*
G04 #@! TO.N,PB2*
X151515023Y-98560023D03*
G04 #@! TO.N,PB8*
X146370000Y-61930000D03*
X147480000Y-74990000D03*
G04 #@! TO.N,PB9*
X144839998Y-62050000D03*
X146728310Y-75717960D03*
G04 #@! TO.N,PB10*
X152790000Y-98635000D03*
G04 #@! TO.N,PB12*
X157970252Y-87844867D03*
X166091901Y-72635489D03*
X162960000Y-69240000D03*
G04 #@! TO.N,PB13*
X159711006Y-88058778D03*
X165327977Y-73280813D03*
X162220000Y-70020000D03*
G04 #@! TO.N,PB14*
X159325833Y-87135921D03*
X164628593Y-73995576D03*
X161577558Y-70786350D03*
G04 #@! TO.N,PB15*
X159815000Y-86259998D03*
X163948492Y-74728711D03*
X160834151Y-71455207D03*
G04 #@! TO.N,PC0*
X131389984Y-86135000D03*
X141190000Y-82535000D03*
G04 #@! TO.N,PC1*
X132440728Y-86123447D03*
X139790000Y-83010000D03*
G04 #@! TO.N,PC2*
X133440000Y-86085000D03*
X138690000Y-83685000D03*
G04 #@! TO.N,PC3*
X135415000Y-86585000D03*
X137715000Y-84460000D03*
G04 #@! TO.N,PC10*
X154403807Y-74988517D03*
G04 #@! TO.N,PC11*
X154580000Y-73700000D03*
G04 #@! TO.N,PC12*
X152950000Y-74110000D03*
G04 #@! TO.N,PC13*
X142865000Y-78535000D03*
G04 #@! TO.N,PD2*
X154540000Y-72190000D03*
G04 #@! TO.N,PB11*
X153609698Y-91723296D03*
X166790000Y-71870001D03*
X163610000Y-68450000D03*
G04 #@! TO.N,Net-(C16-Pad1)*
X170252420Y-125705920D03*
X205751460Y-117948760D03*
X165927593Y-128185190D03*
X210340000Y-115280000D03*
G04 #@! TO.N,Net-(C16-Pad2)*
X216284840Y-91954400D03*
X214583040Y-91954400D03*
X212683120Y-91939160D03*
X212698360Y-93493640D03*
X214567800Y-93493640D03*
X216300080Y-93493640D03*
X216284840Y-95231000D03*
X214537320Y-95210680D03*
X212683120Y-95246240D03*
X212667880Y-96739760D03*
X214491600Y-96724520D03*
X216269600Y-96739760D03*
X216249280Y-98548240D03*
X214491600Y-98527920D03*
X212637400Y-98527920D03*
X212637400Y-100026520D03*
X214476360Y-100041760D03*
X216234040Y-100041760D03*
X216249280Y-101829920D03*
X214491600Y-101829920D03*
X212637400Y-101814680D03*
X159556480Y-151669800D03*
X161293840Y-151690120D03*
X163173440Y-151690120D03*
X163193760Y-150135640D03*
X161354800Y-150135640D03*
X159576800Y-150135640D03*
X159576800Y-148337320D03*
X161334480Y-148357640D03*
X163234400Y-148357640D03*
X163275040Y-146889520D03*
X161395440Y-146889520D03*
X159617440Y-146869200D03*
X159617440Y-145131840D03*
X161395440Y-145152160D03*
X163295360Y-145091200D03*
X163295360Y-143577360D03*
X161456400Y-143618000D03*
X159597120Y-143577360D03*
X159597120Y-141860320D03*
X161415760Y-141819680D03*
X163295360Y-141799360D03*
X183240000Y-129540000D03*
X182149998Y-129531160D03*
X180811176Y-129505760D03*
X178290000Y-129520000D03*
X179430000Y-129480000D03*
X169010000Y-130030000D03*
X169000000Y-131170000D03*
X167950000Y-131170000D03*
X167940000Y-130090000D03*
X161970000Y-125490000D03*
X162000000Y-124480000D03*
X161990000Y-123510000D03*
X161990000Y-122520000D03*
X161990000Y-121509998D03*
X161990000Y-120560002D03*
X161989998Y-119600000D03*
X162010000Y-118600000D03*
X195490000Y-102140000D03*
X196570000Y-102150000D03*
X197610000Y-102114400D03*
X198670000Y-102130000D03*
X200033910Y-102104240D03*
X201390000Y-102090000D03*
X192790000Y-113620000D03*
X193880000Y-113610000D03*
X194970000Y-113590000D03*
X196030000Y-113610000D03*
X197210002Y-113610000D03*
X207070000Y-112600000D03*
X208130000Y-112620000D03*
X208110000Y-113560000D03*
X207070000Y-113560000D03*
X213920000Y-119420002D03*
X213910000Y-118300000D03*
X213920000Y-120529998D03*
X213930000Y-121570000D03*
X213930000Y-122630000D03*
X213950000Y-123680000D03*
X213930000Y-124640000D03*
X174750000Y-141089998D03*
X175950000Y-141090000D03*
X177249998Y-141090000D03*
X178420000Y-141070000D03*
X180760000Y-141060000D03*
X179580000Y-141019998D03*
G04 #@! TO.N,Net-(C17-Pad1)*
X172850000Y-132600000D03*
X172950000Y-127956360D03*
X171780000Y-132590000D03*
X171618940Y-127900480D03*
G04 #@! TO.N,Net-(C18-Pad1)*
X167430000Y-122340000D03*
G04 #@! TO.N,Net-(C20-Pad1)*
X204220000Y-111080000D03*
X203110000Y-111060000D03*
X203070000Y-115670000D03*
X204344300Y-115708480D03*
G04 #@! TO.N,Net-(C21-Pad1)*
X208510000Y-121020000D03*
G04 #@! TO.N,Net-(C1-Pad1)*
X209626160Y-48357700D03*
X207848160Y-49119700D03*
X206832160Y-49119700D03*
X205816160Y-49119700D03*
X211150160Y-51151700D03*
X210388160Y-47595714D03*
X129770080Y-130619560D03*
X129770080Y-136969560D03*
G04 #@! TO.N,VCC*
X128170000Y-139730000D03*
X125840000Y-138010000D03*
G04 #@! TO.N,Net-(D1-Pad2)*
X190830160Y-54707700D03*
X206832160Y-39975700D03*
G04 #@! TO.N,Net-(D2-Pad2)*
X194894160Y-60549700D03*
X201244160Y-54707700D03*
X203276160Y-43531700D03*
X201244160Y-43531700D03*
G04 #@! TO.N,Net-(J1-Pad1)*
X200228160Y-56231700D03*
X204800160Y-47087700D03*
X200228160Y-50135700D03*
G04 #@! TO.N,Net-(J1-Pad2)*
X202260160Y-48611700D03*
X203276160Y-44547700D03*
X202260160Y-52929700D03*
G04 #@! TO.N,Net-(J1-Pad5)*
X213944160Y-42261700D03*
X205816160Y-55723700D03*
G04 #@! TO.N,Net-(J1-Pad6)*
X212674160Y-42515700D03*
X207594160Y-53437700D03*
G04 #@! TO.N,Net-(J1-Pad7)*
X207086160Y-68423700D03*
X214452160Y-68423700D03*
G04 #@! TO.N,Net-(J1-Pad8)*
X209372160Y-64359700D03*
X212674160Y-64359700D03*
G04 #@! TO.N,Net-(R2-Pad2)*
X211889160Y-38220700D03*
X203530160Y-46071700D03*
G04 #@! TO.N,Net-(R3-Pad2)*
X203784160Y-47087700D03*
X203784160Y-49373700D03*
G04 #@! TO.N,Net-(C1-Pad2)*
X193647160Y-38220700D03*
D26*
G04 #@! TO.N,3.3V*
X104878015Y-96212309D03*
X91768415Y-99597409D03*
X97168415Y-99797409D03*
G04 #@! TO.N,VIN*
X106402015Y-99133309D03*
G04 #@! TO.N,/1PPS*
X95968415Y-99397409D03*
G04 #@! TO.N,/FIX*
X105568415Y-108597409D03*
X95168415Y-116997409D03*
G04 #@! TO.N,/VBACKUP*
X100496515Y-119389809D03*
G04 #@! TO.N,Net-(B1-Pad+$1)*
X97702515Y-119389809D03*
D24*
G04 #@! TO.N,VDD*
X151025000Y-134785000D03*
X148650000Y-141485000D03*
G04 #@! TD*
D27*
G04 #@! TO.N,*
X125389986Y-71585000D02*
X125390000Y-71585014D01*
X125365000Y-71585000D02*
X125389986Y-71585000D01*
G04 #@! TO.N,GND*
X146118000Y-143003000D02*
X146118000Y-148619000D01*
X145864000Y-133887000D02*
X142562000Y-133887000D01*
X142562000Y-133887000D02*
X141800000Y-134649000D01*
X141800000Y-134649000D02*
X141800000Y-138685000D01*
X141800000Y-138685000D02*
X146118000Y-143003000D01*
X153250000Y-141410000D02*
X151675000Y-142985000D01*
X146136000Y-142985000D02*
X146118000Y-143003000D01*
X151675000Y-142985000D02*
X146136000Y-142985000D01*
X154675000Y-134625685D02*
X154650000Y-134650685D01*
X154675000Y-134060000D02*
X154675000Y-134625685D01*
X154650000Y-140010000D02*
X153250000Y-141410000D01*
X154650000Y-134650685D02*
X154650000Y-140010000D01*
X79193410Y-47354861D02*
X79193410Y-46541590D01*
D28*
X104593410Y-50973410D02*
X104630000Y-51010000D01*
X104593410Y-47354861D02*
X104593410Y-50973410D01*
D29*
X99290015Y-96212309D02*
X99290015Y-96085309D01*
X104878015Y-115008309D02*
X105132015Y-115008309D01*
D30*
X117633120Y-80308520D02*
X117633120Y-82848520D01*
D27*
X136824315Y-91959998D02*
X137390000Y-91959998D01*
X136490012Y-91959998D02*
X136824315Y-91959998D01*
X134990000Y-90459986D02*
X136490012Y-91959998D01*
X138725129Y-95545128D02*
X138890001Y-95710000D01*
X138725129Y-92768324D02*
X138725129Y-95545128D01*
X138890001Y-95710000D02*
X139290000Y-96109999D01*
X153890000Y-85410000D02*
X153889999Y-87010001D01*
X153889999Y-87010001D02*
X153490000Y-87410000D01*
X162000000Y-78310000D02*
X163140001Y-77169999D01*
X163140001Y-77169999D02*
X163540000Y-76770000D01*
X159790000Y-78310000D02*
X162000000Y-78310000D01*
X154090001Y-97120001D02*
X154490000Y-97520000D01*
X153005000Y-96035000D02*
X154090001Y-97120001D01*
X145865000Y-96035000D02*
X153005000Y-96035000D01*
G04 #@! TO.N,+3V3*
X159550000Y-71584315D02*
X159550000Y-72150000D01*
X159550000Y-70290000D02*
X159550000Y-71584315D01*
X152210000Y-62950000D02*
X159550000Y-70290000D01*
X147840000Y-62950000D02*
X152210000Y-62950000D01*
X139714913Y-91610000D02*
X139714913Y-94705536D01*
G04 #@! TO.N,RST*
X134376150Y-74510000D02*
X142040001Y-82173851D01*
X142040001Y-82173851D02*
X142440000Y-82573850D01*
X121375201Y-75228520D02*
X122093721Y-74510000D01*
X122093721Y-74510000D02*
X134376150Y-74510000D01*
X120173120Y-75228520D02*
X121375201Y-75228520D01*
D28*
G04 #@! TO.N,PB4*
X81733410Y-47354861D02*
X81733410Y-46034061D01*
X81733410Y-46034061D02*
X80488810Y-44789461D01*
X80488810Y-44789461D02*
X74951610Y-44789461D01*
D27*
X155272161Y-68176175D02*
X155672160Y-67776176D01*
X145932000Y-76505002D02*
X147367582Y-76505002D01*
X147367582Y-76505002D02*
X155272161Y-68600423D01*
X155272161Y-68600423D02*
X155272161Y-68176175D01*
X142761977Y-73334979D02*
X145932000Y-76505002D01*
X127326489Y-73334979D02*
X142761977Y-73334979D01*
G04 #@! TO.N,PA15*
X173000040Y-61497280D02*
X173000040Y-60295199D01*
X115758600Y-61289000D02*
X115794160Y-61324560D01*
X173000040Y-60295199D02*
X169066241Y-56361400D01*
X169066241Y-56361400D02*
X160206572Y-56361400D01*
X159761642Y-55916470D02*
X121131130Y-55916470D01*
X160206572Y-56361400D02*
X159761642Y-55916470D01*
X121131130Y-55916470D02*
X115758600Y-61289000D01*
X115794160Y-61324560D02*
X115794160Y-85288562D01*
X115794160Y-85288562D02*
X117149714Y-86644116D01*
X117149714Y-86644116D02*
X118888716Y-86644116D01*
X118888716Y-86644116D02*
X119323121Y-87078521D01*
X119323121Y-87078521D02*
X120173120Y-87928520D01*
G04 #@! TO.N,PB3*
X147553982Y-76955013D02*
X155218995Y-69290000D01*
X156704315Y-69290000D02*
X157270000Y-69290000D01*
X123490443Y-74059989D02*
X142850576Y-74059989D01*
X123215444Y-73784990D02*
X123490443Y-74059989D01*
X122649759Y-73784990D02*
X123215444Y-73784990D01*
X145745600Y-76955013D02*
X147553982Y-76955013D01*
X142850576Y-74059989D02*
X145745600Y-76955013D01*
X155218995Y-69290000D02*
X156704315Y-69290000D01*
G04 #@! TO.N,PA1*
X154021998Y-98425002D02*
X153406996Y-97810000D01*
X144365000Y-95875685D02*
X144365000Y-95310000D01*
X171632318Y-98425002D02*
X154021998Y-98425002D01*
X146299315Y-97810000D02*
X144365000Y-95875685D01*
X153406996Y-97810000D02*
X146299315Y-97810000D01*
X173000040Y-97057280D02*
X171632318Y-98425002D01*
G04 #@! TO.N,PA2*
X173000040Y-94517280D02*
X172150041Y-95367279D01*
X144880685Y-94285000D02*
X144315000Y-94285000D01*
X146172281Y-95367279D02*
X145090002Y-94285000D01*
X172150041Y-95367279D02*
X146172281Y-95367279D01*
X145090002Y-94285000D02*
X144880685Y-94285000D01*
G04 #@! TO.N,PA3*
X146040325Y-89810000D02*
X144790167Y-91060158D01*
X174517018Y-90460302D02*
X174517018Y-81439418D01*
X173594400Y-80516800D02*
X172381393Y-80516800D01*
X174517018Y-81439418D02*
X173594400Y-80516800D01*
X173000040Y-91977280D02*
X174517018Y-90460302D01*
X149075200Y-89810000D02*
X146040325Y-89810000D01*
X172381393Y-80516800D02*
X160098367Y-92799826D01*
X152100201Y-92835001D02*
X149075200Y-89810000D01*
X160098367Y-92799826D02*
X153950174Y-92799826D01*
X153950174Y-92799826D02*
X153915000Y-92835000D01*
X144790167Y-91060158D02*
X144390168Y-91460157D01*
X153915000Y-92835000D02*
X152100201Y-92835001D01*
G04 #@! TO.N,PA4*
X146141881Y-92635178D02*
X145741882Y-92235179D01*
X167718835Y-94718485D02*
X148225188Y-94718485D01*
X148225188Y-94718485D02*
X146141881Y-92635178D01*
X173000040Y-89437280D02*
X167718835Y-94718485D01*
G04 #@! TO.N,PA5*
X149533959Y-94228935D02*
X147315000Y-92009976D01*
X165668385Y-94228935D02*
X149533959Y-94228935D01*
X173000040Y-86897280D02*
X165668385Y-94228935D01*
G04 #@! TO.N,PA6*
X153019199Y-93760023D02*
X152998561Y-93739385D01*
X173000040Y-84357280D02*
X163597297Y-93760023D01*
X152998561Y-93739385D02*
X150119385Y-93739385D01*
X163597297Y-93760023D02*
X153019199Y-93760023D01*
X150119385Y-93739385D02*
X148889999Y-92509999D01*
X148889999Y-92509999D02*
X148490000Y-92110000D01*
G04 #@! TO.N,PA7*
X153180599Y-93285012D02*
X150941538Y-93285012D01*
X150037490Y-92380964D02*
X149637491Y-91980965D01*
X153205599Y-93310012D02*
X153180599Y-93285012D01*
X150941538Y-93285012D02*
X150037490Y-92380964D01*
X173000040Y-81817280D02*
X161507308Y-93310012D01*
X161507308Y-93310012D02*
X153205599Y-93310012D01*
G04 #@! TO.N,PB0*
X152673626Y-82151373D02*
X143590000Y-91234999D01*
X145215010Y-98535010D02*
X148399311Y-98535010D01*
X153300864Y-82151373D02*
X152673626Y-82151373D01*
X167015800Y-68436437D02*
X153300864Y-82151373D01*
X143590000Y-91234999D02*
X143590000Y-96910000D01*
X143590000Y-96910000D02*
X145215010Y-98535010D01*
X148399311Y-98535010D02*
X148964996Y-98535010D01*
X167015800Y-57926040D02*
X167015800Y-68436437D01*
G04 #@! TO.N,PB1*
X143139989Y-97096400D02*
X145303601Y-99260012D01*
X166358148Y-68393850D02*
X153050636Y-81701362D01*
X152487226Y-81701362D02*
X143139989Y-91048599D01*
X143139989Y-91048599D02*
X143139989Y-97096400D01*
X149741447Y-98935009D02*
X150141446Y-98535010D01*
X164475800Y-57926040D02*
X166358148Y-59808388D01*
X149416444Y-99260012D02*
X149741447Y-98935009D01*
X145303601Y-99260012D02*
X149416444Y-99260012D01*
X153050636Y-81701362D02*
X152487226Y-81701362D01*
X166358148Y-59808388D02*
X166358148Y-68393850D01*
G04 #@! TO.N,PB2*
X161935800Y-57926040D02*
X165820614Y-61810854D01*
X152300824Y-81251353D02*
X142689978Y-90862199D01*
X152814999Y-79838677D02*
X152814998Y-80737181D01*
X145117201Y-99710023D02*
X150365023Y-99710023D01*
X142689978Y-97282800D02*
X145117201Y-99710023D01*
X142689978Y-90862199D02*
X142689978Y-97282800D01*
X165820614Y-68294974D02*
X154841777Y-79273811D01*
X150365023Y-99710023D02*
X151115024Y-98960022D01*
X151115024Y-98960022D02*
X151515023Y-98560023D01*
X152814998Y-80737181D02*
X152300824Y-81251353D01*
X154841777Y-79273811D02*
X153379865Y-79273811D01*
X153379865Y-79273811D02*
X152814999Y-79838677D01*
X165820614Y-61810854D02*
X165820614Y-68294974D01*
G04 #@! TO.N,PB8*
X146370000Y-61930000D02*
X146370000Y-73880000D01*
X146370000Y-73880000D02*
X147080001Y-74590001D01*
X147080001Y-74590001D02*
X147480000Y-74990000D01*
G04 #@! TO.N,PB9*
X144839998Y-62050000D02*
X144839998Y-73829648D01*
X144839998Y-73829648D02*
X146328311Y-75317961D01*
X146328311Y-75317961D02*
X146728310Y-75717960D01*
G04 #@! TO.N,PB10*
X152364988Y-79652278D02*
X152364988Y-80550780D01*
X141615800Y-57926040D02*
X143175360Y-56366480D01*
X154655378Y-78823800D02*
X153193465Y-78823800D01*
X144930801Y-100160034D02*
X151264966Y-100160034D01*
X151264966Y-100160034D02*
X152390001Y-99034999D01*
X164335001Y-67650496D02*
X164335001Y-69144177D01*
X152390001Y-99034999D02*
X152790000Y-98635000D01*
X164335001Y-69144177D02*
X154655378Y-78823800D01*
X142239967Y-90675799D02*
X142239967Y-97469200D01*
X151850814Y-81064952D02*
X142239967Y-90675799D01*
X153193465Y-78823800D02*
X152364988Y-79652278D01*
X152364988Y-80550780D02*
X151850814Y-81064952D01*
X143175360Y-56366480D02*
X159575242Y-56366480D01*
X142239967Y-97469200D02*
X144930801Y-100160034D01*
X160760799Y-64076294D02*
X164335001Y-67650496D01*
X160760799Y-57552037D02*
X160760799Y-64076294D01*
X159575242Y-56366480D02*
X160760799Y-57552037D01*
G04 #@! TO.N,PB12*
X160087499Y-88783788D02*
X161586812Y-87284475D01*
X157970252Y-87844867D02*
X158909173Y-88783788D01*
X161586812Y-87284475D02*
X161586812Y-86467210D01*
X166491900Y-73035488D02*
X166091901Y-72635489D01*
X161586812Y-86467210D02*
X166491900Y-81562122D01*
X166491900Y-81562122D02*
X166491900Y-73035488D01*
X158909173Y-88783788D02*
X160087499Y-88783788D01*
X162560001Y-68840001D02*
X162960000Y-69240000D01*
X153279955Y-59559955D02*
X162560001Y-68840001D01*
X138169715Y-59559955D02*
X153279955Y-59559955D01*
X136535800Y-57926040D02*
X138169715Y-59559955D01*
G04 #@! TO.N,PB13*
X159711006Y-88058778D02*
X160111005Y-87658779D01*
X165727976Y-73680812D02*
X165327977Y-73280813D01*
X161136801Y-86647616D02*
X161136801Y-86280810D01*
X160111005Y-87658779D02*
X160125638Y-87658779D01*
X161136801Y-86280810D02*
X165727976Y-81689635D01*
X160125638Y-87658779D02*
X161136801Y-86647616D01*
X165727976Y-81689635D02*
X165727976Y-73680812D01*
X161820001Y-69620001D02*
X162220000Y-70020000D01*
X133995800Y-57926040D02*
X136079726Y-60009966D01*
X152209966Y-60009966D02*
X161820001Y-69620001D01*
X136079726Y-60009966D02*
X152209966Y-60009966D01*
G04 #@! TO.N,PB14*
X160012085Y-87135921D02*
X160686790Y-86461216D01*
X165028592Y-74395575D02*
X164628593Y-73995576D01*
X160686790Y-86094411D02*
X165028592Y-81752609D01*
X165028592Y-81752609D02*
X165028592Y-74395575D01*
X159325833Y-87135921D02*
X160012085Y-87135921D01*
X160686790Y-86461216D02*
X160686790Y-86094411D01*
X161577558Y-70390562D02*
X161577558Y-70786350D01*
X131455800Y-57926040D02*
X133989737Y-60459977D01*
X133989737Y-60459977D02*
X151646973Y-60459977D01*
X151646973Y-60459977D02*
X161577558Y-70390562D01*
G04 #@! TO.N,PB15*
X159815000Y-86259998D02*
X164348491Y-81726507D01*
X164348491Y-81726507D02*
X164348491Y-75128710D01*
X164348491Y-75128710D02*
X163948492Y-74728711D01*
X160834151Y-70508466D02*
X160834151Y-70889522D01*
X151235673Y-60909988D02*
X160834151Y-70508466D01*
X131899748Y-60909988D02*
X151235673Y-60909988D01*
X128915800Y-57926040D02*
X131899748Y-60909988D01*
X160834151Y-70889522D02*
X160834151Y-71455207D01*
G04 #@! TO.N,PC0*
X131389984Y-86135000D02*
X135389983Y-82135001D01*
X135389983Y-82135001D02*
X140790001Y-82135001D01*
X140790001Y-82135001D02*
X141190000Y-82535000D01*
G04 #@! TO.N,PC1*
X132440728Y-86036268D02*
X135866995Y-82610001D01*
X135866995Y-82610001D02*
X139390001Y-82610001D01*
X132440728Y-86123447D02*
X132440728Y-86036268D01*
X139390001Y-82610001D02*
X139790000Y-83010000D01*
G04 #@! TO.N,PC2*
X133440000Y-86085000D02*
X135840000Y-83685000D01*
X135840000Y-83685000D02*
X138124315Y-83685000D01*
X138124315Y-83685000D02*
X138690000Y-83685000D01*
G04 #@! TO.N,PC3*
X135415000Y-86585000D02*
X137540000Y-84460000D01*
X137540000Y-84460000D02*
X137715000Y-84460000D01*
G04 #@! TO.N,PC10*
X154122760Y-103148200D02*
X152934638Y-101960078D01*
X150564944Y-78827380D02*
X154003808Y-75388516D01*
X152934638Y-101960078D02*
X144185201Y-101960078D01*
X140439923Y-98214800D02*
X140439923Y-89930199D01*
X154003808Y-75388516D02*
X154403807Y-74988517D01*
X140439923Y-89930199D02*
X140703534Y-89666588D01*
X144185201Y-101960078D02*
X140439923Y-98214800D01*
X150564944Y-79805182D02*
X150564944Y-78827380D01*
X140703534Y-89666588D02*
X142163173Y-88206952D01*
X142163173Y-88206952D02*
X150564944Y-79805182D01*
G04 #@! TO.N,PC11*
X155024627Y-101510067D02*
X144371601Y-101510067D01*
X144371601Y-101510067D02*
X140889934Y-98028400D01*
X155219377Y-74339377D02*
X154979999Y-74099999D01*
X156662760Y-103148200D02*
X155024627Y-101510067D01*
X151014955Y-79093078D02*
X153372895Y-76735138D01*
X140889934Y-98028400D02*
X140889934Y-90116599D01*
X140889934Y-90116599D02*
X141356817Y-89649718D01*
X155219377Y-75860623D02*
X155219377Y-74339377D01*
X153372895Y-76735138D02*
X154344862Y-76735138D01*
X154979999Y-74099999D02*
X154580000Y-73700000D01*
X154344862Y-76735138D02*
X155219377Y-75860623D01*
X151014955Y-79991581D02*
X151014955Y-79093078D01*
X141356817Y-89649718D02*
X151014955Y-79991581D01*
G04 #@! TO.N,PC12*
X154085002Y-72974998D02*
X155154998Y-72974998D01*
X144558001Y-101060056D02*
X157114616Y-101060056D01*
X152950000Y-74110000D02*
X154085002Y-72974998D01*
X149588076Y-82054869D02*
X141339945Y-90302999D01*
X155154998Y-72974998D02*
X156060009Y-73880009D01*
X156060009Y-75666401D02*
X153802632Y-77923778D01*
X141339945Y-90302999D02*
X141339945Y-97842000D01*
X156060009Y-73880009D02*
X156060009Y-75666401D01*
X153802632Y-77923778D02*
X152820665Y-77923778D01*
X152820665Y-77923778D02*
X151464966Y-79279478D01*
X141339945Y-97842000D02*
X144558001Y-101060056D01*
X151464966Y-79279478D02*
X151464966Y-80177981D01*
X158352761Y-102298201D02*
X159202760Y-103148200D01*
X151464966Y-80177981D02*
X149588076Y-82054869D01*
X157114616Y-101060056D02*
X158352761Y-102298201D01*
G04 #@! TO.N,PC13*
X161742760Y-103148200D02*
X160112080Y-104778880D01*
X160112080Y-104778880D02*
X136043040Y-104778880D01*
X143264999Y-86468718D02*
X143264999Y-78934999D01*
X135072760Y-103808600D02*
X135072760Y-95400242D01*
X135072760Y-95400242D02*
X138165001Y-92308001D01*
X136043040Y-104778880D02*
X135072760Y-103808600D01*
X138165001Y-92308001D02*
X138165001Y-91568716D01*
X138165001Y-91568716D02*
X143264999Y-86468718D01*
X143264999Y-78934999D02*
X142865000Y-78535000D01*
G04 #@! TO.N,PD2*
X153007065Y-78373789D02*
X154156211Y-78373789D01*
X151914977Y-79465878D02*
X153007065Y-78373789D01*
X141789956Y-90489399D02*
X151914977Y-80364380D01*
X164284605Y-100610045D02*
X144744401Y-100610045D01*
X156670011Y-75859989D02*
X156670011Y-73754326D01*
X151914977Y-80364380D02*
X151914977Y-79465878D01*
X154156211Y-78373789D02*
X156670011Y-75859989D01*
X166822760Y-103148200D02*
X164284605Y-100610045D01*
X144744401Y-100610045D02*
X141789956Y-97655600D01*
X141789956Y-97655600D02*
X141789956Y-90489399D01*
X155105685Y-72190000D02*
X154540000Y-72190000D01*
X156670011Y-73754326D02*
X155105685Y-72190000D01*
G04 #@! TO.N,PB11*
X167189999Y-81500433D02*
X167189999Y-72270000D01*
X157784402Y-91723296D02*
X162036823Y-87470875D01*
X153609698Y-91723296D02*
X157784402Y-91723296D01*
X162036823Y-87470875D02*
X162036823Y-86653609D01*
X162036823Y-86653609D02*
X167189999Y-81500433D01*
X167189999Y-72270000D02*
X166790000Y-71870001D01*
X163210001Y-68050001D02*
X163610000Y-68450000D01*
X154269944Y-59109944D02*
X163210001Y-68050001D01*
X139075800Y-57926040D02*
X140259704Y-59109944D01*
X140259704Y-59109944D02*
X154269944Y-59109944D01*
D30*
G04 #@! TO.N,Net-(C16-Pad1)*
X166327592Y-127785191D02*
X165927593Y-128185190D01*
X170252420Y-125705920D02*
X168406863Y-125705920D01*
X168406863Y-125705920D02*
X166327592Y-127785191D01*
X209940001Y-115679999D02*
X210340000Y-115280000D01*
X207671240Y-117948760D02*
X209940001Y-115679999D01*
X205751460Y-117948760D02*
X207671240Y-117948760D01*
G04 #@! TO.N,Net-(C16-Pad2)*
X212683120Y-91939160D02*
X214567800Y-91939160D01*
X214567800Y-91939160D02*
X214583040Y-91954400D01*
X214567800Y-93493640D02*
X212698360Y-93493640D01*
X216284840Y-95231000D02*
X216284840Y-93508880D01*
X216284840Y-93508880D02*
X216300080Y-93493640D01*
X212683120Y-95246240D02*
X214501760Y-95246240D01*
X214501760Y-95246240D02*
X214537320Y-95210680D01*
X214491600Y-96724520D02*
X212683120Y-96724520D01*
X212683120Y-96724520D02*
X212667880Y-96739760D01*
X216249280Y-98548240D02*
X216249280Y-96760080D01*
X216249280Y-96760080D02*
X216269600Y-96739760D01*
X212637400Y-98527920D02*
X214491600Y-98527920D01*
X214476360Y-100041760D02*
X212652640Y-100041760D01*
X212652640Y-100041760D02*
X212637400Y-100026520D01*
X216249280Y-101829920D02*
X216249280Y-100057000D01*
X216249280Y-100057000D02*
X216234040Y-100041760D01*
X212637400Y-101814680D02*
X214476360Y-101814680D01*
X214476360Y-101814680D02*
X214491600Y-101829920D01*
X161293840Y-151690120D02*
X159576800Y-151690120D01*
X159576800Y-151690120D02*
X159556480Y-151669800D01*
X163193760Y-150135640D02*
X163193760Y-151669800D01*
X163193760Y-151669800D02*
X163173440Y-151690120D01*
X159576800Y-150135640D02*
X161354800Y-150135640D01*
X161334480Y-148357640D02*
X159597120Y-148357640D01*
X159597120Y-148357640D02*
X159576800Y-148337320D01*
X163275040Y-146889520D02*
X163275040Y-148317000D01*
X163275040Y-148317000D02*
X163234400Y-148357640D01*
X159617440Y-146869200D02*
X161375120Y-146869200D01*
X161375120Y-146869200D02*
X161395440Y-146889520D01*
X161395440Y-145152160D02*
X159637760Y-145152160D01*
X159637760Y-145152160D02*
X159617440Y-145131840D01*
X161456400Y-143618000D02*
X163254720Y-143618000D01*
X163254720Y-143618000D02*
X163295360Y-143577360D01*
X159597120Y-141860320D02*
X159597120Y-143577360D01*
X163295360Y-141799360D02*
X161436080Y-141799360D01*
X161436080Y-141799360D02*
X161415760Y-141819680D01*
X184519600Y-123912680D02*
X185441620Y-124834700D01*
X185441620Y-124834700D02*
X185441620Y-143104920D01*
X187074840Y-121357440D02*
X184519600Y-123912680D01*
X189731680Y-121357440D02*
X187074840Y-121357440D01*
X192728880Y-118360240D02*
X189731680Y-121357440D01*
X192728880Y-115423339D02*
X192728880Y-118360240D01*
X190526700Y-114423240D02*
X191728781Y-114423240D01*
X191728781Y-114423240D02*
X192728880Y-115423339D01*
X182149998Y-129531160D02*
X180836576Y-129531160D01*
X180836576Y-129531160D02*
X180811176Y-129505760D01*
X178290000Y-129520000D02*
X179390000Y-129520000D01*
X179390000Y-129520000D02*
X179430000Y-129480000D01*
X169010000Y-131160000D02*
X169000000Y-131170000D01*
X169010000Y-130030000D02*
X169010000Y-131160000D01*
X167940000Y-131160000D02*
X167940000Y-130090000D01*
X161970000Y-124510000D02*
X162000000Y-124480000D01*
X161970000Y-125490000D02*
X161970000Y-124510000D01*
X161990000Y-123510000D02*
X161990000Y-122520000D01*
X161990000Y-121509998D02*
X161990000Y-120560002D01*
X161989998Y-118620002D02*
X162010000Y-118600000D01*
X161989998Y-119600000D02*
X161989998Y-118620002D01*
X196560000Y-102140000D02*
X196570000Y-102150000D01*
X195490000Y-102140000D02*
X196560000Y-102140000D01*
X198654400Y-102114400D02*
X198670000Y-102130000D01*
X197610000Y-102114400D02*
X198654400Y-102114400D01*
X201375760Y-102104240D02*
X201390000Y-102090000D01*
X200033910Y-102104240D02*
X201375760Y-102104240D01*
X193880000Y-113610000D02*
X194950000Y-113610000D01*
X194950000Y-113610000D02*
X194970000Y-113590000D01*
X196030000Y-113610000D02*
X197210002Y-113610000D01*
X208110000Y-112600000D02*
X208130000Y-112620000D01*
X207070000Y-112600000D02*
X208110000Y-112600000D01*
X208110000Y-113560000D02*
X207070000Y-113560000D01*
X213920000Y-119420002D02*
X213920000Y-120529998D01*
X213930000Y-121570000D02*
X213930000Y-122630000D01*
X213950000Y-123680000D02*
X213950000Y-124620000D01*
X213950000Y-124620000D02*
X213930000Y-124640000D01*
X174750000Y-141089998D02*
X175949998Y-141089998D01*
X175949998Y-141089998D02*
X175950000Y-141090000D01*
X178400000Y-141090000D02*
X178420000Y-141070000D01*
X177249998Y-141090000D02*
X178400000Y-141090000D01*
X179620002Y-141060000D02*
X179580000Y-141019998D01*
X180760000Y-141060000D02*
X179620002Y-141060000D01*
G04 #@! TO.N,Net-(C17-Pad1)*
X171618940Y-127900480D02*
X171618940Y-132586780D01*
X171618940Y-132586780D02*
X171596080Y-132609640D01*
G04 #@! TO.N,Net-(C18-Pad1)*
X185441620Y-145644920D02*
X183511220Y-143714520D01*
X167995685Y-122340000D02*
X167430000Y-122340000D01*
X169563660Y-122340000D02*
X167995685Y-122340000D01*
X183511220Y-136287560D02*
X169563660Y-122340000D01*
X183511220Y-143714520D02*
X183511220Y-136287560D01*
G04 #@! TO.N,Net-(C20-Pad1)*
X204344300Y-111093300D02*
X204341760Y-111090760D01*
G04 #@! TO.N,Net-(C21-Pad1)*
X190567340Y-97974200D02*
X192507900Y-99914760D01*
X192507900Y-107374407D02*
X206153493Y-121020000D01*
X207944315Y-121020000D02*
X208510000Y-121020000D01*
X206153493Y-121020000D02*
X207944315Y-121020000D01*
X192507900Y-99914760D02*
X192507900Y-107374407D01*
D27*
G04 #@! TO.N,Net-(C1-Pad1)*
X210388160Y-51151700D02*
X209626160Y-51151700D01*
X209626160Y-51151700D02*
X207848160Y-51151700D01*
X207848160Y-51151700D02*
X206832160Y-51151700D01*
X206832160Y-51151700D02*
X205816160Y-51151700D01*
X205816160Y-51151700D02*
X196164160Y-51151700D01*
X209626160Y-48357700D02*
X209626160Y-51151700D01*
X207848160Y-49119700D02*
X207848160Y-51151700D01*
X206832160Y-49119700D02*
X206832160Y-51151700D01*
X205816160Y-49119700D02*
X205816160Y-51151700D01*
X211150160Y-51151700D02*
X210388160Y-51151700D01*
X210388160Y-51151700D02*
X210388160Y-47595714D01*
X129770080Y-130619560D02*
X129770080Y-136969560D01*
D28*
G04 #@! TO.N,VCC*
X102053410Y-50973410D02*
X102090000Y-51010000D01*
X102053410Y-47354861D02*
X102053410Y-50973410D01*
D27*
X128170000Y-139730000D02*
X126450000Y-138010000D01*
X126450000Y-138010000D02*
X126405685Y-138010000D01*
X126405685Y-138010000D02*
X125840000Y-138010000D01*
G04 #@! TO.N,Net-(D1-Pad2)*
X206832160Y-39975700D02*
X206832160Y-36419700D01*
X206832160Y-36419700D02*
X191084160Y-36419700D01*
X191084160Y-36419700D02*
X190830160Y-36673700D01*
X190830160Y-36673700D02*
X190830160Y-54707700D01*
G04 #@! TO.N,Net-(D2-Pad2)*
X194894160Y-60549700D02*
X194894160Y-59533700D01*
X201244160Y-54707700D02*
X194894160Y-54707700D01*
X203276160Y-43531700D02*
X201244160Y-43531700D01*
X194894160Y-54707700D02*
X194894160Y-59533700D01*
G04 #@! TO.N,Net-(J1-Pad1)*
X191592160Y-72483700D02*
X191589161Y-72486699D01*
X191592160Y-67153700D02*
X191592160Y-72483700D01*
X196418160Y-60041700D02*
X196418160Y-67153700D01*
X200228160Y-56231700D02*
X196418160Y-60041700D01*
X204800160Y-50135700D02*
X200228160Y-50135700D01*
X204800160Y-47087700D02*
X204800160Y-50135700D01*
X196418160Y-67153700D02*
X191592160Y-67153700D01*
G04 #@! TO.N,Net-(J1-Pad2)*
X194386160Y-72229700D02*
X194129161Y-72486699D01*
X194386160Y-69439700D02*
X194386160Y-72229700D01*
X203276160Y-44547700D02*
X202260160Y-45563700D01*
X202260160Y-45563700D02*
X202260160Y-48611700D01*
X202260160Y-52929700D02*
X202260160Y-66391700D01*
X202260160Y-66391700D02*
X199212160Y-69439700D01*
X199212160Y-69439700D02*
X194386160Y-69439700D01*
G04 #@! TO.N,Net-(J1-Pad5)*
X213944160Y-55723700D02*
X205816160Y-55723700D01*
X213944160Y-42261700D02*
X213944160Y-55723700D01*
G04 #@! TO.N,Net-(J1-Pad6)*
X213182160Y-53437700D02*
X207594160Y-53437700D01*
X212674160Y-42515700D02*
X213182160Y-43023700D01*
X213182160Y-43023700D02*
X213182160Y-53437700D01*
G04 #@! TO.N,Net-(J1-Pad7)*
X214452160Y-68423700D02*
X207086160Y-68423700D01*
G04 #@! TO.N,Net-(J1-Pad8)*
X212674160Y-64359700D02*
X209372160Y-64359700D01*
G04 #@! TO.N,Net-(R2-Pad2)*
X204292160Y-45309700D02*
X203530160Y-46071700D01*
X204292160Y-43277700D02*
X204292160Y-45309700D01*
X206578160Y-40991700D02*
X204292160Y-43277700D01*
X207594160Y-40991700D02*
X206578160Y-40991700D01*
X211912160Y-40229700D02*
X211912160Y-38243700D01*
X211912160Y-38243700D02*
X211889160Y-38220700D01*
X211912160Y-40229700D02*
X208356160Y-40229700D01*
X207594160Y-40991700D02*
X208356160Y-40229700D01*
G04 #@! TO.N,Net-(R3-Pad2)*
X203784160Y-47087700D02*
X203784160Y-49373700D01*
G04 #@! TO.N,Net-(C1-Pad2)*
X193624160Y-51151700D02*
X193624160Y-38243700D01*
X193624160Y-38243700D02*
X193647160Y-38220700D01*
D29*
G04 #@! TO.N,3.3V*
X104878015Y-96212309D02*
X104878015Y-96720309D01*
X104878015Y-96720309D02*
X103481015Y-98117309D01*
X103481015Y-98117309D02*
X99163015Y-98117309D01*
X94210015Y-98117309D02*
X92432015Y-99895309D01*
X92221614Y-100050608D02*
X91768415Y-99597409D01*
D27*
X92276716Y-100050608D02*
X92221614Y-100050608D01*
D29*
X92432015Y-99895309D02*
X92276716Y-100050608D01*
D27*
X97168415Y-98117309D02*
X97168415Y-99797409D01*
D29*
X99163015Y-98117309D02*
X97168415Y-98117309D01*
X97168415Y-98117309D02*
X94210015Y-98117309D01*
D31*
G04 #@! TO.N,/1PPS*
X109450015Y-97736309D02*
X110085015Y-97736309D01*
D27*
X95968415Y-100038330D02*
X95968415Y-99397409D01*
X98349193Y-102419108D02*
X95968415Y-100038330D01*
X105402216Y-102419108D02*
X98349193Y-102419108D01*
X110085015Y-97736309D02*
X105402216Y-102419108D01*
D32*
G04 #@! TO.N,/FIX*
X98568415Y-115597409D02*
X105568415Y-108597409D01*
X98568415Y-116997409D02*
X98568415Y-115597409D01*
X98568415Y-116997409D02*
X95168415Y-116997409D01*
D31*
G04 #@! TO.N,/VBACKUP*
X100433015Y-116786309D02*
X104243015Y-112976309D01*
X104243015Y-112976309D02*
X110085015Y-112976309D01*
X100433015Y-116786309D02*
X100433015Y-119326309D01*
X100433015Y-119326309D02*
X100496515Y-119389809D01*
G04 #@! TO.N,Net-(B1-Pad+$1)*
X85066015Y-116121709D02*
X85066015Y-117611809D01*
X85066015Y-117611809D02*
X87415515Y-119961309D01*
X87415515Y-119961309D02*
X97194515Y-119961309D01*
X85066015Y-116121709D02*
X82686915Y-116121709D01*
X82686915Y-116121709D02*
X78271515Y-111706309D01*
X78271515Y-111706309D02*
X78271515Y-104530809D01*
X78271515Y-104530809D02*
X83131415Y-99670909D01*
X83131415Y-99670909D02*
X85066015Y-99670909D01*
X97194515Y-119961309D02*
X97702515Y-119453309D01*
X97702515Y-119453309D02*
X97702515Y-119389809D01*
D27*
G04 #@! TO.N,VDD*
X148650000Y-137160000D02*
X148650000Y-141485000D01*
X151025000Y-134785000D02*
X148650000Y-137160000D01*
D28*
G04 #@! TO.N,/D4*
X99513410Y-50973410D02*
X99550000Y-51010000D01*
X99513410Y-47354861D02*
X99513410Y-50973410D01*
G04 #@! TO.N,/D3*
X107133410Y-50973410D02*
X107170000Y-51010000D01*
X107133410Y-47354861D02*
X107133410Y-50973410D01*
G04 #@! TD*
D29*
G04 #@! TO.N,GND*
G36*
X80436114Y-46101764D02*
X80332618Y-46205260D01*
X80135258Y-46500631D01*
X79999314Y-46828829D01*
X79930010Y-47177242D01*
X79930010Y-47532480D01*
X79999314Y-47880893D01*
X80135258Y-48209091D01*
X80332618Y-48504462D01*
X80583809Y-48755653D01*
X80671800Y-48814447D01*
X80671800Y-49546497D01*
X80605724Y-49600724D01*
X80410630Y-49838448D01*
X80265661Y-50109664D01*
X80176390Y-50403951D01*
X80146247Y-50710000D01*
X80176390Y-51016049D01*
X80265661Y-51310336D01*
X80410630Y-51581552D01*
X80480816Y-51667074D01*
X73904179Y-51681098D01*
X73899864Y-46257578D01*
X73986410Y-46266102D01*
X74493158Y-46266102D01*
X74525067Y-46279319D01*
X74824407Y-46338861D01*
X75129613Y-46338861D01*
X75428953Y-46279319D01*
X75460862Y-46266102D01*
X78050410Y-46266102D01*
X78189830Y-46252370D01*
X78323891Y-46211703D01*
X78447443Y-46145663D01*
X78555737Y-46056788D01*
X78644612Y-45948494D01*
X78710652Y-45824942D01*
X78731972Y-45754661D01*
X80089013Y-45754661D01*
X80436114Y-46101764D01*
X80436114Y-46101764D01*
G37*
X80436114Y-46101764D02*
X80332618Y-46205260D01*
X80135258Y-46500631D01*
X79999314Y-46828829D01*
X79930010Y-47177242D01*
X79930010Y-47532480D01*
X79999314Y-47880893D01*
X80135258Y-48209091D01*
X80332618Y-48504462D01*
X80583809Y-48755653D01*
X80671800Y-48814447D01*
X80671800Y-49546497D01*
X80605724Y-49600724D01*
X80410630Y-49838448D01*
X80265661Y-50109664D01*
X80176390Y-50403951D01*
X80146247Y-50710000D01*
X80176390Y-51016049D01*
X80265661Y-51310336D01*
X80410630Y-51581552D01*
X80480816Y-51667074D01*
X73904179Y-51681098D01*
X73899864Y-46257578D01*
X73986410Y-46266102D01*
X74493158Y-46266102D01*
X74525067Y-46279319D01*
X74824407Y-46338861D01*
X75129613Y-46338861D01*
X75428953Y-46279319D01*
X75460862Y-46266102D01*
X78050410Y-46266102D01*
X78189830Y-46252370D01*
X78323891Y-46211703D01*
X78447443Y-46145663D01*
X78555737Y-46056788D01*
X78644612Y-45948494D01*
X78710652Y-45824942D01*
X78731972Y-45754661D01*
X80089013Y-45754661D01*
X80436114Y-46101764D01*
G36*
X85096800Y-46342743D02*
X85096800Y-51657232D01*
X82953511Y-51661802D01*
X83019370Y-51581552D01*
X83164339Y-51310336D01*
X83253610Y-51016049D01*
X83283753Y-50710000D01*
X83253610Y-50403951D01*
X83164339Y-50109664D01*
X83019370Y-49838448D01*
X82824276Y-49600724D01*
X82803200Y-49583427D01*
X82803200Y-48808981D01*
X82883011Y-48755653D01*
X83134202Y-48504462D01*
X83331562Y-48209091D01*
X83467506Y-47880893D01*
X83536810Y-47532480D01*
X83536810Y-47177242D01*
X83467506Y-46828829D01*
X83331562Y-46500631D01*
X83134202Y-46205260D01*
X82883011Y-45954069D01*
X82675770Y-45815595D01*
X82629453Y-45662908D01*
X82539827Y-45495230D01*
X82419212Y-45348259D01*
X82382379Y-45318032D01*
X81204848Y-44140502D01*
X81174612Y-44103659D01*
X81027641Y-43983044D01*
X80859963Y-43893418D01*
X80678022Y-43838227D01*
X80536225Y-43824261D01*
X80536222Y-43824261D01*
X80488810Y-43819591D01*
X80441398Y-43824261D01*
X78731972Y-43824261D01*
X78710652Y-43753980D01*
X78644612Y-43630428D01*
X78555737Y-43522134D01*
X78447443Y-43433259D01*
X78323891Y-43367219D01*
X78189830Y-43326552D01*
X78050410Y-43312820D01*
X75460862Y-43312820D01*
X75428953Y-43299603D01*
X75129613Y-43240061D01*
X74824407Y-43240061D01*
X74525067Y-43299603D01*
X74493158Y-43312820D01*
X73986410Y-43312820D01*
X73897528Y-43321574D01*
X73896229Y-41689521D01*
X80530513Y-41665571D01*
X85096800Y-46342743D01*
X85096800Y-46342743D01*
G37*
X85096800Y-46342743D02*
X85096800Y-51657232D01*
X82953511Y-51661802D01*
X83019370Y-51581552D01*
X83164339Y-51310336D01*
X83253610Y-51016049D01*
X83283753Y-50710000D01*
X83253610Y-50403951D01*
X83164339Y-50109664D01*
X83019370Y-49838448D01*
X82824276Y-49600724D01*
X82803200Y-49583427D01*
X82803200Y-48808981D01*
X82883011Y-48755653D01*
X83134202Y-48504462D01*
X83331562Y-48209091D01*
X83467506Y-47880893D01*
X83536810Y-47532480D01*
X83536810Y-47177242D01*
X83467506Y-46828829D01*
X83331562Y-46500631D01*
X83134202Y-46205260D01*
X82883011Y-45954069D01*
X82675770Y-45815595D01*
X82629453Y-45662908D01*
X82539827Y-45495230D01*
X82419212Y-45348259D01*
X82382379Y-45318032D01*
X81204848Y-44140502D01*
X81174612Y-44103659D01*
X81027641Y-43983044D01*
X80859963Y-43893418D01*
X80678022Y-43838227D01*
X80536225Y-43824261D01*
X80536222Y-43824261D01*
X80488810Y-43819591D01*
X80441398Y-43824261D01*
X78731972Y-43824261D01*
X78710652Y-43753980D01*
X78644612Y-43630428D01*
X78555737Y-43522134D01*
X78447443Y-43433259D01*
X78323891Y-43367219D01*
X78189830Y-43326552D01*
X78050410Y-43312820D01*
X75460862Y-43312820D01*
X75428953Y-43299603D01*
X75129613Y-43240061D01*
X74824407Y-43240061D01*
X74525067Y-43299603D01*
X74493158Y-43312820D01*
X73986410Y-43312820D01*
X73897528Y-43321574D01*
X73896229Y-41689521D01*
X80530513Y-41665571D01*
X85096800Y-46342743D01*
D31*
G04 #@! TO.N,Net-(C16-Pad2)*
G36*
X217216952Y-89647968D02*
X217196768Y-127336488D01*
X210339386Y-127330422D01*
X210290777Y-127340046D01*
X210281124Y-127346484D01*
X204722541Y-127325455D01*
X204722173Y-127325454D01*
X188702460Y-127311285D01*
X188695786Y-127301371D01*
X188654488Y-127273984D01*
X188606777Y-127264487D01*
X187436785Y-127260061D01*
X187388148Y-127269544D01*
X187346843Y-127296918D01*
X187319157Y-127338016D01*
X187309306Y-127387502D01*
X187402057Y-154031888D01*
X158786928Y-154006712D01*
X158789879Y-148495700D01*
X166484116Y-148495700D01*
X166484116Y-150195700D01*
X166513686Y-150344359D01*
X166597894Y-150470386D01*
X166723921Y-150554594D01*
X166872580Y-150584164D01*
X168572580Y-150584164D01*
X168721239Y-150554594D01*
X168847266Y-150470386D01*
X168931474Y-150344359D01*
X168961044Y-150195700D01*
X168961044Y-149345700D01*
X169007464Y-149345700D01*
X169103004Y-149826012D01*
X169375079Y-150233201D01*
X169782268Y-150505276D01*
X170141341Y-150576700D01*
X170383819Y-150576700D01*
X170742892Y-150505276D01*
X171150081Y-150233201D01*
X171422156Y-149826012D01*
X171517696Y-149345700D01*
X171547464Y-149345700D01*
X171643004Y-149826012D01*
X171915079Y-150233201D01*
X172322268Y-150505276D01*
X172681341Y-150576700D01*
X172923819Y-150576700D01*
X173282892Y-150505276D01*
X173690081Y-150233201D01*
X173962156Y-149826012D01*
X174057696Y-149345700D01*
X174087464Y-149345700D01*
X174183004Y-149826012D01*
X174455079Y-150233201D01*
X174862268Y-150505276D01*
X175221341Y-150576700D01*
X175463819Y-150576700D01*
X175822892Y-150505276D01*
X176230081Y-150233201D01*
X176502156Y-149826012D01*
X176597696Y-149345700D01*
X176627464Y-149345700D01*
X176723004Y-149826012D01*
X176995079Y-150233201D01*
X177402268Y-150505276D01*
X177761341Y-150576700D01*
X178003819Y-150576700D01*
X178362892Y-150505276D01*
X178770081Y-150233201D01*
X179042156Y-149826012D01*
X179137696Y-149345700D01*
X179167464Y-149345700D01*
X179263004Y-149826012D01*
X179535079Y-150233201D01*
X179942268Y-150505276D01*
X180301341Y-150576700D01*
X180543819Y-150576700D01*
X180902892Y-150505276D01*
X181310081Y-150233201D01*
X181582156Y-149826012D01*
X181677696Y-149345700D01*
X181707464Y-149345700D01*
X181803004Y-149826012D01*
X182075079Y-150233201D01*
X182482268Y-150505276D01*
X182841341Y-150576700D01*
X183083819Y-150576700D01*
X183442892Y-150505276D01*
X183850081Y-150233201D01*
X184122156Y-149826012D01*
X184217696Y-149345700D01*
X184247464Y-149345700D01*
X184343004Y-149826012D01*
X184615079Y-150233201D01*
X185022268Y-150505276D01*
X185381341Y-150576700D01*
X185623819Y-150576700D01*
X185982892Y-150505276D01*
X186390081Y-150233201D01*
X186662156Y-149826012D01*
X186757696Y-149345700D01*
X186662156Y-148865388D01*
X186390081Y-148458199D01*
X185982892Y-148186124D01*
X185623819Y-148114700D01*
X185381341Y-148114700D01*
X185022268Y-148186124D01*
X184615079Y-148458199D01*
X184343004Y-148865388D01*
X184247464Y-149345700D01*
X184217696Y-149345700D01*
X184122156Y-148865388D01*
X183850081Y-148458199D01*
X183442892Y-148186124D01*
X183083819Y-148114700D01*
X182841341Y-148114700D01*
X182482268Y-148186124D01*
X182075079Y-148458199D01*
X181803004Y-148865388D01*
X181707464Y-149345700D01*
X181677696Y-149345700D01*
X181582156Y-148865388D01*
X181310081Y-148458199D01*
X180902892Y-148186124D01*
X180543819Y-148114700D01*
X180301341Y-148114700D01*
X179942268Y-148186124D01*
X179535079Y-148458199D01*
X179263004Y-148865388D01*
X179167464Y-149345700D01*
X179137696Y-149345700D01*
X179042156Y-148865388D01*
X178770081Y-148458199D01*
X178362892Y-148186124D01*
X178003819Y-148114700D01*
X177761341Y-148114700D01*
X177402268Y-148186124D01*
X176995079Y-148458199D01*
X176723004Y-148865388D01*
X176627464Y-149345700D01*
X176597696Y-149345700D01*
X176502156Y-148865388D01*
X176230081Y-148458199D01*
X175822892Y-148186124D01*
X175463819Y-148114700D01*
X175221341Y-148114700D01*
X174862268Y-148186124D01*
X174455079Y-148458199D01*
X174183004Y-148865388D01*
X174087464Y-149345700D01*
X174057696Y-149345700D01*
X173962156Y-148865388D01*
X173690081Y-148458199D01*
X173282892Y-148186124D01*
X172923819Y-148114700D01*
X172681341Y-148114700D01*
X172322268Y-148186124D01*
X171915079Y-148458199D01*
X171643004Y-148865388D01*
X171547464Y-149345700D01*
X171517696Y-149345700D01*
X171422156Y-148865388D01*
X171150081Y-148458199D01*
X170742892Y-148186124D01*
X170383819Y-148114700D01*
X170141341Y-148114700D01*
X169782268Y-148186124D01*
X169375079Y-148458199D01*
X169103004Y-148865388D01*
X169007464Y-149345700D01*
X168961044Y-149345700D01*
X168961044Y-148495700D01*
X168931474Y-148347041D01*
X168847266Y-148221014D01*
X168721239Y-148136806D01*
X168572580Y-148107236D01*
X166872580Y-148107236D01*
X166723921Y-148136806D01*
X166597894Y-148221014D01*
X166513686Y-148347041D01*
X166484116Y-148495700D01*
X158789879Y-148495700D01*
X158800839Y-128029839D01*
X165146593Y-128029839D01*
X165146593Y-128340541D01*
X165265493Y-128627591D01*
X165485192Y-128847290D01*
X165772242Y-128966190D01*
X166082944Y-128966190D01*
X166369994Y-128847290D01*
X166589693Y-128627591D01*
X166689694Y-128386167D01*
X166856556Y-128219305D01*
X168688942Y-126386920D01*
X169855648Y-126386920D01*
X170097069Y-126486920D01*
X170407771Y-126486920D01*
X170694821Y-126368020D01*
X170914520Y-126148321D01*
X171033420Y-125861271D01*
X171033420Y-125550569D01*
X170914520Y-125263519D01*
X170694821Y-125043820D01*
X170407771Y-124924920D01*
X170097069Y-124924920D01*
X169855648Y-125024920D01*
X168473927Y-125024920D01*
X168406862Y-125011580D01*
X168339797Y-125024920D01*
X168339794Y-125024920D01*
X168141150Y-125064433D01*
X167915890Y-125214947D01*
X167877898Y-125271806D01*
X165893478Y-127256227D01*
X165726616Y-127423089D01*
X165485192Y-127523090D01*
X165265493Y-127742789D01*
X165146593Y-128029839D01*
X158800839Y-128029839D01*
X158803969Y-122184649D01*
X166649000Y-122184649D01*
X166649000Y-122495351D01*
X166767900Y-122782401D01*
X166987599Y-123002100D01*
X167274649Y-123121000D01*
X167585351Y-123121000D01*
X167826772Y-123021000D01*
X169281582Y-123021000D01*
X173359777Y-127099195D01*
X171533711Y-127119480D01*
X171463589Y-127119480D01*
X171461657Y-127120280D01*
X171193068Y-127123264D01*
X171051172Y-127152377D01*
X170927643Y-127235081D01*
X170845167Y-127358763D01*
X170816300Y-127504592D01*
X170821380Y-133001152D01*
X170849126Y-133143531D01*
X170930636Y-133267851D01*
X171053518Y-133351515D01*
X171199062Y-133381786D01*
X173534622Y-133402126D01*
X173687284Y-133371650D01*
X173810050Y-133287818D01*
X173891390Y-133163386D01*
X173918921Y-133017299D01*
X173864339Y-127603758D01*
X182830221Y-136569641D01*
X182830220Y-143647455D01*
X182816880Y-143714520D01*
X182830220Y-143781585D01*
X182830220Y-143781588D01*
X182869733Y-143980232D01*
X183020247Y-144205492D01*
X183077107Y-144243485D01*
X184234956Y-145401335D01*
X184186504Y-145644920D01*
X184282044Y-146125232D01*
X184554119Y-146532421D01*
X184961308Y-146804496D01*
X185320381Y-146875920D01*
X185562859Y-146875920D01*
X185921932Y-146804496D01*
X186329121Y-146532421D01*
X186601196Y-146125232D01*
X186696736Y-145644920D01*
X186601196Y-145164608D01*
X186329121Y-144757419D01*
X186078441Y-144589920D01*
X186417929Y-144589920D01*
X186651318Y-144493247D01*
X186829947Y-144314619D01*
X186926620Y-144081230D01*
X186926620Y-143390670D01*
X186767870Y-143231920D01*
X185568620Y-143231920D01*
X185568620Y-143251920D01*
X185314620Y-143251920D01*
X185314620Y-143231920D01*
X185294620Y-143231920D01*
X185294620Y-142977920D01*
X185314620Y-142977920D01*
X185314620Y-141778670D01*
X185568620Y-141778670D01*
X185568620Y-142977920D01*
X186767870Y-142977920D01*
X186926620Y-142819170D01*
X186926620Y-142128610D01*
X186829947Y-141895221D01*
X186651318Y-141716593D01*
X186417929Y-141619920D01*
X185727370Y-141619920D01*
X185568620Y-141778670D01*
X185314620Y-141778670D01*
X185155870Y-141619920D01*
X184465311Y-141619920D01*
X184231922Y-141716593D01*
X184192220Y-141756295D01*
X184192220Y-139291497D01*
X184246175Y-139421764D01*
X184636462Y-139850023D01*
X185160928Y-140096326D01*
X185390820Y-139975659D01*
X185390820Y-138781840D01*
X185644820Y-138781840D01*
X185644820Y-139975659D01*
X185874712Y-140096326D01*
X186399178Y-139850023D01*
X186789465Y-139421764D01*
X186959296Y-139011730D01*
X186837975Y-138781840D01*
X185644820Y-138781840D01*
X185390820Y-138781840D01*
X185370820Y-138781840D01*
X185370820Y-138527840D01*
X185390820Y-138527840D01*
X185390820Y-136241840D01*
X185644820Y-136241840D01*
X185644820Y-138527840D01*
X186837975Y-138527840D01*
X186959296Y-138297950D01*
X186789465Y-137887916D01*
X186399178Y-137459657D01*
X186239866Y-137384840D01*
X186399178Y-137310023D01*
X186789465Y-136881764D01*
X186959296Y-136471730D01*
X186837975Y-136241840D01*
X185644820Y-136241840D01*
X185390820Y-136241840D01*
X185370820Y-136241840D01*
X185370820Y-135987840D01*
X185390820Y-135987840D01*
X185390820Y-133701840D01*
X185644820Y-133701840D01*
X185644820Y-135987840D01*
X186837975Y-135987840D01*
X186959296Y-135757950D01*
X186789465Y-135347916D01*
X186399178Y-134919657D01*
X186239866Y-134844840D01*
X186399178Y-134770023D01*
X186789465Y-134341764D01*
X186959296Y-133931730D01*
X186837975Y-133701840D01*
X185644820Y-133701840D01*
X185390820Y-133701840D01*
X184197665Y-133701840D01*
X184076344Y-133931730D01*
X184246175Y-134341764D01*
X184636462Y-134770023D01*
X184795774Y-134844840D01*
X184636462Y-134919657D01*
X184246175Y-135347916D01*
X184076344Y-135757950D01*
X184197664Y-135987838D01*
X184129983Y-135987838D01*
X184096890Y-135938311D01*
X184040185Y-135853445D01*
X184040183Y-135853443D01*
X184002193Y-135796587D01*
X183945337Y-135758597D01*
X179507330Y-131320590D01*
X184032820Y-131320590D01*
X184032820Y-132011150D01*
X184129493Y-132244539D01*
X184308122Y-132423167D01*
X184517698Y-132509976D01*
X184246175Y-132807916D01*
X184076344Y-133217950D01*
X184197665Y-133447840D01*
X185390820Y-133447840D01*
X185390820Y-131161840D01*
X185644820Y-131161840D01*
X185644820Y-133447840D01*
X186837975Y-133447840D01*
X186959296Y-133217950D01*
X186789465Y-132807916D01*
X186517942Y-132509976D01*
X186727518Y-132423167D01*
X186906147Y-132244539D01*
X187002820Y-132011150D01*
X187002820Y-131320590D01*
X186844070Y-131161840D01*
X185644820Y-131161840D01*
X185390820Y-131161840D01*
X184191570Y-131161840D01*
X184032820Y-131320590D01*
X179507330Y-131320590D01*
X178245270Y-130058530D01*
X184032820Y-130058530D01*
X184032820Y-130749090D01*
X184191570Y-130907840D01*
X185390820Y-130907840D01*
X185390820Y-129708590D01*
X185644820Y-129708590D01*
X185644820Y-130907840D01*
X186844070Y-130907840D01*
X187002820Y-130749090D01*
X187002820Y-130058530D01*
X186906147Y-129825141D01*
X186727518Y-129646513D01*
X186494129Y-129549840D01*
X185803570Y-129549840D01*
X185644820Y-129708590D01*
X185390820Y-129708590D01*
X185232070Y-129549840D01*
X184541511Y-129549840D01*
X184308122Y-129646513D01*
X184129493Y-129825141D01*
X184032820Y-130058530D01*
X178245270Y-130058530D01*
X170092627Y-121905889D01*
X170054633Y-121849027D01*
X169829373Y-121698513D01*
X169630729Y-121659000D01*
X169630725Y-121659000D01*
X169563660Y-121645660D01*
X169496595Y-121659000D01*
X167826772Y-121659000D01*
X167585351Y-121559000D01*
X167274649Y-121559000D01*
X166987599Y-121677900D01*
X166767900Y-121897599D01*
X166649000Y-122184649D01*
X158803969Y-122184649D01*
X158807112Y-116318192D01*
X176008091Y-116333406D01*
X176056700Y-116323782D01*
X176065214Y-116318104D01*
X188567273Y-116323347D01*
X188615878Y-116313700D01*
X188657091Y-116286187D01*
X188684638Y-116244997D01*
X188694325Y-116195905D01*
X188689397Y-114780130D01*
X189085224Y-114780130D01*
X189255055Y-115190164D01*
X189645342Y-115618423D01*
X189871805Y-115724776D01*
X189676700Y-115724776D01*
X189528041Y-115754346D01*
X189402014Y-115838554D01*
X189317806Y-115964581D01*
X189288236Y-116113240D01*
X189288236Y-117813240D01*
X189317806Y-117961899D01*
X189402014Y-118087926D01*
X189528041Y-118172134D01*
X189676700Y-118201704D01*
X191376700Y-118201704D01*
X191525359Y-118172134D01*
X191651386Y-118087926D01*
X191735594Y-117961899D01*
X191765164Y-117813240D01*
X191765164Y-116113240D01*
X191735594Y-115964581D01*
X191651386Y-115838554D01*
X191525359Y-115754346D01*
X191376700Y-115724776D01*
X191181595Y-115724776D01*
X191408058Y-115618423D01*
X191798345Y-115190164D01*
X191968176Y-114780130D01*
X191846855Y-114550240D01*
X190653700Y-114550240D01*
X190653700Y-114570240D01*
X190399700Y-114570240D01*
X190399700Y-114550240D01*
X189206545Y-114550240D01*
X189085224Y-114780130D01*
X188689397Y-114780130D01*
X188686913Y-114066350D01*
X189085224Y-114066350D01*
X189206545Y-114296240D01*
X190399700Y-114296240D01*
X190399700Y-113102421D01*
X190653700Y-113102421D01*
X190653700Y-114296240D01*
X191846855Y-114296240D01*
X191968176Y-114066350D01*
X191798345Y-113656316D01*
X191408058Y-113228057D01*
X190883592Y-112981754D01*
X190653700Y-113102421D01*
X190399700Y-113102421D01*
X190169808Y-112981754D01*
X189645342Y-113228057D01*
X189255055Y-113656316D01*
X189085224Y-114066350D01*
X188686913Y-114066350D01*
X188671661Y-109684890D01*
X189103004Y-109684890D01*
X189272835Y-110094924D01*
X189663122Y-110523183D01*
X190187588Y-110769486D01*
X190417480Y-110648819D01*
X190417480Y-109455000D01*
X190671480Y-109455000D01*
X190671480Y-110648819D01*
X190901372Y-110769486D01*
X191425838Y-110523183D01*
X191816125Y-110094924D01*
X191985956Y-109684890D01*
X191864635Y-109455000D01*
X190671480Y-109455000D01*
X190417480Y-109455000D01*
X189224325Y-109455000D01*
X189103004Y-109684890D01*
X188671661Y-109684890D01*
X188662819Y-107144890D01*
X189103004Y-107144890D01*
X189272835Y-107554924D01*
X189663122Y-107983183D01*
X189822434Y-108058000D01*
X189663122Y-108132817D01*
X189272835Y-108561076D01*
X189103004Y-108971110D01*
X189224325Y-109201000D01*
X190417480Y-109201000D01*
X190417480Y-106915000D01*
X189224325Y-106915000D01*
X189103004Y-107144890D01*
X188662819Y-107144890D01*
X188653729Y-104533750D01*
X189059480Y-104533750D01*
X189059480Y-105224310D01*
X189156153Y-105457699D01*
X189334782Y-105636327D01*
X189544358Y-105723136D01*
X189272835Y-106021076D01*
X189103004Y-106431110D01*
X189224325Y-106661000D01*
X190417480Y-106661000D01*
X190417480Y-104375000D01*
X189218230Y-104375000D01*
X189059480Y-104533750D01*
X188653729Y-104533750D01*
X188649336Y-103271690D01*
X189059480Y-103271690D01*
X189059480Y-103962250D01*
X189218230Y-104121000D01*
X190417480Y-104121000D01*
X190417480Y-102921750D01*
X190258730Y-102763000D01*
X189568171Y-102763000D01*
X189334782Y-102859673D01*
X189156153Y-103038301D01*
X189059480Y-103271690D01*
X188649336Y-103271690D01*
X188640733Y-100799950D01*
X189082340Y-100799950D01*
X189082340Y-101490510D01*
X189179013Y-101723899D01*
X189357642Y-101902527D01*
X189591031Y-101999200D01*
X190281590Y-101999200D01*
X190440340Y-101840450D01*
X190440340Y-100641200D01*
X189241090Y-100641200D01*
X189082340Y-100799950D01*
X188640733Y-100799950D01*
X188636339Y-99537890D01*
X189082340Y-99537890D01*
X189082340Y-100228450D01*
X189241090Y-100387200D01*
X190440340Y-100387200D01*
X190440340Y-100367200D01*
X190694340Y-100367200D01*
X190694340Y-100387200D01*
X190714340Y-100387200D01*
X190714340Y-100641200D01*
X190694340Y-100641200D01*
X190694340Y-101840450D01*
X190853090Y-101999200D01*
X191543649Y-101999200D01*
X191777038Y-101902527D01*
X191826900Y-101852665D01*
X191826900Y-102932395D01*
X191754178Y-102859673D01*
X191520789Y-102763000D01*
X190830230Y-102763000D01*
X190671480Y-102921750D01*
X190671480Y-104121000D01*
X190691480Y-104121000D01*
X190691480Y-104375000D01*
X190671480Y-104375000D01*
X190671480Y-106661000D01*
X190691480Y-106661000D01*
X190691480Y-106915000D01*
X190671480Y-106915000D01*
X190671480Y-109201000D01*
X191864635Y-109201000D01*
X191985956Y-108971110D01*
X191816125Y-108561076D01*
X191425838Y-108132817D01*
X191266526Y-108058000D01*
X191425838Y-107983183D01*
X191816125Y-107554924D01*
X191838650Y-107500542D01*
X191866413Y-107640119D01*
X191866414Y-107640120D01*
X192016928Y-107865380D01*
X192073787Y-107903372D01*
X205624528Y-121454114D01*
X205662520Y-121510973D01*
X205887780Y-121661487D01*
X206086424Y-121701000D01*
X206086428Y-121701000D01*
X206153493Y-121714340D01*
X206220558Y-121701000D01*
X208113228Y-121701000D01*
X208354649Y-121801000D01*
X208665351Y-121801000D01*
X208952401Y-121682100D01*
X209172100Y-121462401D01*
X209291000Y-121175351D01*
X209291000Y-120864649D01*
X209172100Y-120577599D01*
X208952401Y-120357900D01*
X208665351Y-120239000D01*
X208354649Y-120239000D01*
X208113228Y-120339000D01*
X206435572Y-120339000D01*
X203889981Y-117793409D01*
X204970460Y-117793409D01*
X204970460Y-118104111D01*
X205089360Y-118391161D01*
X205309059Y-118610860D01*
X205596109Y-118729760D01*
X205906811Y-118729760D01*
X206148232Y-118629760D01*
X207604175Y-118629760D01*
X207671240Y-118643100D01*
X207738305Y-118629760D01*
X207738309Y-118629760D01*
X207936953Y-118590247D01*
X208162213Y-118439733D01*
X208200207Y-118382871D01*
X210468965Y-116114114D01*
X210468967Y-116114111D01*
X210540977Y-116042101D01*
X210782401Y-115942100D01*
X211002100Y-115722401D01*
X211121000Y-115435351D01*
X211121000Y-115124649D01*
X211002100Y-114837599D01*
X210782401Y-114617900D01*
X210495351Y-114499000D01*
X210184649Y-114499000D01*
X209897599Y-114617900D01*
X209677900Y-114837599D01*
X209577899Y-115079023D01*
X209505889Y-115151033D01*
X209505886Y-115151035D01*
X207389162Y-117267760D01*
X206148232Y-117267760D01*
X205906811Y-117167760D01*
X205596109Y-117167760D01*
X205309059Y-117286660D01*
X205089360Y-117506359D01*
X204970460Y-117793409D01*
X203889981Y-117793409D01*
X202628696Y-116532124D01*
X204806700Y-116531440D01*
X204952708Y-116502303D01*
X205076237Y-116419599D01*
X205158713Y-116295917D01*
X205187580Y-116150088D01*
X205182500Y-110653528D01*
X205156309Y-110515057D01*
X205076175Y-110389845D01*
X204954225Y-110304830D01*
X204809023Y-110272954D01*
X202529583Y-110227934D01*
X202372716Y-110258350D01*
X202249950Y-110342182D01*
X202168610Y-110466614D01*
X202141079Y-110612701D01*
X202196403Y-116099831D01*
X193188900Y-107092329D01*
X193188900Y-99981824D01*
X193202240Y-99914759D01*
X193188900Y-99847692D01*
X193188900Y-99847691D01*
X193149387Y-99649047D01*
X192998872Y-99423787D01*
X192942016Y-99385797D01*
X191774004Y-98217785D01*
X191822456Y-97974200D01*
X191726916Y-97493888D01*
X191454841Y-97086699D01*
X191047652Y-96814624D01*
X190688579Y-96743200D01*
X190446101Y-96743200D01*
X190087028Y-96814624D01*
X189679839Y-97086699D01*
X189407764Y-97493888D01*
X189312224Y-97974200D01*
X189407764Y-98454512D01*
X189679839Y-98861701D01*
X189930519Y-99029200D01*
X189591031Y-99029200D01*
X189357642Y-99125873D01*
X189179013Y-99304501D01*
X189082340Y-99537890D01*
X188636339Y-99537890D01*
X188614718Y-93326900D01*
X189344116Y-93326900D01*
X189344116Y-95026900D01*
X189373686Y-95175559D01*
X189457894Y-95301586D01*
X189583921Y-95385794D01*
X189732580Y-95415364D01*
X191432580Y-95415364D01*
X191581239Y-95385794D01*
X191707266Y-95301586D01*
X191791474Y-95175559D01*
X191821044Y-95026900D01*
X191821044Y-94176900D01*
X191867464Y-94176900D01*
X191963004Y-94657212D01*
X192235079Y-95064401D01*
X192642268Y-95336476D01*
X193001341Y-95407900D01*
X193243819Y-95407900D01*
X193602892Y-95336476D01*
X194010081Y-95064401D01*
X194282156Y-94657212D01*
X194377696Y-94176900D01*
X194407464Y-94176900D01*
X194503004Y-94657212D01*
X194775079Y-95064401D01*
X195182268Y-95336476D01*
X195541341Y-95407900D01*
X195783819Y-95407900D01*
X196142892Y-95336476D01*
X196550081Y-95064401D01*
X196822156Y-94657212D01*
X196917696Y-94176900D01*
X196947464Y-94176900D01*
X197043004Y-94657212D01*
X197315079Y-95064401D01*
X197722268Y-95336476D01*
X198081341Y-95407900D01*
X198323819Y-95407900D01*
X198682892Y-95336476D01*
X199090081Y-95064401D01*
X199362156Y-94657212D01*
X199457696Y-94176900D01*
X199487464Y-94176900D01*
X199583004Y-94657212D01*
X199855079Y-95064401D01*
X200262268Y-95336476D01*
X200621341Y-95407900D01*
X200863819Y-95407900D01*
X201222892Y-95336476D01*
X201630081Y-95064401D01*
X201902156Y-94657212D01*
X201997696Y-94176900D01*
X201902156Y-93696588D01*
X201630081Y-93289399D01*
X201222892Y-93017324D01*
X200863819Y-92945900D01*
X200621341Y-92945900D01*
X200262268Y-93017324D01*
X199855079Y-93289399D01*
X199583004Y-93696588D01*
X199487464Y-94176900D01*
X199457696Y-94176900D01*
X199362156Y-93696588D01*
X199090081Y-93289399D01*
X198682892Y-93017324D01*
X198323819Y-92945900D01*
X198081341Y-92945900D01*
X197722268Y-93017324D01*
X197315079Y-93289399D01*
X197043004Y-93696588D01*
X196947464Y-94176900D01*
X196917696Y-94176900D01*
X196822156Y-93696588D01*
X196550081Y-93289399D01*
X196142892Y-93017324D01*
X195783819Y-92945900D01*
X195541341Y-92945900D01*
X195182268Y-93017324D01*
X194775079Y-93289399D01*
X194503004Y-93696588D01*
X194407464Y-94176900D01*
X194377696Y-94176900D01*
X194282156Y-93696588D01*
X194010081Y-93289399D01*
X193602892Y-93017324D01*
X193243819Y-92945900D01*
X193001341Y-92945900D01*
X192642268Y-93017324D01*
X192235079Y-93289399D01*
X191963004Y-93696588D01*
X191867464Y-94176900D01*
X191821044Y-94176900D01*
X191821044Y-93326900D01*
X191791474Y-93178241D01*
X191707266Y-93052214D01*
X191581239Y-92968006D01*
X191432580Y-92938436D01*
X189732580Y-92938436D01*
X189583921Y-92968006D01*
X189457894Y-93052214D01*
X189373686Y-93178241D01*
X189344116Y-93326900D01*
X188614718Y-93326900D01*
X188601823Y-89622792D01*
X217216952Y-89647968D01*
X217216952Y-89647968D01*
G37*
X217216952Y-89647968D02*
X217196768Y-127336488D01*
X210339386Y-127330422D01*
X210290777Y-127340046D01*
X210281124Y-127346484D01*
X204722541Y-127325455D01*
X204722173Y-127325454D01*
X188702460Y-127311285D01*
X188695786Y-127301371D01*
X188654488Y-127273984D01*
X188606777Y-127264487D01*
X187436785Y-127260061D01*
X187388148Y-127269544D01*
X187346843Y-127296918D01*
X187319157Y-127338016D01*
X187309306Y-127387502D01*
X187402057Y-154031888D01*
X158786928Y-154006712D01*
X158789879Y-148495700D01*
X166484116Y-148495700D01*
X166484116Y-150195700D01*
X166513686Y-150344359D01*
X166597894Y-150470386D01*
X166723921Y-150554594D01*
X166872580Y-150584164D01*
X168572580Y-150584164D01*
X168721239Y-150554594D01*
X168847266Y-150470386D01*
X168931474Y-150344359D01*
X168961044Y-150195700D01*
X168961044Y-149345700D01*
X169007464Y-149345700D01*
X169103004Y-149826012D01*
X169375079Y-150233201D01*
X169782268Y-150505276D01*
X170141341Y-150576700D01*
X170383819Y-150576700D01*
X170742892Y-150505276D01*
X171150081Y-150233201D01*
X171422156Y-149826012D01*
X171517696Y-149345700D01*
X171547464Y-149345700D01*
X171643004Y-149826012D01*
X171915079Y-150233201D01*
X172322268Y-150505276D01*
X172681341Y-150576700D01*
X172923819Y-150576700D01*
X173282892Y-150505276D01*
X173690081Y-150233201D01*
X173962156Y-149826012D01*
X174057696Y-149345700D01*
X174087464Y-149345700D01*
X174183004Y-149826012D01*
X174455079Y-150233201D01*
X174862268Y-150505276D01*
X175221341Y-150576700D01*
X175463819Y-150576700D01*
X175822892Y-150505276D01*
X176230081Y-150233201D01*
X176502156Y-149826012D01*
X176597696Y-149345700D01*
X176627464Y-149345700D01*
X176723004Y-149826012D01*
X176995079Y-150233201D01*
X177402268Y-150505276D01*
X177761341Y-150576700D01*
X178003819Y-150576700D01*
X178362892Y-150505276D01*
X178770081Y-150233201D01*
X179042156Y-149826012D01*
X179137696Y-149345700D01*
X179167464Y-149345700D01*
X179263004Y-149826012D01*
X179535079Y-150233201D01*
X179942268Y-150505276D01*
X180301341Y-150576700D01*
X180543819Y-150576700D01*
X180902892Y-150505276D01*
X181310081Y-150233201D01*
X181582156Y-149826012D01*
X181677696Y-149345700D01*
X181707464Y-149345700D01*
X181803004Y-149826012D01*
X182075079Y-150233201D01*
X182482268Y-150505276D01*
X182841341Y-150576700D01*
X183083819Y-150576700D01*
X183442892Y-150505276D01*
X183850081Y-150233201D01*
X184122156Y-149826012D01*
X184217696Y-149345700D01*
X184247464Y-149345700D01*
X184343004Y-149826012D01*
X184615079Y-150233201D01*
X185022268Y-150505276D01*
X185381341Y-150576700D01*
X185623819Y-150576700D01*
X185982892Y-150505276D01*
X186390081Y-150233201D01*
X186662156Y-149826012D01*
X186757696Y-149345700D01*
X186662156Y-148865388D01*
X186390081Y-148458199D01*
X185982892Y-148186124D01*
X185623819Y-148114700D01*
X185381341Y-148114700D01*
X185022268Y-148186124D01*
X184615079Y-148458199D01*
X184343004Y-148865388D01*
X184247464Y-149345700D01*
X184217696Y-149345700D01*
X184122156Y-148865388D01*
X183850081Y-148458199D01*
X183442892Y-148186124D01*
X183083819Y-148114700D01*
X182841341Y-148114700D01*
X182482268Y-148186124D01*
X182075079Y-148458199D01*
X181803004Y-148865388D01*
X181707464Y-149345700D01*
X181677696Y-149345700D01*
X181582156Y-148865388D01*
X181310081Y-148458199D01*
X180902892Y-148186124D01*
X180543819Y-148114700D01*
X180301341Y-148114700D01*
X179942268Y-148186124D01*
X179535079Y-148458199D01*
X179263004Y-148865388D01*
X179167464Y-149345700D01*
X179137696Y-149345700D01*
X179042156Y-148865388D01*
X178770081Y-148458199D01*
X178362892Y-148186124D01*
X178003819Y-148114700D01*
X177761341Y-148114700D01*
X177402268Y-148186124D01*
X176995079Y-148458199D01*
X176723004Y-148865388D01*
X176627464Y-149345700D01*
X176597696Y-149345700D01*
X176502156Y-148865388D01*
X176230081Y-148458199D01*
X175822892Y-148186124D01*
X175463819Y-148114700D01*
X175221341Y-148114700D01*
X174862268Y-148186124D01*
X174455079Y-148458199D01*
X174183004Y-148865388D01*
X174087464Y-149345700D01*
X174057696Y-149345700D01*
X173962156Y-148865388D01*
X173690081Y-148458199D01*
X173282892Y-148186124D01*
X172923819Y-148114700D01*
X172681341Y-148114700D01*
X172322268Y-148186124D01*
X171915079Y-148458199D01*
X171643004Y-148865388D01*
X171547464Y-149345700D01*
X171517696Y-149345700D01*
X171422156Y-148865388D01*
X171150081Y-148458199D01*
X170742892Y-148186124D01*
X170383819Y-148114700D01*
X170141341Y-148114700D01*
X169782268Y-148186124D01*
X169375079Y-148458199D01*
X169103004Y-148865388D01*
X169007464Y-149345700D01*
X168961044Y-149345700D01*
X168961044Y-148495700D01*
X168931474Y-148347041D01*
X168847266Y-148221014D01*
X168721239Y-148136806D01*
X168572580Y-148107236D01*
X166872580Y-148107236D01*
X166723921Y-148136806D01*
X166597894Y-148221014D01*
X166513686Y-148347041D01*
X166484116Y-148495700D01*
X158789879Y-148495700D01*
X158800839Y-128029839D01*
X165146593Y-128029839D01*
X165146593Y-128340541D01*
X165265493Y-128627591D01*
X165485192Y-128847290D01*
X165772242Y-128966190D01*
X166082944Y-128966190D01*
X166369994Y-128847290D01*
X166589693Y-128627591D01*
X166689694Y-128386167D01*
X166856556Y-128219305D01*
X168688942Y-126386920D01*
X169855648Y-126386920D01*
X170097069Y-126486920D01*
X170407771Y-126486920D01*
X170694821Y-126368020D01*
X170914520Y-126148321D01*
X171033420Y-125861271D01*
X171033420Y-125550569D01*
X170914520Y-125263519D01*
X170694821Y-125043820D01*
X170407771Y-124924920D01*
X170097069Y-124924920D01*
X169855648Y-125024920D01*
X168473927Y-125024920D01*
X168406862Y-125011580D01*
X168339797Y-125024920D01*
X168339794Y-125024920D01*
X168141150Y-125064433D01*
X167915890Y-125214947D01*
X167877898Y-125271806D01*
X165893478Y-127256227D01*
X165726616Y-127423089D01*
X165485192Y-127523090D01*
X165265493Y-127742789D01*
X165146593Y-128029839D01*
X158800839Y-128029839D01*
X158803969Y-122184649D01*
X166649000Y-122184649D01*
X166649000Y-122495351D01*
X166767900Y-122782401D01*
X166987599Y-123002100D01*
X167274649Y-123121000D01*
X167585351Y-123121000D01*
X167826772Y-123021000D01*
X169281582Y-123021000D01*
X173359777Y-127099195D01*
X171533711Y-127119480D01*
X171463589Y-127119480D01*
X171461657Y-127120280D01*
X171193068Y-127123264D01*
X171051172Y-127152377D01*
X170927643Y-127235081D01*
X170845167Y-127358763D01*
X170816300Y-127504592D01*
X170821380Y-133001152D01*
X170849126Y-133143531D01*
X170930636Y-133267851D01*
X171053518Y-133351515D01*
X171199062Y-133381786D01*
X173534622Y-133402126D01*
X173687284Y-133371650D01*
X173810050Y-133287818D01*
X173891390Y-133163386D01*
X173918921Y-133017299D01*
X173864339Y-127603758D01*
X182830221Y-136569641D01*
X182830220Y-143647455D01*
X182816880Y-143714520D01*
X182830220Y-143781585D01*
X182830220Y-143781588D01*
X182869733Y-143980232D01*
X183020247Y-144205492D01*
X183077107Y-144243485D01*
X184234956Y-145401335D01*
X184186504Y-145644920D01*
X184282044Y-146125232D01*
X184554119Y-146532421D01*
X184961308Y-146804496D01*
X185320381Y-146875920D01*
X185562859Y-146875920D01*
X185921932Y-146804496D01*
X186329121Y-146532421D01*
X186601196Y-146125232D01*
X186696736Y-145644920D01*
X186601196Y-145164608D01*
X186329121Y-144757419D01*
X186078441Y-144589920D01*
X186417929Y-144589920D01*
X186651318Y-144493247D01*
X186829947Y-144314619D01*
X186926620Y-144081230D01*
X186926620Y-143390670D01*
X186767870Y-143231920D01*
X185568620Y-143231920D01*
X185568620Y-143251920D01*
X185314620Y-143251920D01*
X185314620Y-143231920D01*
X185294620Y-143231920D01*
X185294620Y-142977920D01*
X185314620Y-142977920D01*
X185314620Y-141778670D01*
X185568620Y-141778670D01*
X185568620Y-142977920D01*
X186767870Y-142977920D01*
X186926620Y-142819170D01*
X186926620Y-142128610D01*
X186829947Y-141895221D01*
X186651318Y-141716593D01*
X186417929Y-141619920D01*
X185727370Y-141619920D01*
X185568620Y-141778670D01*
X185314620Y-141778670D01*
X185155870Y-141619920D01*
X184465311Y-141619920D01*
X184231922Y-141716593D01*
X184192220Y-141756295D01*
X184192220Y-139291497D01*
X184246175Y-139421764D01*
X184636462Y-139850023D01*
X185160928Y-140096326D01*
X185390820Y-139975659D01*
X185390820Y-138781840D01*
X185644820Y-138781840D01*
X185644820Y-139975659D01*
X185874712Y-140096326D01*
X186399178Y-139850023D01*
X186789465Y-139421764D01*
X186959296Y-139011730D01*
X186837975Y-138781840D01*
X185644820Y-138781840D01*
X185390820Y-138781840D01*
X185370820Y-138781840D01*
X185370820Y-138527840D01*
X185390820Y-138527840D01*
X185390820Y-136241840D01*
X185644820Y-136241840D01*
X185644820Y-138527840D01*
X186837975Y-138527840D01*
X186959296Y-138297950D01*
X186789465Y-137887916D01*
X186399178Y-137459657D01*
X186239866Y-137384840D01*
X186399178Y-137310023D01*
X186789465Y-136881764D01*
X186959296Y-136471730D01*
X186837975Y-136241840D01*
X185644820Y-136241840D01*
X185390820Y-136241840D01*
X185370820Y-136241840D01*
X185370820Y-135987840D01*
X185390820Y-135987840D01*
X185390820Y-133701840D01*
X185644820Y-133701840D01*
X185644820Y-135987840D01*
X186837975Y-135987840D01*
X186959296Y-135757950D01*
X186789465Y-135347916D01*
X186399178Y-134919657D01*
X186239866Y-134844840D01*
X186399178Y-134770023D01*
X186789465Y-134341764D01*
X186959296Y-133931730D01*
X186837975Y-133701840D01*
X185644820Y-133701840D01*
X185390820Y-133701840D01*
X184197665Y-133701840D01*
X184076344Y-133931730D01*
X184246175Y-134341764D01*
X184636462Y-134770023D01*
X184795774Y-134844840D01*
X184636462Y-134919657D01*
X184246175Y-135347916D01*
X184076344Y-135757950D01*
X184197664Y-135987838D01*
X184129983Y-135987838D01*
X184096890Y-135938311D01*
X184040185Y-135853445D01*
X184040183Y-135853443D01*
X184002193Y-135796587D01*
X183945337Y-135758597D01*
X179507330Y-131320590D01*
X184032820Y-131320590D01*
X184032820Y-132011150D01*
X184129493Y-132244539D01*
X184308122Y-132423167D01*
X184517698Y-132509976D01*
X184246175Y-132807916D01*
X184076344Y-133217950D01*
X184197665Y-133447840D01*
X185390820Y-133447840D01*
X185390820Y-131161840D01*
X185644820Y-131161840D01*
X185644820Y-133447840D01*
X186837975Y-133447840D01*
X186959296Y-133217950D01*
X186789465Y-132807916D01*
X186517942Y-132509976D01*
X186727518Y-132423167D01*
X186906147Y-132244539D01*
X187002820Y-132011150D01*
X187002820Y-131320590D01*
X186844070Y-131161840D01*
X185644820Y-131161840D01*
X185390820Y-131161840D01*
X184191570Y-131161840D01*
X184032820Y-131320590D01*
X179507330Y-131320590D01*
X178245270Y-130058530D01*
X184032820Y-130058530D01*
X184032820Y-130749090D01*
X184191570Y-130907840D01*
X185390820Y-130907840D01*
X185390820Y-129708590D01*
X185644820Y-129708590D01*
X185644820Y-130907840D01*
X186844070Y-130907840D01*
X187002820Y-130749090D01*
X187002820Y-130058530D01*
X186906147Y-129825141D01*
X186727518Y-129646513D01*
X186494129Y-129549840D01*
X185803570Y-129549840D01*
X185644820Y-129708590D01*
X185390820Y-129708590D01*
X185232070Y-129549840D01*
X184541511Y-129549840D01*
X184308122Y-129646513D01*
X184129493Y-129825141D01*
X184032820Y-130058530D01*
X178245270Y-130058530D01*
X170092627Y-121905889D01*
X170054633Y-121849027D01*
X169829373Y-121698513D01*
X169630729Y-121659000D01*
X169630725Y-121659000D01*
X169563660Y-121645660D01*
X169496595Y-121659000D01*
X167826772Y-121659000D01*
X167585351Y-121559000D01*
X167274649Y-121559000D01*
X166987599Y-121677900D01*
X166767900Y-121897599D01*
X166649000Y-122184649D01*
X158803969Y-122184649D01*
X158807112Y-116318192D01*
X176008091Y-116333406D01*
X176056700Y-116323782D01*
X176065214Y-116318104D01*
X188567273Y-116323347D01*
X188615878Y-116313700D01*
X188657091Y-116286187D01*
X188684638Y-116244997D01*
X188694325Y-116195905D01*
X188689397Y-114780130D01*
X189085224Y-114780130D01*
X189255055Y-115190164D01*
X189645342Y-115618423D01*
X189871805Y-115724776D01*
X189676700Y-115724776D01*
X189528041Y-115754346D01*
X189402014Y-115838554D01*
X189317806Y-115964581D01*
X189288236Y-116113240D01*
X189288236Y-117813240D01*
X189317806Y-117961899D01*
X189402014Y-118087926D01*
X189528041Y-118172134D01*
X189676700Y-118201704D01*
X191376700Y-118201704D01*
X191525359Y-118172134D01*
X191651386Y-118087926D01*
X191735594Y-117961899D01*
X191765164Y-117813240D01*
X191765164Y-116113240D01*
X191735594Y-115964581D01*
X191651386Y-115838554D01*
X191525359Y-115754346D01*
X191376700Y-115724776D01*
X191181595Y-115724776D01*
X191408058Y-115618423D01*
X191798345Y-115190164D01*
X191968176Y-114780130D01*
X191846855Y-114550240D01*
X190653700Y-114550240D01*
X190653700Y-114570240D01*
X190399700Y-114570240D01*
X190399700Y-114550240D01*
X189206545Y-114550240D01*
X189085224Y-114780130D01*
X188689397Y-114780130D01*
X188686913Y-114066350D01*
X189085224Y-114066350D01*
X189206545Y-114296240D01*
X190399700Y-114296240D01*
X190399700Y-113102421D01*
X190653700Y-113102421D01*
X190653700Y-114296240D01*
X191846855Y-114296240D01*
X191968176Y-114066350D01*
X191798345Y-113656316D01*
X191408058Y-113228057D01*
X190883592Y-112981754D01*
X190653700Y-113102421D01*
X190399700Y-113102421D01*
X190169808Y-112981754D01*
X189645342Y-113228057D01*
X189255055Y-113656316D01*
X189085224Y-114066350D01*
X188686913Y-114066350D01*
X188671661Y-109684890D01*
X189103004Y-109684890D01*
X189272835Y-110094924D01*
X189663122Y-110523183D01*
X190187588Y-110769486D01*
X190417480Y-110648819D01*
X190417480Y-109455000D01*
X190671480Y-109455000D01*
X190671480Y-110648819D01*
X190901372Y-110769486D01*
X191425838Y-110523183D01*
X191816125Y-110094924D01*
X191985956Y-109684890D01*
X191864635Y-109455000D01*
X190671480Y-109455000D01*
X190417480Y-109455000D01*
X189224325Y-109455000D01*
X189103004Y-109684890D01*
X188671661Y-109684890D01*
X188662819Y-107144890D01*
X189103004Y-107144890D01*
X189272835Y-107554924D01*
X189663122Y-107983183D01*
X189822434Y-108058000D01*
X189663122Y-108132817D01*
X189272835Y-108561076D01*
X189103004Y-108971110D01*
X189224325Y-109201000D01*
X190417480Y-109201000D01*
X190417480Y-106915000D01*
X189224325Y-106915000D01*
X189103004Y-107144890D01*
X188662819Y-107144890D01*
X188653729Y-104533750D01*
X189059480Y-104533750D01*
X189059480Y-105224310D01*
X189156153Y-105457699D01*
X189334782Y-105636327D01*
X189544358Y-105723136D01*
X189272835Y-106021076D01*
X189103004Y-106431110D01*
X189224325Y-106661000D01*
X190417480Y-106661000D01*
X190417480Y-104375000D01*
X189218230Y-104375000D01*
X189059480Y-104533750D01*
X188653729Y-104533750D01*
X188649336Y-103271690D01*
X189059480Y-103271690D01*
X189059480Y-103962250D01*
X189218230Y-104121000D01*
X190417480Y-104121000D01*
X190417480Y-102921750D01*
X190258730Y-102763000D01*
X189568171Y-102763000D01*
X189334782Y-102859673D01*
X189156153Y-103038301D01*
X189059480Y-103271690D01*
X188649336Y-103271690D01*
X188640733Y-100799950D01*
X189082340Y-100799950D01*
X189082340Y-101490510D01*
X189179013Y-101723899D01*
X189357642Y-101902527D01*
X189591031Y-101999200D01*
X190281590Y-101999200D01*
X190440340Y-101840450D01*
X190440340Y-100641200D01*
X189241090Y-100641200D01*
X189082340Y-100799950D01*
X188640733Y-100799950D01*
X188636339Y-99537890D01*
X189082340Y-99537890D01*
X189082340Y-100228450D01*
X189241090Y-100387200D01*
X190440340Y-100387200D01*
X190440340Y-100367200D01*
X190694340Y-100367200D01*
X190694340Y-100387200D01*
X190714340Y-100387200D01*
X190714340Y-100641200D01*
X190694340Y-100641200D01*
X190694340Y-101840450D01*
X190853090Y-101999200D01*
X191543649Y-101999200D01*
X191777038Y-101902527D01*
X191826900Y-101852665D01*
X191826900Y-102932395D01*
X191754178Y-102859673D01*
X191520789Y-102763000D01*
X190830230Y-102763000D01*
X190671480Y-102921750D01*
X190671480Y-104121000D01*
X190691480Y-104121000D01*
X190691480Y-104375000D01*
X190671480Y-104375000D01*
X190671480Y-106661000D01*
X190691480Y-106661000D01*
X190691480Y-106915000D01*
X190671480Y-106915000D01*
X190671480Y-109201000D01*
X191864635Y-109201000D01*
X191985956Y-108971110D01*
X191816125Y-108561076D01*
X191425838Y-108132817D01*
X191266526Y-108058000D01*
X191425838Y-107983183D01*
X191816125Y-107554924D01*
X191838650Y-107500542D01*
X191866413Y-107640119D01*
X191866414Y-107640120D01*
X192016928Y-107865380D01*
X192073787Y-107903372D01*
X205624528Y-121454114D01*
X205662520Y-121510973D01*
X205887780Y-121661487D01*
X206086424Y-121701000D01*
X206086428Y-121701000D01*
X206153493Y-121714340D01*
X206220558Y-121701000D01*
X208113228Y-121701000D01*
X208354649Y-121801000D01*
X208665351Y-121801000D01*
X208952401Y-121682100D01*
X209172100Y-121462401D01*
X209291000Y-121175351D01*
X209291000Y-120864649D01*
X209172100Y-120577599D01*
X208952401Y-120357900D01*
X208665351Y-120239000D01*
X208354649Y-120239000D01*
X208113228Y-120339000D01*
X206435572Y-120339000D01*
X203889981Y-117793409D01*
X204970460Y-117793409D01*
X204970460Y-118104111D01*
X205089360Y-118391161D01*
X205309059Y-118610860D01*
X205596109Y-118729760D01*
X205906811Y-118729760D01*
X206148232Y-118629760D01*
X207604175Y-118629760D01*
X207671240Y-118643100D01*
X207738305Y-118629760D01*
X207738309Y-118629760D01*
X207936953Y-118590247D01*
X208162213Y-118439733D01*
X208200207Y-118382871D01*
X210468965Y-116114114D01*
X210468967Y-116114111D01*
X210540977Y-116042101D01*
X210782401Y-115942100D01*
X211002100Y-115722401D01*
X211121000Y-115435351D01*
X211121000Y-115124649D01*
X211002100Y-114837599D01*
X210782401Y-114617900D01*
X210495351Y-114499000D01*
X210184649Y-114499000D01*
X209897599Y-114617900D01*
X209677900Y-114837599D01*
X209577899Y-115079023D01*
X209505889Y-115151033D01*
X209505886Y-115151035D01*
X207389162Y-117267760D01*
X206148232Y-117267760D01*
X205906811Y-117167760D01*
X205596109Y-117167760D01*
X205309059Y-117286660D01*
X205089360Y-117506359D01*
X204970460Y-117793409D01*
X203889981Y-117793409D01*
X202628696Y-116532124D01*
X204806700Y-116531440D01*
X204952708Y-116502303D01*
X205076237Y-116419599D01*
X205158713Y-116295917D01*
X205187580Y-116150088D01*
X205182500Y-110653528D01*
X205156309Y-110515057D01*
X205076175Y-110389845D01*
X204954225Y-110304830D01*
X204809023Y-110272954D01*
X202529583Y-110227934D01*
X202372716Y-110258350D01*
X202249950Y-110342182D01*
X202168610Y-110466614D01*
X202141079Y-110612701D01*
X202196403Y-116099831D01*
X193188900Y-107092329D01*
X193188900Y-99981824D01*
X193202240Y-99914759D01*
X193188900Y-99847692D01*
X193188900Y-99847691D01*
X193149387Y-99649047D01*
X192998872Y-99423787D01*
X192942016Y-99385797D01*
X191774004Y-98217785D01*
X191822456Y-97974200D01*
X191726916Y-97493888D01*
X191454841Y-97086699D01*
X191047652Y-96814624D01*
X190688579Y-96743200D01*
X190446101Y-96743200D01*
X190087028Y-96814624D01*
X189679839Y-97086699D01*
X189407764Y-97493888D01*
X189312224Y-97974200D01*
X189407764Y-98454512D01*
X189679839Y-98861701D01*
X189930519Y-99029200D01*
X189591031Y-99029200D01*
X189357642Y-99125873D01*
X189179013Y-99304501D01*
X189082340Y-99537890D01*
X188636339Y-99537890D01*
X188614718Y-93326900D01*
X189344116Y-93326900D01*
X189344116Y-95026900D01*
X189373686Y-95175559D01*
X189457894Y-95301586D01*
X189583921Y-95385794D01*
X189732580Y-95415364D01*
X191432580Y-95415364D01*
X191581239Y-95385794D01*
X191707266Y-95301586D01*
X191791474Y-95175559D01*
X191821044Y-95026900D01*
X191821044Y-94176900D01*
X191867464Y-94176900D01*
X191963004Y-94657212D01*
X192235079Y-95064401D01*
X192642268Y-95336476D01*
X193001341Y-95407900D01*
X193243819Y-95407900D01*
X193602892Y-95336476D01*
X194010081Y-95064401D01*
X194282156Y-94657212D01*
X194377696Y-94176900D01*
X194407464Y-94176900D01*
X194503004Y-94657212D01*
X194775079Y-95064401D01*
X195182268Y-95336476D01*
X195541341Y-95407900D01*
X195783819Y-95407900D01*
X196142892Y-95336476D01*
X196550081Y-95064401D01*
X196822156Y-94657212D01*
X196917696Y-94176900D01*
X196947464Y-94176900D01*
X197043004Y-94657212D01*
X197315079Y-95064401D01*
X197722268Y-95336476D01*
X198081341Y-95407900D01*
X198323819Y-95407900D01*
X198682892Y-95336476D01*
X199090081Y-95064401D01*
X199362156Y-94657212D01*
X199457696Y-94176900D01*
X199487464Y-94176900D01*
X199583004Y-94657212D01*
X199855079Y-95064401D01*
X200262268Y-95336476D01*
X200621341Y-95407900D01*
X200863819Y-95407900D01*
X201222892Y-95336476D01*
X201630081Y-95064401D01*
X201902156Y-94657212D01*
X201997696Y-94176900D01*
X201902156Y-93696588D01*
X201630081Y-93289399D01*
X201222892Y-93017324D01*
X200863819Y-92945900D01*
X200621341Y-92945900D01*
X200262268Y-93017324D01*
X199855079Y-93289399D01*
X199583004Y-93696588D01*
X199487464Y-94176900D01*
X199457696Y-94176900D01*
X199362156Y-93696588D01*
X199090081Y-93289399D01*
X198682892Y-93017324D01*
X198323819Y-92945900D01*
X198081341Y-92945900D01*
X197722268Y-93017324D01*
X197315079Y-93289399D01*
X197043004Y-93696588D01*
X196947464Y-94176900D01*
X196917696Y-94176900D01*
X196822156Y-93696588D01*
X196550081Y-93289399D01*
X196142892Y-93017324D01*
X195783819Y-92945900D01*
X195541341Y-92945900D01*
X195182268Y-93017324D01*
X194775079Y-93289399D01*
X194503004Y-93696588D01*
X194407464Y-94176900D01*
X194377696Y-94176900D01*
X194282156Y-93696588D01*
X194010081Y-93289399D01*
X193602892Y-93017324D01*
X193243819Y-92945900D01*
X193001341Y-92945900D01*
X192642268Y-93017324D01*
X192235079Y-93289399D01*
X191963004Y-93696588D01*
X191867464Y-94176900D01*
X191821044Y-94176900D01*
X191821044Y-93326900D01*
X191791474Y-93178241D01*
X191707266Y-93052214D01*
X191581239Y-92968006D01*
X191432580Y-92938436D01*
X189732580Y-92938436D01*
X189583921Y-92968006D01*
X189457894Y-93052214D01*
X189373686Y-93178241D01*
X189344116Y-93326900D01*
X188614718Y-93326900D01*
X188601823Y-89622792D01*
X217216952Y-89647968D01*
G04 #@! TO.N,Net-(C20-Pad1)*
G36*
X204674615Y-110778398D02*
X204679463Y-116023480D01*
X202703666Y-116024100D01*
X202650373Y-110738419D01*
X204674615Y-110778398D01*
X204674615Y-110778398D01*
G37*
X204674615Y-110778398D02*
X204679463Y-116023480D01*
X202703666Y-116024100D01*
X202650373Y-110738419D01*
X204674615Y-110778398D01*
G04 #@! TO.N,Net-(C17-Pad1)*
G36*
X173409641Y-132893018D02*
X171329264Y-132874900D01*
X171324416Y-127629836D01*
X173356348Y-127607264D01*
X173409641Y-132893018D01*
X173409641Y-132893018D01*
G37*
X173409641Y-132893018D02*
X171329264Y-132874900D01*
X171324416Y-127629836D01*
X173356348Y-127607264D01*
X173409641Y-132893018D01*
G04 #@! TO.N,GND*
G36*
X82347750Y-116429123D02*
X82362062Y-116446562D01*
X82379501Y-116460874D01*
X82379507Y-116460880D01*
X82431679Y-116503696D01*
X82511105Y-116546150D01*
X82597288Y-116572294D01*
X82664455Y-116578909D01*
X82664463Y-116578909D01*
X82686915Y-116581120D01*
X82709367Y-116578909D01*
X83134218Y-116578909D01*
X83134218Y-117721709D01*
X83140593Y-117786439D01*
X83159475Y-117848682D01*
X83190136Y-117906046D01*
X83231399Y-117956325D01*
X83281678Y-117997588D01*
X83339042Y-118028249D01*
X83401285Y-118047131D01*
X83466015Y-118053506D01*
X84861135Y-118053506D01*
X86998736Y-120191109D01*
X80386832Y-120191109D01*
X79952743Y-120148546D01*
X79554249Y-120028234D01*
X79186711Y-119832812D01*
X78864130Y-119569721D01*
X78598799Y-119248990D01*
X78400813Y-118882824D01*
X78319015Y-118618577D01*
X78319015Y-117866201D01*
X78436815Y-117866201D01*
X78436815Y-118246417D01*
X78510992Y-118619327D01*
X78656494Y-118970601D01*
X78867731Y-119286740D01*
X79136584Y-119555593D01*
X79452723Y-119766830D01*
X79803997Y-119912332D01*
X80176907Y-119986509D01*
X80557123Y-119986509D01*
X80930033Y-119912332D01*
X81281307Y-119766830D01*
X81597446Y-119555593D01*
X81866299Y-119286740D01*
X82077536Y-118970601D01*
X82223038Y-118619327D01*
X82297215Y-118246417D01*
X82297215Y-117866201D01*
X82223038Y-117493291D01*
X82077536Y-117142017D01*
X81866299Y-116825878D01*
X81597446Y-116557025D01*
X81281307Y-116345788D01*
X80930033Y-116200286D01*
X80557123Y-116126109D01*
X80176907Y-116126109D01*
X79803997Y-116200286D01*
X79452723Y-116345788D01*
X79136584Y-116557025D01*
X78867731Y-116825878D01*
X78656494Y-117142017D01*
X78510992Y-117493291D01*
X78436815Y-117866201D01*
X78319015Y-117866201D01*
X78319015Y-112400386D01*
X82347750Y-116429123D01*
X82347750Y-116429123D01*
G37*
X82347750Y-116429123D02*
X82362062Y-116446562D01*
X82379501Y-116460874D01*
X82379507Y-116460880D01*
X82431679Y-116503696D01*
X82511105Y-116546150D01*
X82597288Y-116572294D01*
X82664455Y-116578909D01*
X82664463Y-116578909D01*
X82686915Y-116581120D01*
X82709367Y-116578909D01*
X83134218Y-116578909D01*
X83134218Y-117721709D01*
X83140593Y-117786439D01*
X83159475Y-117848682D01*
X83190136Y-117906046D01*
X83231399Y-117956325D01*
X83281678Y-117997588D01*
X83339042Y-118028249D01*
X83401285Y-118047131D01*
X83466015Y-118053506D01*
X84861135Y-118053506D01*
X86998736Y-120191109D01*
X80386832Y-120191109D01*
X79952743Y-120148546D01*
X79554249Y-120028234D01*
X79186711Y-119832812D01*
X78864130Y-119569721D01*
X78598799Y-119248990D01*
X78400813Y-118882824D01*
X78319015Y-118618577D01*
X78319015Y-117866201D01*
X78436815Y-117866201D01*
X78436815Y-118246417D01*
X78510992Y-118619327D01*
X78656494Y-118970601D01*
X78867731Y-119286740D01*
X79136584Y-119555593D01*
X79452723Y-119766830D01*
X79803997Y-119912332D01*
X80176907Y-119986509D01*
X80557123Y-119986509D01*
X80930033Y-119912332D01*
X81281307Y-119766830D01*
X81597446Y-119555593D01*
X81866299Y-119286740D01*
X82077536Y-118970601D01*
X82223038Y-118619327D01*
X82297215Y-118246417D01*
X82297215Y-117866201D01*
X82223038Y-117493291D01*
X82077536Y-117142017D01*
X81866299Y-116825878D01*
X81597446Y-116557025D01*
X81281307Y-116345788D01*
X80930033Y-116200286D01*
X80557123Y-116126109D01*
X80176907Y-116126109D01*
X79803997Y-116200286D01*
X79452723Y-116345788D01*
X79136584Y-116557025D01*
X78867731Y-116825878D01*
X78656494Y-117142017D01*
X78510992Y-117493291D01*
X78436815Y-117866201D01*
X78319015Y-117866201D01*
X78319015Y-112400386D01*
X82347750Y-116429123D01*
G36*
X104378626Y-95603802D02*
X104269508Y-95712920D01*
X104183775Y-95841230D01*
X104124720Y-95983800D01*
X104094615Y-96135151D01*
X104094615Y-96289467D01*
X104124720Y-96440818D01*
X104183775Y-96583388D01*
X104214544Y-96629438D01*
X103260074Y-97583909D01*
X94236209Y-97583909D01*
X94210015Y-97581329D01*
X94183821Y-97583909D01*
X94183820Y-97583909D01*
X94105450Y-97591628D01*
X94004904Y-97622128D01*
X93912240Y-97671658D01*
X93831020Y-97738314D01*
X93814322Y-97758661D01*
X92416191Y-99156792D01*
X92376922Y-99098020D01*
X92267804Y-98988902D01*
X92139494Y-98903169D01*
X91996924Y-98844114D01*
X91845573Y-98814009D01*
X91691257Y-98814009D01*
X91539906Y-98844114D01*
X91397336Y-98903169D01*
X91269026Y-98988902D01*
X91159908Y-99098020D01*
X91074175Y-99226330D01*
X91015120Y-99368900D01*
X90985015Y-99520251D01*
X90985015Y-99674567D01*
X91015120Y-99825918D01*
X91074175Y-99968488D01*
X91159908Y-100096798D01*
X91269026Y-100205916D01*
X91397336Y-100291649D01*
X91539906Y-100350704D01*
X91691257Y-100380809D01*
X91797473Y-100380809D01*
X91862965Y-100446301D01*
X91923839Y-100496259D01*
X92016503Y-100545789D01*
X92117049Y-100576289D01*
X92221613Y-100586587D01*
X92249165Y-100583874D01*
X92276716Y-100586587D01*
X92381280Y-100576289D01*
X92481826Y-100545789D01*
X92574489Y-100496259D01*
X92635364Y-100446301D01*
X94430956Y-98650709D01*
X95723984Y-98650709D01*
X95597336Y-98703169D01*
X95469026Y-98788902D01*
X95359908Y-98898020D01*
X95274175Y-99026330D01*
X95215120Y-99168900D01*
X95185015Y-99320251D01*
X95185015Y-99474567D01*
X95215120Y-99625918D01*
X95274175Y-99768488D01*
X95359908Y-99896798D01*
X95469026Y-100005916D01*
X95511417Y-100034240D01*
X95511014Y-100038330D01*
X95513215Y-100060679D01*
X95513215Y-100060686D01*
X95519802Y-100127564D01*
X95545831Y-100213369D01*
X95588099Y-100292448D01*
X95644983Y-100361762D01*
X95662354Y-100376018D01*
X98011509Y-102725174D01*
X98025761Y-102742540D01*
X98043126Y-102756791D01*
X98043127Y-102756792D01*
X98095074Y-102799424D01*
X98174153Y-102841692D01*
X98259958Y-102867721D01*
X98349193Y-102876510D01*
X98371550Y-102874308D01*
X105379867Y-102874308D01*
X105402216Y-102876509D01*
X105424565Y-102874308D01*
X105424573Y-102874308D01*
X105491451Y-102867721D01*
X105577256Y-102841692D01*
X105656335Y-102799424D01*
X105725648Y-102742540D01*
X105739904Y-102725169D01*
X108308845Y-100156228D01*
X108865815Y-100156228D01*
X108865815Y-100396390D01*
X108912668Y-100631936D01*
X109004574Y-100853817D01*
X109138001Y-101053504D01*
X109307820Y-101223323D01*
X109507507Y-101356750D01*
X109729388Y-101448656D01*
X109964934Y-101495509D01*
X110205096Y-101495509D01*
X110440642Y-101448656D01*
X110662523Y-101356750D01*
X110862210Y-101223323D01*
X111032029Y-101053504D01*
X111165456Y-100853817D01*
X111257362Y-100631936D01*
X111304215Y-100396390D01*
X111304215Y-100156228D01*
X111257362Y-99920682D01*
X111165456Y-99698801D01*
X111032029Y-99499114D01*
X110862210Y-99329295D01*
X110662523Y-99195868D01*
X110440642Y-99103962D01*
X110205096Y-99057109D01*
X109964934Y-99057109D01*
X109729388Y-99103962D01*
X109507507Y-99195868D01*
X109307820Y-99329295D01*
X109138001Y-99499114D01*
X109004574Y-99698801D01*
X108912668Y-99920682D01*
X108865815Y-100156228D01*
X108308845Y-100156228D01*
X109607080Y-98857994D01*
X109729388Y-98908656D01*
X109964934Y-98955509D01*
X110205096Y-98955509D01*
X110440642Y-98908656D01*
X110662523Y-98816750D01*
X110862210Y-98683323D01*
X111032029Y-98513504D01*
X111165456Y-98313817D01*
X111257362Y-98091936D01*
X111304215Y-97856390D01*
X111304215Y-97616228D01*
X111257362Y-97380682D01*
X111165456Y-97158801D01*
X111032029Y-96959114D01*
X110862210Y-96789295D01*
X110662523Y-96655868D01*
X110440642Y-96563962D01*
X110205096Y-96517109D01*
X109964934Y-96517109D01*
X109729388Y-96563962D01*
X109507507Y-96655868D01*
X109307820Y-96789295D01*
X109138001Y-96959114D01*
X109004574Y-97158801D01*
X108912668Y-97380682D01*
X108865815Y-97616228D01*
X108865815Y-97856390D01*
X108912668Y-98091936D01*
X108963330Y-98214244D01*
X105213667Y-101963908D01*
X98537743Y-101963908D01*
X97154643Y-100580809D01*
X97245573Y-100580809D01*
X97396924Y-100550704D01*
X97539494Y-100491649D01*
X97667804Y-100405916D01*
X97776922Y-100296798D01*
X97862655Y-100168488D01*
X97921710Y-100025918D01*
X97951815Y-99874567D01*
X97951815Y-99720251D01*
X97921710Y-99568900D01*
X97862655Y-99426330D01*
X97776922Y-99298020D01*
X97667804Y-99188902D01*
X97623615Y-99159376D01*
X97623615Y-99056151D01*
X105618615Y-99056151D01*
X105618615Y-99210467D01*
X105648720Y-99361818D01*
X105707775Y-99504388D01*
X105793508Y-99632698D01*
X105902626Y-99741816D01*
X106030936Y-99827549D01*
X106173506Y-99886604D01*
X106324857Y-99916709D01*
X106479173Y-99916709D01*
X106630524Y-99886604D01*
X106773094Y-99827549D01*
X106901404Y-99741816D01*
X107010522Y-99632698D01*
X107096255Y-99504388D01*
X107155310Y-99361818D01*
X107185415Y-99210467D01*
X107185415Y-99056151D01*
X107155310Y-98904800D01*
X107096255Y-98762230D01*
X107010522Y-98633920D01*
X106901404Y-98524802D01*
X106773094Y-98439069D01*
X106630524Y-98380014D01*
X106479173Y-98349909D01*
X106324857Y-98349909D01*
X106173506Y-98380014D01*
X106030936Y-98439069D01*
X105902626Y-98524802D01*
X105793508Y-98633920D01*
X105707775Y-98762230D01*
X105648720Y-98904800D01*
X105618615Y-99056151D01*
X97623615Y-99056151D01*
X97623615Y-98650709D01*
X103454828Y-98650709D01*
X103481015Y-98653288D01*
X103507202Y-98650709D01*
X103507210Y-98650709D01*
X103585580Y-98642990D01*
X103686126Y-98612490D01*
X103778790Y-98562960D01*
X103860010Y-98496304D01*
X103876710Y-98475955D01*
X105236666Y-97116000D01*
X105257010Y-97099304D01*
X105323666Y-97018084D01*
X105373196Y-96925420D01*
X105403696Y-96824874D01*
X105407012Y-96791208D01*
X105486522Y-96711698D01*
X105572255Y-96583388D01*
X105631310Y-96440818D01*
X105661415Y-96289467D01*
X105661415Y-96135151D01*
X105631310Y-95983800D01*
X105572255Y-95841230D01*
X105486522Y-95712920D01*
X105377404Y-95603802D01*
X105373972Y-95601509D01*
X109557198Y-95601509D01*
X109991289Y-95644072D01*
X110389785Y-95764385D01*
X110757318Y-95959806D01*
X111079900Y-96222897D01*
X111345232Y-96543629D01*
X111543216Y-96909790D01*
X111666309Y-97307441D01*
X111711815Y-97740400D01*
X111711816Y-118036482D01*
X111669252Y-118470581D01*
X111548940Y-118869075D01*
X111353518Y-119236613D01*
X111090427Y-119559194D01*
X110769696Y-119824525D01*
X110403530Y-120022511D01*
X110005883Y-120145603D01*
X109572924Y-120191109D01*
X97611292Y-120191109D01*
X97629192Y-120173209D01*
X97779673Y-120173209D01*
X97931024Y-120143104D01*
X98073594Y-120084049D01*
X98201904Y-119998316D01*
X98311022Y-119889198D01*
X98396755Y-119760888D01*
X98455810Y-119618318D01*
X98485915Y-119466967D01*
X98485915Y-119312651D01*
X99713115Y-119312651D01*
X99713115Y-119466967D01*
X99743220Y-119618318D01*
X99802275Y-119760888D01*
X99888008Y-119889198D01*
X99997126Y-119998316D01*
X100125436Y-120084049D01*
X100268006Y-120143104D01*
X100419357Y-120173209D01*
X100573673Y-120173209D01*
X100725024Y-120143104D01*
X100867594Y-120084049D01*
X100995904Y-119998316D01*
X101105022Y-119889198D01*
X101190755Y-119760888D01*
X101249810Y-119618318D01*
X101279915Y-119466967D01*
X101279915Y-119312651D01*
X101249810Y-119161300D01*
X101190755Y-119018730D01*
X101105022Y-118890420D01*
X100995904Y-118781302D01*
X100890215Y-118710684D01*
X100890215Y-117936228D01*
X108865815Y-117936228D01*
X108865815Y-118176390D01*
X108912668Y-118411936D01*
X109004574Y-118633817D01*
X109138001Y-118833504D01*
X109307820Y-119003323D01*
X109507507Y-119136750D01*
X109729388Y-119228656D01*
X109964934Y-119275509D01*
X110205096Y-119275509D01*
X110440642Y-119228656D01*
X110662523Y-119136750D01*
X110862210Y-119003323D01*
X111032029Y-118833504D01*
X111165456Y-118633817D01*
X111257362Y-118411936D01*
X111304215Y-118176390D01*
X111304215Y-117936228D01*
X111257362Y-117700682D01*
X111165456Y-117478801D01*
X111032029Y-117279114D01*
X110862210Y-117109295D01*
X110662523Y-116975868D01*
X110440642Y-116883962D01*
X110205096Y-116837109D01*
X109964934Y-116837109D01*
X109729388Y-116883962D01*
X109507507Y-116975868D01*
X109307820Y-117109295D01*
X109138001Y-117279114D01*
X109004574Y-117478801D01*
X108912668Y-117700682D01*
X108865815Y-117936228D01*
X100890215Y-117936228D01*
X100890215Y-116975686D01*
X102469673Y-115396228D01*
X108865815Y-115396228D01*
X108865815Y-115636390D01*
X108912668Y-115871936D01*
X109004574Y-116093817D01*
X109138001Y-116293504D01*
X109307820Y-116463323D01*
X109507507Y-116596750D01*
X109729388Y-116688656D01*
X109964934Y-116735509D01*
X110205096Y-116735509D01*
X110440642Y-116688656D01*
X110662523Y-116596750D01*
X110862210Y-116463323D01*
X111032029Y-116293504D01*
X111165456Y-116093817D01*
X111257362Y-115871936D01*
X111304215Y-115636390D01*
X111304215Y-115396228D01*
X111257362Y-115160682D01*
X111165456Y-114938801D01*
X111032029Y-114739114D01*
X110862210Y-114569295D01*
X110662523Y-114435868D01*
X110440642Y-114343962D01*
X110205096Y-114297109D01*
X109964934Y-114297109D01*
X109729388Y-114343962D01*
X109507507Y-114435868D01*
X109307820Y-114569295D01*
X109138001Y-114739114D01*
X109004574Y-114938801D01*
X108912668Y-115160682D01*
X108865815Y-115396228D01*
X102469673Y-115396228D01*
X104432394Y-113433509D01*
X108954741Y-113433509D01*
X109004574Y-113553817D01*
X109138001Y-113753504D01*
X109307820Y-113923323D01*
X109507507Y-114056750D01*
X109729388Y-114148656D01*
X109964934Y-114195509D01*
X110205096Y-114195509D01*
X110440642Y-114148656D01*
X110662523Y-114056750D01*
X110862210Y-113923323D01*
X111032029Y-113753504D01*
X111165456Y-113553817D01*
X111257362Y-113331936D01*
X111304215Y-113096390D01*
X111304215Y-112856228D01*
X111257362Y-112620682D01*
X111165456Y-112398801D01*
X111032029Y-112199114D01*
X110862210Y-112029295D01*
X110662523Y-111895868D01*
X110440642Y-111803962D01*
X110205096Y-111757109D01*
X109964934Y-111757109D01*
X109729388Y-111803962D01*
X109507507Y-111895868D01*
X109307820Y-112029295D01*
X109138001Y-112199114D01*
X109004574Y-112398801D01*
X108954741Y-112519109D01*
X104265465Y-112519109D01*
X104243015Y-112516898D01*
X104220565Y-112519109D01*
X104220555Y-112519109D01*
X104153388Y-112525724D01*
X104087264Y-112545783D01*
X104067205Y-112551868D01*
X103987779Y-112594322D01*
X103935607Y-112637138D01*
X103935601Y-112637144D01*
X103918162Y-112651456D01*
X103903850Y-112668895D01*
X100125612Y-116447135D01*
X100108162Y-116461456D01*
X100051028Y-116531074D01*
X100008574Y-116610501D01*
X99982430Y-116696683D01*
X99975815Y-116763850D01*
X99975815Y-116763859D01*
X99973604Y-116786309D01*
X99975815Y-116808759D01*
X99975816Y-118802612D01*
X99888008Y-118890420D01*
X99802275Y-119018730D01*
X99743220Y-119161300D01*
X99713115Y-119312651D01*
X98485915Y-119312651D01*
X98455810Y-119161300D01*
X98396755Y-119018730D01*
X98311022Y-118890420D01*
X98201904Y-118781302D01*
X98073594Y-118695569D01*
X97931024Y-118636514D01*
X97779673Y-118606409D01*
X97625357Y-118606409D01*
X97474006Y-118636514D01*
X97331436Y-118695569D01*
X97203126Y-118781302D01*
X97094008Y-118890420D01*
X97008275Y-119018730D01*
X96949220Y-119161300D01*
X96919115Y-119312651D01*
X96919115Y-119466967D01*
X96926503Y-119504109D01*
X87604894Y-119504109D01*
X86154290Y-118053506D01*
X86666015Y-118053506D01*
X86730745Y-118047131D01*
X86792988Y-118028249D01*
X86850352Y-117997588D01*
X86900631Y-117956325D01*
X86941894Y-117906046D01*
X86972555Y-117848682D01*
X86991437Y-117786439D01*
X86997812Y-117721709D01*
X86997812Y-116920251D01*
X94385015Y-116920251D01*
X94385015Y-117074567D01*
X94415120Y-117225918D01*
X94474175Y-117368488D01*
X94559908Y-117496798D01*
X94669026Y-117605916D01*
X94797336Y-117691649D01*
X94939906Y-117750704D01*
X95091257Y-117780809D01*
X95245573Y-117780809D01*
X95396924Y-117750704D01*
X95539494Y-117691649D01*
X95667804Y-117605916D01*
X95743111Y-117530609D01*
X98542230Y-117530609D01*
X98568415Y-117533188D01*
X98594599Y-117530609D01*
X98594600Y-117530609D01*
X98672940Y-117522893D01*
X98773449Y-117492404D01*
X98866078Y-117442893D01*
X98947268Y-117376262D01*
X99013899Y-117295072D01*
X99063410Y-117202443D01*
X99093899Y-117101934D01*
X99104194Y-116997409D01*
X99101615Y-116971224D01*
X99101615Y-115818266D01*
X104603653Y-110316228D01*
X108865815Y-110316228D01*
X108865815Y-110556390D01*
X108912668Y-110791936D01*
X109004574Y-111013817D01*
X109138001Y-111213504D01*
X109307820Y-111383323D01*
X109507507Y-111516750D01*
X109729388Y-111608656D01*
X109964934Y-111655509D01*
X110205096Y-111655509D01*
X110440642Y-111608656D01*
X110662523Y-111516750D01*
X110862210Y-111383323D01*
X111032029Y-111213504D01*
X111165456Y-111013817D01*
X111257362Y-110791936D01*
X111304215Y-110556390D01*
X111304215Y-110316228D01*
X111257362Y-110080682D01*
X111165456Y-109858801D01*
X111032029Y-109659114D01*
X110862210Y-109489295D01*
X110662523Y-109355868D01*
X110440642Y-109263962D01*
X110205096Y-109217109D01*
X109964934Y-109217109D01*
X109729388Y-109263962D01*
X109507507Y-109355868D01*
X109307820Y-109489295D01*
X109138001Y-109659114D01*
X109004574Y-109858801D01*
X108912668Y-110080682D01*
X108865815Y-110316228D01*
X104603653Y-110316228D01*
X105539073Y-109380809D01*
X105645573Y-109380809D01*
X105796924Y-109350704D01*
X105939494Y-109291649D01*
X106067804Y-109205916D01*
X106176922Y-109096798D01*
X106262655Y-108968488D01*
X106321710Y-108825918D01*
X106351815Y-108674567D01*
X106351815Y-108520251D01*
X106321710Y-108368900D01*
X106262655Y-108226330D01*
X106176922Y-108098020D01*
X106067804Y-107988902D01*
X105939494Y-107903169D01*
X105796924Y-107844114D01*
X105645573Y-107814009D01*
X105491257Y-107814009D01*
X105339906Y-107844114D01*
X105197336Y-107903169D01*
X105069026Y-107988902D01*
X104959908Y-108098020D01*
X104874175Y-108226330D01*
X104815120Y-108368900D01*
X104785015Y-108520251D01*
X104785015Y-108626751D01*
X98209906Y-115201861D01*
X98189563Y-115218556D01*
X98122932Y-115299746D01*
X98096467Y-115349258D01*
X98073420Y-115392376D01*
X98042931Y-115492884D01*
X98032636Y-115597409D01*
X98035216Y-115623603D01*
X98035215Y-116464209D01*
X95743111Y-116464209D01*
X95667804Y-116388902D01*
X95539494Y-116303169D01*
X95396924Y-116244114D01*
X95245573Y-116214009D01*
X95091257Y-116214009D01*
X94939906Y-116244114D01*
X94797336Y-116303169D01*
X94669026Y-116388902D01*
X94559908Y-116498020D01*
X94474175Y-116626330D01*
X94415120Y-116768900D01*
X94385015Y-116920251D01*
X86997812Y-116920251D01*
X86997812Y-114521709D01*
X86991437Y-114456979D01*
X86972555Y-114394736D01*
X86941894Y-114337372D01*
X86900631Y-114287093D01*
X86850352Y-114245830D01*
X86792988Y-114215169D01*
X86730745Y-114196287D01*
X86666015Y-114189912D01*
X83466015Y-114189912D01*
X83401285Y-114196287D01*
X83339042Y-114215169D01*
X83281678Y-114245830D01*
X83231399Y-114287093D01*
X83190136Y-114337372D01*
X83159475Y-114394736D01*
X83140593Y-114456979D01*
X83134218Y-114521709D01*
X83134218Y-115664509D01*
X82876294Y-115664509D01*
X78728715Y-111516932D01*
X78728715Y-109024050D01*
X92560815Y-109024050D01*
X92560815Y-109384568D01*
X92631148Y-109738159D01*
X92769112Y-110071234D01*
X92969405Y-110370994D01*
X93224330Y-110625919D01*
X93524090Y-110826212D01*
X93857165Y-110964176D01*
X94210756Y-111034509D01*
X94571274Y-111034509D01*
X94924865Y-110964176D01*
X95257940Y-110826212D01*
X95557700Y-110625919D01*
X95812625Y-110370994D01*
X96012918Y-110071234D01*
X96150882Y-109738159D01*
X96221215Y-109384568D01*
X96221215Y-109024050D01*
X96150882Y-108670459D01*
X96012918Y-108337384D01*
X95812625Y-108037624D01*
X95557700Y-107782699D01*
X95548016Y-107776228D01*
X108865815Y-107776228D01*
X108865815Y-108016390D01*
X108912668Y-108251936D01*
X109004574Y-108473817D01*
X109138001Y-108673504D01*
X109307820Y-108843323D01*
X109507507Y-108976750D01*
X109729388Y-109068656D01*
X109964934Y-109115509D01*
X110205096Y-109115509D01*
X110440642Y-109068656D01*
X110662523Y-108976750D01*
X110862210Y-108843323D01*
X111032029Y-108673504D01*
X111165456Y-108473817D01*
X111257362Y-108251936D01*
X111304215Y-108016390D01*
X111304215Y-107776228D01*
X111257362Y-107540682D01*
X111165456Y-107318801D01*
X111032029Y-107119114D01*
X110862210Y-106949295D01*
X110662523Y-106815868D01*
X110440642Y-106723962D01*
X110205096Y-106677109D01*
X109964934Y-106677109D01*
X109729388Y-106723962D01*
X109507507Y-106815868D01*
X109307820Y-106949295D01*
X109138001Y-107119114D01*
X109004574Y-107318801D01*
X108912668Y-107540682D01*
X108865815Y-107776228D01*
X95548016Y-107776228D01*
X95257940Y-107582406D01*
X94924865Y-107444442D01*
X94571274Y-107374109D01*
X94210756Y-107374109D01*
X93857165Y-107444442D01*
X93524090Y-107582406D01*
X93224330Y-107782699D01*
X92969405Y-108037624D01*
X92769112Y-108337384D01*
X92631148Y-108670459D01*
X92560815Y-109024050D01*
X78728715Y-109024050D01*
X78728715Y-105236228D01*
X108865815Y-105236228D01*
X108865815Y-105476390D01*
X108912668Y-105711936D01*
X109004574Y-105933817D01*
X109138001Y-106133504D01*
X109307820Y-106303323D01*
X109507507Y-106436750D01*
X109729388Y-106528656D01*
X109964934Y-106575509D01*
X110205096Y-106575509D01*
X110440642Y-106528656D01*
X110662523Y-106436750D01*
X110862210Y-106303323D01*
X111032029Y-106133504D01*
X111165456Y-105933817D01*
X111257362Y-105711936D01*
X111304215Y-105476390D01*
X111304215Y-105236228D01*
X111257362Y-105000682D01*
X111165456Y-104778801D01*
X111032029Y-104579114D01*
X110862210Y-104409295D01*
X110662523Y-104275868D01*
X110440642Y-104183962D01*
X110205096Y-104137109D01*
X109964934Y-104137109D01*
X109729388Y-104183962D01*
X109507507Y-104275868D01*
X109307820Y-104409295D01*
X109138001Y-104579114D01*
X109004574Y-104778801D01*
X108912668Y-105000682D01*
X108865815Y-105236228D01*
X78728715Y-105236228D01*
X78728715Y-104720186D01*
X83134218Y-100314684D01*
X83134218Y-101270909D01*
X83140593Y-101335639D01*
X83159475Y-101397882D01*
X83190136Y-101455246D01*
X83231399Y-101505525D01*
X83281678Y-101546788D01*
X83339042Y-101577449D01*
X83401285Y-101596331D01*
X83466015Y-101602706D01*
X86666015Y-101602706D01*
X86730745Y-101596331D01*
X86792988Y-101577449D01*
X86850352Y-101546788D01*
X86900631Y-101505525D01*
X86941894Y-101455246D01*
X86972555Y-101397882D01*
X86991437Y-101335639D01*
X86997812Y-101270909D01*
X86997812Y-98070909D01*
X86991437Y-98006179D01*
X86972555Y-97943936D01*
X86941894Y-97886572D01*
X86900631Y-97836293D01*
X86850352Y-97795030D01*
X86792988Y-97764369D01*
X86730745Y-97745487D01*
X86666015Y-97739112D01*
X83466015Y-97739112D01*
X83401285Y-97745487D01*
X83339042Y-97764369D01*
X83281678Y-97795030D01*
X83231399Y-97836293D01*
X83190136Y-97886572D01*
X83159475Y-97943936D01*
X83140593Y-98006179D01*
X83134218Y-98070909D01*
X83134218Y-99211774D01*
X83131414Y-99211498D01*
X83108964Y-99213709D01*
X83108955Y-99213709D01*
X83041788Y-99220324D01*
X82955606Y-99246468D01*
X82918632Y-99266231D01*
X82876178Y-99288922D01*
X82838005Y-99320251D01*
X82806562Y-99346056D01*
X82792245Y-99363501D01*
X78319015Y-103836732D01*
X78319015Y-97546201D01*
X78436815Y-97546201D01*
X78436815Y-97926417D01*
X78510992Y-98299327D01*
X78656494Y-98650601D01*
X78867731Y-98966740D01*
X79136584Y-99235593D01*
X79452723Y-99446830D01*
X79803997Y-99592332D01*
X80176907Y-99666509D01*
X80557123Y-99666509D01*
X80930033Y-99592332D01*
X81281307Y-99446830D01*
X81597446Y-99235593D01*
X81866299Y-98966740D01*
X82077536Y-98650601D01*
X82223038Y-98299327D01*
X82297215Y-97926417D01*
X82297215Y-97546201D01*
X82223038Y-97173291D01*
X82077536Y-96822017D01*
X81866299Y-96505878D01*
X81597446Y-96237025D01*
X81281307Y-96025788D01*
X80930033Y-95880286D01*
X80557123Y-95806109D01*
X80176907Y-95806109D01*
X79803997Y-95880286D01*
X79452723Y-96025788D01*
X79136584Y-96237025D01*
X78867731Y-96505878D01*
X78656494Y-96822017D01*
X78510992Y-97173291D01*
X78436815Y-97546201D01*
X78319015Y-97546201D01*
X78319015Y-97175515D01*
X78395091Y-96923539D01*
X78590512Y-96556006D01*
X78853603Y-96233424D01*
X79174335Y-95968092D01*
X79540496Y-95770108D01*
X79938147Y-95647015D01*
X80371106Y-95601509D01*
X104382058Y-95601509D01*
X104378626Y-95603802D01*
X104378626Y-95603802D01*
G37*
X104378626Y-95603802D02*
X104269508Y-95712920D01*
X104183775Y-95841230D01*
X104124720Y-95983800D01*
X104094615Y-96135151D01*
X104094615Y-96289467D01*
X104124720Y-96440818D01*
X104183775Y-96583388D01*
X104214544Y-96629438D01*
X103260074Y-97583909D01*
X94236209Y-97583909D01*
X94210015Y-97581329D01*
X94183821Y-97583909D01*
X94183820Y-97583909D01*
X94105450Y-97591628D01*
X94004904Y-97622128D01*
X93912240Y-97671658D01*
X93831020Y-97738314D01*
X93814322Y-97758661D01*
X92416191Y-99156792D01*
X92376922Y-99098020D01*
X92267804Y-98988902D01*
X92139494Y-98903169D01*
X91996924Y-98844114D01*
X91845573Y-98814009D01*
X91691257Y-98814009D01*
X91539906Y-98844114D01*
X91397336Y-98903169D01*
X91269026Y-98988902D01*
X91159908Y-99098020D01*
X91074175Y-99226330D01*
X91015120Y-99368900D01*
X90985015Y-99520251D01*
X90985015Y-99674567D01*
X91015120Y-99825918D01*
X91074175Y-99968488D01*
X91159908Y-100096798D01*
X91269026Y-100205916D01*
X91397336Y-100291649D01*
X91539906Y-100350704D01*
X91691257Y-100380809D01*
X91797473Y-100380809D01*
X91862965Y-100446301D01*
X91923839Y-100496259D01*
X92016503Y-100545789D01*
X92117049Y-100576289D01*
X92221613Y-100586587D01*
X92249165Y-100583874D01*
X92276716Y-100586587D01*
X92381280Y-100576289D01*
X92481826Y-100545789D01*
X92574489Y-100496259D01*
X92635364Y-100446301D01*
X94430956Y-98650709D01*
X95723984Y-98650709D01*
X95597336Y-98703169D01*
X95469026Y-98788902D01*
X95359908Y-98898020D01*
X95274175Y-99026330D01*
X95215120Y-99168900D01*
X95185015Y-99320251D01*
X95185015Y-99474567D01*
X95215120Y-99625918D01*
X95274175Y-99768488D01*
X95359908Y-99896798D01*
X95469026Y-100005916D01*
X95511417Y-100034240D01*
X95511014Y-100038330D01*
X95513215Y-100060679D01*
X95513215Y-100060686D01*
X95519802Y-100127564D01*
X95545831Y-100213369D01*
X95588099Y-100292448D01*
X95644983Y-100361762D01*
X95662354Y-100376018D01*
X98011509Y-102725174D01*
X98025761Y-102742540D01*
X98043126Y-102756791D01*
X98043127Y-102756792D01*
X98095074Y-102799424D01*
X98174153Y-102841692D01*
X98259958Y-102867721D01*
X98349193Y-102876510D01*
X98371550Y-102874308D01*
X105379867Y-102874308D01*
X105402216Y-102876509D01*
X105424565Y-102874308D01*
X105424573Y-102874308D01*
X105491451Y-102867721D01*
X105577256Y-102841692D01*
X105656335Y-102799424D01*
X105725648Y-102742540D01*
X105739904Y-102725169D01*
X108308845Y-100156228D01*
X108865815Y-100156228D01*
X108865815Y-100396390D01*
X108912668Y-100631936D01*
X109004574Y-100853817D01*
X109138001Y-101053504D01*
X109307820Y-101223323D01*
X109507507Y-101356750D01*
X109729388Y-101448656D01*
X109964934Y-101495509D01*
X110205096Y-101495509D01*
X110440642Y-101448656D01*
X110662523Y-101356750D01*
X110862210Y-101223323D01*
X111032029Y-101053504D01*
X111165456Y-100853817D01*
X111257362Y-100631936D01*
X111304215Y-100396390D01*
X111304215Y-100156228D01*
X111257362Y-99920682D01*
X111165456Y-99698801D01*
X111032029Y-99499114D01*
X110862210Y-99329295D01*
X110662523Y-99195868D01*
X110440642Y-99103962D01*
X110205096Y-99057109D01*
X109964934Y-99057109D01*
X109729388Y-99103962D01*
X109507507Y-99195868D01*
X109307820Y-99329295D01*
X109138001Y-99499114D01*
X109004574Y-99698801D01*
X108912668Y-99920682D01*
X108865815Y-100156228D01*
X108308845Y-100156228D01*
X109607080Y-98857994D01*
X109729388Y-98908656D01*
X109964934Y-98955509D01*
X110205096Y-98955509D01*
X110440642Y-98908656D01*
X110662523Y-98816750D01*
X110862210Y-98683323D01*
X111032029Y-98513504D01*
X111165456Y-98313817D01*
X111257362Y-98091936D01*
X111304215Y-97856390D01*
X111304215Y-97616228D01*
X111257362Y-97380682D01*
X111165456Y-97158801D01*
X111032029Y-96959114D01*
X110862210Y-96789295D01*
X110662523Y-96655868D01*
X110440642Y-96563962D01*
X110205096Y-96517109D01*
X109964934Y-96517109D01*
X109729388Y-96563962D01*
X109507507Y-96655868D01*
X109307820Y-96789295D01*
X109138001Y-96959114D01*
X109004574Y-97158801D01*
X108912668Y-97380682D01*
X108865815Y-97616228D01*
X108865815Y-97856390D01*
X108912668Y-98091936D01*
X108963330Y-98214244D01*
X105213667Y-101963908D01*
X98537743Y-101963908D01*
X97154643Y-100580809D01*
X97245573Y-100580809D01*
X97396924Y-100550704D01*
X97539494Y-100491649D01*
X97667804Y-100405916D01*
X97776922Y-100296798D01*
X97862655Y-100168488D01*
X97921710Y-100025918D01*
X97951815Y-99874567D01*
X97951815Y-99720251D01*
X97921710Y-99568900D01*
X97862655Y-99426330D01*
X97776922Y-99298020D01*
X97667804Y-99188902D01*
X97623615Y-99159376D01*
X97623615Y-99056151D01*
X105618615Y-99056151D01*
X105618615Y-99210467D01*
X105648720Y-99361818D01*
X105707775Y-99504388D01*
X105793508Y-99632698D01*
X105902626Y-99741816D01*
X106030936Y-99827549D01*
X106173506Y-99886604D01*
X106324857Y-99916709D01*
X106479173Y-99916709D01*
X106630524Y-99886604D01*
X106773094Y-99827549D01*
X106901404Y-99741816D01*
X107010522Y-99632698D01*
X107096255Y-99504388D01*
X107155310Y-99361818D01*
X107185415Y-99210467D01*
X107185415Y-99056151D01*
X107155310Y-98904800D01*
X107096255Y-98762230D01*
X107010522Y-98633920D01*
X106901404Y-98524802D01*
X106773094Y-98439069D01*
X106630524Y-98380014D01*
X106479173Y-98349909D01*
X106324857Y-98349909D01*
X106173506Y-98380014D01*
X106030936Y-98439069D01*
X105902626Y-98524802D01*
X105793508Y-98633920D01*
X105707775Y-98762230D01*
X105648720Y-98904800D01*
X105618615Y-99056151D01*
X97623615Y-99056151D01*
X97623615Y-98650709D01*
X103454828Y-98650709D01*
X103481015Y-98653288D01*
X103507202Y-98650709D01*
X103507210Y-98650709D01*
X103585580Y-98642990D01*
X103686126Y-98612490D01*
X103778790Y-98562960D01*
X103860010Y-98496304D01*
X103876710Y-98475955D01*
X105236666Y-97116000D01*
X105257010Y-97099304D01*
X105323666Y-97018084D01*
X105373196Y-96925420D01*
X105403696Y-96824874D01*
X105407012Y-96791208D01*
X105486522Y-96711698D01*
X105572255Y-96583388D01*
X105631310Y-96440818D01*
X105661415Y-96289467D01*
X105661415Y-96135151D01*
X105631310Y-95983800D01*
X105572255Y-95841230D01*
X105486522Y-95712920D01*
X105377404Y-95603802D01*
X105373972Y-95601509D01*
X109557198Y-95601509D01*
X109991289Y-95644072D01*
X110389785Y-95764385D01*
X110757318Y-95959806D01*
X111079900Y-96222897D01*
X111345232Y-96543629D01*
X111543216Y-96909790D01*
X111666309Y-97307441D01*
X111711815Y-97740400D01*
X111711816Y-118036482D01*
X111669252Y-118470581D01*
X111548940Y-118869075D01*
X111353518Y-119236613D01*
X111090427Y-119559194D01*
X110769696Y-119824525D01*
X110403530Y-120022511D01*
X110005883Y-120145603D01*
X109572924Y-120191109D01*
X97611292Y-120191109D01*
X97629192Y-120173209D01*
X97779673Y-120173209D01*
X97931024Y-120143104D01*
X98073594Y-120084049D01*
X98201904Y-119998316D01*
X98311022Y-119889198D01*
X98396755Y-119760888D01*
X98455810Y-119618318D01*
X98485915Y-119466967D01*
X98485915Y-119312651D01*
X99713115Y-119312651D01*
X99713115Y-119466967D01*
X99743220Y-119618318D01*
X99802275Y-119760888D01*
X99888008Y-119889198D01*
X99997126Y-119998316D01*
X100125436Y-120084049D01*
X100268006Y-120143104D01*
X100419357Y-120173209D01*
X100573673Y-120173209D01*
X100725024Y-120143104D01*
X100867594Y-120084049D01*
X100995904Y-119998316D01*
X101105022Y-119889198D01*
X101190755Y-119760888D01*
X101249810Y-119618318D01*
X101279915Y-119466967D01*
X101279915Y-119312651D01*
X101249810Y-119161300D01*
X101190755Y-119018730D01*
X101105022Y-118890420D01*
X100995904Y-118781302D01*
X100890215Y-118710684D01*
X100890215Y-117936228D01*
X108865815Y-117936228D01*
X108865815Y-118176390D01*
X108912668Y-118411936D01*
X109004574Y-118633817D01*
X109138001Y-118833504D01*
X109307820Y-119003323D01*
X109507507Y-119136750D01*
X109729388Y-119228656D01*
X109964934Y-119275509D01*
X110205096Y-119275509D01*
X110440642Y-119228656D01*
X110662523Y-119136750D01*
X110862210Y-119003323D01*
X111032029Y-118833504D01*
X111165456Y-118633817D01*
X111257362Y-118411936D01*
X111304215Y-118176390D01*
X111304215Y-117936228D01*
X111257362Y-117700682D01*
X111165456Y-117478801D01*
X111032029Y-117279114D01*
X110862210Y-117109295D01*
X110662523Y-116975868D01*
X110440642Y-116883962D01*
X110205096Y-116837109D01*
X109964934Y-116837109D01*
X109729388Y-116883962D01*
X109507507Y-116975868D01*
X109307820Y-117109295D01*
X109138001Y-117279114D01*
X109004574Y-117478801D01*
X108912668Y-117700682D01*
X108865815Y-117936228D01*
X100890215Y-117936228D01*
X100890215Y-116975686D01*
X102469673Y-115396228D01*
X108865815Y-115396228D01*
X108865815Y-115636390D01*
X108912668Y-115871936D01*
X109004574Y-116093817D01*
X109138001Y-116293504D01*
X109307820Y-116463323D01*
X109507507Y-116596750D01*
X109729388Y-116688656D01*
X109964934Y-116735509D01*
X110205096Y-116735509D01*
X110440642Y-116688656D01*
X110662523Y-116596750D01*
X110862210Y-116463323D01*
X111032029Y-116293504D01*
X111165456Y-116093817D01*
X111257362Y-115871936D01*
X111304215Y-115636390D01*
X111304215Y-115396228D01*
X111257362Y-115160682D01*
X111165456Y-114938801D01*
X111032029Y-114739114D01*
X110862210Y-114569295D01*
X110662523Y-114435868D01*
X110440642Y-114343962D01*
X110205096Y-114297109D01*
X109964934Y-114297109D01*
X109729388Y-114343962D01*
X109507507Y-114435868D01*
X109307820Y-114569295D01*
X109138001Y-114739114D01*
X109004574Y-114938801D01*
X108912668Y-115160682D01*
X108865815Y-115396228D01*
X102469673Y-115396228D01*
X104432394Y-113433509D01*
X108954741Y-113433509D01*
X109004574Y-113553817D01*
X109138001Y-113753504D01*
X109307820Y-113923323D01*
X109507507Y-114056750D01*
X109729388Y-114148656D01*
X109964934Y-114195509D01*
X110205096Y-114195509D01*
X110440642Y-114148656D01*
X110662523Y-114056750D01*
X110862210Y-113923323D01*
X111032029Y-113753504D01*
X111165456Y-113553817D01*
X111257362Y-113331936D01*
X111304215Y-113096390D01*
X111304215Y-112856228D01*
X111257362Y-112620682D01*
X111165456Y-112398801D01*
X111032029Y-112199114D01*
X110862210Y-112029295D01*
X110662523Y-111895868D01*
X110440642Y-111803962D01*
X110205096Y-111757109D01*
X109964934Y-111757109D01*
X109729388Y-111803962D01*
X109507507Y-111895868D01*
X109307820Y-112029295D01*
X109138001Y-112199114D01*
X109004574Y-112398801D01*
X108954741Y-112519109D01*
X104265465Y-112519109D01*
X104243015Y-112516898D01*
X104220565Y-112519109D01*
X104220555Y-112519109D01*
X104153388Y-112525724D01*
X104087264Y-112545783D01*
X104067205Y-112551868D01*
X103987779Y-112594322D01*
X103935607Y-112637138D01*
X103935601Y-112637144D01*
X103918162Y-112651456D01*
X103903850Y-112668895D01*
X100125612Y-116447135D01*
X100108162Y-116461456D01*
X100051028Y-116531074D01*
X100008574Y-116610501D01*
X99982430Y-116696683D01*
X99975815Y-116763850D01*
X99975815Y-116763859D01*
X99973604Y-116786309D01*
X99975815Y-116808759D01*
X99975816Y-118802612D01*
X99888008Y-118890420D01*
X99802275Y-119018730D01*
X99743220Y-119161300D01*
X99713115Y-119312651D01*
X98485915Y-119312651D01*
X98455810Y-119161300D01*
X98396755Y-119018730D01*
X98311022Y-118890420D01*
X98201904Y-118781302D01*
X98073594Y-118695569D01*
X97931024Y-118636514D01*
X97779673Y-118606409D01*
X97625357Y-118606409D01*
X97474006Y-118636514D01*
X97331436Y-118695569D01*
X97203126Y-118781302D01*
X97094008Y-118890420D01*
X97008275Y-119018730D01*
X96949220Y-119161300D01*
X96919115Y-119312651D01*
X96919115Y-119466967D01*
X96926503Y-119504109D01*
X87604894Y-119504109D01*
X86154290Y-118053506D01*
X86666015Y-118053506D01*
X86730745Y-118047131D01*
X86792988Y-118028249D01*
X86850352Y-117997588D01*
X86900631Y-117956325D01*
X86941894Y-117906046D01*
X86972555Y-117848682D01*
X86991437Y-117786439D01*
X86997812Y-117721709D01*
X86997812Y-116920251D01*
X94385015Y-116920251D01*
X94385015Y-117074567D01*
X94415120Y-117225918D01*
X94474175Y-117368488D01*
X94559908Y-117496798D01*
X94669026Y-117605916D01*
X94797336Y-117691649D01*
X94939906Y-117750704D01*
X95091257Y-117780809D01*
X95245573Y-117780809D01*
X95396924Y-117750704D01*
X95539494Y-117691649D01*
X95667804Y-117605916D01*
X95743111Y-117530609D01*
X98542230Y-117530609D01*
X98568415Y-117533188D01*
X98594599Y-117530609D01*
X98594600Y-117530609D01*
X98672940Y-117522893D01*
X98773449Y-117492404D01*
X98866078Y-117442893D01*
X98947268Y-117376262D01*
X99013899Y-117295072D01*
X99063410Y-117202443D01*
X99093899Y-117101934D01*
X99104194Y-116997409D01*
X99101615Y-116971224D01*
X99101615Y-115818266D01*
X104603653Y-110316228D01*
X108865815Y-110316228D01*
X108865815Y-110556390D01*
X108912668Y-110791936D01*
X109004574Y-111013817D01*
X109138001Y-111213504D01*
X109307820Y-111383323D01*
X109507507Y-111516750D01*
X109729388Y-111608656D01*
X109964934Y-111655509D01*
X110205096Y-111655509D01*
X110440642Y-111608656D01*
X110662523Y-111516750D01*
X110862210Y-111383323D01*
X111032029Y-111213504D01*
X111165456Y-111013817D01*
X111257362Y-110791936D01*
X111304215Y-110556390D01*
X111304215Y-110316228D01*
X111257362Y-110080682D01*
X111165456Y-109858801D01*
X111032029Y-109659114D01*
X110862210Y-109489295D01*
X110662523Y-109355868D01*
X110440642Y-109263962D01*
X110205096Y-109217109D01*
X109964934Y-109217109D01*
X109729388Y-109263962D01*
X109507507Y-109355868D01*
X109307820Y-109489295D01*
X109138001Y-109659114D01*
X109004574Y-109858801D01*
X108912668Y-110080682D01*
X108865815Y-110316228D01*
X104603653Y-110316228D01*
X105539073Y-109380809D01*
X105645573Y-109380809D01*
X105796924Y-109350704D01*
X105939494Y-109291649D01*
X106067804Y-109205916D01*
X106176922Y-109096798D01*
X106262655Y-108968488D01*
X106321710Y-108825918D01*
X106351815Y-108674567D01*
X106351815Y-108520251D01*
X106321710Y-108368900D01*
X106262655Y-108226330D01*
X106176922Y-108098020D01*
X106067804Y-107988902D01*
X105939494Y-107903169D01*
X105796924Y-107844114D01*
X105645573Y-107814009D01*
X105491257Y-107814009D01*
X105339906Y-107844114D01*
X105197336Y-107903169D01*
X105069026Y-107988902D01*
X104959908Y-108098020D01*
X104874175Y-108226330D01*
X104815120Y-108368900D01*
X104785015Y-108520251D01*
X104785015Y-108626751D01*
X98209906Y-115201861D01*
X98189563Y-115218556D01*
X98122932Y-115299746D01*
X98096467Y-115349258D01*
X98073420Y-115392376D01*
X98042931Y-115492884D01*
X98032636Y-115597409D01*
X98035216Y-115623603D01*
X98035215Y-116464209D01*
X95743111Y-116464209D01*
X95667804Y-116388902D01*
X95539494Y-116303169D01*
X95396924Y-116244114D01*
X95245573Y-116214009D01*
X95091257Y-116214009D01*
X94939906Y-116244114D01*
X94797336Y-116303169D01*
X94669026Y-116388902D01*
X94559908Y-116498020D01*
X94474175Y-116626330D01*
X94415120Y-116768900D01*
X94385015Y-116920251D01*
X86997812Y-116920251D01*
X86997812Y-114521709D01*
X86991437Y-114456979D01*
X86972555Y-114394736D01*
X86941894Y-114337372D01*
X86900631Y-114287093D01*
X86850352Y-114245830D01*
X86792988Y-114215169D01*
X86730745Y-114196287D01*
X86666015Y-114189912D01*
X83466015Y-114189912D01*
X83401285Y-114196287D01*
X83339042Y-114215169D01*
X83281678Y-114245830D01*
X83231399Y-114287093D01*
X83190136Y-114337372D01*
X83159475Y-114394736D01*
X83140593Y-114456979D01*
X83134218Y-114521709D01*
X83134218Y-115664509D01*
X82876294Y-115664509D01*
X78728715Y-111516932D01*
X78728715Y-109024050D01*
X92560815Y-109024050D01*
X92560815Y-109384568D01*
X92631148Y-109738159D01*
X92769112Y-110071234D01*
X92969405Y-110370994D01*
X93224330Y-110625919D01*
X93524090Y-110826212D01*
X93857165Y-110964176D01*
X94210756Y-111034509D01*
X94571274Y-111034509D01*
X94924865Y-110964176D01*
X95257940Y-110826212D01*
X95557700Y-110625919D01*
X95812625Y-110370994D01*
X96012918Y-110071234D01*
X96150882Y-109738159D01*
X96221215Y-109384568D01*
X96221215Y-109024050D01*
X96150882Y-108670459D01*
X96012918Y-108337384D01*
X95812625Y-108037624D01*
X95557700Y-107782699D01*
X95548016Y-107776228D01*
X108865815Y-107776228D01*
X108865815Y-108016390D01*
X108912668Y-108251936D01*
X109004574Y-108473817D01*
X109138001Y-108673504D01*
X109307820Y-108843323D01*
X109507507Y-108976750D01*
X109729388Y-109068656D01*
X109964934Y-109115509D01*
X110205096Y-109115509D01*
X110440642Y-109068656D01*
X110662523Y-108976750D01*
X110862210Y-108843323D01*
X111032029Y-108673504D01*
X111165456Y-108473817D01*
X111257362Y-108251936D01*
X111304215Y-108016390D01*
X111304215Y-107776228D01*
X111257362Y-107540682D01*
X111165456Y-107318801D01*
X111032029Y-107119114D01*
X110862210Y-106949295D01*
X110662523Y-106815868D01*
X110440642Y-106723962D01*
X110205096Y-106677109D01*
X109964934Y-106677109D01*
X109729388Y-106723962D01*
X109507507Y-106815868D01*
X109307820Y-106949295D01*
X109138001Y-107119114D01*
X109004574Y-107318801D01*
X108912668Y-107540682D01*
X108865815Y-107776228D01*
X95548016Y-107776228D01*
X95257940Y-107582406D01*
X94924865Y-107444442D01*
X94571274Y-107374109D01*
X94210756Y-107374109D01*
X93857165Y-107444442D01*
X93524090Y-107582406D01*
X93224330Y-107782699D01*
X92969405Y-108037624D01*
X92769112Y-108337384D01*
X92631148Y-108670459D01*
X92560815Y-109024050D01*
X78728715Y-109024050D01*
X78728715Y-105236228D01*
X108865815Y-105236228D01*
X108865815Y-105476390D01*
X108912668Y-105711936D01*
X109004574Y-105933817D01*
X109138001Y-106133504D01*
X109307820Y-106303323D01*
X109507507Y-106436750D01*
X109729388Y-106528656D01*
X109964934Y-106575509D01*
X110205096Y-106575509D01*
X110440642Y-106528656D01*
X110662523Y-106436750D01*
X110862210Y-106303323D01*
X111032029Y-106133504D01*
X111165456Y-105933817D01*
X111257362Y-105711936D01*
X111304215Y-105476390D01*
X111304215Y-105236228D01*
X111257362Y-105000682D01*
X111165456Y-104778801D01*
X111032029Y-104579114D01*
X110862210Y-104409295D01*
X110662523Y-104275868D01*
X110440642Y-104183962D01*
X110205096Y-104137109D01*
X109964934Y-104137109D01*
X109729388Y-104183962D01*
X109507507Y-104275868D01*
X109307820Y-104409295D01*
X109138001Y-104579114D01*
X109004574Y-104778801D01*
X108912668Y-105000682D01*
X108865815Y-105236228D01*
X78728715Y-105236228D01*
X78728715Y-104720186D01*
X83134218Y-100314684D01*
X83134218Y-101270909D01*
X83140593Y-101335639D01*
X83159475Y-101397882D01*
X83190136Y-101455246D01*
X83231399Y-101505525D01*
X83281678Y-101546788D01*
X83339042Y-101577449D01*
X83401285Y-101596331D01*
X83466015Y-101602706D01*
X86666015Y-101602706D01*
X86730745Y-101596331D01*
X86792988Y-101577449D01*
X86850352Y-101546788D01*
X86900631Y-101505525D01*
X86941894Y-101455246D01*
X86972555Y-101397882D01*
X86991437Y-101335639D01*
X86997812Y-101270909D01*
X86997812Y-98070909D01*
X86991437Y-98006179D01*
X86972555Y-97943936D01*
X86941894Y-97886572D01*
X86900631Y-97836293D01*
X86850352Y-97795030D01*
X86792988Y-97764369D01*
X86730745Y-97745487D01*
X86666015Y-97739112D01*
X83466015Y-97739112D01*
X83401285Y-97745487D01*
X83339042Y-97764369D01*
X83281678Y-97795030D01*
X83231399Y-97836293D01*
X83190136Y-97886572D01*
X83159475Y-97943936D01*
X83140593Y-98006179D01*
X83134218Y-98070909D01*
X83134218Y-99211774D01*
X83131414Y-99211498D01*
X83108964Y-99213709D01*
X83108955Y-99213709D01*
X83041788Y-99220324D01*
X82955606Y-99246468D01*
X82918632Y-99266231D01*
X82876178Y-99288922D01*
X82838005Y-99320251D01*
X82806562Y-99346056D01*
X82792245Y-99363501D01*
X78319015Y-103836732D01*
X78319015Y-97546201D01*
X78436815Y-97546201D01*
X78436815Y-97926417D01*
X78510992Y-98299327D01*
X78656494Y-98650601D01*
X78867731Y-98966740D01*
X79136584Y-99235593D01*
X79452723Y-99446830D01*
X79803997Y-99592332D01*
X80176907Y-99666509D01*
X80557123Y-99666509D01*
X80930033Y-99592332D01*
X81281307Y-99446830D01*
X81597446Y-99235593D01*
X81866299Y-98966740D01*
X82077536Y-98650601D01*
X82223038Y-98299327D01*
X82297215Y-97926417D01*
X82297215Y-97546201D01*
X82223038Y-97173291D01*
X82077536Y-96822017D01*
X81866299Y-96505878D01*
X81597446Y-96237025D01*
X81281307Y-96025788D01*
X80930033Y-95880286D01*
X80557123Y-95806109D01*
X80176907Y-95806109D01*
X79803997Y-95880286D01*
X79452723Y-96025788D01*
X79136584Y-96237025D01*
X78867731Y-96505878D01*
X78656494Y-96822017D01*
X78510992Y-97173291D01*
X78436815Y-97546201D01*
X78319015Y-97546201D01*
X78319015Y-97175515D01*
X78395091Y-96923539D01*
X78590512Y-96556006D01*
X78853603Y-96233424D01*
X79174335Y-95968092D01*
X79540496Y-95770108D01*
X79938147Y-95647015D01*
X80371106Y-95601509D01*
X104382058Y-95601509D01*
X104378626Y-95603802D01*
G04 #@! TO.N,+3V3*
G36*
X175626388Y-54933665D02*
X175621332Y-106973355D01*
X115022469Y-106932885D01*
X115039607Y-102282960D01*
X116237280Y-102282960D01*
X116237280Y-103982960D01*
X116286563Y-104230725D01*
X116426911Y-104440769D01*
X116636955Y-104581117D01*
X116884720Y-104630400D01*
X118584720Y-104630400D01*
X118832485Y-104581117D01*
X119042529Y-104440769D01*
X119182877Y-104230725D01*
X119203459Y-104127252D01*
X119507796Y-104404605D01*
X119917830Y-104574436D01*
X120147720Y-104453115D01*
X120147720Y-103259960D01*
X120401720Y-103259960D01*
X120401720Y-104453115D01*
X120631610Y-104574436D01*
X121041644Y-104404605D01*
X121469903Y-104014318D01*
X121716206Y-103489852D01*
X121595539Y-103259960D01*
X120401720Y-103259960D01*
X120147720Y-103259960D01*
X120127720Y-103259960D01*
X120127720Y-103005960D01*
X120147720Y-103005960D01*
X120147720Y-101812805D01*
X120401720Y-101812805D01*
X120401720Y-103005960D01*
X121595539Y-103005960D01*
X121716206Y-102776068D01*
X121469903Y-102251602D01*
X121041644Y-101861315D01*
X120631610Y-101691484D01*
X120401720Y-101812805D01*
X120147720Y-101812805D01*
X119917830Y-101691484D01*
X119507796Y-101861315D01*
X119203459Y-102138668D01*
X119182877Y-102035195D01*
X119042529Y-101825151D01*
X118832485Y-101684803D01*
X118584720Y-101635520D01*
X116884720Y-101635520D01*
X116636955Y-101684803D01*
X116426911Y-101825151D01*
X116286563Y-102035195D01*
X116237280Y-102282960D01*
X115039607Y-102282960D01*
X115072475Y-93365410D01*
X116191644Y-93365410D01*
X116361475Y-93775444D01*
X116751762Y-94203703D01*
X117276228Y-94450006D01*
X117506120Y-94329339D01*
X117506120Y-93135520D01*
X117760120Y-93135520D01*
X117760120Y-94329339D01*
X117990012Y-94450006D01*
X118514478Y-94203703D01*
X118696190Y-94004312D01*
X118784793Y-94218219D01*
X118963422Y-94396847D01*
X119196811Y-94493520D01*
X119887370Y-94493520D01*
X120046120Y-94334770D01*
X120046120Y-93135520D01*
X120300120Y-93135520D01*
X120300120Y-94334770D01*
X120458870Y-94493520D01*
X121149429Y-94493520D01*
X121382818Y-94396847D01*
X121561447Y-94218219D01*
X121658120Y-93984830D01*
X121658120Y-93294270D01*
X121499370Y-93135520D01*
X120300120Y-93135520D01*
X120046120Y-93135520D01*
X117760120Y-93135520D01*
X117506120Y-93135520D01*
X116312965Y-93135520D01*
X116191644Y-93365410D01*
X115072475Y-93365410D01*
X115101026Y-85619175D01*
X115185309Y-85745313D01*
X115246232Y-85836491D01*
X115309688Y-85878891D01*
X116452825Y-87022028D01*
X116234281Y-87349102D01*
X116119028Y-87928520D01*
X116234281Y-88507938D01*
X116562495Y-88999145D01*
X116860881Y-89198520D01*
X116562495Y-89397895D01*
X116234281Y-89889102D01*
X116119028Y-90468520D01*
X116234281Y-91047938D01*
X116562495Y-91539145D01*
X116881598Y-91752363D01*
X116751762Y-91813337D01*
X116361475Y-92241596D01*
X116191644Y-92651630D01*
X116312965Y-92881520D01*
X117506120Y-92881520D01*
X117506120Y-92861520D01*
X117760120Y-92861520D01*
X117760120Y-92881520D01*
X120046120Y-92881520D01*
X120046120Y-92861520D01*
X120300120Y-92861520D01*
X120300120Y-92881520D01*
X121499370Y-92881520D01*
X121658120Y-92722770D01*
X121658120Y-92032210D01*
X121561447Y-91798821D01*
X121382818Y-91620193D01*
X121222087Y-91553616D01*
X121243745Y-91539145D01*
X121571959Y-91047938D01*
X121687212Y-90468520D01*
X121571959Y-89889102D01*
X121243745Y-89397895D01*
X120945359Y-89198520D01*
X121243745Y-88999145D01*
X121571959Y-88507938D01*
X121687212Y-87928520D01*
X121571959Y-87349102D01*
X121243745Y-86857895D01*
X120945359Y-86658520D01*
X121243745Y-86459145D01*
X121571959Y-85967938D01*
X121687212Y-85388520D01*
X121571959Y-84809102D01*
X121243745Y-84317895D01*
X120945359Y-84118520D01*
X121243745Y-83919145D01*
X121571959Y-83427938D01*
X121687212Y-82848520D01*
X121571959Y-82269102D01*
X121243745Y-81777895D01*
X120945359Y-81578520D01*
X121243745Y-81379145D01*
X121571959Y-80887938D01*
X121687212Y-80308520D01*
X121571959Y-79729102D01*
X121243745Y-79237895D01*
X120945359Y-79038520D01*
X121243745Y-78839145D01*
X121571959Y-78347938D01*
X121603516Y-78189292D01*
X122179434Y-78049859D01*
X122409126Y-78145000D01*
X122820874Y-78145000D01*
X123201280Y-77987431D01*
X123492431Y-77696280D01*
X123650000Y-77315874D01*
X123650000Y-76904126D01*
X123492431Y-76523720D01*
X123201280Y-76232569D01*
X122820874Y-76075000D01*
X122409126Y-76075000D01*
X122028720Y-76232569D01*
X121954434Y-76306855D01*
X121886476Y-75800941D01*
X121923130Y-75776449D01*
X121965532Y-75712990D01*
X122408523Y-75270000D01*
X132630000Y-75270000D01*
X132630000Y-75640874D01*
X132787569Y-76021280D01*
X133078720Y-76312431D01*
X133459126Y-76470000D01*
X133870874Y-76470000D01*
X134251280Y-76312431D01*
X134542431Y-76021280D01*
X134621570Y-75830221D01*
X140166349Y-81375001D01*
X135464831Y-81375001D01*
X135389983Y-81360113D01*
X135315135Y-81375001D01*
X135315131Y-81375001D01*
X135165196Y-81404825D01*
X135093445Y-81419097D01*
X134961980Y-81506940D01*
X134842054Y-81587072D01*
X134799654Y-81650528D01*
X131350183Y-85100000D01*
X131184110Y-85100000D01*
X130803704Y-85257569D01*
X130639985Y-85421288D01*
X130476266Y-85257569D01*
X130095860Y-85100000D01*
X129684112Y-85100000D01*
X129303706Y-85257569D01*
X129012555Y-85548720D01*
X128854986Y-85929126D01*
X128854986Y-86340874D01*
X129012555Y-86721280D01*
X129303706Y-87012431D01*
X129684112Y-87170000D01*
X130095860Y-87170000D01*
X130476266Y-87012431D01*
X130639985Y-86848712D01*
X130803704Y-87012431D01*
X131184110Y-87170000D01*
X131595858Y-87170000D01*
X131929302Y-87031883D01*
X132234854Y-87158447D01*
X132646602Y-87158447D01*
X132986774Y-87017544D01*
X133234126Y-87120000D01*
X133645874Y-87120000D01*
X134026280Y-86962431D01*
X134317431Y-86671280D01*
X134380000Y-86520225D01*
X134380000Y-86790874D01*
X134537569Y-87171280D01*
X134828720Y-87462431D01*
X135209126Y-87620000D01*
X135620874Y-87620000D01*
X136001280Y-87462431D01*
X136292431Y-87171280D01*
X136450000Y-86790874D01*
X136450000Y-86624801D01*
X137579802Y-85495000D01*
X137920874Y-85495000D01*
X138301280Y-85337431D01*
X138592431Y-85046280D01*
X138727580Y-84720000D01*
X138895874Y-84720000D01*
X139276280Y-84562431D01*
X139567431Y-84271280D01*
X139661159Y-84045000D01*
X139995874Y-84045000D01*
X140376280Y-83887431D01*
X140667431Y-83596280D01*
X140723101Y-83461880D01*
X140984126Y-83570000D01*
X141395874Y-83570000D01*
X141776280Y-83412431D01*
X141795575Y-83393136D01*
X141853720Y-83451281D01*
X142234126Y-83608850D01*
X142504999Y-83608850D01*
X142504999Y-86153915D01*
X137693486Y-90965430D01*
X137595874Y-90924998D01*
X137184126Y-90924998D01*
X136803720Y-91082567D01*
X136745552Y-91140735D01*
X136025000Y-90420184D01*
X136025000Y-90254112D01*
X135867431Y-89873706D01*
X135576280Y-89582555D01*
X135195874Y-89424986D01*
X134784126Y-89424986D01*
X134403720Y-89582555D01*
X134112569Y-89873706D01*
X133955000Y-90254112D01*
X133955000Y-90665860D01*
X134112569Y-91046266D01*
X134403720Y-91337417D01*
X134784126Y-91494986D01*
X134950198Y-91494986D01*
X135899685Y-92444474D01*
X135942083Y-92507927D01*
X136005536Y-92550325D01*
X136005538Y-92550327D01*
X136086670Y-92604537D01*
X136193475Y-92675902D01*
X136415160Y-92719998D01*
X136415164Y-92719998D01*
X136490011Y-92734886D01*
X136564858Y-92719998D01*
X136678202Y-92719998D01*
X134588288Y-94809913D01*
X134524832Y-94852313D01*
X134482432Y-94915769D01*
X134482431Y-94915770D01*
X134423596Y-95003823D01*
X134356857Y-95103705D01*
X134331225Y-95232568D01*
X134297872Y-95400242D01*
X134312761Y-95475094D01*
X134312760Y-101735553D01*
X133949016Y-101663200D01*
X133656504Y-101663200D01*
X133223342Y-101749361D01*
X132732135Y-102077575D01*
X132532760Y-102375961D01*
X132333385Y-102077575D01*
X131842178Y-101749361D01*
X131409016Y-101663200D01*
X131116504Y-101663200D01*
X130683342Y-101749361D01*
X130192135Y-102077575D01*
X130179944Y-102095819D01*
X130170917Y-102050435D01*
X130030569Y-101840391D01*
X129820525Y-101700043D01*
X129572760Y-101650760D01*
X127872760Y-101650760D01*
X127624995Y-101700043D01*
X127414951Y-101840391D01*
X127274603Y-102050435D01*
X127225320Y-102298200D01*
X127225320Y-103998200D01*
X127274603Y-104245965D01*
X127414951Y-104456009D01*
X127624995Y-104596357D01*
X127872760Y-104645640D01*
X129572760Y-104645640D01*
X129820525Y-104596357D01*
X130030569Y-104456009D01*
X130170917Y-104245965D01*
X130179944Y-104200581D01*
X130192135Y-104218825D01*
X130683342Y-104547039D01*
X131116504Y-104633200D01*
X131409016Y-104633200D01*
X131842178Y-104547039D01*
X132333385Y-104218825D01*
X132532760Y-103920439D01*
X132732135Y-104218825D01*
X133223342Y-104547039D01*
X133656504Y-104633200D01*
X133949016Y-104633200D01*
X134382178Y-104547039D01*
X134594517Y-104405158D01*
X135452711Y-105263353D01*
X135495111Y-105326809D01*
X135746503Y-105494784D01*
X135968188Y-105538880D01*
X135968192Y-105538880D01*
X136043039Y-105553768D01*
X136117886Y-105538880D01*
X160037233Y-105538880D01*
X160112080Y-105553768D01*
X160186927Y-105538880D01*
X160186932Y-105538880D01*
X160408617Y-105494784D01*
X160660009Y-105326809D01*
X160702411Y-105263350D01*
X161376352Y-104589409D01*
X161596504Y-104633200D01*
X161889016Y-104633200D01*
X162322178Y-104547039D01*
X162813385Y-104218825D01*
X163012760Y-103920439D01*
X163212135Y-104218825D01*
X163703342Y-104547039D01*
X164136504Y-104633200D01*
X164429016Y-104633200D01*
X164862178Y-104547039D01*
X165353385Y-104218825D01*
X165552760Y-103920439D01*
X165752135Y-104218825D01*
X166243342Y-104547039D01*
X166676504Y-104633200D01*
X166969016Y-104633200D01*
X167402178Y-104547039D01*
X167893385Y-104218825D01*
X168221599Y-103727618D01*
X168336852Y-103148200D01*
X168221599Y-102568782D01*
X167893385Y-102077575D01*
X167402178Y-101749361D01*
X166969016Y-101663200D01*
X166676504Y-101663200D01*
X166456352Y-101706991D01*
X164874936Y-100125575D01*
X164832534Y-100062116D01*
X164581142Y-99894141D01*
X164359457Y-99850045D01*
X164359452Y-99850045D01*
X164284605Y-99835157D01*
X164209758Y-99850045D01*
X152649757Y-99850045D01*
X152829802Y-99670000D01*
X152995874Y-99670000D01*
X153376280Y-99512431D01*
X153667431Y-99221280D01*
X153706085Y-99127960D01*
X153725461Y-99140906D01*
X153947146Y-99185002D01*
X153947150Y-99185002D01*
X154021997Y-99199890D01*
X154096844Y-99185002D01*
X171502600Y-99185002D01*
X171502600Y-100447280D01*
X171551883Y-100695045D01*
X171692231Y-100905089D01*
X171902275Y-101045437D01*
X172150040Y-101094720D01*
X173850040Y-101094720D01*
X174097805Y-101045437D01*
X174307849Y-100905089D01*
X174448197Y-100695045D01*
X174497480Y-100447280D01*
X174497480Y-98747280D01*
X174448197Y-98499515D01*
X174307849Y-98289471D01*
X174097805Y-98149123D01*
X174052421Y-98140096D01*
X174070665Y-98127905D01*
X174398879Y-97636698D01*
X174514132Y-97057280D01*
X174398879Y-96477862D01*
X174070665Y-95986655D01*
X173772279Y-95787280D01*
X174070665Y-95587905D01*
X174398879Y-95096698D01*
X174514132Y-94517280D01*
X174398879Y-93937862D01*
X174070665Y-93446655D01*
X173772279Y-93247280D01*
X174070665Y-93047905D01*
X174398879Y-92556698D01*
X174514132Y-91977280D01*
X174441249Y-91610872D01*
X175001491Y-91050631D01*
X175064947Y-91008231D01*
X175232922Y-90756839D01*
X175277018Y-90535154D01*
X175277018Y-90535149D01*
X175291906Y-90460302D01*
X175277018Y-90385455D01*
X175277018Y-81514265D01*
X175291906Y-81439418D01*
X175277018Y-81364571D01*
X175277018Y-81364566D01*
X175232922Y-81142881D01*
X175064947Y-80891489D01*
X175001491Y-80849089D01*
X174242755Y-80090354D01*
X174398879Y-79856698D01*
X174514132Y-79277280D01*
X174398879Y-78697862D01*
X174070665Y-78206655D01*
X173772279Y-78007280D01*
X174070665Y-77807905D01*
X174398879Y-77316698D01*
X174514132Y-76737280D01*
X174398879Y-76157862D01*
X174070665Y-75666655D01*
X173772279Y-75467280D01*
X174070665Y-75267905D01*
X174398879Y-74776698D01*
X174514132Y-74197280D01*
X174398879Y-73617862D01*
X174070665Y-73126655D01*
X173772279Y-72927280D01*
X174070665Y-72727905D01*
X174398879Y-72236698D01*
X174514132Y-71657280D01*
X174398879Y-71077862D01*
X174070665Y-70586655D01*
X173772279Y-70387280D01*
X174070665Y-70187905D01*
X174398879Y-69696698D01*
X174514132Y-69117280D01*
X174398879Y-68537862D01*
X174070665Y-68046655D01*
X173772279Y-67847280D01*
X174070665Y-67647905D01*
X174398879Y-67156698D01*
X174514132Y-66577280D01*
X174398879Y-65997862D01*
X174070665Y-65506655D01*
X173772279Y-65307280D01*
X174070665Y-65107905D01*
X174398879Y-64616698D01*
X174514132Y-64037280D01*
X174398879Y-63457862D01*
X174070665Y-62966655D01*
X173772279Y-62767280D01*
X174070665Y-62567905D01*
X174398879Y-62076698D01*
X174514132Y-61497280D01*
X174398879Y-60917862D01*
X174070665Y-60426655D01*
X173759754Y-60218911D01*
X173715944Y-59998662D01*
X173547969Y-59747270D01*
X173484513Y-59704870D01*
X169656572Y-55876930D01*
X169614170Y-55813471D01*
X169362778Y-55645496D01*
X169141093Y-55601400D01*
X169141088Y-55601400D01*
X169066241Y-55586512D01*
X168991394Y-55601400D01*
X160521373Y-55601400D01*
X160351973Y-55432000D01*
X160309571Y-55368541D01*
X160058179Y-55200566D01*
X159836494Y-55156470D01*
X159836489Y-55156470D01*
X159761642Y-55141582D01*
X159686795Y-55156470D01*
X121205978Y-55156470D01*
X121131130Y-55141582D01*
X121056282Y-55156470D01*
X121056278Y-55156470D01*
X120882735Y-55190990D01*
X120834592Y-55200566D01*
X120647548Y-55325546D01*
X120583201Y-55368541D01*
X120540801Y-55431997D01*
X115274129Y-60698670D01*
X115210671Y-60741071D01*
X115192620Y-60768086D01*
X115214572Y-54812255D01*
X175626388Y-54933665D01*
X175626388Y-54933665D01*
G37*
X175626388Y-54933665D02*
X175621332Y-106973355D01*
X115022469Y-106932885D01*
X115039607Y-102282960D01*
X116237280Y-102282960D01*
X116237280Y-103982960D01*
X116286563Y-104230725D01*
X116426911Y-104440769D01*
X116636955Y-104581117D01*
X116884720Y-104630400D01*
X118584720Y-104630400D01*
X118832485Y-104581117D01*
X119042529Y-104440769D01*
X119182877Y-104230725D01*
X119203459Y-104127252D01*
X119507796Y-104404605D01*
X119917830Y-104574436D01*
X120147720Y-104453115D01*
X120147720Y-103259960D01*
X120401720Y-103259960D01*
X120401720Y-104453115D01*
X120631610Y-104574436D01*
X121041644Y-104404605D01*
X121469903Y-104014318D01*
X121716206Y-103489852D01*
X121595539Y-103259960D01*
X120401720Y-103259960D01*
X120147720Y-103259960D01*
X120127720Y-103259960D01*
X120127720Y-103005960D01*
X120147720Y-103005960D01*
X120147720Y-101812805D01*
X120401720Y-101812805D01*
X120401720Y-103005960D01*
X121595539Y-103005960D01*
X121716206Y-102776068D01*
X121469903Y-102251602D01*
X121041644Y-101861315D01*
X120631610Y-101691484D01*
X120401720Y-101812805D01*
X120147720Y-101812805D01*
X119917830Y-101691484D01*
X119507796Y-101861315D01*
X119203459Y-102138668D01*
X119182877Y-102035195D01*
X119042529Y-101825151D01*
X118832485Y-101684803D01*
X118584720Y-101635520D01*
X116884720Y-101635520D01*
X116636955Y-101684803D01*
X116426911Y-101825151D01*
X116286563Y-102035195D01*
X116237280Y-102282960D01*
X115039607Y-102282960D01*
X115072475Y-93365410D01*
X116191644Y-93365410D01*
X116361475Y-93775444D01*
X116751762Y-94203703D01*
X117276228Y-94450006D01*
X117506120Y-94329339D01*
X117506120Y-93135520D01*
X117760120Y-93135520D01*
X117760120Y-94329339D01*
X117990012Y-94450006D01*
X118514478Y-94203703D01*
X118696190Y-94004312D01*
X118784793Y-94218219D01*
X118963422Y-94396847D01*
X119196811Y-94493520D01*
X119887370Y-94493520D01*
X120046120Y-94334770D01*
X120046120Y-93135520D01*
X120300120Y-93135520D01*
X120300120Y-94334770D01*
X120458870Y-94493520D01*
X121149429Y-94493520D01*
X121382818Y-94396847D01*
X121561447Y-94218219D01*
X121658120Y-93984830D01*
X121658120Y-93294270D01*
X121499370Y-93135520D01*
X120300120Y-93135520D01*
X120046120Y-93135520D01*
X117760120Y-93135520D01*
X117506120Y-93135520D01*
X116312965Y-93135520D01*
X116191644Y-93365410D01*
X115072475Y-93365410D01*
X115101026Y-85619175D01*
X115185309Y-85745313D01*
X115246232Y-85836491D01*
X115309688Y-85878891D01*
X116452825Y-87022028D01*
X116234281Y-87349102D01*
X116119028Y-87928520D01*
X116234281Y-88507938D01*
X116562495Y-88999145D01*
X116860881Y-89198520D01*
X116562495Y-89397895D01*
X116234281Y-89889102D01*
X116119028Y-90468520D01*
X116234281Y-91047938D01*
X116562495Y-91539145D01*
X116881598Y-91752363D01*
X116751762Y-91813337D01*
X116361475Y-92241596D01*
X116191644Y-92651630D01*
X116312965Y-92881520D01*
X117506120Y-92881520D01*
X117506120Y-92861520D01*
X117760120Y-92861520D01*
X117760120Y-92881520D01*
X120046120Y-92881520D01*
X120046120Y-92861520D01*
X120300120Y-92861520D01*
X120300120Y-92881520D01*
X121499370Y-92881520D01*
X121658120Y-92722770D01*
X121658120Y-92032210D01*
X121561447Y-91798821D01*
X121382818Y-91620193D01*
X121222087Y-91553616D01*
X121243745Y-91539145D01*
X121571959Y-91047938D01*
X121687212Y-90468520D01*
X121571959Y-89889102D01*
X121243745Y-89397895D01*
X120945359Y-89198520D01*
X121243745Y-88999145D01*
X121571959Y-88507938D01*
X121687212Y-87928520D01*
X121571959Y-87349102D01*
X121243745Y-86857895D01*
X120945359Y-86658520D01*
X121243745Y-86459145D01*
X121571959Y-85967938D01*
X121687212Y-85388520D01*
X121571959Y-84809102D01*
X121243745Y-84317895D01*
X120945359Y-84118520D01*
X121243745Y-83919145D01*
X121571959Y-83427938D01*
X121687212Y-82848520D01*
X121571959Y-82269102D01*
X121243745Y-81777895D01*
X120945359Y-81578520D01*
X121243745Y-81379145D01*
X121571959Y-80887938D01*
X121687212Y-80308520D01*
X121571959Y-79729102D01*
X121243745Y-79237895D01*
X120945359Y-79038520D01*
X121243745Y-78839145D01*
X121571959Y-78347938D01*
X121603516Y-78189292D01*
X122179434Y-78049859D01*
X122409126Y-78145000D01*
X122820874Y-78145000D01*
X123201280Y-77987431D01*
X123492431Y-77696280D01*
X123650000Y-77315874D01*
X123650000Y-76904126D01*
X123492431Y-76523720D01*
X123201280Y-76232569D01*
X122820874Y-76075000D01*
X122409126Y-76075000D01*
X122028720Y-76232569D01*
X121954434Y-76306855D01*
X121886476Y-75800941D01*
X121923130Y-75776449D01*
X121965532Y-75712990D01*
X122408523Y-75270000D01*
X132630000Y-75270000D01*
X132630000Y-75640874D01*
X132787569Y-76021280D01*
X133078720Y-76312431D01*
X133459126Y-76470000D01*
X133870874Y-76470000D01*
X134251280Y-76312431D01*
X134542431Y-76021280D01*
X134621570Y-75830221D01*
X140166349Y-81375001D01*
X135464831Y-81375001D01*
X135389983Y-81360113D01*
X135315135Y-81375001D01*
X135315131Y-81375001D01*
X135165196Y-81404825D01*
X135093445Y-81419097D01*
X134961980Y-81506940D01*
X134842054Y-81587072D01*
X134799654Y-81650528D01*
X131350183Y-85100000D01*
X131184110Y-85100000D01*
X130803704Y-85257569D01*
X130639985Y-85421288D01*
X130476266Y-85257569D01*
X130095860Y-85100000D01*
X129684112Y-85100000D01*
X129303706Y-85257569D01*
X129012555Y-85548720D01*
X128854986Y-85929126D01*
X128854986Y-86340874D01*
X129012555Y-86721280D01*
X129303706Y-87012431D01*
X129684112Y-87170000D01*
X130095860Y-87170000D01*
X130476266Y-87012431D01*
X130639985Y-86848712D01*
X130803704Y-87012431D01*
X131184110Y-87170000D01*
X131595858Y-87170000D01*
X131929302Y-87031883D01*
X132234854Y-87158447D01*
X132646602Y-87158447D01*
X132986774Y-87017544D01*
X133234126Y-87120000D01*
X133645874Y-87120000D01*
X134026280Y-86962431D01*
X134317431Y-86671280D01*
X134380000Y-86520225D01*
X134380000Y-86790874D01*
X134537569Y-87171280D01*
X134828720Y-87462431D01*
X135209126Y-87620000D01*
X135620874Y-87620000D01*
X136001280Y-87462431D01*
X136292431Y-87171280D01*
X136450000Y-86790874D01*
X136450000Y-86624801D01*
X137579802Y-85495000D01*
X137920874Y-85495000D01*
X138301280Y-85337431D01*
X138592431Y-85046280D01*
X138727580Y-84720000D01*
X138895874Y-84720000D01*
X139276280Y-84562431D01*
X139567431Y-84271280D01*
X139661159Y-84045000D01*
X139995874Y-84045000D01*
X140376280Y-83887431D01*
X140667431Y-83596280D01*
X140723101Y-83461880D01*
X140984126Y-83570000D01*
X141395874Y-83570000D01*
X141776280Y-83412431D01*
X141795575Y-83393136D01*
X141853720Y-83451281D01*
X142234126Y-83608850D01*
X142504999Y-83608850D01*
X142504999Y-86153915D01*
X137693486Y-90965430D01*
X137595874Y-90924998D01*
X137184126Y-90924998D01*
X136803720Y-91082567D01*
X136745552Y-91140735D01*
X136025000Y-90420184D01*
X136025000Y-90254112D01*
X135867431Y-89873706D01*
X135576280Y-89582555D01*
X135195874Y-89424986D01*
X134784126Y-89424986D01*
X134403720Y-89582555D01*
X134112569Y-89873706D01*
X133955000Y-90254112D01*
X133955000Y-90665860D01*
X134112569Y-91046266D01*
X134403720Y-91337417D01*
X134784126Y-91494986D01*
X134950198Y-91494986D01*
X135899685Y-92444474D01*
X135942083Y-92507927D01*
X136005536Y-92550325D01*
X136005538Y-92550327D01*
X136086670Y-92604537D01*
X136193475Y-92675902D01*
X136415160Y-92719998D01*
X136415164Y-92719998D01*
X136490011Y-92734886D01*
X136564858Y-92719998D01*
X136678202Y-92719998D01*
X134588288Y-94809913D01*
X134524832Y-94852313D01*
X134482432Y-94915769D01*
X134482431Y-94915770D01*
X134423596Y-95003823D01*
X134356857Y-95103705D01*
X134331225Y-95232568D01*
X134297872Y-95400242D01*
X134312761Y-95475094D01*
X134312760Y-101735553D01*
X133949016Y-101663200D01*
X133656504Y-101663200D01*
X133223342Y-101749361D01*
X132732135Y-102077575D01*
X132532760Y-102375961D01*
X132333385Y-102077575D01*
X131842178Y-101749361D01*
X131409016Y-101663200D01*
X131116504Y-101663200D01*
X130683342Y-101749361D01*
X130192135Y-102077575D01*
X130179944Y-102095819D01*
X130170917Y-102050435D01*
X130030569Y-101840391D01*
X129820525Y-101700043D01*
X129572760Y-101650760D01*
X127872760Y-101650760D01*
X127624995Y-101700043D01*
X127414951Y-101840391D01*
X127274603Y-102050435D01*
X127225320Y-102298200D01*
X127225320Y-103998200D01*
X127274603Y-104245965D01*
X127414951Y-104456009D01*
X127624995Y-104596357D01*
X127872760Y-104645640D01*
X129572760Y-104645640D01*
X129820525Y-104596357D01*
X130030569Y-104456009D01*
X130170917Y-104245965D01*
X130179944Y-104200581D01*
X130192135Y-104218825D01*
X130683342Y-104547039D01*
X131116504Y-104633200D01*
X131409016Y-104633200D01*
X131842178Y-104547039D01*
X132333385Y-104218825D01*
X132532760Y-103920439D01*
X132732135Y-104218825D01*
X133223342Y-104547039D01*
X133656504Y-104633200D01*
X133949016Y-104633200D01*
X134382178Y-104547039D01*
X134594517Y-104405158D01*
X135452711Y-105263353D01*
X135495111Y-105326809D01*
X135746503Y-105494784D01*
X135968188Y-105538880D01*
X135968192Y-105538880D01*
X136043039Y-105553768D01*
X136117886Y-105538880D01*
X160037233Y-105538880D01*
X160112080Y-105553768D01*
X160186927Y-105538880D01*
X160186932Y-105538880D01*
X160408617Y-105494784D01*
X160660009Y-105326809D01*
X160702411Y-105263350D01*
X161376352Y-104589409D01*
X161596504Y-104633200D01*
X161889016Y-104633200D01*
X162322178Y-104547039D01*
X162813385Y-104218825D01*
X163012760Y-103920439D01*
X163212135Y-104218825D01*
X163703342Y-104547039D01*
X164136504Y-104633200D01*
X164429016Y-104633200D01*
X164862178Y-104547039D01*
X165353385Y-104218825D01*
X165552760Y-103920439D01*
X165752135Y-104218825D01*
X166243342Y-104547039D01*
X166676504Y-104633200D01*
X166969016Y-104633200D01*
X167402178Y-104547039D01*
X167893385Y-104218825D01*
X168221599Y-103727618D01*
X168336852Y-103148200D01*
X168221599Y-102568782D01*
X167893385Y-102077575D01*
X167402178Y-101749361D01*
X166969016Y-101663200D01*
X166676504Y-101663200D01*
X166456352Y-101706991D01*
X164874936Y-100125575D01*
X164832534Y-100062116D01*
X164581142Y-99894141D01*
X164359457Y-99850045D01*
X164359452Y-99850045D01*
X164284605Y-99835157D01*
X164209758Y-99850045D01*
X152649757Y-99850045D01*
X152829802Y-99670000D01*
X152995874Y-99670000D01*
X153376280Y-99512431D01*
X153667431Y-99221280D01*
X153706085Y-99127960D01*
X153725461Y-99140906D01*
X153947146Y-99185002D01*
X153947150Y-99185002D01*
X154021997Y-99199890D01*
X154096844Y-99185002D01*
X171502600Y-99185002D01*
X171502600Y-100447280D01*
X171551883Y-100695045D01*
X171692231Y-100905089D01*
X171902275Y-101045437D01*
X172150040Y-101094720D01*
X173850040Y-101094720D01*
X174097805Y-101045437D01*
X174307849Y-100905089D01*
X174448197Y-100695045D01*
X174497480Y-100447280D01*
X174497480Y-98747280D01*
X174448197Y-98499515D01*
X174307849Y-98289471D01*
X174097805Y-98149123D01*
X174052421Y-98140096D01*
X174070665Y-98127905D01*
X174398879Y-97636698D01*
X174514132Y-97057280D01*
X174398879Y-96477862D01*
X174070665Y-95986655D01*
X173772279Y-95787280D01*
X174070665Y-95587905D01*
X174398879Y-95096698D01*
X174514132Y-94517280D01*
X174398879Y-93937862D01*
X174070665Y-93446655D01*
X173772279Y-93247280D01*
X174070665Y-93047905D01*
X174398879Y-92556698D01*
X174514132Y-91977280D01*
X174441249Y-91610872D01*
X175001491Y-91050631D01*
X175064947Y-91008231D01*
X175232922Y-90756839D01*
X175277018Y-90535154D01*
X175277018Y-90535149D01*
X175291906Y-90460302D01*
X175277018Y-90385455D01*
X175277018Y-81514265D01*
X175291906Y-81439418D01*
X175277018Y-81364571D01*
X175277018Y-81364566D01*
X175232922Y-81142881D01*
X175064947Y-80891489D01*
X175001491Y-80849089D01*
X174242755Y-80090354D01*
X174398879Y-79856698D01*
X174514132Y-79277280D01*
X174398879Y-78697862D01*
X174070665Y-78206655D01*
X173772279Y-78007280D01*
X174070665Y-77807905D01*
X174398879Y-77316698D01*
X174514132Y-76737280D01*
X174398879Y-76157862D01*
X174070665Y-75666655D01*
X173772279Y-75467280D01*
X174070665Y-75267905D01*
X174398879Y-74776698D01*
X174514132Y-74197280D01*
X174398879Y-73617862D01*
X174070665Y-73126655D01*
X173772279Y-72927280D01*
X174070665Y-72727905D01*
X174398879Y-72236698D01*
X174514132Y-71657280D01*
X174398879Y-71077862D01*
X174070665Y-70586655D01*
X173772279Y-70387280D01*
X174070665Y-70187905D01*
X174398879Y-69696698D01*
X174514132Y-69117280D01*
X174398879Y-68537862D01*
X174070665Y-68046655D01*
X173772279Y-67847280D01*
X174070665Y-67647905D01*
X174398879Y-67156698D01*
X174514132Y-66577280D01*
X174398879Y-65997862D01*
X174070665Y-65506655D01*
X173772279Y-65307280D01*
X174070665Y-65107905D01*
X174398879Y-64616698D01*
X174514132Y-64037280D01*
X174398879Y-63457862D01*
X174070665Y-62966655D01*
X173772279Y-62767280D01*
X174070665Y-62567905D01*
X174398879Y-62076698D01*
X174514132Y-61497280D01*
X174398879Y-60917862D01*
X174070665Y-60426655D01*
X173759754Y-60218911D01*
X173715944Y-59998662D01*
X173547969Y-59747270D01*
X173484513Y-59704870D01*
X169656572Y-55876930D01*
X169614170Y-55813471D01*
X169362778Y-55645496D01*
X169141093Y-55601400D01*
X169141088Y-55601400D01*
X169066241Y-55586512D01*
X168991394Y-55601400D01*
X160521373Y-55601400D01*
X160351973Y-55432000D01*
X160309571Y-55368541D01*
X160058179Y-55200566D01*
X159836494Y-55156470D01*
X159836489Y-55156470D01*
X159761642Y-55141582D01*
X159686795Y-55156470D01*
X121205978Y-55156470D01*
X121131130Y-55141582D01*
X121056282Y-55156470D01*
X121056278Y-55156470D01*
X120882735Y-55190990D01*
X120834592Y-55200566D01*
X120647548Y-55325546D01*
X120583201Y-55368541D01*
X120540801Y-55431997D01*
X115274129Y-60698670D01*
X115210671Y-60741071D01*
X115192620Y-60768086D01*
X115214572Y-54812255D01*
X175626388Y-54933665D01*
G36*
X139679923Y-95151235D02*
X139495874Y-95074999D01*
X139485129Y-95074999D01*
X139485129Y-93472035D01*
X139602560Y-93354604D01*
X139679924Y-93167831D01*
X139679923Y-95151235D01*
X139679923Y-95151235D01*
G37*
X139679923Y-95151235D02*
X139495874Y-95074999D01*
X139485129Y-95074999D01*
X139485129Y-93472035D01*
X139602560Y-93354604D01*
X139679924Y-93167831D01*
X139679923Y-95151235D01*
G36*
X139679924Y-92368817D02*
X139602560Y-92182044D01*
X139311409Y-91890893D01*
X139032962Y-91775557D01*
X139679924Y-91128595D01*
X139679924Y-92368817D01*
X139679924Y-92368817D01*
G37*
X139679924Y-92368817D02*
X139602560Y-92182044D01*
X139311409Y-91890893D01*
X139032962Y-91775557D01*
X139679924Y-91128595D01*
X139679924Y-92368817D01*
G36*
X172005713Y-60375674D02*
X171929415Y-60426655D01*
X171601201Y-60917862D01*
X171485948Y-61497280D01*
X171601201Y-62076698D01*
X171929415Y-62567905D01*
X172227801Y-62767280D01*
X171929415Y-62966655D01*
X171601201Y-63457862D01*
X171485948Y-64037280D01*
X171601201Y-64616698D01*
X171929415Y-65107905D01*
X172227801Y-65307280D01*
X171929415Y-65506655D01*
X171601201Y-65997862D01*
X171485948Y-66577280D01*
X171601201Y-67156698D01*
X171929415Y-67647905D01*
X172227801Y-67847280D01*
X171929415Y-68046655D01*
X171601201Y-68537862D01*
X171485948Y-69117280D01*
X171601201Y-69696698D01*
X171929415Y-70187905D01*
X172227801Y-70387280D01*
X171929415Y-70586655D01*
X171601201Y-71077862D01*
X171485948Y-71657280D01*
X171601201Y-72236698D01*
X171929415Y-72727905D01*
X172227801Y-72927280D01*
X171929415Y-73126655D01*
X171601201Y-73617862D01*
X171485948Y-74197280D01*
X171601201Y-74776698D01*
X171929415Y-75267905D01*
X172227801Y-75467280D01*
X171929415Y-75666655D01*
X171601201Y-76157862D01*
X171485948Y-76737280D01*
X171601201Y-77316698D01*
X171929415Y-77807905D01*
X172227801Y-78007280D01*
X171929415Y-78206655D01*
X171601201Y-78697862D01*
X171485948Y-79277280D01*
X171601201Y-79856698D01*
X171747597Y-80075794D01*
X159783566Y-92039826D01*
X158542673Y-92039826D01*
X162521299Y-88061202D01*
X162584752Y-88018804D01*
X162627150Y-87955351D01*
X162627152Y-87955349D01*
X162741049Y-87784889D01*
X162752727Y-87767412D01*
X162796823Y-87545727D01*
X162796823Y-87545723D01*
X162811711Y-87470876D01*
X162796823Y-87396029D01*
X162796823Y-86968410D01*
X167674475Y-82090760D01*
X167737928Y-82048362D01*
X167780326Y-81984909D01*
X167780328Y-81984907D01*
X167877258Y-81839840D01*
X167905903Y-81796970D01*
X167949999Y-81575285D01*
X167949999Y-81575281D01*
X167964887Y-81500434D01*
X167949999Y-81425587D01*
X167949999Y-72344846D01*
X167964887Y-72269999D01*
X167949999Y-72195152D01*
X167949999Y-72195148D01*
X167905903Y-71973463D01*
X167825000Y-71852383D01*
X167825000Y-71664127D01*
X167667431Y-71283721D01*
X167376280Y-70992570D01*
X166995874Y-70835001D01*
X166584126Y-70835001D01*
X166203720Y-70992570D01*
X165912569Y-71283721D01*
X165759682Y-71652823D01*
X165505621Y-71758058D01*
X165214470Y-72049209D01*
X165133034Y-72245813D01*
X165122103Y-72245813D01*
X164741697Y-72403382D01*
X164450546Y-72694533D01*
X164323288Y-73001762D01*
X164042313Y-73118145D01*
X163751162Y-73409296D01*
X163610724Y-73748343D01*
X163362212Y-73851280D01*
X163071061Y-74142431D01*
X162913492Y-74522837D01*
X162913492Y-74934585D01*
X163071061Y-75314991D01*
X163362212Y-75606142D01*
X163588492Y-75699870D01*
X163588492Y-75735000D01*
X163334126Y-75735000D01*
X162953720Y-75892569D01*
X162662569Y-76183720D01*
X162505000Y-76564126D01*
X162505000Y-76730198D01*
X161685199Y-77550000D01*
X160493711Y-77550000D01*
X160376280Y-77432569D01*
X159995874Y-77275000D01*
X159584126Y-77275000D01*
X159203720Y-77432569D01*
X158912569Y-77723720D01*
X158755000Y-78104126D01*
X158755000Y-78515874D01*
X158912569Y-78896280D01*
X159203720Y-79187431D01*
X159584126Y-79345000D01*
X159995874Y-79345000D01*
X160376280Y-79187431D01*
X160493711Y-79070000D01*
X161925153Y-79070000D01*
X162000000Y-79084888D01*
X162074847Y-79070000D01*
X162074852Y-79070000D01*
X162296537Y-79025904D01*
X162547929Y-78857929D01*
X162590331Y-78794470D01*
X163579802Y-77805000D01*
X163588492Y-77805000D01*
X163588491Y-81411704D01*
X159775199Y-85224998D01*
X159609126Y-85224998D01*
X159228720Y-85382567D01*
X158937569Y-85673718D01*
X158780000Y-86054124D01*
X158780000Y-86241736D01*
X158739553Y-86258490D01*
X158448402Y-86549641D01*
X158316525Y-86868022D01*
X158176126Y-86809867D01*
X157764378Y-86809867D01*
X157383972Y-86967436D01*
X157092821Y-87258587D01*
X156935252Y-87638993D01*
X156935252Y-88050741D01*
X157092821Y-88431147D01*
X157383972Y-88722298D01*
X157764378Y-88879867D01*
X157930450Y-88879867D01*
X158318844Y-89268261D01*
X158361244Y-89331717D01*
X158424700Y-89374117D01*
X158612635Y-89499692D01*
X158660778Y-89509268D01*
X158834321Y-89543788D01*
X158834325Y-89543788D01*
X158880019Y-89552877D01*
X157469601Y-90963296D01*
X154313409Y-90963296D01*
X154195978Y-90845865D01*
X153815572Y-90688296D01*
X153403824Y-90688296D01*
X153023418Y-90845865D01*
X152732267Y-91137016D01*
X152574698Y-91517422D01*
X152574698Y-91929170D01*
X152635103Y-92075001D01*
X152415004Y-92075002D01*
X149665531Y-89325530D01*
X149623129Y-89262071D01*
X149371737Y-89094096D01*
X149150052Y-89050000D01*
X149150047Y-89050000D01*
X149075200Y-89035112D01*
X149000353Y-89050000D01*
X146849800Y-89050000D01*
X149281227Y-86618574D01*
X149437739Y-86996429D01*
X149728890Y-87287580D01*
X150109296Y-87445149D01*
X150521044Y-87445149D01*
X150901450Y-87287580D01*
X150984904Y-87204126D01*
X152455000Y-87204126D01*
X152455000Y-87615874D01*
X152612569Y-87996280D01*
X152903720Y-88287431D01*
X153284126Y-88445000D01*
X153695874Y-88445000D01*
X154076280Y-88287431D01*
X154367431Y-87996280D01*
X154525000Y-87615874D01*
X154525000Y-87427617D01*
X154605902Y-87306539D01*
X154664887Y-87010002D01*
X154649998Y-86935151D01*
X154649999Y-86113712D01*
X154767431Y-85996280D01*
X154925000Y-85615874D01*
X154925000Y-85204126D01*
X154767431Y-84823720D01*
X154476280Y-84532569D01*
X154095874Y-84375000D01*
X153684126Y-84375000D01*
X153303720Y-84532569D01*
X153012569Y-84823720D01*
X152855000Y-85204126D01*
X152855000Y-85615874D01*
X153012569Y-85996280D01*
X153130000Y-86113711D01*
X153130000Y-86438841D01*
X152903720Y-86532569D01*
X152612569Y-86823720D01*
X152455000Y-87204126D01*
X150984904Y-87204126D01*
X151192601Y-86996429D01*
X151350170Y-86616023D01*
X151350170Y-86204275D01*
X151192601Y-85823869D01*
X150901450Y-85532718D01*
X150523595Y-85376206D01*
X152988428Y-82911373D01*
X153226017Y-82911373D01*
X153300864Y-82926261D01*
X153375711Y-82911373D01*
X153375716Y-82911373D01*
X153597401Y-82867277D01*
X153848793Y-82699302D01*
X153891195Y-82635843D01*
X167500276Y-69026764D01*
X167563729Y-68984366D01*
X167606127Y-68920913D01*
X167606129Y-68920911D01*
X167716634Y-68755528D01*
X167731704Y-68732974D01*
X167775800Y-68511289D01*
X167775800Y-68511285D01*
X167790688Y-68436438D01*
X167775800Y-68361591D01*
X167775800Y-59423480D01*
X167865800Y-59423480D01*
X168113565Y-59374197D01*
X168323609Y-59233849D01*
X168463957Y-59023805D01*
X168513240Y-58776040D01*
X168513240Y-57121400D01*
X168751440Y-57121400D01*
X172005713Y-60375674D01*
X172005713Y-60375674D01*
G37*
X172005713Y-60375674D02*
X171929415Y-60426655D01*
X171601201Y-60917862D01*
X171485948Y-61497280D01*
X171601201Y-62076698D01*
X171929415Y-62567905D01*
X172227801Y-62767280D01*
X171929415Y-62966655D01*
X171601201Y-63457862D01*
X171485948Y-64037280D01*
X171601201Y-64616698D01*
X171929415Y-65107905D01*
X172227801Y-65307280D01*
X171929415Y-65506655D01*
X171601201Y-65997862D01*
X171485948Y-66577280D01*
X171601201Y-67156698D01*
X171929415Y-67647905D01*
X172227801Y-67847280D01*
X171929415Y-68046655D01*
X171601201Y-68537862D01*
X171485948Y-69117280D01*
X171601201Y-69696698D01*
X171929415Y-70187905D01*
X172227801Y-70387280D01*
X171929415Y-70586655D01*
X171601201Y-71077862D01*
X171485948Y-71657280D01*
X171601201Y-72236698D01*
X171929415Y-72727905D01*
X172227801Y-72927280D01*
X171929415Y-73126655D01*
X171601201Y-73617862D01*
X171485948Y-74197280D01*
X171601201Y-74776698D01*
X171929415Y-75267905D01*
X172227801Y-75467280D01*
X171929415Y-75666655D01*
X171601201Y-76157862D01*
X171485948Y-76737280D01*
X171601201Y-77316698D01*
X171929415Y-77807905D01*
X172227801Y-78007280D01*
X171929415Y-78206655D01*
X171601201Y-78697862D01*
X171485948Y-79277280D01*
X171601201Y-79856698D01*
X171747597Y-80075794D01*
X159783566Y-92039826D01*
X158542673Y-92039826D01*
X162521299Y-88061202D01*
X162584752Y-88018804D01*
X162627150Y-87955351D01*
X162627152Y-87955349D01*
X162741049Y-87784889D01*
X162752727Y-87767412D01*
X162796823Y-87545727D01*
X162796823Y-87545723D01*
X162811711Y-87470876D01*
X162796823Y-87396029D01*
X162796823Y-86968410D01*
X167674475Y-82090760D01*
X167737928Y-82048362D01*
X167780326Y-81984909D01*
X167780328Y-81984907D01*
X167877258Y-81839840D01*
X167905903Y-81796970D01*
X167949999Y-81575285D01*
X167949999Y-81575281D01*
X167964887Y-81500434D01*
X167949999Y-81425587D01*
X167949999Y-72344846D01*
X167964887Y-72269999D01*
X167949999Y-72195152D01*
X167949999Y-72195148D01*
X167905903Y-71973463D01*
X167825000Y-71852383D01*
X167825000Y-71664127D01*
X167667431Y-71283721D01*
X167376280Y-70992570D01*
X166995874Y-70835001D01*
X166584126Y-70835001D01*
X166203720Y-70992570D01*
X165912569Y-71283721D01*
X165759682Y-71652823D01*
X165505621Y-71758058D01*
X165214470Y-72049209D01*
X165133034Y-72245813D01*
X165122103Y-72245813D01*
X164741697Y-72403382D01*
X164450546Y-72694533D01*
X164323288Y-73001762D01*
X164042313Y-73118145D01*
X163751162Y-73409296D01*
X163610724Y-73748343D01*
X163362212Y-73851280D01*
X163071061Y-74142431D01*
X162913492Y-74522837D01*
X162913492Y-74934585D01*
X163071061Y-75314991D01*
X163362212Y-75606142D01*
X163588492Y-75699870D01*
X163588492Y-75735000D01*
X163334126Y-75735000D01*
X162953720Y-75892569D01*
X162662569Y-76183720D01*
X162505000Y-76564126D01*
X162505000Y-76730198D01*
X161685199Y-77550000D01*
X160493711Y-77550000D01*
X160376280Y-77432569D01*
X159995874Y-77275000D01*
X159584126Y-77275000D01*
X159203720Y-77432569D01*
X158912569Y-77723720D01*
X158755000Y-78104126D01*
X158755000Y-78515874D01*
X158912569Y-78896280D01*
X159203720Y-79187431D01*
X159584126Y-79345000D01*
X159995874Y-79345000D01*
X160376280Y-79187431D01*
X160493711Y-79070000D01*
X161925153Y-79070000D01*
X162000000Y-79084888D01*
X162074847Y-79070000D01*
X162074852Y-79070000D01*
X162296537Y-79025904D01*
X162547929Y-78857929D01*
X162590331Y-78794470D01*
X163579802Y-77805000D01*
X163588492Y-77805000D01*
X163588491Y-81411704D01*
X159775199Y-85224998D01*
X159609126Y-85224998D01*
X159228720Y-85382567D01*
X158937569Y-85673718D01*
X158780000Y-86054124D01*
X158780000Y-86241736D01*
X158739553Y-86258490D01*
X158448402Y-86549641D01*
X158316525Y-86868022D01*
X158176126Y-86809867D01*
X157764378Y-86809867D01*
X157383972Y-86967436D01*
X157092821Y-87258587D01*
X156935252Y-87638993D01*
X156935252Y-88050741D01*
X157092821Y-88431147D01*
X157383972Y-88722298D01*
X157764378Y-88879867D01*
X157930450Y-88879867D01*
X158318844Y-89268261D01*
X158361244Y-89331717D01*
X158424700Y-89374117D01*
X158612635Y-89499692D01*
X158660778Y-89509268D01*
X158834321Y-89543788D01*
X158834325Y-89543788D01*
X158880019Y-89552877D01*
X157469601Y-90963296D01*
X154313409Y-90963296D01*
X154195978Y-90845865D01*
X153815572Y-90688296D01*
X153403824Y-90688296D01*
X153023418Y-90845865D01*
X152732267Y-91137016D01*
X152574698Y-91517422D01*
X152574698Y-91929170D01*
X152635103Y-92075001D01*
X152415004Y-92075002D01*
X149665531Y-89325530D01*
X149623129Y-89262071D01*
X149371737Y-89094096D01*
X149150052Y-89050000D01*
X149150047Y-89050000D01*
X149075200Y-89035112D01*
X149000353Y-89050000D01*
X146849800Y-89050000D01*
X149281227Y-86618574D01*
X149437739Y-86996429D01*
X149728890Y-87287580D01*
X150109296Y-87445149D01*
X150521044Y-87445149D01*
X150901450Y-87287580D01*
X150984904Y-87204126D01*
X152455000Y-87204126D01*
X152455000Y-87615874D01*
X152612569Y-87996280D01*
X152903720Y-88287431D01*
X153284126Y-88445000D01*
X153695874Y-88445000D01*
X154076280Y-88287431D01*
X154367431Y-87996280D01*
X154525000Y-87615874D01*
X154525000Y-87427617D01*
X154605902Y-87306539D01*
X154664887Y-87010002D01*
X154649998Y-86935151D01*
X154649999Y-86113712D01*
X154767431Y-85996280D01*
X154925000Y-85615874D01*
X154925000Y-85204126D01*
X154767431Y-84823720D01*
X154476280Y-84532569D01*
X154095874Y-84375000D01*
X153684126Y-84375000D01*
X153303720Y-84532569D01*
X153012569Y-84823720D01*
X152855000Y-85204126D01*
X152855000Y-85615874D01*
X153012569Y-85996280D01*
X153130000Y-86113711D01*
X153130000Y-86438841D01*
X152903720Y-86532569D01*
X152612569Y-86823720D01*
X152455000Y-87204126D01*
X150984904Y-87204126D01*
X151192601Y-86996429D01*
X151350170Y-86616023D01*
X151350170Y-86204275D01*
X151192601Y-85823869D01*
X150901450Y-85532718D01*
X150523595Y-85376206D01*
X152988428Y-82911373D01*
X153226017Y-82911373D01*
X153300864Y-82926261D01*
X153375711Y-82911373D01*
X153375716Y-82911373D01*
X153597401Y-82867277D01*
X153848793Y-82699302D01*
X153891195Y-82635843D01*
X167500276Y-69026764D01*
X167563729Y-68984366D01*
X167606127Y-68920913D01*
X167606129Y-68920911D01*
X167716634Y-68755528D01*
X167731704Y-68732974D01*
X167775800Y-68511289D01*
X167775800Y-68511285D01*
X167790688Y-68436438D01*
X167775800Y-68361591D01*
X167775800Y-59423480D01*
X167865800Y-59423480D01*
X168113565Y-59374197D01*
X168323609Y-59233849D01*
X168463957Y-59023805D01*
X168513240Y-58776040D01*
X168513240Y-57121400D01*
X168751440Y-57121400D01*
X172005713Y-60375674D01*
G36*
X160038265Y-70787382D02*
X159956720Y-70868927D01*
X159799151Y-71249333D01*
X159799151Y-71661081D01*
X159956720Y-72041487D01*
X160159805Y-72244572D01*
X157430011Y-74974366D01*
X157430011Y-73829172D01*
X157444899Y-73754325D01*
X157430011Y-73679478D01*
X157430011Y-73679474D01*
X157385915Y-73457789D01*
X157217940Y-73206397D01*
X157154484Y-73163997D01*
X155696016Y-71705530D01*
X155653614Y-71642071D01*
X155402222Y-71474096D01*
X155259397Y-71445686D01*
X155126280Y-71312569D01*
X154745874Y-71155000D01*
X154428798Y-71155000D01*
X155533798Y-70050000D01*
X156566289Y-70050000D01*
X156683720Y-70167431D01*
X157064126Y-70325000D01*
X157475874Y-70325000D01*
X157856280Y-70167431D01*
X158147431Y-69876280D01*
X158305000Y-69495874D01*
X158305000Y-69084126D01*
X158283780Y-69032897D01*
X160038265Y-70787382D01*
X160038265Y-70787382D01*
G37*
X160038265Y-70787382D02*
X159956720Y-70868927D01*
X159799151Y-71249333D01*
X159799151Y-71661081D01*
X159956720Y-72041487D01*
X160159805Y-72244572D01*
X157430011Y-74974366D01*
X157430011Y-73829172D01*
X157444899Y-73754325D01*
X157430011Y-73679478D01*
X157430011Y-73679474D01*
X157385915Y-73457789D01*
X157217940Y-73206397D01*
X157154484Y-73163997D01*
X155696016Y-71705530D01*
X155653614Y-71642071D01*
X155402222Y-71474096D01*
X155259397Y-71445686D01*
X155126280Y-71312569D01*
X154745874Y-71155000D01*
X154428798Y-71155000D01*
X155533798Y-70050000D01*
X156566289Y-70050000D01*
X156683720Y-70167431D01*
X157064126Y-70325000D01*
X157475874Y-70325000D01*
X157856280Y-70167431D01*
X158147431Y-69876280D01*
X158305000Y-69495874D01*
X158305000Y-69084126D01*
X158283780Y-69032897D01*
X160038265Y-70787382D01*
G36*
X156072687Y-66821804D02*
X155878034Y-66741176D01*
X155466286Y-66741176D01*
X155085880Y-66898745D01*
X154794729Y-67189896D01*
X154637160Y-67570302D01*
X154637160Y-67758559D01*
X154556257Y-67879638D01*
X154512161Y-68101323D01*
X154512161Y-68101328D01*
X154497273Y-68176175D01*
X154512161Y-68251022D01*
X154512161Y-68285621D01*
X148368160Y-74429623D01*
X148357431Y-74403720D01*
X148066280Y-74112569D01*
X147685874Y-73955000D01*
X147519802Y-73955000D01*
X147130000Y-73565199D01*
X147130000Y-62633711D01*
X147247431Y-62516280D01*
X147405000Y-62135874D01*
X147405000Y-61724126D01*
X147382575Y-61669988D01*
X150920872Y-61669988D01*
X156072687Y-66821804D01*
X156072687Y-66821804D01*
G37*
X156072687Y-66821804D02*
X155878034Y-66741176D01*
X155466286Y-66741176D01*
X155085880Y-66898745D01*
X154794729Y-67189896D01*
X154637160Y-67570302D01*
X154637160Y-67758559D01*
X154556257Y-67879638D01*
X154512161Y-68101323D01*
X154512161Y-68101328D01*
X154497273Y-68176175D01*
X154512161Y-68251022D01*
X154512161Y-68285621D01*
X148368160Y-74429623D01*
X148357431Y-74403720D01*
X148066280Y-74112569D01*
X147685874Y-73955000D01*
X147519802Y-73955000D01*
X147130000Y-73565199D01*
X147130000Y-62633711D01*
X147247431Y-62516280D01*
X147405000Y-62135874D01*
X147405000Y-61724126D01*
X147382575Y-61669988D01*
X150920872Y-61669988D01*
X156072687Y-66821804D01*
G36*
X127845175Y-56855415D02*
X127516961Y-57346622D01*
X127401708Y-57926040D01*
X127516961Y-58505458D01*
X127845175Y-58996665D01*
X128336382Y-59324879D01*
X128769544Y-59411040D01*
X129062056Y-59411040D01*
X129282208Y-59367249D01*
X131309418Y-61394460D01*
X131351819Y-61457917D01*
X131415275Y-61500317D01*
X131603210Y-61625892D01*
X131641273Y-61633463D01*
X131824896Y-61669988D01*
X131824900Y-61669988D01*
X131899748Y-61684876D01*
X131974596Y-61669988D01*
X143877128Y-61669988D01*
X143804998Y-61844126D01*
X143804998Y-62255874D01*
X143962567Y-62636280D01*
X144079998Y-62753711D01*
X144079999Y-70294404D01*
X143815874Y-70185000D01*
X143404126Y-70185000D01*
X143023720Y-70342569D01*
X142732569Y-70633720D01*
X142575000Y-71014126D01*
X142575000Y-71425874D01*
X142732569Y-71806280D01*
X143023720Y-72097431D01*
X143404126Y-72255000D01*
X143815874Y-72255000D01*
X144079999Y-72145596D01*
X144079999Y-73578200D01*
X143352308Y-72850509D01*
X143309906Y-72787050D01*
X143058514Y-72619075D01*
X142836829Y-72574979D01*
X142836824Y-72574979D01*
X142761977Y-72560091D01*
X142687130Y-72574979D01*
X137704565Y-72574979D01*
X137976280Y-72462431D01*
X138267431Y-72171280D01*
X138425000Y-71790874D01*
X138425000Y-71379126D01*
X138267431Y-70998720D01*
X137976280Y-70707569D01*
X137595874Y-70550000D01*
X137184126Y-70550000D01*
X136803720Y-70707569D01*
X136512569Y-70998720D01*
X136355000Y-71379126D01*
X136355000Y-71790874D01*
X136512569Y-72171280D01*
X136803720Y-72462431D01*
X137075435Y-72574979D01*
X128030200Y-72574979D01*
X127912769Y-72457548D01*
X127532363Y-72299979D01*
X127120615Y-72299979D01*
X126740209Y-72457548D01*
X126449058Y-72748699D01*
X126291489Y-73129105D01*
X126291489Y-73299989D01*
X123805420Y-73299989D01*
X123763373Y-73237061D01*
X123511981Y-73069086D01*
X123369156Y-73040676D01*
X123236039Y-72907559D01*
X122855633Y-72749990D01*
X122443885Y-72749990D01*
X122063479Y-72907559D01*
X121772328Y-73198710D01*
X121614759Y-73579116D01*
X121614759Y-73915989D01*
X121545792Y-73962071D01*
X121503392Y-74025527D01*
X121294726Y-74234193D01*
X121243745Y-74157895D01*
X120945359Y-73958520D01*
X121243745Y-73759145D01*
X121571959Y-73267938D01*
X121687212Y-72688520D01*
X121571959Y-72109102D01*
X121243745Y-71617895D01*
X120945359Y-71418520D01*
X121004295Y-71379140D01*
X124355000Y-71379140D01*
X124355000Y-71790888D01*
X124512569Y-72171294D01*
X124803720Y-72462445D01*
X125184126Y-72620014D01*
X125595874Y-72620014D01*
X125976280Y-72462445D01*
X126267431Y-72171294D01*
X126425000Y-71790888D01*
X126425000Y-71379140D01*
X126267431Y-70998734D01*
X125976280Y-70707583D01*
X125595874Y-70550014D01*
X125184126Y-70550014D01*
X124803720Y-70707583D01*
X124512569Y-70998734D01*
X124355000Y-71379140D01*
X121004295Y-71379140D01*
X121243745Y-71219145D01*
X121571959Y-70727938D01*
X121687212Y-70148520D01*
X121571959Y-69569102D01*
X121243745Y-69077895D01*
X120752538Y-68749681D01*
X120319376Y-68663520D01*
X120026864Y-68663520D01*
X119593702Y-68749681D01*
X119102495Y-69077895D01*
X118903120Y-69376281D01*
X118703745Y-69077895D01*
X118212538Y-68749681D01*
X117779376Y-68663520D01*
X117486864Y-68663520D01*
X117053702Y-68749681D01*
X116562495Y-69077895D01*
X116554160Y-69090369D01*
X116554160Y-61568241D01*
X121445932Y-56676470D01*
X128112985Y-56676470D01*
X127845175Y-56855415D01*
X127845175Y-56855415D01*
G37*
X127845175Y-56855415D02*
X127516961Y-57346622D01*
X127401708Y-57926040D01*
X127516961Y-58505458D01*
X127845175Y-58996665D01*
X128336382Y-59324879D01*
X128769544Y-59411040D01*
X129062056Y-59411040D01*
X129282208Y-59367249D01*
X131309418Y-61394460D01*
X131351819Y-61457917D01*
X131415275Y-61500317D01*
X131603210Y-61625892D01*
X131641273Y-61633463D01*
X131824896Y-61669988D01*
X131824900Y-61669988D01*
X131899748Y-61684876D01*
X131974596Y-61669988D01*
X143877128Y-61669988D01*
X143804998Y-61844126D01*
X143804998Y-62255874D01*
X143962567Y-62636280D01*
X144079998Y-62753711D01*
X144079999Y-70294404D01*
X143815874Y-70185000D01*
X143404126Y-70185000D01*
X143023720Y-70342569D01*
X142732569Y-70633720D01*
X142575000Y-71014126D01*
X142575000Y-71425874D01*
X142732569Y-71806280D01*
X143023720Y-72097431D01*
X143404126Y-72255000D01*
X143815874Y-72255000D01*
X144079999Y-72145596D01*
X144079999Y-73578200D01*
X143352308Y-72850509D01*
X143309906Y-72787050D01*
X143058514Y-72619075D01*
X142836829Y-72574979D01*
X142836824Y-72574979D01*
X142761977Y-72560091D01*
X142687130Y-72574979D01*
X137704565Y-72574979D01*
X137976280Y-72462431D01*
X138267431Y-72171280D01*
X138425000Y-71790874D01*
X138425000Y-71379126D01*
X138267431Y-70998720D01*
X137976280Y-70707569D01*
X137595874Y-70550000D01*
X137184126Y-70550000D01*
X136803720Y-70707569D01*
X136512569Y-70998720D01*
X136355000Y-71379126D01*
X136355000Y-71790874D01*
X136512569Y-72171280D01*
X136803720Y-72462431D01*
X137075435Y-72574979D01*
X128030200Y-72574979D01*
X127912769Y-72457548D01*
X127532363Y-72299979D01*
X127120615Y-72299979D01*
X126740209Y-72457548D01*
X126449058Y-72748699D01*
X126291489Y-73129105D01*
X126291489Y-73299989D01*
X123805420Y-73299989D01*
X123763373Y-73237061D01*
X123511981Y-73069086D01*
X123369156Y-73040676D01*
X123236039Y-72907559D01*
X122855633Y-72749990D01*
X122443885Y-72749990D01*
X122063479Y-72907559D01*
X121772328Y-73198710D01*
X121614759Y-73579116D01*
X121614759Y-73915989D01*
X121545792Y-73962071D01*
X121503392Y-74025527D01*
X121294726Y-74234193D01*
X121243745Y-74157895D01*
X120945359Y-73958520D01*
X121243745Y-73759145D01*
X121571959Y-73267938D01*
X121687212Y-72688520D01*
X121571959Y-72109102D01*
X121243745Y-71617895D01*
X120945359Y-71418520D01*
X121004295Y-71379140D01*
X124355000Y-71379140D01*
X124355000Y-71790888D01*
X124512569Y-72171294D01*
X124803720Y-72462445D01*
X125184126Y-72620014D01*
X125595874Y-72620014D01*
X125976280Y-72462445D01*
X126267431Y-72171294D01*
X126425000Y-71790888D01*
X126425000Y-71379140D01*
X126267431Y-70998734D01*
X125976280Y-70707583D01*
X125595874Y-70550014D01*
X125184126Y-70550014D01*
X124803720Y-70707583D01*
X124512569Y-70998734D01*
X124355000Y-71379140D01*
X121004295Y-71379140D01*
X121243745Y-71219145D01*
X121571959Y-70727938D01*
X121687212Y-70148520D01*
X121571959Y-69569102D01*
X121243745Y-69077895D01*
X120752538Y-68749681D01*
X120319376Y-68663520D01*
X120026864Y-68663520D01*
X119593702Y-68749681D01*
X119102495Y-69077895D01*
X118903120Y-69376281D01*
X118703745Y-69077895D01*
X118212538Y-68749681D01*
X117779376Y-68663520D01*
X117486864Y-68663520D01*
X117053702Y-68749681D01*
X116562495Y-69077895D01*
X116554160Y-69090369D01*
X116554160Y-61568241D01*
X121445932Y-56676470D01*
X128112985Y-56676470D01*
X127845175Y-56855415D01*
G04 #@! TD*
M02*
