G04 #@! TF.GenerationSoftware,KiCad,Pcbnew,5.0.1-33cea8e~68~ubuntu16.04.1*
G04 #@! TF.CreationDate,2018-10-29T00:19:41-07:00*
G04 #@! TF.ProjectId,integrated-board-design-2,696E74656772617465642D626F617264,rev?*
G04 #@! TF.SameCoordinates,Original*
G04 #@! TF.FileFunction,Copper,L2,Bot,Signal*
G04 #@! TF.FilePolarity,Positive*
%FSLAX46Y46*%
G04 Gerber Fmt 4.6, Leading zero omitted, Abs format (unit mm)*
G04 Created by KiCad (PCBNEW 5.0.1-33cea8e~68~ubuntu16.04.1) date Mon 29 Oct 2018 12:19:41 AM PDT*
%MOMM*%
%LPD*%
G01*
G04 APERTURE LIST*
G04 #@! TA.AperFunction,ComponentPad*
%ADD10C,2.184400*%
G04 #@! TD*
G04 #@! TA.AperFunction,ComponentPad*
%ADD11R,1.730000X2.030000*%
G04 #@! TD*
G04 #@! TA.AperFunction,ComponentPad*
%ADD12O,1.730000X2.030000*%
G04 #@! TD*
G04 #@! TA.AperFunction,ComponentPad*
%ADD13C,3.200000*%
G04 #@! TD*
G04 #@! TA.AperFunction,ComponentPad*
%ADD14R,1.700000X1.700000*%
G04 #@! TD*
G04 #@! TA.AperFunction,ComponentPad*
%ADD15O,1.700000X1.700000*%
G04 #@! TD*
G04 #@! TA.AperFunction,WasherPad*
%ADD16C,1.350000*%
G04 #@! TD*
G04 #@! TA.AperFunction,WasherPad*
%ADD17C,1.600000*%
G04 #@! TD*
G04 #@! TA.AperFunction,SMDPad,CuDef*
%ADD18R,4.064000X1.524000*%
G04 #@! TD*
G04 #@! TA.AperFunction,SMDPad,CuDef*
%ADD19R,3.200000X3.200000*%
G04 #@! TD*
G04 #@! TA.AperFunction,Conductor*
%ADD20C,0.100000*%
G04 #@! TD*
G04 #@! TA.AperFunction,SMDPad,CuDef*
%ADD21C,6.350000*%
G04 #@! TD*
G04 #@! TA.AperFunction,ComponentPad*
%ADD22C,1.778000*%
G04 #@! TD*
G04 #@! TA.AperFunction,ViaPad*
%ADD23C,0.600000*%
G04 #@! TD*
G04 #@! TA.AperFunction,ViaPad*
%ADD24C,0.800000*%
G04 #@! TD*
G04 #@! TA.AperFunction,ViaPad*
%ADD25C,0.906400*%
G04 #@! TD*
G04 #@! TA.AperFunction,ViaPad*
%ADD26C,1.676400*%
G04 #@! TD*
G04 #@! TA.AperFunction,Conductor*
%ADD27C,0.250000*%
G04 #@! TD*
G04 #@! TA.AperFunction,Conductor*
%ADD28C,0.406400*%
G04 #@! TD*
G04 #@! TA.AperFunction,Conductor*
%ADD29C,0.508000*%
G04 #@! TD*
G04 #@! TA.AperFunction,Conductor*
%ADD30C,0.600000*%
G04 #@! TD*
G04 #@! TA.AperFunction,Conductor*
%ADD31C,0.254000*%
G04 #@! TD*
G04 #@! TA.AperFunction,Conductor*
%ADD32C,0.406000*%
G04 #@! TD*
G04 APERTURE END LIST*
D10*
G04 #@! TO.P,U$2,RFGND2*
G04 #@! TO.N,GND*
X64143410Y-45694861D03*
G04 #@! TO.P,U$2,0V*
X89543410Y-45694861D03*
G04 #@! TO.P,U$2,VCC*
G04 #@! TO.N,VCC*
X87003410Y-45694861D03*
G04 #@! TO.P,U$2,EN*
G04 #@! TO.N,/D4*
X84463410Y-45694861D03*
G04 #@! TO.P,U$2,TXD*
G04 #@! TO.N,/D3*
X92083410Y-45694861D03*
G04 #@! TO.P,U$2,GND*
G04 #@! TO.N,GND*
X69223410Y-45694861D03*
G04 #@! TO.P,U$2,RFOUT*
G04 #@! TO.N,PB4*
X66683410Y-45694861D03*
G04 #@! TD*
D11*
G04 #@! TO.P,,1*
G04 #@! TO.N,/CSB*
X190654203Y-133373068D03*
D12*
G04 #@! TO.P,,2*
G04 #@! TO.N,/SDO*
X188114203Y-133373068D03*
G04 #@! TO.P,,3*
G04 #@! TO.N,/SDI*
X185574203Y-133373068D03*
G04 #@! TO.P,,4*
G04 #@! TO.N,/SCLK*
X183034203Y-133373068D03*
G04 #@! TD*
D13*
G04 #@! TO.P,U$8,P$1*
G04 #@! TO.N,N/C*
X61525000Y-149300000D03*
G04 #@! TD*
G04 #@! TO.P,U$8,P$1*
G04 #@! TO.N,N/C*
X61525000Y-90150000D03*
G04 #@! TD*
G04 #@! TO.P,U$8,P$1*
G04 #@! TO.N,N/C*
X153700000Y-31250000D03*
G04 #@! TD*
G04 #@! TO.P,U$8,P$1*
G04 #@! TO.N,N/C*
X105800000Y-31125000D03*
G04 #@! TD*
G04 #@! TO.P,U$8,P$1*
G04 #@! TO.N,N/C*
X105800000Y-149450000D03*
G04 #@! TD*
G04 #@! TO.P,U$9,P$1*
G04 #@! TO.N,N/C*
X61400000Y-54600000D03*
G04 #@! TD*
G04 #@! TO.P,U$9,P$1*
G04 #@! TO.N,N/C*
X199300000Y-31125000D03*
G04 #@! TD*
G04 #@! TO.P,U$8,P$1*
G04 #@! TO.N,N/C*
X199300000Y-149300000D03*
G04 #@! TD*
D14*
G04 #@! TO.P,J9,1*
G04 #@! TO.N,Net-(J2-Pad1)*
X91146480Y-59844400D03*
D15*
G04 #@! TO.P,J9,2*
G04 #@! TO.N,Net-(J2-Pad2)*
X91146480Y-62384400D03*
G04 #@! TO.P,J9,3*
G04 #@! TO.N,Net-(J2-Pad3)*
X91146480Y-64924400D03*
G04 #@! TO.P,J9,4*
G04 #@! TO.N,Net-(J2-Pad4)*
X91146480Y-67464400D03*
G04 #@! TO.P,J9,5*
G04 #@! TO.N,Net-(J2-Pad5)*
X91146480Y-70004400D03*
G04 #@! TO.P,J9,6*
G04 #@! TO.N,Net-(J2-Pad6)*
X91146480Y-72544400D03*
G04 #@! TO.P,J9,7*
G04 #@! TO.N,Net-(J2-Pad7)*
X91146480Y-75084400D03*
G04 #@! TO.P,J9,8*
G04 #@! TO.N,Net-(J2-Pad8)*
X91146480Y-77624400D03*
G04 #@! TO.P,J9,9*
G04 #@! TO.N,Net-(J2-Pad10)*
X91146480Y-80164400D03*
G04 #@! TO.P,J9,10*
G04 #@! TO.N,Net-(J2-Pad9)*
X91146480Y-82704400D03*
G04 #@! TO.P,J9,11*
G04 #@! TO.N,Net-(J2-Pad11)*
X91146480Y-85244400D03*
G04 #@! TD*
D14*
G04 #@! TO.P,,1*
G04 #@! TO.N,+3V3*
X184694203Y-148773068D03*
D15*
G04 #@! TO.P,,2*
G04 #@! TO.N,GND*
X187234203Y-148773068D03*
G04 #@! TD*
G04 #@! TO.P,JP2,5*
G04 #@! TO.N,GND*
X116300080Y-138129560D03*
G04 #@! TO.P,JP2,4*
G04 #@! TO.N,VCC*
X116300080Y-135589560D03*
G04 #@! TO.P,JP2,3*
G04 #@! TO.N,/SDA*
X116300080Y-133049560D03*
G04 #@! TO.P,JP2,2*
G04 #@! TO.N,/SCL*
X116300080Y-130509560D03*
D14*
G04 #@! TO.P,JP2,1*
G04 #@! TO.N,/SQW*
X116300080Y-127969560D03*
G04 #@! TD*
D16*
G04 #@! TO.P,B1,*
G04 #@! TO.N,*
X113450080Y-120349560D03*
D17*
X106000080Y-120349560D03*
G04 #@! TD*
D15*
G04 #@! TO.P,J2,2*
G04 #@! TO.N,Net-(C1-Pad1)*
X181114160Y-49491700D03*
D14*
G04 #@! TO.P,J2,1*
G04 #@! TO.N,Net-(C1-Pad2)*
X178574160Y-49491700D03*
G04 #@! TD*
D15*
G04 #@! TO.P,J1,9*
G04 #@! TO.N,Net-(J1-Pad9)*
X196859161Y-70826699D03*
G04 #@! TO.P,J1,8*
G04 #@! TO.N,Net-(J1-Pad8)*
X194319161Y-70826699D03*
G04 #@! TO.P,J1,7*
G04 #@! TO.N,Net-(J1-Pad7)*
X191779161Y-70826699D03*
G04 #@! TO.P,J1,6*
G04 #@! TO.N,Net-(J1-Pad6)*
X189239161Y-70826699D03*
G04 #@! TO.P,J1,5*
G04 #@! TO.N,Net-(J1-Pad5)*
X186699161Y-70826699D03*
G04 #@! TO.P,J1,4*
G04 #@! TO.N,Net-(D1-Pad1)*
X184159161Y-70826699D03*
G04 #@! TO.P,J1,3*
G04 #@! TO.N,Net-(D2-Pad1)*
X181619161Y-70826699D03*
G04 #@! TO.P,J1,2*
G04 #@! TO.N,Net-(J1-Pad2)*
X179079161Y-70826699D03*
D14*
G04 #@! TO.P,J1,1*
G04 #@! TO.N,Net-(J1-Pad1)*
X176539161Y-70826699D03*
G04 #@! TD*
G04 #@! TO.P,J1,1*
G04 #@! TO.N,GND*
X131068000Y-146959000D03*
D15*
G04 #@! TO.P,J1,2*
G04 #@! TO.N,VDD*
X133608000Y-146959000D03*
G04 #@! TO.P,J1,3*
G04 #@! TO.N,VDDIO*
X136148000Y-146959000D03*
G04 #@! TD*
D14*
G04 #@! TO.P,J2,1*
G04 #@! TO.N,INT*
X127004000Y-120289000D03*
D15*
G04 #@! TO.P,J2,2*
G04 #@! TO.N,FSYNC*
X129544000Y-120289000D03*
G04 #@! TO.P,J2,3*
G04 #@! TO.N,nCS*
X132084000Y-120289000D03*
G04 #@! TO.P,J2,4*
G04 #@! TO.N,SCL*
X134624000Y-120289000D03*
G04 #@! TO.P,J2,5*
G04 #@! TO.N,SDA*
X137164000Y-120289000D03*
G04 #@! TO.P,J2,6*
G04 #@! TO.N,AD0*
X139704000Y-120289000D03*
G04 #@! TD*
D18*
G04 #@! TO.P,J$1,GND@1*
G04 #@! TO.N,GND*
X60968410Y-40589461D03*
G04 #@! TO.P,J$1,SIG*
G04 #@! TO.N,PB4*
X60968410Y-43129461D03*
G04 #@! TO.P,J$1,GND@0*
G04 #@! TO.N,GND*
X60968410Y-45669461D03*
G04 #@! TD*
D14*
G04 #@! TO.P,REF\002A\002A,1*
G04 #@! TO.N,GND*
X64125000Y-49050000D03*
D15*
G04 #@! TO.P,REF\002A\002A,2*
G04 #@! TO.N,PB4*
X66665000Y-49050000D03*
G04 #@! TO.P,REF\002A\002A,3*
G04 #@! TO.N,GND*
X69205000Y-49050000D03*
G04 #@! TD*
D14*
G04 #@! TO.P,REF\002A\002A,1*
G04 #@! TO.N,/D4*
X84500000Y-49350000D03*
D15*
G04 #@! TO.P,REF\002A\002A,2*
G04 #@! TO.N,VCC*
X87040000Y-49350000D03*
G04 #@! TO.P,REF\002A\002A,3*
G04 #@! TO.N,GND*
X89580000Y-49350000D03*
G04 #@! TO.P,REF\002A\002A,4*
G04 #@! TO.N,/D3*
X92120000Y-49350000D03*
G04 #@! TD*
D13*
G04 #@! TO.P,U$8,P$1*
G04 #@! TO.N,N/C*
X64527015Y-118816309D03*
G04 #@! TD*
G04 #@! TO.P,U$9,P$1*
G04 #@! TO.N,N/C*
X64527015Y-98496309D03*
G04 #@! TD*
D19*
G04 #@! TO.P,B1,+$2*
G04 #@! TO.N,Net-(B1-Pad+$1)*
X69226015Y-116881709D03*
G04 #@! TO.P,B1,+$1*
X69226015Y-100430909D03*
D20*
G04 #@! TD*
G04 #@! TO.N,GND*
G04 #@! TO.C,B1*
G36*
X69537220Y-105496596D02*
X69845428Y-105542315D01*
X70147670Y-105618022D01*
X70441036Y-105722990D01*
X70722701Y-105856208D01*
X70989951Y-106016392D01*
X71240215Y-106202000D01*
X71471080Y-106411244D01*
X71680324Y-106642109D01*
X71865932Y-106892373D01*
X72026116Y-107159623D01*
X72159334Y-107441288D01*
X72264302Y-107734654D01*
X72340009Y-108036896D01*
X72385728Y-108345104D01*
X72401016Y-108656308D01*
X72401016Y-108656310D01*
X72385728Y-108967514D01*
X72340009Y-109275722D01*
X72264302Y-109577964D01*
X72159334Y-109871330D01*
X72026116Y-110152995D01*
X71865932Y-110420245D01*
X71680324Y-110670509D01*
X71471080Y-110901374D01*
X71240215Y-111110618D01*
X70989951Y-111296226D01*
X70722701Y-111456410D01*
X70441036Y-111589628D01*
X70147670Y-111694596D01*
X69845428Y-111770303D01*
X69537220Y-111816022D01*
X69226016Y-111831310D01*
X69226014Y-111831310D01*
X68914810Y-111816022D01*
X68606602Y-111770303D01*
X68304360Y-111694596D01*
X68010994Y-111589628D01*
X67729329Y-111456410D01*
X67462079Y-111296226D01*
X67211815Y-111110618D01*
X66980950Y-110901374D01*
X66771706Y-110670509D01*
X66586098Y-110420245D01*
X66425914Y-110152995D01*
X66292696Y-109871330D01*
X66187728Y-109577964D01*
X66112021Y-109275722D01*
X66066302Y-108967514D01*
X66051014Y-108656310D01*
X66051014Y-108656308D01*
X66066302Y-108345104D01*
X66112021Y-108036896D01*
X66187728Y-107734654D01*
X66292696Y-107441288D01*
X66425914Y-107159623D01*
X66586098Y-106892373D01*
X66771706Y-106642109D01*
X66980950Y-106411244D01*
X67211815Y-106202000D01*
X67462079Y-106016392D01*
X67729329Y-105856208D01*
X68010994Y-105722990D01*
X68304360Y-105618022D01*
X68606602Y-105542315D01*
X68914810Y-105496596D01*
X69226014Y-105481308D01*
X69226016Y-105481308D01*
X69537220Y-105496596D01*
X69537220Y-105496596D01*
G37*
D21*
G04 #@! TO.P,B1,-*
G04 #@! TO.N,GND*
X69226015Y-108656309D03*
G04 #@! TD*
D22*
G04 #@! TO.P,JP1,9*
G04 #@! TO.N,3.3V*
X94245015Y-118816309D03*
G04 #@! TO.P,JP1,8*
G04 #@! TO.N,/ENABLE*
X94245015Y-116276309D03*
G04 #@! TO.P,JP1,7*
G04 #@! TO.N,/VBACKUP*
X94245015Y-113736309D03*
G04 #@! TO.P,JP1,6*
G04 #@! TO.N,/FIX*
X94245015Y-111196309D03*
G04 #@! TO.P,JP1,5*
G04 #@! TO.N,/TX*
X94245015Y-108656309D03*
G04 #@! TO.P,JP1,4*
G04 #@! TO.N,/RX*
X94245015Y-106116309D03*
G04 #@! TO.P,JP1,3*
G04 #@! TO.N,GND*
X94245015Y-103576309D03*
G04 #@! TO.P,JP1,2*
G04 #@! TO.N,VIN*
X94245015Y-101036309D03*
G04 #@! TO.P,JP1,1*
G04 #@! TO.N,/1PPS*
X94245015Y-98496309D03*
G04 #@! TD*
D14*
G04 #@! TO.P,J1,1*
G04 #@! TO.N,Net-(J1-Pad1)*
X62600000Y-132705000D03*
D15*
G04 #@! TO.P,J1,2*
G04 #@! TO.N,Net-(J1-Pad2)*
X62600000Y-130165000D03*
G04 #@! TD*
D14*
G04 #@! TO.P,J2,1*
G04 #@! TO.N,+3V3*
X89270000Y-126355000D03*
D15*
G04 #@! TO.P,J2,2*
G04 #@! TO.N,Net-(C2-Pad2)*
X89270000Y-128895000D03*
G04 #@! TO.P,J2,3*
G04 #@! TO.N,Net-(J2-Pad3)*
X89270000Y-131435000D03*
G04 #@! TO.P,J2,4*
G04 #@! TO.N,Net-(J2-Pad4)*
X89270000Y-133975000D03*
G04 #@! TO.P,J2,5*
G04 #@! TO.N,Net-(J2-Pad5)*
X89270000Y-136515000D03*
G04 #@! TD*
D14*
G04 #@! TO.P,J1,1*
G04 #@! TO.N,+3V3*
X104733120Y-92248520D03*
D15*
G04 #@! TO.P,J1,2*
X102193120Y-92248520D03*
G04 #@! TO.P,J1,3*
G04 #@! TO.N,PB4*
X104733120Y-89708520D03*
G04 #@! TO.P,J1,4*
G04 #@! TO.N,GND*
X102193120Y-89708520D03*
G04 #@! TO.P,J1,5*
G04 #@! TO.N,PA15*
X104733120Y-87168520D03*
G04 #@! TO.P,J1,6*
G04 #@! TO.N,GND*
X102193120Y-87168520D03*
G04 #@! TO.P,J1,7*
G04 #@! TO.N,PA13*
X104733120Y-84628520D03*
G04 #@! TO.P,J1,8*
G04 #@! TO.N,GND*
X102193120Y-84628520D03*
G04 #@! TO.P,J1,9*
G04 #@! TO.N,PA14*
X104733120Y-82088520D03*
G04 #@! TO.P,J1,10*
G04 #@! TO.N,GND*
X102193120Y-82088520D03*
G04 #@! TO.P,J1,11*
G04 #@! TO.N,Net-(10k1-Pad2)*
X104733120Y-79548520D03*
G04 #@! TO.P,J1,12*
G04 #@! TO.N,GND*
X102193120Y-79548520D03*
G04 #@! TO.P,J1,13*
G04 #@! TO.N,PB3*
X104733120Y-77008520D03*
G04 #@! TO.P,J1,14*
G04 #@! TO.N,GND*
X102193120Y-77008520D03*
G04 #@! TO.P,J1,15*
G04 #@! TO.N,RST*
X104733120Y-74468520D03*
G04 #@! TO.P,J1,16*
G04 #@! TO.N,GND*
X102193120Y-74468520D03*
G04 #@! TO.P,J1,17*
G04 #@! TO.N,Net-(10k3-Pad2)*
X104733120Y-71928520D03*
G04 #@! TO.P,J1,18*
G04 #@! TO.N,GND*
X102193120Y-71928520D03*
G04 #@! TO.P,J1,19*
G04 #@! TO.N,Net-(10k2-Pad2)*
X104733120Y-69388520D03*
G04 #@! TO.P,J1,20*
G04 #@! TO.N,GND*
X102193120Y-69388520D03*
G04 #@! TD*
D14*
G04 #@! TO.P,J3,1*
G04 #@! TO.N,PA0*
X157560040Y-98837280D03*
D15*
G04 #@! TO.P,J3,2*
G04 #@! TO.N,PA1*
X157560040Y-96297280D03*
G04 #@! TO.P,J3,3*
G04 #@! TO.N,PA2*
X157560040Y-93757280D03*
G04 #@! TO.P,J3,4*
G04 #@! TO.N,PA3*
X157560040Y-91217280D03*
G04 #@! TO.P,J3,5*
G04 #@! TO.N,PA4*
X157560040Y-88677280D03*
G04 #@! TO.P,J3,6*
G04 #@! TO.N,PA5*
X157560040Y-86137280D03*
G04 #@! TO.P,J3,7*
G04 #@! TO.N,PA6*
X157560040Y-83597280D03*
G04 #@! TO.P,J3,8*
G04 #@! TO.N,PA7*
X157560040Y-81057280D03*
G04 #@! TO.P,J3,9*
G04 #@! TO.N,PA8*
X157560040Y-78517280D03*
G04 #@! TO.P,J3,10*
G04 #@! TO.N,PA9*
X157560040Y-75977280D03*
G04 #@! TO.P,J3,11*
G04 #@! TO.N,PA10*
X157560040Y-73437280D03*
G04 #@! TO.P,J3,12*
G04 #@! TO.N,PA11*
X157560040Y-70897280D03*
G04 #@! TO.P,J3,13*
G04 #@! TO.N,PA12*
X157560040Y-68357280D03*
G04 #@! TO.P,J3,14*
G04 #@! TO.N,PA13*
X157560040Y-65817280D03*
G04 #@! TO.P,J3,15*
G04 #@! TO.N,PA14*
X157560040Y-63277280D03*
G04 #@! TO.P,J3,16*
G04 #@! TO.N,PA15*
X157560040Y-60737280D03*
G04 #@! TD*
D14*
G04 #@! TO.P,J4,1*
G04 #@! TO.N,PB0*
X151575800Y-57166040D03*
D15*
G04 #@! TO.P,J4,2*
G04 #@! TO.N,PB1*
X149035800Y-57166040D03*
G04 #@! TO.P,J4,3*
G04 #@! TO.N,PB2*
X146495800Y-57166040D03*
G04 #@! TO.P,J4,4*
G04 #@! TO.N,PB3*
X143955800Y-57166040D03*
G04 #@! TO.P,J4,5*
G04 #@! TO.N,PB4*
X141415800Y-57166040D03*
G04 #@! TO.P,J4,6*
G04 #@! TO.N,PB5*
X138875800Y-57166040D03*
G04 #@! TO.P,J4,7*
G04 #@! TO.N,PB6*
X136335800Y-57166040D03*
G04 #@! TO.P,J4,8*
G04 #@! TO.N,PB7*
X133795800Y-57166040D03*
G04 #@! TO.P,J4,9*
G04 #@! TO.N,PB8*
X131255800Y-57166040D03*
G04 #@! TO.P,J4,10*
G04 #@! TO.N,PB9*
X128715800Y-57166040D03*
G04 #@! TO.P,J4,11*
G04 #@! TO.N,PB10*
X126175800Y-57166040D03*
G04 #@! TO.P,J4,12*
G04 #@! TO.N,PB11*
X123635800Y-57166040D03*
G04 #@! TO.P,J4,13*
G04 #@! TO.N,PB12*
X121095800Y-57166040D03*
G04 #@! TO.P,J4,14*
G04 #@! TO.N,PB13*
X118555800Y-57166040D03*
G04 #@! TO.P,J4,15*
G04 #@! TO.N,PB14*
X116015800Y-57166040D03*
G04 #@! TO.P,J4,16*
G04 #@! TO.N,PB15*
X113475800Y-57166040D03*
G04 #@! TD*
D14*
G04 #@! TO.P,J5,1*
G04 #@! TO.N,PC0*
X113282760Y-102388200D03*
D15*
G04 #@! TO.P,J5,2*
G04 #@! TO.N,PC1*
X115822760Y-102388200D03*
G04 #@! TO.P,J5,3*
G04 #@! TO.N,PC2*
X118362760Y-102388200D03*
G04 #@! TO.P,J5,4*
G04 #@! TO.N,PC3*
X120902760Y-102388200D03*
G04 #@! TO.P,J5,5*
G04 #@! TO.N,PC4*
X123442760Y-102388200D03*
G04 #@! TO.P,J5,6*
G04 #@! TO.N,PC5*
X125982760Y-102388200D03*
G04 #@! TO.P,J5,7*
G04 #@! TO.N,PC6*
X128522760Y-102388200D03*
G04 #@! TO.P,J5,8*
G04 #@! TO.N,PC7*
X131062760Y-102388200D03*
G04 #@! TO.P,J5,9*
G04 #@! TO.N,PC8*
X133602760Y-102388200D03*
G04 #@! TO.P,J5,10*
G04 #@! TO.N,PC9*
X136142760Y-102388200D03*
G04 #@! TO.P,J5,11*
G04 #@! TO.N,PC10*
X138682760Y-102388200D03*
G04 #@! TO.P,J5,12*
G04 #@! TO.N,PC11*
X141222760Y-102388200D03*
G04 #@! TO.P,J5,13*
G04 #@! TO.N,PC12*
X143762760Y-102388200D03*
G04 #@! TO.P,J5,14*
G04 #@! TO.N,PC13*
X146302760Y-102388200D03*
G04 #@! TO.P,J5,15*
G04 #@! TO.N,Net-(J5-Pad15)*
X148842760Y-102388200D03*
G04 #@! TO.P,J5,16*
G04 #@! TO.N,PD2*
X151382760Y-102388200D03*
G04 #@! TD*
D14*
G04 #@! TO.P,J6,1*
G04 #@! TO.N,GND*
X102294720Y-102372960D03*
D15*
G04 #@! TO.P,J6,2*
G04 #@! TO.N,+3V3*
X104834720Y-102372960D03*
G04 #@! TD*
D14*
G04 #@! TO.P,J10,1*
G04 #@! TO.N,Net-(C16-Pad2)*
X175517340Y-98854200D03*
D15*
G04 #@! TO.P,J10,2*
G04 #@! TO.N,Net-(C21-Pad1)*
X175517340Y-96314200D03*
G04 #@! TD*
D14*
G04 #@! TO.P,J7,1*
G04 #@! TO.N,Net-(C16-Pad1)*
X175476700Y-115303240D03*
D15*
G04 #@! TO.P,J7,2*
G04 #@! TO.N,Net-(C16-Pad2)*
X175476700Y-112763240D03*
G04 #@! TD*
D14*
G04 #@! TO.P,J8,1*
G04 #@! TO.N,Net-(C16-Pad2)*
X170391620Y-141444920D03*
D15*
G04 #@! TO.P,J8,2*
G04 #@! TO.N,Net-(C18-Pad1)*
X170391620Y-143984920D03*
G04 #@! TD*
D14*
G04 #@! TO.P,J13,1*
G04 #@! TO.N,Net-(C16-Pad2)*
X170467820Y-129374840D03*
D15*
G04 #@! TO.P,J13,2*
X170467820Y-131914840D03*
G04 #@! TO.P,J13,3*
X170467820Y-134454840D03*
G04 #@! TO.P,J13,4*
X170467820Y-136994840D03*
G04 #@! TD*
D14*
G04 #@! TO.P,J14,1*
G04 #@! TO.N,Net-(C21-Pad1)*
X175532580Y-92516900D03*
D15*
G04 #@! TO.P,J14,2*
X178072580Y-92516900D03*
G04 #@! TO.P,J14,3*
X180612580Y-92516900D03*
G04 #@! TO.P,J14,4*
X183152580Y-92516900D03*
G04 #@! TO.P,J14,5*
X185692580Y-92516900D03*
G04 #@! TD*
D14*
G04 #@! TO.P,J12,1*
G04 #@! TO.N,Net-(C16-Pad2)*
X175494480Y-102588000D03*
D15*
G04 #@! TO.P,J12,2*
X175494480Y-105128000D03*
G04 #@! TO.P,J12,3*
X175494480Y-107668000D03*
G04 #@! TD*
D14*
G04 #@! TO.P,J15,1*
G04 #@! TO.N,Net-(C18-Pad1)*
X152672580Y-147685700D03*
D15*
G04 #@! TO.P,J15,2*
X155212580Y-147685700D03*
G04 #@! TO.P,J15,3*
X157752580Y-147685700D03*
G04 #@! TO.P,J15,4*
X160292580Y-147685700D03*
G04 #@! TO.P,J15,5*
X162832580Y-147685700D03*
G04 #@! TO.P,J15,6*
X165372580Y-147685700D03*
G04 #@! TO.P,J15,7*
X167912580Y-147685700D03*
G04 #@! TO.P,J15,8*
X170452580Y-147685700D03*
G04 #@! TD*
D23*
G04 #@! TO.N,*
X109950000Y-70825000D03*
X106850000Y-76000000D03*
D24*
G04 #@! TO.N,GND*
X130814000Y-132227000D03*
X138200000Y-139750000D03*
X139625000Y-132400000D03*
D25*
X83450015Y-96972309D03*
X82728415Y-100357409D03*
X89038015Y-115768309D03*
X91528415Y-120157409D03*
X80656015Y-119197309D03*
X88728415Y-120357409D03*
X67328415Y-120357409D03*
X68728415Y-120557409D03*
X78728415Y-100357409D03*
X75928415Y-97357409D03*
X89928415Y-120157409D03*
X79128415Y-97557409D03*
X74128415Y-98157409D03*
X67328415Y-118957409D03*
X68928415Y-97757409D03*
X92928415Y-120157409D03*
X81328415Y-97557409D03*
X75128415Y-99157409D03*
X67829015Y-104973309D03*
X69099015Y-103893809D03*
X65289015Y-103830309D03*
X68845015Y-114498309D03*
X66432015Y-112085309D03*
X67067015Y-114371309D03*
X65162015Y-106878309D03*
X64273015Y-109735809D03*
X66305015Y-104973309D03*
X66940015Y-99639309D03*
X71639015Y-100909309D03*
X77728415Y-97757409D03*
X71928415Y-97957409D03*
X87528415Y-120357409D03*
D26*
X59927010Y-45669461D03*
D23*
X123600000Y-94950000D03*
X123275000Y-92000000D03*
X122050000Y-90775000D03*
X118286560Y-72116480D03*
X148498840Y-76222632D03*
X138743475Y-80327029D03*
X131093250Y-94726191D03*
X130541252Y-82856771D03*
X118647240Y-75093520D03*
X116142800Y-85278760D03*
X131667280Y-78430920D03*
X128725960Y-70435000D03*
X138195080Y-87072000D03*
X144350000Y-77550000D03*
X133925000Y-86000000D03*
X138275000Y-84125000D03*
X119550000Y-89700000D03*
G04 #@! TO.N,+3V3*
X128597479Y-72894904D03*
X140461577Y-88396190D03*
X125860840Y-93940160D03*
X146196080Y-76322720D03*
X122347840Y-89045400D03*
X145450000Y-70725000D03*
X132875000Y-61400000D03*
X127450000Y-63125000D03*
X143875000Y-78978600D03*
X124550000Y-91300000D03*
G04 #@! TO.N,RST*
X127161320Y-81133480D03*
D26*
G04 #@! TO.N,PB4*
X59927010Y-43129461D03*
D23*
X111886513Y-72880998D03*
X140232160Y-67016160D03*
G04 #@! TO.N,PB3*
X107209759Y-73505999D03*
X142000000Y-67895000D03*
G04 #@! TO.N,PA1*
X130734222Y-93068816D03*
G04 #@! TO.N,PA2*
X130729747Y-92097772D03*
G04 #@! TO.N,PA3*
X130717687Y-91233520D03*
G04 #@! TO.N,PA4*
X132145217Y-91449555D03*
G04 #@! TO.N,PA5*
X133109823Y-91428433D03*
G04 #@! TO.N,PA6*
X133989939Y-91301420D03*
G04 #@! TO.N,PA7*
X134006876Y-90482350D03*
G04 #@! TO.N,PB0*
X133566658Y-97036271D03*
G04 #@! TO.N,PB1*
X134170125Y-97561481D03*
G04 #@! TO.N,PB2*
X134917375Y-97847201D03*
G04 #@! TO.N,PB8*
X132287040Y-73843680D03*
X131276120Y-60774990D03*
G04 #@! TO.N,PB9*
X131840000Y-74839360D03*
X128592913Y-61098189D03*
G04 #@! TO.N,PB10*
X135873377Y-98166757D03*
G04 #@! TO.N,PB12*
X150941806Y-71526717D03*
X147664948Y-68294783D03*
X142882875Y-87053113D03*
G04 #@! TO.N,PB13*
X147139950Y-68898422D03*
X150323423Y-72034282D03*
X143428136Y-86467712D03*
G04 #@! TO.N,PB14*
X146597389Y-69486325D03*
X149748574Y-72590670D03*
X143931912Y-85846252D03*
G04 #@! TO.N,PB15*
X146062446Y-70081168D03*
X149183718Y-73157199D03*
X144433320Y-85222880D03*
G04 #@! TO.N,PC0*
X117174040Y-85319400D03*
X126180880Y-81113160D03*
G04 #@! TO.N,PC1*
X118144320Y-85354960D03*
X126040517Y-81900752D03*
G04 #@! TO.N,PC2*
X125913788Y-82690652D03*
X119048194Y-85277403D03*
G04 #@! TO.N,PC3*
X125688120Y-83551560D03*
X120431591Y-85729208D03*
G04 #@! TO.N,PC10*
X138192010Y-74866747D03*
G04 #@! TO.N,PC11*
X137540942Y-74401850D03*
G04 #@! TO.N,PC12*
X136825635Y-74043583D03*
G04 #@! TO.N,PC13*
X127438649Y-78729098D03*
G04 #@! TO.N,PD2*
X136794492Y-73244177D03*
G04 #@! TO.N,PB11*
X148009640Y-67549560D03*
X151544914Y-71001109D03*
X138169680Y-90963280D03*
G04 #@! TO.N,Net-(C16-Pad1)*
X155202420Y-124045920D03*
X151275580Y-126286200D03*
X190701460Y-116288760D03*
X194628300Y-114048480D03*
G04 #@! TO.N,Net-(C16-Pad2)*
X178268160Y-112488920D03*
X179177480Y-112473680D03*
X180168080Y-112488920D03*
X181224720Y-112488920D03*
X182184840Y-112488920D03*
X181163760Y-100464560D03*
X182179760Y-100464560D03*
X183129720Y-100454400D03*
X184074600Y-100444240D03*
X184983920Y-100444240D03*
X185888160Y-100454400D03*
X201234840Y-90294400D03*
X199533040Y-90294400D03*
X197633120Y-90279160D03*
X197648360Y-91833640D03*
X199517800Y-91833640D03*
X201250080Y-91833640D03*
X201234840Y-93571000D03*
X199487320Y-93550680D03*
X197633120Y-93586240D03*
X197617880Y-95079760D03*
X199441600Y-95064520D03*
X201219600Y-95079760D03*
X201199280Y-96888240D03*
X199441600Y-96867920D03*
X197587400Y-96867920D03*
X197587400Y-98366520D03*
X199426360Y-98381760D03*
X201184040Y-98381760D03*
X201199280Y-100169920D03*
X199441600Y-100169920D03*
X197587400Y-100154680D03*
X192258480Y-111782800D03*
X193091600Y-111792960D03*
X193101760Y-110914120D03*
X192258480Y-110898880D03*
X198303680Y-116725640D03*
X198329080Y-117533360D03*
X198339240Y-118386800D03*
X198339240Y-119189440D03*
X198349400Y-119992080D03*
X198349400Y-120774400D03*
X198349400Y-121612600D03*
X164470880Y-139839640D03*
X163419320Y-139844720D03*
X162499840Y-139849800D03*
X161565120Y-139849800D03*
X160767560Y-139854880D03*
X159848080Y-139824400D03*
X167605240Y-127850840D03*
X166690840Y-127871160D03*
X165761200Y-127845760D03*
X164780760Y-127845760D03*
X163835880Y-127845760D03*
X144506480Y-150009800D03*
X146243840Y-150030120D03*
X148123440Y-150030120D03*
X148143760Y-148475640D03*
X146304800Y-148475640D03*
X144526800Y-148475640D03*
X144526800Y-146677320D03*
X146284480Y-146697640D03*
X148184400Y-146697640D03*
X148225040Y-145229520D03*
X146345440Y-145229520D03*
X144567440Y-145209200D03*
X144567440Y-143471840D03*
X146345440Y-143492160D03*
X148245360Y-143431200D03*
X148245360Y-141917360D03*
X146406400Y-141958000D03*
X144547120Y-141917360D03*
X144547120Y-140200320D03*
X146365760Y-140159680D03*
X148245360Y-140139360D03*
X147452880Y-123578560D03*
X147442720Y-122765760D03*
X147452880Y-121988520D03*
X147452880Y-121190960D03*
X147442720Y-120373080D03*
X147442720Y-119585680D03*
X147452880Y-118722080D03*
X147452880Y-117833080D03*
X152690360Y-128567120D03*
X152690360Y-129420560D03*
X153503160Y-129400240D03*
X153503160Y-128567120D03*
G04 #@! TO.N,Net-(C17-Pad1)*
X157460480Y-130987740D03*
X157460480Y-126296360D03*
X156546080Y-130949640D03*
X156568940Y-126240480D03*
G04 #@! TO.N,Net-(C18-Pad1)*
X151941060Y-121074120D03*
G04 #@! TO.N,Net-(C20-Pad1)*
X189291760Y-109430760D03*
X188445940Y-109443460D03*
X188445940Y-114038320D03*
X189294300Y-114048480D03*
G04 #@! TO.N,Net-(C21-Pad1)*
X193957740Y-119296120D03*
D24*
G04 #@! TO.N,Net-(C1-Pad1)*
X114080080Y-128019560D03*
X114080080Y-134369560D03*
X194576160Y-46697700D03*
X192798160Y-47459700D03*
X191782160Y-47459700D03*
X190766160Y-47459700D03*
X196100160Y-49491700D03*
X195338160Y-45935714D03*
G04 #@! TO.N,VCC*
X109780080Y-135184570D03*
X112530080Y-136619560D03*
G04 #@! TO.N,Net-(D1-Pad2)*
X175780160Y-53047700D03*
X191782160Y-38315700D03*
G04 #@! TO.N,Net-(D2-Pad2)*
X179844160Y-58889700D03*
X186194160Y-53047700D03*
X188226160Y-41871700D03*
X186194160Y-41871700D03*
G04 #@! TO.N,Net-(J1-Pad1)*
X185178160Y-54571700D03*
X189750160Y-45427700D03*
X185178160Y-48475700D03*
G04 #@! TO.N,Net-(J1-Pad2)*
X187210160Y-46951700D03*
X188226160Y-42887700D03*
X187210160Y-51269700D03*
G04 #@! TO.N,Net-(J1-Pad5)*
X198894160Y-40601700D03*
X190766160Y-54063700D03*
G04 #@! TO.N,Net-(J1-Pad6)*
X197624160Y-40855700D03*
X192544160Y-51777700D03*
G04 #@! TO.N,Net-(J1-Pad7)*
X192036160Y-66763700D03*
X199402160Y-66763700D03*
G04 #@! TO.N,Net-(J1-Pad8)*
X194322160Y-62699700D03*
X197624160Y-62699700D03*
G04 #@! TO.N,Net-(R2-Pad2)*
X196839160Y-36560700D03*
X188480160Y-44411700D03*
G04 #@! TO.N,Net-(R3-Pad2)*
X188734160Y-45427700D03*
X188734160Y-47713700D03*
G04 #@! TO.N,Net-(C1-Pad2)*
X178597160Y-36560700D03*
D25*
G04 #@! TO.N,3.3V*
X89038015Y-96972309D03*
X75928415Y-100357409D03*
X81328415Y-100557409D03*
G04 #@! TO.N,VIN*
X90562015Y-99893309D03*
G04 #@! TO.N,/1PPS*
X80128415Y-100157409D03*
G04 #@! TO.N,/FIX*
X89728415Y-109357409D03*
X79328415Y-117757409D03*
G04 #@! TO.N,/VBACKUP*
X84656515Y-120149809D03*
G04 #@! TO.N,Net-(B1-Pad+$1)*
X81862515Y-120149809D03*
D24*
G04 #@! TO.N,VDD*
X135975000Y-133125000D03*
X133600000Y-139825000D03*
G04 #@! TD*
D27*
G04 #@! TO.N,*
X109925000Y-70825000D02*
X109950000Y-70825000D01*
G04 #@! TO.N,GND*
X131068000Y-141343000D02*
X131068000Y-146959000D01*
X130814000Y-132227000D02*
X127512000Y-132227000D01*
X127512000Y-132227000D02*
X126750000Y-132989000D01*
X126750000Y-132989000D02*
X126750000Y-137025000D01*
X126750000Y-137025000D02*
X131068000Y-141343000D01*
X138200000Y-139750000D02*
X136625000Y-141325000D01*
X131086000Y-141325000D02*
X131068000Y-141343000D01*
X136625000Y-141325000D02*
X131086000Y-141325000D01*
X139625000Y-132965685D02*
X139600000Y-132990685D01*
X139625000Y-132400000D02*
X139625000Y-132965685D01*
X139600000Y-138350000D02*
X138200000Y-139750000D01*
X139600000Y-132990685D02*
X139600000Y-138350000D01*
D28*
X83450015Y-96972309D02*
X83450015Y-96845309D01*
X89038015Y-115768309D02*
X89292015Y-115768309D01*
D27*
X64143410Y-45694861D02*
X64143410Y-44881590D01*
D29*
X89543410Y-49313410D02*
X89580000Y-49350000D01*
X89543410Y-45694861D02*
X89543410Y-49313410D01*
D27*
X123600000Y-92325000D02*
X123275000Y-92000000D01*
X123600000Y-94950000D02*
X123600000Y-92325000D01*
X148198841Y-76522631D02*
X147702369Y-76522631D01*
X148498840Y-76222632D02*
X148198841Y-76522631D01*
X146675000Y-77550000D02*
X144350000Y-77550000D01*
X147702369Y-76522631D02*
X146675000Y-77550000D01*
X138195080Y-84204920D02*
X138275000Y-84125000D01*
X138195080Y-87072000D02*
X138195080Y-84204920D01*
X120625000Y-90775000D02*
X119550000Y-89700000D01*
X122050000Y-90775000D02*
X120625000Y-90775000D01*
D30*
X102193120Y-79548520D02*
X102193120Y-82088520D01*
D27*
G04 #@! TO.N,+3V3*
X145150001Y-70425001D02*
X145150001Y-70150001D01*
X145450000Y-70725000D02*
X145150001Y-70425001D01*
X136400000Y-61400000D02*
X132875000Y-61400000D01*
X145150001Y-70150001D02*
X136400000Y-61400000D01*
G04 #@! TO.N,RST*
X127161320Y-81133480D02*
X120496360Y-74468520D01*
X120496360Y-74468520D02*
X104733120Y-74468520D01*
D29*
G04 #@! TO.N,PB4*
X66683410Y-45694861D02*
X66683410Y-44374061D01*
X66683410Y-44374061D02*
X65438810Y-43129461D01*
X65438810Y-43129461D02*
X59901610Y-43129461D01*
D27*
X112310777Y-72880998D02*
X111886513Y-72880998D01*
X127699675Y-72880998D02*
X112310777Y-72880998D01*
X130283038Y-75464361D02*
X127699675Y-72880998D01*
X132208223Y-75464361D02*
X130283038Y-75464361D01*
X140232160Y-67440424D02*
X132208223Y-75464361D01*
X140232160Y-67016160D02*
X140232160Y-67440424D01*
G04 #@! TO.N,PA15*
X157560040Y-60737280D02*
X157560040Y-59535199D01*
X100318600Y-60529000D02*
X100354160Y-60564560D01*
X157560040Y-59535199D02*
X153626241Y-55601400D01*
X153626241Y-55601400D02*
X144766572Y-55601400D01*
X144321642Y-55156470D02*
X105691130Y-55156470D01*
X144766572Y-55601400D02*
X144321642Y-55156470D01*
X105691130Y-55156470D02*
X100318600Y-60529000D01*
X100354160Y-60564560D02*
X100354160Y-84528562D01*
X100354160Y-84528562D02*
X101709714Y-85884116D01*
X101709714Y-85884116D02*
X103448716Y-85884116D01*
X103448716Y-85884116D02*
X103883121Y-86318521D01*
X103883121Y-86318521D02*
X104733120Y-87168520D01*
G04 #@! TO.N,PB3*
X127893354Y-73711087D02*
X127688266Y-73505999D01*
X127688266Y-73505999D02*
X107209759Y-73505999D01*
X130096637Y-75914370D02*
X127893354Y-73711087D01*
X132394623Y-75914371D02*
X130096637Y-75914370D01*
X142000000Y-67895000D02*
X141700001Y-68194999D01*
X141700001Y-68194999D02*
X140113995Y-68194999D01*
X140113995Y-68194999D02*
X132394623Y-75914371D01*
G04 #@! TO.N,PA1*
X157560040Y-96297280D02*
X156365283Y-95102523D01*
X156365283Y-95102523D02*
X132784463Y-95102523D01*
X131034221Y-93368815D02*
X130734222Y-93068816D01*
X132784463Y-95102523D02*
X131050755Y-93368815D01*
X131050755Y-93368815D02*
X131034221Y-93368815D01*
G04 #@! TO.N,PA2*
X133239254Y-94607279D02*
X131029746Y-92397771D01*
X156710041Y-94607279D02*
X133239254Y-94607279D01*
X157560040Y-93757280D02*
X156710041Y-94607279D01*
X131029746Y-92397771D02*
X130729747Y-92097772D01*
G04 #@! TO.N,PA3*
X145937414Y-92039826D02*
X136625026Y-92039826D01*
X136625026Y-92039826D02*
X134370857Y-89785657D01*
X134370857Y-89785657D02*
X132165550Y-89785657D01*
X148157020Y-89785657D02*
X148157020Y-89820220D01*
X148157020Y-89820220D02*
X145937414Y-92039826D01*
X131017686Y-90933521D02*
X130717687Y-91233520D01*
X132165550Y-89785657D02*
X131017686Y-90933521D01*
X156250795Y-80447398D02*
X156250795Y-81691882D01*
X156941393Y-79756800D02*
X156250795Y-80447398D01*
X156250795Y-81691882D02*
X148157020Y-89785657D01*
X158154400Y-79756800D02*
X156941393Y-79756800D01*
X159077018Y-80679418D02*
X158154400Y-79756800D01*
X159077018Y-89700302D02*
X159077018Y-80679418D01*
X157560040Y-91217280D02*
X159077018Y-89700302D01*
G04 #@! TO.N,PA4*
X157560040Y-88677280D02*
X152278835Y-93958485D01*
X134654147Y-93958485D02*
X132445216Y-91749554D01*
X152278835Y-93958485D02*
X134654147Y-93958485D01*
X132445216Y-91749554D02*
X132145217Y-91449555D01*
G04 #@! TO.N,PA5*
X157560040Y-86137280D02*
X150228385Y-93468935D01*
X150228385Y-93468935D02*
X135150325Y-93468935D01*
X133409822Y-91728432D02*
X133109823Y-91428433D01*
X135150325Y-93468935D02*
X133409822Y-91728432D01*
G04 #@! TO.N,PA6*
X157560040Y-83597280D02*
X148177935Y-92979385D01*
X148177935Y-92979385D02*
X136092168Y-92979385D01*
X136092168Y-92979385D02*
X134414203Y-91301420D01*
X134414203Y-91301420D02*
X133989939Y-91301420D01*
G04 #@! TO.N,PA7*
X157560040Y-81057280D02*
X146127484Y-92489836D01*
X146127484Y-92489836D02*
X136438626Y-92489836D01*
X134431140Y-90482350D02*
X134006876Y-90482350D01*
X136438626Y-92489836D02*
X134431140Y-90482350D01*
G04 #@! TO.N,PB0*
X151575800Y-58266040D02*
X151575800Y-57166040D01*
X139963954Y-80609507D02*
X151575800Y-68997661D01*
X139963954Y-80871617D02*
X139963954Y-80609507D01*
X133566658Y-97036271D02*
X132478328Y-97036271D01*
X132478328Y-97036271D02*
X130092687Y-94650630D01*
X151575800Y-68997661D02*
X151575800Y-58266040D01*
X130092687Y-94650630D02*
X130092687Y-90742884D01*
X130092687Y-90742884D02*
X139963954Y-80871617D01*
G04 #@! TO.N,PB1*
X149885799Y-58016039D02*
X149035800Y-57166040D01*
X150918148Y-59048388D02*
X149885799Y-58016039D01*
X129642676Y-94837029D02*
X129642676Y-89369642D01*
X132667127Y-97861480D02*
X129642676Y-94837029D01*
X133870126Y-97861480D02*
X132667127Y-97861480D01*
X129642676Y-89369642D02*
X138002101Y-81010217D01*
X150918148Y-68639454D02*
X150918148Y-59048388D01*
X139513943Y-80685217D02*
X139513943Y-80043659D01*
X138002101Y-81010217D02*
X139188943Y-81010217D01*
X134170125Y-97561481D02*
X133870126Y-97861480D01*
X139188943Y-81010217D02*
X139513943Y-80685217D01*
X139513943Y-80043659D02*
X150918148Y-68639454D01*
G04 #@! TO.N,PB2*
X134917375Y-97847201D02*
X134453086Y-98311489D01*
X150380614Y-67758902D02*
X150380614Y-61050854D01*
X150380614Y-61050854D02*
X147345799Y-58016039D01*
X134453086Y-98311489D02*
X132480726Y-98311489D01*
X132480726Y-98311489D02*
X129192667Y-95023429D01*
X129192667Y-95023429D02*
X129192667Y-88946849D01*
X129192667Y-88946849D02*
X150380614Y-67758902D01*
X147345799Y-58016039D02*
X146495800Y-57166040D01*
G04 #@! TO.N,PB8*
X131276120Y-72832760D02*
X131276120Y-61199254D01*
X131276120Y-61199254D02*
X131276120Y-60774990D01*
X132287040Y-73843680D02*
X131276120Y-72832760D01*
G04 #@! TO.N,PB9*
X128892912Y-61398188D02*
X128592913Y-61098189D01*
X129350961Y-61856237D02*
X128892912Y-61398188D01*
X131840000Y-74839360D02*
X129350961Y-72350321D01*
X129350961Y-72350321D02*
X129350961Y-61856237D01*
G04 #@! TO.N,PB10*
X135873377Y-98166757D02*
X135278634Y-98761500D01*
X132294326Y-98761499D02*
X128742656Y-95209829D01*
X135278634Y-98761500D02*
X132294326Y-98761499D01*
X148745740Y-61154982D02*
X145320799Y-57730041D01*
X128742656Y-95209829D02*
X128742657Y-88760449D01*
X128742657Y-88760449D02*
X148745740Y-68757366D01*
X148745740Y-68757366D02*
X148745740Y-61154982D01*
X145320799Y-57730041D02*
X145320799Y-56792037D01*
X145320799Y-56792037D02*
X144135242Y-55606480D01*
X127735360Y-55606480D02*
X127025799Y-56316041D01*
X144135242Y-55606480D02*
X127735360Y-55606480D01*
X127025799Y-56316041D02*
X126175800Y-57166040D01*
G04 #@! TO.N,PB12*
X151241805Y-80612217D02*
X151241805Y-71826716D01*
X151241805Y-71826716D02*
X150941806Y-71526717D01*
X144500910Y-87353112D02*
X151241805Y-80612217D01*
X143182874Y-87353112D02*
X144500910Y-87353112D01*
X142882875Y-87053113D02*
X143182874Y-87353112D01*
X138578715Y-59208550D02*
X147364949Y-67994784D01*
X132543916Y-59208550D02*
X138578715Y-59208550D01*
X122729715Y-58799955D02*
X132135322Y-58799955D01*
X147364949Y-67994784D02*
X147664948Y-68294783D01*
X132135322Y-58799955D02*
X132543916Y-59208550D01*
X121095800Y-57166040D02*
X122729715Y-58799955D01*
G04 #@! TO.N,PB13*
X143428136Y-86467712D02*
X143728135Y-86767711D01*
X144449901Y-86767711D02*
X150623422Y-80594190D01*
X150623422Y-80594190D02*
X150623422Y-72334281D01*
X150623422Y-72334281D02*
X150323423Y-72034282D01*
X143728135Y-86767711D02*
X144449901Y-86767711D01*
X147139950Y-68898422D02*
X137900089Y-59658561D01*
X137900089Y-59658561D02*
X132357516Y-59658561D01*
X121048321Y-59658561D02*
X119405799Y-58016039D01*
X132357516Y-59658561D02*
X131948922Y-59249966D01*
X128243310Y-59249966D02*
X127834715Y-59658561D01*
X127834715Y-59658561D02*
X121048321Y-59658561D01*
X131948922Y-59249966D02*
X128243310Y-59249966D01*
X119405799Y-58016039D02*
X118555800Y-57166040D01*
G04 #@! TO.N,PB14*
X143931912Y-85846252D02*
X144231911Y-86146251D01*
X144434951Y-86146251D02*
X150048573Y-80532629D01*
X150048573Y-80532629D02*
X150048573Y-72890669D01*
X150048573Y-72890669D02*
X149748574Y-72590670D01*
X144231911Y-86146251D02*
X144434951Y-86146251D01*
X146597389Y-69486325D02*
X137219636Y-60108572D01*
X132171117Y-60108572D02*
X131762522Y-59699977D01*
X118958332Y-60108572D02*
X116865799Y-58016039D01*
X131762522Y-59699977D02*
X128429710Y-59699977D01*
X137219636Y-60108572D02*
X132171117Y-60108572D01*
X116865799Y-58016039D02*
X116015800Y-57166040D01*
X128429710Y-59699977D02*
X128021115Y-60108572D01*
X128021115Y-60108572D02*
X118958332Y-60108572D01*
G04 #@! TO.N,PB15*
X144433320Y-85222880D02*
X149183718Y-80472482D01*
X149183718Y-80472482D02*
X149183718Y-73581463D01*
X149183718Y-73581463D02*
X149183718Y-73157199D01*
X128616110Y-60149988D02*
X128207515Y-60558583D01*
X116868343Y-60558583D02*
X114325799Y-58016039D01*
X146062446Y-70081168D02*
X136539861Y-60558583D01*
X128207515Y-60558583D02*
X116868343Y-60558583D01*
X114325799Y-58016039D02*
X113475800Y-57166040D01*
X131984717Y-60558583D02*
X131576122Y-60149988D01*
X136539861Y-60558583D02*
X131984717Y-60558583D01*
X131576122Y-60149988D02*
X128616110Y-60149988D01*
G04 #@! TO.N,PC0*
X126180880Y-81113160D02*
X121298591Y-81113160D01*
X121298591Y-81113160D02*
X117174040Y-85237711D01*
X117174040Y-85237711D02*
X117174040Y-85319400D01*
G04 #@! TO.N,PC1*
X126040517Y-81900752D02*
X121174264Y-81900752D01*
X118144320Y-84930696D02*
X118144320Y-85354960D01*
X121174264Y-81900752D02*
X118144320Y-84930696D01*
G04 #@! TO.N,PC2*
X125913788Y-82690652D02*
X121634945Y-82690652D01*
X121634945Y-82690652D02*
X119348193Y-84977404D01*
X119348193Y-84977404D02*
X119048194Y-85277403D01*
G04 #@! TO.N,PC3*
X120731590Y-85429209D02*
X120431591Y-85729208D01*
X122609239Y-83551560D02*
X120731590Y-85429209D01*
X125688120Y-83551560D02*
X122609239Y-83551560D01*
G04 #@! TO.N,PC10*
X138192010Y-76615347D02*
X138192010Y-75291011D01*
X126556797Y-88250560D02*
X138192010Y-76615347D01*
X138682760Y-102388200D02*
X137184163Y-100889603D01*
X137184163Y-100889603D02*
X131536707Y-100889603D01*
X138192010Y-75291011D02*
X138192010Y-74866747D01*
X126556797Y-95909693D02*
X126556797Y-88250560D01*
X131536707Y-100889603D02*
X126556797Y-95909693D01*
G04 #@! TO.N,PC11*
X138854862Y-76588906D02*
X138854862Y-74575940D01*
X139274152Y-100439592D02*
X131723107Y-100439592D01*
X137840941Y-74101851D02*
X137540942Y-74401850D01*
X138380773Y-74101851D02*
X137840941Y-74101851D01*
X127006808Y-95723293D02*
X127006808Y-88436960D01*
X131723107Y-100439592D02*
X127006808Y-95723293D01*
X141222760Y-102388200D02*
X139274152Y-100439592D01*
X127006808Y-88436960D02*
X138854862Y-76588906D01*
X138854862Y-74575940D02*
X138380773Y-74101851D01*
G04 #@! TO.N,PC12*
X127456819Y-95536893D02*
X127456819Y-88623360D01*
X139304873Y-76775306D02*
X139304873Y-74376838D01*
X141364141Y-99989581D02*
X131909507Y-99989581D01*
X139304873Y-74376838D02*
X138569882Y-73641847D01*
X127456819Y-88623360D02*
X139304873Y-76775306D01*
X131909507Y-99989581D02*
X127456819Y-95536893D01*
X138569882Y-73641847D02*
X137297527Y-73641847D01*
X143762760Y-102388200D02*
X141364141Y-99989581D01*
X137297527Y-73641847D02*
X136895791Y-74043583D01*
X136895791Y-74043583D02*
X136825635Y-74043583D01*
G04 #@! TO.N,PC13*
X127738648Y-79029097D02*
X127438649Y-78729098D01*
X127787603Y-79078052D02*
X127738648Y-79029097D01*
X119632760Y-103048600D02*
X119632760Y-94438053D01*
X127787603Y-86283210D02*
X127787603Y-79078052D01*
X120603040Y-104018880D02*
X119632760Y-103048600D01*
X144672080Y-104018880D02*
X120603040Y-104018880D01*
X146302760Y-102388200D02*
X144672080Y-104018880D01*
X119632760Y-94438053D02*
X127787603Y-86283210D01*
G04 #@! TO.N,PD2*
X139754884Y-74190438D02*
X138508624Y-72944178D01*
X151382760Y-102388200D02*
X148534130Y-99539570D01*
X137094491Y-72944178D02*
X136794492Y-73244177D01*
X138508624Y-72944178D02*
X137094491Y-72944178D01*
X139754884Y-76961706D02*
X139754884Y-74190438D01*
X132095907Y-99539570D02*
X127906830Y-95350493D01*
X127906830Y-95350493D02*
X127906830Y-88809760D01*
X148534130Y-99539570D02*
X132095907Y-99539570D01*
X127906830Y-88809760D02*
X139754884Y-76961706D01*
G04 #@! TO.N,PB11*
X138169680Y-90963280D02*
X141527152Y-90963280D01*
X141527152Y-90963280D02*
X151691815Y-80798617D01*
X151691815Y-80798617D02*
X151691815Y-71148010D01*
X151691815Y-71148010D02*
X151544914Y-71001109D01*
X124819704Y-58349944D02*
X124485799Y-58016039D01*
X138810024Y-58349944D02*
X124819704Y-58349944D01*
X124485799Y-58016039D02*
X123635800Y-57166040D01*
X148009640Y-67549560D02*
X138810024Y-58349944D01*
D30*
G04 #@! TO.N,Net-(C16-Pad1)*
X151275580Y-126286200D02*
X152962140Y-126286200D01*
X152962140Y-126286200D02*
X155202420Y-124045920D01*
X194628300Y-114048480D02*
X192941740Y-114048480D01*
X192941740Y-114048480D02*
X190701460Y-116288760D01*
G04 #@! TO.N,Net-(C16-Pad2)*
X180168080Y-112488920D02*
X179192720Y-112488920D01*
X179192720Y-112488920D02*
X179177480Y-112473680D01*
X182184840Y-112488920D02*
X181224720Y-112488920D01*
X182179760Y-100464560D02*
X181163760Y-100464560D01*
X184074600Y-100444240D02*
X183139880Y-100444240D01*
X183139880Y-100444240D02*
X183129720Y-100454400D01*
X185888160Y-100454400D02*
X184994080Y-100454400D01*
X184994080Y-100454400D02*
X184983920Y-100444240D01*
X197633120Y-90279160D02*
X199517800Y-90279160D01*
X199517800Y-90279160D02*
X199533040Y-90294400D01*
X199517800Y-91833640D02*
X197648360Y-91833640D01*
X201234840Y-93571000D02*
X201234840Y-91848880D01*
X201234840Y-91848880D02*
X201250080Y-91833640D01*
X197633120Y-93586240D02*
X199451760Y-93586240D01*
X199451760Y-93586240D02*
X199487320Y-93550680D01*
X199441600Y-95064520D02*
X197633120Y-95064520D01*
X197633120Y-95064520D02*
X197617880Y-95079760D01*
X201199280Y-96888240D02*
X201199280Y-95100080D01*
X201199280Y-95100080D02*
X201219600Y-95079760D01*
X197587400Y-96867920D02*
X199441600Y-96867920D01*
X199426360Y-98381760D02*
X197602640Y-98381760D01*
X197602640Y-98381760D02*
X197587400Y-98366520D01*
X201199280Y-100169920D02*
X201199280Y-98397000D01*
X201199280Y-98397000D02*
X201184040Y-98381760D01*
X197587400Y-100154680D02*
X199426360Y-100154680D01*
X199426360Y-100154680D02*
X199441600Y-100169920D01*
X193091600Y-111792960D02*
X192268640Y-111792960D01*
X192268640Y-111792960D02*
X192258480Y-111782800D01*
X192258480Y-110898880D02*
X193086520Y-110898880D01*
X193086520Y-110898880D02*
X193101760Y-110914120D01*
X198339240Y-118386800D02*
X198339240Y-117543520D01*
X198339240Y-117543520D02*
X198329080Y-117533360D01*
X198349400Y-119992080D02*
X198349400Y-119199600D01*
X198349400Y-119199600D02*
X198339240Y-119189440D01*
X198349400Y-121612600D02*
X198349400Y-120774400D01*
X163419320Y-139844720D02*
X164465800Y-139844720D01*
X164465800Y-139844720D02*
X164470880Y-139839640D01*
X161565120Y-139849800D02*
X162499840Y-139849800D01*
X159848080Y-139824400D02*
X160737080Y-139824400D01*
X160737080Y-139824400D02*
X160767560Y-139854880D01*
X165761200Y-127845760D02*
X166665440Y-127845760D01*
X166665440Y-127845760D02*
X166690840Y-127871160D01*
X163835880Y-127845760D02*
X164780760Y-127845760D01*
X146243840Y-150030120D02*
X144526800Y-150030120D01*
X144526800Y-150030120D02*
X144506480Y-150009800D01*
X148143760Y-148475640D02*
X148143760Y-150009800D01*
X148143760Y-150009800D02*
X148123440Y-150030120D01*
X144526800Y-148475640D02*
X146304800Y-148475640D01*
X146284480Y-146697640D02*
X144547120Y-146697640D01*
X144547120Y-146697640D02*
X144526800Y-146677320D01*
X148225040Y-145229520D02*
X148225040Y-146657000D01*
X148225040Y-146657000D02*
X148184400Y-146697640D01*
X144567440Y-145209200D02*
X146325120Y-145209200D01*
X146325120Y-145209200D02*
X146345440Y-145229520D01*
X146345440Y-143492160D02*
X144587760Y-143492160D01*
X144587760Y-143492160D02*
X144567440Y-143471840D01*
X146406400Y-141958000D02*
X148204720Y-141958000D01*
X148204720Y-141958000D02*
X148245360Y-141917360D01*
X144547120Y-140200320D02*
X144547120Y-141917360D01*
X148245360Y-140139360D02*
X146386080Y-140139360D01*
X146386080Y-140139360D02*
X146365760Y-140159680D01*
X147442720Y-122765760D02*
X147442720Y-123568400D01*
X147442720Y-123568400D02*
X147452880Y-123578560D01*
X147452880Y-121190960D02*
X147452880Y-121988520D01*
X147442720Y-119585680D02*
X147442720Y-120373080D01*
X147452880Y-117833080D02*
X147452880Y-118722080D01*
X152690360Y-129420560D02*
X152690360Y-128567120D01*
X153503160Y-128567120D02*
X153503160Y-129400240D01*
X169469600Y-122252680D02*
X170391620Y-123174700D01*
X170391620Y-123174700D02*
X170391620Y-141444920D01*
X172024840Y-119697440D02*
X169469600Y-122252680D01*
X174681680Y-119697440D02*
X172024840Y-119697440D01*
X177678880Y-116700240D02*
X174681680Y-119697440D01*
X177678880Y-113763339D02*
X177678880Y-116700240D01*
X175476700Y-112763240D02*
X176678781Y-112763240D01*
X176678781Y-112763240D02*
X177678880Y-113763339D01*
G04 #@! TO.N,Net-(C17-Pad1)*
X157460480Y-126296360D02*
X157460480Y-130987740D01*
X156568940Y-126240480D02*
X156568940Y-130926780D01*
X156568940Y-130926780D02*
X156546080Y-130949640D01*
G04 #@! TO.N,Net-(C18-Pad1)*
X168461220Y-134627560D02*
X168461220Y-142054520D01*
X168461220Y-142054520D02*
X170391620Y-143984920D01*
X154607781Y-120774121D02*
X168461220Y-134627560D01*
X151941060Y-121074120D02*
X152241059Y-120774121D01*
X152241059Y-120774121D02*
X154607781Y-120774121D01*
G04 #@! TO.N,Net-(C20-Pad1)*
X189294300Y-114048480D02*
X189294300Y-109433300D01*
X189294300Y-109433300D02*
X189291760Y-109430760D01*
X188445940Y-114038320D02*
X188445940Y-109443460D01*
G04 #@! TO.N,Net-(C21-Pad1)*
X193957740Y-119296120D02*
X193657741Y-119596119D01*
X193657741Y-119596119D02*
X191339612Y-119596119D01*
X191339612Y-119596119D02*
X177457900Y-105714407D01*
X177457900Y-105714407D02*
X177457900Y-98254760D01*
X177457900Y-98254760D02*
X175517340Y-96314200D01*
D27*
G04 #@! TO.N,Net-(C1-Pad1)*
X114080080Y-128019560D02*
X114080080Y-134369560D01*
X195338160Y-49491700D02*
X194576160Y-49491700D01*
X194576160Y-49491700D02*
X192798160Y-49491700D01*
X192798160Y-49491700D02*
X191782160Y-49491700D01*
X191782160Y-49491700D02*
X190766160Y-49491700D01*
X190766160Y-49491700D02*
X181114160Y-49491700D01*
X194576160Y-46697700D02*
X194576160Y-49491700D01*
X192798160Y-47459700D02*
X192798160Y-49491700D01*
X191782160Y-47459700D02*
X191782160Y-49491700D01*
X190766160Y-47459700D02*
X190766160Y-49491700D01*
X196100160Y-49491700D02*
X195338160Y-49491700D01*
X195338160Y-49491700D02*
X195338160Y-45935714D01*
G04 #@! TO.N,VCC*
X109780080Y-135184570D02*
X111215070Y-136619560D01*
X111215070Y-136619560D02*
X112530080Y-136619560D01*
D29*
X87003410Y-49313410D02*
X87040000Y-49350000D01*
X87003410Y-45694861D02*
X87003410Y-49313410D01*
D27*
G04 #@! TO.N,Net-(D1-Pad2)*
X191782160Y-38315700D02*
X191782160Y-34759700D01*
X191782160Y-34759700D02*
X176034160Y-34759700D01*
X176034160Y-34759700D02*
X175780160Y-35013700D01*
X175780160Y-35013700D02*
X175780160Y-53047700D01*
G04 #@! TO.N,Net-(D2-Pad2)*
X179844160Y-58889700D02*
X179844160Y-57873700D01*
X186194160Y-53047700D02*
X179844160Y-53047700D01*
X188226160Y-41871700D02*
X186194160Y-41871700D01*
X179844160Y-53047700D02*
X179844160Y-57873700D01*
G04 #@! TO.N,Net-(J1-Pad1)*
X176542160Y-70823700D02*
X176539161Y-70826699D01*
X176542160Y-65493700D02*
X176542160Y-70823700D01*
X181368160Y-58381700D02*
X181368160Y-65493700D01*
X185178160Y-54571700D02*
X181368160Y-58381700D01*
X189750160Y-48475700D02*
X185178160Y-48475700D01*
X189750160Y-45427700D02*
X189750160Y-48475700D01*
X181368160Y-65493700D02*
X176542160Y-65493700D01*
G04 #@! TO.N,Net-(J1-Pad2)*
X179336160Y-70569700D02*
X179079161Y-70826699D01*
X179336160Y-67779700D02*
X179336160Y-70569700D01*
X188226160Y-42887700D02*
X187210160Y-43903700D01*
X187210160Y-43903700D02*
X187210160Y-46951700D01*
X187210160Y-51269700D02*
X187210160Y-64731700D01*
X187210160Y-64731700D02*
X184162160Y-67779700D01*
X184162160Y-67779700D02*
X179336160Y-67779700D01*
G04 #@! TO.N,Net-(J1-Pad5)*
X198894160Y-54063700D02*
X190766160Y-54063700D01*
X198894160Y-40601700D02*
X198894160Y-54063700D01*
G04 #@! TO.N,Net-(J1-Pad6)*
X198132160Y-51777700D02*
X192544160Y-51777700D01*
X197624160Y-40855700D02*
X198132160Y-41363700D01*
X198132160Y-41363700D02*
X198132160Y-51777700D01*
G04 #@! TO.N,Net-(J1-Pad7)*
X199402160Y-66763700D02*
X192036160Y-66763700D01*
G04 #@! TO.N,Net-(J1-Pad8)*
X197624160Y-62699700D02*
X194322160Y-62699700D01*
G04 #@! TO.N,Net-(R2-Pad2)*
X189242160Y-43649700D02*
X188480160Y-44411700D01*
X189242160Y-41617700D02*
X189242160Y-43649700D01*
X191528160Y-39331700D02*
X189242160Y-41617700D01*
X192544160Y-39331700D02*
X191528160Y-39331700D01*
X196862160Y-38569700D02*
X196862160Y-36583700D01*
X196862160Y-36583700D02*
X196839160Y-36560700D01*
X196862160Y-38569700D02*
X193306160Y-38569700D01*
X192544160Y-39331700D02*
X193306160Y-38569700D01*
G04 #@! TO.N,Net-(R3-Pad2)*
X188734160Y-45427700D02*
X188734160Y-47713700D01*
G04 #@! TO.N,Net-(C1-Pad2)*
X178574160Y-49491700D02*
X178574160Y-36583700D01*
X178574160Y-36583700D02*
X178597160Y-36560700D01*
D28*
G04 #@! TO.N,3.3V*
X89038015Y-96972309D02*
X89038015Y-97480309D01*
X89038015Y-97480309D02*
X87641015Y-98877309D01*
X87641015Y-98877309D02*
X83323015Y-98877309D01*
X78370015Y-98877309D02*
X76592015Y-100655309D01*
X76381614Y-100810608D02*
X75928415Y-100357409D01*
D27*
X76436716Y-100810608D02*
X76381614Y-100810608D01*
D28*
X76592015Y-100655309D02*
X76436716Y-100810608D01*
D27*
X81328415Y-98877309D02*
X81328415Y-100557409D01*
D28*
X83323015Y-98877309D02*
X81328415Y-98877309D01*
X81328415Y-98877309D02*
X78370015Y-98877309D01*
D31*
G04 #@! TO.N,/1PPS*
X93610015Y-98496309D02*
X94245015Y-98496309D01*
D27*
X80128415Y-100798330D02*
X80128415Y-100157409D01*
X82509193Y-103179108D02*
X80128415Y-100798330D01*
X89562216Y-103179108D02*
X82509193Y-103179108D01*
X94245015Y-98496309D02*
X89562216Y-103179108D01*
D32*
G04 #@! TO.N,/FIX*
X82728415Y-116357409D02*
X89728415Y-109357409D01*
X82728415Y-117757409D02*
X82728415Y-116357409D01*
X82728415Y-117757409D02*
X79328415Y-117757409D01*
D31*
G04 #@! TO.N,/VBACKUP*
X84593015Y-117546309D02*
X88403015Y-113736309D01*
X88403015Y-113736309D02*
X94245015Y-113736309D01*
X84593015Y-117546309D02*
X84593015Y-120086309D01*
X84593015Y-120086309D02*
X84656515Y-120149809D01*
G04 #@! TO.N,Net-(B1-Pad+$1)*
X69226015Y-116881709D02*
X69226015Y-118371809D01*
X69226015Y-118371809D02*
X71575515Y-120721309D01*
X71575515Y-120721309D02*
X81354515Y-120721309D01*
X69226015Y-116881709D02*
X66846915Y-116881709D01*
X66846915Y-116881709D02*
X62431515Y-112466309D01*
X62431515Y-112466309D02*
X62431515Y-105290809D01*
X62431515Y-105290809D02*
X67291415Y-100430909D01*
X67291415Y-100430909D02*
X69226015Y-100430909D01*
X81354515Y-120721309D02*
X81862515Y-120213309D01*
X81862515Y-120213309D02*
X81862515Y-120149809D01*
D27*
G04 #@! TO.N,VDD*
X133600000Y-135500000D02*
X133600000Y-139825000D01*
X135975000Y-133125000D02*
X133600000Y-135500000D01*
D29*
G04 #@! TO.N,/D4*
X84463410Y-49313410D02*
X84500000Y-49350000D01*
X84463410Y-45694861D02*
X84463410Y-49313410D01*
G04 #@! TO.N,/D3*
X92083410Y-49313410D02*
X92120000Y-49350000D01*
X92083410Y-45694861D02*
X92083410Y-49313410D01*
G04 #@! TD*
D28*
G04 #@! TO.N,GND*
G36*
X65386114Y-44441764D02*
X65282618Y-44545260D01*
X65085258Y-44840631D01*
X64949314Y-45168829D01*
X64880010Y-45517242D01*
X64880010Y-45872480D01*
X64949314Y-46220893D01*
X65085258Y-46549091D01*
X65282618Y-46844462D01*
X65533809Y-47095653D01*
X65621800Y-47154447D01*
X65621800Y-47886497D01*
X65555724Y-47940724D01*
X65360630Y-48178448D01*
X65215661Y-48449664D01*
X65126390Y-48743951D01*
X65096247Y-49050000D01*
X65126390Y-49356049D01*
X65215661Y-49650336D01*
X65360630Y-49921552D01*
X65430816Y-50007074D01*
X58854179Y-50021098D01*
X58849864Y-44597578D01*
X58936410Y-44606102D01*
X59443158Y-44606102D01*
X59475067Y-44619319D01*
X59774407Y-44678861D01*
X60079613Y-44678861D01*
X60378953Y-44619319D01*
X60410862Y-44606102D01*
X63000410Y-44606102D01*
X63139830Y-44592370D01*
X63273891Y-44551703D01*
X63397443Y-44485663D01*
X63505737Y-44396788D01*
X63594612Y-44288494D01*
X63660652Y-44164942D01*
X63681972Y-44094661D01*
X65039013Y-44094661D01*
X65386114Y-44441764D01*
X65386114Y-44441764D01*
G37*
X65386114Y-44441764D02*
X65282618Y-44545260D01*
X65085258Y-44840631D01*
X64949314Y-45168829D01*
X64880010Y-45517242D01*
X64880010Y-45872480D01*
X64949314Y-46220893D01*
X65085258Y-46549091D01*
X65282618Y-46844462D01*
X65533809Y-47095653D01*
X65621800Y-47154447D01*
X65621800Y-47886497D01*
X65555724Y-47940724D01*
X65360630Y-48178448D01*
X65215661Y-48449664D01*
X65126390Y-48743951D01*
X65096247Y-49050000D01*
X65126390Y-49356049D01*
X65215661Y-49650336D01*
X65360630Y-49921552D01*
X65430816Y-50007074D01*
X58854179Y-50021098D01*
X58849864Y-44597578D01*
X58936410Y-44606102D01*
X59443158Y-44606102D01*
X59475067Y-44619319D01*
X59774407Y-44678861D01*
X60079613Y-44678861D01*
X60378953Y-44619319D01*
X60410862Y-44606102D01*
X63000410Y-44606102D01*
X63139830Y-44592370D01*
X63273891Y-44551703D01*
X63397443Y-44485663D01*
X63505737Y-44396788D01*
X63594612Y-44288494D01*
X63660652Y-44164942D01*
X63681972Y-44094661D01*
X65039013Y-44094661D01*
X65386114Y-44441764D01*
G36*
X70046800Y-44682743D02*
X70046800Y-49997232D01*
X67903511Y-50001802D01*
X67969370Y-49921552D01*
X68114339Y-49650336D01*
X68203610Y-49356049D01*
X68233753Y-49050000D01*
X68203610Y-48743951D01*
X68114339Y-48449664D01*
X67969370Y-48178448D01*
X67774276Y-47940724D01*
X67753200Y-47923427D01*
X67753200Y-47148981D01*
X67833011Y-47095653D01*
X68084202Y-46844462D01*
X68281562Y-46549091D01*
X68417506Y-46220893D01*
X68486810Y-45872480D01*
X68486810Y-45517242D01*
X68417506Y-45168829D01*
X68281562Y-44840631D01*
X68084202Y-44545260D01*
X67833011Y-44294069D01*
X67625770Y-44155595D01*
X67579453Y-44002908D01*
X67489827Y-43835230D01*
X67369212Y-43688259D01*
X67332379Y-43658032D01*
X66154848Y-42480502D01*
X66124612Y-42443659D01*
X65977641Y-42323044D01*
X65809963Y-42233418D01*
X65628022Y-42178227D01*
X65486225Y-42164261D01*
X65486222Y-42164261D01*
X65438810Y-42159591D01*
X65391398Y-42164261D01*
X63681972Y-42164261D01*
X63660652Y-42093980D01*
X63594612Y-41970428D01*
X63505737Y-41862134D01*
X63397443Y-41773259D01*
X63273891Y-41707219D01*
X63139830Y-41666552D01*
X63000410Y-41652820D01*
X60410862Y-41652820D01*
X60378953Y-41639603D01*
X60079613Y-41580061D01*
X59774407Y-41580061D01*
X59475067Y-41639603D01*
X59443158Y-41652820D01*
X58936410Y-41652820D01*
X58847528Y-41661574D01*
X58846229Y-40029521D01*
X65480513Y-40005571D01*
X70046800Y-44682743D01*
X70046800Y-44682743D01*
G37*
X70046800Y-44682743D02*
X70046800Y-49997232D01*
X67903511Y-50001802D01*
X67969370Y-49921552D01*
X68114339Y-49650336D01*
X68203610Y-49356049D01*
X68233753Y-49050000D01*
X68203610Y-48743951D01*
X68114339Y-48449664D01*
X67969370Y-48178448D01*
X67774276Y-47940724D01*
X67753200Y-47923427D01*
X67753200Y-47148981D01*
X67833011Y-47095653D01*
X68084202Y-46844462D01*
X68281562Y-46549091D01*
X68417506Y-46220893D01*
X68486810Y-45872480D01*
X68486810Y-45517242D01*
X68417506Y-45168829D01*
X68281562Y-44840631D01*
X68084202Y-44545260D01*
X67833011Y-44294069D01*
X67625770Y-44155595D01*
X67579453Y-44002908D01*
X67489827Y-43835230D01*
X67369212Y-43688259D01*
X67332379Y-43658032D01*
X66154848Y-42480502D01*
X66124612Y-42443659D01*
X65977641Y-42323044D01*
X65809963Y-42233418D01*
X65628022Y-42178227D01*
X65486225Y-42164261D01*
X65486222Y-42164261D01*
X65438810Y-42159591D01*
X65391398Y-42164261D01*
X63681972Y-42164261D01*
X63660652Y-42093980D01*
X63594612Y-41970428D01*
X63505737Y-41862134D01*
X63397443Y-41773259D01*
X63273891Y-41707219D01*
X63139830Y-41666552D01*
X63000410Y-41652820D01*
X60410862Y-41652820D01*
X60378953Y-41639603D01*
X60079613Y-41580061D01*
X59774407Y-41580061D01*
X59475067Y-41639603D01*
X59443158Y-41652820D01*
X58936410Y-41652820D01*
X58847528Y-41661574D01*
X58846229Y-40029521D01*
X65480513Y-40005571D01*
X70046800Y-44682743D01*
D31*
G36*
X66507750Y-117189123D02*
X66522062Y-117206562D01*
X66539501Y-117220874D01*
X66539507Y-117220880D01*
X66591679Y-117263696D01*
X66671105Y-117306150D01*
X66757288Y-117332294D01*
X66824455Y-117338909D01*
X66824463Y-117338909D01*
X66846915Y-117341120D01*
X66869367Y-117338909D01*
X67294218Y-117338909D01*
X67294218Y-118481709D01*
X67300593Y-118546439D01*
X67319475Y-118608682D01*
X67350136Y-118666046D01*
X67391399Y-118716325D01*
X67441678Y-118757588D01*
X67499042Y-118788249D01*
X67561285Y-118807131D01*
X67626015Y-118813506D01*
X69021135Y-118813506D01*
X71158736Y-120951109D01*
X64546832Y-120951109D01*
X64112743Y-120908546D01*
X63714249Y-120788234D01*
X63346711Y-120592812D01*
X63024130Y-120329721D01*
X62758799Y-120008990D01*
X62560813Y-119642824D01*
X62479015Y-119378577D01*
X62479015Y-118626201D01*
X62596815Y-118626201D01*
X62596815Y-119006417D01*
X62670992Y-119379327D01*
X62816494Y-119730601D01*
X63027731Y-120046740D01*
X63296584Y-120315593D01*
X63612723Y-120526830D01*
X63963997Y-120672332D01*
X64336907Y-120746509D01*
X64717123Y-120746509D01*
X65090033Y-120672332D01*
X65441307Y-120526830D01*
X65757446Y-120315593D01*
X66026299Y-120046740D01*
X66237536Y-119730601D01*
X66383038Y-119379327D01*
X66457215Y-119006417D01*
X66457215Y-118626201D01*
X66383038Y-118253291D01*
X66237536Y-117902017D01*
X66026299Y-117585878D01*
X65757446Y-117317025D01*
X65441307Y-117105788D01*
X65090033Y-116960286D01*
X64717123Y-116886109D01*
X64336907Y-116886109D01*
X63963997Y-116960286D01*
X63612723Y-117105788D01*
X63296584Y-117317025D01*
X63027731Y-117585878D01*
X62816494Y-117902017D01*
X62670992Y-118253291D01*
X62596815Y-118626201D01*
X62479015Y-118626201D01*
X62479015Y-113160386D01*
X66507750Y-117189123D01*
X66507750Y-117189123D01*
G37*
X66507750Y-117189123D02*
X66522062Y-117206562D01*
X66539501Y-117220874D01*
X66539507Y-117220880D01*
X66591679Y-117263696D01*
X66671105Y-117306150D01*
X66757288Y-117332294D01*
X66824455Y-117338909D01*
X66824463Y-117338909D01*
X66846915Y-117341120D01*
X66869367Y-117338909D01*
X67294218Y-117338909D01*
X67294218Y-118481709D01*
X67300593Y-118546439D01*
X67319475Y-118608682D01*
X67350136Y-118666046D01*
X67391399Y-118716325D01*
X67441678Y-118757588D01*
X67499042Y-118788249D01*
X67561285Y-118807131D01*
X67626015Y-118813506D01*
X69021135Y-118813506D01*
X71158736Y-120951109D01*
X64546832Y-120951109D01*
X64112743Y-120908546D01*
X63714249Y-120788234D01*
X63346711Y-120592812D01*
X63024130Y-120329721D01*
X62758799Y-120008990D01*
X62560813Y-119642824D01*
X62479015Y-119378577D01*
X62479015Y-118626201D01*
X62596815Y-118626201D01*
X62596815Y-119006417D01*
X62670992Y-119379327D01*
X62816494Y-119730601D01*
X63027731Y-120046740D01*
X63296584Y-120315593D01*
X63612723Y-120526830D01*
X63963997Y-120672332D01*
X64336907Y-120746509D01*
X64717123Y-120746509D01*
X65090033Y-120672332D01*
X65441307Y-120526830D01*
X65757446Y-120315593D01*
X66026299Y-120046740D01*
X66237536Y-119730601D01*
X66383038Y-119379327D01*
X66457215Y-119006417D01*
X66457215Y-118626201D01*
X66383038Y-118253291D01*
X66237536Y-117902017D01*
X66026299Y-117585878D01*
X65757446Y-117317025D01*
X65441307Y-117105788D01*
X65090033Y-116960286D01*
X64717123Y-116886109D01*
X64336907Y-116886109D01*
X63963997Y-116960286D01*
X63612723Y-117105788D01*
X63296584Y-117317025D01*
X63027731Y-117585878D01*
X62816494Y-117902017D01*
X62670992Y-118253291D01*
X62596815Y-118626201D01*
X62479015Y-118626201D01*
X62479015Y-113160386D01*
X66507750Y-117189123D01*
G36*
X88538626Y-96363802D02*
X88429508Y-96472920D01*
X88343775Y-96601230D01*
X88284720Y-96743800D01*
X88254615Y-96895151D01*
X88254615Y-97049467D01*
X88284720Y-97200818D01*
X88343775Y-97343388D01*
X88374544Y-97389438D01*
X87420074Y-98343909D01*
X78396209Y-98343909D01*
X78370015Y-98341329D01*
X78343821Y-98343909D01*
X78343820Y-98343909D01*
X78265450Y-98351628D01*
X78164904Y-98382128D01*
X78072240Y-98431658D01*
X77991020Y-98498314D01*
X77974322Y-98518661D01*
X76576191Y-99916792D01*
X76536922Y-99858020D01*
X76427804Y-99748902D01*
X76299494Y-99663169D01*
X76156924Y-99604114D01*
X76005573Y-99574009D01*
X75851257Y-99574009D01*
X75699906Y-99604114D01*
X75557336Y-99663169D01*
X75429026Y-99748902D01*
X75319908Y-99858020D01*
X75234175Y-99986330D01*
X75175120Y-100128900D01*
X75145015Y-100280251D01*
X75145015Y-100434567D01*
X75175120Y-100585918D01*
X75234175Y-100728488D01*
X75319908Y-100856798D01*
X75429026Y-100965916D01*
X75557336Y-101051649D01*
X75699906Y-101110704D01*
X75851257Y-101140809D01*
X75957473Y-101140809D01*
X76022965Y-101206301D01*
X76083839Y-101256259D01*
X76176503Y-101305789D01*
X76277049Y-101336289D01*
X76381613Y-101346587D01*
X76409165Y-101343874D01*
X76436716Y-101346587D01*
X76541280Y-101336289D01*
X76641826Y-101305789D01*
X76734489Y-101256259D01*
X76795364Y-101206301D01*
X78590956Y-99410709D01*
X79883984Y-99410709D01*
X79757336Y-99463169D01*
X79629026Y-99548902D01*
X79519908Y-99658020D01*
X79434175Y-99786330D01*
X79375120Y-99928900D01*
X79345015Y-100080251D01*
X79345015Y-100234567D01*
X79375120Y-100385918D01*
X79434175Y-100528488D01*
X79519908Y-100656798D01*
X79629026Y-100765916D01*
X79671417Y-100794240D01*
X79671014Y-100798330D01*
X79673215Y-100820679D01*
X79673215Y-100820686D01*
X79679802Y-100887564D01*
X79705831Y-100973369D01*
X79748099Y-101052448D01*
X79804983Y-101121762D01*
X79822354Y-101136018D01*
X82171509Y-103485174D01*
X82185761Y-103502540D01*
X82203126Y-103516791D01*
X82203127Y-103516792D01*
X82255074Y-103559424D01*
X82334153Y-103601692D01*
X82419958Y-103627721D01*
X82509193Y-103636510D01*
X82531550Y-103634308D01*
X89539867Y-103634308D01*
X89562216Y-103636509D01*
X89584565Y-103634308D01*
X89584573Y-103634308D01*
X89651451Y-103627721D01*
X89737256Y-103601692D01*
X89816335Y-103559424D01*
X89885648Y-103502540D01*
X89899904Y-103485169D01*
X92468845Y-100916228D01*
X93025815Y-100916228D01*
X93025815Y-101156390D01*
X93072668Y-101391936D01*
X93164574Y-101613817D01*
X93298001Y-101813504D01*
X93467820Y-101983323D01*
X93667507Y-102116750D01*
X93889388Y-102208656D01*
X94124934Y-102255509D01*
X94365096Y-102255509D01*
X94600642Y-102208656D01*
X94822523Y-102116750D01*
X95022210Y-101983323D01*
X95192029Y-101813504D01*
X95325456Y-101613817D01*
X95417362Y-101391936D01*
X95464215Y-101156390D01*
X95464215Y-100916228D01*
X95417362Y-100680682D01*
X95325456Y-100458801D01*
X95192029Y-100259114D01*
X95022210Y-100089295D01*
X94822523Y-99955868D01*
X94600642Y-99863962D01*
X94365096Y-99817109D01*
X94124934Y-99817109D01*
X93889388Y-99863962D01*
X93667507Y-99955868D01*
X93467820Y-100089295D01*
X93298001Y-100259114D01*
X93164574Y-100458801D01*
X93072668Y-100680682D01*
X93025815Y-100916228D01*
X92468845Y-100916228D01*
X93767080Y-99617994D01*
X93889388Y-99668656D01*
X94124934Y-99715509D01*
X94365096Y-99715509D01*
X94600642Y-99668656D01*
X94822523Y-99576750D01*
X95022210Y-99443323D01*
X95192029Y-99273504D01*
X95325456Y-99073817D01*
X95417362Y-98851936D01*
X95464215Y-98616390D01*
X95464215Y-98376228D01*
X95417362Y-98140682D01*
X95325456Y-97918801D01*
X95192029Y-97719114D01*
X95022210Y-97549295D01*
X94822523Y-97415868D01*
X94600642Y-97323962D01*
X94365096Y-97277109D01*
X94124934Y-97277109D01*
X93889388Y-97323962D01*
X93667507Y-97415868D01*
X93467820Y-97549295D01*
X93298001Y-97719114D01*
X93164574Y-97918801D01*
X93072668Y-98140682D01*
X93025815Y-98376228D01*
X93025815Y-98616390D01*
X93072668Y-98851936D01*
X93123330Y-98974244D01*
X89373667Y-102723908D01*
X82697743Y-102723908D01*
X81314643Y-101340809D01*
X81405573Y-101340809D01*
X81556924Y-101310704D01*
X81699494Y-101251649D01*
X81827804Y-101165916D01*
X81936922Y-101056798D01*
X82022655Y-100928488D01*
X82081710Y-100785918D01*
X82111815Y-100634567D01*
X82111815Y-100480251D01*
X82081710Y-100328900D01*
X82022655Y-100186330D01*
X81936922Y-100058020D01*
X81827804Y-99948902D01*
X81783615Y-99919376D01*
X81783615Y-99816151D01*
X89778615Y-99816151D01*
X89778615Y-99970467D01*
X89808720Y-100121818D01*
X89867775Y-100264388D01*
X89953508Y-100392698D01*
X90062626Y-100501816D01*
X90190936Y-100587549D01*
X90333506Y-100646604D01*
X90484857Y-100676709D01*
X90639173Y-100676709D01*
X90790524Y-100646604D01*
X90933094Y-100587549D01*
X91061404Y-100501816D01*
X91170522Y-100392698D01*
X91256255Y-100264388D01*
X91315310Y-100121818D01*
X91345415Y-99970467D01*
X91345415Y-99816151D01*
X91315310Y-99664800D01*
X91256255Y-99522230D01*
X91170522Y-99393920D01*
X91061404Y-99284802D01*
X90933094Y-99199069D01*
X90790524Y-99140014D01*
X90639173Y-99109909D01*
X90484857Y-99109909D01*
X90333506Y-99140014D01*
X90190936Y-99199069D01*
X90062626Y-99284802D01*
X89953508Y-99393920D01*
X89867775Y-99522230D01*
X89808720Y-99664800D01*
X89778615Y-99816151D01*
X81783615Y-99816151D01*
X81783615Y-99410709D01*
X87614828Y-99410709D01*
X87641015Y-99413288D01*
X87667202Y-99410709D01*
X87667210Y-99410709D01*
X87745580Y-99402990D01*
X87846126Y-99372490D01*
X87938790Y-99322960D01*
X88020010Y-99256304D01*
X88036710Y-99235955D01*
X89396666Y-97876000D01*
X89417010Y-97859304D01*
X89483666Y-97778084D01*
X89533196Y-97685420D01*
X89563696Y-97584874D01*
X89567012Y-97551208D01*
X89646522Y-97471698D01*
X89732255Y-97343388D01*
X89791310Y-97200818D01*
X89821415Y-97049467D01*
X89821415Y-96895151D01*
X89791310Y-96743800D01*
X89732255Y-96601230D01*
X89646522Y-96472920D01*
X89537404Y-96363802D01*
X89533972Y-96361509D01*
X93717198Y-96361509D01*
X94151289Y-96404072D01*
X94549785Y-96524385D01*
X94917318Y-96719806D01*
X95239900Y-96982897D01*
X95505232Y-97303629D01*
X95703216Y-97669790D01*
X95826309Y-98067441D01*
X95871815Y-98500400D01*
X95871816Y-118796482D01*
X95829252Y-119230581D01*
X95708940Y-119629075D01*
X95513518Y-119996613D01*
X95250427Y-120319194D01*
X94929696Y-120584525D01*
X94563530Y-120782511D01*
X94165883Y-120905603D01*
X93732924Y-120951109D01*
X81771292Y-120951109D01*
X81789192Y-120933209D01*
X81939673Y-120933209D01*
X82091024Y-120903104D01*
X82233594Y-120844049D01*
X82361904Y-120758316D01*
X82471022Y-120649198D01*
X82556755Y-120520888D01*
X82615810Y-120378318D01*
X82645915Y-120226967D01*
X82645915Y-120072651D01*
X83873115Y-120072651D01*
X83873115Y-120226967D01*
X83903220Y-120378318D01*
X83962275Y-120520888D01*
X84048008Y-120649198D01*
X84157126Y-120758316D01*
X84285436Y-120844049D01*
X84428006Y-120903104D01*
X84579357Y-120933209D01*
X84733673Y-120933209D01*
X84885024Y-120903104D01*
X85027594Y-120844049D01*
X85155904Y-120758316D01*
X85265022Y-120649198D01*
X85350755Y-120520888D01*
X85409810Y-120378318D01*
X85439915Y-120226967D01*
X85439915Y-120072651D01*
X85409810Y-119921300D01*
X85350755Y-119778730D01*
X85265022Y-119650420D01*
X85155904Y-119541302D01*
X85050215Y-119470684D01*
X85050215Y-118696228D01*
X93025815Y-118696228D01*
X93025815Y-118936390D01*
X93072668Y-119171936D01*
X93164574Y-119393817D01*
X93298001Y-119593504D01*
X93467820Y-119763323D01*
X93667507Y-119896750D01*
X93889388Y-119988656D01*
X94124934Y-120035509D01*
X94365096Y-120035509D01*
X94600642Y-119988656D01*
X94822523Y-119896750D01*
X95022210Y-119763323D01*
X95192029Y-119593504D01*
X95325456Y-119393817D01*
X95417362Y-119171936D01*
X95464215Y-118936390D01*
X95464215Y-118696228D01*
X95417362Y-118460682D01*
X95325456Y-118238801D01*
X95192029Y-118039114D01*
X95022210Y-117869295D01*
X94822523Y-117735868D01*
X94600642Y-117643962D01*
X94365096Y-117597109D01*
X94124934Y-117597109D01*
X93889388Y-117643962D01*
X93667507Y-117735868D01*
X93467820Y-117869295D01*
X93298001Y-118039114D01*
X93164574Y-118238801D01*
X93072668Y-118460682D01*
X93025815Y-118696228D01*
X85050215Y-118696228D01*
X85050215Y-117735686D01*
X86629673Y-116156228D01*
X93025815Y-116156228D01*
X93025815Y-116396390D01*
X93072668Y-116631936D01*
X93164574Y-116853817D01*
X93298001Y-117053504D01*
X93467820Y-117223323D01*
X93667507Y-117356750D01*
X93889388Y-117448656D01*
X94124934Y-117495509D01*
X94365096Y-117495509D01*
X94600642Y-117448656D01*
X94822523Y-117356750D01*
X95022210Y-117223323D01*
X95192029Y-117053504D01*
X95325456Y-116853817D01*
X95417362Y-116631936D01*
X95464215Y-116396390D01*
X95464215Y-116156228D01*
X95417362Y-115920682D01*
X95325456Y-115698801D01*
X95192029Y-115499114D01*
X95022210Y-115329295D01*
X94822523Y-115195868D01*
X94600642Y-115103962D01*
X94365096Y-115057109D01*
X94124934Y-115057109D01*
X93889388Y-115103962D01*
X93667507Y-115195868D01*
X93467820Y-115329295D01*
X93298001Y-115499114D01*
X93164574Y-115698801D01*
X93072668Y-115920682D01*
X93025815Y-116156228D01*
X86629673Y-116156228D01*
X88592394Y-114193509D01*
X93114741Y-114193509D01*
X93164574Y-114313817D01*
X93298001Y-114513504D01*
X93467820Y-114683323D01*
X93667507Y-114816750D01*
X93889388Y-114908656D01*
X94124934Y-114955509D01*
X94365096Y-114955509D01*
X94600642Y-114908656D01*
X94822523Y-114816750D01*
X95022210Y-114683323D01*
X95192029Y-114513504D01*
X95325456Y-114313817D01*
X95417362Y-114091936D01*
X95464215Y-113856390D01*
X95464215Y-113616228D01*
X95417362Y-113380682D01*
X95325456Y-113158801D01*
X95192029Y-112959114D01*
X95022210Y-112789295D01*
X94822523Y-112655868D01*
X94600642Y-112563962D01*
X94365096Y-112517109D01*
X94124934Y-112517109D01*
X93889388Y-112563962D01*
X93667507Y-112655868D01*
X93467820Y-112789295D01*
X93298001Y-112959114D01*
X93164574Y-113158801D01*
X93114741Y-113279109D01*
X88425465Y-113279109D01*
X88403015Y-113276898D01*
X88380565Y-113279109D01*
X88380555Y-113279109D01*
X88313388Y-113285724D01*
X88247264Y-113305783D01*
X88227205Y-113311868D01*
X88147779Y-113354322D01*
X88095607Y-113397138D01*
X88095601Y-113397144D01*
X88078162Y-113411456D01*
X88063850Y-113428895D01*
X84285612Y-117207135D01*
X84268162Y-117221456D01*
X84211028Y-117291074D01*
X84168574Y-117370501D01*
X84142430Y-117456683D01*
X84135815Y-117523850D01*
X84135815Y-117523859D01*
X84133604Y-117546309D01*
X84135815Y-117568759D01*
X84135816Y-119562612D01*
X84048008Y-119650420D01*
X83962275Y-119778730D01*
X83903220Y-119921300D01*
X83873115Y-120072651D01*
X82645915Y-120072651D01*
X82615810Y-119921300D01*
X82556755Y-119778730D01*
X82471022Y-119650420D01*
X82361904Y-119541302D01*
X82233594Y-119455569D01*
X82091024Y-119396514D01*
X81939673Y-119366409D01*
X81785357Y-119366409D01*
X81634006Y-119396514D01*
X81491436Y-119455569D01*
X81363126Y-119541302D01*
X81254008Y-119650420D01*
X81168275Y-119778730D01*
X81109220Y-119921300D01*
X81079115Y-120072651D01*
X81079115Y-120226967D01*
X81086503Y-120264109D01*
X71764894Y-120264109D01*
X70314290Y-118813506D01*
X70826015Y-118813506D01*
X70890745Y-118807131D01*
X70952988Y-118788249D01*
X71010352Y-118757588D01*
X71060631Y-118716325D01*
X71101894Y-118666046D01*
X71132555Y-118608682D01*
X71151437Y-118546439D01*
X71157812Y-118481709D01*
X71157812Y-117680251D01*
X78545015Y-117680251D01*
X78545015Y-117834567D01*
X78575120Y-117985918D01*
X78634175Y-118128488D01*
X78719908Y-118256798D01*
X78829026Y-118365916D01*
X78957336Y-118451649D01*
X79099906Y-118510704D01*
X79251257Y-118540809D01*
X79405573Y-118540809D01*
X79556924Y-118510704D01*
X79699494Y-118451649D01*
X79827804Y-118365916D01*
X79903111Y-118290609D01*
X82702230Y-118290609D01*
X82728415Y-118293188D01*
X82754599Y-118290609D01*
X82754600Y-118290609D01*
X82832940Y-118282893D01*
X82933449Y-118252404D01*
X83026078Y-118202893D01*
X83107268Y-118136262D01*
X83173899Y-118055072D01*
X83223410Y-117962443D01*
X83253899Y-117861934D01*
X83264194Y-117757409D01*
X83261615Y-117731224D01*
X83261615Y-116578266D01*
X88763653Y-111076228D01*
X93025815Y-111076228D01*
X93025815Y-111316390D01*
X93072668Y-111551936D01*
X93164574Y-111773817D01*
X93298001Y-111973504D01*
X93467820Y-112143323D01*
X93667507Y-112276750D01*
X93889388Y-112368656D01*
X94124934Y-112415509D01*
X94365096Y-112415509D01*
X94600642Y-112368656D01*
X94822523Y-112276750D01*
X95022210Y-112143323D01*
X95192029Y-111973504D01*
X95325456Y-111773817D01*
X95417362Y-111551936D01*
X95464215Y-111316390D01*
X95464215Y-111076228D01*
X95417362Y-110840682D01*
X95325456Y-110618801D01*
X95192029Y-110419114D01*
X95022210Y-110249295D01*
X94822523Y-110115868D01*
X94600642Y-110023962D01*
X94365096Y-109977109D01*
X94124934Y-109977109D01*
X93889388Y-110023962D01*
X93667507Y-110115868D01*
X93467820Y-110249295D01*
X93298001Y-110419114D01*
X93164574Y-110618801D01*
X93072668Y-110840682D01*
X93025815Y-111076228D01*
X88763653Y-111076228D01*
X89699073Y-110140809D01*
X89805573Y-110140809D01*
X89956924Y-110110704D01*
X90099494Y-110051649D01*
X90227804Y-109965916D01*
X90336922Y-109856798D01*
X90422655Y-109728488D01*
X90481710Y-109585918D01*
X90511815Y-109434567D01*
X90511815Y-109280251D01*
X90481710Y-109128900D01*
X90422655Y-108986330D01*
X90336922Y-108858020D01*
X90227804Y-108748902D01*
X90099494Y-108663169D01*
X89956924Y-108604114D01*
X89805573Y-108574009D01*
X89651257Y-108574009D01*
X89499906Y-108604114D01*
X89357336Y-108663169D01*
X89229026Y-108748902D01*
X89119908Y-108858020D01*
X89034175Y-108986330D01*
X88975120Y-109128900D01*
X88945015Y-109280251D01*
X88945015Y-109386751D01*
X82369906Y-115961861D01*
X82349563Y-115978556D01*
X82282932Y-116059746D01*
X82256467Y-116109258D01*
X82233420Y-116152376D01*
X82202931Y-116252884D01*
X82192636Y-116357409D01*
X82195216Y-116383603D01*
X82195215Y-117224209D01*
X79903111Y-117224209D01*
X79827804Y-117148902D01*
X79699494Y-117063169D01*
X79556924Y-117004114D01*
X79405573Y-116974009D01*
X79251257Y-116974009D01*
X79099906Y-117004114D01*
X78957336Y-117063169D01*
X78829026Y-117148902D01*
X78719908Y-117258020D01*
X78634175Y-117386330D01*
X78575120Y-117528900D01*
X78545015Y-117680251D01*
X71157812Y-117680251D01*
X71157812Y-115281709D01*
X71151437Y-115216979D01*
X71132555Y-115154736D01*
X71101894Y-115097372D01*
X71060631Y-115047093D01*
X71010352Y-115005830D01*
X70952988Y-114975169D01*
X70890745Y-114956287D01*
X70826015Y-114949912D01*
X67626015Y-114949912D01*
X67561285Y-114956287D01*
X67499042Y-114975169D01*
X67441678Y-115005830D01*
X67391399Y-115047093D01*
X67350136Y-115097372D01*
X67319475Y-115154736D01*
X67300593Y-115216979D01*
X67294218Y-115281709D01*
X67294218Y-116424509D01*
X67036294Y-116424509D01*
X62888715Y-112276932D01*
X62888715Y-109784050D01*
X76720815Y-109784050D01*
X76720815Y-110144568D01*
X76791148Y-110498159D01*
X76929112Y-110831234D01*
X77129405Y-111130994D01*
X77384330Y-111385919D01*
X77684090Y-111586212D01*
X78017165Y-111724176D01*
X78370756Y-111794509D01*
X78731274Y-111794509D01*
X79084865Y-111724176D01*
X79417940Y-111586212D01*
X79717700Y-111385919D01*
X79972625Y-111130994D01*
X80172918Y-110831234D01*
X80310882Y-110498159D01*
X80381215Y-110144568D01*
X80381215Y-109784050D01*
X80310882Y-109430459D01*
X80172918Y-109097384D01*
X79972625Y-108797624D01*
X79717700Y-108542699D01*
X79708016Y-108536228D01*
X93025815Y-108536228D01*
X93025815Y-108776390D01*
X93072668Y-109011936D01*
X93164574Y-109233817D01*
X93298001Y-109433504D01*
X93467820Y-109603323D01*
X93667507Y-109736750D01*
X93889388Y-109828656D01*
X94124934Y-109875509D01*
X94365096Y-109875509D01*
X94600642Y-109828656D01*
X94822523Y-109736750D01*
X95022210Y-109603323D01*
X95192029Y-109433504D01*
X95325456Y-109233817D01*
X95417362Y-109011936D01*
X95464215Y-108776390D01*
X95464215Y-108536228D01*
X95417362Y-108300682D01*
X95325456Y-108078801D01*
X95192029Y-107879114D01*
X95022210Y-107709295D01*
X94822523Y-107575868D01*
X94600642Y-107483962D01*
X94365096Y-107437109D01*
X94124934Y-107437109D01*
X93889388Y-107483962D01*
X93667507Y-107575868D01*
X93467820Y-107709295D01*
X93298001Y-107879114D01*
X93164574Y-108078801D01*
X93072668Y-108300682D01*
X93025815Y-108536228D01*
X79708016Y-108536228D01*
X79417940Y-108342406D01*
X79084865Y-108204442D01*
X78731274Y-108134109D01*
X78370756Y-108134109D01*
X78017165Y-108204442D01*
X77684090Y-108342406D01*
X77384330Y-108542699D01*
X77129405Y-108797624D01*
X76929112Y-109097384D01*
X76791148Y-109430459D01*
X76720815Y-109784050D01*
X62888715Y-109784050D01*
X62888715Y-105996228D01*
X93025815Y-105996228D01*
X93025815Y-106236390D01*
X93072668Y-106471936D01*
X93164574Y-106693817D01*
X93298001Y-106893504D01*
X93467820Y-107063323D01*
X93667507Y-107196750D01*
X93889388Y-107288656D01*
X94124934Y-107335509D01*
X94365096Y-107335509D01*
X94600642Y-107288656D01*
X94822523Y-107196750D01*
X95022210Y-107063323D01*
X95192029Y-106893504D01*
X95325456Y-106693817D01*
X95417362Y-106471936D01*
X95464215Y-106236390D01*
X95464215Y-105996228D01*
X95417362Y-105760682D01*
X95325456Y-105538801D01*
X95192029Y-105339114D01*
X95022210Y-105169295D01*
X94822523Y-105035868D01*
X94600642Y-104943962D01*
X94365096Y-104897109D01*
X94124934Y-104897109D01*
X93889388Y-104943962D01*
X93667507Y-105035868D01*
X93467820Y-105169295D01*
X93298001Y-105339114D01*
X93164574Y-105538801D01*
X93072668Y-105760682D01*
X93025815Y-105996228D01*
X62888715Y-105996228D01*
X62888715Y-105480186D01*
X67294218Y-101074684D01*
X67294218Y-102030909D01*
X67300593Y-102095639D01*
X67319475Y-102157882D01*
X67350136Y-102215246D01*
X67391399Y-102265525D01*
X67441678Y-102306788D01*
X67499042Y-102337449D01*
X67561285Y-102356331D01*
X67626015Y-102362706D01*
X70826015Y-102362706D01*
X70890745Y-102356331D01*
X70952988Y-102337449D01*
X71010352Y-102306788D01*
X71060631Y-102265525D01*
X71101894Y-102215246D01*
X71132555Y-102157882D01*
X71151437Y-102095639D01*
X71157812Y-102030909D01*
X71157812Y-98830909D01*
X71151437Y-98766179D01*
X71132555Y-98703936D01*
X71101894Y-98646572D01*
X71060631Y-98596293D01*
X71010352Y-98555030D01*
X70952988Y-98524369D01*
X70890745Y-98505487D01*
X70826015Y-98499112D01*
X67626015Y-98499112D01*
X67561285Y-98505487D01*
X67499042Y-98524369D01*
X67441678Y-98555030D01*
X67391399Y-98596293D01*
X67350136Y-98646572D01*
X67319475Y-98703936D01*
X67300593Y-98766179D01*
X67294218Y-98830909D01*
X67294218Y-99971774D01*
X67291414Y-99971498D01*
X67268964Y-99973709D01*
X67268955Y-99973709D01*
X67201788Y-99980324D01*
X67115606Y-100006468D01*
X67078632Y-100026231D01*
X67036178Y-100048922D01*
X66998005Y-100080251D01*
X66966562Y-100106056D01*
X66952245Y-100123501D01*
X62479015Y-104596732D01*
X62479015Y-98306201D01*
X62596815Y-98306201D01*
X62596815Y-98686417D01*
X62670992Y-99059327D01*
X62816494Y-99410601D01*
X63027731Y-99726740D01*
X63296584Y-99995593D01*
X63612723Y-100206830D01*
X63963997Y-100352332D01*
X64336907Y-100426509D01*
X64717123Y-100426509D01*
X65090033Y-100352332D01*
X65441307Y-100206830D01*
X65757446Y-99995593D01*
X66026299Y-99726740D01*
X66237536Y-99410601D01*
X66383038Y-99059327D01*
X66457215Y-98686417D01*
X66457215Y-98306201D01*
X66383038Y-97933291D01*
X66237536Y-97582017D01*
X66026299Y-97265878D01*
X65757446Y-96997025D01*
X65441307Y-96785788D01*
X65090033Y-96640286D01*
X64717123Y-96566109D01*
X64336907Y-96566109D01*
X63963997Y-96640286D01*
X63612723Y-96785788D01*
X63296584Y-96997025D01*
X63027731Y-97265878D01*
X62816494Y-97582017D01*
X62670992Y-97933291D01*
X62596815Y-98306201D01*
X62479015Y-98306201D01*
X62479015Y-97935515D01*
X62555091Y-97683539D01*
X62750512Y-97316006D01*
X63013603Y-96993424D01*
X63334335Y-96728092D01*
X63700496Y-96530108D01*
X64098147Y-96407015D01*
X64531106Y-96361509D01*
X88542058Y-96361509D01*
X88538626Y-96363802D01*
X88538626Y-96363802D01*
G37*
X88538626Y-96363802D02*
X88429508Y-96472920D01*
X88343775Y-96601230D01*
X88284720Y-96743800D01*
X88254615Y-96895151D01*
X88254615Y-97049467D01*
X88284720Y-97200818D01*
X88343775Y-97343388D01*
X88374544Y-97389438D01*
X87420074Y-98343909D01*
X78396209Y-98343909D01*
X78370015Y-98341329D01*
X78343821Y-98343909D01*
X78343820Y-98343909D01*
X78265450Y-98351628D01*
X78164904Y-98382128D01*
X78072240Y-98431658D01*
X77991020Y-98498314D01*
X77974322Y-98518661D01*
X76576191Y-99916792D01*
X76536922Y-99858020D01*
X76427804Y-99748902D01*
X76299494Y-99663169D01*
X76156924Y-99604114D01*
X76005573Y-99574009D01*
X75851257Y-99574009D01*
X75699906Y-99604114D01*
X75557336Y-99663169D01*
X75429026Y-99748902D01*
X75319908Y-99858020D01*
X75234175Y-99986330D01*
X75175120Y-100128900D01*
X75145015Y-100280251D01*
X75145015Y-100434567D01*
X75175120Y-100585918D01*
X75234175Y-100728488D01*
X75319908Y-100856798D01*
X75429026Y-100965916D01*
X75557336Y-101051649D01*
X75699906Y-101110704D01*
X75851257Y-101140809D01*
X75957473Y-101140809D01*
X76022965Y-101206301D01*
X76083839Y-101256259D01*
X76176503Y-101305789D01*
X76277049Y-101336289D01*
X76381613Y-101346587D01*
X76409165Y-101343874D01*
X76436716Y-101346587D01*
X76541280Y-101336289D01*
X76641826Y-101305789D01*
X76734489Y-101256259D01*
X76795364Y-101206301D01*
X78590956Y-99410709D01*
X79883984Y-99410709D01*
X79757336Y-99463169D01*
X79629026Y-99548902D01*
X79519908Y-99658020D01*
X79434175Y-99786330D01*
X79375120Y-99928900D01*
X79345015Y-100080251D01*
X79345015Y-100234567D01*
X79375120Y-100385918D01*
X79434175Y-100528488D01*
X79519908Y-100656798D01*
X79629026Y-100765916D01*
X79671417Y-100794240D01*
X79671014Y-100798330D01*
X79673215Y-100820679D01*
X79673215Y-100820686D01*
X79679802Y-100887564D01*
X79705831Y-100973369D01*
X79748099Y-101052448D01*
X79804983Y-101121762D01*
X79822354Y-101136018D01*
X82171509Y-103485174D01*
X82185761Y-103502540D01*
X82203126Y-103516791D01*
X82203127Y-103516792D01*
X82255074Y-103559424D01*
X82334153Y-103601692D01*
X82419958Y-103627721D01*
X82509193Y-103636510D01*
X82531550Y-103634308D01*
X89539867Y-103634308D01*
X89562216Y-103636509D01*
X89584565Y-103634308D01*
X89584573Y-103634308D01*
X89651451Y-103627721D01*
X89737256Y-103601692D01*
X89816335Y-103559424D01*
X89885648Y-103502540D01*
X89899904Y-103485169D01*
X92468845Y-100916228D01*
X93025815Y-100916228D01*
X93025815Y-101156390D01*
X93072668Y-101391936D01*
X93164574Y-101613817D01*
X93298001Y-101813504D01*
X93467820Y-101983323D01*
X93667507Y-102116750D01*
X93889388Y-102208656D01*
X94124934Y-102255509D01*
X94365096Y-102255509D01*
X94600642Y-102208656D01*
X94822523Y-102116750D01*
X95022210Y-101983323D01*
X95192029Y-101813504D01*
X95325456Y-101613817D01*
X95417362Y-101391936D01*
X95464215Y-101156390D01*
X95464215Y-100916228D01*
X95417362Y-100680682D01*
X95325456Y-100458801D01*
X95192029Y-100259114D01*
X95022210Y-100089295D01*
X94822523Y-99955868D01*
X94600642Y-99863962D01*
X94365096Y-99817109D01*
X94124934Y-99817109D01*
X93889388Y-99863962D01*
X93667507Y-99955868D01*
X93467820Y-100089295D01*
X93298001Y-100259114D01*
X93164574Y-100458801D01*
X93072668Y-100680682D01*
X93025815Y-100916228D01*
X92468845Y-100916228D01*
X93767080Y-99617994D01*
X93889388Y-99668656D01*
X94124934Y-99715509D01*
X94365096Y-99715509D01*
X94600642Y-99668656D01*
X94822523Y-99576750D01*
X95022210Y-99443323D01*
X95192029Y-99273504D01*
X95325456Y-99073817D01*
X95417362Y-98851936D01*
X95464215Y-98616390D01*
X95464215Y-98376228D01*
X95417362Y-98140682D01*
X95325456Y-97918801D01*
X95192029Y-97719114D01*
X95022210Y-97549295D01*
X94822523Y-97415868D01*
X94600642Y-97323962D01*
X94365096Y-97277109D01*
X94124934Y-97277109D01*
X93889388Y-97323962D01*
X93667507Y-97415868D01*
X93467820Y-97549295D01*
X93298001Y-97719114D01*
X93164574Y-97918801D01*
X93072668Y-98140682D01*
X93025815Y-98376228D01*
X93025815Y-98616390D01*
X93072668Y-98851936D01*
X93123330Y-98974244D01*
X89373667Y-102723908D01*
X82697743Y-102723908D01*
X81314643Y-101340809D01*
X81405573Y-101340809D01*
X81556924Y-101310704D01*
X81699494Y-101251649D01*
X81827804Y-101165916D01*
X81936922Y-101056798D01*
X82022655Y-100928488D01*
X82081710Y-100785918D01*
X82111815Y-100634567D01*
X82111815Y-100480251D01*
X82081710Y-100328900D01*
X82022655Y-100186330D01*
X81936922Y-100058020D01*
X81827804Y-99948902D01*
X81783615Y-99919376D01*
X81783615Y-99816151D01*
X89778615Y-99816151D01*
X89778615Y-99970467D01*
X89808720Y-100121818D01*
X89867775Y-100264388D01*
X89953508Y-100392698D01*
X90062626Y-100501816D01*
X90190936Y-100587549D01*
X90333506Y-100646604D01*
X90484857Y-100676709D01*
X90639173Y-100676709D01*
X90790524Y-100646604D01*
X90933094Y-100587549D01*
X91061404Y-100501816D01*
X91170522Y-100392698D01*
X91256255Y-100264388D01*
X91315310Y-100121818D01*
X91345415Y-99970467D01*
X91345415Y-99816151D01*
X91315310Y-99664800D01*
X91256255Y-99522230D01*
X91170522Y-99393920D01*
X91061404Y-99284802D01*
X90933094Y-99199069D01*
X90790524Y-99140014D01*
X90639173Y-99109909D01*
X90484857Y-99109909D01*
X90333506Y-99140014D01*
X90190936Y-99199069D01*
X90062626Y-99284802D01*
X89953508Y-99393920D01*
X89867775Y-99522230D01*
X89808720Y-99664800D01*
X89778615Y-99816151D01*
X81783615Y-99816151D01*
X81783615Y-99410709D01*
X87614828Y-99410709D01*
X87641015Y-99413288D01*
X87667202Y-99410709D01*
X87667210Y-99410709D01*
X87745580Y-99402990D01*
X87846126Y-99372490D01*
X87938790Y-99322960D01*
X88020010Y-99256304D01*
X88036710Y-99235955D01*
X89396666Y-97876000D01*
X89417010Y-97859304D01*
X89483666Y-97778084D01*
X89533196Y-97685420D01*
X89563696Y-97584874D01*
X89567012Y-97551208D01*
X89646522Y-97471698D01*
X89732255Y-97343388D01*
X89791310Y-97200818D01*
X89821415Y-97049467D01*
X89821415Y-96895151D01*
X89791310Y-96743800D01*
X89732255Y-96601230D01*
X89646522Y-96472920D01*
X89537404Y-96363802D01*
X89533972Y-96361509D01*
X93717198Y-96361509D01*
X94151289Y-96404072D01*
X94549785Y-96524385D01*
X94917318Y-96719806D01*
X95239900Y-96982897D01*
X95505232Y-97303629D01*
X95703216Y-97669790D01*
X95826309Y-98067441D01*
X95871815Y-98500400D01*
X95871816Y-118796482D01*
X95829252Y-119230581D01*
X95708940Y-119629075D01*
X95513518Y-119996613D01*
X95250427Y-120319194D01*
X94929696Y-120584525D01*
X94563530Y-120782511D01*
X94165883Y-120905603D01*
X93732924Y-120951109D01*
X81771292Y-120951109D01*
X81789192Y-120933209D01*
X81939673Y-120933209D01*
X82091024Y-120903104D01*
X82233594Y-120844049D01*
X82361904Y-120758316D01*
X82471022Y-120649198D01*
X82556755Y-120520888D01*
X82615810Y-120378318D01*
X82645915Y-120226967D01*
X82645915Y-120072651D01*
X83873115Y-120072651D01*
X83873115Y-120226967D01*
X83903220Y-120378318D01*
X83962275Y-120520888D01*
X84048008Y-120649198D01*
X84157126Y-120758316D01*
X84285436Y-120844049D01*
X84428006Y-120903104D01*
X84579357Y-120933209D01*
X84733673Y-120933209D01*
X84885024Y-120903104D01*
X85027594Y-120844049D01*
X85155904Y-120758316D01*
X85265022Y-120649198D01*
X85350755Y-120520888D01*
X85409810Y-120378318D01*
X85439915Y-120226967D01*
X85439915Y-120072651D01*
X85409810Y-119921300D01*
X85350755Y-119778730D01*
X85265022Y-119650420D01*
X85155904Y-119541302D01*
X85050215Y-119470684D01*
X85050215Y-118696228D01*
X93025815Y-118696228D01*
X93025815Y-118936390D01*
X93072668Y-119171936D01*
X93164574Y-119393817D01*
X93298001Y-119593504D01*
X93467820Y-119763323D01*
X93667507Y-119896750D01*
X93889388Y-119988656D01*
X94124934Y-120035509D01*
X94365096Y-120035509D01*
X94600642Y-119988656D01*
X94822523Y-119896750D01*
X95022210Y-119763323D01*
X95192029Y-119593504D01*
X95325456Y-119393817D01*
X95417362Y-119171936D01*
X95464215Y-118936390D01*
X95464215Y-118696228D01*
X95417362Y-118460682D01*
X95325456Y-118238801D01*
X95192029Y-118039114D01*
X95022210Y-117869295D01*
X94822523Y-117735868D01*
X94600642Y-117643962D01*
X94365096Y-117597109D01*
X94124934Y-117597109D01*
X93889388Y-117643962D01*
X93667507Y-117735868D01*
X93467820Y-117869295D01*
X93298001Y-118039114D01*
X93164574Y-118238801D01*
X93072668Y-118460682D01*
X93025815Y-118696228D01*
X85050215Y-118696228D01*
X85050215Y-117735686D01*
X86629673Y-116156228D01*
X93025815Y-116156228D01*
X93025815Y-116396390D01*
X93072668Y-116631936D01*
X93164574Y-116853817D01*
X93298001Y-117053504D01*
X93467820Y-117223323D01*
X93667507Y-117356750D01*
X93889388Y-117448656D01*
X94124934Y-117495509D01*
X94365096Y-117495509D01*
X94600642Y-117448656D01*
X94822523Y-117356750D01*
X95022210Y-117223323D01*
X95192029Y-117053504D01*
X95325456Y-116853817D01*
X95417362Y-116631936D01*
X95464215Y-116396390D01*
X95464215Y-116156228D01*
X95417362Y-115920682D01*
X95325456Y-115698801D01*
X95192029Y-115499114D01*
X95022210Y-115329295D01*
X94822523Y-115195868D01*
X94600642Y-115103962D01*
X94365096Y-115057109D01*
X94124934Y-115057109D01*
X93889388Y-115103962D01*
X93667507Y-115195868D01*
X93467820Y-115329295D01*
X93298001Y-115499114D01*
X93164574Y-115698801D01*
X93072668Y-115920682D01*
X93025815Y-116156228D01*
X86629673Y-116156228D01*
X88592394Y-114193509D01*
X93114741Y-114193509D01*
X93164574Y-114313817D01*
X93298001Y-114513504D01*
X93467820Y-114683323D01*
X93667507Y-114816750D01*
X93889388Y-114908656D01*
X94124934Y-114955509D01*
X94365096Y-114955509D01*
X94600642Y-114908656D01*
X94822523Y-114816750D01*
X95022210Y-114683323D01*
X95192029Y-114513504D01*
X95325456Y-114313817D01*
X95417362Y-114091936D01*
X95464215Y-113856390D01*
X95464215Y-113616228D01*
X95417362Y-113380682D01*
X95325456Y-113158801D01*
X95192029Y-112959114D01*
X95022210Y-112789295D01*
X94822523Y-112655868D01*
X94600642Y-112563962D01*
X94365096Y-112517109D01*
X94124934Y-112517109D01*
X93889388Y-112563962D01*
X93667507Y-112655868D01*
X93467820Y-112789295D01*
X93298001Y-112959114D01*
X93164574Y-113158801D01*
X93114741Y-113279109D01*
X88425465Y-113279109D01*
X88403015Y-113276898D01*
X88380565Y-113279109D01*
X88380555Y-113279109D01*
X88313388Y-113285724D01*
X88247264Y-113305783D01*
X88227205Y-113311868D01*
X88147779Y-113354322D01*
X88095607Y-113397138D01*
X88095601Y-113397144D01*
X88078162Y-113411456D01*
X88063850Y-113428895D01*
X84285612Y-117207135D01*
X84268162Y-117221456D01*
X84211028Y-117291074D01*
X84168574Y-117370501D01*
X84142430Y-117456683D01*
X84135815Y-117523850D01*
X84135815Y-117523859D01*
X84133604Y-117546309D01*
X84135815Y-117568759D01*
X84135816Y-119562612D01*
X84048008Y-119650420D01*
X83962275Y-119778730D01*
X83903220Y-119921300D01*
X83873115Y-120072651D01*
X82645915Y-120072651D01*
X82615810Y-119921300D01*
X82556755Y-119778730D01*
X82471022Y-119650420D01*
X82361904Y-119541302D01*
X82233594Y-119455569D01*
X82091024Y-119396514D01*
X81939673Y-119366409D01*
X81785357Y-119366409D01*
X81634006Y-119396514D01*
X81491436Y-119455569D01*
X81363126Y-119541302D01*
X81254008Y-119650420D01*
X81168275Y-119778730D01*
X81109220Y-119921300D01*
X81079115Y-120072651D01*
X81079115Y-120226967D01*
X81086503Y-120264109D01*
X71764894Y-120264109D01*
X70314290Y-118813506D01*
X70826015Y-118813506D01*
X70890745Y-118807131D01*
X70952988Y-118788249D01*
X71010352Y-118757588D01*
X71060631Y-118716325D01*
X71101894Y-118666046D01*
X71132555Y-118608682D01*
X71151437Y-118546439D01*
X71157812Y-118481709D01*
X71157812Y-117680251D01*
X78545015Y-117680251D01*
X78545015Y-117834567D01*
X78575120Y-117985918D01*
X78634175Y-118128488D01*
X78719908Y-118256798D01*
X78829026Y-118365916D01*
X78957336Y-118451649D01*
X79099906Y-118510704D01*
X79251257Y-118540809D01*
X79405573Y-118540809D01*
X79556924Y-118510704D01*
X79699494Y-118451649D01*
X79827804Y-118365916D01*
X79903111Y-118290609D01*
X82702230Y-118290609D01*
X82728415Y-118293188D01*
X82754599Y-118290609D01*
X82754600Y-118290609D01*
X82832940Y-118282893D01*
X82933449Y-118252404D01*
X83026078Y-118202893D01*
X83107268Y-118136262D01*
X83173899Y-118055072D01*
X83223410Y-117962443D01*
X83253899Y-117861934D01*
X83264194Y-117757409D01*
X83261615Y-117731224D01*
X83261615Y-116578266D01*
X88763653Y-111076228D01*
X93025815Y-111076228D01*
X93025815Y-111316390D01*
X93072668Y-111551936D01*
X93164574Y-111773817D01*
X93298001Y-111973504D01*
X93467820Y-112143323D01*
X93667507Y-112276750D01*
X93889388Y-112368656D01*
X94124934Y-112415509D01*
X94365096Y-112415509D01*
X94600642Y-112368656D01*
X94822523Y-112276750D01*
X95022210Y-112143323D01*
X95192029Y-111973504D01*
X95325456Y-111773817D01*
X95417362Y-111551936D01*
X95464215Y-111316390D01*
X95464215Y-111076228D01*
X95417362Y-110840682D01*
X95325456Y-110618801D01*
X95192029Y-110419114D01*
X95022210Y-110249295D01*
X94822523Y-110115868D01*
X94600642Y-110023962D01*
X94365096Y-109977109D01*
X94124934Y-109977109D01*
X93889388Y-110023962D01*
X93667507Y-110115868D01*
X93467820Y-110249295D01*
X93298001Y-110419114D01*
X93164574Y-110618801D01*
X93072668Y-110840682D01*
X93025815Y-111076228D01*
X88763653Y-111076228D01*
X89699073Y-110140809D01*
X89805573Y-110140809D01*
X89956924Y-110110704D01*
X90099494Y-110051649D01*
X90227804Y-109965916D01*
X90336922Y-109856798D01*
X90422655Y-109728488D01*
X90481710Y-109585918D01*
X90511815Y-109434567D01*
X90511815Y-109280251D01*
X90481710Y-109128900D01*
X90422655Y-108986330D01*
X90336922Y-108858020D01*
X90227804Y-108748902D01*
X90099494Y-108663169D01*
X89956924Y-108604114D01*
X89805573Y-108574009D01*
X89651257Y-108574009D01*
X89499906Y-108604114D01*
X89357336Y-108663169D01*
X89229026Y-108748902D01*
X89119908Y-108858020D01*
X89034175Y-108986330D01*
X88975120Y-109128900D01*
X88945015Y-109280251D01*
X88945015Y-109386751D01*
X82369906Y-115961861D01*
X82349563Y-115978556D01*
X82282932Y-116059746D01*
X82256467Y-116109258D01*
X82233420Y-116152376D01*
X82202931Y-116252884D01*
X82192636Y-116357409D01*
X82195216Y-116383603D01*
X82195215Y-117224209D01*
X79903111Y-117224209D01*
X79827804Y-117148902D01*
X79699494Y-117063169D01*
X79556924Y-117004114D01*
X79405573Y-116974009D01*
X79251257Y-116974009D01*
X79099906Y-117004114D01*
X78957336Y-117063169D01*
X78829026Y-117148902D01*
X78719908Y-117258020D01*
X78634175Y-117386330D01*
X78575120Y-117528900D01*
X78545015Y-117680251D01*
X71157812Y-117680251D01*
X71157812Y-115281709D01*
X71151437Y-115216979D01*
X71132555Y-115154736D01*
X71101894Y-115097372D01*
X71060631Y-115047093D01*
X71010352Y-115005830D01*
X70952988Y-114975169D01*
X70890745Y-114956287D01*
X70826015Y-114949912D01*
X67626015Y-114949912D01*
X67561285Y-114956287D01*
X67499042Y-114975169D01*
X67441678Y-115005830D01*
X67391399Y-115047093D01*
X67350136Y-115097372D01*
X67319475Y-115154736D01*
X67300593Y-115216979D01*
X67294218Y-115281709D01*
X67294218Y-116424509D01*
X67036294Y-116424509D01*
X62888715Y-112276932D01*
X62888715Y-109784050D01*
X76720815Y-109784050D01*
X76720815Y-110144568D01*
X76791148Y-110498159D01*
X76929112Y-110831234D01*
X77129405Y-111130994D01*
X77384330Y-111385919D01*
X77684090Y-111586212D01*
X78017165Y-111724176D01*
X78370756Y-111794509D01*
X78731274Y-111794509D01*
X79084865Y-111724176D01*
X79417940Y-111586212D01*
X79717700Y-111385919D01*
X79972625Y-111130994D01*
X80172918Y-110831234D01*
X80310882Y-110498159D01*
X80381215Y-110144568D01*
X80381215Y-109784050D01*
X80310882Y-109430459D01*
X80172918Y-109097384D01*
X79972625Y-108797624D01*
X79717700Y-108542699D01*
X79708016Y-108536228D01*
X93025815Y-108536228D01*
X93025815Y-108776390D01*
X93072668Y-109011936D01*
X93164574Y-109233817D01*
X93298001Y-109433504D01*
X93467820Y-109603323D01*
X93667507Y-109736750D01*
X93889388Y-109828656D01*
X94124934Y-109875509D01*
X94365096Y-109875509D01*
X94600642Y-109828656D01*
X94822523Y-109736750D01*
X95022210Y-109603323D01*
X95192029Y-109433504D01*
X95325456Y-109233817D01*
X95417362Y-109011936D01*
X95464215Y-108776390D01*
X95464215Y-108536228D01*
X95417362Y-108300682D01*
X95325456Y-108078801D01*
X95192029Y-107879114D01*
X95022210Y-107709295D01*
X94822523Y-107575868D01*
X94600642Y-107483962D01*
X94365096Y-107437109D01*
X94124934Y-107437109D01*
X93889388Y-107483962D01*
X93667507Y-107575868D01*
X93467820Y-107709295D01*
X93298001Y-107879114D01*
X93164574Y-108078801D01*
X93072668Y-108300682D01*
X93025815Y-108536228D01*
X79708016Y-108536228D01*
X79417940Y-108342406D01*
X79084865Y-108204442D01*
X78731274Y-108134109D01*
X78370756Y-108134109D01*
X78017165Y-108204442D01*
X77684090Y-108342406D01*
X77384330Y-108542699D01*
X77129405Y-108797624D01*
X76929112Y-109097384D01*
X76791148Y-109430459D01*
X76720815Y-109784050D01*
X62888715Y-109784050D01*
X62888715Y-105996228D01*
X93025815Y-105996228D01*
X93025815Y-106236390D01*
X93072668Y-106471936D01*
X93164574Y-106693817D01*
X93298001Y-106893504D01*
X93467820Y-107063323D01*
X93667507Y-107196750D01*
X93889388Y-107288656D01*
X94124934Y-107335509D01*
X94365096Y-107335509D01*
X94600642Y-107288656D01*
X94822523Y-107196750D01*
X95022210Y-107063323D01*
X95192029Y-106893504D01*
X95325456Y-106693817D01*
X95417362Y-106471936D01*
X95464215Y-106236390D01*
X95464215Y-105996228D01*
X95417362Y-105760682D01*
X95325456Y-105538801D01*
X95192029Y-105339114D01*
X95022210Y-105169295D01*
X94822523Y-105035868D01*
X94600642Y-104943962D01*
X94365096Y-104897109D01*
X94124934Y-104897109D01*
X93889388Y-104943962D01*
X93667507Y-105035868D01*
X93467820Y-105169295D01*
X93298001Y-105339114D01*
X93164574Y-105538801D01*
X93072668Y-105760682D01*
X93025815Y-105996228D01*
X62888715Y-105996228D01*
X62888715Y-105480186D01*
X67294218Y-101074684D01*
X67294218Y-102030909D01*
X67300593Y-102095639D01*
X67319475Y-102157882D01*
X67350136Y-102215246D01*
X67391399Y-102265525D01*
X67441678Y-102306788D01*
X67499042Y-102337449D01*
X67561285Y-102356331D01*
X67626015Y-102362706D01*
X70826015Y-102362706D01*
X70890745Y-102356331D01*
X70952988Y-102337449D01*
X71010352Y-102306788D01*
X71060631Y-102265525D01*
X71101894Y-102215246D01*
X71132555Y-102157882D01*
X71151437Y-102095639D01*
X71157812Y-102030909D01*
X71157812Y-98830909D01*
X71151437Y-98766179D01*
X71132555Y-98703936D01*
X71101894Y-98646572D01*
X71060631Y-98596293D01*
X71010352Y-98555030D01*
X70952988Y-98524369D01*
X70890745Y-98505487D01*
X70826015Y-98499112D01*
X67626015Y-98499112D01*
X67561285Y-98505487D01*
X67499042Y-98524369D01*
X67441678Y-98555030D01*
X67391399Y-98596293D01*
X67350136Y-98646572D01*
X67319475Y-98703936D01*
X67300593Y-98766179D01*
X67294218Y-98830909D01*
X67294218Y-99971774D01*
X67291414Y-99971498D01*
X67268964Y-99973709D01*
X67268955Y-99973709D01*
X67201788Y-99980324D01*
X67115606Y-100006468D01*
X67078632Y-100026231D01*
X67036178Y-100048922D01*
X66998005Y-100080251D01*
X66966562Y-100106056D01*
X66952245Y-100123501D01*
X62479015Y-104596732D01*
X62479015Y-98306201D01*
X62596815Y-98306201D01*
X62596815Y-98686417D01*
X62670992Y-99059327D01*
X62816494Y-99410601D01*
X63027731Y-99726740D01*
X63296584Y-99995593D01*
X63612723Y-100206830D01*
X63963997Y-100352332D01*
X64336907Y-100426509D01*
X64717123Y-100426509D01*
X65090033Y-100352332D01*
X65441307Y-100206830D01*
X65757446Y-99995593D01*
X66026299Y-99726740D01*
X66237536Y-99410601D01*
X66383038Y-99059327D01*
X66457215Y-98686417D01*
X66457215Y-98306201D01*
X66383038Y-97933291D01*
X66237536Y-97582017D01*
X66026299Y-97265878D01*
X65757446Y-96997025D01*
X65441307Y-96785788D01*
X65090033Y-96640286D01*
X64717123Y-96566109D01*
X64336907Y-96566109D01*
X63963997Y-96640286D01*
X63612723Y-96785788D01*
X63296584Y-96997025D01*
X63027731Y-97265878D01*
X62816494Y-97582017D01*
X62670992Y-97933291D01*
X62596815Y-98306201D01*
X62479015Y-98306201D01*
X62479015Y-97935515D01*
X62555091Y-97683539D01*
X62750512Y-97316006D01*
X63013603Y-96993424D01*
X63334335Y-96728092D01*
X63700496Y-96530108D01*
X64098147Y-96407015D01*
X64531106Y-96361509D01*
X88542058Y-96361509D01*
X88538626Y-96363802D01*
G04 #@! TO.N,+3V3*
G36*
X160186388Y-54173665D02*
X160181332Y-106213355D01*
X99582469Y-106172885D01*
X99599607Y-101522960D01*
X100797280Y-101522960D01*
X100797280Y-103222960D01*
X100846563Y-103470725D01*
X100986911Y-103680769D01*
X101196955Y-103821117D01*
X101444720Y-103870400D01*
X103144720Y-103870400D01*
X103392485Y-103821117D01*
X103602529Y-103680769D01*
X103742877Y-103470725D01*
X103763459Y-103367252D01*
X104067796Y-103644605D01*
X104477830Y-103814436D01*
X104707720Y-103693115D01*
X104707720Y-102499960D01*
X104961720Y-102499960D01*
X104961720Y-103693115D01*
X105191610Y-103814436D01*
X105601644Y-103644605D01*
X106029903Y-103254318D01*
X106276206Y-102729852D01*
X106155539Y-102499960D01*
X104961720Y-102499960D01*
X104707720Y-102499960D01*
X104687720Y-102499960D01*
X104687720Y-102245960D01*
X104707720Y-102245960D01*
X104707720Y-101052805D01*
X104961720Y-101052805D01*
X104961720Y-102245960D01*
X106155539Y-102245960D01*
X106276206Y-102016068D01*
X106029903Y-101491602D01*
X105601644Y-101101315D01*
X105191610Y-100931484D01*
X104961720Y-101052805D01*
X104707720Y-101052805D01*
X104477830Y-100931484D01*
X104067796Y-101101315D01*
X103763459Y-101378668D01*
X103742877Y-101275195D01*
X103602529Y-101065151D01*
X103392485Y-100924803D01*
X103144720Y-100875520D01*
X101444720Y-100875520D01*
X101196955Y-100924803D01*
X100986911Y-101065151D01*
X100846563Y-101275195D01*
X100797280Y-101522960D01*
X99599607Y-101522960D01*
X99632475Y-92605410D01*
X100751644Y-92605410D01*
X100921475Y-93015444D01*
X101311762Y-93443703D01*
X101836228Y-93690006D01*
X102066120Y-93569339D01*
X102066120Y-92375520D01*
X102320120Y-92375520D01*
X102320120Y-93569339D01*
X102550012Y-93690006D01*
X103074478Y-93443703D01*
X103256190Y-93244312D01*
X103344793Y-93458219D01*
X103523422Y-93636847D01*
X103756811Y-93733520D01*
X104447370Y-93733520D01*
X104606120Y-93574770D01*
X104606120Y-92375520D01*
X104860120Y-92375520D01*
X104860120Y-93574770D01*
X105018870Y-93733520D01*
X105709429Y-93733520D01*
X105942818Y-93636847D01*
X106121447Y-93458219D01*
X106218120Y-93224830D01*
X106218120Y-92534270D01*
X106059370Y-92375520D01*
X104860120Y-92375520D01*
X104606120Y-92375520D01*
X102320120Y-92375520D01*
X102066120Y-92375520D01*
X100872965Y-92375520D01*
X100751644Y-92605410D01*
X99632475Y-92605410D01*
X99661026Y-84859175D01*
X99718197Y-84944737D01*
X99806232Y-85076491D01*
X99869688Y-85118891D01*
X101012825Y-86262028D01*
X100794281Y-86589102D01*
X100679028Y-87168520D01*
X100794281Y-87747938D01*
X101122495Y-88239145D01*
X101420881Y-88438520D01*
X101122495Y-88637895D01*
X100794281Y-89129102D01*
X100679028Y-89708520D01*
X100794281Y-90287938D01*
X101122495Y-90779145D01*
X101441598Y-90992363D01*
X101311762Y-91053337D01*
X100921475Y-91481596D01*
X100751644Y-91891630D01*
X100872965Y-92121520D01*
X102066120Y-92121520D01*
X102066120Y-92101520D01*
X102320120Y-92101520D01*
X102320120Y-92121520D01*
X104606120Y-92121520D01*
X104606120Y-92101520D01*
X104860120Y-92101520D01*
X104860120Y-92121520D01*
X106059370Y-92121520D01*
X106218120Y-91962770D01*
X106218120Y-91272210D01*
X106121447Y-91038821D01*
X105942818Y-90860193D01*
X105782087Y-90793616D01*
X105803745Y-90779145D01*
X106131959Y-90287938D01*
X106247212Y-89708520D01*
X106131959Y-89129102D01*
X105803745Y-88637895D01*
X105505359Y-88438520D01*
X105803745Y-88239145D01*
X106131959Y-87747938D01*
X106247212Y-87168520D01*
X106131959Y-86589102D01*
X105803745Y-86097895D01*
X105505359Y-85898520D01*
X105803745Y-85699145D01*
X106131959Y-85207938D01*
X106247212Y-84628520D01*
X106131959Y-84049102D01*
X105803745Y-83557895D01*
X105505359Y-83358520D01*
X105803745Y-83159145D01*
X106131959Y-82667938D01*
X106247212Y-82088520D01*
X106131959Y-81509102D01*
X105803745Y-81017895D01*
X105505359Y-80818520D01*
X105803745Y-80619145D01*
X106131959Y-80127938D01*
X106247212Y-79548520D01*
X106131959Y-78969102D01*
X105803745Y-78477895D01*
X105505359Y-78278520D01*
X105803745Y-78079145D01*
X106131959Y-77587938D01*
X106247212Y-77008520D01*
X106175448Y-76647738D01*
X106320365Y-76792655D01*
X106664017Y-76935000D01*
X107035983Y-76935000D01*
X107379635Y-76792655D01*
X107642655Y-76529635D01*
X107785000Y-76185983D01*
X107785000Y-75814017D01*
X107642655Y-75470365D01*
X107400810Y-75228520D01*
X117712240Y-75228520D01*
X117712240Y-75279503D01*
X117854585Y-75623155D01*
X118117605Y-75886175D01*
X118461257Y-76028520D01*
X118833223Y-76028520D01*
X119176875Y-75886175D01*
X119439895Y-75623155D01*
X119582240Y-75279503D01*
X119582240Y-75228520D01*
X120181559Y-75228520D01*
X125306198Y-80353160D01*
X121373438Y-80353160D01*
X121298591Y-80338272D01*
X121223744Y-80353160D01*
X121223739Y-80353160D01*
X121002054Y-80397256D01*
X120750662Y-80565231D01*
X120708262Y-80628687D01*
X116927443Y-84409507D01*
X116692962Y-84506632D01*
X116672435Y-84486105D01*
X116328783Y-84343760D01*
X115956817Y-84343760D01*
X115613165Y-84486105D01*
X115350145Y-84749125D01*
X115207800Y-85092777D01*
X115207800Y-85464743D01*
X115350145Y-85808395D01*
X115613165Y-86071415D01*
X115956817Y-86213760D01*
X116328783Y-86213760D01*
X116623878Y-86091528D01*
X116644405Y-86112055D01*
X116988057Y-86254400D01*
X117360023Y-86254400D01*
X117616255Y-86148265D01*
X117958337Y-86289960D01*
X118330303Y-86289960D01*
X118673955Y-86147615D01*
X118683282Y-86138288D01*
X118862211Y-86212403D01*
X119234177Y-86212403D01*
X119563242Y-86076100D01*
X119638936Y-86258843D01*
X119901956Y-86521863D01*
X120245608Y-86664208D01*
X120617574Y-86664208D01*
X120961226Y-86521863D01*
X121224246Y-86258843D01*
X121366591Y-85915191D01*
X121366591Y-85869009D01*
X122924041Y-84311560D01*
X125125830Y-84311560D01*
X125158485Y-84344215D01*
X125502137Y-84486560D01*
X125874103Y-84486560D01*
X126217755Y-84344215D01*
X126480775Y-84081195D01*
X126623120Y-83737543D01*
X126623120Y-83365577D01*
X126604970Y-83321760D01*
X126706443Y-83220287D01*
X126848788Y-82876635D01*
X126848788Y-82504669D01*
X126822458Y-82441101D01*
X126833172Y-82430387D01*
X126975517Y-82086735D01*
X126975517Y-82068480D01*
X127027604Y-82068480D01*
X127027603Y-85968408D01*
X122796651Y-90199361D01*
X122579635Y-89982345D01*
X122235983Y-89840000D01*
X121864017Y-89840000D01*
X121520365Y-89982345D01*
X121487710Y-90015000D01*
X120939802Y-90015000D01*
X120485000Y-89560199D01*
X120485000Y-89514017D01*
X120342655Y-89170365D01*
X120079635Y-88907345D01*
X119735983Y-88765000D01*
X119364017Y-88765000D01*
X119020365Y-88907345D01*
X118757345Y-89170365D01*
X118615000Y-89514017D01*
X118615000Y-89885983D01*
X118757345Y-90229635D01*
X119020365Y-90492655D01*
X119364017Y-90635000D01*
X119410199Y-90635000D01*
X120034671Y-91259473D01*
X120077071Y-91322929D01*
X120328463Y-91490904D01*
X120550148Y-91535000D01*
X120550152Y-91535000D01*
X120625000Y-91549888D01*
X120699848Y-91535000D01*
X121461012Y-91535000D01*
X119148288Y-93847724D01*
X119084832Y-93890124D01*
X119042432Y-93953580D01*
X119042431Y-93953581D01*
X118942792Y-94102701D01*
X118916857Y-94141516D01*
X118908240Y-94184839D01*
X118857872Y-94438053D01*
X118872761Y-94512905D01*
X118872760Y-100975553D01*
X118509016Y-100903200D01*
X118216504Y-100903200D01*
X117783342Y-100989361D01*
X117292135Y-101317575D01*
X117092760Y-101615961D01*
X116893385Y-101317575D01*
X116402178Y-100989361D01*
X115969016Y-100903200D01*
X115676504Y-100903200D01*
X115243342Y-100989361D01*
X114752135Y-101317575D01*
X114739944Y-101335819D01*
X114730917Y-101290435D01*
X114590569Y-101080391D01*
X114380525Y-100940043D01*
X114132760Y-100890760D01*
X112432760Y-100890760D01*
X112184995Y-100940043D01*
X111974951Y-101080391D01*
X111834603Y-101290435D01*
X111785320Y-101538200D01*
X111785320Y-103238200D01*
X111834603Y-103485965D01*
X111974951Y-103696009D01*
X112184995Y-103836357D01*
X112432760Y-103885640D01*
X114132760Y-103885640D01*
X114380525Y-103836357D01*
X114590569Y-103696009D01*
X114730917Y-103485965D01*
X114739944Y-103440581D01*
X114752135Y-103458825D01*
X115243342Y-103787039D01*
X115676504Y-103873200D01*
X115969016Y-103873200D01*
X116402178Y-103787039D01*
X116893385Y-103458825D01*
X117092760Y-103160439D01*
X117292135Y-103458825D01*
X117783342Y-103787039D01*
X118216504Y-103873200D01*
X118509016Y-103873200D01*
X118942178Y-103787039D01*
X119154517Y-103645158D01*
X120012711Y-104503353D01*
X120055111Y-104566809D01*
X120306503Y-104734784D01*
X120528188Y-104778880D01*
X120528192Y-104778880D01*
X120603039Y-104793768D01*
X120677886Y-104778880D01*
X144597233Y-104778880D01*
X144672080Y-104793768D01*
X144746927Y-104778880D01*
X144746932Y-104778880D01*
X144968617Y-104734784D01*
X145220009Y-104566809D01*
X145262411Y-104503350D01*
X145936352Y-103829409D01*
X146156504Y-103873200D01*
X146449016Y-103873200D01*
X146882178Y-103787039D01*
X147373385Y-103458825D01*
X147572760Y-103160439D01*
X147772135Y-103458825D01*
X148263342Y-103787039D01*
X148696504Y-103873200D01*
X148989016Y-103873200D01*
X149422178Y-103787039D01*
X149913385Y-103458825D01*
X150112760Y-103160439D01*
X150312135Y-103458825D01*
X150803342Y-103787039D01*
X151236504Y-103873200D01*
X151529016Y-103873200D01*
X151962178Y-103787039D01*
X152453385Y-103458825D01*
X152781599Y-102967618D01*
X152896852Y-102388200D01*
X152781599Y-101808782D01*
X152453385Y-101317575D01*
X151962178Y-100989361D01*
X151529016Y-100903200D01*
X151236504Y-100903200D01*
X151016352Y-100946991D01*
X149124461Y-99055100D01*
X149082059Y-98991641D01*
X148830667Y-98823666D01*
X148608982Y-98779570D01*
X148608977Y-98779570D01*
X148534130Y-98764682D01*
X148459283Y-98779570D01*
X136582854Y-98779570D01*
X136666032Y-98696392D01*
X136808377Y-98352740D01*
X136808377Y-97980774D01*
X136666032Y-97637122D01*
X136403012Y-97374102D01*
X136059360Y-97231757D01*
X135687394Y-97231757D01*
X135642724Y-97250260D01*
X135447010Y-97054546D01*
X135103358Y-96912201D01*
X134843135Y-96912201D01*
X134699760Y-96768826D01*
X134419899Y-96652904D01*
X134359313Y-96506636D01*
X134096293Y-96243616D01*
X133752641Y-96101271D01*
X133380675Y-96101271D01*
X133037023Y-96243616D01*
X133004368Y-96276271D01*
X132793130Y-96276271D01*
X131829295Y-95312436D01*
X131874434Y-95267297D01*
X132194136Y-95586999D01*
X132236534Y-95650452D01*
X132299987Y-95692850D01*
X132299989Y-95692852D01*
X132405328Y-95763237D01*
X132487926Y-95818427D01*
X132709611Y-95862523D01*
X132709615Y-95862523D01*
X132784462Y-95877411D01*
X132859309Y-95862523D01*
X156050482Y-95862523D01*
X156118831Y-95930872D01*
X156045948Y-96297280D01*
X156161201Y-96876698D01*
X156489415Y-97367905D01*
X156507659Y-97380096D01*
X156462275Y-97389123D01*
X156252231Y-97529471D01*
X156111883Y-97739515D01*
X156062600Y-97987280D01*
X156062600Y-99687280D01*
X156111883Y-99935045D01*
X156252231Y-100145089D01*
X156462275Y-100285437D01*
X156710040Y-100334720D01*
X158410040Y-100334720D01*
X158657805Y-100285437D01*
X158867849Y-100145089D01*
X159008197Y-99935045D01*
X159057480Y-99687280D01*
X159057480Y-97987280D01*
X159008197Y-97739515D01*
X158867849Y-97529471D01*
X158657805Y-97389123D01*
X158612421Y-97380096D01*
X158630665Y-97367905D01*
X158958879Y-96876698D01*
X159074132Y-96297280D01*
X158958879Y-95717862D01*
X158630665Y-95226655D01*
X158332279Y-95027280D01*
X158630665Y-94827905D01*
X158958879Y-94336698D01*
X159074132Y-93757280D01*
X158958879Y-93177862D01*
X158630665Y-92686655D01*
X158332279Y-92487280D01*
X158630665Y-92287905D01*
X158958879Y-91796698D01*
X159074132Y-91217280D01*
X159001249Y-90850872D01*
X159561491Y-90290631D01*
X159624947Y-90248231D01*
X159792922Y-89996839D01*
X159837018Y-89775154D01*
X159837018Y-89775149D01*
X159851906Y-89700302D01*
X159837018Y-89625455D01*
X159837018Y-80754265D01*
X159851906Y-80679418D01*
X159837018Y-80604571D01*
X159837018Y-80604566D01*
X159792922Y-80382881D01*
X159624947Y-80131489D01*
X159561491Y-80089089D01*
X158802755Y-79330354D01*
X158958879Y-79096698D01*
X159074132Y-78517280D01*
X158958879Y-77937862D01*
X158630665Y-77446655D01*
X158332279Y-77247280D01*
X158630665Y-77047905D01*
X158958879Y-76556698D01*
X159074132Y-75977280D01*
X158958879Y-75397862D01*
X158630665Y-74906655D01*
X158332279Y-74707280D01*
X158630665Y-74507905D01*
X158958879Y-74016698D01*
X159074132Y-73437280D01*
X158958879Y-72857862D01*
X158630665Y-72366655D01*
X158332279Y-72167280D01*
X158630665Y-71967905D01*
X158958879Y-71476698D01*
X159074132Y-70897280D01*
X158958879Y-70317862D01*
X158630665Y-69826655D01*
X158332279Y-69627280D01*
X158630665Y-69427905D01*
X158958879Y-68936698D01*
X159074132Y-68357280D01*
X158958879Y-67777862D01*
X158630665Y-67286655D01*
X158332279Y-67087280D01*
X158630665Y-66887905D01*
X158958879Y-66396698D01*
X159074132Y-65817280D01*
X158958879Y-65237862D01*
X158630665Y-64746655D01*
X158332279Y-64547280D01*
X158630665Y-64347905D01*
X158958879Y-63856698D01*
X159074132Y-63277280D01*
X158958879Y-62697862D01*
X158630665Y-62206655D01*
X158332279Y-62007280D01*
X158630665Y-61807905D01*
X158958879Y-61316698D01*
X159074132Y-60737280D01*
X158958879Y-60157862D01*
X158630665Y-59666655D01*
X158319754Y-59458911D01*
X158275944Y-59238662D01*
X158107969Y-58987270D01*
X158044513Y-58944870D01*
X154216572Y-55116930D01*
X154174170Y-55053471D01*
X153922778Y-54885496D01*
X153701093Y-54841400D01*
X153701088Y-54841400D01*
X153626241Y-54826512D01*
X153551394Y-54841400D01*
X145081373Y-54841400D01*
X144911973Y-54672000D01*
X144869571Y-54608541D01*
X144618179Y-54440566D01*
X144396494Y-54396470D01*
X144396489Y-54396470D01*
X144321642Y-54381582D01*
X144246795Y-54396470D01*
X105765978Y-54396470D01*
X105691130Y-54381582D01*
X105616282Y-54396470D01*
X105616278Y-54396470D01*
X105442735Y-54430990D01*
X105394592Y-54440566D01*
X105207548Y-54565546D01*
X105143201Y-54608541D01*
X105100801Y-54671997D01*
X99834129Y-59938670D01*
X99770671Y-59981071D01*
X99752620Y-60008086D01*
X99774572Y-54052255D01*
X160186388Y-54173665D01*
X160186388Y-54173665D01*
G37*
X160186388Y-54173665D02*
X160181332Y-106213355D01*
X99582469Y-106172885D01*
X99599607Y-101522960D01*
X100797280Y-101522960D01*
X100797280Y-103222960D01*
X100846563Y-103470725D01*
X100986911Y-103680769D01*
X101196955Y-103821117D01*
X101444720Y-103870400D01*
X103144720Y-103870400D01*
X103392485Y-103821117D01*
X103602529Y-103680769D01*
X103742877Y-103470725D01*
X103763459Y-103367252D01*
X104067796Y-103644605D01*
X104477830Y-103814436D01*
X104707720Y-103693115D01*
X104707720Y-102499960D01*
X104961720Y-102499960D01*
X104961720Y-103693115D01*
X105191610Y-103814436D01*
X105601644Y-103644605D01*
X106029903Y-103254318D01*
X106276206Y-102729852D01*
X106155539Y-102499960D01*
X104961720Y-102499960D01*
X104707720Y-102499960D01*
X104687720Y-102499960D01*
X104687720Y-102245960D01*
X104707720Y-102245960D01*
X104707720Y-101052805D01*
X104961720Y-101052805D01*
X104961720Y-102245960D01*
X106155539Y-102245960D01*
X106276206Y-102016068D01*
X106029903Y-101491602D01*
X105601644Y-101101315D01*
X105191610Y-100931484D01*
X104961720Y-101052805D01*
X104707720Y-101052805D01*
X104477830Y-100931484D01*
X104067796Y-101101315D01*
X103763459Y-101378668D01*
X103742877Y-101275195D01*
X103602529Y-101065151D01*
X103392485Y-100924803D01*
X103144720Y-100875520D01*
X101444720Y-100875520D01*
X101196955Y-100924803D01*
X100986911Y-101065151D01*
X100846563Y-101275195D01*
X100797280Y-101522960D01*
X99599607Y-101522960D01*
X99632475Y-92605410D01*
X100751644Y-92605410D01*
X100921475Y-93015444D01*
X101311762Y-93443703D01*
X101836228Y-93690006D01*
X102066120Y-93569339D01*
X102066120Y-92375520D01*
X102320120Y-92375520D01*
X102320120Y-93569339D01*
X102550012Y-93690006D01*
X103074478Y-93443703D01*
X103256190Y-93244312D01*
X103344793Y-93458219D01*
X103523422Y-93636847D01*
X103756811Y-93733520D01*
X104447370Y-93733520D01*
X104606120Y-93574770D01*
X104606120Y-92375520D01*
X104860120Y-92375520D01*
X104860120Y-93574770D01*
X105018870Y-93733520D01*
X105709429Y-93733520D01*
X105942818Y-93636847D01*
X106121447Y-93458219D01*
X106218120Y-93224830D01*
X106218120Y-92534270D01*
X106059370Y-92375520D01*
X104860120Y-92375520D01*
X104606120Y-92375520D01*
X102320120Y-92375520D01*
X102066120Y-92375520D01*
X100872965Y-92375520D01*
X100751644Y-92605410D01*
X99632475Y-92605410D01*
X99661026Y-84859175D01*
X99718197Y-84944737D01*
X99806232Y-85076491D01*
X99869688Y-85118891D01*
X101012825Y-86262028D01*
X100794281Y-86589102D01*
X100679028Y-87168520D01*
X100794281Y-87747938D01*
X101122495Y-88239145D01*
X101420881Y-88438520D01*
X101122495Y-88637895D01*
X100794281Y-89129102D01*
X100679028Y-89708520D01*
X100794281Y-90287938D01*
X101122495Y-90779145D01*
X101441598Y-90992363D01*
X101311762Y-91053337D01*
X100921475Y-91481596D01*
X100751644Y-91891630D01*
X100872965Y-92121520D01*
X102066120Y-92121520D01*
X102066120Y-92101520D01*
X102320120Y-92101520D01*
X102320120Y-92121520D01*
X104606120Y-92121520D01*
X104606120Y-92101520D01*
X104860120Y-92101520D01*
X104860120Y-92121520D01*
X106059370Y-92121520D01*
X106218120Y-91962770D01*
X106218120Y-91272210D01*
X106121447Y-91038821D01*
X105942818Y-90860193D01*
X105782087Y-90793616D01*
X105803745Y-90779145D01*
X106131959Y-90287938D01*
X106247212Y-89708520D01*
X106131959Y-89129102D01*
X105803745Y-88637895D01*
X105505359Y-88438520D01*
X105803745Y-88239145D01*
X106131959Y-87747938D01*
X106247212Y-87168520D01*
X106131959Y-86589102D01*
X105803745Y-86097895D01*
X105505359Y-85898520D01*
X105803745Y-85699145D01*
X106131959Y-85207938D01*
X106247212Y-84628520D01*
X106131959Y-84049102D01*
X105803745Y-83557895D01*
X105505359Y-83358520D01*
X105803745Y-83159145D01*
X106131959Y-82667938D01*
X106247212Y-82088520D01*
X106131959Y-81509102D01*
X105803745Y-81017895D01*
X105505359Y-80818520D01*
X105803745Y-80619145D01*
X106131959Y-80127938D01*
X106247212Y-79548520D01*
X106131959Y-78969102D01*
X105803745Y-78477895D01*
X105505359Y-78278520D01*
X105803745Y-78079145D01*
X106131959Y-77587938D01*
X106247212Y-77008520D01*
X106175448Y-76647738D01*
X106320365Y-76792655D01*
X106664017Y-76935000D01*
X107035983Y-76935000D01*
X107379635Y-76792655D01*
X107642655Y-76529635D01*
X107785000Y-76185983D01*
X107785000Y-75814017D01*
X107642655Y-75470365D01*
X107400810Y-75228520D01*
X117712240Y-75228520D01*
X117712240Y-75279503D01*
X117854585Y-75623155D01*
X118117605Y-75886175D01*
X118461257Y-76028520D01*
X118833223Y-76028520D01*
X119176875Y-75886175D01*
X119439895Y-75623155D01*
X119582240Y-75279503D01*
X119582240Y-75228520D01*
X120181559Y-75228520D01*
X125306198Y-80353160D01*
X121373438Y-80353160D01*
X121298591Y-80338272D01*
X121223744Y-80353160D01*
X121223739Y-80353160D01*
X121002054Y-80397256D01*
X120750662Y-80565231D01*
X120708262Y-80628687D01*
X116927443Y-84409507D01*
X116692962Y-84506632D01*
X116672435Y-84486105D01*
X116328783Y-84343760D01*
X115956817Y-84343760D01*
X115613165Y-84486105D01*
X115350145Y-84749125D01*
X115207800Y-85092777D01*
X115207800Y-85464743D01*
X115350145Y-85808395D01*
X115613165Y-86071415D01*
X115956817Y-86213760D01*
X116328783Y-86213760D01*
X116623878Y-86091528D01*
X116644405Y-86112055D01*
X116988057Y-86254400D01*
X117360023Y-86254400D01*
X117616255Y-86148265D01*
X117958337Y-86289960D01*
X118330303Y-86289960D01*
X118673955Y-86147615D01*
X118683282Y-86138288D01*
X118862211Y-86212403D01*
X119234177Y-86212403D01*
X119563242Y-86076100D01*
X119638936Y-86258843D01*
X119901956Y-86521863D01*
X120245608Y-86664208D01*
X120617574Y-86664208D01*
X120961226Y-86521863D01*
X121224246Y-86258843D01*
X121366591Y-85915191D01*
X121366591Y-85869009D01*
X122924041Y-84311560D01*
X125125830Y-84311560D01*
X125158485Y-84344215D01*
X125502137Y-84486560D01*
X125874103Y-84486560D01*
X126217755Y-84344215D01*
X126480775Y-84081195D01*
X126623120Y-83737543D01*
X126623120Y-83365577D01*
X126604970Y-83321760D01*
X126706443Y-83220287D01*
X126848788Y-82876635D01*
X126848788Y-82504669D01*
X126822458Y-82441101D01*
X126833172Y-82430387D01*
X126975517Y-82086735D01*
X126975517Y-82068480D01*
X127027604Y-82068480D01*
X127027603Y-85968408D01*
X122796651Y-90199361D01*
X122579635Y-89982345D01*
X122235983Y-89840000D01*
X121864017Y-89840000D01*
X121520365Y-89982345D01*
X121487710Y-90015000D01*
X120939802Y-90015000D01*
X120485000Y-89560199D01*
X120485000Y-89514017D01*
X120342655Y-89170365D01*
X120079635Y-88907345D01*
X119735983Y-88765000D01*
X119364017Y-88765000D01*
X119020365Y-88907345D01*
X118757345Y-89170365D01*
X118615000Y-89514017D01*
X118615000Y-89885983D01*
X118757345Y-90229635D01*
X119020365Y-90492655D01*
X119364017Y-90635000D01*
X119410199Y-90635000D01*
X120034671Y-91259473D01*
X120077071Y-91322929D01*
X120328463Y-91490904D01*
X120550148Y-91535000D01*
X120550152Y-91535000D01*
X120625000Y-91549888D01*
X120699848Y-91535000D01*
X121461012Y-91535000D01*
X119148288Y-93847724D01*
X119084832Y-93890124D01*
X119042432Y-93953580D01*
X119042431Y-93953581D01*
X118942792Y-94102701D01*
X118916857Y-94141516D01*
X118908240Y-94184839D01*
X118857872Y-94438053D01*
X118872761Y-94512905D01*
X118872760Y-100975553D01*
X118509016Y-100903200D01*
X118216504Y-100903200D01*
X117783342Y-100989361D01*
X117292135Y-101317575D01*
X117092760Y-101615961D01*
X116893385Y-101317575D01*
X116402178Y-100989361D01*
X115969016Y-100903200D01*
X115676504Y-100903200D01*
X115243342Y-100989361D01*
X114752135Y-101317575D01*
X114739944Y-101335819D01*
X114730917Y-101290435D01*
X114590569Y-101080391D01*
X114380525Y-100940043D01*
X114132760Y-100890760D01*
X112432760Y-100890760D01*
X112184995Y-100940043D01*
X111974951Y-101080391D01*
X111834603Y-101290435D01*
X111785320Y-101538200D01*
X111785320Y-103238200D01*
X111834603Y-103485965D01*
X111974951Y-103696009D01*
X112184995Y-103836357D01*
X112432760Y-103885640D01*
X114132760Y-103885640D01*
X114380525Y-103836357D01*
X114590569Y-103696009D01*
X114730917Y-103485965D01*
X114739944Y-103440581D01*
X114752135Y-103458825D01*
X115243342Y-103787039D01*
X115676504Y-103873200D01*
X115969016Y-103873200D01*
X116402178Y-103787039D01*
X116893385Y-103458825D01*
X117092760Y-103160439D01*
X117292135Y-103458825D01*
X117783342Y-103787039D01*
X118216504Y-103873200D01*
X118509016Y-103873200D01*
X118942178Y-103787039D01*
X119154517Y-103645158D01*
X120012711Y-104503353D01*
X120055111Y-104566809D01*
X120306503Y-104734784D01*
X120528188Y-104778880D01*
X120528192Y-104778880D01*
X120603039Y-104793768D01*
X120677886Y-104778880D01*
X144597233Y-104778880D01*
X144672080Y-104793768D01*
X144746927Y-104778880D01*
X144746932Y-104778880D01*
X144968617Y-104734784D01*
X145220009Y-104566809D01*
X145262411Y-104503350D01*
X145936352Y-103829409D01*
X146156504Y-103873200D01*
X146449016Y-103873200D01*
X146882178Y-103787039D01*
X147373385Y-103458825D01*
X147572760Y-103160439D01*
X147772135Y-103458825D01*
X148263342Y-103787039D01*
X148696504Y-103873200D01*
X148989016Y-103873200D01*
X149422178Y-103787039D01*
X149913385Y-103458825D01*
X150112760Y-103160439D01*
X150312135Y-103458825D01*
X150803342Y-103787039D01*
X151236504Y-103873200D01*
X151529016Y-103873200D01*
X151962178Y-103787039D01*
X152453385Y-103458825D01*
X152781599Y-102967618D01*
X152896852Y-102388200D01*
X152781599Y-101808782D01*
X152453385Y-101317575D01*
X151962178Y-100989361D01*
X151529016Y-100903200D01*
X151236504Y-100903200D01*
X151016352Y-100946991D01*
X149124461Y-99055100D01*
X149082059Y-98991641D01*
X148830667Y-98823666D01*
X148608982Y-98779570D01*
X148608977Y-98779570D01*
X148534130Y-98764682D01*
X148459283Y-98779570D01*
X136582854Y-98779570D01*
X136666032Y-98696392D01*
X136808377Y-98352740D01*
X136808377Y-97980774D01*
X136666032Y-97637122D01*
X136403012Y-97374102D01*
X136059360Y-97231757D01*
X135687394Y-97231757D01*
X135642724Y-97250260D01*
X135447010Y-97054546D01*
X135103358Y-96912201D01*
X134843135Y-96912201D01*
X134699760Y-96768826D01*
X134419899Y-96652904D01*
X134359313Y-96506636D01*
X134096293Y-96243616D01*
X133752641Y-96101271D01*
X133380675Y-96101271D01*
X133037023Y-96243616D01*
X133004368Y-96276271D01*
X132793130Y-96276271D01*
X131829295Y-95312436D01*
X131874434Y-95267297D01*
X132194136Y-95586999D01*
X132236534Y-95650452D01*
X132299987Y-95692850D01*
X132299989Y-95692852D01*
X132405328Y-95763237D01*
X132487926Y-95818427D01*
X132709611Y-95862523D01*
X132709615Y-95862523D01*
X132784462Y-95877411D01*
X132859309Y-95862523D01*
X156050482Y-95862523D01*
X156118831Y-95930872D01*
X156045948Y-96297280D01*
X156161201Y-96876698D01*
X156489415Y-97367905D01*
X156507659Y-97380096D01*
X156462275Y-97389123D01*
X156252231Y-97529471D01*
X156111883Y-97739515D01*
X156062600Y-97987280D01*
X156062600Y-99687280D01*
X156111883Y-99935045D01*
X156252231Y-100145089D01*
X156462275Y-100285437D01*
X156710040Y-100334720D01*
X158410040Y-100334720D01*
X158657805Y-100285437D01*
X158867849Y-100145089D01*
X159008197Y-99935045D01*
X159057480Y-99687280D01*
X159057480Y-97987280D01*
X159008197Y-97739515D01*
X158867849Y-97529471D01*
X158657805Y-97389123D01*
X158612421Y-97380096D01*
X158630665Y-97367905D01*
X158958879Y-96876698D01*
X159074132Y-96297280D01*
X158958879Y-95717862D01*
X158630665Y-95226655D01*
X158332279Y-95027280D01*
X158630665Y-94827905D01*
X158958879Y-94336698D01*
X159074132Y-93757280D01*
X158958879Y-93177862D01*
X158630665Y-92686655D01*
X158332279Y-92487280D01*
X158630665Y-92287905D01*
X158958879Y-91796698D01*
X159074132Y-91217280D01*
X159001249Y-90850872D01*
X159561491Y-90290631D01*
X159624947Y-90248231D01*
X159792922Y-89996839D01*
X159837018Y-89775154D01*
X159837018Y-89775149D01*
X159851906Y-89700302D01*
X159837018Y-89625455D01*
X159837018Y-80754265D01*
X159851906Y-80679418D01*
X159837018Y-80604571D01*
X159837018Y-80604566D01*
X159792922Y-80382881D01*
X159624947Y-80131489D01*
X159561491Y-80089089D01*
X158802755Y-79330354D01*
X158958879Y-79096698D01*
X159074132Y-78517280D01*
X158958879Y-77937862D01*
X158630665Y-77446655D01*
X158332279Y-77247280D01*
X158630665Y-77047905D01*
X158958879Y-76556698D01*
X159074132Y-75977280D01*
X158958879Y-75397862D01*
X158630665Y-74906655D01*
X158332279Y-74707280D01*
X158630665Y-74507905D01*
X158958879Y-74016698D01*
X159074132Y-73437280D01*
X158958879Y-72857862D01*
X158630665Y-72366655D01*
X158332279Y-72167280D01*
X158630665Y-71967905D01*
X158958879Y-71476698D01*
X159074132Y-70897280D01*
X158958879Y-70317862D01*
X158630665Y-69826655D01*
X158332279Y-69627280D01*
X158630665Y-69427905D01*
X158958879Y-68936698D01*
X159074132Y-68357280D01*
X158958879Y-67777862D01*
X158630665Y-67286655D01*
X158332279Y-67087280D01*
X158630665Y-66887905D01*
X158958879Y-66396698D01*
X159074132Y-65817280D01*
X158958879Y-65237862D01*
X158630665Y-64746655D01*
X158332279Y-64547280D01*
X158630665Y-64347905D01*
X158958879Y-63856698D01*
X159074132Y-63277280D01*
X158958879Y-62697862D01*
X158630665Y-62206655D01*
X158332279Y-62007280D01*
X158630665Y-61807905D01*
X158958879Y-61316698D01*
X159074132Y-60737280D01*
X158958879Y-60157862D01*
X158630665Y-59666655D01*
X158319754Y-59458911D01*
X158275944Y-59238662D01*
X158107969Y-58987270D01*
X158044513Y-58944870D01*
X154216572Y-55116930D01*
X154174170Y-55053471D01*
X153922778Y-54885496D01*
X153701093Y-54841400D01*
X153701088Y-54841400D01*
X153626241Y-54826512D01*
X153551394Y-54841400D01*
X145081373Y-54841400D01*
X144911973Y-54672000D01*
X144869571Y-54608541D01*
X144618179Y-54440566D01*
X144396494Y-54396470D01*
X144396489Y-54396470D01*
X144321642Y-54381582D01*
X144246795Y-54396470D01*
X105765978Y-54396470D01*
X105691130Y-54381582D01*
X105616282Y-54396470D01*
X105616278Y-54396470D01*
X105442735Y-54430990D01*
X105394592Y-54440566D01*
X105207548Y-54565546D01*
X105143201Y-54608541D01*
X105100801Y-54671997D01*
X99834129Y-59938670D01*
X99770671Y-59981071D01*
X99752620Y-60008086D01*
X99774572Y-54052255D01*
X160186388Y-54173665D01*
G36*
X125796797Y-95834846D02*
X125781909Y-95909693D01*
X125796797Y-95984540D01*
X125796797Y-95984544D01*
X125840893Y-96206229D01*
X126008868Y-96457622D01*
X126072327Y-96500024D01*
X130548669Y-100976367D01*
X130483342Y-100989361D01*
X129992135Y-101317575D01*
X129792760Y-101615961D01*
X129593385Y-101317575D01*
X129102178Y-100989361D01*
X128669016Y-100903200D01*
X128376504Y-100903200D01*
X127943342Y-100989361D01*
X127452135Y-101317575D01*
X127252760Y-101615961D01*
X127053385Y-101317575D01*
X126562178Y-100989361D01*
X126129016Y-100903200D01*
X125836504Y-100903200D01*
X125403342Y-100989361D01*
X124912135Y-101317575D01*
X124712760Y-101615961D01*
X124513385Y-101317575D01*
X124022178Y-100989361D01*
X123589016Y-100903200D01*
X123296504Y-100903200D01*
X122863342Y-100989361D01*
X122372135Y-101317575D01*
X122172760Y-101615961D01*
X121973385Y-101317575D01*
X121482178Y-100989361D01*
X121049016Y-100903200D01*
X120756504Y-100903200D01*
X120392760Y-100975553D01*
X120392760Y-94752854D01*
X122549162Y-92596452D01*
X122745365Y-92792655D01*
X122840001Y-92831854D01*
X122840000Y-94387710D01*
X122807345Y-94420365D01*
X122665000Y-94764017D01*
X122665000Y-95135983D01*
X122807345Y-95479635D01*
X123070365Y-95742655D01*
X123414017Y-95885000D01*
X123785983Y-95885000D01*
X124129635Y-95742655D01*
X124392655Y-95479635D01*
X124535000Y-95135983D01*
X124535000Y-94764017D01*
X124392655Y-94420365D01*
X124360000Y-94387710D01*
X124360000Y-92399846D01*
X124374888Y-92324999D01*
X124360000Y-92250152D01*
X124360000Y-92250148D01*
X124315904Y-92028463D01*
X124210000Y-91869967D01*
X124210000Y-91814017D01*
X124067655Y-91470365D01*
X123871452Y-91274162D01*
X125796798Y-89348817D01*
X125796797Y-95834846D01*
X125796797Y-95834846D01*
G37*
X125796797Y-95834846D02*
X125781909Y-95909693D01*
X125796797Y-95984540D01*
X125796797Y-95984544D01*
X125840893Y-96206229D01*
X126008868Y-96457622D01*
X126072327Y-96500024D01*
X130548669Y-100976367D01*
X130483342Y-100989361D01*
X129992135Y-101317575D01*
X129792760Y-101615961D01*
X129593385Y-101317575D01*
X129102178Y-100989361D01*
X128669016Y-100903200D01*
X128376504Y-100903200D01*
X127943342Y-100989361D01*
X127452135Y-101317575D01*
X127252760Y-101615961D01*
X127053385Y-101317575D01*
X126562178Y-100989361D01*
X126129016Y-100903200D01*
X125836504Y-100903200D01*
X125403342Y-100989361D01*
X124912135Y-101317575D01*
X124712760Y-101615961D01*
X124513385Y-101317575D01*
X124022178Y-100989361D01*
X123589016Y-100903200D01*
X123296504Y-100903200D01*
X122863342Y-100989361D01*
X122372135Y-101317575D01*
X122172760Y-101615961D01*
X121973385Y-101317575D01*
X121482178Y-100989361D01*
X121049016Y-100903200D01*
X120756504Y-100903200D01*
X120392760Y-100975553D01*
X120392760Y-94752854D01*
X122549162Y-92596452D01*
X122745365Y-92792655D01*
X122840001Y-92831854D01*
X122840000Y-94387710D01*
X122807345Y-94420365D01*
X122665000Y-94764017D01*
X122665000Y-95135983D01*
X122807345Y-95479635D01*
X123070365Y-95742655D01*
X123414017Y-95885000D01*
X123785983Y-95885000D01*
X124129635Y-95742655D01*
X124392655Y-95479635D01*
X124535000Y-95135983D01*
X124535000Y-94764017D01*
X124392655Y-94420365D01*
X124360000Y-94387710D01*
X124360000Y-92399846D01*
X124374888Y-92324999D01*
X124360000Y-92250152D01*
X124360000Y-92250148D01*
X124315904Y-92028463D01*
X124210000Y-91869967D01*
X124210000Y-91814017D01*
X124067655Y-91470365D01*
X123871452Y-91274162D01*
X125796798Y-89348817D01*
X125796797Y-95834846D01*
G36*
X148423718Y-80157680D02*
X144293519Y-84287880D01*
X144247337Y-84287880D01*
X143903685Y-84430225D01*
X143640665Y-84693245D01*
X143509861Y-85009034D01*
X143402277Y-85053597D01*
X143139257Y-85316617D01*
X143009899Y-85628914D01*
X142898501Y-85675057D01*
X142635481Y-85938077D01*
X142532745Y-86186105D01*
X142353240Y-86260458D01*
X142090220Y-86523478D01*
X141947875Y-86867130D01*
X141947875Y-87239096D01*
X142090220Y-87582748D01*
X142353240Y-87845768D01*
X142696892Y-87988113D01*
X142765257Y-87988113D01*
X142792592Y-88006378D01*
X142886336Y-88069016D01*
X142918587Y-88075431D01*
X143108022Y-88113112D01*
X143108026Y-88113112D01*
X143182874Y-88128000D01*
X143257722Y-88113112D01*
X143302519Y-88113112D01*
X141212351Y-90203280D01*
X138731970Y-90203280D01*
X138699315Y-90170625D01*
X138355663Y-90028280D01*
X137983697Y-90028280D01*
X137640045Y-90170625D01*
X137377025Y-90433645D01*
X137234680Y-90777297D01*
X137234680Y-91149263D01*
X137288761Y-91279826D01*
X136939829Y-91279826D01*
X134961188Y-89301187D01*
X134918786Y-89237728D01*
X134667394Y-89069753D01*
X134445709Y-89025657D01*
X134445704Y-89025657D01*
X134370857Y-89010769D01*
X134296010Y-89025657D01*
X132884715Y-89025657D01*
X137415973Y-84494399D01*
X137435081Y-84540529D01*
X137435080Y-86509710D01*
X137402425Y-86542365D01*
X137260080Y-86886017D01*
X137260080Y-87257983D01*
X137402425Y-87601635D01*
X137665445Y-87864655D01*
X138009097Y-88007000D01*
X138381063Y-88007000D01*
X138724715Y-87864655D01*
X138987735Y-87601635D01*
X139130080Y-87257983D01*
X139130080Y-86886017D01*
X138987735Y-86542365D01*
X138955080Y-86509710D01*
X138955080Y-84767210D01*
X139067655Y-84654635D01*
X139210000Y-84310983D01*
X139210000Y-83939017D01*
X139067655Y-83595365D01*
X138804635Y-83332345D01*
X138644399Y-83265973D01*
X140448427Y-81461946D01*
X140511883Y-81419546D01*
X140574783Y-81325410D01*
X140679858Y-81168155D01*
X140701912Y-81057280D01*
X140723954Y-80946469D01*
X140723954Y-80946465D01*
X140729456Y-80918806D01*
X143562986Y-78085276D01*
X143820365Y-78342655D01*
X144164017Y-78485000D01*
X144535983Y-78485000D01*
X144879635Y-78342655D01*
X144912290Y-78310000D01*
X146600153Y-78310000D01*
X146675000Y-78324888D01*
X146749847Y-78310000D01*
X146749852Y-78310000D01*
X146971537Y-78265904D01*
X147222929Y-78097929D01*
X147265331Y-78034470D01*
X148017171Y-77282631D01*
X148123994Y-77282631D01*
X148198841Y-77297519D01*
X148273688Y-77282631D01*
X148273693Y-77282631D01*
X148423718Y-77252789D01*
X148423718Y-80157680D01*
X148423718Y-80157680D01*
G37*
X148423718Y-80157680D02*
X144293519Y-84287880D01*
X144247337Y-84287880D01*
X143903685Y-84430225D01*
X143640665Y-84693245D01*
X143509861Y-85009034D01*
X143402277Y-85053597D01*
X143139257Y-85316617D01*
X143009899Y-85628914D01*
X142898501Y-85675057D01*
X142635481Y-85938077D01*
X142532745Y-86186105D01*
X142353240Y-86260458D01*
X142090220Y-86523478D01*
X141947875Y-86867130D01*
X141947875Y-87239096D01*
X142090220Y-87582748D01*
X142353240Y-87845768D01*
X142696892Y-87988113D01*
X142765257Y-87988113D01*
X142792592Y-88006378D01*
X142886336Y-88069016D01*
X142918587Y-88075431D01*
X143108022Y-88113112D01*
X143108026Y-88113112D01*
X143182874Y-88128000D01*
X143257722Y-88113112D01*
X143302519Y-88113112D01*
X141212351Y-90203280D01*
X138731970Y-90203280D01*
X138699315Y-90170625D01*
X138355663Y-90028280D01*
X137983697Y-90028280D01*
X137640045Y-90170625D01*
X137377025Y-90433645D01*
X137234680Y-90777297D01*
X137234680Y-91149263D01*
X137288761Y-91279826D01*
X136939829Y-91279826D01*
X134961188Y-89301187D01*
X134918786Y-89237728D01*
X134667394Y-89069753D01*
X134445709Y-89025657D01*
X134445704Y-89025657D01*
X134370857Y-89010769D01*
X134296010Y-89025657D01*
X132884715Y-89025657D01*
X137415973Y-84494399D01*
X137435081Y-84540529D01*
X137435080Y-86509710D01*
X137402425Y-86542365D01*
X137260080Y-86886017D01*
X137260080Y-87257983D01*
X137402425Y-87601635D01*
X137665445Y-87864655D01*
X138009097Y-88007000D01*
X138381063Y-88007000D01*
X138724715Y-87864655D01*
X138987735Y-87601635D01*
X139130080Y-87257983D01*
X139130080Y-86886017D01*
X138987735Y-86542365D01*
X138955080Y-86509710D01*
X138955080Y-84767210D01*
X139067655Y-84654635D01*
X139210000Y-84310983D01*
X139210000Y-83939017D01*
X139067655Y-83595365D01*
X138804635Y-83332345D01*
X138644399Y-83265973D01*
X140448427Y-81461946D01*
X140511883Y-81419546D01*
X140574783Y-81325410D01*
X140679858Y-81168155D01*
X140701912Y-81057280D01*
X140723954Y-80946469D01*
X140723954Y-80946465D01*
X140729456Y-80918806D01*
X143562986Y-78085276D01*
X143820365Y-78342655D01*
X144164017Y-78485000D01*
X144535983Y-78485000D01*
X144879635Y-78342655D01*
X144912290Y-78310000D01*
X146600153Y-78310000D01*
X146675000Y-78324888D01*
X146749847Y-78310000D01*
X146749852Y-78310000D01*
X146971537Y-78265904D01*
X147222929Y-78097929D01*
X147265331Y-78034470D01*
X148017171Y-77282631D01*
X148123994Y-77282631D01*
X148198841Y-77297519D01*
X148273688Y-77282631D01*
X148273693Y-77282631D01*
X148423718Y-77252789D01*
X148423718Y-80157680D01*
G36*
X148391063Y-73686834D02*
X148423719Y-73719490D01*
X148423719Y-75287632D01*
X148312857Y-75287632D01*
X147969205Y-75429977D01*
X147706185Y-75692997D01*
X147681815Y-75751831D01*
X147627521Y-75762631D01*
X147627517Y-75762631D01*
X147405832Y-75806727D01*
X147154440Y-75974702D01*
X147112040Y-76038158D01*
X146360199Y-76790000D01*
X144912290Y-76790000D01*
X144885276Y-76762986D01*
X148265226Y-73383036D01*
X148391063Y-73686834D01*
X148391063Y-73686834D01*
G37*
X148391063Y-73686834D02*
X148423719Y-73719490D01*
X148423719Y-75287632D01*
X148312857Y-75287632D01*
X147969205Y-75429977D01*
X147706185Y-75692997D01*
X147681815Y-75751831D01*
X147627521Y-75762631D01*
X147627517Y-75762631D01*
X147405832Y-75806727D01*
X147154440Y-75974702D01*
X147112040Y-76038158D01*
X146360199Y-76790000D01*
X144912290Y-76790000D01*
X144885276Y-76762986D01*
X148265226Y-73383036D01*
X148391063Y-73686834D01*
G36*
X145127446Y-70220970D02*
X145127446Y-70267151D01*
X145269791Y-70610803D01*
X145532811Y-70873823D01*
X145548134Y-70880170D01*
X140514884Y-75913420D01*
X140514884Y-74265286D01*
X140529772Y-74190438D01*
X140514884Y-74115590D01*
X140514884Y-74115586D01*
X140475458Y-73917378D01*
X140470788Y-73893900D01*
X140345213Y-73705965D01*
X140302813Y-73642509D01*
X140239357Y-73600109D01*
X139098955Y-72459708D01*
X139056553Y-72396249D01*
X138805161Y-72228274D01*
X138583476Y-72184178D01*
X138583471Y-72184178D01*
X138508624Y-72169290D01*
X138433777Y-72184178D01*
X137199618Y-72184178D01*
X140428797Y-68954999D01*
X141625154Y-68954999D01*
X141700001Y-68969887D01*
X141774848Y-68954999D01*
X141774853Y-68954999D01*
X141996538Y-68910903D01*
X142117618Y-68830000D01*
X142185983Y-68830000D01*
X142529635Y-68687655D01*
X142792655Y-68424635D01*
X142935000Y-68080983D01*
X142935000Y-68028524D01*
X145127446Y-70220970D01*
X145127446Y-70220970D01*
G37*
X145127446Y-70220970D02*
X145127446Y-70267151D01*
X145269791Y-70610803D01*
X145532811Y-70873823D01*
X145548134Y-70880170D01*
X140514884Y-75913420D01*
X140514884Y-74265286D01*
X140529772Y-74190438D01*
X140514884Y-74115590D01*
X140514884Y-74115586D01*
X140475458Y-73917378D01*
X140470788Y-73893900D01*
X140345213Y-73705965D01*
X140302813Y-73642509D01*
X140239357Y-73600109D01*
X139098955Y-72459708D01*
X139056553Y-72396249D01*
X138805161Y-72228274D01*
X138583476Y-72184178D01*
X138583471Y-72184178D01*
X138508624Y-72169290D01*
X138433777Y-72184178D01*
X137199618Y-72184178D01*
X140428797Y-68954999D01*
X141625154Y-68954999D01*
X141700001Y-68969887D01*
X141774848Y-68954999D01*
X141774853Y-68954999D01*
X141996538Y-68910903D01*
X142117618Y-68830000D01*
X142185983Y-68830000D01*
X142529635Y-68687655D01*
X142792655Y-68424635D01*
X142935000Y-68080983D01*
X142935000Y-68028524D01*
X145127446Y-70220970D01*
G36*
X112405175Y-56095415D02*
X112076961Y-56586622D01*
X111961708Y-57166040D01*
X112076961Y-57745458D01*
X112405175Y-58236665D01*
X112896382Y-58564879D01*
X113329544Y-58651040D01*
X113622056Y-58651040D01*
X113842208Y-58607249D01*
X116278013Y-61043055D01*
X116320414Y-61106512D01*
X116571806Y-61274487D01*
X116793491Y-61318583D01*
X116793495Y-61318583D01*
X116868342Y-61333471D01*
X116943189Y-61318583D01*
X127672166Y-61318583D01*
X127800258Y-61627824D01*
X128063278Y-61890844D01*
X128406930Y-62033189D01*
X128453112Y-62033189D01*
X128590962Y-62171039D01*
X128590961Y-69500000D01*
X128539977Y-69500000D01*
X128196325Y-69642345D01*
X127933305Y-69905365D01*
X127790960Y-70249017D01*
X127790960Y-70620983D01*
X127933305Y-70964635D01*
X128196325Y-71227655D01*
X128539977Y-71370000D01*
X128590961Y-71370000D01*
X128590961Y-72275474D01*
X128576073Y-72350321D01*
X128590961Y-72425168D01*
X128590961Y-72425172D01*
X128635057Y-72646857D01*
X128803032Y-72898250D01*
X128866491Y-72940652D01*
X130630199Y-74704361D01*
X130597840Y-74704361D01*
X128290006Y-72396528D01*
X128247604Y-72333069D01*
X127996212Y-72165094D01*
X127774527Y-72120998D01*
X127774522Y-72120998D01*
X127699675Y-72106110D01*
X127624828Y-72120998D01*
X119221560Y-72120998D01*
X119221560Y-71930497D01*
X119079215Y-71586845D01*
X118816195Y-71323825D01*
X118472543Y-71181480D01*
X118100577Y-71181480D01*
X117756925Y-71323825D01*
X117493905Y-71586845D01*
X117351560Y-71930497D01*
X117351560Y-72120998D01*
X112448803Y-72120998D01*
X112416148Y-72088343D01*
X112072496Y-71945998D01*
X111700530Y-71945998D01*
X111356878Y-72088343D01*
X111093858Y-72351363D01*
X110951513Y-72695015D01*
X110951513Y-72745999D01*
X107772049Y-72745999D01*
X107739394Y-72713344D01*
X107395742Y-72570999D01*
X107023776Y-72570999D01*
X106680124Y-72713344D01*
X106417104Y-72976364D01*
X106274759Y-73320016D01*
X106274759Y-73691982D01*
X106281609Y-73708520D01*
X106011298Y-73708520D01*
X105803745Y-73397895D01*
X105505359Y-73198520D01*
X105803745Y-72999145D01*
X106131959Y-72507938D01*
X106247212Y-71928520D01*
X106131959Y-71349102D01*
X105803745Y-70857895D01*
X105505359Y-70658520D01*
X105534547Y-70639017D01*
X109015000Y-70639017D01*
X109015000Y-71010983D01*
X109157345Y-71354635D01*
X109420365Y-71617655D01*
X109764017Y-71760000D01*
X110135983Y-71760000D01*
X110479635Y-71617655D01*
X110742655Y-71354635D01*
X110885000Y-71010983D01*
X110885000Y-70639017D01*
X110742655Y-70295365D01*
X110479635Y-70032345D01*
X110135983Y-69890000D01*
X109764017Y-69890000D01*
X109420365Y-70032345D01*
X109157345Y-70295365D01*
X109015000Y-70639017D01*
X105534547Y-70639017D01*
X105803745Y-70459145D01*
X106131959Y-69967938D01*
X106247212Y-69388520D01*
X106131959Y-68809102D01*
X105803745Y-68317895D01*
X105312538Y-67989681D01*
X104879376Y-67903520D01*
X104586864Y-67903520D01*
X104153702Y-67989681D01*
X103662495Y-68317895D01*
X103463120Y-68616281D01*
X103263745Y-68317895D01*
X102772538Y-67989681D01*
X102339376Y-67903520D01*
X102046864Y-67903520D01*
X101613702Y-67989681D01*
X101122495Y-68317895D01*
X101114160Y-68330369D01*
X101114160Y-60808241D01*
X106005932Y-55916470D01*
X112672985Y-55916470D01*
X112405175Y-56095415D01*
X112405175Y-56095415D01*
G37*
X112405175Y-56095415D02*
X112076961Y-56586622D01*
X111961708Y-57166040D01*
X112076961Y-57745458D01*
X112405175Y-58236665D01*
X112896382Y-58564879D01*
X113329544Y-58651040D01*
X113622056Y-58651040D01*
X113842208Y-58607249D01*
X116278013Y-61043055D01*
X116320414Y-61106512D01*
X116571806Y-61274487D01*
X116793491Y-61318583D01*
X116793495Y-61318583D01*
X116868342Y-61333471D01*
X116943189Y-61318583D01*
X127672166Y-61318583D01*
X127800258Y-61627824D01*
X128063278Y-61890844D01*
X128406930Y-62033189D01*
X128453112Y-62033189D01*
X128590962Y-62171039D01*
X128590961Y-69500000D01*
X128539977Y-69500000D01*
X128196325Y-69642345D01*
X127933305Y-69905365D01*
X127790960Y-70249017D01*
X127790960Y-70620983D01*
X127933305Y-70964635D01*
X128196325Y-71227655D01*
X128539977Y-71370000D01*
X128590961Y-71370000D01*
X128590961Y-72275474D01*
X128576073Y-72350321D01*
X128590961Y-72425168D01*
X128590961Y-72425172D01*
X128635057Y-72646857D01*
X128803032Y-72898250D01*
X128866491Y-72940652D01*
X130630199Y-74704361D01*
X130597840Y-74704361D01*
X128290006Y-72396528D01*
X128247604Y-72333069D01*
X127996212Y-72165094D01*
X127774527Y-72120998D01*
X127774522Y-72120998D01*
X127699675Y-72106110D01*
X127624828Y-72120998D01*
X119221560Y-72120998D01*
X119221560Y-71930497D01*
X119079215Y-71586845D01*
X118816195Y-71323825D01*
X118472543Y-71181480D01*
X118100577Y-71181480D01*
X117756925Y-71323825D01*
X117493905Y-71586845D01*
X117351560Y-71930497D01*
X117351560Y-72120998D01*
X112448803Y-72120998D01*
X112416148Y-72088343D01*
X112072496Y-71945998D01*
X111700530Y-71945998D01*
X111356878Y-72088343D01*
X111093858Y-72351363D01*
X110951513Y-72695015D01*
X110951513Y-72745999D01*
X107772049Y-72745999D01*
X107739394Y-72713344D01*
X107395742Y-72570999D01*
X107023776Y-72570999D01*
X106680124Y-72713344D01*
X106417104Y-72976364D01*
X106274759Y-73320016D01*
X106274759Y-73691982D01*
X106281609Y-73708520D01*
X106011298Y-73708520D01*
X105803745Y-73397895D01*
X105505359Y-73198520D01*
X105803745Y-72999145D01*
X106131959Y-72507938D01*
X106247212Y-71928520D01*
X106131959Y-71349102D01*
X105803745Y-70857895D01*
X105505359Y-70658520D01*
X105534547Y-70639017D01*
X109015000Y-70639017D01*
X109015000Y-71010983D01*
X109157345Y-71354635D01*
X109420365Y-71617655D01*
X109764017Y-71760000D01*
X110135983Y-71760000D01*
X110479635Y-71617655D01*
X110742655Y-71354635D01*
X110885000Y-71010983D01*
X110885000Y-70639017D01*
X110742655Y-70295365D01*
X110479635Y-70032345D01*
X110135983Y-69890000D01*
X109764017Y-69890000D01*
X109420365Y-70032345D01*
X109157345Y-70295365D01*
X109015000Y-70639017D01*
X105534547Y-70639017D01*
X105803745Y-70459145D01*
X106131959Y-69967938D01*
X106247212Y-69388520D01*
X106131959Y-68809102D01*
X105803745Y-68317895D01*
X105312538Y-67989681D01*
X104879376Y-67903520D01*
X104586864Y-67903520D01*
X104153702Y-67989681D01*
X103662495Y-68317895D01*
X103463120Y-68616281D01*
X103263745Y-68317895D01*
X102772538Y-67989681D01*
X102339376Y-67903520D01*
X102046864Y-67903520D01*
X101613702Y-67989681D01*
X101122495Y-68317895D01*
X101114160Y-68330369D01*
X101114160Y-60808241D01*
X106005932Y-55916470D01*
X112672985Y-55916470D01*
X112405175Y-56095415D01*
G36*
X141866476Y-66960000D02*
X141814017Y-66960000D01*
X141470365Y-67102345D01*
X141207345Y-67365365D01*
X141178502Y-67434999D01*
X141070708Y-67434999D01*
X141167160Y-67202143D01*
X141167160Y-66830177D01*
X141024815Y-66486525D01*
X140761795Y-66223505D01*
X140418143Y-66081160D01*
X140046177Y-66081160D01*
X139702525Y-66223505D01*
X139439505Y-66486525D01*
X139297160Y-66830177D01*
X139297160Y-67202143D01*
X139326004Y-67271778D01*
X133139458Y-73458325D01*
X133079695Y-73314045D01*
X132816675Y-73051025D01*
X132473023Y-72908680D01*
X132426842Y-72908680D01*
X132036120Y-72517959D01*
X132036120Y-61337280D01*
X132053638Y-61319762D01*
X132059565Y-61318583D01*
X136225060Y-61318583D01*
X141866476Y-66960000D01*
X141866476Y-66960000D01*
G37*
X141866476Y-66960000D02*
X141814017Y-66960000D01*
X141470365Y-67102345D01*
X141207345Y-67365365D01*
X141178502Y-67434999D01*
X141070708Y-67434999D01*
X141167160Y-67202143D01*
X141167160Y-66830177D01*
X141024815Y-66486525D01*
X140761795Y-66223505D01*
X140418143Y-66081160D01*
X140046177Y-66081160D01*
X139702525Y-66223505D01*
X139439505Y-66486525D01*
X139297160Y-66830177D01*
X139297160Y-67202143D01*
X139326004Y-67271778D01*
X133139458Y-73458325D01*
X133079695Y-73314045D01*
X132816675Y-73051025D01*
X132473023Y-72908680D01*
X132426842Y-72908680D01*
X132036120Y-72517959D01*
X132036120Y-61337280D01*
X132053638Y-61319762D01*
X132059565Y-61318583D01*
X136225060Y-61318583D01*
X141866476Y-66960000D01*
G04 #@! TO.N,Net-(C16-Pad2)*
G36*
X202166952Y-87987968D02*
X202146768Y-125676488D01*
X195289386Y-125670422D01*
X195240777Y-125680046D01*
X195231124Y-125686484D01*
X189672541Y-125665455D01*
X189672173Y-125665454D01*
X173652460Y-125651285D01*
X173645786Y-125641371D01*
X173604488Y-125613984D01*
X173556777Y-125604487D01*
X172386785Y-125600061D01*
X172338148Y-125609544D01*
X172296843Y-125636918D01*
X172269157Y-125678016D01*
X172259306Y-125727502D01*
X172352057Y-152371888D01*
X143736928Y-152346712D01*
X143739879Y-146835700D01*
X151434116Y-146835700D01*
X151434116Y-148535700D01*
X151463686Y-148684359D01*
X151547894Y-148810386D01*
X151673921Y-148894594D01*
X151822580Y-148924164D01*
X153522580Y-148924164D01*
X153671239Y-148894594D01*
X153797266Y-148810386D01*
X153881474Y-148684359D01*
X153911044Y-148535700D01*
X153911044Y-147685700D01*
X153957464Y-147685700D01*
X154053004Y-148166012D01*
X154325079Y-148573201D01*
X154732268Y-148845276D01*
X155091341Y-148916700D01*
X155333819Y-148916700D01*
X155692892Y-148845276D01*
X156100081Y-148573201D01*
X156372156Y-148166012D01*
X156467696Y-147685700D01*
X156497464Y-147685700D01*
X156593004Y-148166012D01*
X156865079Y-148573201D01*
X157272268Y-148845276D01*
X157631341Y-148916700D01*
X157873819Y-148916700D01*
X158232892Y-148845276D01*
X158640081Y-148573201D01*
X158912156Y-148166012D01*
X159007696Y-147685700D01*
X159037464Y-147685700D01*
X159133004Y-148166012D01*
X159405079Y-148573201D01*
X159812268Y-148845276D01*
X160171341Y-148916700D01*
X160413819Y-148916700D01*
X160772892Y-148845276D01*
X161180081Y-148573201D01*
X161452156Y-148166012D01*
X161547696Y-147685700D01*
X161577464Y-147685700D01*
X161673004Y-148166012D01*
X161945079Y-148573201D01*
X162352268Y-148845276D01*
X162711341Y-148916700D01*
X162953819Y-148916700D01*
X163312892Y-148845276D01*
X163720081Y-148573201D01*
X163992156Y-148166012D01*
X164087696Y-147685700D01*
X164117464Y-147685700D01*
X164213004Y-148166012D01*
X164485079Y-148573201D01*
X164892268Y-148845276D01*
X165251341Y-148916700D01*
X165493819Y-148916700D01*
X165852892Y-148845276D01*
X166260081Y-148573201D01*
X166532156Y-148166012D01*
X166627696Y-147685700D01*
X166657464Y-147685700D01*
X166753004Y-148166012D01*
X167025079Y-148573201D01*
X167432268Y-148845276D01*
X167791341Y-148916700D01*
X168033819Y-148916700D01*
X168392892Y-148845276D01*
X168800081Y-148573201D01*
X169072156Y-148166012D01*
X169167696Y-147685700D01*
X169197464Y-147685700D01*
X169293004Y-148166012D01*
X169565079Y-148573201D01*
X169972268Y-148845276D01*
X170331341Y-148916700D01*
X170573819Y-148916700D01*
X170932892Y-148845276D01*
X171340081Y-148573201D01*
X171612156Y-148166012D01*
X171707696Y-147685700D01*
X171612156Y-147205388D01*
X171340081Y-146798199D01*
X170932892Y-146526124D01*
X170573819Y-146454700D01*
X170331341Y-146454700D01*
X169972268Y-146526124D01*
X169565079Y-146798199D01*
X169293004Y-147205388D01*
X169197464Y-147685700D01*
X169167696Y-147685700D01*
X169072156Y-147205388D01*
X168800081Y-146798199D01*
X168392892Y-146526124D01*
X168033819Y-146454700D01*
X167791341Y-146454700D01*
X167432268Y-146526124D01*
X167025079Y-146798199D01*
X166753004Y-147205388D01*
X166657464Y-147685700D01*
X166627696Y-147685700D01*
X166532156Y-147205388D01*
X166260081Y-146798199D01*
X165852892Y-146526124D01*
X165493819Y-146454700D01*
X165251341Y-146454700D01*
X164892268Y-146526124D01*
X164485079Y-146798199D01*
X164213004Y-147205388D01*
X164117464Y-147685700D01*
X164087696Y-147685700D01*
X163992156Y-147205388D01*
X163720081Y-146798199D01*
X163312892Y-146526124D01*
X162953819Y-146454700D01*
X162711341Y-146454700D01*
X162352268Y-146526124D01*
X161945079Y-146798199D01*
X161673004Y-147205388D01*
X161577464Y-147685700D01*
X161547696Y-147685700D01*
X161452156Y-147205388D01*
X161180081Y-146798199D01*
X160772892Y-146526124D01*
X160413819Y-146454700D01*
X160171341Y-146454700D01*
X159812268Y-146526124D01*
X159405079Y-146798199D01*
X159133004Y-147205388D01*
X159037464Y-147685700D01*
X159007696Y-147685700D01*
X158912156Y-147205388D01*
X158640081Y-146798199D01*
X158232892Y-146526124D01*
X157873819Y-146454700D01*
X157631341Y-146454700D01*
X157272268Y-146526124D01*
X156865079Y-146798199D01*
X156593004Y-147205388D01*
X156497464Y-147685700D01*
X156467696Y-147685700D01*
X156372156Y-147205388D01*
X156100081Y-146798199D01*
X155692892Y-146526124D01*
X155333819Y-146454700D01*
X155091341Y-146454700D01*
X154732268Y-146526124D01*
X154325079Y-146798199D01*
X154053004Y-147205388D01*
X153957464Y-147685700D01*
X153911044Y-147685700D01*
X153911044Y-146835700D01*
X153881474Y-146687041D01*
X153797266Y-146561014D01*
X153671239Y-146476806D01*
X153522580Y-146447236D01*
X151822580Y-146447236D01*
X151673921Y-146476806D01*
X151547894Y-146561014D01*
X151463686Y-146687041D01*
X151434116Y-146835700D01*
X143739879Y-146835700D01*
X143750884Y-126286200D01*
X150581239Y-126286200D01*
X150594580Y-126353269D01*
X150594580Y-126421659D01*
X150620752Y-126484844D01*
X150634093Y-126551913D01*
X150672084Y-126608770D01*
X150698256Y-126671956D01*
X150746617Y-126720317D01*
X150784607Y-126777173D01*
X150841463Y-126815163D01*
X150889824Y-126863524D01*
X150953010Y-126889696D01*
X151009867Y-126927687D01*
X151076936Y-126941028D01*
X151140121Y-126967200D01*
X152895075Y-126967200D01*
X152962140Y-126980540D01*
X153029205Y-126967200D01*
X153029209Y-126967200D01*
X153227853Y-126927687D01*
X153453113Y-126777173D01*
X153491107Y-126720311D01*
X154366826Y-125844592D01*
X155766300Y-125844592D01*
X155771380Y-131341152D01*
X155796931Y-131477976D01*
X155876483Y-131603559D01*
X155998038Y-131689138D01*
X156143090Y-131721687D01*
X158017610Y-131767407D01*
X158176244Y-131737030D01*
X158299010Y-131653198D01*
X158380350Y-131528766D01*
X158407881Y-131382679D01*
X158352001Y-125840399D01*
X158323018Y-125698438D01*
X158240428Y-125574832D01*
X158116822Y-125492242D01*
X157971020Y-125463240D01*
X156147300Y-125463240D01*
X156001172Y-125492377D01*
X155877643Y-125575081D01*
X155795167Y-125698763D01*
X155766300Y-125844592D01*
X154366826Y-125844592D01*
X155731384Y-124480036D01*
X155779744Y-124431676D01*
X155805916Y-124368490D01*
X155843907Y-124311633D01*
X155857248Y-124244565D01*
X155883420Y-124181379D01*
X155883420Y-124112986D01*
X155896760Y-124045921D01*
X155883420Y-123978856D01*
X155883420Y-123910461D01*
X155857247Y-123847274D01*
X155843907Y-123780208D01*
X155805918Y-123723354D01*
X155779744Y-123660164D01*
X155731379Y-123611799D01*
X155693392Y-123554948D01*
X155636541Y-123516961D01*
X155588176Y-123468596D01*
X155524986Y-123442422D01*
X155468132Y-123404433D01*
X155401066Y-123391093D01*
X155337879Y-123364920D01*
X155269484Y-123364920D01*
X155202419Y-123351580D01*
X155135354Y-123364920D01*
X155066961Y-123364920D01*
X155003775Y-123391092D01*
X154936707Y-123404433D01*
X154879850Y-123442424D01*
X154816664Y-123468596D01*
X154768304Y-123516956D01*
X152680062Y-125605200D01*
X151140121Y-125605200D01*
X151076936Y-125631372D01*
X151009867Y-125644713D01*
X150953010Y-125682704D01*
X150889824Y-125708876D01*
X150841463Y-125757237D01*
X150784607Y-125795227D01*
X150746617Y-125852083D01*
X150698256Y-125900444D01*
X150672084Y-125963630D01*
X150634093Y-126020487D01*
X150620752Y-126087556D01*
X150594580Y-126150741D01*
X150594580Y-126219131D01*
X150581239Y-126286200D01*
X143750884Y-126286200D01*
X143753675Y-121074120D01*
X151246720Y-121074120D01*
X151260060Y-121141185D01*
X151260060Y-121209579D01*
X151286233Y-121272766D01*
X151299573Y-121339832D01*
X151337563Y-121396688D01*
X151363736Y-121459876D01*
X151412098Y-121508238D01*
X151450087Y-121565093D01*
X151506942Y-121603082D01*
X151555304Y-121651444D01*
X151618492Y-121677617D01*
X151675348Y-121715607D01*
X151742414Y-121728947D01*
X151805601Y-121755120D01*
X151873995Y-121755120D01*
X151941060Y-121768460D01*
X152008125Y-121755120D01*
X152076519Y-121755120D01*
X152139706Y-121728947D01*
X152206772Y-121715607D01*
X152263627Y-121677618D01*
X152326816Y-121651444D01*
X152518384Y-121459876D01*
X152518385Y-121459873D01*
X152523137Y-121455121D01*
X154325703Y-121455121D01*
X167780220Y-134909639D01*
X167780221Y-141987450D01*
X167766880Y-142054520D01*
X167819733Y-142320232D01*
X167819734Y-142320233D01*
X167970248Y-142545493D01*
X168027107Y-142583485D01*
X169184956Y-143741335D01*
X169136504Y-143984920D01*
X169232044Y-144465232D01*
X169504119Y-144872421D01*
X169911308Y-145144496D01*
X170270381Y-145215920D01*
X170512859Y-145215920D01*
X170871932Y-145144496D01*
X171279121Y-144872421D01*
X171551196Y-144465232D01*
X171646736Y-143984920D01*
X171551196Y-143504608D01*
X171279121Y-143097419D01*
X171028441Y-142929920D01*
X171367929Y-142929920D01*
X171601318Y-142833247D01*
X171779947Y-142654619D01*
X171876620Y-142421230D01*
X171876620Y-141730670D01*
X171717870Y-141571920D01*
X170518620Y-141571920D01*
X170518620Y-141591920D01*
X170264620Y-141591920D01*
X170264620Y-141571920D01*
X170244620Y-141571920D01*
X170244620Y-141317920D01*
X170264620Y-141317920D01*
X170264620Y-140118670D01*
X170518620Y-140118670D01*
X170518620Y-141317920D01*
X171717870Y-141317920D01*
X171876620Y-141159170D01*
X171876620Y-140468610D01*
X171779947Y-140235221D01*
X171601318Y-140056593D01*
X171367929Y-139959920D01*
X170677370Y-139959920D01*
X170518620Y-140118670D01*
X170264620Y-140118670D01*
X170105870Y-139959920D01*
X169415311Y-139959920D01*
X169181922Y-140056593D01*
X169142220Y-140096295D01*
X169142220Y-137631497D01*
X169196175Y-137761764D01*
X169586462Y-138190023D01*
X170110928Y-138436326D01*
X170340820Y-138315659D01*
X170340820Y-137121840D01*
X170594820Y-137121840D01*
X170594820Y-138315659D01*
X170824712Y-138436326D01*
X171349178Y-138190023D01*
X171739465Y-137761764D01*
X171909296Y-137351730D01*
X171787975Y-137121840D01*
X170594820Y-137121840D01*
X170340820Y-137121840D01*
X170320820Y-137121840D01*
X170320820Y-136867840D01*
X170340820Y-136867840D01*
X170340820Y-134581840D01*
X170594820Y-134581840D01*
X170594820Y-136867840D01*
X171787975Y-136867840D01*
X171909296Y-136637950D01*
X171739465Y-136227916D01*
X171349178Y-135799657D01*
X171189866Y-135724840D01*
X171349178Y-135650023D01*
X171739465Y-135221764D01*
X171909296Y-134811730D01*
X171787975Y-134581840D01*
X170594820Y-134581840D01*
X170340820Y-134581840D01*
X170320820Y-134581840D01*
X170320820Y-134327840D01*
X170340820Y-134327840D01*
X170340820Y-132041840D01*
X170594820Y-132041840D01*
X170594820Y-134327840D01*
X171787975Y-134327840D01*
X171909296Y-134097950D01*
X171739465Y-133687916D01*
X171349178Y-133259657D01*
X171189866Y-133184840D01*
X171349178Y-133110023D01*
X171739465Y-132681764D01*
X171909296Y-132271730D01*
X171787975Y-132041840D01*
X170594820Y-132041840D01*
X170340820Y-132041840D01*
X169147665Y-132041840D01*
X169026344Y-132271730D01*
X169196175Y-132681764D01*
X169586462Y-133110023D01*
X169745774Y-133184840D01*
X169586462Y-133259657D01*
X169196175Y-133687916D01*
X169026344Y-134097950D01*
X169147664Y-134327838D01*
X169079983Y-134327838D01*
X168952192Y-134136587D01*
X168895336Y-134098597D01*
X164457329Y-129660590D01*
X168982820Y-129660590D01*
X168982820Y-130351150D01*
X169079493Y-130584539D01*
X169258122Y-130763167D01*
X169467698Y-130849976D01*
X169196175Y-131147916D01*
X169026344Y-131557950D01*
X169147665Y-131787840D01*
X170340820Y-131787840D01*
X170340820Y-129501840D01*
X170594820Y-129501840D01*
X170594820Y-131787840D01*
X171787975Y-131787840D01*
X171909296Y-131557950D01*
X171739465Y-131147916D01*
X171467942Y-130849976D01*
X171677518Y-130763167D01*
X171856147Y-130584539D01*
X171952820Y-130351150D01*
X171952820Y-129660590D01*
X171794070Y-129501840D01*
X170594820Y-129501840D01*
X170340820Y-129501840D01*
X169141570Y-129501840D01*
X168982820Y-129660590D01*
X164457329Y-129660590D01*
X163195269Y-128398530D01*
X168982820Y-128398530D01*
X168982820Y-129089090D01*
X169141570Y-129247840D01*
X170340820Y-129247840D01*
X170340820Y-128048590D01*
X170594820Y-128048590D01*
X170594820Y-129247840D01*
X171794070Y-129247840D01*
X171952820Y-129089090D01*
X171952820Y-128398530D01*
X171856147Y-128165141D01*
X171677518Y-127986513D01*
X171444129Y-127889840D01*
X170753570Y-127889840D01*
X170594820Y-128048590D01*
X170340820Y-128048590D01*
X170182070Y-127889840D01*
X169491511Y-127889840D01*
X169258122Y-127986513D01*
X169079493Y-128165141D01*
X168982820Y-128398530D01*
X163195269Y-128398530D01*
X155136748Y-120340010D01*
X155098754Y-120283148D01*
X154873494Y-120132634D01*
X154674850Y-120093121D01*
X154674846Y-120093121D01*
X154607781Y-120079781D01*
X154540716Y-120093121D01*
X152308124Y-120093121D01*
X152241059Y-120079781D01*
X152173994Y-120093121D01*
X152173990Y-120093121D01*
X151975346Y-120132634D01*
X151750086Y-120283148D01*
X151712092Y-120340010D01*
X151555307Y-120496795D01*
X151555304Y-120496796D01*
X151363736Y-120688364D01*
X151337562Y-120751553D01*
X151299573Y-120808408D01*
X151286233Y-120875474D01*
X151260060Y-120938661D01*
X151260060Y-121007055D01*
X151246720Y-121074120D01*
X143753675Y-121074120D01*
X143757112Y-114658192D01*
X160958091Y-114673406D01*
X161006700Y-114663782D01*
X161015214Y-114658104D01*
X173517273Y-114663347D01*
X173565878Y-114653700D01*
X173607091Y-114626187D01*
X173634638Y-114584997D01*
X173644325Y-114535905D01*
X173639397Y-113120130D01*
X174035224Y-113120130D01*
X174205055Y-113530164D01*
X174595342Y-113958423D01*
X174821805Y-114064776D01*
X174626700Y-114064776D01*
X174478041Y-114094346D01*
X174352014Y-114178554D01*
X174267806Y-114304581D01*
X174238236Y-114453240D01*
X174238236Y-116153240D01*
X174267806Y-116301899D01*
X174352014Y-116427926D01*
X174478041Y-116512134D01*
X174626700Y-116541704D01*
X176326700Y-116541704D01*
X176475359Y-116512134D01*
X176601386Y-116427926D01*
X176685594Y-116301899D01*
X176715164Y-116153240D01*
X176715164Y-114453240D01*
X176685594Y-114304581D01*
X176601386Y-114178554D01*
X176475359Y-114094346D01*
X176326700Y-114064776D01*
X176131595Y-114064776D01*
X176358058Y-113958423D01*
X176748345Y-113530164D01*
X176918176Y-113120130D01*
X176796855Y-112890240D01*
X175603700Y-112890240D01*
X175603700Y-112910240D01*
X175349700Y-112910240D01*
X175349700Y-112890240D01*
X174156545Y-112890240D01*
X174035224Y-113120130D01*
X173639397Y-113120130D01*
X173636913Y-112406350D01*
X174035224Y-112406350D01*
X174156545Y-112636240D01*
X175349700Y-112636240D01*
X175349700Y-111442421D01*
X175603700Y-111442421D01*
X175603700Y-112636240D01*
X176796855Y-112636240D01*
X176918176Y-112406350D01*
X176748345Y-111996316D01*
X176358058Y-111568057D01*
X175833592Y-111321754D01*
X175603700Y-111442421D01*
X175349700Y-111442421D01*
X175119808Y-111321754D01*
X174595342Y-111568057D01*
X174205055Y-111996316D01*
X174035224Y-112406350D01*
X173636913Y-112406350D01*
X173621661Y-108024890D01*
X174053004Y-108024890D01*
X174222835Y-108434924D01*
X174613122Y-108863183D01*
X175137588Y-109109486D01*
X175367480Y-108988819D01*
X175367480Y-107795000D01*
X175621480Y-107795000D01*
X175621480Y-108988819D01*
X175851372Y-109109486D01*
X176375838Y-108863183D01*
X176766125Y-108434924D01*
X176935956Y-108024890D01*
X176814635Y-107795000D01*
X175621480Y-107795000D01*
X175367480Y-107795000D01*
X174174325Y-107795000D01*
X174053004Y-108024890D01*
X173621661Y-108024890D01*
X173612819Y-105484890D01*
X174053004Y-105484890D01*
X174222835Y-105894924D01*
X174613122Y-106323183D01*
X174772434Y-106398000D01*
X174613122Y-106472817D01*
X174222835Y-106901076D01*
X174053004Y-107311110D01*
X174174325Y-107541000D01*
X175367480Y-107541000D01*
X175367480Y-105255000D01*
X174174325Y-105255000D01*
X174053004Y-105484890D01*
X173612819Y-105484890D01*
X173603729Y-102873750D01*
X174009480Y-102873750D01*
X174009480Y-103564310D01*
X174106153Y-103797699D01*
X174284782Y-103976327D01*
X174494358Y-104063136D01*
X174222835Y-104361076D01*
X174053004Y-104771110D01*
X174174325Y-105001000D01*
X175367480Y-105001000D01*
X175367480Y-102715000D01*
X174168230Y-102715000D01*
X174009480Y-102873750D01*
X173603729Y-102873750D01*
X173599336Y-101611690D01*
X174009480Y-101611690D01*
X174009480Y-102302250D01*
X174168230Y-102461000D01*
X175367480Y-102461000D01*
X175367480Y-101261750D01*
X175208730Y-101103000D01*
X174518171Y-101103000D01*
X174284782Y-101199673D01*
X174106153Y-101378301D01*
X174009480Y-101611690D01*
X173599336Y-101611690D01*
X173590733Y-99139950D01*
X174032340Y-99139950D01*
X174032340Y-99830510D01*
X174129013Y-100063899D01*
X174307642Y-100242527D01*
X174541031Y-100339200D01*
X175231590Y-100339200D01*
X175390340Y-100180450D01*
X175390340Y-98981200D01*
X174191090Y-98981200D01*
X174032340Y-99139950D01*
X173590733Y-99139950D01*
X173586339Y-97877890D01*
X174032340Y-97877890D01*
X174032340Y-98568450D01*
X174191090Y-98727200D01*
X175390340Y-98727200D01*
X175390340Y-98707200D01*
X175644340Y-98707200D01*
X175644340Y-98727200D01*
X175664340Y-98727200D01*
X175664340Y-98981200D01*
X175644340Y-98981200D01*
X175644340Y-100180450D01*
X175803090Y-100339200D01*
X176493649Y-100339200D01*
X176727038Y-100242527D01*
X176776901Y-100192665D01*
X176776901Y-101272395D01*
X176704178Y-101199673D01*
X176470789Y-101103000D01*
X175780230Y-101103000D01*
X175621480Y-101261750D01*
X175621480Y-102461000D01*
X175641480Y-102461000D01*
X175641480Y-102715000D01*
X175621480Y-102715000D01*
X175621480Y-105001000D01*
X175641480Y-105001000D01*
X175641480Y-105255000D01*
X175621480Y-105255000D01*
X175621480Y-107541000D01*
X176814635Y-107541000D01*
X176935956Y-107311110D01*
X176766125Y-106901076D01*
X176375838Y-106472817D01*
X176216526Y-106398000D01*
X176375838Y-106323183D01*
X176766125Y-105894924D01*
X176788649Y-105840542D01*
X176816413Y-105980119D01*
X176966927Y-106205379D01*
X177023787Y-106243372D01*
X190810649Y-120030236D01*
X190848639Y-120087092D01*
X190905495Y-120125082D01*
X190905496Y-120125083D01*
X191073899Y-120237606D01*
X191272543Y-120277119D01*
X191272546Y-120277119D01*
X191339611Y-120290459D01*
X191406676Y-120277119D01*
X193590676Y-120277119D01*
X193657741Y-120290459D01*
X193724806Y-120277119D01*
X193724810Y-120277119D01*
X193923454Y-120237606D01*
X194148714Y-120087092D01*
X194186708Y-120030230D01*
X194343493Y-119873445D01*
X194343496Y-119873444D01*
X194535064Y-119681876D01*
X194561237Y-119618688D01*
X194599227Y-119561833D01*
X194612567Y-119494765D01*
X194638740Y-119431579D01*
X194638740Y-119363185D01*
X194652080Y-119296120D01*
X194638740Y-119229055D01*
X194638740Y-119160661D01*
X194612567Y-119097474D01*
X194599227Y-119030408D01*
X194561237Y-118973552D01*
X194535064Y-118910364D01*
X194486702Y-118862002D01*
X194448713Y-118805147D01*
X194391858Y-118767158D01*
X194343496Y-118718796D01*
X194280308Y-118692623D01*
X194223452Y-118654633D01*
X194156386Y-118641293D01*
X194093199Y-118615120D01*
X194024805Y-118615120D01*
X193957740Y-118601780D01*
X193890675Y-118615120D01*
X193822281Y-118615120D01*
X193759095Y-118641293D01*
X193692027Y-118654633D01*
X193635172Y-118692623D01*
X193571984Y-118718796D01*
X193380416Y-118910364D01*
X193380415Y-118910367D01*
X193375663Y-118915119D01*
X191621692Y-118915119D01*
X188995333Y-116288760D01*
X190007120Y-116288760D01*
X190020460Y-116355825D01*
X190020460Y-116424219D01*
X190046633Y-116487406D01*
X190059973Y-116554472D01*
X190097963Y-116611328D01*
X190124136Y-116674516D01*
X190172498Y-116722878D01*
X190210487Y-116779733D01*
X190267342Y-116817722D01*
X190315704Y-116866084D01*
X190378892Y-116892257D01*
X190435748Y-116930247D01*
X190502814Y-116943587D01*
X190566001Y-116969760D01*
X190634395Y-116969760D01*
X190701460Y-116983100D01*
X190768525Y-116969760D01*
X190836919Y-116969760D01*
X190900106Y-116943587D01*
X190967172Y-116930247D01*
X191024027Y-116892258D01*
X191087216Y-116866084D01*
X191278784Y-116674516D01*
X191278785Y-116674513D01*
X193223820Y-114729480D01*
X194763759Y-114729480D01*
X194826944Y-114703308D01*
X194894013Y-114689967D01*
X194950870Y-114651976D01*
X195014056Y-114625804D01*
X195062417Y-114577443D01*
X195119273Y-114539453D01*
X195157264Y-114482596D01*
X195205624Y-114434236D01*
X195231796Y-114371050D01*
X195269787Y-114314193D01*
X195283128Y-114247124D01*
X195309300Y-114183939D01*
X195309300Y-114115548D01*
X195322641Y-114048480D01*
X195309300Y-113981411D01*
X195309300Y-113913021D01*
X195283128Y-113849836D01*
X195269787Y-113782767D01*
X195231796Y-113725910D01*
X195205624Y-113662724D01*
X195157263Y-113614363D01*
X195119273Y-113557507D01*
X195062417Y-113519517D01*
X195014056Y-113471156D01*
X194950870Y-113444984D01*
X194894013Y-113406993D01*
X194826944Y-113393652D01*
X194763759Y-113367480D01*
X193008804Y-113367480D01*
X192941739Y-113354140D01*
X192874674Y-113367480D01*
X192874671Y-113367480D01*
X192676027Y-113406993D01*
X192507624Y-113519516D01*
X192507623Y-113519517D01*
X192450767Y-113557507D01*
X192412777Y-113614363D01*
X190315707Y-115711435D01*
X190315704Y-115711436D01*
X190124136Y-115903004D01*
X190097962Y-115966193D01*
X190059973Y-116023048D01*
X190046633Y-116090114D01*
X190020460Y-116153301D01*
X190020460Y-116221695D01*
X190007120Y-116288760D01*
X188995333Y-116288760D01*
X181658573Y-108952001D01*
X187495999Y-108952001D01*
X187551879Y-114494281D01*
X187580862Y-114636242D01*
X187663452Y-114759848D01*
X187787058Y-114842438D01*
X187932860Y-114871440D01*
X189756580Y-114871440D01*
X189902708Y-114842303D01*
X190026237Y-114759599D01*
X190108713Y-114635917D01*
X190137580Y-114490088D01*
X190132500Y-108993528D01*
X190106949Y-108856704D01*
X190027397Y-108731121D01*
X189905842Y-108645542D01*
X189760790Y-108612993D01*
X187886270Y-108567273D01*
X187727636Y-108597650D01*
X187604870Y-108681482D01*
X187523530Y-108805914D01*
X187495999Y-108952001D01*
X181658573Y-108952001D01*
X178138900Y-105432329D01*
X178138900Y-98321824D01*
X178152240Y-98254759D01*
X178138900Y-98187694D01*
X178138900Y-98187691D01*
X178099387Y-97989047D01*
X177948873Y-97763787D01*
X177892014Y-97725795D01*
X176724004Y-96557785D01*
X176772456Y-96314200D01*
X176676916Y-95833888D01*
X176404841Y-95426699D01*
X175997652Y-95154624D01*
X175638579Y-95083200D01*
X175396101Y-95083200D01*
X175037028Y-95154624D01*
X174629839Y-95426699D01*
X174357764Y-95833888D01*
X174262224Y-96314200D01*
X174357764Y-96794512D01*
X174629839Y-97201701D01*
X174880519Y-97369200D01*
X174541031Y-97369200D01*
X174307642Y-97465873D01*
X174129013Y-97644501D01*
X174032340Y-97877890D01*
X173586339Y-97877890D01*
X173564718Y-91666900D01*
X174294116Y-91666900D01*
X174294116Y-93366900D01*
X174323686Y-93515559D01*
X174407894Y-93641586D01*
X174533921Y-93725794D01*
X174682580Y-93755364D01*
X176382580Y-93755364D01*
X176531239Y-93725794D01*
X176657266Y-93641586D01*
X176741474Y-93515559D01*
X176771044Y-93366900D01*
X176771044Y-92516900D01*
X176817464Y-92516900D01*
X176913004Y-92997212D01*
X177185079Y-93404401D01*
X177592268Y-93676476D01*
X177951341Y-93747900D01*
X178193819Y-93747900D01*
X178552892Y-93676476D01*
X178960081Y-93404401D01*
X179232156Y-92997212D01*
X179327696Y-92516900D01*
X179357464Y-92516900D01*
X179453004Y-92997212D01*
X179725079Y-93404401D01*
X180132268Y-93676476D01*
X180491341Y-93747900D01*
X180733819Y-93747900D01*
X181092892Y-93676476D01*
X181500081Y-93404401D01*
X181772156Y-92997212D01*
X181867696Y-92516900D01*
X181897464Y-92516900D01*
X181993004Y-92997212D01*
X182265079Y-93404401D01*
X182672268Y-93676476D01*
X183031341Y-93747900D01*
X183273819Y-93747900D01*
X183632892Y-93676476D01*
X184040081Y-93404401D01*
X184312156Y-92997212D01*
X184407696Y-92516900D01*
X184437464Y-92516900D01*
X184533004Y-92997212D01*
X184805079Y-93404401D01*
X185212268Y-93676476D01*
X185571341Y-93747900D01*
X185813819Y-93747900D01*
X186172892Y-93676476D01*
X186580081Y-93404401D01*
X186852156Y-92997212D01*
X186947696Y-92516900D01*
X186852156Y-92036588D01*
X186580081Y-91629399D01*
X186172892Y-91357324D01*
X185813819Y-91285900D01*
X185571341Y-91285900D01*
X185212268Y-91357324D01*
X184805079Y-91629399D01*
X184533004Y-92036588D01*
X184437464Y-92516900D01*
X184407696Y-92516900D01*
X184312156Y-92036588D01*
X184040081Y-91629399D01*
X183632892Y-91357324D01*
X183273819Y-91285900D01*
X183031341Y-91285900D01*
X182672268Y-91357324D01*
X182265079Y-91629399D01*
X181993004Y-92036588D01*
X181897464Y-92516900D01*
X181867696Y-92516900D01*
X181772156Y-92036588D01*
X181500081Y-91629399D01*
X181092892Y-91357324D01*
X180733819Y-91285900D01*
X180491341Y-91285900D01*
X180132268Y-91357324D01*
X179725079Y-91629399D01*
X179453004Y-92036588D01*
X179357464Y-92516900D01*
X179327696Y-92516900D01*
X179232156Y-92036588D01*
X178960081Y-91629399D01*
X178552892Y-91357324D01*
X178193819Y-91285900D01*
X177951341Y-91285900D01*
X177592268Y-91357324D01*
X177185079Y-91629399D01*
X176913004Y-92036588D01*
X176817464Y-92516900D01*
X176771044Y-92516900D01*
X176771044Y-91666900D01*
X176741474Y-91518241D01*
X176657266Y-91392214D01*
X176531239Y-91308006D01*
X176382580Y-91278436D01*
X174682580Y-91278436D01*
X174533921Y-91308006D01*
X174407894Y-91392214D01*
X174323686Y-91518241D01*
X174294116Y-91666900D01*
X173564718Y-91666900D01*
X173551823Y-87962792D01*
X202166952Y-87987968D01*
X202166952Y-87987968D01*
G37*
X202166952Y-87987968D02*
X202146768Y-125676488D01*
X195289386Y-125670422D01*
X195240777Y-125680046D01*
X195231124Y-125686484D01*
X189672541Y-125665455D01*
X189672173Y-125665454D01*
X173652460Y-125651285D01*
X173645786Y-125641371D01*
X173604488Y-125613984D01*
X173556777Y-125604487D01*
X172386785Y-125600061D01*
X172338148Y-125609544D01*
X172296843Y-125636918D01*
X172269157Y-125678016D01*
X172259306Y-125727502D01*
X172352057Y-152371888D01*
X143736928Y-152346712D01*
X143739879Y-146835700D01*
X151434116Y-146835700D01*
X151434116Y-148535700D01*
X151463686Y-148684359D01*
X151547894Y-148810386D01*
X151673921Y-148894594D01*
X151822580Y-148924164D01*
X153522580Y-148924164D01*
X153671239Y-148894594D01*
X153797266Y-148810386D01*
X153881474Y-148684359D01*
X153911044Y-148535700D01*
X153911044Y-147685700D01*
X153957464Y-147685700D01*
X154053004Y-148166012D01*
X154325079Y-148573201D01*
X154732268Y-148845276D01*
X155091341Y-148916700D01*
X155333819Y-148916700D01*
X155692892Y-148845276D01*
X156100081Y-148573201D01*
X156372156Y-148166012D01*
X156467696Y-147685700D01*
X156497464Y-147685700D01*
X156593004Y-148166012D01*
X156865079Y-148573201D01*
X157272268Y-148845276D01*
X157631341Y-148916700D01*
X157873819Y-148916700D01*
X158232892Y-148845276D01*
X158640081Y-148573201D01*
X158912156Y-148166012D01*
X159007696Y-147685700D01*
X159037464Y-147685700D01*
X159133004Y-148166012D01*
X159405079Y-148573201D01*
X159812268Y-148845276D01*
X160171341Y-148916700D01*
X160413819Y-148916700D01*
X160772892Y-148845276D01*
X161180081Y-148573201D01*
X161452156Y-148166012D01*
X161547696Y-147685700D01*
X161577464Y-147685700D01*
X161673004Y-148166012D01*
X161945079Y-148573201D01*
X162352268Y-148845276D01*
X162711341Y-148916700D01*
X162953819Y-148916700D01*
X163312892Y-148845276D01*
X163720081Y-148573201D01*
X163992156Y-148166012D01*
X164087696Y-147685700D01*
X164117464Y-147685700D01*
X164213004Y-148166012D01*
X164485079Y-148573201D01*
X164892268Y-148845276D01*
X165251341Y-148916700D01*
X165493819Y-148916700D01*
X165852892Y-148845276D01*
X166260081Y-148573201D01*
X166532156Y-148166012D01*
X166627696Y-147685700D01*
X166657464Y-147685700D01*
X166753004Y-148166012D01*
X167025079Y-148573201D01*
X167432268Y-148845276D01*
X167791341Y-148916700D01*
X168033819Y-148916700D01*
X168392892Y-148845276D01*
X168800081Y-148573201D01*
X169072156Y-148166012D01*
X169167696Y-147685700D01*
X169197464Y-147685700D01*
X169293004Y-148166012D01*
X169565079Y-148573201D01*
X169972268Y-148845276D01*
X170331341Y-148916700D01*
X170573819Y-148916700D01*
X170932892Y-148845276D01*
X171340081Y-148573201D01*
X171612156Y-148166012D01*
X171707696Y-147685700D01*
X171612156Y-147205388D01*
X171340081Y-146798199D01*
X170932892Y-146526124D01*
X170573819Y-146454700D01*
X170331341Y-146454700D01*
X169972268Y-146526124D01*
X169565079Y-146798199D01*
X169293004Y-147205388D01*
X169197464Y-147685700D01*
X169167696Y-147685700D01*
X169072156Y-147205388D01*
X168800081Y-146798199D01*
X168392892Y-146526124D01*
X168033819Y-146454700D01*
X167791341Y-146454700D01*
X167432268Y-146526124D01*
X167025079Y-146798199D01*
X166753004Y-147205388D01*
X166657464Y-147685700D01*
X166627696Y-147685700D01*
X166532156Y-147205388D01*
X166260081Y-146798199D01*
X165852892Y-146526124D01*
X165493819Y-146454700D01*
X165251341Y-146454700D01*
X164892268Y-146526124D01*
X164485079Y-146798199D01*
X164213004Y-147205388D01*
X164117464Y-147685700D01*
X164087696Y-147685700D01*
X163992156Y-147205388D01*
X163720081Y-146798199D01*
X163312892Y-146526124D01*
X162953819Y-146454700D01*
X162711341Y-146454700D01*
X162352268Y-146526124D01*
X161945079Y-146798199D01*
X161673004Y-147205388D01*
X161577464Y-147685700D01*
X161547696Y-147685700D01*
X161452156Y-147205388D01*
X161180081Y-146798199D01*
X160772892Y-146526124D01*
X160413819Y-146454700D01*
X160171341Y-146454700D01*
X159812268Y-146526124D01*
X159405079Y-146798199D01*
X159133004Y-147205388D01*
X159037464Y-147685700D01*
X159007696Y-147685700D01*
X158912156Y-147205388D01*
X158640081Y-146798199D01*
X158232892Y-146526124D01*
X157873819Y-146454700D01*
X157631341Y-146454700D01*
X157272268Y-146526124D01*
X156865079Y-146798199D01*
X156593004Y-147205388D01*
X156497464Y-147685700D01*
X156467696Y-147685700D01*
X156372156Y-147205388D01*
X156100081Y-146798199D01*
X155692892Y-146526124D01*
X155333819Y-146454700D01*
X155091341Y-146454700D01*
X154732268Y-146526124D01*
X154325079Y-146798199D01*
X154053004Y-147205388D01*
X153957464Y-147685700D01*
X153911044Y-147685700D01*
X153911044Y-146835700D01*
X153881474Y-146687041D01*
X153797266Y-146561014D01*
X153671239Y-146476806D01*
X153522580Y-146447236D01*
X151822580Y-146447236D01*
X151673921Y-146476806D01*
X151547894Y-146561014D01*
X151463686Y-146687041D01*
X151434116Y-146835700D01*
X143739879Y-146835700D01*
X143750884Y-126286200D01*
X150581239Y-126286200D01*
X150594580Y-126353269D01*
X150594580Y-126421659D01*
X150620752Y-126484844D01*
X150634093Y-126551913D01*
X150672084Y-126608770D01*
X150698256Y-126671956D01*
X150746617Y-126720317D01*
X150784607Y-126777173D01*
X150841463Y-126815163D01*
X150889824Y-126863524D01*
X150953010Y-126889696D01*
X151009867Y-126927687D01*
X151076936Y-126941028D01*
X151140121Y-126967200D01*
X152895075Y-126967200D01*
X152962140Y-126980540D01*
X153029205Y-126967200D01*
X153029209Y-126967200D01*
X153227853Y-126927687D01*
X153453113Y-126777173D01*
X153491107Y-126720311D01*
X154366826Y-125844592D01*
X155766300Y-125844592D01*
X155771380Y-131341152D01*
X155796931Y-131477976D01*
X155876483Y-131603559D01*
X155998038Y-131689138D01*
X156143090Y-131721687D01*
X158017610Y-131767407D01*
X158176244Y-131737030D01*
X158299010Y-131653198D01*
X158380350Y-131528766D01*
X158407881Y-131382679D01*
X158352001Y-125840399D01*
X158323018Y-125698438D01*
X158240428Y-125574832D01*
X158116822Y-125492242D01*
X157971020Y-125463240D01*
X156147300Y-125463240D01*
X156001172Y-125492377D01*
X155877643Y-125575081D01*
X155795167Y-125698763D01*
X155766300Y-125844592D01*
X154366826Y-125844592D01*
X155731384Y-124480036D01*
X155779744Y-124431676D01*
X155805916Y-124368490D01*
X155843907Y-124311633D01*
X155857248Y-124244565D01*
X155883420Y-124181379D01*
X155883420Y-124112986D01*
X155896760Y-124045921D01*
X155883420Y-123978856D01*
X155883420Y-123910461D01*
X155857247Y-123847274D01*
X155843907Y-123780208D01*
X155805918Y-123723354D01*
X155779744Y-123660164D01*
X155731379Y-123611799D01*
X155693392Y-123554948D01*
X155636541Y-123516961D01*
X155588176Y-123468596D01*
X155524986Y-123442422D01*
X155468132Y-123404433D01*
X155401066Y-123391093D01*
X155337879Y-123364920D01*
X155269484Y-123364920D01*
X155202419Y-123351580D01*
X155135354Y-123364920D01*
X155066961Y-123364920D01*
X155003775Y-123391092D01*
X154936707Y-123404433D01*
X154879850Y-123442424D01*
X154816664Y-123468596D01*
X154768304Y-123516956D01*
X152680062Y-125605200D01*
X151140121Y-125605200D01*
X151076936Y-125631372D01*
X151009867Y-125644713D01*
X150953010Y-125682704D01*
X150889824Y-125708876D01*
X150841463Y-125757237D01*
X150784607Y-125795227D01*
X150746617Y-125852083D01*
X150698256Y-125900444D01*
X150672084Y-125963630D01*
X150634093Y-126020487D01*
X150620752Y-126087556D01*
X150594580Y-126150741D01*
X150594580Y-126219131D01*
X150581239Y-126286200D01*
X143750884Y-126286200D01*
X143753675Y-121074120D01*
X151246720Y-121074120D01*
X151260060Y-121141185D01*
X151260060Y-121209579D01*
X151286233Y-121272766D01*
X151299573Y-121339832D01*
X151337563Y-121396688D01*
X151363736Y-121459876D01*
X151412098Y-121508238D01*
X151450087Y-121565093D01*
X151506942Y-121603082D01*
X151555304Y-121651444D01*
X151618492Y-121677617D01*
X151675348Y-121715607D01*
X151742414Y-121728947D01*
X151805601Y-121755120D01*
X151873995Y-121755120D01*
X151941060Y-121768460D01*
X152008125Y-121755120D01*
X152076519Y-121755120D01*
X152139706Y-121728947D01*
X152206772Y-121715607D01*
X152263627Y-121677618D01*
X152326816Y-121651444D01*
X152518384Y-121459876D01*
X152518385Y-121459873D01*
X152523137Y-121455121D01*
X154325703Y-121455121D01*
X167780220Y-134909639D01*
X167780221Y-141987450D01*
X167766880Y-142054520D01*
X167819733Y-142320232D01*
X167819734Y-142320233D01*
X167970248Y-142545493D01*
X168027107Y-142583485D01*
X169184956Y-143741335D01*
X169136504Y-143984920D01*
X169232044Y-144465232D01*
X169504119Y-144872421D01*
X169911308Y-145144496D01*
X170270381Y-145215920D01*
X170512859Y-145215920D01*
X170871932Y-145144496D01*
X171279121Y-144872421D01*
X171551196Y-144465232D01*
X171646736Y-143984920D01*
X171551196Y-143504608D01*
X171279121Y-143097419D01*
X171028441Y-142929920D01*
X171367929Y-142929920D01*
X171601318Y-142833247D01*
X171779947Y-142654619D01*
X171876620Y-142421230D01*
X171876620Y-141730670D01*
X171717870Y-141571920D01*
X170518620Y-141571920D01*
X170518620Y-141591920D01*
X170264620Y-141591920D01*
X170264620Y-141571920D01*
X170244620Y-141571920D01*
X170244620Y-141317920D01*
X170264620Y-141317920D01*
X170264620Y-140118670D01*
X170518620Y-140118670D01*
X170518620Y-141317920D01*
X171717870Y-141317920D01*
X171876620Y-141159170D01*
X171876620Y-140468610D01*
X171779947Y-140235221D01*
X171601318Y-140056593D01*
X171367929Y-139959920D01*
X170677370Y-139959920D01*
X170518620Y-140118670D01*
X170264620Y-140118670D01*
X170105870Y-139959920D01*
X169415311Y-139959920D01*
X169181922Y-140056593D01*
X169142220Y-140096295D01*
X169142220Y-137631497D01*
X169196175Y-137761764D01*
X169586462Y-138190023D01*
X170110928Y-138436326D01*
X170340820Y-138315659D01*
X170340820Y-137121840D01*
X170594820Y-137121840D01*
X170594820Y-138315659D01*
X170824712Y-138436326D01*
X171349178Y-138190023D01*
X171739465Y-137761764D01*
X171909296Y-137351730D01*
X171787975Y-137121840D01*
X170594820Y-137121840D01*
X170340820Y-137121840D01*
X170320820Y-137121840D01*
X170320820Y-136867840D01*
X170340820Y-136867840D01*
X170340820Y-134581840D01*
X170594820Y-134581840D01*
X170594820Y-136867840D01*
X171787975Y-136867840D01*
X171909296Y-136637950D01*
X171739465Y-136227916D01*
X171349178Y-135799657D01*
X171189866Y-135724840D01*
X171349178Y-135650023D01*
X171739465Y-135221764D01*
X171909296Y-134811730D01*
X171787975Y-134581840D01*
X170594820Y-134581840D01*
X170340820Y-134581840D01*
X170320820Y-134581840D01*
X170320820Y-134327840D01*
X170340820Y-134327840D01*
X170340820Y-132041840D01*
X170594820Y-132041840D01*
X170594820Y-134327840D01*
X171787975Y-134327840D01*
X171909296Y-134097950D01*
X171739465Y-133687916D01*
X171349178Y-133259657D01*
X171189866Y-133184840D01*
X171349178Y-133110023D01*
X171739465Y-132681764D01*
X171909296Y-132271730D01*
X171787975Y-132041840D01*
X170594820Y-132041840D01*
X170340820Y-132041840D01*
X169147665Y-132041840D01*
X169026344Y-132271730D01*
X169196175Y-132681764D01*
X169586462Y-133110023D01*
X169745774Y-133184840D01*
X169586462Y-133259657D01*
X169196175Y-133687916D01*
X169026344Y-134097950D01*
X169147664Y-134327838D01*
X169079983Y-134327838D01*
X168952192Y-134136587D01*
X168895336Y-134098597D01*
X164457329Y-129660590D01*
X168982820Y-129660590D01*
X168982820Y-130351150D01*
X169079493Y-130584539D01*
X169258122Y-130763167D01*
X169467698Y-130849976D01*
X169196175Y-131147916D01*
X169026344Y-131557950D01*
X169147665Y-131787840D01*
X170340820Y-131787840D01*
X170340820Y-129501840D01*
X170594820Y-129501840D01*
X170594820Y-131787840D01*
X171787975Y-131787840D01*
X171909296Y-131557950D01*
X171739465Y-131147916D01*
X171467942Y-130849976D01*
X171677518Y-130763167D01*
X171856147Y-130584539D01*
X171952820Y-130351150D01*
X171952820Y-129660590D01*
X171794070Y-129501840D01*
X170594820Y-129501840D01*
X170340820Y-129501840D01*
X169141570Y-129501840D01*
X168982820Y-129660590D01*
X164457329Y-129660590D01*
X163195269Y-128398530D01*
X168982820Y-128398530D01*
X168982820Y-129089090D01*
X169141570Y-129247840D01*
X170340820Y-129247840D01*
X170340820Y-128048590D01*
X170594820Y-128048590D01*
X170594820Y-129247840D01*
X171794070Y-129247840D01*
X171952820Y-129089090D01*
X171952820Y-128398530D01*
X171856147Y-128165141D01*
X171677518Y-127986513D01*
X171444129Y-127889840D01*
X170753570Y-127889840D01*
X170594820Y-128048590D01*
X170340820Y-128048590D01*
X170182070Y-127889840D01*
X169491511Y-127889840D01*
X169258122Y-127986513D01*
X169079493Y-128165141D01*
X168982820Y-128398530D01*
X163195269Y-128398530D01*
X155136748Y-120340010D01*
X155098754Y-120283148D01*
X154873494Y-120132634D01*
X154674850Y-120093121D01*
X154674846Y-120093121D01*
X154607781Y-120079781D01*
X154540716Y-120093121D01*
X152308124Y-120093121D01*
X152241059Y-120079781D01*
X152173994Y-120093121D01*
X152173990Y-120093121D01*
X151975346Y-120132634D01*
X151750086Y-120283148D01*
X151712092Y-120340010D01*
X151555307Y-120496795D01*
X151555304Y-120496796D01*
X151363736Y-120688364D01*
X151337562Y-120751553D01*
X151299573Y-120808408D01*
X151286233Y-120875474D01*
X151260060Y-120938661D01*
X151260060Y-121007055D01*
X151246720Y-121074120D01*
X143753675Y-121074120D01*
X143757112Y-114658192D01*
X160958091Y-114673406D01*
X161006700Y-114663782D01*
X161015214Y-114658104D01*
X173517273Y-114663347D01*
X173565878Y-114653700D01*
X173607091Y-114626187D01*
X173634638Y-114584997D01*
X173644325Y-114535905D01*
X173639397Y-113120130D01*
X174035224Y-113120130D01*
X174205055Y-113530164D01*
X174595342Y-113958423D01*
X174821805Y-114064776D01*
X174626700Y-114064776D01*
X174478041Y-114094346D01*
X174352014Y-114178554D01*
X174267806Y-114304581D01*
X174238236Y-114453240D01*
X174238236Y-116153240D01*
X174267806Y-116301899D01*
X174352014Y-116427926D01*
X174478041Y-116512134D01*
X174626700Y-116541704D01*
X176326700Y-116541704D01*
X176475359Y-116512134D01*
X176601386Y-116427926D01*
X176685594Y-116301899D01*
X176715164Y-116153240D01*
X176715164Y-114453240D01*
X176685594Y-114304581D01*
X176601386Y-114178554D01*
X176475359Y-114094346D01*
X176326700Y-114064776D01*
X176131595Y-114064776D01*
X176358058Y-113958423D01*
X176748345Y-113530164D01*
X176918176Y-113120130D01*
X176796855Y-112890240D01*
X175603700Y-112890240D01*
X175603700Y-112910240D01*
X175349700Y-112910240D01*
X175349700Y-112890240D01*
X174156545Y-112890240D01*
X174035224Y-113120130D01*
X173639397Y-113120130D01*
X173636913Y-112406350D01*
X174035224Y-112406350D01*
X174156545Y-112636240D01*
X175349700Y-112636240D01*
X175349700Y-111442421D01*
X175603700Y-111442421D01*
X175603700Y-112636240D01*
X176796855Y-112636240D01*
X176918176Y-112406350D01*
X176748345Y-111996316D01*
X176358058Y-111568057D01*
X175833592Y-111321754D01*
X175603700Y-111442421D01*
X175349700Y-111442421D01*
X175119808Y-111321754D01*
X174595342Y-111568057D01*
X174205055Y-111996316D01*
X174035224Y-112406350D01*
X173636913Y-112406350D01*
X173621661Y-108024890D01*
X174053004Y-108024890D01*
X174222835Y-108434924D01*
X174613122Y-108863183D01*
X175137588Y-109109486D01*
X175367480Y-108988819D01*
X175367480Y-107795000D01*
X175621480Y-107795000D01*
X175621480Y-108988819D01*
X175851372Y-109109486D01*
X176375838Y-108863183D01*
X176766125Y-108434924D01*
X176935956Y-108024890D01*
X176814635Y-107795000D01*
X175621480Y-107795000D01*
X175367480Y-107795000D01*
X174174325Y-107795000D01*
X174053004Y-108024890D01*
X173621661Y-108024890D01*
X173612819Y-105484890D01*
X174053004Y-105484890D01*
X174222835Y-105894924D01*
X174613122Y-106323183D01*
X174772434Y-106398000D01*
X174613122Y-106472817D01*
X174222835Y-106901076D01*
X174053004Y-107311110D01*
X174174325Y-107541000D01*
X175367480Y-107541000D01*
X175367480Y-105255000D01*
X174174325Y-105255000D01*
X174053004Y-105484890D01*
X173612819Y-105484890D01*
X173603729Y-102873750D01*
X174009480Y-102873750D01*
X174009480Y-103564310D01*
X174106153Y-103797699D01*
X174284782Y-103976327D01*
X174494358Y-104063136D01*
X174222835Y-104361076D01*
X174053004Y-104771110D01*
X174174325Y-105001000D01*
X175367480Y-105001000D01*
X175367480Y-102715000D01*
X174168230Y-102715000D01*
X174009480Y-102873750D01*
X173603729Y-102873750D01*
X173599336Y-101611690D01*
X174009480Y-101611690D01*
X174009480Y-102302250D01*
X174168230Y-102461000D01*
X175367480Y-102461000D01*
X175367480Y-101261750D01*
X175208730Y-101103000D01*
X174518171Y-101103000D01*
X174284782Y-101199673D01*
X174106153Y-101378301D01*
X174009480Y-101611690D01*
X173599336Y-101611690D01*
X173590733Y-99139950D01*
X174032340Y-99139950D01*
X174032340Y-99830510D01*
X174129013Y-100063899D01*
X174307642Y-100242527D01*
X174541031Y-100339200D01*
X175231590Y-100339200D01*
X175390340Y-100180450D01*
X175390340Y-98981200D01*
X174191090Y-98981200D01*
X174032340Y-99139950D01*
X173590733Y-99139950D01*
X173586339Y-97877890D01*
X174032340Y-97877890D01*
X174032340Y-98568450D01*
X174191090Y-98727200D01*
X175390340Y-98727200D01*
X175390340Y-98707200D01*
X175644340Y-98707200D01*
X175644340Y-98727200D01*
X175664340Y-98727200D01*
X175664340Y-98981200D01*
X175644340Y-98981200D01*
X175644340Y-100180450D01*
X175803090Y-100339200D01*
X176493649Y-100339200D01*
X176727038Y-100242527D01*
X176776901Y-100192665D01*
X176776901Y-101272395D01*
X176704178Y-101199673D01*
X176470789Y-101103000D01*
X175780230Y-101103000D01*
X175621480Y-101261750D01*
X175621480Y-102461000D01*
X175641480Y-102461000D01*
X175641480Y-102715000D01*
X175621480Y-102715000D01*
X175621480Y-105001000D01*
X175641480Y-105001000D01*
X175641480Y-105255000D01*
X175621480Y-105255000D01*
X175621480Y-107541000D01*
X176814635Y-107541000D01*
X176935956Y-107311110D01*
X176766125Y-106901076D01*
X176375838Y-106472817D01*
X176216526Y-106398000D01*
X176375838Y-106323183D01*
X176766125Y-105894924D01*
X176788649Y-105840542D01*
X176816413Y-105980119D01*
X176966927Y-106205379D01*
X177023787Y-106243372D01*
X190810649Y-120030236D01*
X190848639Y-120087092D01*
X190905495Y-120125082D01*
X190905496Y-120125083D01*
X191073899Y-120237606D01*
X191272543Y-120277119D01*
X191272546Y-120277119D01*
X191339611Y-120290459D01*
X191406676Y-120277119D01*
X193590676Y-120277119D01*
X193657741Y-120290459D01*
X193724806Y-120277119D01*
X193724810Y-120277119D01*
X193923454Y-120237606D01*
X194148714Y-120087092D01*
X194186708Y-120030230D01*
X194343493Y-119873445D01*
X194343496Y-119873444D01*
X194535064Y-119681876D01*
X194561237Y-119618688D01*
X194599227Y-119561833D01*
X194612567Y-119494765D01*
X194638740Y-119431579D01*
X194638740Y-119363185D01*
X194652080Y-119296120D01*
X194638740Y-119229055D01*
X194638740Y-119160661D01*
X194612567Y-119097474D01*
X194599227Y-119030408D01*
X194561237Y-118973552D01*
X194535064Y-118910364D01*
X194486702Y-118862002D01*
X194448713Y-118805147D01*
X194391858Y-118767158D01*
X194343496Y-118718796D01*
X194280308Y-118692623D01*
X194223452Y-118654633D01*
X194156386Y-118641293D01*
X194093199Y-118615120D01*
X194024805Y-118615120D01*
X193957740Y-118601780D01*
X193890675Y-118615120D01*
X193822281Y-118615120D01*
X193759095Y-118641293D01*
X193692027Y-118654633D01*
X193635172Y-118692623D01*
X193571984Y-118718796D01*
X193380416Y-118910364D01*
X193380415Y-118910367D01*
X193375663Y-118915119D01*
X191621692Y-118915119D01*
X188995333Y-116288760D01*
X190007120Y-116288760D01*
X190020460Y-116355825D01*
X190020460Y-116424219D01*
X190046633Y-116487406D01*
X190059973Y-116554472D01*
X190097963Y-116611328D01*
X190124136Y-116674516D01*
X190172498Y-116722878D01*
X190210487Y-116779733D01*
X190267342Y-116817722D01*
X190315704Y-116866084D01*
X190378892Y-116892257D01*
X190435748Y-116930247D01*
X190502814Y-116943587D01*
X190566001Y-116969760D01*
X190634395Y-116969760D01*
X190701460Y-116983100D01*
X190768525Y-116969760D01*
X190836919Y-116969760D01*
X190900106Y-116943587D01*
X190967172Y-116930247D01*
X191024027Y-116892258D01*
X191087216Y-116866084D01*
X191278784Y-116674516D01*
X191278785Y-116674513D01*
X193223820Y-114729480D01*
X194763759Y-114729480D01*
X194826944Y-114703308D01*
X194894013Y-114689967D01*
X194950870Y-114651976D01*
X195014056Y-114625804D01*
X195062417Y-114577443D01*
X195119273Y-114539453D01*
X195157264Y-114482596D01*
X195205624Y-114434236D01*
X195231796Y-114371050D01*
X195269787Y-114314193D01*
X195283128Y-114247124D01*
X195309300Y-114183939D01*
X195309300Y-114115548D01*
X195322641Y-114048480D01*
X195309300Y-113981411D01*
X195309300Y-113913021D01*
X195283128Y-113849836D01*
X195269787Y-113782767D01*
X195231796Y-113725910D01*
X195205624Y-113662724D01*
X195157263Y-113614363D01*
X195119273Y-113557507D01*
X195062417Y-113519517D01*
X195014056Y-113471156D01*
X194950870Y-113444984D01*
X194894013Y-113406993D01*
X194826944Y-113393652D01*
X194763759Y-113367480D01*
X193008804Y-113367480D01*
X192941739Y-113354140D01*
X192874674Y-113367480D01*
X192874671Y-113367480D01*
X192676027Y-113406993D01*
X192507624Y-113519516D01*
X192507623Y-113519517D01*
X192450767Y-113557507D01*
X192412777Y-113614363D01*
X190315707Y-115711435D01*
X190315704Y-115711436D01*
X190124136Y-115903004D01*
X190097962Y-115966193D01*
X190059973Y-116023048D01*
X190046633Y-116090114D01*
X190020460Y-116153301D01*
X190020460Y-116221695D01*
X190007120Y-116288760D01*
X188995333Y-116288760D01*
X181658573Y-108952001D01*
X187495999Y-108952001D01*
X187551879Y-114494281D01*
X187580862Y-114636242D01*
X187663452Y-114759848D01*
X187787058Y-114842438D01*
X187932860Y-114871440D01*
X189756580Y-114871440D01*
X189902708Y-114842303D01*
X190026237Y-114759599D01*
X190108713Y-114635917D01*
X190137580Y-114490088D01*
X190132500Y-108993528D01*
X190106949Y-108856704D01*
X190027397Y-108731121D01*
X189905842Y-108645542D01*
X189760790Y-108612993D01*
X187886270Y-108567273D01*
X187727636Y-108597650D01*
X187604870Y-108681482D01*
X187523530Y-108805914D01*
X187495999Y-108952001D01*
X181658573Y-108952001D01*
X178138900Y-105432329D01*
X178138900Y-98321824D01*
X178152240Y-98254759D01*
X178138900Y-98187694D01*
X178138900Y-98187691D01*
X178099387Y-97989047D01*
X177948873Y-97763787D01*
X177892014Y-97725795D01*
X176724004Y-96557785D01*
X176772456Y-96314200D01*
X176676916Y-95833888D01*
X176404841Y-95426699D01*
X175997652Y-95154624D01*
X175638579Y-95083200D01*
X175396101Y-95083200D01*
X175037028Y-95154624D01*
X174629839Y-95426699D01*
X174357764Y-95833888D01*
X174262224Y-96314200D01*
X174357764Y-96794512D01*
X174629839Y-97201701D01*
X174880519Y-97369200D01*
X174541031Y-97369200D01*
X174307642Y-97465873D01*
X174129013Y-97644501D01*
X174032340Y-97877890D01*
X173586339Y-97877890D01*
X173564718Y-91666900D01*
X174294116Y-91666900D01*
X174294116Y-93366900D01*
X174323686Y-93515559D01*
X174407894Y-93641586D01*
X174533921Y-93725794D01*
X174682580Y-93755364D01*
X176382580Y-93755364D01*
X176531239Y-93725794D01*
X176657266Y-93641586D01*
X176741474Y-93515559D01*
X176771044Y-93366900D01*
X176771044Y-92516900D01*
X176817464Y-92516900D01*
X176913004Y-92997212D01*
X177185079Y-93404401D01*
X177592268Y-93676476D01*
X177951341Y-93747900D01*
X178193819Y-93747900D01*
X178552892Y-93676476D01*
X178960081Y-93404401D01*
X179232156Y-92997212D01*
X179327696Y-92516900D01*
X179357464Y-92516900D01*
X179453004Y-92997212D01*
X179725079Y-93404401D01*
X180132268Y-93676476D01*
X180491341Y-93747900D01*
X180733819Y-93747900D01*
X181092892Y-93676476D01*
X181500081Y-93404401D01*
X181772156Y-92997212D01*
X181867696Y-92516900D01*
X181897464Y-92516900D01*
X181993004Y-92997212D01*
X182265079Y-93404401D01*
X182672268Y-93676476D01*
X183031341Y-93747900D01*
X183273819Y-93747900D01*
X183632892Y-93676476D01*
X184040081Y-93404401D01*
X184312156Y-92997212D01*
X184407696Y-92516900D01*
X184437464Y-92516900D01*
X184533004Y-92997212D01*
X184805079Y-93404401D01*
X185212268Y-93676476D01*
X185571341Y-93747900D01*
X185813819Y-93747900D01*
X186172892Y-93676476D01*
X186580081Y-93404401D01*
X186852156Y-92997212D01*
X186947696Y-92516900D01*
X186852156Y-92036588D01*
X186580081Y-91629399D01*
X186172892Y-91357324D01*
X185813819Y-91285900D01*
X185571341Y-91285900D01*
X185212268Y-91357324D01*
X184805079Y-91629399D01*
X184533004Y-92036588D01*
X184437464Y-92516900D01*
X184407696Y-92516900D01*
X184312156Y-92036588D01*
X184040081Y-91629399D01*
X183632892Y-91357324D01*
X183273819Y-91285900D01*
X183031341Y-91285900D01*
X182672268Y-91357324D01*
X182265079Y-91629399D01*
X181993004Y-92036588D01*
X181897464Y-92516900D01*
X181867696Y-92516900D01*
X181772156Y-92036588D01*
X181500081Y-91629399D01*
X181092892Y-91357324D01*
X180733819Y-91285900D01*
X180491341Y-91285900D01*
X180132268Y-91357324D01*
X179725079Y-91629399D01*
X179453004Y-92036588D01*
X179357464Y-92516900D01*
X179327696Y-92516900D01*
X179232156Y-92036588D01*
X178960081Y-91629399D01*
X178552892Y-91357324D01*
X178193819Y-91285900D01*
X177951341Y-91285900D01*
X177592268Y-91357324D01*
X177185079Y-91629399D01*
X176913004Y-92036588D01*
X176817464Y-92516900D01*
X176771044Y-92516900D01*
X176771044Y-91666900D01*
X176741474Y-91518241D01*
X176657266Y-91392214D01*
X176531239Y-91308006D01*
X176382580Y-91278436D01*
X174682580Y-91278436D01*
X174533921Y-91308006D01*
X174407894Y-91392214D01*
X174323686Y-91518241D01*
X174294116Y-91666900D01*
X173564718Y-91666900D01*
X173551823Y-87962792D01*
X202166952Y-87987968D01*
G04 #@! TO.N,Net-(C20-Pad1)*
G36*
X189624614Y-109117823D02*
X189629463Y-114363440D01*
X188058586Y-114363440D01*
X188005299Y-109078327D01*
X189624614Y-109117823D01*
X189624614Y-109117823D01*
G37*
X189624614Y-109117823D02*
X189629463Y-114363440D01*
X188058586Y-114363440D01*
X188005299Y-109078327D01*
X189624614Y-109117823D01*
G04 #@! TO.N,Net-(C17-Pad1)*
G36*
X157898581Y-131256353D02*
X156279266Y-131216857D01*
X156274417Y-125971240D01*
X157845294Y-125971240D01*
X157898581Y-131256353D01*
X157898581Y-131256353D01*
G37*
X157898581Y-131256353D02*
X156279266Y-131216857D01*
X156274417Y-125971240D01*
X157845294Y-125971240D01*
X157898581Y-131256353D01*
G04 #@! TD*
M02*
