G04 #@! TF.GenerationSoftware,KiCad,Pcbnew,5.0.1-33cea8e~68~ubuntu16.04.1*
G04 #@! TF.CreationDate,2018-10-29T02:33:34-07:00*
G04 #@! TF.ProjectId,integrated-board-design-2,696E74656772617465642D626F617264,rev?*
G04 #@! TF.SameCoordinates,Original*
G04 #@! TF.FileFunction,Legend,Bot*
G04 #@! TF.FilePolarity,Positive*
%FSLAX46Y46*%
G04 Gerber Fmt 4.6, Leading zero omitted, Abs format (unit mm)*
G04 Created by KiCad (PCBNEW 5.0.1-33cea8e~68~ubuntu16.04.1) date Mon 29 Oct 2018 02:33:34 AM PDT*
%MOMM*%
%LPD*%
G01*
G04 APERTURE LIST*
%ADD10C,0.190500*%
%ADD11C,0.203200*%
%ADD12C,0.304800*%
%ADD13C,0.146304*%
G04 APERTURE END LIST*
D10*
X102241062Y-102547038D02*
X103447562Y-102949205D01*
X102241062Y-103351372D01*
X103447562Y-103753538D02*
X102241062Y-103753538D01*
X103447562Y-104328062D02*
X102241062Y-104328062D01*
X103447562Y-105017491D01*
X102241062Y-105017491D01*
X103332657Y-105592014D02*
X103390110Y-105649467D01*
X103447562Y-105592014D01*
X103390110Y-105534562D01*
X103332657Y-105592014D01*
X103447562Y-105592014D01*
X102700681Y-105592014D02*
X102758134Y-105649467D01*
X102815586Y-105592014D01*
X102758134Y-105534562D01*
X102700681Y-105592014D01*
X102815586Y-105592014D01*
X102241062Y-106970872D02*
X102241062Y-107717753D01*
X102700681Y-107315586D01*
X102700681Y-107487943D01*
X102758134Y-107602848D01*
X102815586Y-107660300D01*
X102930491Y-107717753D01*
X103217753Y-107717753D01*
X103332657Y-107660300D01*
X103390110Y-107602848D01*
X103447562Y-107487943D01*
X103447562Y-107143229D01*
X103390110Y-107028324D01*
X103332657Y-106970872D01*
X103332657Y-108234824D02*
X103390110Y-108292276D01*
X103447562Y-108234824D01*
X103390110Y-108177372D01*
X103332657Y-108234824D01*
X103447562Y-108234824D01*
X102241062Y-108694443D02*
X102241062Y-109441324D01*
X102700681Y-109039157D01*
X102700681Y-109211514D01*
X102758134Y-109326419D01*
X102815586Y-109383872D01*
X102930491Y-109441324D01*
X103217753Y-109441324D01*
X103332657Y-109383872D01*
X103390110Y-109326419D01*
X103447562Y-109211514D01*
X103447562Y-108866800D01*
X103390110Y-108751895D01*
X103332657Y-108694443D01*
X102987943Y-109958395D02*
X102987943Y-110877634D01*
X102241062Y-112026681D02*
X102241062Y-111452157D01*
X102815586Y-111394705D01*
X102758134Y-111452157D01*
X102700681Y-111567062D01*
X102700681Y-111854324D01*
X102758134Y-111969229D01*
X102815586Y-112026681D01*
X102930491Y-112084134D01*
X103217753Y-112084134D01*
X103332657Y-112026681D01*
X103390110Y-111969229D01*
X103447562Y-111854324D01*
X103447562Y-111567062D01*
X103390110Y-111452157D01*
X103332657Y-111394705D01*
X102241062Y-112428848D02*
X103447562Y-112831014D01*
X102241062Y-113233181D01*
X107360562Y-100995824D02*
X106786038Y-100593657D01*
X107360562Y-100306395D02*
X106154062Y-100306395D01*
X106154062Y-100766014D01*
X106211515Y-100880919D01*
X106268967Y-100938372D01*
X106383872Y-100995824D01*
X106556229Y-100995824D01*
X106671134Y-100938372D01*
X106728586Y-100880919D01*
X106786038Y-100766014D01*
X106786038Y-100306395D01*
X106154062Y-101340538D02*
X106154062Y-102029967D01*
X107360562Y-101685253D02*
X106154062Y-101685253D01*
X107245657Y-103121562D02*
X107303110Y-103064110D01*
X107360562Y-102891753D01*
X107360562Y-102776848D01*
X107303110Y-102604491D01*
X107188205Y-102489586D01*
X107073300Y-102432134D01*
X106843491Y-102374681D01*
X106671134Y-102374681D01*
X106441324Y-102432134D01*
X106326419Y-102489586D01*
X106211515Y-102604491D01*
X106154062Y-102776848D01*
X106154062Y-102891753D01*
X106211515Y-103064110D01*
X106268967Y-103121562D01*
X106728586Y-104960038D02*
X106786038Y-105132395D01*
X106843491Y-105189848D01*
X106958395Y-105247300D01*
X107130753Y-105247300D01*
X107245657Y-105189848D01*
X107303110Y-105132395D01*
X107360562Y-105017491D01*
X107360562Y-104557872D01*
X106154062Y-104557872D01*
X106154062Y-104960038D01*
X106211515Y-105074943D01*
X106268967Y-105132395D01*
X106383872Y-105189848D01*
X106498776Y-105189848D01*
X106613681Y-105132395D01*
X106671134Y-105074943D01*
X106728586Y-104960038D01*
X106728586Y-104557872D01*
X107360562Y-106281443D02*
X106728586Y-106281443D01*
X106613681Y-106223991D01*
X106556229Y-106109086D01*
X106556229Y-105879276D01*
X106613681Y-105764372D01*
X107303110Y-106281443D02*
X107360562Y-106166538D01*
X107360562Y-105879276D01*
X107303110Y-105764372D01*
X107188205Y-105706919D01*
X107073300Y-105706919D01*
X106958395Y-105764372D01*
X106900943Y-105879276D01*
X106900943Y-106166538D01*
X106843491Y-106281443D01*
X106556229Y-106683610D02*
X106556229Y-107143229D01*
X106154062Y-106855967D02*
X107188205Y-106855967D01*
X107303110Y-106913419D01*
X107360562Y-107028324D01*
X107360562Y-107143229D01*
X106556229Y-107373038D02*
X106556229Y-107832657D01*
X106154062Y-107545395D02*
X107188205Y-107545395D01*
X107303110Y-107602848D01*
X107360562Y-107717753D01*
X107360562Y-107832657D01*
X107245657Y-108234824D02*
X107303110Y-108292276D01*
X107360562Y-108234824D01*
X107303110Y-108177372D01*
X107245657Y-108234824D01*
X107360562Y-108234824D01*
X106613681Y-108234824D02*
X106671134Y-108292276D01*
X106728586Y-108234824D01*
X106671134Y-108177372D01*
X106613681Y-108234824D01*
X106728586Y-108234824D01*
X107245657Y-110418014D02*
X107303110Y-110360562D01*
X107360562Y-110188205D01*
X107360562Y-110073300D01*
X107303110Y-109900943D01*
X107188205Y-109786038D01*
X107073300Y-109728586D01*
X106843491Y-109671134D01*
X106671134Y-109671134D01*
X106441324Y-109728586D01*
X106326419Y-109786038D01*
X106211515Y-109900943D01*
X106154062Y-110073300D01*
X106154062Y-110188205D01*
X106211515Y-110360562D01*
X106268967Y-110418014D01*
X107360562Y-111624514D02*
X106786038Y-111222348D01*
X107360562Y-110935086D02*
X106154062Y-110935086D01*
X106154062Y-111394705D01*
X106211515Y-111509610D01*
X106268967Y-111567062D01*
X106383872Y-111624514D01*
X106556229Y-111624514D01*
X106671134Y-111567062D01*
X106728586Y-111509610D01*
X106786038Y-111394705D01*
X106786038Y-110935086D01*
X107360562Y-112773562D02*
X107360562Y-112084134D01*
X107360562Y-112428848D02*
X106154062Y-112428848D01*
X106326419Y-112313943D01*
X106441324Y-112199038D01*
X106498776Y-112084134D01*
X106268967Y-113233181D02*
X106211515Y-113290634D01*
X106154062Y-113405538D01*
X106154062Y-113692800D01*
X106211515Y-113807705D01*
X106268967Y-113865157D01*
X106383872Y-113922610D01*
X106498776Y-113922610D01*
X106671134Y-113865157D01*
X107360562Y-113175729D01*
X107360562Y-113922610D01*
X106268967Y-114382229D02*
X106211515Y-114439681D01*
X106154062Y-114554586D01*
X106154062Y-114841848D01*
X106211515Y-114956753D01*
X106268967Y-115014205D01*
X106383872Y-115071657D01*
X106498776Y-115071657D01*
X106671134Y-115014205D01*
X107360562Y-114324776D01*
X107360562Y-115071657D01*
X106154062Y-115818538D02*
X106154062Y-115933443D01*
X106211515Y-116048348D01*
X106268967Y-116105800D01*
X106383872Y-116163253D01*
X106613681Y-116220705D01*
X106900943Y-116220705D01*
X107130753Y-116163253D01*
X107245657Y-116105800D01*
X107303110Y-116048348D01*
X107360562Y-115933443D01*
X107360562Y-115818538D01*
X107303110Y-115703634D01*
X107245657Y-115646181D01*
X107130753Y-115588729D01*
X106900943Y-115531276D01*
X106613681Y-115531276D01*
X106383872Y-115588729D01*
X106268967Y-115646181D01*
X106211515Y-115703634D01*
X106154062Y-115818538D01*
D11*
G04 #@! TO.C,B1*
X83288015Y-97736309D02*
X86844015Y-97736309D01*
X83288015Y-101292309D02*
X83288015Y-97736309D01*
X78462015Y-101292309D02*
X83288015Y-101292309D01*
X83288015Y-114500309D02*
X78462015Y-114500309D01*
X83288015Y-118056309D02*
X83288015Y-114500309D01*
X86844015Y-118056309D02*
X83288015Y-118056309D01*
X86844015Y-114500309D02*
X86844015Y-118056309D01*
X88876015Y-114500309D02*
X86844015Y-114500309D01*
X91670015Y-111706309D02*
X88876015Y-114500309D01*
X91670015Y-104086309D02*
X91670015Y-111706309D01*
X88876015Y-101292309D02*
X91670015Y-104086309D01*
X86844015Y-101292309D02*
X88876015Y-101292309D01*
X86844015Y-97736309D02*
X86844015Y-101292309D01*
D12*
G04 #@! TO.C,U$16*
X101712015Y-118691309D02*
G75*
G03X101712015Y-118691309I-898000J0D01*
G01*
G04 #@! TO.C,B1*
D13*
X92484780Y-105130640D02*
X92521550Y-105240949D01*
X92558319Y-105277718D01*
X92631858Y-105314488D01*
X92742167Y-105314488D01*
X92815706Y-105277718D01*
X92852475Y-105240949D01*
X92889245Y-105167410D01*
X92889245Y-104873254D01*
X92117085Y-104873254D01*
X92117085Y-105130640D01*
X92153855Y-105204179D01*
X92190624Y-105240949D01*
X92264163Y-105277718D01*
X92337702Y-105277718D01*
X92411241Y-105240949D01*
X92448011Y-105204179D01*
X92484780Y-105130640D01*
X92484780Y-104873254D01*
X92889245Y-106049878D02*
X92889245Y-105608644D01*
X92889245Y-105829261D02*
X92117085Y-105829261D01*
X92227394Y-105755722D01*
X92300933Y-105682183D01*
X92337702Y-105608644D01*
G04 #@! TO.C,U$16*
D11*
X100632586Y-118697598D02*
X100908357Y-119432989D01*
X101184129Y-118697598D01*
X101276053Y-120444150D02*
X100816434Y-120122417D01*
X101276053Y-119892608D02*
X100310853Y-119892608D01*
X100310853Y-120260303D01*
X100356815Y-120352227D01*
X100402776Y-120398189D01*
X100494700Y-120444150D01*
X100632586Y-120444150D01*
X100724510Y-120398189D01*
X100770472Y-120352227D01*
X100816434Y-120260303D01*
X100816434Y-119892608D01*
X100770472Y-120857808D02*
X100770472Y-121179541D01*
X101276053Y-121317427D02*
X101276053Y-120857808D01*
X100310853Y-120857808D01*
X100310853Y-121317427D01*
X100310853Y-121593198D02*
X101276053Y-121914931D01*
X100310853Y-122236665D01*
G04 #@! TD*
M02*
