M48
;DRILL file {KiCad 5.0.1-33cea8e~68~ubuntu16.04.1} date Mon 29 Oct 2018 02:33:32 AM PDT
;FORMAT={-:-/ absolute / metric / decimal}
FMAT,2
METRIC,TZ
T1C0.400
T2C0.500
T3C0.700
T4C1.000
T5C1.020
T6C2.500
%
G90
G05
M71
T1
X122.615Y-77.11
X122.65Y-73.785
X125.39Y-71.585
X125.84Y-138.01
X127.326Y-73.335
X128.17Y-139.73
X129.77Y-130.62
X129.77Y-136.97
X129.89Y-86.135
X131.39Y-86.135
X132.441Y-86.123
X133.44Y-86.085
X133.665Y-75.435
X134.99Y-90.46
X135.415Y-86.585
X137.39Y-71.585
X137.39Y-91.96
X137.715Y-84.46
X137.965Y-90.185
X138.69Y-83.685
X138.725Y-92.768
X139.29Y-96.11
X139.715Y-91.61
X139.715Y-94.706
X139.79Y-83.01
X141.19Y-82.535
X142.44Y-82.574
X142.865Y-78.535
X142.89Y-63.885
X143.53Y-72.66
X143.61Y-71.22
X144.315Y-94.285
X144.365Y-95.31
X144.39Y-91.46
X144.84Y-62.05
X145.742Y-92.235
X145.864Y-133.887
X145.865Y-96.035
X146.119Y-83.164
X146.37Y-61.93
X146.728Y-75.718
X147.09Y-79.61
X147.315Y-92.01
X147.48Y-74.99
X147.84Y-62.95
X148.49Y-92.11
X148.65Y-141.485
X148.965Y-98.535
X149.637Y-91.981
X150.141Y-98.535
X150.315Y-86.41
X151.025Y-134.785
X151.515Y-98.56
X152.79Y-98.635
X152.95Y-74.11
X153.25Y-141.41
X153.49Y-87.41
X153.61Y-91.723
X153.728Y-79.999
X153.89Y-85.41
X154.404Y-74.989
X154.49Y-97.52
X154.54Y-72.19
X154.58Y-73.7
X154.675Y-134.06
X155.672Y-67.776
X155.902Y-89.156
X157.27Y-69.29
X157.97Y-87.845
X159.315Y-79.739
X159.326Y-87.136
X159.55Y-72.15
X159.556Y-151.67
X159.577Y-148.337
X159.577Y-150.136
X159.597Y-141.86
X159.597Y-143.577
X159.617Y-145.132
X159.617Y-146.869
X159.711Y-88.059
X159.79Y-78.31
X159.815Y-86.26
X160.834Y-71.455
X161.294Y-151.69
X161.334Y-148.358
X161.355Y-150.136
X161.395Y-145.152
X161.395Y-146.89
X161.416Y-141.82
X161.456Y-143.618
X161.578Y-70.786
X161.636Y-76.65
X161.97Y-125.49
X161.99Y-119.6
X161.99Y-120.56
X161.99Y-121.51
X161.99Y-122.52
X161.99Y-123.51
X162.Y-124.48
X162.01Y-118.6
X162.22Y-70.02
X162.96Y-69.24
X163.173Y-151.69
X163.194Y-150.136
X163.234Y-148.358
X163.275Y-146.89
X163.295Y-141.799
X163.295Y-143.577
X163.295Y-145.091
X163.54Y-76.77
X163.61Y-68.45
X163.948Y-74.729
X164.629Y-73.996
X165.328Y-73.281
X165.928Y-128.185
X166.092Y-72.635
X166.79Y-71.87
X167.43Y-122.34
X167.94Y-130.09
X167.95Y-131.17
X169.Y-131.17
X169.01Y-130.03
X170.252Y-125.706
X171.619Y-127.9
X171.78Y-132.59
X172.85Y-132.6
X172.95Y-127.956
X174.75Y-141.09
X175.95Y-141.09
X177.25Y-141.09
X178.29Y-129.52
X178.42Y-141.07
X179.43Y-129.48
X179.58Y-141.02
X180.76Y-141.06
X180.811Y-129.506
X182.15Y-129.531
X183.24Y-129.54
X190.83Y-54.708
X192.79Y-113.62
X193.647Y-38.221
X193.88Y-113.61
X194.894Y-60.55
X194.97Y-113.59
X195.49Y-102.14
X196.03Y-113.61
X196.57Y-102.15
X197.21Y-113.61
X197.61Y-102.114
X198.67Y-102.13
X200.034Y-102.104
X200.228Y-50.136
X200.228Y-56.232
X201.244Y-43.532
X201.244Y-54.708
X201.39Y-102.09
X202.26Y-48.612
X202.26Y-52.93
X203.07Y-115.67
X203.11Y-111.06
X203.276Y-43.532
X203.276Y-44.548
X203.53Y-46.072
X203.784Y-47.088
X203.784Y-49.374
X204.22Y-111.08
X204.344Y-115.708
X204.8Y-47.088
X205.751Y-117.949
X205.816Y-49.12
X205.816Y-55.724
X206.832Y-39.976
X206.832Y-49.12
X207.07Y-112.6
X207.07Y-113.56
X207.086Y-68.424
X207.594Y-53.438
X207.848Y-49.12
X208.11Y-113.56
X208.13Y-112.62
X208.51Y-121.02
X209.372Y-64.36
X209.626Y-48.358
X210.34Y-115.28
X210.388Y-47.596
X211.15Y-51.152
X211.889Y-38.221
X212.637Y-98.528
X212.637Y-100.027
X212.637Y-101.815
X212.668Y-96.74
X212.674Y-42.516
X212.674Y-64.36
X212.683Y-91.939
X212.683Y-95.246
X212.698Y-93.494
X213.91Y-118.3
X213.92Y-119.42
X213.92Y-120.53
X213.93Y-121.57
X213.93Y-122.63
X213.93Y-124.64
X213.944Y-42.262
X213.95Y-123.68
X214.452Y-68.424
X214.476Y-100.042
X214.492Y-96.725
X214.492Y-98.528
X214.492Y-101.83
X214.537Y-95.211
X214.568Y-93.494
X214.583Y-91.954
X216.234Y-100.042
X216.249Y-98.548
X216.249Y-101.83
X216.27Y-96.74
X216.285Y-91.954
X216.285Y-95.231
X216.3Y-93.494
T2
X80.113Y-108.976
X81.002Y-106.118
X81.129Y-103.07
X82.145Y-104.213
X82.272Y-111.325
X82.78Y-98.879
X82.907Y-113.611
X83.168Y-119.597
X83.669Y-104.213
X84.09Y-118.66
X84.39Y-113.39
X84.568Y-119.797
X84.768Y-96.997
X84.939Y-103.134
X87.768Y-97.197
X89.968Y-97.397
X90.968Y-98.397
X91.768Y-96.597
X91.768Y-99.597
X93.568Y-96.997
X94.568Y-99.597
X94.968Y-96.797
X95.168Y-116.997
X95.968Y-99.397
X96.496Y-118.437
X97.168Y-96.797
X97.168Y-99.797
X97.703Y-119.39
X98.568Y-99.597
X99.29Y-96.212
X100.497Y-119.39
X104.38Y-119.47
X104.878Y-96.212
X104.878Y-115.008
X105.568Y-108.597
X105.768Y-119.397
X106.402Y-99.133
X107.368Y-119.397
X108.768Y-119.397
T3
X79.193Y-47.355
X81.733Y-47.355
X84.273Y-47.355
X99.513Y-47.355
X102.053Y-47.355
X104.593Y-47.355
X107.133Y-47.355
T4
X74.977Y-44.789
X74.977Y-47.329
X117.633Y-70.149
X117.633Y-72.689
X117.633Y-75.229
X117.633Y-77.769
X117.633Y-80.309
X117.633Y-82.849
X117.633Y-85.389
X117.633Y-87.929
X117.633Y-90.469
X117.633Y-93.009
X120.173Y-70.149
X120.173Y-72.689
X120.173Y-75.229
X120.173Y-77.769
X120.173Y-80.309
X120.173Y-82.849
X120.173Y-85.389
X120.173Y-87.929
X120.173Y-90.469
X120.173Y-93.009
X185.518Y-131.035
X185.518Y-133.575
X185.518Y-136.115
X185.518Y-138.655
X190.544Y-104.248
X190.544Y-106.788
X190.544Y-109.328
X106.196Y-61.504
X106.196Y-64.044
X106.196Y-66.584
X106.196Y-69.124
X106.196Y-71.664
X106.196Y-74.204
X106.196Y-76.744
X106.196Y-79.284
X106.196Y-81.824
X106.196Y-84.364
X106.196Y-86.904
X110.085Y-97.736
X110.085Y-100.276
X110.085Y-102.816
X110.085Y-105.356
X110.085Y-107.896
X110.085Y-110.436
X110.085Y-112.976
X110.085Y-115.516
X110.085Y-118.056
X193.624Y-51.152
X196.164Y-51.152
X104.32Y-128.015
X104.32Y-130.555
X104.32Y-133.095
X104.32Y-135.635
X104.32Y-138.175
X77.65Y-131.825
X77.65Y-134.365
X190.583Y-94.177
X193.123Y-94.177
X195.663Y-94.177
X198.203Y-94.177
X200.743Y-94.177
X191.589Y-72.487
X194.129Y-72.487
X196.669Y-72.487
X199.209Y-72.487
X201.749Y-72.487
X204.289Y-72.487
X206.829Y-72.487
X209.369Y-72.487
X211.909Y-72.487
X173.Y-61.497
X173.Y-64.037
X173.Y-66.577
X173.Y-69.117
X173.Y-71.657
X173.Y-74.197
X173.Y-76.737
X173.Y-79.277
X173.Y-81.817
X173.Y-84.357
X173.Y-86.897
X173.Y-89.437
X173.Y-91.977
X173.Y-94.517
X173.Y-97.057
X173.Y-99.597
X79.175Y-50.71
X81.715Y-50.71
X84.255Y-50.71
X128.916Y-57.926
X131.456Y-57.926
X133.996Y-57.926
X136.536Y-57.926
X139.076Y-57.926
X141.616Y-57.926
X144.156Y-57.926
X146.696Y-57.926
X149.236Y-57.926
X151.776Y-57.926
X154.316Y-57.926
X156.856Y-57.926
X159.396Y-57.926
X161.936Y-57.926
X164.476Y-57.926
X167.016Y-57.926
X146.118Y-148.619
X148.658Y-148.619
X151.198Y-148.619
X142.054Y-121.949
X144.594Y-121.949
X147.134Y-121.949
X149.674Y-121.949
X152.214Y-121.949
X154.754Y-121.949
X190.527Y-114.423
X190.527Y-116.963
X128.723Y-103.148
X131.263Y-103.148
X133.803Y-103.148
X136.343Y-103.148
X138.883Y-103.148
X141.423Y-103.148
X143.963Y-103.148
X146.503Y-103.148
X149.043Y-103.148
X151.583Y-103.148
X154.123Y-103.148
X156.663Y-103.148
X159.203Y-103.148
X161.743Y-103.148
X164.283Y-103.148
X166.823Y-103.148
X185.442Y-143.105
X185.442Y-145.645
X167.723Y-149.346
X170.263Y-149.346
X172.803Y-149.346
X175.343Y-149.346
X177.883Y-149.346
X180.423Y-149.346
X182.963Y-149.346
X185.503Y-149.346
X131.99Y-130.57
X131.99Y-133.11
X131.99Y-135.65
X131.99Y-138.19
X131.99Y-140.73
X99.55Y-51.01
X102.09Y-51.01
X104.63Y-51.01
X107.17Y-51.01
X199.744Y-150.433
X202.284Y-150.433
X117.735Y-103.133
X120.275Y-103.133
X190.567Y-97.974
X190.567Y-100.514
T5
X198.084Y-135.033
X200.624Y-135.033
X203.164Y-135.033
X205.704Y-135.033
T6
X120.85Y-151.11
X76.575Y-91.81
X214.35Y-150.96
X214.35Y-32.785
X76.575Y-150.96
X120.85Y-32.785
X80.367Y-118.056
X80.367Y-97.736
X168.75Y-32.91
X76.45Y-56.26
T0
M30
