G04 #@! TF.GenerationSoftware,KiCad,Pcbnew,5.0.1-33cea8e~68~ubuntu16.04.1*
G04 #@! TF.CreationDate,2018-10-29T02:33:34-07:00*
G04 #@! TF.ProjectId,integrated-board-design-2,696E74656772617465642D626F617264,rev?*
G04 #@! TF.SameCoordinates,Original*
G04 #@! TF.FileFunction,Other,User*
%FSLAX46Y46*%
G04 Gerber Fmt 4.6, Leading zero omitted, Abs format (unit mm)*
G04 Created by KiCad (PCBNEW 5.0.1-33cea8e~68~ubuntu16.04.1) date Mon 29 Oct 2018 02:33:34 AM PDT*
%MOMM*%
%LPD*%
G01*
G04 APERTURE LIST*
%ADD10C,0.050000*%
G04 APERTURE END LIST*
D10*
G04 #@! TO.C,C1*
X199500000Y-147010000D02*
X203100000Y-147010000D01*
X199500000Y-147010000D02*
X199500000Y-148310000D01*
X203100000Y-148310000D02*
X203100000Y-147010000D01*
X203100000Y-148310000D02*
X199500000Y-148310000D01*
G04 #@! TO.C,*
X207454203Y-131233068D02*
X207454203Y-138233068D01*
X207454203Y-131233068D02*
X196354203Y-131233068D01*
X196354203Y-138233068D02*
X207454203Y-138233068D01*
X196354203Y-138233068D02*
X196354203Y-131233068D01*
G04 #@! TO.C,J2*
X80005440Y-66001760D02*
X97705440Y-66001760D01*
X80005440Y-81701760D02*
X80005440Y-66001760D01*
X97705440Y-81701760D02*
X80005440Y-81701760D01*
X97705440Y-66001760D02*
X97705440Y-81701760D01*
G04 #@! TO.C,J9*
X104396480Y-59704400D02*
X104396480Y-88704400D01*
X104396480Y-88704400D02*
X107996480Y-88704400D01*
X107996480Y-88704400D02*
X107996480Y-59704400D01*
X107996480Y-59704400D02*
X104396480Y-59704400D01*
G04 #@! TO.C,*
X197944203Y-148633068D02*
X197944203Y-152233068D01*
X197944203Y-152233068D02*
X204094203Y-152233068D01*
X204094203Y-152233068D02*
X204094203Y-148633068D01*
X204094203Y-148633068D02*
X197944203Y-148633068D01*
G04 #@! TO.C,J2*
X191824160Y-40601700D02*
X191824160Y-52951700D01*
X197974160Y-40601700D02*
X191824160Y-40601700D01*
X197974160Y-52951700D02*
X197974160Y-40601700D01*
X191824160Y-52951700D02*
X197974160Y-52951700D01*
G04 #@! TO.C,C1*
X201968160Y-37775700D02*
X201968160Y-39635700D01*
X201028160Y-37775700D02*
X201968160Y-37775700D01*
X201028160Y-39635700D02*
X201028160Y-37775700D01*
X201968160Y-39635700D02*
X201028160Y-39635700D01*
G04 #@! TO.C,C2*
X205016160Y-39635700D02*
X204076160Y-39635700D01*
X204076160Y-39635700D02*
X204076160Y-37775700D01*
X204076160Y-37775700D02*
X205016160Y-37775700D01*
X205016160Y-37775700D02*
X205016160Y-39635700D01*
G04 #@! TO.C,C3*
X211620160Y-61905700D02*
X211620160Y-63765700D01*
X210680160Y-61905700D02*
X211620160Y-61905700D01*
X210680160Y-63765700D02*
X210680160Y-61905700D01*
X211620160Y-63765700D02*
X210680160Y-63765700D01*
G04 #@! TO.C,D1*
X199682160Y-61397700D02*
X199682160Y-63257700D01*
X198742160Y-61397700D02*
X199682160Y-61397700D01*
X198742160Y-63257700D02*
X198742160Y-61397700D01*
X199682160Y-63257700D02*
X198742160Y-63257700D01*
G04 #@! TO.C,D2*
X195364160Y-63257700D02*
X194424160Y-63257700D01*
X194424160Y-63257700D02*
X194424160Y-61397700D01*
X194424160Y-61397700D02*
X195364160Y-61397700D01*
X195364160Y-61397700D02*
X195364160Y-63257700D01*
G04 #@! TO.C,J1*
X213739161Y-70736699D02*
X189839161Y-70736699D01*
X213739161Y-83036699D02*
X213739161Y-70736699D01*
X189839161Y-83036699D02*
X213739161Y-83036699D01*
X189839161Y-70736699D02*
X189839161Y-83036699D01*
G04 #@! TO.C,R1*
X191300160Y-61397700D02*
X191300160Y-63257700D01*
X190360160Y-61397700D02*
X191300160Y-61397700D01*
X190360160Y-63257700D02*
X190360160Y-61397700D01*
X191300160Y-63257700D02*
X190360160Y-63257700D01*
G04 #@! TO.C,R2*
X210858160Y-37775700D02*
X210858160Y-39635700D01*
X209918160Y-37775700D02*
X210858160Y-37775700D01*
X209918160Y-39635700D02*
X209918160Y-37775700D01*
X210858160Y-39635700D02*
X209918160Y-39635700D01*
G04 #@! TO.C,R3*
X204000160Y-63257700D02*
X203060160Y-63257700D01*
X203060160Y-63257700D02*
X203060160Y-61397700D01*
X203060160Y-61397700D02*
X204000160Y-61397700D01*
X204000160Y-61397700D02*
X204000160Y-63257700D01*
G04 #@! TO.C,R4*
X208064160Y-39635700D02*
X207124160Y-39635700D01*
X207124160Y-39635700D02*
X207124160Y-37775700D01*
X207124160Y-37775700D02*
X208064160Y-37775700D01*
X208064160Y-37775700D02*
X208064160Y-39635700D01*
G04 #@! TO.C,C1*
X155450000Y-136480000D02*
X155450000Y-137940000D01*
X155450000Y-137940000D02*
X152150000Y-137940000D01*
X152150000Y-137940000D02*
X152150000Y-136480000D01*
X152150000Y-136480000D02*
X155450000Y-136480000D01*
G04 #@! TO.C,C2*
X153925000Y-140115000D02*
X150625000Y-140115000D01*
X153925000Y-138655000D02*
X153925000Y-140115000D01*
X150625000Y-138655000D02*
X153925000Y-138655000D01*
X150625000Y-140115000D02*
X150625000Y-138655000D01*
G04 #@! TO.C,C3*
X147145000Y-131235000D02*
X148605000Y-131235000D01*
X148605000Y-131235000D02*
X148605000Y-134535000D01*
X148605000Y-134535000D02*
X147145000Y-134535000D01*
X147145000Y-134535000D02*
X147145000Y-131235000D01*
G04 #@! TO.C,C4*
X148870000Y-134535000D02*
X148870000Y-131235000D01*
X150330000Y-134535000D02*
X148870000Y-134535000D01*
X150330000Y-131235000D02*
X150330000Y-134535000D01*
X148870000Y-131235000D02*
X150330000Y-131235000D01*
G04 #@! TO.C,J1*
X144318000Y-150419000D02*
X152968000Y-150419000D01*
X152968000Y-150419000D02*
X152968000Y-146819000D01*
X152968000Y-146819000D02*
X144318000Y-146819000D01*
X144318000Y-146819000D02*
X144318000Y-150419000D01*
G04 #@! TO.C,J2*
X140254000Y-123749000D02*
X156554000Y-123749000D01*
X156554000Y-123749000D02*
X156554000Y-120149000D01*
X156554000Y-120149000D02*
X140254000Y-120149000D01*
X140254000Y-120149000D02*
X140254000Y-123749000D01*
G04 #@! TO.C,REF\002A\002A*
X77375000Y-52510000D02*
X86025000Y-52510000D01*
X86025000Y-52510000D02*
X86025000Y-48910000D01*
X86025000Y-48910000D02*
X77375000Y-48910000D01*
X77375000Y-48910000D02*
X77375000Y-52510000D01*
X97750000Y-52810000D02*
X108950000Y-52810000D01*
X108950000Y-52810000D02*
X108950000Y-49210000D01*
X108950000Y-49210000D02*
X97750000Y-49210000D01*
X97750000Y-49210000D02*
X97750000Y-52810000D01*
G04 #@! TO.C,L1*
X81562500Y-134905000D02*
X84862500Y-134905000D01*
X81562500Y-136365000D02*
X81562500Y-134905000D01*
X84862500Y-136365000D02*
X81562500Y-136365000D01*
X84862500Y-134905000D02*
X84862500Y-136365000D01*
G04 #@! TO.C,L2*
X81080000Y-128555000D02*
X84380000Y-128555000D01*
X81080000Y-130015000D02*
X81080000Y-128555000D01*
X84380000Y-130015000D02*
X81080000Y-130015000D01*
X84380000Y-128555000D02*
X84380000Y-130015000D01*
G04 #@! TO.C,C1*
X87270000Y-130962500D02*
X87270000Y-134262500D01*
X85810000Y-130962500D02*
X87270000Y-130962500D01*
X85810000Y-134262500D02*
X85810000Y-130962500D01*
X87270000Y-134262500D02*
X85810000Y-134262500D01*
G04 #@! TO.C,C2*
X97722500Y-127125000D02*
X97722500Y-123825000D01*
X99182500Y-127125000D02*
X97722500Y-127125000D01*
X99182500Y-123825000D02*
X99182500Y-127125000D01*
X97722500Y-123825000D02*
X99182500Y-123825000D01*
G04 #@! TO.C,J1*
X79450000Y-136165000D02*
X79450000Y-130015000D01*
X79450000Y-130015000D02*
X75850000Y-130015000D01*
X75850000Y-130015000D02*
X75850000Y-136165000D01*
X75850000Y-136165000D02*
X79450000Y-136165000D01*
G04 #@! TO.C,J2*
X102520000Y-126215000D02*
X106070000Y-126215000D01*
X106070000Y-126215000D02*
X106070000Y-139915000D01*
X106070000Y-139915000D02*
X102520000Y-139915000D01*
X102520000Y-139915000D02*
X102520000Y-126215000D01*
G04 #@! TO.C,REF\002A\002A*
X101650000Y-44285000D02*
X105250000Y-44285000D01*
X101650000Y-44285000D02*
X101650000Y-45585000D01*
X105250000Y-45585000D02*
X105250000Y-44285000D01*
X105250000Y-45585000D02*
X101650000Y-45585000D01*
G04 #@! TO.C,C16*
X175560780Y-126199540D02*
X175560780Y-129799540D01*
X175560780Y-126199540D02*
X174260780Y-126199540D01*
X174260780Y-129799540D02*
X175560780Y-129799540D01*
X174260780Y-129799540D02*
X174260780Y-126199540D01*
G04 #@! TO.C,C17*
X165274260Y-133632400D02*
X165274260Y-130032400D01*
X165274260Y-133632400D02*
X166574260Y-133632400D01*
X166574260Y-130032400D02*
X165274260Y-130032400D01*
X166574260Y-130032400D02*
X166574260Y-133632400D01*
G04 #@! TO.C,C18*
X175124380Y-145931080D02*
X175124380Y-142331080D01*
X175124380Y-145931080D02*
X176424380Y-145931080D01*
X176424380Y-142331080D02*
X175124380Y-142331080D01*
X176424380Y-142331080D02*
X176424380Y-145931080D01*
G04 #@! TO.C,C19*
X201027300Y-117533880D02*
X201027300Y-113933880D01*
X201027300Y-117533880D02*
X202327300Y-117533880D01*
X202327300Y-113933880D02*
X201027300Y-113933880D01*
X202327300Y-113933880D02*
X202327300Y-117533880D01*
G04 #@! TO.C,C20*
X210760100Y-110027360D02*
X210760100Y-113627360D01*
X210760100Y-110027360D02*
X209460100Y-110027360D01*
X209460100Y-113627360D02*
X210760100Y-113627360D01*
X209460100Y-113627360D02*
X209460100Y-110027360D01*
G04 #@! TO.C,C21*
X201717700Y-97591480D02*
X201717700Y-101191480D01*
X201717700Y-97591480D02*
X200417700Y-97591480D01*
X200417700Y-101191480D02*
X201717700Y-101191480D01*
X200417700Y-101191480D02*
X200417700Y-97591480D01*
G04 #@! TO.C,J10*
X192367340Y-102314200D02*
X192367340Y-96164200D01*
X192367340Y-96164200D02*
X188767340Y-96164200D01*
X188767340Y-96164200D02*
X188767340Y-102314200D01*
X188767340Y-102314200D02*
X192367340Y-102314200D01*
G04 #@! TO.C,R5*
X162620420Y-126154000D02*
X166530420Y-126154000D01*
X162620420Y-126154000D02*
X162620420Y-127554000D01*
X166530420Y-127554000D02*
X166530420Y-126154000D01*
X166530420Y-127554000D02*
X162620420Y-127554000D01*
G04 #@! TO.C,R6*
X164960100Y-125794120D02*
X164960100Y-121884120D01*
X164960100Y-125794120D02*
X166360100Y-125794120D01*
X166360100Y-121884120D02*
X164960100Y-121884120D01*
X166360100Y-121884120D02*
X166360100Y-125794120D01*
G04 #@! TO.C,R7*
X213372940Y-117521000D02*
X209462940Y-117521000D01*
X213372940Y-117521000D02*
X213372940Y-116121000D01*
X209462940Y-116121000D02*
X209462940Y-117521000D01*
X209462940Y-116121000D02*
X213372940Y-116121000D01*
G04 #@! TO.C,R8*
X211043780Y-117888680D02*
X211043780Y-121798680D01*
X211043780Y-117888680D02*
X209643780Y-117888680D01*
X209643780Y-121798680D02*
X211043780Y-121798680D01*
X209643780Y-121798680D02*
X209643780Y-117888680D01*
G04 #@! TO.C,J7*
X192326700Y-118763240D02*
X192326700Y-112613240D01*
X192326700Y-112613240D02*
X188726700Y-112613240D01*
X188726700Y-112613240D02*
X188726700Y-118763240D01*
X188726700Y-118763240D02*
X192326700Y-118763240D01*
G04 #@! TO.C,J8*
X183641620Y-141304920D02*
X183641620Y-147454920D01*
X183641620Y-147454920D02*
X187241620Y-147454920D01*
X187241620Y-147454920D02*
X187241620Y-141304920D01*
X187241620Y-141304920D02*
X183641620Y-141304920D01*
G04 #@! TO.C,D4*
X209648860Y-125893000D02*
X209648860Y-121983000D01*
X209648860Y-125893000D02*
X211048860Y-125893000D01*
X211048860Y-121983000D02*
X209648860Y-121983000D01*
X211048860Y-121983000D02*
X211048860Y-125893000D01*
G04 #@! TO.C,D5*
X166347400Y-117761680D02*
X166347400Y-121671680D01*
X166347400Y-117761680D02*
X164947400Y-117761680D01*
X164947400Y-121671680D02*
X166347400Y-121671680D01*
X164947400Y-121671680D02*
X164947400Y-117761680D01*
G04 #@! TO.C,R9*
X213406140Y-127594640D02*
X209496140Y-127594640D01*
X213406140Y-127594640D02*
X213406140Y-126194640D01*
X209496140Y-126194640D02*
X209496140Y-127594640D01*
X209496140Y-126194640D02*
X213406140Y-126194640D01*
G04 #@! TO.C,R10*
X162584860Y-116197200D02*
X166494860Y-116197200D01*
X162584860Y-116197200D02*
X162584860Y-117597200D01*
X166494860Y-117597200D02*
X166494860Y-116197200D01*
X166494860Y-117597200D02*
X162584860Y-117597200D01*
G04 #@! TO.C,J13*
X183717820Y-129234840D02*
X183717820Y-140434840D01*
X183717820Y-140434840D02*
X187317820Y-140434840D01*
X187317820Y-140434840D02*
X187317820Y-129234840D01*
X187317820Y-129234840D02*
X183717820Y-129234840D01*
G04 #@! TO.C,J14*
X188782580Y-95976900D02*
X202532580Y-95976900D01*
X202532580Y-95976900D02*
X202532580Y-92376900D01*
X202532580Y-92376900D02*
X188782580Y-92376900D01*
X188782580Y-92376900D02*
X188782580Y-95976900D01*
G04 #@! TO.C,J12*
X188744480Y-102448000D02*
X188744480Y-111098000D01*
X188744480Y-111098000D02*
X192344480Y-111098000D01*
X192344480Y-111098000D02*
X192344480Y-102448000D01*
X192344480Y-102448000D02*
X188744480Y-102448000D01*
G04 #@! TO.C,J15*
X165922580Y-151145700D02*
X187272580Y-151145700D01*
X187272580Y-151145700D02*
X187272580Y-147545700D01*
X187272580Y-147545700D02*
X165922580Y-147545700D01*
X165922580Y-147545700D02*
X165922580Y-151145700D01*
G04 #@! TO.C,C1*
X118640080Y-139204560D02*
X118640080Y-135604560D01*
X118640080Y-139204560D02*
X119940080Y-139204560D01*
X119940080Y-135604560D02*
X118640080Y-135604560D01*
X119940080Y-135604560D02*
X119940080Y-139204560D01*
G04 #@! TO.C,C2*
X123720080Y-139204560D02*
X123720080Y-135604560D01*
X123720080Y-139204560D02*
X125020080Y-139204560D01*
X125020080Y-135604560D02*
X123720080Y-135604560D01*
X125020080Y-135604560D02*
X125020080Y-139204560D01*
G04 #@! TO.C,R3*
X127530080Y-139204560D02*
X127530080Y-135604560D01*
X127530080Y-139204560D02*
X128830080Y-139204560D01*
X128830080Y-135604560D02*
X127530080Y-135604560D01*
X128830080Y-135604560D02*
X128830080Y-139204560D01*
G04 #@! TO.C,JP2*
X133790080Y-128769560D02*
X130190080Y-128769560D01*
X133790080Y-142519560D02*
X133790080Y-128769560D01*
X130190080Y-142519560D02*
X133790080Y-142519560D01*
X130190080Y-128769560D02*
X130190080Y-142519560D01*
G04 #@! TO.C,0k1*
X140852920Y-80871360D02*
X136942920Y-80871360D01*
X140852920Y-80871360D02*
X140852920Y-79471360D01*
X136942920Y-79471360D02*
X136942920Y-80871360D01*
X136942920Y-79471360D02*
X140852920Y-79471360D01*
G04 #@! TO.C,0k2*
X140863080Y-82298840D02*
X136953080Y-82298840D01*
X140863080Y-82298840D02*
X140863080Y-80898840D01*
X136953080Y-80898840D02*
X136953080Y-82298840D01*
X136953080Y-80898840D02*
X140863080Y-80898840D01*
G04 #@! TO.C,1uF1*
X137067520Y-86455560D02*
X140667520Y-86455560D01*
X137067520Y-86455560D02*
X137067520Y-87755560D01*
X140667520Y-87755560D02*
X140667520Y-86455560D01*
X140667520Y-87755560D02*
X137067520Y-87755560D01*
G04 #@! TO.C,1uF2*
X147223880Y-70344960D02*
X147223880Y-73944960D01*
X147223880Y-70344960D02*
X145923880Y-70344960D01*
X145923880Y-73944960D02*
X147223880Y-73944960D01*
X145923880Y-73944960D02*
X145923880Y-70344960D01*
G04 #@! TO.C,1uF3*
X146955120Y-96266520D02*
X146955120Y-92666520D01*
X146955120Y-96266520D02*
X148255120Y-96266520D01*
X148255120Y-92666520D02*
X146955120Y-92666520D01*
X148255120Y-92666520D02*
X148255120Y-96266520D01*
G04 #@! TO.C,1uF4*
X154697040Y-96449360D02*
X154697040Y-92849360D01*
X154697040Y-96449360D02*
X155997040Y-96449360D01*
X155997040Y-92849360D02*
X154697040Y-92849360D01*
X155997040Y-92849360D02*
X155997040Y-96449360D01*
G04 #@! TO.C,1uF5*
X164375880Y-79012880D02*
X160775880Y-79012880D01*
X164375880Y-79012880D02*
X164375880Y-77712880D01*
X160775880Y-77712880D02*
X160775880Y-79012880D01*
X160775880Y-77712880D02*
X164375880Y-77712880D01*
G04 #@! TO.C,4.7uF1*
X152959680Y-96454480D02*
X152959680Y-92854480D01*
X152959680Y-96454480D02*
X154259680Y-96454480D01*
X154259680Y-92854480D02*
X152959680Y-92854480D01*
X154259680Y-92854480D02*
X154259680Y-96454480D01*
G04 #@! TO.C,10k1*
X134614680Y-72362360D02*
X130704680Y-72362360D01*
X134614680Y-72362360D02*
X134614680Y-70962360D01*
X130704680Y-70962360D02*
X130704680Y-72362360D01*
X130704680Y-70962360D02*
X134614680Y-70962360D01*
G04 #@! TO.C,10k2*
X134614680Y-69461680D02*
X130704680Y-69461680D01*
X134614680Y-69461680D02*
X134614680Y-68061680D01*
X130704680Y-68061680D02*
X130704680Y-69461680D01*
X130704680Y-68061680D02*
X134614680Y-68061680D01*
G04 #@! TO.C,10k3*
X134614680Y-70904400D02*
X130704680Y-70904400D01*
X134614680Y-70904400D02*
X134614680Y-69504400D01*
X130704680Y-69504400D02*
X130704680Y-70904400D01*
X130704680Y-69504400D02*
X134614680Y-69504400D01*
G04 #@! TO.C,10k4*
X147291200Y-73954920D02*
X147291200Y-70044920D01*
X147291200Y-73954920D02*
X148691200Y-73954920D01*
X148691200Y-70044920D02*
X147291200Y-70044920D01*
X148691200Y-70044920D02*
X148691200Y-73954920D01*
G04 #@! TO.C,10nF1*
X137070060Y-85111900D02*
X140670060Y-85111900D01*
X137070060Y-85111900D02*
X137070060Y-86411900D01*
X140670060Y-86411900D02*
X140670060Y-85111900D01*
X140670060Y-86411900D02*
X137070060Y-86411900D01*
G04 #@! TO.C,22uH1*
X140887840Y-89404160D02*
X136887840Y-89404160D01*
X140887840Y-87804160D02*
X136887840Y-87804160D01*
X140887840Y-89404160D02*
X140887840Y-87804160D01*
X136887840Y-89404160D02*
X136887840Y-87804160D01*
G04 #@! TO.C,100nF1*
X120896120Y-66160480D02*
X117296120Y-66160480D01*
X120896120Y-66160480D02*
X120896120Y-64860480D01*
X117296120Y-64860480D02*
X117296120Y-66160480D01*
X117296120Y-64860480D02*
X120896120Y-64860480D01*
G04 #@! TO.C,100nF2*
X145867520Y-70344960D02*
X145867520Y-73944960D01*
X145867520Y-70344960D02*
X144567520Y-70344960D01*
X144567520Y-73944960D02*
X145867520Y-73944960D01*
X144567520Y-73944960D02*
X144567520Y-70344960D01*
G04 #@! TO.C,100nF3*
X148306400Y-96266520D02*
X148306400Y-92666520D01*
X148306400Y-96266520D02*
X149606400Y-96266520D01*
X149606400Y-92666520D02*
X148306400Y-92666520D01*
X149606400Y-92666520D02*
X149606400Y-96266520D01*
G04 #@! TO.C,100nF4*
X156022920Y-96449320D02*
X156022920Y-92849320D01*
X156022920Y-96449320D02*
X157322920Y-96449320D01*
X157322920Y-92849320D02*
X156022920Y-92849320D01*
X157322920Y-92849320D02*
X157322920Y-96449320D01*
G04 #@! TO.C,100nF5*
X164370800Y-80374320D02*
X160770800Y-80374320D01*
X164370800Y-80374320D02*
X164370800Y-79074320D01*
X160770800Y-79074320D02*
X160770800Y-80374320D01*
X160770800Y-79074320D02*
X164370800Y-79074320D01*
G04 #@! TO.C,C1*
X136832120Y-77534600D02*
X133232120Y-77534600D01*
X136832120Y-77534600D02*
X136832120Y-76234600D01*
X133232120Y-76234600D02*
X133232120Y-77534600D01*
X133232120Y-76234600D02*
X136832120Y-76234600D01*
G04 #@! TO.C,C2*
X136827040Y-85606720D02*
X133227040Y-85606720D01*
X136827040Y-85606720D02*
X136827040Y-84306720D01*
X133227040Y-84306720D02*
X133227040Y-85606720D01*
X133227040Y-84306720D02*
X136827040Y-84306720D01*
G04 #@! TO.C,J1*
X121973120Y-94808520D02*
X121973120Y-68358520D01*
X121973120Y-68358520D02*
X115823120Y-68358520D01*
X115823120Y-68358520D02*
X115823120Y-94808520D01*
X115823120Y-94808520D02*
X121973120Y-94808520D01*
G04 #@! TO.C,J3*
X174800040Y-101397280D02*
X174800040Y-59697280D01*
X174800040Y-59697280D02*
X171200040Y-59697280D01*
X171200040Y-59697280D02*
X171200040Y-101397280D01*
X171200040Y-101397280D02*
X174800040Y-101397280D01*
G04 #@! TO.C,J4*
X168815800Y-56126040D02*
X127115800Y-56126040D01*
X127115800Y-56126040D02*
X127115800Y-59726040D01*
X127115800Y-59726040D02*
X168815800Y-59726040D01*
X168815800Y-59726040D02*
X168815800Y-56126040D01*
G04 #@! TO.C,J5*
X126922760Y-104948200D02*
X168622760Y-104948200D01*
X168622760Y-104948200D02*
X168622760Y-101348200D01*
X168622760Y-101348200D02*
X126922760Y-101348200D01*
X126922760Y-101348200D02*
X126922760Y-104948200D01*
G04 #@! TO.C,J6*
X115934720Y-104932960D02*
X122084720Y-104932960D01*
X122084720Y-104932960D02*
X122084720Y-101332960D01*
X122084720Y-101332960D02*
X115934720Y-101332960D01*
X115934720Y-101332960D02*
X115934720Y-104932960D01*
G04 #@! TO.C,SW1*
X116818080Y-64325840D02*
X121618080Y-64325840D01*
X121618080Y-64325840D02*
X121618080Y-61025840D01*
X121618080Y-61025840D02*
X116818080Y-61025840D01*
X116818080Y-61025840D02*
X116818080Y-64325840D01*
G04 #@! TO.C,Y1*
X136863240Y-83782560D02*
X136863240Y-77982560D01*
X136863240Y-77982560D02*
X128263240Y-77982560D01*
X128263240Y-77982560D02*
X128263240Y-83782560D01*
X128263240Y-83782560D02*
X136863240Y-83782560D01*
G04 #@! TD*
M02*
