G04 #@! TF.GenerationSoftware,KiCad,Pcbnew,5.0.1-33cea8e~68~ubuntu16.04.1*
G04 #@! TF.CreationDate,2018-10-29T02:33:34-07:00*
G04 #@! TF.ProjectId,integrated-board-design-2,696E74656772617465642D626F617264,rev?*
G04 #@! TF.SameCoordinates,Original*
G04 #@! TF.FileFunction,Other,Fab,Bot*
%FSLAX46Y46*%
G04 Gerber Fmt 4.6, Leading zero omitted, Abs format (unit mm)*
G04 Created by KiCad (PCBNEW 5.0.1-33cea8e~68~ubuntu16.04.1) date Mon 29 Oct 2018 02:33:34 AM PDT*
%MOMM*%
%LPD*%
G01*
G04 APERTURE LIST*
%ADD10C,0.203200*%
%ADD11C,0.040640*%
G04 APERTURE END LIST*
D10*
G04 #@! TO.C,B1*
X83288015Y-114500309D02*
X78462015Y-114500309D01*
X83288015Y-118056309D02*
X83288015Y-114500309D01*
X86844015Y-118056309D02*
X83288015Y-118056309D01*
X86844015Y-114500309D02*
X86844015Y-118056309D01*
X88876015Y-114500309D02*
X86844015Y-114500309D01*
X91670015Y-111706309D02*
X88876015Y-114500309D01*
X91670015Y-104086309D02*
X91670015Y-111706309D01*
X88876015Y-101292309D02*
X91670015Y-104086309D01*
X86844015Y-101292309D02*
X88876015Y-101292309D01*
X86844015Y-97736309D02*
X86844015Y-101292309D01*
X83288015Y-97736309D02*
X86844015Y-97736309D01*
X83288015Y-101292309D02*
X83288015Y-97736309D01*
X78462015Y-101292309D02*
X83288015Y-101292309D01*
X85827815Y-116321709D02*
G75*
G03X85827815Y-116321709I-915800J0D01*
G01*
X85981815Y-99616909D02*
G75*
G03X85981815Y-99616909I-915800J0D01*
G01*
X78462015Y-102562309D02*
X78462015Y-101292309D01*
X80748015Y-104848309D02*
X78462015Y-102562309D01*
X80748015Y-110944309D02*
X80748015Y-104848309D01*
X78462015Y-113230309D02*
X80748015Y-110944309D01*
X78462015Y-114500309D02*
X78462015Y-113230309D01*
G04 #@! TD*
G04 #@! TO.C,B1*
D11*
X93878860Y-104933265D02*
X93897245Y-104914881D01*
X93915630Y-104859726D01*
X93915630Y-104822957D01*
X93897245Y-104767803D01*
X93860475Y-104731033D01*
X93823706Y-104712648D01*
X93750167Y-104694264D01*
X93695013Y-104694264D01*
X93621474Y-104712648D01*
X93584704Y-104731033D01*
X93547935Y-104767803D01*
X93529550Y-104822957D01*
X93529550Y-104859726D01*
X93547935Y-104914881D01*
X93566319Y-104933265D01*
X93915630Y-105319345D02*
X93731782Y-105190652D01*
X93915630Y-105098728D02*
X93529550Y-105098728D01*
X93529550Y-105245806D01*
X93547935Y-105282576D01*
X93566319Y-105300961D01*
X93603089Y-105319345D01*
X93658243Y-105319345D01*
X93695013Y-105300961D01*
X93713397Y-105282576D01*
X93731782Y-105245806D01*
X93731782Y-105098728D01*
X93915630Y-105687041D02*
X93915630Y-105466424D01*
X93915630Y-105576732D02*
X93529550Y-105576732D01*
X93584704Y-105539963D01*
X93621474Y-105503193D01*
X93639858Y-105466424D01*
X93566319Y-105834119D02*
X93547935Y-105852504D01*
X93529550Y-105889273D01*
X93529550Y-105981197D01*
X93547935Y-106017966D01*
X93566319Y-106036351D01*
X93603089Y-106054736D01*
X93639858Y-106054736D01*
X93695013Y-106036351D01*
X93915630Y-105815734D01*
X93915630Y-106054736D01*
X93566319Y-106201814D02*
X93547935Y-106220199D01*
X93529550Y-106256968D01*
X93529550Y-106348892D01*
X93547935Y-106385662D01*
X93566319Y-106404046D01*
X93603089Y-106422431D01*
X93639858Y-106422431D01*
X93695013Y-106404046D01*
X93915630Y-106183429D01*
X93915630Y-106422431D01*
X93529550Y-106661433D02*
X93529550Y-106698203D01*
X93547935Y-106734972D01*
X93566319Y-106753357D01*
X93603089Y-106771742D01*
X93676628Y-106790126D01*
X93768552Y-106790126D01*
X93842091Y-106771742D01*
X93878860Y-106753357D01*
X93897245Y-106734972D01*
X93915630Y-106698203D01*
X93915630Y-106661433D01*
X93897245Y-106624664D01*
X93878860Y-106606279D01*
X93842091Y-106587894D01*
X93768552Y-106569509D01*
X93676628Y-106569509D01*
X93603089Y-106587894D01*
X93566319Y-106606279D01*
X93547935Y-106624664D01*
X93529550Y-106661433D01*
G04 #@! TD*
M02*
