G04 #@! TF.GenerationSoftware,KiCad,Pcbnew,5.0.1-33cea8e~68~ubuntu16.04.1*
G04 #@! TF.CreationDate,2018-10-26T03:49:13-07:00*
G04 #@! TF.ProjectId,integrated-board,696E74656772617465642D626F617264,rev?*
G04 #@! TF.SameCoordinates,Original*
G04 #@! TF.FileFunction,Copper,L4,Bot,Signal*
G04 #@! TF.FilePolarity,Positive*
%FSLAX46Y46*%
G04 Gerber Fmt 4.6, Leading zero omitted, Abs format (unit mm)*
G04 Created by KiCad (PCBNEW 5.0.1-33cea8e~68~ubuntu16.04.1) date Fri 26 Oct 2018 03:49:13 AM PDT*
%MOMM*%
%LPD*%
G01*
G04 APERTURE LIST*
G04 #@! TA.AperFunction,ComponentPad*
%ADD10R,1.730000X2.030000*%
G04 #@! TD*
G04 #@! TA.AperFunction,ComponentPad*
%ADD11O,1.730000X2.030000*%
G04 #@! TD*
G04 #@! TA.AperFunction,ComponentPad*
%ADD12C,3.200000*%
G04 #@! TD*
G04 #@! TA.AperFunction,ComponentPad*
%ADD13R,1.700000X1.700000*%
G04 #@! TD*
G04 #@! TA.AperFunction,ComponentPad*
%ADD14O,1.700000X1.700000*%
G04 #@! TD*
G04 #@! TA.AperFunction,WasherPad*
%ADD15C,1.350000*%
G04 #@! TD*
G04 #@! TA.AperFunction,WasherPad*
%ADD16C,1.600000*%
G04 #@! TD*
G04 #@! TA.AperFunction,WasherPad*
%ADD17C,2.500000*%
G04 #@! TD*
G04 #@! TA.AperFunction,SMDPad,CuDef*
%ADD18R,3.200000X3.200000*%
G04 #@! TD*
G04 #@! TA.AperFunction,Conductor*
%ADD19C,0.100000*%
G04 #@! TD*
G04 #@! TA.AperFunction,SMDPad,CuDef*
%ADD20C,6.000000*%
G04 #@! TD*
G04 #@! TA.AperFunction,ComponentPad*
%ADD21C,1.778000*%
G04 #@! TD*
G04 #@! TA.AperFunction,ViaPad*
%ADD22C,0.800000*%
G04 #@! TD*
G04 #@! TA.AperFunction,ViaPad*
%ADD23C,0.906400*%
G04 #@! TD*
G04 #@! TA.AperFunction,Conductor*
%ADD24C,0.406400*%
G04 #@! TD*
G04 #@! TA.AperFunction,Conductor*
%ADD25C,0.250000*%
G04 #@! TD*
G04 #@! TA.AperFunction,Conductor*
%ADD26C,0.600000*%
G04 #@! TD*
G04 #@! TA.AperFunction,Conductor*
%ADD27C,0.254000*%
G04 #@! TD*
G04 APERTURE END LIST*
D10*
G04 #@! TO.P,,1*
G04 #@! TO.N,/CSB*
X197904203Y-114173068D03*
D11*
G04 #@! TO.P,,2*
G04 #@! TO.N,/SDO*
X195364203Y-114173068D03*
G04 #@! TO.P,,3*
G04 #@! TO.N,/SDI*
X192824203Y-114173068D03*
G04 #@! TO.P,,4*
G04 #@! TO.N,/SCLK*
X190284203Y-114173068D03*
G04 #@! TD*
D12*
G04 #@! TO.P,U$8,P$1*
G04 #@! TO.N,N/C*
X75300000Y-129875000D03*
G04 #@! TD*
G04 #@! TO.P,U$8,P$1*
G04 #@! TO.N,N/C*
X75075000Y-80525000D03*
G04 #@! TD*
G04 #@! TO.P,U$8,P$1*
G04 #@! TO.N,N/C*
X178050000Y-36600000D03*
G04 #@! TD*
G04 #@! TO.P,U$8,P$1*
G04 #@! TO.N,N/C*
X113750000Y-36600000D03*
G04 #@! TD*
G04 #@! TO.P,U$8,P$1*
G04 #@! TO.N,N/C*
X113775000Y-129725000D03*
G04 #@! TD*
G04 #@! TO.P,U$8,P$1*
G04 #@! TO.N,N/C*
X203775000Y-74675000D03*
G04 #@! TD*
G04 #@! TO.P,U$9,P$1*
G04 #@! TO.N,N/C*
X177675000Y-102125000D03*
G04 #@! TD*
G04 #@! TO.P,U$9,P$1*
G04 #@! TO.N,N/C*
X75200000Y-36600000D03*
G04 #@! TD*
G04 #@! TO.P,U$9,P$1*
G04 #@! TO.N,N/C*
X203675000Y-36975000D03*
G04 #@! TD*
G04 #@! TO.P,U$8,P$1*
G04 #@! TO.N,N/C*
X204100000Y-130075000D03*
G04 #@! TD*
D13*
G04 #@! TO.P,J1,1*
G04 #@! TO.N,+3V3*
X120904000Y-83362800D03*
D14*
G04 #@! TO.P,J1,2*
X118364000Y-83362800D03*
G04 #@! TO.P,J1,3*
G04 #@! TO.N,PB4*
X120904000Y-80822800D03*
G04 #@! TO.P,J1,4*
G04 #@! TO.N,GND*
X118364000Y-80822800D03*
G04 #@! TO.P,J1,5*
G04 #@! TO.N,PA15*
X120904000Y-78282800D03*
G04 #@! TO.P,J1,6*
G04 #@! TO.N,GND*
X118364000Y-78282800D03*
G04 #@! TO.P,J1,7*
G04 #@! TO.N,PA13*
X120904000Y-75742800D03*
G04 #@! TO.P,J1,8*
G04 #@! TO.N,GND*
X118364000Y-75742800D03*
G04 #@! TO.P,J1,9*
G04 #@! TO.N,PA14*
X120904000Y-73202800D03*
G04 #@! TO.P,J1,10*
G04 #@! TO.N,GND*
X118364000Y-73202800D03*
G04 #@! TO.P,J1,11*
G04 #@! TO.N,Net-(10k1-Pad2)*
X120904000Y-70662800D03*
G04 #@! TO.P,J1,12*
G04 #@! TO.N,GND*
X118364000Y-70662800D03*
G04 #@! TO.P,J1,13*
G04 #@! TO.N,PB3*
X120904000Y-68122800D03*
G04 #@! TO.P,J1,14*
G04 #@! TO.N,GND*
X118364000Y-68122800D03*
G04 #@! TO.P,J1,15*
G04 #@! TO.N,RST*
X120904000Y-65582800D03*
G04 #@! TO.P,J1,16*
G04 #@! TO.N,GND*
X118364000Y-65582800D03*
G04 #@! TO.P,J1,17*
G04 #@! TO.N,Net-(10k3-Pad2)*
X120904000Y-63042800D03*
G04 #@! TO.P,J1,18*
G04 #@! TO.N,GND*
X118364000Y-63042800D03*
G04 #@! TO.P,J1,19*
G04 #@! TO.N,Net-(10k2-Pad2)*
X120904000Y-60502800D03*
G04 #@! TO.P,J1,20*
G04 #@! TO.N,GND*
X118364000Y-60502800D03*
G04 #@! TD*
D13*
G04 #@! TO.P,J3,1*
G04 #@! TO.N,PA0*
X173730920Y-89951560D03*
D14*
G04 #@! TO.P,J3,2*
G04 #@! TO.N,PA1*
X173730920Y-87411560D03*
G04 #@! TO.P,J3,3*
G04 #@! TO.N,PA2*
X173730920Y-84871560D03*
G04 #@! TO.P,J3,4*
G04 #@! TO.N,PA3*
X173730920Y-82331560D03*
G04 #@! TO.P,J3,5*
G04 #@! TO.N,PA4*
X173730920Y-79791560D03*
G04 #@! TO.P,J3,6*
G04 #@! TO.N,PA5*
X173730920Y-77251560D03*
G04 #@! TO.P,J3,7*
G04 #@! TO.N,PA6*
X173730920Y-74711560D03*
G04 #@! TO.P,J3,8*
G04 #@! TO.N,PA7*
X173730920Y-72171560D03*
G04 #@! TO.P,J3,9*
G04 #@! TO.N,PA8*
X173730920Y-69631560D03*
G04 #@! TO.P,J3,10*
G04 #@! TO.N,PA9*
X173730920Y-67091560D03*
G04 #@! TO.P,J3,11*
G04 #@! TO.N,PA10*
X173730920Y-64551560D03*
G04 #@! TO.P,J3,12*
G04 #@! TO.N,PA11*
X173730920Y-62011560D03*
G04 #@! TO.P,J3,13*
G04 #@! TO.N,PA12*
X173730920Y-59471560D03*
G04 #@! TO.P,J3,14*
G04 #@! TO.N,PA13*
X173730920Y-56931560D03*
G04 #@! TO.P,J3,15*
G04 #@! TO.N,PA14*
X173730920Y-54391560D03*
G04 #@! TO.P,J3,16*
G04 #@! TO.N,PA15*
X173730920Y-51851560D03*
G04 #@! TD*
D13*
G04 #@! TO.P,J4,1*
G04 #@! TO.N,PB0*
X167746680Y-48280320D03*
D14*
G04 #@! TO.P,J4,2*
G04 #@! TO.N,PB1*
X165206680Y-48280320D03*
G04 #@! TO.P,J4,3*
G04 #@! TO.N,PB2*
X162666680Y-48280320D03*
G04 #@! TO.P,J4,4*
G04 #@! TO.N,PB3*
X160126680Y-48280320D03*
G04 #@! TO.P,J4,5*
G04 #@! TO.N,PB4*
X157586680Y-48280320D03*
G04 #@! TO.P,J4,6*
G04 #@! TO.N,PB5*
X155046680Y-48280320D03*
G04 #@! TO.P,J4,7*
G04 #@! TO.N,PB6*
X152506680Y-48280320D03*
G04 #@! TO.P,J4,8*
G04 #@! TO.N,PB7*
X149966680Y-48280320D03*
G04 #@! TO.P,J4,9*
G04 #@! TO.N,PB8*
X147426680Y-48280320D03*
G04 #@! TO.P,J4,10*
G04 #@! TO.N,PB9*
X144886680Y-48280320D03*
G04 #@! TO.P,J4,11*
G04 #@! TO.N,PB10*
X142346680Y-48280320D03*
G04 #@! TO.P,J4,12*
G04 #@! TO.N,PB11*
X139806680Y-48280320D03*
G04 #@! TO.P,J4,13*
G04 #@! TO.N,PB12*
X137266680Y-48280320D03*
G04 #@! TO.P,J4,14*
G04 #@! TO.N,PB13*
X134726680Y-48280320D03*
G04 #@! TO.P,J4,15*
G04 #@! TO.N,PB14*
X132186680Y-48280320D03*
G04 #@! TO.P,J4,16*
G04 #@! TO.N,PB15*
X129646680Y-48280320D03*
G04 #@! TD*
D13*
G04 #@! TO.P,J5,1*
G04 #@! TO.N,PC0*
X129453640Y-93502480D03*
D14*
G04 #@! TO.P,J5,2*
G04 #@! TO.N,PC1*
X131993640Y-93502480D03*
G04 #@! TO.P,J5,3*
G04 #@! TO.N,PC2*
X134533640Y-93502480D03*
G04 #@! TO.P,J5,4*
G04 #@! TO.N,PC3*
X137073640Y-93502480D03*
G04 #@! TO.P,J5,5*
G04 #@! TO.N,PC4*
X139613640Y-93502480D03*
G04 #@! TO.P,J5,6*
G04 #@! TO.N,PC5*
X142153640Y-93502480D03*
G04 #@! TO.P,J5,7*
G04 #@! TO.N,PC6*
X144693640Y-93502480D03*
G04 #@! TO.P,J5,8*
G04 #@! TO.N,PC7*
X147233640Y-93502480D03*
G04 #@! TO.P,J5,9*
G04 #@! TO.N,PC8*
X149773640Y-93502480D03*
G04 #@! TO.P,J5,10*
G04 #@! TO.N,PC9*
X152313640Y-93502480D03*
G04 #@! TO.P,J5,11*
G04 #@! TO.N,PC10*
X154853640Y-93502480D03*
G04 #@! TO.P,J5,12*
G04 #@! TO.N,PC11*
X157393640Y-93502480D03*
G04 #@! TO.P,J5,13*
G04 #@! TO.N,PC12*
X159933640Y-93502480D03*
G04 #@! TO.P,J5,14*
G04 #@! TO.N,PC13*
X162473640Y-93502480D03*
G04 #@! TO.P,J5,15*
G04 #@! TO.N,Net-(J5-Pad15)*
X165013640Y-93502480D03*
G04 #@! TO.P,J5,16*
G04 #@! TO.N,PD2*
X167553640Y-93502480D03*
G04 #@! TD*
D13*
G04 #@! TO.P,J6,1*
G04 #@! TO.N,GND*
X118465600Y-93487240D03*
D14*
G04 #@! TO.P,J6,2*
G04 #@! TO.N,+3V3*
X121005600Y-93487240D03*
G04 #@! TD*
D13*
G04 #@! TO.P,J9,1*
G04 #@! TO.N,Net-(J2-Pad1)*
X107071480Y-57969400D03*
D14*
G04 #@! TO.P,J9,2*
G04 #@! TO.N,Net-(J2-Pad2)*
X107071480Y-60509400D03*
G04 #@! TO.P,J9,3*
G04 #@! TO.N,Net-(J2-Pad3)*
X107071480Y-63049400D03*
G04 #@! TO.P,J9,4*
G04 #@! TO.N,Net-(J2-Pad4)*
X107071480Y-65589400D03*
G04 #@! TO.P,J9,5*
G04 #@! TO.N,Net-(J2-Pad5)*
X107071480Y-68129400D03*
G04 #@! TO.P,J9,6*
G04 #@! TO.N,Net-(J2-Pad6)*
X107071480Y-70669400D03*
G04 #@! TO.P,J9,7*
G04 #@! TO.N,Net-(J2-Pad7)*
X107071480Y-73209400D03*
G04 #@! TO.P,J9,8*
G04 #@! TO.N,Net-(J2-Pad8)*
X107071480Y-75749400D03*
G04 #@! TO.P,J9,9*
G04 #@! TO.N,Net-(J2-Pad10)*
X107071480Y-78289400D03*
G04 #@! TO.P,J9,10*
G04 #@! TO.N,Net-(J2-Pad9)*
X107071480Y-80829400D03*
G04 #@! TO.P,J9,11*
G04 #@! TO.N,Net-(J2-Pad11)*
X107071480Y-83369400D03*
G04 #@! TD*
D13*
G04 #@! TO.P,J10,1*
G04 #@! TO.N,Net-(C16-Pad2)*
X193722020Y-87402940D03*
D14*
G04 #@! TO.P,J10,2*
G04 #@! TO.N,Net-(C21-Pad1)*
X193722020Y-84862940D03*
G04 #@! TD*
D13*
G04 #@! TO.P,J7,1*
G04 #@! TO.N,Net-(C16-Pad1)*
X199663080Y-103216980D03*
D14*
G04 #@! TO.P,J7,2*
G04 #@! TO.N,Net-(C16-Pad2)*
X197123080Y-103216980D03*
G04 #@! TD*
D13*
G04 #@! TO.P,J8,1*
G04 #@! TO.N,Net-(C16-Pad2)*
X193600000Y-65750000D03*
D14*
G04 #@! TO.P,J8,2*
G04 #@! TO.N,Net-(C18-Pad1)*
X193600000Y-63210000D03*
G04 #@! TD*
D13*
G04 #@! TO.P,J13,1*
G04 #@! TO.N,Net-(C16-Pad2)*
X193600000Y-69400000D03*
D14*
G04 #@! TO.P,J13,2*
X196140000Y-69400000D03*
G04 #@! TO.P,J13,3*
X198680000Y-69400000D03*
G04 #@! TO.P,J13,4*
X201220000Y-69400000D03*
G04 #@! TD*
D13*
G04 #@! TO.P,J14,1*
G04 #@! TO.N,Net-(C21-Pad1)*
X193549300Y-80727820D03*
D14*
G04 #@! TO.P,J14,2*
X196089300Y-80727820D03*
G04 #@! TO.P,J14,3*
X198629300Y-80727820D03*
G04 #@! TO.P,J14,4*
X201169300Y-80727820D03*
G04 #@! TO.P,J14,5*
X203709300Y-80727820D03*
G04 #@! TD*
D13*
G04 #@! TO.P,J12,1*
G04 #@! TO.N,Net-(C16-Pad2)*
X193475640Y-101207840D03*
D14*
G04 #@! TO.P,J12,2*
X193475640Y-103747840D03*
G04 #@! TO.P,J12,3*
X193475640Y-106287840D03*
G04 #@! TD*
D13*
G04 #@! TO.P,J15,1*
G04 #@! TO.N,Net-(C18-Pad1)*
X193600000Y-41840000D03*
D14*
G04 #@! TO.P,J15,2*
X193600000Y-44380000D03*
G04 #@! TO.P,J15,3*
X193600000Y-46920000D03*
G04 #@! TO.P,J15,4*
X193600000Y-49460000D03*
G04 #@! TO.P,J15,5*
X193600000Y-52000000D03*
G04 #@! TO.P,J15,6*
X193600000Y-54540000D03*
G04 #@! TO.P,J15,7*
X193600000Y-57080000D03*
G04 #@! TO.P,J15,8*
X193600000Y-59620000D03*
G04 #@! TD*
D13*
G04 #@! TO.P,,1*
G04 #@! TO.N,+3V3*
X191944203Y-129573068D03*
D14*
G04 #@! TO.P,,2*
G04 #@! TO.N,GND*
X194484203Y-129573068D03*
G04 #@! TD*
G04 #@! TO.P,JP2,5*
G04 #@! TO.N,GND*
X130725080Y-128054560D03*
G04 #@! TO.P,JP2,4*
G04 #@! TO.N,VCC*
X130725080Y-125514560D03*
G04 #@! TO.P,JP2,3*
G04 #@! TO.N,/SDA*
X130725080Y-122974560D03*
G04 #@! TO.P,JP2,2*
G04 #@! TO.N,/SCL*
X130725080Y-120434560D03*
D13*
G04 #@! TO.P,JP2,1*
G04 #@! TO.N,/SQW*
X130725080Y-117894560D03*
G04 #@! TD*
D15*
G04 #@! TO.P,B1,*
G04 #@! TO.N,*
X127875080Y-110274560D03*
D16*
X120425080Y-110274560D03*
G04 #@! TD*
D13*
G04 #@! TO.P,J2,1*
G04 #@! TO.N,Net-(C1-Pad2)*
X170408300Y-109474160D03*
D14*
G04 #@! TO.P,J2,2*
G04 #@! TO.N,Net-(C1-Pad1)*
X170408300Y-112014160D03*
G04 #@! TD*
D13*
G04 #@! TO.P,J1,1*
G04 #@! TO.N,Net-(J1-Pad1)*
X149073301Y-107439161D03*
D14*
G04 #@! TO.P,J1,2*
G04 #@! TO.N,Net-(J1-Pad2)*
X149073301Y-109979161D03*
G04 #@! TO.P,J1,3*
G04 #@! TO.N,Net-(D2-Pad1)*
X149073301Y-112519161D03*
G04 #@! TO.P,J1,4*
G04 #@! TO.N,Net-(D1-Pad1)*
X149073301Y-115059161D03*
G04 #@! TO.P,J1,5*
G04 #@! TO.N,Net-(J1-Pad5)*
X149073301Y-117599161D03*
G04 #@! TO.P,J1,6*
G04 #@! TO.N,Net-(J1-Pad6)*
X149073301Y-120139161D03*
G04 #@! TO.P,J1,7*
G04 #@! TO.N,Net-(J1-Pad7)*
X149073301Y-122679161D03*
G04 #@! TO.P,J1,8*
G04 #@! TO.N,Net-(J1-Pad8)*
X149073301Y-125219161D03*
G04 #@! TO.P,J1,9*
G04 #@! TO.N,Net-(J1-Pad9)*
X149073301Y-127759161D03*
G04 #@! TD*
D13*
G04 #@! TO.P,J1,1*
G04 #@! TO.N,Net-(J1-Pad1)*
X78182480Y-121554880D03*
D14*
G04 #@! TO.P,J1,2*
G04 #@! TO.N,Net-(J1-Pad2)*
X78182480Y-124094880D03*
G04 #@! TD*
D13*
G04 #@! TO.P,J2,1*
G04 #@! TO.N,+5V*
X108662480Y-113934880D03*
D14*
G04 #@! TO.P,J2,2*
G04 #@! TO.N,Net-(C2-Pad2)*
X108662480Y-116474880D03*
G04 #@! TO.P,J2,3*
G04 #@! TO.N,GND*
X108662480Y-119014880D03*
G04 #@! TO.P,J2,4*
G04 #@! TO.N,Net-(J2-Pad4)*
X108662480Y-121554880D03*
G04 #@! TO.P,J2,5*
G04 #@! TO.N,Net-(D2-Pad1)*
X108662480Y-124094880D03*
G04 #@! TO.P,J2,6*
G04 #@! TO.N,Net-(D1-Pad1)*
X108662480Y-126634880D03*
G04 #@! TD*
D17*
G04 #@! TO.N,*
G04 #@! TO.C,U1*
X92706259Y-100201092D03*
G04 #@! TD*
D12*
G04 #@! TO.P,U$8,P$1*
G04 #@! TO.N,N/C*
X78682259Y-109053092D03*
G04 #@! TD*
G04 #@! TO.P,U$9,P$1*
G04 #@! TO.N,N/C*
X78682259Y-88733092D03*
G04 #@! TD*
D18*
G04 #@! TO.P,B1,+$2*
G04 #@! TO.N,Net-(B1-Pad+$1)*
X83381259Y-107118492D03*
G04 #@! TO.P,B1,+$1*
X83381259Y-90667692D03*
D19*
G04 #@! TD*
G04 #@! TO.N,GND*
G04 #@! TO.C,B1*
G36*
X83675311Y-95907537D02*
X83966531Y-95950735D01*
X84252114Y-96022270D01*
X84529310Y-96121452D01*
X84795450Y-96247327D01*
X85047971Y-96398682D01*
X85284440Y-96574060D01*
X85502580Y-96771771D01*
X85700291Y-96989911D01*
X85875669Y-97226380D01*
X86027024Y-97478901D01*
X86152899Y-97745041D01*
X86252081Y-98022237D01*
X86323616Y-98307820D01*
X86366814Y-98599040D01*
X86381260Y-98893091D01*
X86381260Y-98893093D01*
X86366814Y-99187144D01*
X86323616Y-99478364D01*
X86252081Y-99763947D01*
X86152899Y-100041143D01*
X86027024Y-100307283D01*
X85875669Y-100559804D01*
X85700291Y-100796273D01*
X85502580Y-101014413D01*
X85284440Y-101212124D01*
X85047971Y-101387502D01*
X84795450Y-101538857D01*
X84529310Y-101664732D01*
X84252114Y-101763914D01*
X83966531Y-101835449D01*
X83675311Y-101878647D01*
X83381260Y-101893093D01*
X83381258Y-101893093D01*
X83087207Y-101878647D01*
X82795987Y-101835449D01*
X82510404Y-101763914D01*
X82233208Y-101664732D01*
X81967068Y-101538857D01*
X81714547Y-101387502D01*
X81478078Y-101212124D01*
X81259938Y-101014413D01*
X81062227Y-100796273D01*
X80886849Y-100559804D01*
X80735494Y-100307283D01*
X80609619Y-100041143D01*
X80510437Y-99763947D01*
X80438902Y-99478364D01*
X80395704Y-99187144D01*
X80381258Y-98893093D01*
X80381258Y-98893091D01*
X80395704Y-98599040D01*
X80438902Y-98307820D01*
X80510437Y-98022237D01*
X80609619Y-97745041D01*
X80735494Y-97478901D01*
X80886849Y-97226380D01*
X81062227Y-96989911D01*
X81259938Y-96771771D01*
X81478078Y-96574060D01*
X81714547Y-96398682D01*
X81967068Y-96247327D01*
X82233208Y-96121452D01*
X82510404Y-96022270D01*
X82795987Y-95950735D01*
X83087207Y-95907537D01*
X83381258Y-95893091D01*
X83381260Y-95893091D01*
X83675311Y-95907537D01*
X83675311Y-95907537D01*
G37*
D20*
G04 #@! TO.P,B1,-*
G04 #@! TO.N,GND*
X83381259Y-98893092D03*
G04 #@! TD*
D21*
G04 #@! TO.P,JP1,9*
G04 #@! TO.N,3.3V*
X108400259Y-109053092D03*
G04 #@! TO.P,JP1,8*
G04 #@! TO.N,/ENABLE*
X108400259Y-106513092D03*
G04 #@! TO.P,JP1,7*
G04 #@! TO.N,/VBACKUP*
X108400259Y-103973092D03*
G04 #@! TO.P,JP1,6*
G04 #@! TO.N,/FIX*
X108400259Y-101433092D03*
G04 #@! TO.P,JP1,5*
G04 #@! TO.N,/TX*
X108400259Y-98893092D03*
G04 #@! TO.P,JP1,4*
G04 #@! TO.N,/RX*
X108400259Y-96353092D03*
G04 #@! TO.P,JP1,3*
G04 #@! TO.N,GND*
X108400259Y-93813092D03*
G04 #@! TO.P,JP1,2*
G04 #@! TO.N,VIN*
X108400259Y-91273092D03*
G04 #@! TO.P,JP1,1*
G04 #@! TO.N,/1PPS*
X108400259Y-88733092D03*
G04 #@! TD*
D13*
G04 #@! TO.P,J1,1*
G04 #@! TO.N,GND*
X77691000Y-44093000D03*
D14*
G04 #@! TO.P,J1,2*
G04 #@! TO.N,VDD*
X77691000Y-46633000D03*
G04 #@! TO.P,J1,3*
G04 #@! TO.N,VDDIO*
X77691000Y-49173000D03*
G04 #@! TD*
D13*
G04 #@! TO.P,J2,1*
G04 #@! TO.N,INT*
X104361000Y-40029000D03*
D14*
G04 #@! TO.P,J2,2*
G04 #@! TO.N,FSYNC*
X104361000Y-42569000D03*
G04 #@! TO.P,J2,3*
G04 #@! TO.N,nCS*
X104361000Y-45109000D03*
G04 #@! TO.P,J2,4*
G04 #@! TO.N,SCL*
X104361000Y-47649000D03*
G04 #@! TO.P,J2,5*
G04 #@! TO.N,SDA*
X104361000Y-50189000D03*
G04 #@! TO.P,J2,6*
G04 #@! TO.N,AD0*
X104361000Y-52729000D03*
G04 #@! TD*
D22*
G04 #@! TO.N,GND*
X134457440Y-63230760D03*
X147838160Y-69545200D03*
X144350000Y-61550000D03*
X154365960Y-78186280D03*
D23*
X97605259Y-87209092D03*
X99129259Y-95972092D03*
X103193259Y-106005092D03*
X86810259Y-104735092D03*
X94811259Y-109434092D03*
X87572259Y-106640092D03*
X89715259Y-105354092D03*
X90366259Y-101560092D03*
X93414259Y-102576092D03*
X92668259Y-95575092D03*
X91017259Y-97861092D03*
X93795259Y-97623092D03*
X86937259Y-101322092D03*
X87191259Y-96861092D03*
X88715259Y-94575092D03*
X88350259Y-99528092D03*
X88715259Y-103322092D03*
X91509259Y-103989092D03*
X95954259Y-106894092D03*
X94208259Y-105116092D03*
X95319259Y-103465092D03*
X99002259Y-98004092D03*
X99129259Y-94194092D03*
X86746759Y-93622592D03*
X81984259Y-95210092D03*
X83254259Y-94130592D03*
X79444259Y-94067092D03*
X83000259Y-104735092D03*
X80587259Y-102322092D03*
X81222259Y-104608092D03*
X79317259Y-97115092D03*
X78428259Y-99972592D03*
X80460259Y-95210092D03*
X81095259Y-89876092D03*
X85794259Y-91146092D03*
X96208259Y-94956092D03*
X96462259Y-100417092D03*
X96335259Y-97877092D03*
X91382259Y-107148092D03*
X97732259Y-108037092D03*
D22*
X92423000Y-43839000D03*
X131200000Y-76475000D03*
X134475000Y-65975000D03*
X146875041Y-85650000D03*
X147050000Y-73725000D03*
X164629588Y-67336912D03*
G04 #@! TO.N,+3V3*
X156632457Y-79510470D03*
X162366960Y-67437000D03*
X144839070Y-63938473D03*
X138125000Y-80225000D03*
X139875000Y-85100002D03*
G04 #@! TO.N,RST*
X143300000Y-72650000D03*
G04 #@! TO.N,PB4*
X156403040Y-58130440D03*
X128400000Y-64425000D03*
G04 #@! TO.N,PB3*
X158575000Y-59025000D03*
X125750000Y-64250000D03*
G04 #@! TO.N,PA1*
X145425030Y-85499992D03*
G04 #@! TO.N,PA2*
X145625000Y-84275000D03*
G04 #@! TO.N,PA3*
X146250000Y-83000000D03*
G04 #@! TO.N,PA4*
X147725000Y-82225000D03*
G04 #@! TO.N,PA5*
X148850000Y-82200000D03*
G04 #@! TO.N,PA6*
X150114902Y-82613205D03*
G04 #@! TO.N,PA7*
X150385423Y-81650478D03*
G04 #@! TO.N,PB0*
X149734420Y-88202621D03*
G04 #@! TO.N,PB1*
X150580139Y-88736271D03*
G04 #@! TO.N,PB2*
X151506981Y-89111755D03*
G04 #@! TO.N,PB8*
X147447000Y-52397873D03*
X148515785Y-64906885D03*
G04 #@! TO.N,PB9*
X144912080Y-52397873D03*
X147725000Y-65525000D03*
G04 #@! TO.N,PB10*
X152459191Y-89417239D03*
G04 #@! TO.N,PB12*
X163569749Y-59832996D03*
X166525298Y-63030878D03*
X158139973Y-79178534D03*
G04 #@! TO.N,PB13*
X162836840Y-60633759D03*
X165894463Y-63806811D03*
X159007617Y-78234503D03*
G04 #@! TO.N,PB14*
X162151142Y-61361661D03*
X165201426Y-64536167D03*
X159411278Y-77319581D03*
G04 #@! TO.N,PB15*
X161325000Y-62150000D03*
X164559018Y-65302546D03*
X160554053Y-76286989D03*
G04 #@! TO.N,PC0*
X132449998Y-76500000D03*
X142300018Y-73175018D03*
G04 #@! TO.N,PC1*
X133800000Y-76500000D03*
X140675002Y-73325000D03*
G04 #@! TO.N,PC2*
X139225000Y-74150000D03*
X134533640Y-77425000D03*
G04 #@! TO.N,PC3*
X138250000Y-74900000D03*
X135400000Y-78299998D03*
G04 #@! TO.N,PC10*
X154309641Y-65990678D03*
G04 #@! TO.N,PC11*
X154575000Y-64700000D03*
G04 #@! TO.N,PC12*
X154998392Y-63526928D03*
G04 #@! TO.N,PC13*
X143609529Y-69843378D03*
G04 #@! TO.N,PD2*
X155250000Y-62250000D03*
G04 #@! TO.N,PB11*
X154340560Y-82077560D03*
X164275000Y-59049996D03*
X167275000Y-62150000D03*
G04 #@! TO.N,Net-(C16-Pad1)*
X200531760Y-97324180D03*
X202675000Y-55875000D03*
X198475000Y-58125000D03*
G04 #@! TO.N,Net-(C16-Pad2)*
X204674500Y-96460580D03*
X204771020Y-106597720D03*
X193036220Y-94614000D03*
X199007760Y-83610720D03*
X199925000Y-42700000D03*
X197400000Y-53775000D03*
X205200000Y-68125000D03*
X205175000Y-55525000D03*
G04 #@! TO.N,Net-(C17-Pad1)*
X197300000Y-55875000D03*
X201250000Y-51700000D03*
G04 #@! TO.N,Net-(C20-Pad1)*
X195091080Y-97352120D03*
X200145680Y-92287360D03*
G04 #@! TO.N,Net-(C21-Pad1)*
X204275000Y-102925000D03*
G04 #@! TO.N,Net-(C1-Pad1)*
X128505080Y-117944560D03*
X128505080Y-124294560D03*
X173202300Y-125476160D03*
X172440300Y-123698160D03*
X172440300Y-122682160D03*
X172440300Y-121666160D03*
X170408300Y-127000160D03*
X173964286Y-126238160D03*
G04 #@! TO.N,VCC*
X124205080Y-125109570D03*
X126955080Y-126544560D03*
G04 #@! TO.N,Net-(D1-Pad2)*
X166852300Y-106680160D03*
X181584300Y-122682160D03*
G04 #@! TO.N,Net-(D2-Pad2)*
X161010300Y-110744160D03*
X166852300Y-117094160D03*
X178028300Y-119126160D03*
X178028300Y-117094160D03*
G04 #@! TO.N,Net-(J1-Pad1)*
X165328300Y-116078160D03*
X174472300Y-120650160D03*
X171424300Y-116078160D03*
G04 #@! TO.N,Net-(J1-Pad2)*
X172948300Y-118110160D03*
X177012300Y-119126160D03*
X168630300Y-118110160D03*
G04 #@! TO.N,Net-(J1-Pad5)*
X179298300Y-129794160D03*
X165836300Y-121666160D03*
G04 #@! TO.N,Net-(J1-Pad6)*
X179044300Y-128524160D03*
X168122300Y-123444160D03*
G04 #@! TO.N,Net-(J1-Pad7)*
X153136300Y-122936160D03*
X153136300Y-130302160D03*
G04 #@! TO.N,Net-(J1-Pad8)*
X157200300Y-125222160D03*
X157200300Y-128524160D03*
G04 #@! TO.N,Net-(R2-Pad2)*
X183339300Y-127739160D03*
X175488300Y-119380160D03*
G04 #@! TO.N,Net-(R3-Pad2)*
X174472300Y-119634160D03*
X172186300Y-119634160D03*
G04 #@! TO.N,Net-(C1-Pad2)*
X183339300Y-109497160D03*
X88867000Y-50189000D03*
X83152000Y-56793000D03*
G04 #@! TO.N,Net-(C2-Pad2)*
X99772480Y-121554880D03*
D23*
G04 #@! TO.N,3.3V*
X103193259Y-87209092D03*
X90747259Y-91781092D03*
X97478259Y-90892092D03*
G04 #@! TO.N,VIN*
X104717259Y-90130092D03*
G04 #@! TO.N,/1PPS*
X94684259Y-93178092D03*
G04 #@! TO.N,/FIX*
X99002259Y-99655092D03*
X96843259Y-103719092D03*
G04 #@! TO.N,/VBACKUP*
X98811759Y-110386592D03*
G04 #@! TO.N,Net-(B1-Pad+$1)*
X96017759Y-110386592D03*
D22*
G04 #@! TO.N,VDD*
X93439000Y-48411000D03*
X91534000Y-48919000D03*
X90518000Y-51713000D03*
X83152000Y-46633000D03*
G04 #@! TO.N,AD0*
X89629000Y-52729000D03*
G04 #@! TD*
D24*
G04 #@! TO.N,GND*
X83254259Y-87590092D02*
X83127259Y-87590092D01*
X97605259Y-87209092D02*
X97605259Y-87082092D01*
X99129259Y-95972092D02*
X98875259Y-96226092D01*
X103193259Y-106005092D02*
X103447259Y-106005092D01*
D25*
X89121000Y-39775000D02*
X87343000Y-37997000D01*
X91661000Y-39775000D02*
X89121000Y-39775000D01*
X92423000Y-40537000D02*
X91661000Y-39775000D01*
X92423000Y-43839000D02*
X92423000Y-40537000D01*
G04 #@! TO.N,RST*
X142900001Y-72250001D02*
X143300000Y-72650000D01*
X120904000Y-65582800D02*
X127168961Y-71847761D01*
X127168961Y-71847761D02*
X142497761Y-71847761D01*
X142497761Y-71847761D02*
X142900001Y-72250001D01*
G04 #@! TO.N,PB4*
X147885227Y-66648253D02*
X146523530Y-66648253D01*
X156403040Y-58130440D02*
X147885227Y-66648253D01*
X144300277Y-64425000D02*
X128965685Y-64425000D01*
X128965685Y-64425000D02*
X128400000Y-64425000D01*
X146523530Y-66648253D02*
X144300277Y-64425000D01*
G04 #@! TO.N,PA15*
X173730920Y-51851560D02*
X173730920Y-50649479D01*
X116489480Y-51643280D02*
X116525040Y-51678840D01*
X173730920Y-50649479D02*
X169797121Y-46715680D01*
X169797121Y-46715680D02*
X160937452Y-46715680D01*
X160492522Y-46270750D02*
X121862010Y-46270750D01*
X160937452Y-46715680D02*
X160492522Y-46270750D01*
X121862010Y-46270750D02*
X116489480Y-51643280D01*
X116525040Y-51678840D02*
X116525040Y-75642842D01*
X116525040Y-75642842D02*
X117880594Y-76998396D01*
X117880594Y-76998396D02*
X119619596Y-76998396D01*
X119619596Y-76998396D02*
X120054001Y-77432801D01*
X120054001Y-77432801D02*
X120904000Y-78282800D01*
G04 #@! TO.N,PB3*
X128599435Y-67099435D02*
X126149999Y-64649999D01*
X156599493Y-59025000D02*
X148525058Y-67099435D01*
X126149999Y-64649999D02*
X125750000Y-64250000D01*
X148525058Y-67099435D02*
X128599435Y-67099435D01*
X158575000Y-59025000D02*
X156599493Y-59025000D01*
G04 #@! TO.N,PA1*
X173730920Y-87411560D02*
X147336598Y-87411560D01*
X147336598Y-87411560D02*
X145825029Y-85899991D01*
X145825029Y-85899991D02*
X145425030Y-85499992D01*
G04 #@! TO.N,PA2*
X172880921Y-85721559D02*
X148519561Y-85721559D01*
X173730920Y-84871560D02*
X172880921Y-85721559D01*
X146190685Y-84275000D02*
X145625000Y-84275000D01*
X148519561Y-85721559D02*
X147073002Y-84275000D01*
X147073002Y-84275000D02*
X146190685Y-84275000D01*
G04 #@! TO.N,PA3*
X162108294Y-83154106D02*
X152948795Y-83154106D01*
X175247898Y-71793698D02*
X174325280Y-70871080D01*
X173112273Y-70871080D02*
X172421675Y-71561678D01*
X150677210Y-80882521D02*
X147801794Y-80882521D01*
X174325280Y-70871080D02*
X173112273Y-70871080D01*
X146250000Y-82434315D02*
X146250000Y-83000000D01*
X172421675Y-71561678D02*
X172421675Y-72806162D01*
X173730920Y-82331560D02*
X175247898Y-80814582D01*
X164327900Y-80899937D02*
X164327900Y-80934500D01*
X172421675Y-72806162D02*
X164327900Y-80899937D01*
X175247898Y-80814582D02*
X175247898Y-71793698D01*
X147801794Y-80882521D02*
X146250000Y-82434315D01*
X152948795Y-83154106D02*
X150677210Y-80882521D01*
X164327900Y-80934500D02*
X162108294Y-83154106D01*
G04 #@! TO.N,PA4*
X150572765Y-85072765D02*
X147725000Y-82225000D01*
X168449715Y-85072765D02*
X150572765Y-85072765D01*
X173730920Y-79791560D02*
X168449715Y-85072765D01*
G04 #@! TO.N,PA5*
X149280703Y-82818244D02*
X149280703Y-82542713D01*
X151045674Y-84583215D02*
X149280703Y-82818244D01*
X173730920Y-77251560D02*
X166399265Y-84583215D01*
X166399265Y-84583215D02*
X151045674Y-84583215D01*
X149192713Y-82542713D02*
X148850000Y-82200000D01*
X149280703Y-82542713D02*
X149192713Y-82542713D01*
G04 #@! TO.N,PA6*
X150514901Y-83013204D02*
X150114902Y-82613205D01*
X173730920Y-74711560D02*
X164348815Y-84093665D01*
X150514901Y-83014901D02*
X150514901Y-83013204D01*
X164348815Y-84093665D02*
X151593665Y-84093665D01*
X151593665Y-84093665D02*
X150514901Y-83014901D01*
G04 #@! TO.N,PA7*
X150785422Y-82050477D02*
X150385423Y-81650478D01*
X173730920Y-72171560D02*
X162298364Y-83604116D01*
X162298364Y-83604116D02*
X152354116Y-83604116D01*
X152354116Y-83604116D02*
X150800477Y-82050477D01*
X150800477Y-82050477D02*
X150785422Y-82050477D01*
G04 #@! TO.N,PB0*
X144700000Y-82150000D02*
X144700000Y-86175000D01*
X167746680Y-59103320D02*
X144700000Y-82150000D01*
X144700000Y-86175000D02*
X146727621Y-88202621D01*
X146727621Y-88202621D02*
X149168735Y-88202621D01*
X149168735Y-88202621D02*
X149734420Y-88202621D01*
X167746680Y-48280320D02*
X167746680Y-59103320D01*
G04 #@! TO.N,PB1*
X144249989Y-81963600D02*
X144249989Y-86361400D01*
X167089028Y-59124562D02*
X144249989Y-81963600D01*
X144249989Y-86361400D02*
X147024859Y-89136270D01*
X147024859Y-89136270D02*
X150180140Y-89136270D01*
X167089028Y-50162668D02*
X167089028Y-59124562D01*
X165206680Y-48280320D02*
X167089028Y-50162668D01*
X150180140Y-89136270D02*
X150580139Y-88736271D01*
G04 #@! TO.N,PB2*
X143799978Y-86547800D02*
X146877190Y-89625012D01*
X143799978Y-81624698D02*
X143799978Y-86547800D01*
X151106982Y-89511754D02*
X151506981Y-89111755D01*
X150993724Y-89625012D02*
X151106982Y-89511754D01*
X146877190Y-89625012D02*
X150993724Y-89625012D01*
X162666680Y-48280320D02*
X166551494Y-52165134D01*
X166551494Y-52165134D02*
X166551494Y-58873182D01*
X166551494Y-58873182D02*
X143799978Y-81624698D01*
G04 #@! TO.N,PB8*
X147447000Y-52397873D02*
X147447000Y-63838100D01*
X147447000Y-63838100D02*
X148115786Y-64506886D01*
X148115786Y-64506886D02*
X148515785Y-64906885D01*
G04 #@! TO.N,PB9*
X147325001Y-65125001D02*
X147725000Y-65525000D01*
X144912080Y-52397873D02*
X144912080Y-52963558D01*
X144912080Y-52963558D02*
X145212079Y-53263557D01*
X145212079Y-63012079D02*
X147325001Y-65125001D01*
X145212079Y-53263557D02*
X145212079Y-63012079D01*
G04 #@! TO.N,PB10*
X143349967Y-81391112D02*
X143349967Y-86734200D01*
X142346680Y-48280320D02*
X143906240Y-46720760D01*
X161491679Y-47906317D02*
X161491679Y-48844321D01*
X165050002Y-59738264D02*
X153373543Y-71414723D01*
X153373543Y-71414723D02*
X153326356Y-71414723D01*
X161491679Y-48844321D02*
X164916620Y-52269262D01*
X164916620Y-52269262D02*
X164916620Y-58089415D01*
X153326356Y-71414723D02*
X143349967Y-81391112D01*
X146690790Y-90075023D02*
X151801407Y-90075023D01*
X164916620Y-58089415D02*
X165050002Y-58222797D01*
X152059192Y-89817238D02*
X152459191Y-89417239D01*
X143906240Y-46720760D02*
X160306122Y-46720760D01*
X160306122Y-46720760D02*
X161491679Y-47906317D01*
X151801407Y-90075023D02*
X152059192Y-89817238D01*
X143349967Y-86734200D02*
X146690790Y-90075023D01*
X165050002Y-58222797D02*
X165050002Y-59738264D01*
G04 #@! TO.N,PB12*
X154059583Y-50322830D02*
X163169750Y-59432997D01*
X139309190Y-50322830D02*
X154059583Y-50322830D01*
X137266680Y-48280320D02*
X139309190Y-50322830D01*
X163169750Y-59432997D02*
X163569749Y-59832996D01*
X159960648Y-79178534D02*
X158705658Y-79178534D01*
X166925297Y-72213885D02*
X159960648Y-79178534D01*
X166525298Y-63030878D02*
X166925297Y-63430877D01*
X166925297Y-63430877D02*
X166925297Y-72213885D01*
X158705658Y-79178534D02*
X158139973Y-79178534D01*
G04 #@! TO.N,PB13*
X137219201Y-50772841D02*
X152975922Y-50772841D01*
X152975922Y-50772841D02*
X162436841Y-60233760D01*
X134726680Y-48280320D02*
X137219201Y-50772841D01*
X162436841Y-60233760D02*
X162836840Y-60633759D01*
X160268269Y-78234503D02*
X159573302Y-78234503D01*
X166294462Y-72208310D02*
X160268269Y-78234503D01*
X166294462Y-64206810D02*
X166294462Y-72208310D01*
X165894463Y-63806811D02*
X166294462Y-64206810D01*
X159573302Y-78234503D02*
X159007617Y-78234503D01*
G04 #@! TO.N,PB14*
X152647116Y-51222852D02*
X161819370Y-60395106D01*
X135129212Y-51222852D02*
X152647116Y-51222852D01*
X161819370Y-60395106D02*
X161819370Y-61029889D01*
X132186680Y-48280320D02*
X135129212Y-51222852D01*
X161819370Y-61029889D02*
X162151142Y-61361661D01*
X159976963Y-77319581D02*
X159411278Y-77319581D01*
X165824999Y-72041363D02*
X160546781Y-77319581D01*
X165824999Y-65159740D02*
X165824999Y-72041363D01*
X165201426Y-64536167D02*
X165824999Y-65159740D01*
X160546781Y-77319581D02*
X159976963Y-77319581D01*
G04 #@! TO.N,PB15*
X161325000Y-61725736D02*
X161325000Y-62150000D01*
X161325000Y-60700740D02*
X161325000Y-61725736D01*
X152297123Y-51672863D02*
X161325000Y-60700740D01*
X133039223Y-51672863D02*
X152297123Y-51672863D01*
X129646680Y-48280320D02*
X133039223Y-51672863D01*
X165374999Y-71466043D02*
X160954052Y-75886990D01*
X160954052Y-75886990D02*
X160554053Y-76286989D01*
X165374999Y-66118527D02*
X165374999Y-71466043D01*
X164559018Y-65302546D02*
X165374999Y-66118527D01*
G04 #@! TO.N,PC0*
X141900019Y-72775019D02*
X142300018Y-73175018D01*
X136574983Y-72375015D02*
X141500015Y-72375015D01*
X132449998Y-76500000D02*
X136574983Y-72375015D01*
X141500015Y-72375015D02*
X141900019Y-72775019D01*
G04 #@! TO.N,PC1*
X136975000Y-73325000D02*
X140109317Y-73325000D01*
X140109317Y-73325000D02*
X140675002Y-73325000D01*
X133800000Y-76500000D02*
X136975000Y-73325000D01*
G04 #@! TO.N,PC2*
X139225000Y-74150000D02*
X137808640Y-74150000D01*
X134933639Y-77025001D02*
X134533640Y-77425000D01*
X137808640Y-74150000D02*
X134933639Y-77025001D01*
G04 #@! TO.N,PC3*
X138250000Y-74900000D02*
X135400000Y-77750000D01*
X135400000Y-77750000D02*
X135400000Y-78299998D01*
G04 #@! TO.N,PC10*
X154309641Y-67782876D02*
X154309641Y-66556363D01*
X154309641Y-66556363D02*
X154309641Y-65990678D01*
X140974967Y-81117550D02*
X154309641Y-67782876D01*
X153355043Y-92003883D02*
X146074006Y-92003883D01*
X146074006Y-92003883D02*
X140974967Y-86904844D01*
X154853640Y-93502480D02*
X153355043Y-92003883D01*
X140974967Y-86904844D02*
X140974967Y-81117550D01*
G04 #@! TO.N,PC11*
X154974999Y-65520134D02*
X155025743Y-65570878D01*
X154974999Y-65099999D02*
X154974999Y-65520134D01*
X154575000Y-64700000D02*
X154974999Y-65099999D01*
X155025743Y-65570878D02*
X155025742Y-65690220D01*
X155445032Y-91553872D02*
X146260406Y-91553872D01*
X141424978Y-86718444D02*
X141424978Y-81303950D01*
X157393640Y-93502480D02*
X155445032Y-91553872D01*
X146260406Y-91553872D02*
X141424978Y-86718444D01*
X141424978Y-81303950D02*
X155034642Y-67694286D01*
X155034642Y-65579777D02*
X155025743Y-65570878D01*
X155034642Y-67694286D02*
X155034642Y-65579777D01*
G04 #@! TO.N,PC12*
X141874989Y-86532044D02*
X141874989Y-81490350D01*
X155398391Y-63926927D02*
X154998392Y-63526928D01*
X141874989Y-81490350D02*
X155484653Y-67880686D01*
X146446806Y-91103861D02*
X141874989Y-86532044D01*
X155484653Y-67880686D02*
X155484653Y-64013189D01*
X157535021Y-91103861D02*
X146446806Y-91103861D01*
X159933640Y-93502480D02*
X157535021Y-91103861D01*
X155484653Y-64013189D02*
X155398391Y-63926927D01*
G04 #@! TO.N,PC13*
X143909528Y-70143377D02*
X143609529Y-69843378D01*
X144225000Y-70458849D02*
X143909528Y-70143377D01*
X135803640Y-85552333D02*
X144225000Y-77130973D01*
X144225000Y-77130973D02*
X144225000Y-70458849D01*
X162473640Y-93502480D02*
X160842960Y-95133160D01*
X160842960Y-95133160D02*
X136773920Y-95133160D01*
X136773920Y-95133160D02*
X135803640Y-94162880D01*
X135803640Y-94162880D02*
X135803640Y-85552333D01*
G04 #@! TO.N,PD2*
X142325000Y-81676750D02*
X155934664Y-68067086D01*
X155649999Y-62649999D02*
X155250000Y-62250000D01*
X142325000Y-86345644D02*
X142325000Y-81676750D01*
X146633206Y-90653850D02*
X142325000Y-86345644D01*
X164705010Y-90653850D02*
X146633206Y-90653850D01*
X167553640Y-93502480D02*
X164705010Y-90653850D01*
X155934664Y-68067086D02*
X155934664Y-62934664D01*
X155934664Y-62934664D02*
X155649999Y-62649999D01*
G04 #@! TO.N,PB11*
X139806680Y-48280320D02*
X141310360Y-49784000D01*
X163875001Y-58649997D02*
X164275000Y-59049996D01*
X155009004Y-49784000D02*
X163875001Y-58649997D01*
X141310360Y-49784000D02*
X155009004Y-49784000D01*
X167674999Y-62549999D02*
X167275000Y-62150000D01*
X167674999Y-72100593D02*
X167674999Y-62549999D01*
X157698032Y-82077560D02*
X167674999Y-72100593D01*
X154340560Y-82077560D02*
X157698032Y-82077560D01*
D26*
G04 #@! TO.N,Net-(C16-Pad1)*
X199663080Y-98192860D02*
X199663080Y-103216980D01*
X200531760Y-97324180D02*
X199663080Y-98192860D01*
X202675000Y-55875000D02*
X200425000Y-58125000D01*
X200425000Y-58125000D02*
X198475000Y-58125000D01*
X202675000Y-56440685D02*
X202675000Y-55875000D01*
X199565322Y-90375000D02*
X193050000Y-90375000D01*
X201045681Y-91855359D02*
X199565322Y-90375000D01*
X193050000Y-90375000D02*
X191250000Y-88575000D01*
X201045681Y-96810259D02*
X201045681Y-91855359D01*
X191250000Y-88575000D02*
X191250000Y-77275000D01*
X191250000Y-77275000D02*
X195775000Y-72750000D01*
X200531760Y-97324180D02*
X201045681Y-96810259D01*
X195775000Y-72750000D02*
X201075000Y-72750000D01*
X202675000Y-71150000D02*
X202675000Y-56440685D01*
X201075000Y-72750000D02*
X202675000Y-71150000D01*
G04 #@! TO.N,Net-(C17-Pad1)*
X197699999Y-55475001D02*
X197699999Y-55300001D01*
X197300000Y-55875000D02*
X197699999Y-55475001D01*
X201250000Y-51750000D02*
X201250000Y-51700000D01*
X197699999Y-55300001D02*
X201250000Y-51750000D01*
G04 #@! TO.N,Net-(C20-Pad1)*
X200145680Y-92297520D02*
X200145680Y-92287360D01*
X195091080Y-97352120D02*
X200145680Y-92297520D01*
G04 #@! TO.N,Net-(C21-Pad1)*
X203709300Y-102359300D02*
X203709300Y-80727820D01*
X204275000Y-102925000D02*
X203709300Y-102359300D01*
D25*
G04 #@! TO.N,Net-(C1-Pad1)*
X128505080Y-117944560D02*
X128505080Y-124294560D01*
X170408300Y-126238160D02*
X170408300Y-125476160D01*
X170408300Y-125476160D02*
X170408300Y-123698160D01*
X170408300Y-123698160D02*
X170408300Y-122682160D01*
X170408300Y-122682160D02*
X170408300Y-121666160D01*
X170408300Y-121666160D02*
X170408300Y-112014160D01*
X173202300Y-125476160D02*
X170408300Y-125476160D01*
X172440300Y-123698160D02*
X170408300Y-123698160D01*
X172440300Y-122682160D02*
X170408300Y-122682160D01*
X172440300Y-121666160D02*
X170408300Y-121666160D01*
X170408300Y-127000160D02*
X170408300Y-126238160D01*
X170408300Y-126238160D02*
X173964286Y-126238160D01*
G04 #@! TO.N,VCC*
X124205080Y-125109570D02*
X125640070Y-126544560D01*
X125640070Y-126544560D02*
X126955080Y-126544560D01*
G04 #@! TO.N,Net-(D1-Pad2)*
X181584300Y-122682160D02*
X185140300Y-122682160D01*
X185140300Y-122682160D02*
X185140300Y-106934160D01*
X185140300Y-106934160D02*
X184886300Y-106680160D01*
X184886300Y-106680160D02*
X166852300Y-106680160D01*
G04 #@! TO.N,Net-(D2-Pad2)*
X161010300Y-110744160D02*
X162026300Y-110744160D01*
X166852300Y-117094160D02*
X166852300Y-110744160D01*
X178028300Y-119126160D02*
X178028300Y-117094160D01*
X166852300Y-110744160D02*
X162026300Y-110744160D01*
G04 #@! TO.N,Net-(J1-Pad1)*
X149076300Y-107442160D02*
X149073301Y-107439161D01*
X154406300Y-107442160D02*
X149076300Y-107442160D01*
X161518300Y-112268160D02*
X154406300Y-112268160D01*
X165328300Y-116078160D02*
X161518300Y-112268160D01*
X171424300Y-120650160D02*
X171424300Y-116078160D01*
X174472300Y-120650160D02*
X171424300Y-120650160D01*
X154406300Y-112268160D02*
X154406300Y-107442160D01*
G04 #@! TO.N,Net-(J1-Pad2)*
X149330300Y-110236160D02*
X149073301Y-109979161D01*
X152120300Y-110236160D02*
X149330300Y-110236160D01*
X177012300Y-119126160D02*
X175996300Y-118110160D01*
X175996300Y-118110160D02*
X172948300Y-118110160D01*
X168630300Y-118110160D02*
X155168300Y-118110160D01*
X155168300Y-118110160D02*
X152120300Y-115062160D01*
X152120300Y-115062160D02*
X152120300Y-110236160D01*
G04 #@! TO.N,Net-(J1-Pad5)*
X165836300Y-129794160D02*
X165836300Y-121666160D01*
X179298300Y-129794160D02*
X165836300Y-129794160D01*
G04 #@! TO.N,Net-(J1-Pad6)*
X168122300Y-129032160D02*
X168122300Y-123444160D01*
X179044300Y-128524160D02*
X178536300Y-129032160D01*
X178536300Y-129032160D02*
X168122300Y-129032160D01*
G04 #@! TO.N,Net-(J1-Pad7)*
X153136300Y-130302160D02*
X153136300Y-122936160D01*
G04 #@! TO.N,Net-(J1-Pad8)*
X157200300Y-128524160D02*
X157200300Y-125222160D01*
G04 #@! TO.N,Net-(R2-Pad2)*
X176250300Y-120142160D02*
X175488300Y-119380160D01*
X178282300Y-120142160D02*
X176250300Y-120142160D01*
X180568300Y-122428160D02*
X178282300Y-120142160D01*
X180568300Y-123444160D02*
X180568300Y-122428160D01*
X181330300Y-127762160D02*
X183316300Y-127762160D01*
X183316300Y-127762160D02*
X183339300Y-127739160D01*
X181330300Y-127762160D02*
X181330300Y-124206160D01*
X180568300Y-123444160D02*
X181330300Y-124206160D01*
G04 #@! TO.N,Net-(R3-Pad2)*
X174472300Y-119634160D02*
X172186300Y-119634160D01*
G04 #@! TO.N,Net-(C1-Pad2)*
X170408300Y-109474160D02*
X183316300Y-109474160D01*
X183316300Y-109474160D02*
X183339300Y-109497160D01*
X88867000Y-51078000D02*
X88867000Y-50189000D01*
X83152000Y-56793000D02*
X88867000Y-51078000D01*
G04 #@! TO.N,Net-(C2-Pad2)*
X103582480Y-121554880D02*
X108662480Y-116474880D01*
X99772480Y-121554880D02*
X103582480Y-121554880D01*
D24*
G04 #@! TO.N,3.3V*
X103193259Y-87209092D02*
X103193259Y-87717092D01*
X103193259Y-87717092D02*
X101796259Y-89114092D01*
X101796259Y-89114092D02*
X97478259Y-89114092D01*
X97478259Y-89114092D02*
X92525259Y-89114092D01*
X92525259Y-89114092D02*
X90747259Y-90892092D01*
X90747259Y-90892092D02*
X90747259Y-91781092D01*
X97478259Y-90892092D02*
X97478259Y-89114092D01*
G04 #@! TO.N,VIN*
X102558259Y-92289092D02*
X96462259Y-92289092D01*
X104717259Y-90130092D02*
X102558259Y-92289092D01*
D27*
G04 #@! TO.N,/1PPS*
X94684259Y-93178092D02*
X103320259Y-93178092D01*
X103320259Y-93178092D02*
X107765259Y-88733092D01*
X107765259Y-88733092D02*
X108400259Y-88733092D01*
D24*
G04 #@! TO.N,/FIX*
X96843259Y-103719092D02*
X99002259Y-101560092D01*
X99002259Y-101560092D02*
X99002259Y-99655092D01*
D27*
G04 #@! TO.N,/VBACKUP*
X98748259Y-107783092D02*
X102558259Y-103973092D01*
X102558259Y-103973092D02*
X108400259Y-103973092D01*
X98748259Y-107783092D02*
X98748259Y-110323092D01*
X98748259Y-110323092D02*
X98811759Y-110386592D01*
D24*
G04 #@! TO.N,/ENABLE*
X107257259Y-107656092D02*
X100780259Y-107656092D01*
X108400259Y-106513092D02*
X107257259Y-107656092D01*
D27*
G04 #@! TO.N,Net-(B1-Pad+$1)*
X83381259Y-107118492D02*
X83381259Y-108608592D01*
X83381259Y-108608592D02*
X85730759Y-110958092D01*
X85730759Y-110958092D02*
X95509759Y-110958092D01*
X83381259Y-107118492D02*
X81002159Y-107118492D01*
X81002159Y-107118492D02*
X76586759Y-102703092D01*
X76586759Y-102703092D02*
X76586759Y-95527592D01*
X76586759Y-95527592D02*
X81446659Y-90667692D01*
X81446659Y-90667692D02*
X83381259Y-90667692D01*
X95509759Y-110958092D02*
X96017759Y-110450092D01*
X96017759Y-110450092D02*
X96017759Y-110386592D01*
D25*
G04 #@! TO.N,VDD*
X93439000Y-37997000D02*
X89375000Y-37997000D01*
X93439000Y-48411000D02*
X93439000Y-37997000D01*
X91534000Y-48919000D02*
X91407000Y-49046000D01*
X91407000Y-49046000D02*
X90518000Y-49046000D01*
X90518000Y-51713000D02*
X90518000Y-49173000D01*
X90518000Y-49046000D02*
X90518000Y-49173000D01*
X90518000Y-49046000D02*
X85565000Y-49046000D01*
X85565000Y-49046000D02*
X83152000Y-46633000D01*
G04 #@! TO.N,AD0*
X89629000Y-52729000D02*
X104361000Y-52729000D01*
G04 #@! TD*
D27*
G04 #@! TO.N,GND*
G36*
X110305259Y-111466092D02*
X76634259Y-111466092D01*
X76634259Y-108862984D01*
X76752059Y-108862984D01*
X76752059Y-109243200D01*
X76826236Y-109616110D01*
X76971738Y-109967384D01*
X77182975Y-110283523D01*
X77451828Y-110552376D01*
X77767967Y-110763613D01*
X78119241Y-110909115D01*
X78492151Y-110983292D01*
X78872367Y-110983292D01*
X79245277Y-110909115D01*
X79596551Y-110763613D01*
X79912690Y-110552376D01*
X80181543Y-110283523D01*
X80392780Y-109967384D01*
X80538282Y-109616110D01*
X80612459Y-109243200D01*
X80612459Y-108862984D01*
X80538282Y-108490074D01*
X80392780Y-108138800D01*
X80181543Y-107822661D01*
X79912690Y-107553808D01*
X79596551Y-107342571D01*
X79245277Y-107197069D01*
X78872367Y-107122892D01*
X78492151Y-107122892D01*
X78119241Y-107197069D01*
X77767967Y-107342571D01*
X77451828Y-107553808D01*
X77182975Y-107822661D01*
X76971738Y-108138800D01*
X76826236Y-108490074D01*
X76752059Y-108862984D01*
X76634259Y-108862984D01*
X76634259Y-103397169D01*
X80662994Y-107425906D01*
X80677306Y-107443345D01*
X80694745Y-107457657D01*
X80694751Y-107457663D01*
X80746923Y-107500479D01*
X80826349Y-107542933D01*
X80912532Y-107569077D01*
X80979699Y-107575692D01*
X80979707Y-107575692D01*
X81002159Y-107577903D01*
X81024611Y-107575692D01*
X81449462Y-107575692D01*
X81449462Y-108718492D01*
X81455837Y-108783222D01*
X81474719Y-108845465D01*
X81505380Y-108902829D01*
X81546643Y-108953108D01*
X81596922Y-108994371D01*
X81654286Y-109025032D01*
X81716529Y-109043914D01*
X81781259Y-109050289D01*
X83176379Y-109050289D01*
X85391594Y-111265506D01*
X85405906Y-111282945D01*
X85423345Y-111297257D01*
X85423351Y-111297263D01*
X85475523Y-111340079D01*
X85554949Y-111382533D01*
X85575008Y-111388618D01*
X85641132Y-111408677D01*
X85708299Y-111415292D01*
X85708309Y-111415292D01*
X85730759Y-111417503D01*
X85753209Y-111415292D01*
X95487309Y-111415292D01*
X95509759Y-111417503D01*
X95532209Y-111415292D01*
X95532219Y-111415292D01*
X95599386Y-111408677D01*
X95685568Y-111382533D01*
X95764995Y-111340079D01*
X95834612Y-111282945D01*
X95848933Y-111265495D01*
X95944436Y-111169992D01*
X96094917Y-111169992D01*
X96246268Y-111139887D01*
X96388838Y-111080832D01*
X96517148Y-110995099D01*
X96626266Y-110885981D01*
X96711999Y-110757671D01*
X96771054Y-110615101D01*
X96801159Y-110463750D01*
X96801159Y-110309434D01*
X98028359Y-110309434D01*
X98028359Y-110463750D01*
X98058464Y-110615101D01*
X98117519Y-110757671D01*
X98203252Y-110885981D01*
X98312370Y-110995099D01*
X98440680Y-111080832D01*
X98583250Y-111139887D01*
X98734601Y-111169992D01*
X98888917Y-111169992D01*
X99040268Y-111139887D01*
X99182838Y-111080832D01*
X99311148Y-110995099D01*
X99420266Y-110885981D01*
X99505999Y-110757671D01*
X99565054Y-110615101D01*
X99595159Y-110463750D01*
X99595159Y-110309434D01*
X99565054Y-110158083D01*
X99505999Y-110015513D01*
X99420266Y-109887203D01*
X99311148Y-109778085D01*
X99205459Y-109707467D01*
X99205459Y-108933011D01*
X107181059Y-108933011D01*
X107181059Y-109173173D01*
X107227912Y-109408719D01*
X107319818Y-109630600D01*
X107453245Y-109830287D01*
X107623064Y-110000106D01*
X107822751Y-110133533D01*
X108044632Y-110225439D01*
X108280178Y-110272292D01*
X108520340Y-110272292D01*
X108755886Y-110225439D01*
X108977767Y-110133533D01*
X109177454Y-110000106D01*
X109347273Y-109830287D01*
X109480700Y-109630600D01*
X109572606Y-109408719D01*
X109619459Y-109173173D01*
X109619459Y-108933011D01*
X109572606Y-108697465D01*
X109480700Y-108475584D01*
X109347273Y-108275897D01*
X109177454Y-108106078D01*
X108977767Y-107972651D01*
X108755886Y-107880745D01*
X108520340Y-107833892D01*
X108280178Y-107833892D01*
X108044632Y-107880745D01*
X107822751Y-107972651D01*
X107623064Y-108106078D01*
X107453245Y-108275897D01*
X107319818Y-108475584D01*
X107227912Y-108697465D01*
X107181059Y-108933011D01*
X99205459Y-108933011D01*
X99205459Y-107972469D01*
X99521836Y-107656092D01*
X100244279Y-107656092D01*
X100254578Y-107760657D01*
X100285078Y-107861203D01*
X100334608Y-107953867D01*
X100401264Y-108035087D01*
X100482484Y-108101743D01*
X100575148Y-108151273D01*
X100675694Y-108181773D01*
X100754064Y-108189492D01*
X107231072Y-108189492D01*
X107257259Y-108192071D01*
X107283446Y-108189492D01*
X107283454Y-108189492D01*
X107361824Y-108181773D01*
X107462370Y-108151273D01*
X107555034Y-108101743D01*
X107636254Y-108035087D01*
X107652954Y-108014738D01*
X108000524Y-107667169D01*
X108044632Y-107685439D01*
X108280178Y-107732292D01*
X108520340Y-107732292D01*
X108755886Y-107685439D01*
X108977767Y-107593533D01*
X109177454Y-107460106D01*
X109347273Y-107290287D01*
X109480700Y-107090600D01*
X109572606Y-106868719D01*
X109619459Y-106633173D01*
X109619459Y-106393011D01*
X109572606Y-106157465D01*
X109480700Y-105935584D01*
X109347273Y-105735897D01*
X109177454Y-105566078D01*
X108977767Y-105432651D01*
X108755886Y-105340745D01*
X108520340Y-105293892D01*
X108280178Y-105293892D01*
X108044632Y-105340745D01*
X107822751Y-105432651D01*
X107623064Y-105566078D01*
X107453245Y-105735897D01*
X107319818Y-105935584D01*
X107227912Y-106157465D01*
X107181059Y-106393011D01*
X107181059Y-106633173D01*
X107227912Y-106868719D01*
X107246182Y-106912827D01*
X107036318Y-107122692D01*
X100754064Y-107122692D01*
X100675694Y-107130411D01*
X100575148Y-107160911D01*
X100482484Y-107210441D01*
X100401264Y-107277097D01*
X100334608Y-107358317D01*
X100285078Y-107450981D01*
X100254578Y-107551527D01*
X100244279Y-107656092D01*
X99521836Y-107656092D01*
X102747638Y-104430292D01*
X107269985Y-104430292D01*
X107319818Y-104550600D01*
X107453245Y-104750287D01*
X107623064Y-104920106D01*
X107822751Y-105053533D01*
X108044632Y-105145439D01*
X108280178Y-105192292D01*
X108520340Y-105192292D01*
X108755886Y-105145439D01*
X108977767Y-105053533D01*
X109177454Y-104920106D01*
X109347273Y-104750287D01*
X109480700Y-104550600D01*
X109572606Y-104328719D01*
X109619459Y-104093173D01*
X109619459Y-103853011D01*
X109572606Y-103617465D01*
X109480700Y-103395584D01*
X109347273Y-103195897D01*
X109177454Y-103026078D01*
X108977767Y-102892651D01*
X108755886Y-102800745D01*
X108520340Y-102753892D01*
X108280178Y-102753892D01*
X108044632Y-102800745D01*
X107822751Y-102892651D01*
X107623064Y-103026078D01*
X107453245Y-103195897D01*
X107319818Y-103395584D01*
X107269985Y-103515892D01*
X102580709Y-103515892D01*
X102558259Y-103513681D01*
X102535809Y-103515892D01*
X102535799Y-103515892D01*
X102468632Y-103522507D01*
X102402508Y-103542566D01*
X102382449Y-103548651D01*
X102303023Y-103591105D01*
X102250851Y-103633921D01*
X102250845Y-103633927D01*
X102233406Y-103648239D01*
X102219094Y-103665678D01*
X98440856Y-107443918D01*
X98423406Y-107458239D01*
X98366272Y-107527857D01*
X98323818Y-107607284D01*
X98297674Y-107693466D01*
X98291059Y-107760633D01*
X98291059Y-107760642D01*
X98288848Y-107783092D01*
X98291059Y-107805542D01*
X98291060Y-109799395D01*
X98203252Y-109887203D01*
X98117519Y-110015513D01*
X98058464Y-110158083D01*
X98028359Y-110309434D01*
X96801159Y-110309434D01*
X96771054Y-110158083D01*
X96711999Y-110015513D01*
X96626266Y-109887203D01*
X96517148Y-109778085D01*
X96388838Y-109692352D01*
X96246268Y-109633297D01*
X96094917Y-109603192D01*
X95940601Y-109603192D01*
X95789250Y-109633297D01*
X95646680Y-109692352D01*
X95518370Y-109778085D01*
X95409252Y-109887203D01*
X95323519Y-110015513D01*
X95264464Y-110158083D01*
X95234359Y-110309434D01*
X95234359Y-110463750D01*
X95241747Y-110500892D01*
X85920138Y-110500892D01*
X84469534Y-109050289D01*
X84981259Y-109050289D01*
X85045989Y-109043914D01*
X85108232Y-109025032D01*
X85165596Y-108994371D01*
X85215875Y-108953108D01*
X85257138Y-108902829D01*
X85287799Y-108845465D01*
X85306681Y-108783222D01*
X85313056Y-108718492D01*
X85313056Y-105518492D01*
X85306681Y-105453762D01*
X85287799Y-105391519D01*
X85257138Y-105334155D01*
X85215875Y-105283876D01*
X85165596Y-105242613D01*
X85108232Y-105211952D01*
X85045989Y-105193070D01*
X84981259Y-105186695D01*
X81781259Y-105186695D01*
X81716529Y-105193070D01*
X81654286Y-105211952D01*
X81596922Y-105242613D01*
X81546643Y-105283876D01*
X81505380Y-105334155D01*
X81474719Y-105391519D01*
X81455837Y-105453762D01*
X81449462Y-105518492D01*
X81449462Y-106661292D01*
X81191538Y-106661292D01*
X78172179Y-103641934D01*
X96059859Y-103641934D01*
X96059859Y-103796250D01*
X96089964Y-103947601D01*
X96149019Y-104090171D01*
X96234752Y-104218481D01*
X96343870Y-104327599D01*
X96472180Y-104413332D01*
X96614750Y-104472387D01*
X96766101Y-104502492D01*
X96920417Y-104502492D01*
X97071768Y-104472387D01*
X97214338Y-104413332D01*
X97342648Y-104327599D01*
X97451766Y-104218481D01*
X97537499Y-104090171D01*
X97596554Y-103947601D01*
X97626659Y-103796250D01*
X97626659Y-103690033D01*
X99360910Y-101955783D01*
X99381254Y-101939087D01*
X99447910Y-101857867D01*
X99497440Y-101765203D01*
X99527940Y-101664657D01*
X99535659Y-101586287D01*
X99535659Y-101586280D01*
X99538238Y-101560093D01*
X99535659Y-101533906D01*
X99535659Y-101313011D01*
X107181059Y-101313011D01*
X107181059Y-101553173D01*
X107227912Y-101788719D01*
X107319818Y-102010600D01*
X107453245Y-102210287D01*
X107623064Y-102380106D01*
X107822751Y-102513533D01*
X108044632Y-102605439D01*
X108280178Y-102652292D01*
X108520340Y-102652292D01*
X108755886Y-102605439D01*
X108977767Y-102513533D01*
X109177454Y-102380106D01*
X109347273Y-102210287D01*
X109480700Y-102010600D01*
X109572606Y-101788719D01*
X109619459Y-101553173D01*
X109619459Y-101313011D01*
X109572606Y-101077465D01*
X109480700Y-100855584D01*
X109347273Y-100655897D01*
X109177454Y-100486078D01*
X108977767Y-100352651D01*
X108755886Y-100260745D01*
X108520340Y-100213892D01*
X108280178Y-100213892D01*
X108044632Y-100260745D01*
X107822751Y-100352651D01*
X107623064Y-100486078D01*
X107453245Y-100655897D01*
X107319818Y-100855584D01*
X107227912Y-101077465D01*
X107181059Y-101313011D01*
X99535659Y-101313011D01*
X99535659Y-100229588D01*
X99610766Y-100154481D01*
X99696499Y-100026171D01*
X99755554Y-99883601D01*
X99785659Y-99732250D01*
X99785659Y-99577934D01*
X99755554Y-99426583D01*
X99696499Y-99284013D01*
X99610766Y-99155703D01*
X99501648Y-99046585D01*
X99373338Y-98960852D01*
X99230768Y-98901797D01*
X99079417Y-98871692D01*
X98925101Y-98871692D01*
X98773750Y-98901797D01*
X98631180Y-98960852D01*
X98502870Y-99046585D01*
X98393752Y-99155703D01*
X98308019Y-99284013D01*
X98248964Y-99426583D01*
X98218859Y-99577934D01*
X98218859Y-99732250D01*
X98248964Y-99883601D01*
X98308019Y-100026171D01*
X98393752Y-100154481D01*
X98468860Y-100229589D01*
X98468859Y-101339150D01*
X96872318Y-102935692D01*
X96766101Y-102935692D01*
X96614750Y-102965797D01*
X96472180Y-103024852D01*
X96343870Y-103110585D01*
X96234752Y-103219703D01*
X96149019Y-103348013D01*
X96089964Y-103490583D01*
X96059859Y-103641934D01*
X78172179Y-103641934D01*
X77043959Y-102513715D01*
X77043959Y-99025842D01*
X79950259Y-99025842D01*
X79950259Y-101935542D01*
X79966822Y-102018810D01*
X79999312Y-102097247D01*
X80046480Y-102167839D01*
X80106513Y-102227872D01*
X80177104Y-102275039D01*
X80255541Y-102307529D01*
X80338809Y-102324092D01*
X83248509Y-102324092D01*
X83356259Y-102216342D01*
X83356259Y-98918092D01*
X83406259Y-98918092D01*
X83406259Y-102216342D01*
X83514009Y-102324092D01*
X86423709Y-102324092D01*
X86506977Y-102307529D01*
X86585414Y-102275039D01*
X86656005Y-102227872D01*
X86716038Y-102167839D01*
X86763206Y-102097247D01*
X86795696Y-102018810D01*
X86812259Y-101935542D01*
X86812259Y-100045456D01*
X91126059Y-100045456D01*
X91126059Y-100356728D01*
X91186785Y-100662019D01*
X91305904Y-100949597D01*
X91478837Y-101208411D01*
X91698940Y-101428514D01*
X91957754Y-101601447D01*
X92245332Y-101720566D01*
X92550623Y-101781292D01*
X92861895Y-101781292D01*
X93167186Y-101720566D01*
X93454764Y-101601447D01*
X93713578Y-101428514D01*
X93933681Y-101208411D01*
X94106614Y-100949597D01*
X94225733Y-100662019D01*
X94286459Y-100356728D01*
X94286459Y-100045456D01*
X94225733Y-99740165D01*
X94106614Y-99452587D01*
X93933681Y-99193773D01*
X93713578Y-98973670D01*
X93454764Y-98800737D01*
X93387828Y-98773011D01*
X107181059Y-98773011D01*
X107181059Y-99013173D01*
X107227912Y-99248719D01*
X107319818Y-99470600D01*
X107453245Y-99670287D01*
X107623064Y-99840106D01*
X107822751Y-99973533D01*
X108044632Y-100065439D01*
X108280178Y-100112292D01*
X108520340Y-100112292D01*
X108755886Y-100065439D01*
X108977767Y-99973533D01*
X109177454Y-99840106D01*
X109347273Y-99670287D01*
X109480700Y-99470600D01*
X109572606Y-99248719D01*
X109619459Y-99013173D01*
X109619459Y-98773011D01*
X109572606Y-98537465D01*
X109480700Y-98315584D01*
X109347273Y-98115897D01*
X109177454Y-97946078D01*
X108977767Y-97812651D01*
X108755886Y-97720745D01*
X108520340Y-97673892D01*
X108280178Y-97673892D01*
X108044632Y-97720745D01*
X107822751Y-97812651D01*
X107623064Y-97946078D01*
X107453245Y-98115897D01*
X107319818Y-98315584D01*
X107227912Y-98537465D01*
X107181059Y-98773011D01*
X93387828Y-98773011D01*
X93167186Y-98681618D01*
X92861895Y-98620892D01*
X92550623Y-98620892D01*
X92245332Y-98681618D01*
X91957754Y-98800737D01*
X91698940Y-98973670D01*
X91478837Y-99193773D01*
X91305904Y-99452587D01*
X91186785Y-99740165D01*
X91126059Y-100045456D01*
X86812259Y-100045456D01*
X86812259Y-99025842D01*
X86704509Y-98918092D01*
X83406259Y-98918092D01*
X83356259Y-98918092D01*
X80058009Y-98918092D01*
X79950259Y-99025842D01*
X77043959Y-99025842D01*
X77043959Y-95850642D01*
X79950259Y-95850642D01*
X79950259Y-98760342D01*
X80058009Y-98868092D01*
X83356259Y-98868092D01*
X83356259Y-95569842D01*
X83406259Y-95569842D01*
X83406259Y-98868092D01*
X86704509Y-98868092D01*
X86812259Y-98760342D01*
X86812259Y-96233011D01*
X107181059Y-96233011D01*
X107181059Y-96473173D01*
X107227912Y-96708719D01*
X107319818Y-96930600D01*
X107453245Y-97130287D01*
X107623064Y-97300106D01*
X107822751Y-97433533D01*
X108044632Y-97525439D01*
X108280178Y-97572292D01*
X108520340Y-97572292D01*
X108755886Y-97525439D01*
X108977767Y-97433533D01*
X109177454Y-97300106D01*
X109347273Y-97130287D01*
X109480700Y-96930600D01*
X109572606Y-96708719D01*
X109619459Y-96473173D01*
X109619459Y-96233011D01*
X109572606Y-95997465D01*
X109480700Y-95775584D01*
X109347273Y-95575897D01*
X109177454Y-95406078D01*
X108977767Y-95272651D01*
X108755886Y-95180745D01*
X108520340Y-95133892D01*
X108441317Y-95133892D01*
X108632407Y-95119004D01*
X108882717Y-95048622D01*
X109114487Y-94930758D01*
X109159526Y-94900665D01*
X109244107Y-94692295D01*
X108400259Y-93848447D01*
X107556411Y-94692295D01*
X107640992Y-94900665D01*
X107867757Y-95027893D01*
X108114985Y-95108437D01*
X108328619Y-95133892D01*
X108280178Y-95133892D01*
X108044632Y-95180745D01*
X107822751Y-95272651D01*
X107623064Y-95406078D01*
X107453245Y-95575897D01*
X107319818Y-95775584D01*
X107227912Y-95997465D01*
X107181059Y-96233011D01*
X86812259Y-96233011D01*
X86812259Y-95850642D01*
X86795696Y-95767374D01*
X86763206Y-95688937D01*
X86716038Y-95618345D01*
X86656005Y-95558312D01*
X86585414Y-95511145D01*
X86506977Y-95478655D01*
X86423709Y-95462092D01*
X83514009Y-95462092D01*
X83406259Y-95569842D01*
X83356259Y-95569842D01*
X83248509Y-95462092D01*
X80338809Y-95462092D01*
X80255541Y-95478655D01*
X80177104Y-95511145D01*
X80106513Y-95558312D01*
X80046480Y-95618345D01*
X79999312Y-95688937D01*
X79966822Y-95767374D01*
X79950259Y-95850642D01*
X77043959Y-95850642D01*
X77043959Y-95716969D01*
X79659994Y-93100934D01*
X93900859Y-93100934D01*
X93900859Y-93255250D01*
X93930964Y-93406601D01*
X93990019Y-93549171D01*
X94075752Y-93677481D01*
X94184870Y-93786599D01*
X94313180Y-93872332D01*
X94455750Y-93931387D01*
X94607101Y-93961492D01*
X94761417Y-93961492D01*
X94912768Y-93931387D01*
X95055338Y-93872332D01*
X95183648Y-93786599D01*
X95184239Y-93786008D01*
X107074150Y-93786008D01*
X107094347Y-94045240D01*
X107164729Y-94295550D01*
X107282593Y-94527320D01*
X107312686Y-94572359D01*
X107521056Y-94656940D01*
X108364904Y-93813092D01*
X108435614Y-93813092D01*
X109279462Y-94656940D01*
X109487832Y-94572359D01*
X109615060Y-94345594D01*
X109695604Y-94098366D01*
X109726368Y-93840176D01*
X109706171Y-93580944D01*
X109635789Y-93330634D01*
X109517925Y-93098864D01*
X109487832Y-93053825D01*
X109279462Y-92969244D01*
X108435614Y-93813092D01*
X108364904Y-93813092D01*
X107521056Y-92969244D01*
X107312686Y-93053825D01*
X107185458Y-93280590D01*
X107104914Y-93527818D01*
X107074150Y-93786008D01*
X95184239Y-93786008D01*
X95292766Y-93677481D01*
X95320955Y-93635292D01*
X103297809Y-93635292D01*
X103320259Y-93637503D01*
X103342709Y-93635292D01*
X103342719Y-93635292D01*
X103409886Y-93628677D01*
X103496068Y-93602533D01*
X103575495Y-93560079D01*
X103645112Y-93502945D01*
X103659433Y-93485495D01*
X105991917Y-91153011D01*
X107181059Y-91153011D01*
X107181059Y-91393173D01*
X107227912Y-91628719D01*
X107319818Y-91850600D01*
X107453245Y-92050287D01*
X107623064Y-92220106D01*
X107822751Y-92353533D01*
X108044632Y-92445439D01*
X108280178Y-92492292D01*
X108359201Y-92492292D01*
X108168111Y-92507180D01*
X107917801Y-92577562D01*
X107686031Y-92695426D01*
X107640992Y-92725519D01*
X107556411Y-92933889D01*
X108400259Y-93777737D01*
X109244107Y-92933889D01*
X109159526Y-92725519D01*
X108932761Y-92598291D01*
X108685533Y-92517747D01*
X108471899Y-92492292D01*
X108520340Y-92492292D01*
X108755886Y-92445439D01*
X108977767Y-92353533D01*
X109177454Y-92220106D01*
X109347273Y-92050287D01*
X109480700Y-91850600D01*
X109572606Y-91628719D01*
X109619459Y-91393173D01*
X109619459Y-91153011D01*
X109572606Y-90917465D01*
X109480700Y-90695584D01*
X109347273Y-90495897D01*
X109177454Y-90326078D01*
X108977767Y-90192651D01*
X108755886Y-90100745D01*
X108520340Y-90053892D01*
X108280178Y-90053892D01*
X108044632Y-90100745D01*
X107822751Y-90192651D01*
X107623064Y-90326078D01*
X107453245Y-90495897D01*
X107319818Y-90695584D01*
X107227912Y-90917465D01*
X107181059Y-91153011D01*
X105991917Y-91153011D01*
X107543943Y-89600985D01*
X107623064Y-89680106D01*
X107822751Y-89813533D01*
X108044632Y-89905439D01*
X108280178Y-89952292D01*
X108520340Y-89952292D01*
X108755886Y-89905439D01*
X108977767Y-89813533D01*
X109177454Y-89680106D01*
X109347273Y-89510287D01*
X109480700Y-89310600D01*
X109572606Y-89088719D01*
X109619459Y-88853173D01*
X109619459Y-88613011D01*
X109572606Y-88377465D01*
X109480700Y-88155584D01*
X109347273Y-87955897D01*
X109177454Y-87786078D01*
X108977767Y-87652651D01*
X108755886Y-87560745D01*
X108520340Y-87513892D01*
X108280178Y-87513892D01*
X108044632Y-87560745D01*
X107822751Y-87652651D01*
X107623064Y-87786078D01*
X107453245Y-87955897D01*
X107319818Y-88155584D01*
X107227912Y-88377465D01*
X107181059Y-88613011D01*
X107181059Y-88670714D01*
X105454560Y-90397213D01*
X105470554Y-90358601D01*
X105500659Y-90207250D01*
X105500659Y-90052934D01*
X105470554Y-89901583D01*
X105411499Y-89759013D01*
X105325766Y-89630703D01*
X105216648Y-89521585D01*
X105088338Y-89435852D01*
X104945768Y-89376797D01*
X104794417Y-89346692D01*
X104640101Y-89346692D01*
X104488750Y-89376797D01*
X104346180Y-89435852D01*
X104217870Y-89521585D01*
X104108752Y-89630703D01*
X104023019Y-89759013D01*
X103963964Y-89901583D01*
X103933859Y-90052934D01*
X103933859Y-90159150D01*
X102337318Y-91755692D01*
X96436064Y-91755692D01*
X96357694Y-91763411D01*
X96257148Y-91793911D01*
X96164484Y-91843441D01*
X96083264Y-91910097D01*
X96016608Y-91991317D01*
X95967078Y-92083981D01*
X95936578Y-92184527D01*
X95926279Y-92289092D01*
X95936578Y-92393657D01*
X95967078Y-92494203D01*
X96016608Y-92586867D01*
X96083264Y-92668087D01*
X96147607Y-92720892D01*
X95320955Y-92720892D01*
X95292766Y-92678703D01*
X95183648Y-92569585D01*
X95055338Y-92483852D01*
X94912768Y-92424797D01*
X94761417Y-92394692D01*
X94607101Y-92394692D01*
X94455750Y-92424797D01*
X94313180Y-92483852D01*
X94184870Y-92569585D01*
X94075752Y-92678703D01*
X93990019Y-92807013D01*
X93930964Y-92949583D01*
X93900859Y-93100934D01*
X79659994Y-93100934D01*
X81449462Y-91311467D01*
X81449462Y-92267692D01*
X81455837Y-92332422D01*
X81474719Y-92394665D01*
X81505380Y-92452029D01*
X81546643Y-92502308D01*
X81596922Y-92543571D01*
X81654286Y-92574232D01*
X81716529Y-92593114D01*
X81781259Y-92599489D01*
X84981259Y-92599489D01*
X85045989Y-92593114D01*
X85108232Y-92574232D01*
X85165596Y-92543571D01*
X85215875Y-92502308D01*
X85257138Y-92452029D01*
X85287799Y-92394665D01*
X85306681Y-92332422D01*
X85313056Y-92267692D01*
X85313056Y-91703934D01*
X89963859Y-91703934D01*
X89963859Y-91858250D01*
X89993964Y-92009601D01*
X90053019Y-92152171D01*
X90138752Y-92280481D01*
X90247870Y-92389599D01*
X90376180Y-92475332D01*
X90518750Y-92534387D01*
X90670101Y-92564492D01*
X90824417Y-92564492D01*
X90975768Y-92534387D01*
X91118338Y-92475332D01*
X91246648Y-92389599D01*
X91355766Y-92280481D01*
X91441499Y-92152171D01*
X91500554Y-92009601D01*
X91530659Y-91858250D01*
X91530659Y-91703934D01*
X91500554Y-91552583D01*
X91441499Y-91410013D01*
X91355766Y-91281703D01*
X91280659Y-91206596D01*
X91280659Y-91113033D01*
X92746200Y-89647492D01*
X96944860Y-89647492D01*
X96944859Y-90317596D01*
X96869752Y-90392703D01*
X96784019Y-90521013D01*
X96724964Y-90663583D01*
X96694859Y-90814934D01*
X96694859Y-90969250D01*
X96724964Y-91120601D01*
X96784019Y-91263171D01*
X96869752Y-91391481D01*
X96978870Y-91500599D01*
X97107180Y-91586332D01*
X97249750Y-91645387D01*
X97401101Y-91675492D01*
X97555417Y-91675492D01*
X97706768Y-91645387D01*
X97849338Y-91586332D01*
X97977648Y-91500599D01*
X98086766Y-91391481D01*
X98172499Y-91263171D01*
X98231554Y-91120601D01*
X98261659Y-90969250D01*
X98261659Y-90814934D01*
X98231554Y-90663583D01*
X98172499Y-90521013D01*
X98086766Y-90392703D01*
X98011659Y-90317596D01*
X98011659Y-89647492D01*
X101770072Y-89647492D01*
X101796259Y-89650071D01*
X101822446Y-89647492D01*
X101822454Y-89647492D01*
X101900824Y-89639773D01*
X102001370Y-89609273D01*
X102094034Y-89559743D01*
X102175254Y-89493087D01*
X102191954Y-89472738D01*
X103551910Y-88112783D01*
X103572254Y-88096087D01*
X103638910Y-88014867D01*
X103688440Y-87922203D01*
X103718940Y-87821657D01*
X103722256Y-87787991D01*
X103801766Y-87708481D01*
X103887499Y-87580171D01*
X103946554Y-87437601D01*
X103976659Y-87286250D01*
X103976659Y-87131934D01*
X103946554Y-86980583D01*
X103887499Y-86838013D01*
X103801766Y-86709703D01*
X103692648Y-86600585D01*
X103564338Y-86514852D01*
X103421768Y-86455797D01*
X103270417Y-86425692D01*
X103116101Y-86425692D01*
X102964750Y-86455797D01*
X102822180Y-86514852D01*
X102693870Y-86600585D01*
X102584752Y-86709703D01*
X102499019Y-86838013D01*
X102439964Y-86980583D01*
X102409859Y-87131934D01*
X102409859Y-87286250D01*
X102439964Y-87437601D01*
X102499019Y-87580171D01*
X102529788Y-87626221D01*
X101575318Y-88580692D01*
X97504454Y-88580692D01*
X97478259Y-88578112D01*
X97452065Y-88580692D01*
X92551453Y-88580692D01*
X92525259Y-88578112D01*
X92499065Y-88580692D01*
X92499064Y-88580692D01*
X92420694Y-88588411D01*
X92320148Y-88618911D01*
X92227484Y-88668441D01*
X92146264Y-88735097D01*
X92129566Y-88755444D01*
X90388614Y-90496396D01*
X90368264Y-90513097D01*
X90301608Y-90594317D01*
X90252078Y-90686982D01*
X90221578Y-90787528D01*
X90213859Y-90865898D01*
X90213859Y-90865905D01*
X90211280Y-90892092D01*
X90213859Y-90918279D01*
X90213859Y-91206596D01*
X90138752Y-91281703D01*
X90053019Y-91410013D01*
X89993964Y-91552583D01*
X89963859Y-91703934D01*
X85313056Y-91703934D01*
X85313056Y-89067692D01*
X85306681Y-89002962D01*
X85287799Y-88940719D01*
X85257138Y-88883355D01*
X85215875Y-88833076D01*
X85165596Y-88791813D01*
X85108232Y-88761152D01*
X85045989Y-88742270D01*
X84981259Y-88735895D01*
X81781259Y-88735895D01*
X81716529Y-88742270D01*
X81654286Y-88761152D01*
X81596922Y-88791813D01*
X81546643Y-88833076D01*
X81505380Y-88883355D01*
X81474719Y-88940719D01*
X81455837Y-89002962D01*
X81449462Y-89067692D01*
X81449462Y-90208557D01*
X81446658Y-90208281D01*
X81424208Y-90210492D01*
X81424199Y-90210492D01*
X81357032Y-90217107D01*
X81270850Y-90243251D01*
X81233876Y-90263014D01*
X81191422Y-90285705D01*
X81142229Y-90326078D01*
X81121806Y-90342839D01*
X81107489Y-90360284D01*
X76634259Y-94833515D01*
X76634259Y-88542984D01*
X76752059Y-88542984D01*
X76752059Y-88923200D01*
X76826236Y-89296110D01*
X76971738Y-89647384D01*
X77182975Y-89963523D01*
X77451828Y-90232376D01*
X77767967Y-90443613D01*
X78119241Y-90589115D01*
X78492151Y-90663292D01*
X78872367Y-90663292D01*
X79245277Y-90589115D01*
X79596551Y-90443613D01*
X79912690Y-90232376D01*
X80181543Y-89963523D01*
X80392780Y-89647384D01*
X80538282Y-89296110D01*
X80612459Y-88923200D01*
X80612459Y-88542984D01*
X80538282Y-88170074D01*
X80392780Y-87818800D01*
X80181543Y-87502661D01*
X79912690Y-87233808D01*
X79596551Y-87022571D01*
X79245277Y-86877069D01*
X78872367Y-86802892D01*
X78492151Y-86802892D01*
X78119241Y-86877069D01*
X77767967Y-87022571D01*
X77451828Y-87233808D01*
X77182975Y-87502661D01*
X76971738Y-87818800D01*
X76826236Y-88170074D01*
X76752059Y-88542984D01*
X76634259Y-88542984D01*
X76634259Y-86320092D01*
X110305259Y-86320092D01*
X110305259Y-111466092D01*
X110305259Y-111466092D01*
G37*
X110305259Y-111466092D02*
X76634259Y-111466092D01*
X76634259Y-108862984D01*
X76752059Y-108862984D01*
X76752059Y-109243200D01*
X76826236Y-109616110D01*
X76971738Y-109967384D01*
X77182975Y-110283523D01*
X77451828Y-110552376D01*
X77767967Y-110763613D01*
X78119241Y-110909115D01*
X78492151Y-110983292D01*
X78872367Y-110983292D01*
X79245277Y-110909115D01*
X79596551Y-110763613D01*
X79912690Y-110552376D01*
X80181543Y-110283523D01*
X80392780Y-109967384D01*
X80538282Y-109616110D01*
X80612459Y-109243200D01*
X80612459Y-108862984D01*
X80538282Y-108490074D01*
X80392780Y-108138800D01*
X80181543Y-107822661D01*
X79912690Y-107553808D01*
X79596551Y-107342571D01*
X79245277Y-107197069D01*
X78872367Y-107122892D01*
X78492151Y-107122892D01*
X78119241Y-107197069D01*
X77767967Y-107342571D01*
X77451828Y-107553808D01*
X77182975Y-107822661D01*
X76971738Y-108138800D01*
X76826236Y-108490074D01*
X76752059Y-108862984D01*
X76634259Y-108862984D01*
X76634259Y-103397169D01*
X80662994Y-107425906D01*
X80677306Y-107443345D01*
X80694745Y-107457657D01*
X80694751Y-107457663D01*
X80746923Y-107500479D01*
X80826349Y-107542933D01*
X80912532Y-107569077D01*
X80979699Y-107575692D01*
X80979707Y-107575692D01*
X81002159Y-107577903D01*
X81024611Y-107575692D01*
X81449462Y-107575692D01*
X81449462Y-108718492D01*
X81455837Y-108783222D01*
X81474719Y-108845465D01*
X81505380Y-108902829D01*
X81546643Y-108953108D01*
X81596922Y-108994371D01*
X81654286Y-109025032D01*
X81716529Y-109043914D01*
X81781259Y-109050289D01*
X83176379Y-109050289D01*
X85391594Y-111265506D01*
X85405906Y-111282945D01*
X85423345Y-111297257D01*
X85423351Y-111297263D01*
X85475523Y-111340079D01*
X85554949Y-111382533D01*
X85575008Y-111388618D01*
X85641132Y-111408677D01*
X85708299Y-111415292D01*
X85708309Y-111415292D01*
X85730759Y-111417503D01*
X85753209Y-111415292D01*
X95487309Y-111415292D01*
X95509759Y-111417503D01*
X95532209Y-111415292D01*
X95532219Y-111415292D01*
X95599386Y-111408677D01*
X95685568Y-111382533D01*
X95764995Y-111340079D01*
X95834612Y-111282945D01*
X95848933Y-111265495D01*
X95944436Y-111169992D01*
X96094917Y-111169992D01*
X96246268Y-111139887D01*
X96388838Y-111080832D01*
X96517148Y-110995099D01*
X96626266Y-110885981D01*
X96711999Y-110757671D01*
X96771054Y-110615101D01*
X96801159Y-110463750D01*
X96801159Y-110309434D01*
X98028359Y-110309434D01*
X98028359Y-110463750D01*
X98058464Y-110615101D01*
X98117519Y-110757671D01*
X98203252Y-110885981D01*
X98312370Y-110995099D01*
X98440680Y-111080832D01*
X98583250Y-111139887D01*
X98734601Y-111169992D01*
X98888917Y-111169992D01*
X99040268Y-111139887D01*
X99182838Y-111080832D01*
X99311148Y-110995099D01*
X99420266Y-110885981D01*
X99505999Y-110757671D01*
X99565054Y-110615101D01*
X99595159Y-110463750D01*
X99595159Y-110309434D01*
X99565054Y-110158083D01*
X99505999Y-110015513D01*
X99420266Y-109887203D01*
X99311148Y-109778085D01*
X99205459Y-109707467D01*
X99205459Y-108933011D01*
X107181059Y-108933011D01*
X107181059Y-109173173D01*
X107227912Y-109408719D01*
X107319818Y-109630600D01*
X107453245Y-109830287D01*
X107623064Y-110000106D01*
X107822751Y-110133533D01*
X108044632Y-110225439D01*
X108280178Y-110272292D01*
X108520340Y-110272292D01*
X108755886Y-110225439D01*
X108977767Y-110133533D01*
X109177454Y-110000106D01*
X109347273Y-109830287D01*
X109480700Y-109630600D01*
X109572606Y-109408719D01*
X109619459Y-109173173D01*
X109619459Y-108933011D01*
X109572606Y-108697465D01*
X109480700Y-108475584D01*
X109347273Y-108275897D01*
X109177454Y-108106078D01*
X108977767Y-107972651D01*
X108755886Y-107880745D01*
X108520340Y-107833892D01*
X108280178Y-107833892D01*
X108044632Y-107880745D01*
X107822751Y-107972651D01*
X107623064Y-108106078D01*
X107453245Y-108275897D01*
X107319818Y-108475584D01*
X107227912Y-108697465D01*
X107181059Y-108933011D01*
X99205459Y-108933011D01*
X99205459Y-107972469D01*
X99521836Y-107656092D01*
X100244279Y-107656092D01*
X100254578Y-107760657D01*
X100285078Y-107861203D01*
X100334608Y-107953867D01*
X100401264Y-108035087D01*
X100482484Y-108101743D01*
X100575148Y-108151273D01*
X100675694Y-108181773D01*
X100754064Y-108189492D01*
X107231072Y-108189492D01*
X107257259Y-108192071D01*
X107283446Y-108189492D01*
X107283454Y-108189492D01*
X107361824Y-108181773D01*
X107462370Y-108151273D01*
X107555034Y-108101743D01*
X107636254Y-108035087D01*
X107652954Y-108014738D01*
X108000524Y-107667169D01*
X108044632Y-107685439D01*
X108280178Y-107732292D01*
X108520340Y-107732292D01*
X108755886Y-107685439D01*
X108977767Y-107593533D01*
X109177454Y-107460106D01*
X109347273Y-107290287D01*
X109480700Y-107090600D01*
X109572606Y-106868719D01*
X109619459Y-106633173D01*
X109619459Y-106393011D01*
X109572606Y-106157465D01*
X109480700Y-105935584D01*
X109347273Y-105735897D01*
X109177454Y-105566078D01*
X108977767Y-105432651D01*
X108755886Y-105340745D01*
X108520340Y-105293892D01*
X108280178Y-105293892D01*
X108044632Y-105340745D01*
X107822751Y-105432651D01*
X107623064Y-105566078D01*
X107453245Y-105735897D01*
X107319818Y-105935584D01*
X107227912Y-106157465D01*
X107181059Y-106393011D01*
X107181059Y-106633173D01*
X107227912Y-106868719D01*
X107246182Y-106912827D01*
X107036318Y-107122692D01*
X100754064Y-107122692D01*
X100675694Y-107130411D01*
X100575148Y-107160911D01*
X100482484Y-107210441D01*
X100401264Y-107277097D01*
X100334608Y-107358317D01*
X100285078Y-107450981D01*
X100254578Y-107551527D01*
X100244279Y-107656092D01*
X99521836Y-107656092D01*
X102747638Y-104430292D01*
X107269985Y-104430292D01*
X107319818Y-104550600D01*
X107453245Y-104750287D01*
X107623064Y-104920106D01*
X107822751Y-105053533D01*
X108044632Y-105145439D01*
X108280178Y-105192292D01*
X108520340Y-105192292D01*
X108755886Y-105145439D01*
X108977767Y-105053533D01*
X109177454Y-104920106D01*
X109347273Y-104750287D01*
X109480700Y-104550600D01*
X109572606Y-104328719D01*
X109619459Y-104093173D01*
X109619459Y-103853011D01*
X109572606Y-103617465D01*
X109480700Y-103395584D01*
X109347273Y-103195897D01*
X109177454Y-103026078D01*
X108977767Y-102892651D01*
X108755886Y-102800745D01*
X108520340Y-102753892D01*
X108280178Y-102753892D01*
X108044632Y-102800745D01*
X107822751Y-102892651D01*
X107623064Y-103026078D01*
X107453245Y-103195897D01*
X107319818Y-103395584D01*
X107269985Y-103515892D01*
X102580709Y-103515892D01*
X102558259Y-103513681D01*
X102535809Y-103515892D01*
X102535799Y-103515892D01*
X102468632Y-103522507D01*
X102402508Y-103542566D01*
X102382449Y-103548651D01*
X102303023Y-103591105D01*
X102250851Y-103633921D01*
X102250845Y-103633927D01*
X102233406Y-103648239D01*
X102219094Y-103665678D01*
X98440856Y-107443918D01*
X98423406Y-107458239D01*
X98366272Y-107527857D01*
X98323818Y-107607284D01*
X98297674Y-107693466D01*
X98291059Y-107760633D01*
X98291059Y-107760642D01*
X98288848Y-107783092D01*
X98291059Y-107805542D01*
X98291060Y-109799395D01*
X98203252Y-109887203D01*
X98117519Y-110015513D01*
X98058464Y-110158083D01*
X98028359Y-110309434D01*
X96801159Y-110309434D01*
X96771054Y-110158083D01*
X96711999Y-110015513D01*
X96626266Y-109887203D01*
X96517148Y-109778085D01*
X96388838Y-109692352D01*
X96246268Y-109633297D01*
X96094917Y-109603192D01*
X95940601Y-109603192D01*
X95789250Y-109633297D01*
X95646680Y-109692352D01*
X95518370Y-109778085D01*
X95409252Y-109887203D01*
X95323519Y-110015513D01*
X95264464Y-110158083D01*
X95234359Y-110309434D01*
X95234359Y-110463750D01*
X95241747Y-110500892D01*
X85920138Y-110500892D01*
X84469534Y-109050289D01*
X84981259Y-109050289D01*
X85045989Y-109043914D01*
X85108232Y-109025032D01*
X85165596Y-108994371D01*
X85215875Y-108953108D01*
X85257138Y-108902829D01*
X85287799Y-108845465D01*
X85306681Y-108783222D01*
X85313056Y-108718492D01*
X85313056Y-105518492D01*
X85306681Y-105453762D01*
X85287799Y-105391519D01*
X85257138Y-105334155D01*
X85215875Y-105283876D01*
X85165596Y-105242613D01*
X85108232Y-105211952D01*
X85045989Y-105193070D01*
X84981259Y-105186695D01*
X81781259Y-105186695D01*
X81716529Y-105193070D01*
X81654286Y-105211952D01*
X81596922Y-105242613D01*
X81546643Y-105283876D01*
X81505380Y-105334155D01*
X81474719Y-105391519D01*
X81455837Y-105453762D01*
X81449462Y-105518492D01*
X81449462Y-106661292D01*
X81191538Y-106661292D01*
X78172179Y-103641934D01*
X96059859Y-103641934D01*
X96059859Y-103796250D01*
X96089964Y-103947601D01*
X96149019Y-104090171D01*
X96234752Y-104218481D01*
X96343870Y-104327599D01*
X96472180Y-104413332D01*
X96614750Y-104472387D01*
X96766101Y-104502492D01*
X96920417Y-104502492D01*
X97071768Y-104472387D01*
X97214338Y-104413332D01*
X97342648Y-104327599D01*
X97451766Y-104218481D01*
X97537499Y-104090171D01*
X97596554Y-103947601D01*
X97626659Y-103796250D01*
X97626659Y-103690033D01*
X99360910Y-101955783D01*
X99381254Y-101939087D01*
X99447910Y-101857867D01*
X99497440Y-101765203D01*
X99527940Y-101664657D01*
X99535659Y-101586287D01*
X99535659Y-101586280D01*
X99538238Y-101560093D01*
X99535659Y-101533906D01*
X99535659Y-101313011D01*
X107181059Y-101313011D01*
X107181059Y-101553173D01*
X107227912Y-101788719D01*
X107319818Y-102010600D01*
X107453245Y-102210287D01*
X107623064Y-102380106D01*
X107822751Y-102513533D01*
X108044632Y-102605439D01*
X108280178Y-102652292D01*
X108520340Y-102652292D01*
X108755886Y-102605439D01*
X108977767Y-102513533D01*
X109177454Y-102380106D01*
X109347273Y-102210287D01*
X109480700Y-102010600D01*
X109572606Y-101788719D01*
X109619459Y-101553173D01*
X109619459Y-101313011D01*
X109572606Y-101077465D01*
X109480700Y-100855584D01*
X109347273Y-100655897D01*
X109177454Y-100486078D01*
X108977767Y-100352651D01*
X108755886Y-100260745D01*
X108520340Y-100213892D01*
X108280178Y-100213892D01*
X108044632Y-100260745D01*
X107822751Y-100352651D01*
X107623064Y-100486078D01*
X107453245Y-100655897D01*
X107319818Y-100855584D01*
X107227912Y-101077465D01*
X107181059Y-101313011D01*
X99535659Y-101313011D01*
X99535659Y-100229588D01*
X99610766Y-100154481D01*
X99696499Y-100026171D01*
X99755554Y-99883601D01*
X99785659Y-99732250D01*
X99785659Y-99577934D01*
X99755554Y-99426583D01*
X99696499Y-99284013D01*
X99610766Y-99155703D01*
X99501648Y-99046585D01*
X99373338Y-98960852D01*
X99230768Y-98901797D01*
X99079417Y-98871692D01*
X98925101Y-98871692D01*
X98773750Y-98901797D01*
X98631180Y-98960852D01*
X98502870Y-99046585D01*
X98393752Y-99155703D01*
X98308019Y-99284013D01*
X98248964Y-99426583D01*
X98218859Y-99577934D01*
X98218859Y-99732250D01*
X98248964Y-99883601D01*
X98308019Y-100026171D01*
X98393752Y-100154481D01*
X98468860Y-100229589D01*
X98468859Y-101339150D01*
X96872318Y-102935692D01*
X96766101Y-102935692D01*
X96614750Y-102965797D01*
X96472180Y-103024852D01*
X96343870Y-103110585D01*
X96234752Y-103219703D01*
X96149019Y-103348013D01*
X96089964Y-103490583D01*
X96059859Y-103641934D01*
X78172179Y-103641934D01*
X77043959Y-102513715D01*
X77043959Y-99025842D01*
X79950259Y-99025842D01*
X79950259Y-101935542D01*
X79966822Y-102018810D01*
X79999312Y-102097247D01*
X80046480Y-102167839D01*
X80106513Y-102227872D01*
X80177104Y-102275039D01*
X80255541Y-102307529D01*
X80338809Y-102324092D01*
X83248509Y-102324092D01*
X83356259Y-102216342D01*
X83356259Y-98918092D01*
X83406259Y-98918092D01*
X83406259Y-102216342D01*
X83514009Y-102324092D01*
X86423709Y-102324092D01*
X86506977Y-102307529D01*
X86585414Y-102275039D01*
X86656005Y-102227872D01*
X86716038Y-102167839D01*
X86763206Y-102097247D01*
X86795696Y-102018810D01*
X86812259Y-101935542D01*
X86812259Y-100045456D01*
X91126059Y-100045456D01*
X91126059Y-100356728D01*
X91186785Y-100662019D01*
X91305904Y-100949597D01*
X91478837Y-101208411D01*
X91698940Y-101428514D01*
X91957754Y-101601447D01*
X92245332Y-101720566D01*
X92550623Y-101781292D01*
X92861895Y-101781292D01*
X93167186Y-101720566D01*
X93454764Y-101601447D01*
X93713578Y-101428514D01*
X93933681Y-101208411D01*
X94106614Y-100949597D01*
X94225733Y-100662019D01*
X94286459Y-100356728D01*
X94286459Y-100045456D01*
X94225733Y-99740165D01*
X94106614Y-99452587D01*
X93933681Y-99193773D01*
X93713578Y-98973670D01*
X93454764Y-98800737D01*
X93387828Y-98773011D01*
X107181059Y-98773011D01*
X107181059Y-99013173D01*
X107227912Y-99248719D01*
X107319818Y-99470600D01*
X107453245Y-99670287D01*
X107623064Y-99840106D01*
X107822751Y-99973533D01*
X108044632Y-100065439D01*
X108280178Y-100112292D01*
X108520340Y-100112292D01*
X108755886Y-100065439D01*
X108977767Y-99973533D01*
X109177454Y-99840106D01*
X109347273Y-99670287D01*
X109480700Y-99470600D01*
X109572606Y-99248719D01*
X109619459Y-99013173D01*
X109619459Y-98773011D01*
X109572606Y-98537465D01*
X109480700Y-98315584D01*
X109347273Y-98115897D01*
X109177454Y-97946078D01*
X108977767Y-97812651D01*
X108755886Y-97720745D01*
X108520340Y-97673892D01*
X108280178Y-97673892D01*
X108044632Y-97720745D01*
X107822751Y-97812651D01*
X107623064Y-97946078D01*
X107453245Y-98115897D01*
X107319818Y-98315584D01*
X107227912Y-98537465D01*
X107181059Y-98773011D01*
X93387828Y-98773011D01*
X93167186Y-98681618D01*
X92861895Y-98620892D01*
X92550623Y-98620892D01*
X92245332Y-98681618D01*
X91957754Y-98800737D01*
X91698940Y-98973670D01*
X91478837Y-99193773D01*
X91305904Y-99452587D01*
X91186785Y-99740165D01*
X91126059Y-100045456D01*
X86812259Y-100045456D01*
X86812259Y-99025842D01*
X86704509Y-98918092D01*
X83406259Y-98918092D01*
X83356259Y-98918092D01*
X80058009Y-98918092D01*
X79950259Y-99025842D01*
X77043959Y-99025842D01*
X77043959Y-95850642D01*
X79950259Y-95850642D01*
X79950259Y-98760342D01*
X80058009Y-98868092D01*
X83356259Y-98868092D01*
X83356259Y-95569842D01*
X83406259Y-95569842D01*
X83406259Y-98868092D01*
X86704509Y-98868092D01*
X86812259Y-98760342D01*
X86812259Y-96233011D01*
X107181059Y-96233011D01*
X107181059Y-96473173D01*
X107227912Y-96708719D01*
X107319818Y-96930600D01*
X107453245Y-97130287D01*
X107623064Y-97300106D01*
X107822751Y-97433533D01*
X108044632Y-97525439D01*
X108280178Y-97572292D01*
X108520340Y-97572292D01*
X108755886Y-97525439D01*
X108977767Y-97433533D01*
X109177454Y-97300106D01*
X109347273Y-97130287D01*
X109480700Y-96930600D01*
X109572606Y-96708719D01*
X109619459Y-96473173D01*
X109619459Y-96233011D01*
X109572606Y-95997465D01*
X109480700Y-95775584D01*
X109347273Y-95575897D01*
X109177454Y-95406078D01*
X108977767Y-95272651D01*
X108755886Y-95180745D01*
X108520340Y-95133892D01*
X108441317Y-95133892D01*
X108632407Y-95119004D01*
X108882717Y-95048622D01*
X109114487Y-94930758D01*
X109159526Y-94900665D01*
X109244107Y-94692295D01*
X108400259Y-93848447D01*
X107556411Y-94692295D01*
X107640992Y-94900665D01*
X107867757Y-95027893D01*
X108114985Y-95108437D01*
X108328619Y-95133892D01*
X108280178Y-95133892D01*
X108044632Y-95180745D01*
X107822751Y-95272651D01*
X107623064Y-95406078D01*
X107453245Y-95575897D01*
X107319818Y-95775584D01*
X107227912Y-95997465D01*
X107181059Y-96233011D01*
X86812259Y-96233011D01*
X86812259Y-95850642D01*
X86795696Y-95767374D01*
X86763206Y-95688937D01*
X86716038Y-95618345D01*
X86656005Y-95558312D01*
X86585414Y-95511145D01*
X86506977Y-95478655D01*
X86423709Y-95462092D01*
X83514009Y-95462092D01*
X83406259Y-95569842D01*
X83356259Y-95569842D01*
X83248509Y-95462092D01*
X80338809Y-95462092D01*
X80255541Y-95478655D01*
X80177104Y-95511145D01*
X80106513Y-95558312D01*
X80046480Y-95618345D01*
X79999312Y-95688937D01*
X79966822Y-95767374D01*
X79950259Y-95850642D01*
X77043959Y-95850642D01*
X77043959Y-95716969D01*
X79659994Y-93100934D01*
X93900859Y-93100934D01*
X93900859Y-93255250D01*
X93930964Y-93406601D01*
X93990019Y-93549171D01*
X94075752Y-93677481D01*
X94184870Y-93786599D01*
X94313180Y-93872332D01*
X94455750Y-93931387D01*
X94607101Y-93961492D01*
X94761417Y-93961492D01*
X94912768Y-93931387D01*
X95055338Y-93872332D01*
X95183648Y-93786599D01*
X95184239Y-93786008D01*
X107074150Y-93786008D01*
X107094347Y-94045240D01*
X107164729Y-94295550D01*
X107282593Y-94527320D01*
X107312686Y-94572359D01*
X107521056Y-94656940D01*
X108364904Y-93813092D01*
X108435614Y-93813092D01*
X109279462Y-94656940D01*
X109487832Y-94572359D01*
X109615060Y-94345594D01*
X109695604Y-94098366D01*
X109726368Y-93840176D01*
X109706171Y-93580944D01*
X109635789Y-93330634D01*
X109517925Y-93098864D01*
X109487832Y-93053825D01*
X109279462Y-92969244D01*
X108435614Y-93813092D01*
X108364904Y-93813092D01*
X107521056Y-92969244D01*
X107312686Y-93053825D01*
X107185458Y-93280590D01*
X107104914Y-93527818D01*
X107074150Y-93786008D01*
X95184239Y-93786008D01*
X95292766Y-93677481D01*
X95320955Y-93635292D01*
X103297809Y-93635292D01*
X103320259Y-93637503D01*
X103342709Y-93635292D01*
X103342719Y-93635292D01*
X103409886Y-93628677D01*
X103496068Y-93602533D01*
X103575495Y-93560079D01*
X103645112Y-93502945D01*
X103659433Y-93485495D01*
X105991917Y-91153011D01*
X107181059Y-91153011D01*
X107181059Y-91393173D01*
X107227912Y-91628719D01*
X107319818Y-91850600D01*
X107453245Y-92050287D01*
X107623064Y-92220106D01*
X107822751Y-92353533D01*
X108044632Y-92445439D01*
X108280178Y-92492292D01*
X108359201Y-92492292D01*
X108168111Y-92507180D01*
X107917801Y-92577562D01*
X107686031Y-92695426D01*
X107640992Y-92725519D01*
X107556411Y-92933889D01*
X108400259Y-93777737D01*
X109244107Y-92933889D01*
X109159526Y-92725519D01*
X108932761Y-92598291D01*
X108685533Y-92517747D01*
X108471899Y-92492292D01*
X108520340Y-92492292D01*
X108755886Y-92445439D01*
X108977767Y-92353533D01*
X109177454Y-92220106D01*
X109347273Y-92050287D01*
X109480700Y-91850600D01*
X109572606Y-91628719D01*
X109619459Y-91393173D01*
X109619459Y-91153011D01*
X109572606Y-90917465D01*
X109480700Y-90695584D01*
X109347273Y-90495897D01*
X109177454Y-90326078D01*
X108977767Y-90192651D01*
X108755886Y-90100745D01*
X108520340Y-90053892D01*
X108280178Y-90053892D01*
X108044632Y-90100745D01*
X107822751Y-90192651D01*
X107623064Y-90326078D01*
X107453245Y-90495897D01*
X107319818Y-90695584D01*
X107227912Y-90917465D01*
X107181059Y-91153011D01*
X105991917Y-91153011D01*
X107543943Y-89600985D01*
X107623064Y-89680106D01*
X107822751Y-89813533D01*
X108044632Y-89905439D01*
X108280178Y-89952292D01*
X108520340Y-89952292D01*
X108755886Y-89905439D01*
X108977767Y-89813533D01*
X109177454Y-89680106D01*
X109347273Y-89510287D01*
X109480700Y-89310600D01*
X109572606Y-89088719D01*
X109619459Y-88853173D01*
X109619459Y-88613011D01*
X109572606Y-88377465D01*
X109480700Y-88155584D01*
X109347273Y-87955897D01*
X109177454Y-87786078D01*
X108977767Y-87652651D01*
X108755886Y-87560745D01*
X108520340Y-87513892D01*
X108280178Y-87513892D01*
X108044632Y-87560745D01*
X107822751Y-87652651D01*
X107623064Y-87786078D01*
X107453245Y-87955897D01*
X107319818Y-88155584D01*
X107227912Y-88377465D01*
X107181059Y-88613011D01*
X107181059Y-88670714D01*
X105454560Y-90397213D01*
X105470554Y-90358601D01*
X105500659Y-90207250D01*
X105500659Y-90052934D01*
X105470554Y-89901583D01*
X105411499Y-89759013D01*
X105325766Y-89630703D01*
X105216648Y-89521585D01*
X105088338Y-89435852D01*
X104945768Y-89376797D01*
X104794417Y-89346692D01*
X104640101Y-89346692D01*
X104488750Y-89376797D01*
X104346180Y-89435852D01*
X104217870Y-89521585D01*
X104108752Y-89630703D01*
X104023019Y-89759013D01*
X103963964Y-89901583D01*
X103933859Y-90052934D01*
X103933859Y-90159150D01*
X102337318Y-91755692D01*
X96436064Y-91755692D01*
X96357694Y-91763411D01*
X96257148Y-91793911D01*
X96164484Y-91843441D01*
X96083264Y-91910097D01*
X96016608Y-91991317D01*
X95967078Y-92083981D01*
X95936578Y-92184527D01*
X95926279Y-92289092D01*
X95936578Y-92393657D01*
X95967078Y-92494203D01*
X96016608Y-92586867D01*
X96083264Y-92668087D01*
X96147607Y-92720892D01*
X95320955Y-92720892D01*
X95292766Y-92678703D01*
X95183648Y-92569585D01*
X95055338Y-92483852D01*
X94912768Y-92424797D01*
X94761417Y-92394692D01*
X94607101Y-92394692D01*
X94455750Y-92424797D01*
X94313180Y-92483852D01*
X94184870Y-92569585D01*
X94075752Y-92678703D01*
X93990019Y-92807013D01*
X93930964Y-92949583D01*
X93900859Y-93100934D01*
X79659994Y-93100934D01*
X81449462Y-91311467D01*
X81449462Y-92267692D01*
X81455837Y-92332422D01*
X81474719Y-92394665D01*
X81505380Y-92452029D01*
X81546643Y-92502308D01*
X81596922Y-92543571D01*
X81654286Y-92574232D01*
X81716529Y-92593114D01*
X81781259Y-92599489D01*
X84981259Y-92599489D01*
X85045989Y-92593114D01*
X85108232Y-92574232D01*
X85165596Y-92543571D01*
X85215875Y-92502308D01*
X85257138Y-92452029D01*
X85287799Y-92394665D01*
X85306681Y-92332422D01*
X85313056Y-92267692D01*
X85313056Y-91703934D01*
X89963859Y-91703934D01*
X89963859Y-91858250D01*
X89993964Y-92009601D01*
X90053019Y-92152171D01*
X90138752Y-92280481D01*
X90247870Y-92389599D01*
X90376180Y-92475332D01*
X90518750Y-92534387D01*
X90670101Y-92564492D01*
X90824417Y-92564492D01*
X90975768Y-92534387D01*
X91118338Y-92475332D01*
X91246648Y-92389599D01*
X91355766Y-92280481D01*
X91441499Y-92152171D01*
X91500554Y-92009601D01*
X91530659Y-91858250D01*
X91530659Y-91703934D01*
X91500554Y-91552583D01*
X91441499Y-91410013D01*
X91355766Y-91281703D01*
X91280659Y-91206596D01*
X91280659Y-91113033D01*
X92746200Y-89647492D01*
X96944860Y-89647492D01*
X96944859Y-90317596D01*
X96869752Y-90392703D01*
X96784019Y-90521013D01*
X96724964Y-90663583D01*
X96694859Y-90814934D01*
X96694859Y-90969250D01*
X96724964Y-91120601D01*
X96784019Y-91263171D01*
X96869752Y-91391481D01*
X96978870Y-91500599D01*
X97107180Y-91586332D01*
X97249750Y-91645387D01*
X97401101Y-91675492D01*
X97555417Y-91675492D01*
X97706768Y-91645387D01*
X97849338Y-91586332D01*
X97977648Y-91500599D01*
X98086766Y-91391481D01*
X98172499Y-91263171D01*
X98231554Y-91120601D01*
X98261659Y-90969250D01*
X98261659Y-90814934D01*
X98231554Y-90663583D01*
X98172499Y-90521013D01*
X98086766Y-90392703D01*
X98011659Y-90317596D01*
X98011659Y-89647492D01*
X101770072Y-89647492D01*
X101796259Y-89650071D01*
X101822446Y-89647492D01*
X101822454Y-89647492D01*
X101900824Y-89639773D01*
X102001370Y-89609273D01*
X102094034Y-89559743D01*
X102175254Y-89493087D01*
X102191954Y-89472738D01*
X103551910Y-88112783D01*
X103572254Y-88096087D01*
X103638910Y-88014867D01*
X103688440Y-87922203D01*
X103718940Y-87821657D01*
X103722256Y-87787991D01*
X103801766Y-87708481D01*
X103887499Y-87580171D01*
X103946554Y-87437601D01*
X103976659Y-87286250D01*
X103976659Y-87131934D01*
X103946554Y-86980583D01*
X103887499Y-86838013D01*
X103801766Y-86709703D01*
X103692648Y-86600585D01*
X103564338Y-86514852D01*
X103421768Y-86455797D01*
X103270417Y-86425692D01*
X103116101Y-86425692D01*
X102964750Y-86455797D01*
X102822180Y-86514852D01*
X102693870Y-86600585D01*
X102584752Y-86709703D01*
X102499019Y-86838013D01*
X102439964Y-86980583D01*
X102409859Y-87131934D01*
X102409859Y-87286250D01*
X102439964Y-87437601D01*
X102499019Y-87580171D01*
X102529788Y-87626221D01*
X101575318Y-88580692D01*
X97504454Y-88580692D01*
X97478259Y-88578112D01*
X97452065Y-88580692D01*
X92551453Y-88580692D01*
X92525259Y-88578112D01*
X92499065Y-88580692D01*
X92499064Y-88580692D01*
X92420694Y-88588411D01*
X92320148Y-88618911D01*
X92227484Y-88668441D01*
X92146264Y-88735097D01*
X92129566Y-88755444D01*
X90388614Y-90496396D01*
X90368264Y-90513097D01*
X90301608Y-90594317D01*
X90252078Y-90686982D01*
X90221578Y-90787528D01*
X90213859Y-90865898D01*
X90213859Y-90865905D01*
X90211280Y-90892092D01*
X90213859Y-90918279D01*
X90213859Y-91206596D01*
X90138752Y-91281703D01*
X90053019Y-91410013D01*
X89993964Y-91552583D01*
X89963859Y-91703934D01*
X85313056Y-91703934D01*
X85313056Y-89067692D01*
X85306681Y-89002962D01*
X85287799Y-88940719D01*
X85257138Y-88883355D01*
X85215875Y-88833076D01*
X85165596Y-88791813D01*
X85108232Y-88761152D01*
X85045989Y-88742270D01*
X84981259Y-88735895D01*
X81781259Y-88735895D01*
X81716529Y-88742270D01*
X81654286Y-88761152D01*
X81596922Y-88791813D01*
X81546643Y-88833076D01*
X81505380Y-88883355D01*
X81474719Y-88940719D01*
X81455837Y-89002962D01*
X81449462Y-89067692D01*
X81449462Y-90208557D01*
X81446658Y-90208281D01*
X81424208Y-90210492D01*
X81424199Y-90210492D01*
X81357032Y-90217107D01*
X81270850Y-90243251D01*
X81233876Y-90263014D01*
X81191422Y-90285705D01*
X81142229Y-90326078D01*
X81121806Y-90342839D01*
X81107489Y-90360284D01*
X76634259Y-94833515D01*
X76634259Y-88542984D01*
X76752059Y-88542984D01*
X76752059Y-88923200D01*
X76826236Y-89296110D01*
X76971738Y-89647384D01*
X77182975Y-89963523D01*
X77451828Y-90232376D01*
X77767967Y-90443613D01*
X78119241Y-90589115D01*
X78492151Y-90663292D01*
X78872367Y-90663292D01*
X79245277Y-90589115D01*
X79596551Y-90443613D01*
X79912690Y-90232376D01*
X80181543Y-89963523D01*
X80392780Y-89647384D01*
X80538282Y-89296110D01*
X80612459Y-88923200D01*
X80612459Y-88542984D01*
X80538282Y-88170074D01*
X80392780Y-87818800D01*
X80181543Y-87502661D01*
X79912690Y-87233808D01*
X79596551Y-87022571D01*
X79245277Y-86877069D01*
X78872367Y-86802892D01*
X78492151Y-86802892D01*
X78119241Y-86877069D01*
X77767967Y-87022571D01*
X77451828Y-87233808D01*
X77182975Y-87502661D01*
X76971738Y-87818800D01*
X76826236Y-88170074D01*
X76752059Y-88542984D01*
X76634259Y-88542984D01*
X76634259Y-86320092D01*
X110305259Y-86320092D01*
X110305259Y-111466092D01*
G04 #@! TO.N,Net-(C16-Pad2)*
G36*
X205813810Y-78585217D02*
X205842781Y-109265301D01*
X191700531Y-109330174D01*
X191752472Y-90399761D01*
X192323740Y-90971030D01*
X192375903Y-91049097D01*
X192685181Y-91255750D01*
X192957914Y-91310000D01*
X192957918Y-91310000D01*
X193049999Y-91328316D01*
X193142080Y-91310000D01*
X199178033Y-91310000D01*
X199418681Y-91550648D01*
X199268249Y-91701080D01*
X199161065Y-91959845D01*
X194746222Y-96374689D01*
X194504800Y-96474689D01*
X194213649Y-96765840D01*
X194056080Y-97146246D01*
X194056080Y-97557994D01*
X194213649Y-97938400D01*
X194504800Y-98229551D01*
X194885206Y-98387120D01*
X195296954Y-98387120D01*
X195677360Y-98229551D01*
X195968511Y-97938400D01*
X196068511Y-97696978D01*
X200110682Y-93654808D01*
X200110681Y-96378321D01*
X199945480Y-96446749D01*
X199654329Y-96737900D01*
X199554329Y-96979321D01*
X199067052Y-97466599D01*
X198988983Y-97518763D01*
X198856567Y-97716938D01*
X198782330Y-97828042D01*
X198709763Y-98192860D01*
X198728080Y-98284946D01*
X198728081Y-101736447D01*
X198565315Y-101768823D01*
X198355271Y-101909171D01*
X198214923Y-102119215D01*
X198165640Y-102366980D01*
X198165640Y-104066980D01*
X198214923Y-104314745D01*
X198355271Y-104524789D01*
X198565315Y-104665137D01*
X198813080Y-104714420D01*
X200513080Y-104714420D01*
X200760845Y-104665137D01*
X200970889Y-104524789D01*
X201111237Y-104314745D01*
X201160520Y-104066980D01*
X201160520Y-102366980D01*
X201111237Y-102119215D01*
X200970889Y-101909171D01*
X200760845Y-101768823D01*
X200598080Y-101736447D01*
X200598080Y-98580149D01*
X200876619Y-98301611D01*
X201118040Y-98201611D01*
X201409191Y-97910460D01*
X201509191Y-97669038D01*
X201641709Y-97536520D01*
X201719778Y-97484356D01*
X201926431Y-97175078D01*
X201980681Y-96902345D01*
X201980681Y-96902344D01*
X201998998Y-96810260D01*
X201980681Y-96718174D01*
X201980681Y-91947445D01*
X201998998Y-91855359D01*
X201926431Y-91490540D01*
X201771940Y-91259328D01*
X201719778Y-91181262D01*
X201641712Y-91129100D01*
X200291583Y-89778972D01*
X200239419Y-89700903D01*
X199930141Y-89494250D01*
X199657408Y-89440000D01*
X199565322Y-89421683D01*
X199473236Y-89440000D01*
X193437290Y-89440000D01*
X192185000Y-88187711D01*
X192185000Y-84862940D01*
X192207928Y-84862940D01*
X192323181Y-85442358D01*
X192651395Y-85933565D01*
X193142602Y-86261779D01*
X193575764Y-86347940D01*
X193868276Y-86347940D01*
X194301438Y-86261779D01*
X194792645Y-85933565D01*
X195120859Y-85442358D01*
X195236112Y-84862940D01*
X195120859Y-84283522D01*
X194792645Y-83792315D01*
X194301438Y-83464101D01*
X193868276Y-83377940D01*
X193575764Y-83377940D01*
X193142602Y-83464101D01*
X192651395Y-83792315D01*
X192323181Y-84283522D01*
X192207928Y-84862940D01*
X192185000Y-84862940D01*
X192185000Y-81951085D01*
X192241491Y-82035629D01*
X192451535Y-82175977D01*
X192699300Y-82225260D01*
X194399300Y-82225260D01*
X194647065Y-82175977D01*
X194857109Y-82035629D01*
X194997457Y-81825585D01*
X195006484Y-81780201D01*
X195018675Y-81798445D01*
X195509882Y-82126659D01*
X195943044Y-82212820D01*
X196235556Y-82212820D01*
X196668718Y-82126659D01*
X197159925Y-81798445D01*
X197359300Y-81500059D01*
X197558675Y-81798445D01*
X198049882Y-82126659D01*
X198483044Y-82212820D01*
X198775556Y-82212820D01*
X199208718Y-82126659D01*
X199699925Y-81798445D01*
X199899300Y-81500059D01*
X200098675Y-81798445D01*
X200589882Y-82126659D01*
X201023044Y-82212820D01*
X201315556Y-82212820D01*
X201748718Y-82126659D01*
X202239925Y-81798445D01*
X202439300Y-81500059D01*
X202638675Y-81798445D01*
X202774301Y-81889067D01*
X202774300Y-102267214D01*
X202755983Y-102359300D01*
X202774300Y-102451385D01*
X202828550Y-102724118D01*
X203035203Y-103033397D01*
X203113273Y-103085562D01*
X203297569Y-103269857D01*
X203397569Y-103511280D01*
X203688720Y-103802431D01*
X204069126Y-103960000D01*
X204480874Y-103960000D01*
X204861280Y-103802431D01*
X205152431Y-103511280D01*
X205310000Y-103130874D01*
X205310000Y-102719126D01*
X205152431Y-102338720D01*
X204861280Y-102047569D01*
X204644300Y-101957693D01*
X204644300Y-81889067D01*
X204779925Y-81798445D01*
X205108139Y-81307238D01*
X205223392Y-80727820D01*
X205108139Y-80148402D01*
X204779925Y-79657195D01*
X204288718Y-79328981D01*
X203855556Y-79242820D01*
X203563044Y-79242820D01*
X203129882Y-79328981D01*
X202638675Y-79657195D01*
X202439300Y-79955581D01*
X202239925Y-79657195D01*
X201748718Y-79328981D01*
X201315556Y-79242820D01*
X201023044Y-79242820D01*
X200589882Y-79328981D01*
X200098675Y-79657195D01*
X199899300Y-79955581D01*
X199699925Y-79657195D01*
X199208718Y-79328981D01*
X198775556Y-79242820D01*
X198483044Y-79242820D01*
X198049882Y-79328981D01*
X197558675Y-79657195D01*
X197359300Y-79955581D01*
X197159925Y-79657195D01*
X196668718Y-79328981D01*
X196235556Y-79242820D01*
X195943044Y-79242820D01*
X195509882Y-79328981D01*
X195018675Y-79657195D01*
X195006484Y-79675439D01*
X194997457Y-79630055D01*
X194857109Y-79420011D01*
X194647065Y-79279663D01*
X194399300Y-79230380D01*
X192699300Y-79230380D01*
X192451535Y-79279663D01*
X192241491Y-79420011D01*
X192185000Y-79504555D01*
X192185000Y-78573099D01*
X205813810Y-78585217D01*
X205813810Y-78585217D01*
G37*
X205813810Y-78585217D02*
X205842781Y-109265301D01*
X191700531Y-109330174D01*
X191752472Y-90399761D01*
X192323740Y-90971030D01*
X192375903Y-91049097D01*
X192685181Y-91255750D01*
X192957914Y-91310000D01*
X192957918Y-91310000D01*
X193049999Y-91328316D01*
X193142080Y-91310000D01*
X199178033Y-91310000D01*
X199418681Y-91550648D01*
X199268249Y-91701080D01*
X199161065Y-91959845D01*
X194746222Y-96374689D01*
X194504800Y-96474689D01*
X194213649Y-96765840D01*
X194056080Y-97146246D01*
X194056080Y-97557994D01*
X194213649Y-97938400D01*
X194504800Y-98229551D01*
X194885206Y-98387120D01*
X195296954Y-98387120D01*
X195677360Y-98229551D01*
X195968511Y-97938400D01*
X196068511Y-97696978D01*
X200110682Y-93654808D01*
X200110681Y-96378321D01*
X199945480Y-96446749D01*
X199654329Y-96737900D01*
X199554329Y-96979321D01*
X199067052Y-97466599D01*
X198988983Y-97518763D01*
X198856567Y-97716938D01*
X198782330Y-97828042D01*
X198709763Y-98192860D01*
X198728080Y-98284946D01*
X198728081Y-101736447D01*
X198565315Y-101768823D01*
X198355271Y-101909171D01*
X198214923Y-102119215D01*
X198165640Y-102366980D01*
X198165640Y-104066980D01*
X198214923Y-104314745D01*
X198355271Y-104524789D01*
X198565315Y-104665137D01*
X198813080Y-104714420D01*
X200513080Y-104714420D01*
X200760845Y-104665137D01*
X200970889Y-104524789D01*
X201111237Y-104314745D01*
X201160520Y-104066980D01*
X201160520Y-102366980D01*
X201111237Y-102119215D01*
X200970889Y-101909171D01*
X200760845Y-101768823D01*
X200598080Y-101736447D01*
X200598080Y-98580149D01*
X200876619Y-98301611D01*
X201118040Y-98201611D01*
X201409191Y-97910460D01*
X201509191Y-97669038D01*
X201641709Y-97536520D01*
X201719778Y-97484356D01*
X201926431Y-97175078D01*
X201980681Y-96902345D01*
X201980681Y-96902344D01*
X201998998Y-96810260D01*
X201980681Y-96718174D01*
X201980681Y-91947445D01*
X201998998Y-91855359D01*
X201926431Y-91490540D01*
X201771940Y-91259328D01*
X201719778Y-91181262D01*
X201641712Y-91129100D01*
X200291583Y-89778972D01*
X200239419Y-89700903D01*
X199930141Y-89494250D01*
X199657408Y-89440000D01*
X199565322Y-89421683D01*
X199473236Y-89440000D01*
X193437290Y-89440000D01*
X192185000Y-88187711D01*
X192185000Y-84862940D01*
X192207928Y-84862940D01*
X192323181Y-85442358D01*
X192651395Y-85933565D01*
X193142602Y-86261779D01*
X193575764Y-86347940D01*
X193868276Y-86347940D01*
X194301438Y-86261779D01*
X194792645Y-85933565D01*
X195120859Y-85442358D01*
X195236112Y-84862940D01*
X195120859Y-84283522D01*
X194792645Y-83792315D01*
X194301438Y-83464101D01*
X193868276Y-83377940D01*
X193575764Y-83377940D01*
X193142602Y-83464101D01*
X192651395Y-83792315D01*
X192323181Y-84283522D01*
X192207928Y-84862940D01*
X192185000Y-84862940D01*
X192185000Y-81951085D01*
X192241491Y-82035629D01*
X192451535Y-82175977D01*
X192699300Y-82225260D01*
X194399300Y-82225260D01*
X194647065Y-82175977D01*
X194857109Y-82035629D01*
X194997457Y-81825585D01*
X195006484Y-81780201D01*
X195018675Y-81798445D01*
X195509882Y-82126659D01*
X195943044Y-82212820D01*
X196235556Y-82212820D01*
X196668718Y-82126659D01*
X197159925Y-81798445D01*
X197359300Y-81500059D01*
X197558675Y-81798445D01*
X198049882Y-82126659D01*
X198483044Y-82212820D01*
X198775556Y-82212820D01*
X199208718Y-82126659D01*
X199699925Y-81798445D01*
X199899300Y-81500059D01*
X200098675Y-81798445D01*
X200589882Y-82126659D01*
X201023044Y-82212820D01*
X201315556Y-82212820D01*
X201748718Y-82126659D01*
X202239925Y-81798445D01*
X202439300Y-81500059D01*
X202638675Y-81798445D01*
X202774301Y-81889067D01*
X202774300Y-102267214D01*
X202755983Y-102359300D01*
X202774300Y-102451385D01*
X202828550Y-102724118D01*
X203035203Y-103033397D01*
X203113273Y-103085562D01*
X203297569Y-103269857D01*
X203397569Y-103511280D01*
X203688720Y-103802431D01*
X204069126Y-103960000D01*
X204480874Y-103960000D01*
X204861280Y-103802431D01*
X205152431Y-103511280D01*
X205310000Y-103130874D01*
X205310000Y-102719126D01*
X205152431Y-102338720D01*
X204861280Y-102047569D01*
X204644300Y-101957693D01*
X204644300Y-81889067D01*
X204779925Y-81798445D01*
X205108139Y-81307238D01*
X205223392Y-80727820D01*
X205108139Y-80148402D01*
X204779925Y-79657195D01*
X204288718Y-79328981D01*
X203855556Y-79242820D01*
X203563044Y-79242820D01*
X203129882Y-79328981D01*
X202638675Y-79657195D01*
X202439300Y-79955581D01*
X202239925Y-79657195D01*
X201748718Y-79328981D01*
X201315556Y-79242820D01*
X201023044Y-79242820D01*
X200589882Y-79328981D01*
X200098675Y-79657195D01*
X199899300Y-79955581D01*
X199699925Y-79657195D01*
X199208718Y-79328981D01*
X198775556Y-79242820D01*
X198483044Y-79242820D01*
X198049882Y-79328981D01*
X197558675Y-79657195D01*
X197359300Y-79955581D01*
X197159925Y-79657195D01*
X196668718Y-79328981D01*
X196235556Y-79242820D01*
X195943044Y-79242820D01*
X195509882Y-79328981D01*
X195018675Y-79657195D01*
X195006484Y-79675439D01*
X194997457Y-79630055D01*
X194857109Y-79420011D01*
X194647065Y-79279663D01*
X194399300Y-79230380D01*
X192699300Y-79230380D01*
X192451535Y-79279663D01*
X192241491Y-79420011D01*
X192185000Y-79504555D01*
X192185000Y-78573099D01*
X205813810Y-78585217D01*
G36*
X205921369Y-40145780D02*
X205946258Y-71065561D01*
X203613649Y-71076261D01*
X203610000Y-71057914D01*
X203610000Y-56322296D01*
X203710000Y-56080874D01*
X203710000Y-55669126D01*
X203552431Y-55288720D01*
X203261280Y-54997569D01*
X202880874Y-54840000D01*
X202469126Y-54840000D01*
X202088720Y-54997569D01*
X201797569Y-55288720D01*
X201697569Y-55530142D01*
X200037711Y-57190000D01*
X198922296Y-57190000D01*
X198680874Y-57090000D01*
X198269126Y-57090000D01*
X197888720Y-57247569D01*
X197597569Y-57538720D01*
X197440000Y-57919126D01*
X197440000Y-58330874D01*
X197597569Y-58711280D01*
X197888720Y-59002431D01*
X198269126Y-59160000D01*
X198680874Y-59160000D01*
X198922296Y-59060000D01*
X200332914Y-59060000D01*
X200425000Y-59078317D01*
X200517086Y-59060000D01*
X200789819Y-59005750D01*
X201099097Y-58799097D01*
X201151261Y-58721028D01*
X201740001Y-58132288D01*
X201740000Y-70762711D01*
X201416371Y-71086340D01*
X191804004Y-71130434D01*
X191826612Y-63210000D01*
X192085908Y-63210000D01*
X192201161Y-63789418D01*
X192529375Y-64280625D01*
X193020582Y-64608839D01*
X193453744Y-64695000D01*
X193746256Y-64695000D01*
X194179418Y-64608839D01*
X194670625Y-64280625D01*
X194998839Y-63789418D01*
X195114092Y-63210000D01*
X194998839Y-62630582D01*
X194670625Y-62139375D01*
X194179418Y-61811161D01*
X193746256Y-61725000D01*
X193453744Y-61725000D01*
X193020582Y-61811161D01*
X192529375Y-62139375D01*
X192201161Y-62630582D01*
X192085908Y-63210000D01*
X191826612Y-63210000D01*
X191880361Y-44380000D01*
X192085908Y-44380000D01*
X192201161Y-44959418D01*
X192529375Y-45450625D01*
X192827761Y-45650000D01*
X192529375Y-45849375D01*
X192201161Y-46340582D01*
X192085908Y-46920000D01*
X192201161Y-47499418D01*
X192529375Y-47990625D01*
X192827761Y-48190000D01*
X192529375Y-48389375D01*
X192201161Y-48880582D01*
X192085908Y-49460000D01*
X192201161Y-50039418D01*
X192529375Y-50530625D01*
X192827761Y-50730000D01*
X192529375Y-50929375D01*
X192201161Y-51420582D01*
X192085908Y-52000000D01*
X192201161Y-52579418D01*
X192529375Y-53070625D01*
X192827761Y-53270000D01*
X192529375Y-53469375D01*
X192201161Y-53960582D01*
X192085908Y-54540000D01*
X192201161Y-55119418D01*
X192529375Y-55610625D01*
X192827761Y-55810000D01*
X192529375Y-56009375D01*
X192201161Y-56500582D01*
X192085908Y-57080000D01*
X192201161Y-57659418D01*
X192529375Y-58150625D01*
X192827761Y-58350000D01*
X192529375Y-58549375D01*
X192201161Y-59040582D01*
X192085908Y-59620000D01*
X192201161Y-60199418D01*
X192529375Y-60690625D01*
X193020582Y-61018839D01*
X193453744Y-61105000D01*
X193746256Y-61105000D01*
X194179418Y-61018839D01*
X194670625Y-60690625D01*
X194998839Y-60199418D01*
X195114092Y-59620000D01*
X194998839Y-59040582D01*
X194670625Y-58549375D01*
X194372239Y-58350000D01*
X194670625Y-58150625D01*
X194998839Y-57659418D01*
X195114092Y-57080000D01*
X194998839Y-56500582D01*
X194670625Y-56009375D01*
X194372239Y-55810000D01*
X194583071Y-55669126D01*
X196265000Y-55669126D01*
X196265000Y-56080874D01*
X196422569Y-56461280D01*
X196713720Y-56752431D01*
X197094126Y-56910000D01*
X197505874Y-56910000D01*
X197886280Y-56752431D01*
X198177431Y-56461280D01*
X198277431Y-56219858D01*
X198296027Y-56201262D01*
X198374096Y-56149098D01*
X198580749Y-55839820D01*
X198605152Y-55717137D01*
X201680213Y-52642076D01*
X201836280Y-52577431D01*
X202127431Y-52286280D01*
X202285000Y-51905874D01*
X202285000Y-51494126D01*
X202127431Y-51113720D01*
X201836280Y-50822569D01*
X201455874Y-50665000D01*
X201044126Y-50665000D01*
X200663720Y-50822569D01*
X200372569Y-51113720D01*
X200237214Y-51440497D01*
X197103971Y-54573740D01*
X197025902Y-54625904D01*
X196819249Y-54935182D01*
X196815201Y-54955534D01*
X196713720Y-54997569D01*
X196422569Y-55288720D01*
X196265000Y-55669126D01*
X194583071Y-55669126D01*
X194670625Y-55610625D01*
X194998839Y-55119418D01*
X195114092Y-54540000D01*
X194998839Y-53960582D01*
X194670625Y-53469375D01*
X194372239Y-53270000D01*
X194670625Y-53070625D01*
X194998839Y-52579418D01*
X195114092Y-52000000D01*
X194998839Y-51420582D01*
X194670625Y-50929375D01*
X194372239Y-50730000D01*
X194670625Y-50530625D01*
X194998839Y-50039418D01*
X195114092Y-49460000D01*
X194998839Y-48880582D01*
X194670625Y-48389375D01*
X194372239Y-48190000D01*
X194670625Y-47990625D01*
X194998839Y-47499418D01*
X195114092Y-46920000D01*
X194998839Y-46340582D01*
X194670625Y-45849375D01*
X194372239Y-45650000D01*
X194670625Y-45450625D01*
X194998839Y-44959418D01*
X195114092Y-44380000D01*
X194998839Y-43800582D01*
X194670625Y-43309375D01*
X194652381Y-43297184D01*
X194697765Y-43288157D01*
X194907809Y-43147809D01*
X195048157Y-42937765D01*
X195097440Y-42690000D01*
X195097440Y-40990000D01*
X195048157Y-40742235D01*
X194907809Y-40532191D01*
X194697765Y-40391843D01*
X194450000Y-40342560D01*
X192750000Y-40342560D01*
X192502235Y-40391843D01*
X192292191Y-40532191D01*
X192151843Y-40742235D01*
X192102560Y-40990000D01*
X192102560Y-42690000D01*
X192151843Y-42937765D01*
X192292191Y-43147809D01*
X192502235Y-43288157D01*
X192547619Y-43297184D01*
X192529375Y-43309375D01*
X192201161Y-43800582D01*
X192085908Y-44380000D01*
X191880361Y-44380000D01*
X191892484Y-40133306D01*
X205921369Y-40145780D01*
X205921369Y-40145780D01*
G37*
X205921369Y-40145780D02*
X205946258Y-71065561D01*
X203613649Y-71076261D01*
X203610000Y-71057914D01*
X203610000Y-56322296D01*
X203710000Y-56080874D01*
X203710000Y-55669126D01*
X203552431Y-55288720D01*
X203261280Y-54997569D01*
X202880874Y-54840000D01*
X202469126Y-54840000D01*
X202088720Y-54997569D01*
X201797569Y-55288720D01*
X201697569Y-55530142D01*
X200037711Y-57190000D01*
X198922296Y-57190000D01*
X198680874Y-57090000D01*
X198269126Y-57090000D01*
X197888720Y-57247569D01*
X197597569Y-57538720D01*
X197440000Y-57919126D01*
X197440000Y-58330874D01*
X197597569Y-58711280D01*
X197888720Y-59002431D01*
X198269126Y-59160000D01*
X198680874Y-59160000D01*
X198922296Y-59060000D01*
X200332914Y-59060000D01*
X200425000Y-59078317D01*
X200517086Y-59060000D01*
X200789819Y-59005750D01*
X201099097Y-58799097D01*
X201151261Y-58721028D01*
X201740001Y-58132288D01*
X201740000Y-70762711D01*
X201416371Y-71086340D01*
X191804004Y-71130434D01*
X191826612Y-63210000D01*
X192085908Y-63210000D01*
X192201161Y-63789418D01*
X192529375Y-64280625D01*
X193020582Y-64608839D01*
X193453744Y-64695000D01*
X193746256Y-64695000D01*
X194179418Y-64608839D01*
X194670625Y-64280625D01*
X194998839Y-63789418D01*
X195114092Y-63210000D01*
X194998839Y-62630582D01*
X194670625Y-62139375D01*
X194179418Y-61811161D01*
X193746256Y-61725000D01*
X193453744Y-61725000D01*
X193020582Y-61811161D01*
X192529375Y-62139375D01*
X192201161Y-62630582D01*
X192085908Y-63210000D01*
X191826612Y-63210000D01*
X191880361Y-44380000D01*
X192085908Y-44380000D01*
X192201161Y-44959418D01*
X192529375Y-45450625D01*
X192827761Y-45650000D01*
X192529375Y-45849375D01*
X192201161Y-46340582D01*
X192085908Y-46920000D01*
X192201161Y-47499418D01*
X192529375Y-47990625D01*
X192827761Y-48190000D01*
X192529375Y-48389375D01*
X192201161Y-48880582D01*
X192085908Y-49460000D01*
X192201161Y-50039418D01*
X192529375Y-50530625D01*
X192827761Y-50730000D01*
X192529375Y-50929375D01*
X192201161Y-51420582D01*
X192085908Y-52000000D01*
X192201161Y-52579418D01*
X192529375Y-53070625D01*
X192827761Y-53270000D01*
X192529375Y-53469375D01*
X192201161Y-53960582D01*
X192085908Y-54540000D01*
X192201161Y-55119418D01*
X192529375Y-55610625D01*
X192827761Y-55810000D01*
X192529375Y-56009375D01*
X192201161Y-56500582D01*
X192085908Y-57080000D01*
X192201161Y-57659418D01*
X192529375Y-58150625D01*
X192827761Y-58350000D01*
X192529375Y-58549375D01*
X192201161Y-59040582D01*
X192085908Y-59620000D01*
X192201161Y-60199418D01*
X192529375Y-60690625D01*
X193020582Y-61018839D01*
X193453744Y-61105000D01*
X193746256Y-61105000D01*
X194179418Y-61018839D01*
X194670625Y-60690625D01*
X194998839Y-60199418D01*
X195114092Y-59620000D01*
X194998839Y-59040582D01*
X194670625Y-58549375D01*
X194372239Y-58350000D01*
X194670625Y-58150625D01*
X194998839Y-57659418D01*
X195114092Y-57080000D01*
X194998839Y-56500582D01*
X194670625Y-56009375D01*
X194372239Y-55810000D01*
X194583071Y-55669126D01*
X196265000Y-55669126D01*
X196265000Y-56080874D01*
X196422569Y-56461280D01*
X196713720Y-56752431D01*
X197094126Y-56910000D01*
X197505874Y-56910000D01*
X197886280Y-56752431D01*
X198177431Y-56461280D01*
X198277431Y-56219858D01*
X198296027Y-56201262D01*
X198374096Y-56149098D01*
X198580749Y-55839820D01*
X198605152Y-55717137D01*
X201680213Y-52642076D01*
X201836280Y-52577431D01*
X202127431Y-52286280D01*
X202285000Y-51905874D01*
X202285000Y-51494126D01*
X202127431Y-51113720D01*
X201836280Y-50822569D01*
X201455874Y-50665000D01*
X201044126Y-50665000D01*
X200663720Y-50822569D01*
X200372569Y-51113720D01*
X200237214Y-51440497D01*
X197103971Y-54573740D01*
X197025902Y-54625904D01*
X196819249Y-54935182D01*
X196815201Y-54955534D01*
X196713720Y-54997569D01*
X196422569Y-55288720D01*
X196265000Y-55669126D01*
X194583071Y-55669126D01*
X194670625Y-55610625D01*
X194998839Y-55119418D01*
X195114092Y-54540000D01*
X194998839Y-53960582D01*
X194670625Y-53469375D01*
X194372239Y-53270000D01*
X194670625Y-53070625D01*
X194998839Y-52579418D01*
X195114092Y-52000000D01*
X194998839Y-51420582D01*
X194670625Y-50929375D01*
X194372239Y-50730000D01*
X194670625Y-50530625D01*
X194998839Y-50039418D01*
X195114092Y-49460000D01*
X194998839Y-48880582D01*
X194670625Y-48389375D01*
X194372239Y-48190000D01*
X194670625Y-47990625D01*
X194998839Y-47499418D01*
X195114092Y-46920000D01*
X194998839Y-46340582D01*
X194670625Y-45849375D01*
X194372239Y-45650000D01*
X194670625Y-45450625D01*
X194998839Y-44959418D01*
X195114092Y-44380000D01*
X194998839Y-43800582D01*
X194670625Y-43309375D01*
X194652381Y-43297184D01*
X194697765Y-43288157D01*
X194907809Y-43147809D01*
X195048157Y-42937765D01*
X195097440Y-42690000D01*
X195097440Y-40990000D01*
X195048157Y-40742235D01*
X194907809Y-40532191D01*
X194697765Y-40391843D01*
X194450000Y-40342560D01*
X192750000Y-40342560D01*
X192502235Y-40391843D01*
X192292191Y-40532191D01*
X192151843Y-40742235D01*
X192102560Y-40990000D01*
X192102560Y-42690000D01*
X192151843Y-42937765D01*
X192292191Y-43147809D01*
X192502235Y-43288157D01*
X192547619Y-43297184D01*
X192529375Y-43309375D01*
X192201161Y-43800582D01*
X192085908Y-44380000D01*
X191880361Y-44380000D01*
X191892484Y-40133306D01*
X205921369Y-40145780D01*
G04 #@! TD*
M02*
