G04 #@! TF.GenerationSoftware,KiCad,Pcbnew,5.0.1-33cea8e~68~ubuntu16.04.1*
G04 #@! TF.CreationDate,2018-10-22T20:59:01-07:00*
G04 #@! TF.ProjectId,integrated-board,696E74656772617465642D626F617264,rev?*
G04 #@! TF.SameCoordinates,Original*
G04 #@! TF.FileFunction,Copper,L2,Inr,Plane*
G04 #@! TF.FilePolarity,Positive*
%FSLAX46Y46*%
G04 Gerber Fmt 4.6, Leading zero omitted, Abs format (unit mm)*
G04 Created by KiCad (PCBNEW 5.0.1-33cea8e~68~ubuntu16.04.1) date Mon 22 Oct 2018 08:59:01 PM PDT*
%MOMM*%
%LPD*%
G01*
G04 APERTURE LIST*
G04 #@! TA.AperFunction,ViaPad*
%ADD10C,3.200000*%
G04 #@! TD*
G04 #@! TA.AperFunction,ViaPad*
%ADD11R,1.700000X1.700000*%
G04 #@! TD*
G04 #@! TA.AperFunction,ViaPad*
%ADD12O,1.700000X1.700000*%
G04 #@! TD*
G04 #@! TA.AperFunction,ViaPad*
%ADD13R,2.030000X1.730000*%
G04 #@! TD*
G04 #@! TA.AperFunction,ViaPad*
%ADD14O,2.030000X1.730000*%
G04 #@! TD*
G04 #@! TA.AperFunction,WasherPad*
%ADD15C,1.350000*%
G04 #@! TD*
G04 #@! TA.AperFunction,WasherPad*
%ADD16C,1.600000*%
G04 #@! TD*
G04 #@! TA.AperFunction,ViaPad*
%ADD17C,1.778000*%
G04 #@! TD*
G04 #@! TA.AperFunction,ViaPad*
%ADD18C,0.600000*%
G04 #@! TD*
G04 #@! TA.AperFunction,ViaPad*
%ADD19C,0.906400*%
G04 #@! TD*
G04 #@! TA.AperFunction,ViaPad*
%ADD20C,0.800000*%
G04 #@! TD*
G04 #@! TA.AperFunction,Conductor*
%ADD21C,0.250000*%
G04 #@! TD*
G04 #@! TA.AperFunction,Conductor*
%ADD22C,0.254000*%
G04 #@! TD*
G04 APERTURE END LIST*
D10*
G04 #@! TO.N,N/C*
G04 #@! TO.C,U$8*
X75300000Y-129875000D03*
G04 #@! TD*
G04 #@! TO.N,N/C*
G04 #@! TO.C,U$8*
X75075000Y-80525000D03*
G04 #@! TD*
G04 #@! TO.N,N/C*
G04 #@! TO.C,U$8*
X178050000Y-36600000D03*
G04 #@! TD*
G04 #@! TO.N,N/C*
G04 #@! TO.C,U$8*
X113750000Y-36600000D03*
G04 #@! TD*
G04 #@! TO.N,N/C*
G04 #@! TO.C,U$8*
X113775000Y-129725000D03*
G04 #@! TD*
G04 #@! TO.N,N/C*
G04 #@! TO.C,U$8*
X203775000Y-74675000D03*
G04 #@! TD*
G04 #@! TO.N,N/C*
G04 #@! TO.C,U$9*
X177675000Y-102125000D03*
G04 #@! TD*
G04 #@! TO.N,N/C*
G04 #@! TO.C,U$9*
X75200000Y-36600000D03*
G04 #@! TD*
G04 #@! TO.N,N/C*
G04 #@! TO.C,U$9*
X203675000Y-36975000D03*
G04 #@! TD*
G04 #@! TO.N,N/C*
G04 #@! TO.C,U$8*
X204100000Y-130075000D03*
G04 #@! TD*
D11*
G04 #@! TO.N,+3V3*
G04 #@! TO.C,J1*
X120904000Y-83362800D03*
D12*
X118364000Y-83362800D03*
G04 #@! TO.N,PB4*
X120904000Y-80822800D03*
G04 #@! TO.N,GND*
X118364000Y-80822800D03*
G04 #@! TO.N,PA15*
X120904000Y-78282800D03*
G04 #@! TO.N,GND*
X118364000Y-78282800D03*
G04 #@! TO.N,PA13*
X120904000Y-75742800D03*
G04 #@! TO.N,GND*
X118364000Y-75742800D03*
G04 #@! TO.N,PA14*
X120904000Y-73202800D03*
G04 #@! TO.N,GND*
X118364000Y-73202800D03*
G04 #@! TO.N,Net-(10k1-Pad2)*
X120904000Y-70662800D03*
G04 #@! TO.N,GND*
X118364000Y-70662800D03*
G04 #@! TO.N,PB3*
X120904000Y-68122800D03*
G04 #@! TO.N,GND*
X118364000Y-68122800D03*
G04 #@! TO.N,RST*
X120904000Y-65582800D03*
G04 #@! TO.N,GND*
X118364000Y-65582800D03*
G04 #@! TO.N,Net-(10k3-Pad2)*
X120904000Y-63042800D03*
G04 #@! TO.N,GND*
X118364000Y-63042800D03*
G04 #@! TO.N,Net-(10k2-Pad2)*
X120904000Y-60502800D03*
G04 #@! TO.N,GND*
X118364000Y-60502800D03*
G04 #@! TD*
D11*
G04 #@! TO.N,PA0*
G04 #@! TO.C,J3*
X173730920Y-89951560D03*
D12*
G04 #@! TO.N,PA1*
X173730920Y-87411560D03*
G04 #@! TO.N,PA2*
X173730920Y-84871560D03*
G04 #@! TO.N,PA3*
X173730920Y-82331560D03*
G04 #@! TO.N,PA4*
X173730920Y-79791560D03*
G04 #@! TO.N,PA5*
X173730920Y-77251560D03*
G04 #@! TO.N,PA6*
X173730920Y-74711560D03*
G04 #@! TO.N,PA7*
X173730920Y-72171560D03*
G04 #@! TO.N,PA8*
X173730920Y-69631560D03*
G04 #@! TO.N,PA9*
X173730920Y-67091560D03*
G04 #@! TO.N,PA10*
X173730920Y-64551560D03*
G04 #@! TO.N,PA11*
X173730920Y-62011560D03*
G04 #@! TO.N,PA12*
X173730920Y-59471560D03*
G04 #@! TO.N,PA13*
X173730920Y-56931560D03*
G04 #@! TO.N,PA14*
X173730920Y-54391560D03*
G04 #@! TO.N,PA15*
X173730920Y-51851560D03*
G04 #@! TD*
D11*
G04 #@! TO.N,PB0*
G04 #@! TO.C,J4*
X167746680Y-48280320D03*
D12*
G04 #@! TO.N,PB1*
X165206680Y-48280320D03*
G04 #@! TO.N,PB2*
X162666680Y-48280320D03*
G04 #@! TO.N,PB3*
X160126680Y-48280320D03*
G04 #@! TO.N,PB4*
X157586680Y-48280320D03*
G04 #@! TO.N,PB5*
X155046680Y-48280320D03*
G04 #@! TO.N,PB6*
X152506680Y-48280320D03*
G04 #@! TO.N,PB7*
X149966680Y-48280320D03*
G04 #@! TO.N,PB8*
X147426680Y-48280320D03*
G04 #@! TO.N,PB9*
X144886680Y-48280320D03*
G04 #@! TO.N,PB10*
X142346680Y-48280320D03*
G04 #@! TO.N,PB11*
X139806680Y-48280320D03*
G04 #@! TO.N,PB12*
X137266680Y-48280320D03*
G04 #@! TO.N,PB13*
X134726680Y-48280320D03*
G04 #@! TO.N,PB14*
X132186680Y-48280320D03*
G04 #@! TO.N,PB15*
X129646680Y-48280320D03*
G04 #@! TD*
D11*
G04 #@! TO.N,PC0*
G04 #@! TO.C,J5*
X129453640Y-93502480D03*
D12*
G04 #@! TO.N,PC1*
X131993640Y-93502480D03*
G04 #@! TO.N,PC2*
X134533640Y-93502480D03*
G04 #@! TO.N,PC3*
X137073640Y-93502480D03*
G04 #@! TO.N,PC4*
X139613640Y-93502480D03*
G04 #@! TO.N,PC5*
X142153640Y-93502480D03*
G04 #@! TO.N,PC6*
X144693640Y-93502480D03*
G04 #@! TO.N,PC7*
X147233640Y-93502480D03*
G04 #@! TO.N,PC8*
X149773640Y-93502480D03*
G04 #@! TO.N,PC9*
X152313640Y-93502480D03*
G04 #@! TO.N,PC10*
X154853640Y-93502480D03*
G04 #@! TO.N,PC11*
X157393640Y-93502480D03*
G04 #@! TO.N,PC12*
X159933640Y-93502480D03*
G04 #@! TO.N,PC13*
X162473640Y-93502480D03*
G04 #@! TO.N,Net-(J5-Pad15)*
X165013640Y-93502480D03*
G04 #@! TO.N,PD2*
X167553640Y-93502480D03*
G04 #@! TD*
D11*
G04 #@! TO.N,GND*
G04 #@! TO.C,J6*
X118465600Y-93487240D03*
D12*
G04 #@! TO.N,+3V3*
X121005600Y-93487240D03*
G04 #@! TD*
D11*
G04 #@! TO.N,Net-(J2-Pad1)*
G04 #@! TO.C,J9*
X107071480Y-57969400D03*
D12*
G04 #@! TO.N,Net-(J2-Pad2)*
X107071480Y-60509400D03*
G04 #@! TO.N,Net-(J2-Pad3)*
X107071480Y-63049400D03*
G04 #@! TO.N,Net-(J2-Pad4)*
X107071480Y-65589400D03*
G04 #@! TO.N,Net-(J2-Pad5)*
X107071480Y-68129400D03*
G04 #@! TO.N,Net-(J2-Pad6)*
X107071480Y-70669400D03*
G04 #@! TO.N,Net-(J2-Pad7)*
X107071480Y-73209400D03*
G04 #@! TO.N,Net-(J2-Pad8)*
X107071480Y-75749400D03*
G04 #@! TO.N,Net-(J2-Pad10)*
X107071480Y-78289400D03*
G04 #@! TO.N,Net-(J2-Pad9)*
X107071480Y-80829400D03*
G04 #@! TO.N,Net-(J2-Pad11)*
X107071480Y-83369400D03*
G04 #@! TD*
D11*
G04 #@! TO.N,Net-(C16-Pad2)*
G04 #@! TO.C,J10*
X193722020Y-87402940D03*
D12*
G04 #@! TO.N,Net-(C21-Pad1)*
X193722020Y-84862940D03*
G04 #@! TD*
D11*
G04 #@! TO.N,Net-(C16-Pad1)*
G04 #@! TO.C,J7*
X199663080Y-103216980D03*
D12*
G04 #@! TO.N,Net-(C16-Pad2)*
X197123080Y-103216980D03*
G04 #@! TD*
D11*
G04 #@! TO.N,Net-(C16-Pad2)*
G04 #@! TO.C,J8*
X193600000Y-65750000D03*
D12*
G04 #@! TO.N,Net-(C18-Pad1)*
X193600000Y-63210000D03*
G04 #@! TD*
D11*
G04 #@! TO.N,Net-(C16-Pad2)*
G04 #@! TO.C,J13*
X193600000Y-69400000D03*
D12*
X196140000Y-69400000D03*
X198680000Y-69400000D03*
X201220000Y-69400000D03*
G04 #@! TD*
D11*
G04 #@! TO.N,Net-(C21-Pad1)*
G04 #@! TO.C,J14*
X193549300Y-80727820D03*
D12*
X196089300Y-80727820D03*
X198629300Y-80727820D03*
X201169300Y-80727820D03*
X203709300Y-80727820D03*
G04 #@! TD*
D11*
G04 #@! TO.N,Net-(C16-Pad2)*
G04 #@! TO.C,J12*
X193475640Y-101207840D03*
D12*
X193475640Y-103747840D03*
X193475640Y-106287840D03*
G04 #@! TD*
D11*
G04 #@! TO.N,Net-(C18-Pad1)*
G04 #@! TO.C,J15*
X193600000Y-41840000D03*
D12*
X193600000Y-44380000D03*
X193600000Y-46920000D03*
X193600000Y-49460000D03*
X193600000Y-52000000D03*
X193600000Y-54540000D03*
X193600000Y-57080000D03*
X193600000Y-59620000D03*
G04 #@! TD*
D13*
G04 #@! TO.N,/CSB*
G04 #@! TO.C,*
X106614900Y-51274240D03*
D14*
G04 #@! TO.N,/SDO*
X106614900Y-48734240D03*
G04 #@! TO.N,/SDI*
X106614900Y-46194240D03*
G04 #@! TO.N,/SCLK*
X106614900Y-43654240D03*
G04 #@! TD*
D11*
G04 #@! TO.N,+3V3*
G04 #@! TO.C,*
X91214900Y-45314240D03*
D12*
G04 #@! TO.N,GND*
X91214900Y-47854240D03*
G04 #@! TD*
G04 #@! TO.N,GND*
G04 #@! TO.C,JP2*
X130725080Y-128054560D03*
G04 #@! TO.N,VCC*
X130725080Y-125514560D03*
G04 #@! TO.N,/SDA*
X130725080Y-122974560D03*
G04 #@! TO.N,/SCL*
X130725080Y-120434560D03*
D11*
G04 #@! TO.N,/SQW*
X130725080Y-117894560D03*
G04 #@! TD*
D15*
G04 #@! TO.N,*
G04 #@! TO.C,B1*
X127875080Y-110274560D03*
D16*
X120425080Y-110274560D03*
G04 #@! TD*
D11*
G04 #@! TO.N,Net-(C1-Pad2)*
G04 #@! TO.C,J2*
X170408300Y-109474160D03*
D12*
G04 #@! TO.N,Net-(C1-Pad1)*
X170408300Y-112014160D03*
G04 #@! TD*
D11*
G04 #@! TO.N,Net-(J1-Pad1)*
G04 #@! TO.C,J1*
X149073301Y-107439161D03*
D12*
G04 #@! TO.N,Net-(J1-Pad2)*
X149073301Y-109979161D03*
G04 #@! TO.N,Net-(D2-Pad1)*
X149073301Y-112519161D03*
G04 #@! TO.N,Net-(D1-Pad1)*
X149073301Y-115059161D03*
G04 #@! TO.N,Net-(J1-Pad5)*
X149073301Y-117599161D03*
G04 #@! TO.N,Net-(J1-Pad6)*
X149073301Y-120139161D03*
G04 #@! TO.N,Net-(J1-Pad7)*
X149073301Y-122679161D03*
G04 #@! TO.N,Net-(J1-Pad8)*
X149073301Y-125219161D03*
G04 #@! TO.N,Net-(J1-Pad9)*
X149073301Y-127759161D03*
G04 #@! TD*
D11*
G04 #@! TO.N,Net-(J1-Pad1)*
G04 #@! TO.C,J1*
X78182480Y-121554880D03*
D12*
G04 #@! TO.N,Net-(J1-Pad2)*
X78182480Y-124094880D03*
G04 #@! TD*
D11*
G04 #@! TO.N,+5V*
G04 #@! TO.C,J2*
X108662480Y-113934880D03*
D12*
G04 #@! TO.N,Net-(C2-Pad2)*
X108662480Y-116474880D03*
G04 #@! TO.N,GND*
X108662480Y-119014880D03*
G04 #@! TO.N,Net-(J2-Pad4)*
X108662480Y-121554880D03*
G04 #@! TO.N,Net-(D2-Pad1)*
X108662480Y-124094880D03*
G04 #@! TO.N,Net-(D1-Pad1)*
X108662480Y-126634880D03*
G04 #@! TD*
D10*
G04 #@! TO.N,N/C*
G04 #@! TO.C,U$8*
X78682259Y-109053092D03*
G04 #@! TD*
G04 #@! TO.N,N/C*
G04 #@! TO.C,U$9*
X78682259Y-88733092D03*
G04 #@! TD*
D17*
G04 #@! TO.N,3.3V*
G04 #@! TO.C,JP1*
X108400259Y-109053092D03*
G04 #@! TO.N,/ENABLE*
X108400259Y-106513092D03*
G04 #@! TO.N,/VBACKUP*
X108400259Y-103973092D03*
G04 #@! TO.N,/FIX*
X108400259Y-101433092D03*
G04 #@! TO.N,/TX*
X108400259Y-98893092D03*
G04 #@! TO.N,/RX*
X108400259Y-96353092D03*
G04 #@! TO.N,GND*
X108400259Y-93813092D03*
G04 #@! TO.N,VIN*
X108400259Y-91273092D03*
G04 #@! TO.N,/1PPS*
X108400259Y-88733092D03*
G04 #@! TD*
D18*
G04 #@! TO.N,GND*
X134457440Y-63230760D03*
X164669720Y-67336912D03*
X148941193Y-78240184D03*
X154914355Y-71441309D03*
X147264130Y-85840471D03*
X146712132Y-73971051D03*
X134818120Y-66207800D03*
X132313680Y-76393040D03*
X147838160Y-69545200D03*
X144896840Y-61549280D03*
X154365960Y-78186280D03*
D19*
X97605259Y-87209092D03*
X99129259Y-95972092D03*
X103193259Y-106005092D03*
X86810259Y-104735092D03*
X94811259Y-109434092D03*
X87572259Y-106640092D03*
X89715259Y-105354092D03*
X90366259Y-101560092D03*
X93414259Y-102576092D03*
X92668259Y-95575092D03*
X91017259Y-97861092D03*
X93795259Y-97623092D03*
X86937259Y-101322092D03*
X87191259Y-96861092D03*
X88715259Y-94575092D03*
X88350259Y-99528092D03*
X88715259Y-103322092D03*
X91509259Y-103989092D03*
X95954259Y-106894092D03*
X94208259Y-105116092D03*
X95319259Y-103465092D03*
X99002259Y-98004092D03*
X99129259Y-94194092D03*
X86746759Y-93622592D03*
X81984259Y-95210092D03*
X83254259Y-94130592D03*
X79444259Y-94067092D03*
X83000259Y-104735092D03*
X80587259Y-102322092D03*
X81222259Y-104608092D03*
X79317259Y-97115092D03*
X78428259Y-99972592D03*
X80460259Y-95210092D03*
X81095259Y-89876092D03*
X85794259Y-91146092D03*
X96208259Y-94956092D03*
X96462259Y-100417092D03*
X96335259Y-97877092D03*
X91382259Y-107148092D03*
X97732259Y-108037092D03*
D18*
G04 #@! TO.N,+3V3*
X144768359Y-64009184D03*
X156632457Y-79510470D03*
X142031720Y-85054440D03*
X162366960Y-67437000D03*
X138518720Y-80159680D03*
G04 #@! TO.N,RST*
X143332200Y-72247760D03*
G04 #@! TO.N,PB4*
X128057393Y-63995278D03*
X156403040Y-58130440D03*
G04 #@! TO.N,PB3*
X123380639Y-64620279D03*
X158170880Y-59009280D03*
G04 #@! TO.N,PA1*
X146905102Y-84183096D03*
G04 #@! TO.N,PA2*
X146900627Y-83212052D03*
G04 #@! TO.N,PA3*
X146888567Y-82347800D03*
G04 #@! TO.N,PA4*
X148316097Y-82563835D03*
G04 #@! TO.N,PA5*
X149280703Y-82542713D03*
G04 #@! TO.N,PA6*
X150160819Y-82415700D03*
G04 #@! TO.N,PA7*
X150177756Y-81596630D03*
G04 #@! TO.N,PB0*
X149737538Y-88150551D03*
G04 #@! TO.N,PB1*
X150341005Y-88675761D03*
G04 #@! TO.N,PB2*
X151088255Y-88961481D03*
G04 #@! TO.N,PB8*
X147447000Y-52297873D03*
X148457920Y-64957960D03*
G04 #@! TO.N,PB9*
X144912080Y-52297873D03*
X148010880Y-65953640D03*
G04 #@! TO.N,PB10*
X152044257Y-89281037D03*
G04 #@! TO.N,PB12*
X167112686Y-62640997D03*
X163835828Y-59409063D03*
X159053755Y-78167393D03*
G04 #@! TO.N,PB13*
X163310830Y-60012702D03*
X166494303Y-63148562D03*
X159599016Y-77581992D03*
G04 #@! TO.N,PB14*
X162768269Y-60600605D03*
X165919454Y-63704950D03*
X160102792Y-76960532D03*
G04 #@! TO.N,PB15*
X162233326Y-61195448D03*
X165354598Y-64271479D03*
X160604200Y-76337160D03*
G04 #@! TO.N,PC0*
X133344920Y-76433680D03*
X142351760Y-72227440D03*
G04 #@! TO.N,PC1*
X134315200Y-76469240D03*
X142211397Y-73015032D03*
G04 #@! TO.N,PC2*
X135314158Y-76476122D03*
X142084668Y-73804932D03*
G04 #@! TO.N,PC3*
X136568061Y-76812589D03*
X141859000Y-74665840D03*
G04 #@! TO.N,PC10*
X154362890Y-65981027D03*
G04 #@! TO.N,PC11*
X153711822Y-65516130D03*
G04 #@! TO.N,PC12*
X152996515Y-65157863D03*
G04 #@! TO.N,PC13*
X143609529Y-69843378D03*
G04 #@! TO.N,PD2*
X152965372Y-64358457D03*
G04 #@! TO.N,PB11*
X164180520Y-58663840D03*
X167715794Y-62115389D03*
X154340560Y-82077560D03*
D20*
G04 #@! TO.N,Net-(C16-Pad1)*
X200531760Y-97324180D03*
X202675000Y-55875000D03*
X198475000Y-58125000D03*
G04 #@! TO.N,Net-(C16-Pad2)*
X204674500Y-96460580D03*
X204771020Y-106597720D03*
X193036220Y-94614000D03*
X199007760Y-83610720D03*
X199925000Y-42700000D03*
X197400000Y-53775000D03*
X205200000Y-68125000D03*
X205175000Y-55525000D03*
G04 #@! TO.N,Net-(C17-Pad1)*
X197300000Y-55875000D03*
X201250000Y-51700000D03*
G04 #@! TO.N,Net-(C20-Pad1)*
X195091080Y-97352120D03*
X200145680Y-92287360D03*
G04 #@! TO.N,Net-(C21-Pad1)*
X204275000Y-102925000D03*
G04 #@! TO.N,Net-(C1-Pad1)*
X128505080Y-117944560D03*
X128505080Y-124294560D03*
D18*
X173964300Y-126238160D03*
X173202300Y-125476160D03*
X172440300Y-123698160D03*
X172440300Y-122682160D03*
X172440300Y-121666160D03*
X170408300Y-127000160D03*
D20*
G04 #@! TO.N,VCC*
X124205080Y-125109570D03*
X126955080Y-126544560D03*
D18*
G04 #@! TO.N,Net-(D1-Pad2)*
X166852300Y-106680160D03*
X181584300Y-122682160D03*
G04 #@! TO.N,Net-(D2-Pad2)*
X161010300Y-110744160D03*
X166852300Y-117094160D03*
X178028300Y-119126160D03*
X178028300Y-117094160D03*
G04 #@! TO.N,Net-(J1-Pad1)*
X165328300Y-116078160D03*
X174472300Y-120650160D03*
X171424300Y-116078160D03*
G04 #@! TO.N,Net-(J1-Pad2)*
X172948300Y-118110160D03*
X177012300Y-119126160D03*
X168630300Y-118110160D03*
G04 #@! TO.N,Net-(J1-Pad5)*
X179298300Y-129794160D03*
X165836300Y-121666160D03*
G04 #@! TO.N,Net-(J1-Pad6)*
X179044300Y-128524160D03*
X168122300Y-123444160D03*
G04 #@! TO.N,Net-(J1-Pad7)*
X153136300Y-122936160D03*
X153136300Y-130302160D03*
G04 #@! TO.N,Net-(J1-Pad8)*
X157200300Y-125222160D03*
X157200300Y-128524160D03*
G04 #@! TO.N,Net-(R2-Pad2)*
X183339300Y-127739160D03*
X175488300Y-119380160D03*
G04 #@! TO.N,Net-(R3-Pad2)*
X174472300Y-119634160D03*
X172186300Y-119634160D03*
G04 #@! TO.N,Net-(C1-Pad2)*
X183339300Y-109497160D03*
D20*
G04 #@! TO.N,Net-(C2-Pad2)*
X99772480Y-121554880D03*
D19*
G04 #@! TO.N,3.3V*
X103193259Y-87209092D03*
X90747259Y-91781092D03*
X97478259Y-90892092D03*
G04 #@! TO.N,VIN*
X104717259Y-90130092D03*
G04 #@! TO.N,/1PPS*
X94684259Y-93178092D03*
G04 #@! TO.N,/FIX*
X99002259Y-99655092D03*
X96843259Y-103719092D03*
G04 #@! TO.N,/VBACKUP*
X98811759Y-110386592D03*
G04 #@! TO.N,Net-(B1-Pad+$1)*
X96017759Y-110386592D03*
G04 #@! TD*
D21*
G04 #@! TO.N,PC12*
X152696516Y-65457862D02*
X152996515Y-65157863D01*
X152388554Y-65765824D02*
X152696516Y-65457862D01*
X152388554Y-67989434D02*
X152388554Y-65765824D01*
G04 #@! TD*
D22*
G04 #@! TO.N,GND*
G36*
X176362360Y-45287956D02*
X176362360Y-97327635D01*
X115758404Y-97287165D01*
X115770675Y-93772990D01*
X116980600Y-93772990D01*
X116980600Y-94463549D01*
X117077273Y-94696938D01*
X117255901Y-94875567D01*
X117489290Y-94972240D01*
X118179850Y-94972240D01*
X118338600Y-94813490D01*
X118338600Y-93614240D01*
X117139350Y-93614240D01*
X116980600Y-93772990D01*
X115770675Y-93772990D01*
X115775082Y-92510931D01*
X116980600Y-92510931D01*
X116980600Y-93201490D01*
X117139350Y-93360240D01*
X118338600Y-93360240D01*
X118338600Y-92160990D01*
X118592600Y-92160990D01*
X118592600Y-93360240D01*
X118612600Y-93360240D01*
X118612600Y-93614240D01*
X118592600Y-93614240D01*
X118592600Y-94813490D01*
X118751350Y-94972240D01*
X119441910Y-94972240D01*
X119675299Y-94875567D01*
X119853927Y-94696938D01*
X119920504Y-94536207D01*
X119934975Y-94557865D01*
X120426182Y-94886079D01*
X120859344Y-94972240D01*
X121151856Y-94972240D01*
X121585018Y-94886079D01*
X122076225Y-94557865D01*
X122404439Y-94066658D01*
X122519692Y-93487240D01*
X122404439Y-92907822D01*
X122233825Y-92652480D01*
X127956200Y-92652480D01*
X127956200Y-94352480D01*
X128005483Y-94600245D01*
X128145831Y-94810289D01*
X128355875Y-94950637D01*
X128603640Y-94999920D01*
X130303640Y-94999920D01*
X130551405Y-94950637D01*
X130761449Y-94810289D01*
X130901797Y-94600245D01*
X130910824Y-94554861D01*
X130923015Y-94573105D01*
X131414222Y-94901319D01*
X131847384Y-94987480D01*
X132139896Y-94987480D01*
X132573058Y-94901319D01*
X133064265Y-94573105D01*
X133263640Y-94274719D01*
X133463015Y-94573105D01*
X133954222Y-94901319D01*
X134387384Y-94987480D01*
X134679896Y-94987480D01*
X135113058Y-94901319D01*
X135604265Y-94573105D01*
X135803640Y-94274719D01*
X136003015Y-94573105D01*
X136494222Y-94901319D01*
X136927384Y-94987480D01*
X137219896Y-94987480D01*
X137653058Y-94901319D01*
X138144265Y-94573105D01*
X138343640Y-94274719D01*
X138543015Y-94573105D01*
X139034222Y-94901319D01*
X139467384Y-94987480D01*
X139759896Y-94987480D01*
X140193058Y-94901319D01*
X140684265Y-94573105D01*
X140883640Y-94274719D01*
X141083015Y-94573105D01*
X141574222Y-94901319D01*
X142007384Y-94987480D01*
X142299896Y-94987480D01*
X142733058Y-94901319D01*
X143224265Y-94573105D01*
X143423640Y-94274719D01*
X143623015Y-94573105D01*
X144114222Y-94901319D01*
X144547384Y-94987480D01*
X144839896Y-94987480D01*
X145273058Y-94901319D01*
X145764265Y-94573105D01*
X145963640Y-94274719D01*
X146163015Y-94573105D01*
X146654222Y-94901319D01*
X147087384Y-94987480D01*
X147379896Y-94987480D01*
X147813058Y-94901319D01*
X148304265Y-94573105D01*
X148503640Y-94274719D01*
X148703015Y-94573105D01*
X149194222Y-94901319D01*
X149627384Y-94987480D01*
X149919896Y-94987480D01*
X150353058Y-94901319D01*
X150844265Y-94573105D01*
X151043640Y-94274719D01*
X151243015Y-94573105D01*
X151734222Y-94901319D01*
X152167384Y-94987480D01*
X152459896Y-94987480D01*
X152893058Y-94901319D01*
X153384265Y-94573105D01*
X153583640Y-94274719D01*
X153783015Y-94573105D01*
X154274222Y-94901319D01*
X154707384Y-94987480D01*
X154999896Y-94987480D01*
X155433058Y-94901319D01*
X155924265Y-94573105D01*
X156123640Y-94274719D01*
X156323015Y-94573105D01*
X156814222Y-94901319D01*
X157247384Y-94987480D01*
X157539896Y-94987480D01*
X157973058Y-94901319D01*
X158464265Y-94573105D01*
X158663640Y-94274719D01*
X158863015Y-94573105D01*
X159354222Y-94901319D01*
X159787384Y-94987480D01*
X160079896Y-94987480D01*
X160513058Y-94901319D01*
X161004265Y-94573105D01*
X161203640Y-94274719D01*
X161403015Y-94573105D01*
X161894222Y-94901319D01*
X162327384Y-94987480D01*
X162619896Y-94987480D01*
X163053058Y-94901319D01*
X163544265Y-94573105D01*
X163743640Y-94274719D01*
X163943015Y-94573105D01*
X164434222Y-94901319D01*
X164867384Y-94987480D01*
X165159896Y-94987480D01*
X165593058Y-94901319D01*
X166084265Y-94573105D01*
X166283640Y-94274719D01*
X166483015Y-94573105D01*
X166974222Y-94901319D01*
X167407384Y-94987480D01*
X167699896Y-94987480D01*
X168133058Y-94901319D01*
X168624265Y-94573105D01*
X168952479Y-94081898D01*
X169067732Y-93502480D01*
X168952479Y-92923062D01*
X168624265Y-92431855D01*
X168133058Y-92103641D01*
X167699896Y-92017480D01*
X167407384Y-92017480D01*
X166974222Y-92103641D01*
X166483015Y-92431855D01*
X166283640Y-92730241D01*
X166084265Y-92431855D01*
X165593058Y-92103641D01*
X165159896Y-92017480D01*
X164867384Y-92017480D01*
X164434222Y-92103641D01*
X163943015Y-92431855D01*
X163743640Y-92730241D01*
X163544265Y-92431855D01*
X163053058Y-92103641D01*
X162619896Y-92017480D01*
X162327384Y-92017480D01*
X161894222Y-92103641D01*
X161403015Y-92431855D01*
X161203640Y-92730241D01*
X161004265Y-92431855D01*
X160513058Y-92103641D01*
X160079896Y-92017480D01*
X159787384Y-92017480D01*
X159354222Y-92103641D01*
X158863015Y-92431855D01*
X158663640Y-92730241D01*
X158464265Y-92431855D01*
X157973058Y-92103641D01*
X157539896Y-92017480D01*
X157247384Y-92017480D01*
X156814222Y-92103641D01*
X156323015Y-92431855D01*
X156123640Y-92730241D01*
X155924265Y-92431855D01*
X155433058Y-92103641D01*
X154999896Y-92017480D01*
X154707384Y-92017480D01*
X154274222Y-92103641D01*
X153783015Y-92431855D01*
X153583640Y-92730241D01*
X153384265Y-92431855D01*
X152893058Y-92103641D01*
X152459896Y-92017480D01*
X152167384Y-92017480D01*
X151734222Y-92103641D01*
X151243015Y-92431855D01*
X151043640Y-92730241D01*
X150844265Y-92431855D01*
X150353058Y-92103641D01*
X149919896Y-92017480D01*
X149627384Y-92017480D01*
X149194222Y-92103641D01*
X148703015Y-92431855D01*
X148503640Y-92730241D01*
X148304265Y-92431855D01*
X147813058Y-92103641D01*
X147379896Y-92017480D01*
X147087384Y-92017480D01*
X146654222Y-92103641D01*
X146163015Y-92431855D01*
X145963640Y-92730241D01*
X145764265Y-92431855D01*
X145273058Y-92103641D01*
X144839896Y-92017480D01*
X144547384Y-92017480D01*
X144114222Y-92103641D01*
X143623015Y-92431855D01*
X143423640Y-92730241D01*
X143224265Y-92431855D01*
X142733058Y-92103641D01*
X142299896Y-92017480D01*
X142007384Y-92017480D01*
X141574222Y-92103641D01*
X141083015Y-92431855D01*
X140883640Y-92730241D01*
X140684265Y-92431855D01*
X140193058Y-92103641D01*
X139759896Y-92017480D01*
X139467384Y-92017480D01*
X139034222Y-92103641D01*
X138543015Y-92431855D01*
X138343640Y-92730241D01*
X138144265Y-92431855D01*
X137653058Y-92103641D01*
X137219896Y-92017480D01*
X136927384Y-92017480D01*
X136494222Y-92103641D01*
X136003015Y-92431855D01*
X135803640Y-92730241D01*
X135604265Y-92431855D01*
X135113058Y-92103641D01*
X134679896Y-92017480D01*
X134387384Y-92017480D01*
X133954222Y-92103641D01*
X133463015Y-92431855D01*
X133263640Y-92730241D01*
X133064265Y-92431855D01*
X132573058Y-92103641D01*
X132139896Y-92017480D01*
X131847384Y-92017480D01*
X131414222Y-92103641D01*
X130923015Y-92431855D01*
X130910824Y-92450099D01*
X130901797Y-92404715D01*
X130761449Y-92194671D01*
X130551405Y-92054323D01*
X130303640Y-92005040D01*
X128603640Y-92005040D01*
X128355875Y-92054323D01*
X128145831Y-92194671D01*
X128005483Y-92404715D01*
X127956200Y-92652480D01*
X122233825Y-92652480D01*
X122076225Y-92416615D01*
X121585018Y-92088401D01*
X121151856Y-92002240D01*
X120859344Y-92002240D01*
X120426182Y-92088401D01*
X119934975Y-92416615D01*
X119920504Y-92438273D01*
X119853927Y-92277542D01*
X119675299Y-92098913D01*
X119441910Y-92002240D01*
X118751350Y-92002240D01*
X118592600Y-92160990D01*
X118338600Y-92160990D01*
X118179850Y-92002240D01*
X117489290Y-92002240D01*
X117255901Y-92098913D01*
X117077273Y-92277542D01*
X116980600Y-92510931D01*
X115775082Y-92510931D01*
X115790958Y-87964568D01*
X148802538Y-87964568D01*
X148802538Y-88336534D01*
X148944883Y-88680186D01*
X149207903Y-88943206D01*
X149487764Y-89059128D01*
X149548350Y-89205396D01*
X149811370Y-89468416D01*
X150155022Y-89610761D01*
X150415245Y-89610761D01*
X150558620Y-89754136D01*
X150902272Y-89896481D01*
X151274238Y-89896481D01*
X151318908Y-89877978D01*
X151514622Y-90073692D01*
X151858274Y-90216037D01*
X152230240Y-90216037D01*
X152573892Y-90073692D01*
X152836912Y-89810672D01*
X152979257Y-89467020D01*
X152979257Y-89095054D01*
X152836912Y-88751402D01*
X152573892Y-88488382D01*
X152230240Y-88346037D01*
X151858274Y-88346037D01*
X151813604Y-88364540D01*
X151617890Y-88168826D01*
X151274238Y-88026481D01*
X151014015Y-88026481D01*
X150870640Y-87883106D01*
X150590779Y-87767184D01*
X150530193Y-87620916D01*
X150267173Y-87357896D01*
X149923521Y-87215551D01*
X149551555Y-87215551D01*
X149207903Y-87357896D01*
X148944883Y-87620916D01*
X148802538Y-87964568D01*
X115790958Y-87964568D01*
X115801770Y-84868457D01*
X141096720Y-84868457D01*
X141096720Y-85240423D01*
X141239065Y-85584075D01*
X141502085Y-85847095D01*
X141845737Y-85989440D01*
X142217703Y-85989440D01*
X142561355Y-85847095D01*
X142824375Y-85584075D01*
X142966720Y-85240423D01*
X142966720Y-84868457D01*
X142824375Y-84524805D01*
X142561355Y-84261785D01*
X142217703Y-84119440D01*
X141845737Y-84119440D01*
X141502085Y-84261785D01*
X141239065Y-84524805D01*
X141096720Y-84868457D01*
X115801770Y-84868457D01*
X115807029Y-83362800D01*
X116849908Y-83362800D01*
X116965161Y-83942218D01*
X117293375Y-84433425D01*
X117784582Y-84761639D01*
X118217744Y-84847800D01*
X118510256Y-84847800D01*
X118943418Y-84761639D01*
X119434625Y-84433425D01*
X119446816Y-84415181D01*
X119455843Y-84460565D01*
X119596191Y-84670609D01*
X119806235Y-84810957D01*
X120054000Y-84860240D01*
X121754000Y-84860240D01*
X122001765Y-84810957D01*
X122211809Y-84670609D01*
X122352157Y-84460565D01*
X122401440Y-84212800D01*
X122401440Y-82512800D01*
X122352157Y-82265035D01*
X122283189Y-82161817D01*
X145953567Y-82161817D01*
X145953567Y-82533783D01*
X146061553Y-82794484D01*
X145965627Y-83026069D01*
X145965627Y-83398035D01*
X146091937Y-83702976D01*
X145970102Y-83997113D01*
X145970102Y-84369079D01*
X146112447Y-84712731D01*
X146375467Y-84975751D01*
X146719119Y-85118096D01*
X147091085Y-85118096D01*
X147434737Y-84975751D01*
X147697757Y-84712731D01*
X147840102Y-84369079D01*
X147840102Y-83997113D01*
X147713792Y-83692172D01*
X147835627Y-83398035D01*
X147835627Y-83376855D01*
X148130114Y-83498835D01*
X148502080Y-83498835D01*
X148823897Y-83365535D01*
X149094720Y-83477713D01*
X149466686Y-83477713D01*
X149810338Y-83335368D01*
X149847677Y-83298029D01*
X149974836Y-83350700D01*
X150346802Y-83350700D01*
X150690454Y-83208355D01*
X150953474Y-82945335D01*
X151095819Y-82601683D01*
X151095819Y-82229717D01*
X151011689Y-82026610D01*
X151067621Y-81891577D01*
X153405560Y-81891577D01*
X153405560Y-82263543D01*
X153547905Y-82607195D01*
X153810925Y-82870215D01*
X154154577Y-83012560D01*
X154526543Y-83012560D01*
X154870195Y-82870215D01*
X155133215Y-82607195D01*
X155275560Y-82263543D01*
X155275560Y-81891577D01*
X155133215Y-81547925D01*
X154870195Y-81284905D01*
X154526543Y-81142560D01*
X154154577Y-81142560D01*
X153810925Y-81284905D01*
X153547905Y-81547925D01*
X153405560Y-81891577D01*
X151067621Y-81891577D01*
X151112756Y-81782613D01*
X151112756Y-81410647D01*
X150970411Y-81066995D01*
X150707391Y-80803975D01*
X150363739Y-80661630D01*
X149991773Y-80661630D01*
X149648121Y-80803975D01*
X149385101Y-81066995D01*
X149242756Y-81410647D01*
X149242756Y-81607713D01*
X149094720Y-81607713D01*
X148772903Y-81741013D01*
X148502080Y-81628835D01*
X148130114Y-81628835D01*
X147786462Y-81771180D01*
X147698284Y-81859358D01*
X147681222Y-81818165D01*
X147418202Y-81555145D01*
X147074550Y-81412800D01*
X146702584Y-81412800D01*
X146358932Y-81555145D01*
X146095912Y-81818165D01*
X145953567Y-82161817D01*
X122283189Y-82161817D01*
X122211809Y-82054991D01*
X122001765Y-81914643D01*
X121956381Y-81905616D01*
X121974625Y-81893425D01*
X122302839Y-81402218D01*
X122418092Y-80822800D01*
X122302839Y-80243382D01*
X122122642Y-79973697D01*
X137583720Y-79973697D01*
X137583720Y-80345663D01*
X137726065Y-80689315D01*
X137989085Y-80952335D01*
X138332737Y-81094680D01*
X138704703Y-81094680D01*
X139048355Y-80952335D01*
X139311375Y-80689315D01*
X139453720Y-80345663D01*
X139453720Y-79973697D01*
X139311375Y-79630045D01*
X139048355Y-79367025D01*
X138945659Y-79324487D01*
X155697457Y-79324487D01*
X155697457Y-79696453D01*
X155839802Y-80040105D01*
X156102822Y-80303125D01*
X156446474Y-80445470D01*
X156818440Y-80445470D01*
X157162092Y-80303125D01*
X157425112Y-80040105D01*
X157567457Y-79696453D01*
X157567457Y-79324487D01*
X157425112Y-78980835D01*
X157162092Y-78717815D01*
X156818440Y-78575470D01*
X156446474Y-78575470D01*
X156102822Y-78717815D01*
X155839802Y-78980835D01*
X155697457Y-79324487D01*
X138945659Y-79324487D01*
X138704703Y-79224680D01*
X138332737Y-79224680D01*
X137989085Y-79367025D01*
X137726065Y-79630045D01*
X137583720Y-79973697D01*
X122122642Y-79973697D01*
X121974625Y-79752175D01*
X121676239Y-79552800D01*
X121974625Y-79353425D01*
X122302839Y-78862218D01*
X122418092Y-78282800D01*
X122358143Y-77981410D01*
X158118755Y-77981410D01*
X158118755Y-78353376D01*
X158261100Y-78697028D01*
X158524120Y-78960048D01*
X158867772Y-79102393D01*
X159239738Y-79102393D01*
X159583390Y-78960048D01*
X159846410Y-78697028D01*
X159949146Y-78449000D01*
X160128651Y-78374647D01*
X160391671Y-78111627D01*
X160521029Y-77799330D01*
X160632427Y-77753187D01*
X160895447Y-77490167D01*
X161026251Y-77174378D01*
X161133835Y-77129815D01*
X161396855Y-76866795D01*
X161539200Y-76523143D01*
X161539200Y-76151177D01*
X161396855Y-75807525D01*
X161133835Y-75544505D01*
X160790183Y-75402160D01*
X160418217Y-75402160D01*
X160074565Y-75544505D01*
X159811545Y-75807525D01*
X159680741Y-76123314D01*
X159573157Y-76167877D01*
X159310137Y-76430897D01*
X159180779Y-76743194D01*
X159069381Y-76789337D01*
X158806361Y-77052357D01*
X158703625Y-77300385D01*
X158524120Y-77374738D01*
X158261100Y-77637758D01*
X158118755Y-77981410D01*
X122358143Y-77981410D01*
X122302839Y-77703382D01*
X121974625Y-77212175D01*
X121676239Y-77012800D01*
X121974625Y-76813425D01*
X122302839Y-76322218D01*
X122317662Y-76247697D01*
X132409920Y-76247697D01*
X132409920Y-76619663D01*
X132552265Y-76963315D01*
X132815285Y-77226335D01*
X133158937Y-77368680D01*
X133530903Y-77368680D01*
X133787135Y-77262545D01*
X134129217Y-77404240D01*
X134501183Y-77404240D01*
X134806372Y-77277827D01*
X135128175Y-77411122D01*
X135500141Y-77411122D01*
X135759454Y-77303711D01*
X135775406Y-77342224D01*
X136038426Y-77605244D01*
X136382078Y-77747589D01*
X136754044Y-77747589D01*
X137097696Y-77605244D01*
X137360716Y-77342224D01*
X137503061Y-76998572D01*
X137503061Y-76626606D01*
X137360716Y-76282954D01*
X137097696Y-76019934D01*
X136754044Y-75877589D01*
X136382078Y-75877589D01*
X136122765Y-75985000D01*
X136106813Y-75946487D01*
X135843793Y-75683467D01*
X135500141Y-75541122D01*
X135128175Y-75541122D01*
X134822986Y-75667535D01*
X134501183Y-75534240D01*
X134129217Y-75534240D01*
X133872985Y-75640375D01*
X133530903Y-75498680D01*
X133158937Y-75498680D01*
X132815285Y-75641025D01*
X132552265Y-75904045D01*
X132409920Y-76247697D01*
X122317662Y-76247697D01*
X122418092Y-75742800D01*
X122302839Y-75163382D01*
X121974625Y-74672175D01*
X121686801Y-74479857D01*
X140924000Y-74479857D01*
X140924000Y-74851823D01*
X141066345Y-75195475D01*
X141329365Y-75458495D01*
X141673017Y-75600840D01*
X142044983Y-75600840D01*
X142388635Y-75458495D01*
X142651655Y-75195475D01*
X142794000Y-74851823D01*
X142794000Y-74479857D01*
X142775850Y-74436040D01*
X142877323Y-74334567D01*
X143019668Y-73990915D01*
X143019668Y-73618949D01*
X142993338Y-73555381D01*
X143004052Y-73544667D01*
X143146397Y-73201015D01*
X143146397Y-73182760D01*
X143518183Y-73182760D01*
X143861835Y-73040415D01*
X144124855Y-72777395D01*
X144267200Y-72433743D01*
X144267200Y-72061777D01*
X144124855Y-71718125D01*
X143861835Y-71455105D01*
X143518183Y-71312760D01*
X143146217Y-71312760D01*
X142866508Y-71428619D01*
X142537743Y-71292440D01*
X142165777Y-71292440D01*
X141822125Y-71434785D01*
X141559105Y-71697805D01*
X141416760Y-72041457D01*
X141416760Y-72413423D01*
X141438421Y-72465718D01*
X141418742Y-72485397D01*
X141276397Y-72829049D01*
X141276397Y-73201015D01*
X141302727Y-73264583D01*
X141292013Y-73275297D01*
X141149668Y-73618949D01*
X141149668Y-73990915D01*
X141167818Y-74034732D01*
X141066345Y-74136205D01*
X140924000Y-74479857D01*
X121686801Y-74479857D01*
X121676239Y-74472800D01*
X121974625Y-74273425D01*
X122302839Y-73782218D01*
X122418092Y-73202800D01*
X122302839Y-72623382D01*
X121974625Y-72132175D01*
X121676239Y-71932800D01*
X121974625Y-71733425D01*
X122302839Y-71242218D01*
X122418092Y-70662800D01*
X122302839Y-70083382D01*
X122018204Y-69657395D01*
X142674529Y-69657395D01*
X142674529Y-70029361D01*
X142816874Y-70373013D01*
X143079894Y-70636033D01*
X143423546Y-70778378D01*
X143795512Y-70778378D01*
X144139164Y-70636033D01*
X144402184Y-70373013D01*
X144544529Y-70029361D01*
X144544529Y-69657395D01*
X144402184Y-69313743D01*
X144139164Y-69050723D01*
X143795512Y-68908378D01*
X143423546Y-68908378D01*
X143079894Y-69050723D01*
X142816874Y-69313743D01*
X142674529Y-69657395D01*
X122018204Y-69657395D01*
X121974625Y-69592175D01*
X121676239Y-69392800D01*
X121974625Y-69193425D01*
X122302839Y-68702218D01*
X122418092Y-68122800D01*
X122302839Y-67543382D01*
X121974625Y-67052175D01*
X121676239Y-66852800D01*
X121974625Y-66653425D01*
X122302839Y-66162218D01*
X122381321Y-65767657D01*
X147075880Y-65767657D01*
X147075880Y-66139623D01*
X147218225Y-66483275D01*
X147481245Y-66746295D01*
X147824897Y-66888640D01*
X148196863Y-66888640D01*
X148540515Y-66746295D01*
X148803535Y-66483275D01*
X148945880Y-66139623D01*
X148945880Y-65767877D01*
X148950836Y-65765824D01*
X151613666Y-65765824D01*
X151628555Y-65840676D01*
X151628554Y-68064285D01*
X151672650Y-68285970D01*
X151840625Y-68537363D01*
X152092017Y-68705338D01*
X152388554Y-68764323D01*
X152685090Y-68705338D01*
X152936483Y-68537363D01*
X153104458Y-68285971D01*
X153148554Y-68064286D01*
X153148554Y-67251017D01*
X161431960Y-67251017D01*
X161431960Y-67622983D01*
X161574305Y-67966635D01*
X161837325Y-68229655D01*
X162180977Y-68372000D01*
X162552943Y-68372000D01*
X162896595Y-68229655D01*
X163159615Y-67966635D01*
X163301960Y-67622983D01*
X163301960Y-67251017D01*
X163159615Y-66907365D01*
X162896595Y-66644345D01*
X162552943Y-66502000D01*
X162180977Y-66502000D01*
X161837325Y-66644345D01*
X161574305Y-66907365D01*
X161431960Y-67251017D01*
X153148554Y-67251017D01*
X153148554Y-66275152D01*
X153182187Y-66308785D01*
X153525839Y-66451130D01*
X153545576Y-66451130D01*
X153570235Y-66510662D01*
X153833255Y-66773682D01*
X154176907Y-66916027D01*
X154548873Y-66916027D01*
X154892525Y-66773682D01*
X155155545Y-66510662D01*
X155297890Y-66167010D01*
X155297890Y-65795044D01*
X155155545Y-65451392D01*
X154892525Y-65188372D01*
X154548873Y-65046027D01*
X154529136Y-65046027D01*
X154504477Y-64986495D01*
X154241457Y-64723475D01*
X153897805Y-64581130D01*
X153885175Y-64581130D01*
X153900372Y-64544440D01*
X153900372Y-64172474D01*
X153864345Y-64085496D01*
X164419598Y-64085496D01*
X164419598Y-64457462D01*
X164561943Y-64801114D01*
X164824963Y-65064134D01*
X165168615Y-65206479D01*
X165540581Y-65206479D01*
X165884233Y-65064134D01*
X166147253Y-64801114D01*
X166236495Y-64585664D01*
X166449089Y-64497605D01*
X166712109Y-64234585D01*
X166794211Y-64036373D01*
X167023938Y-63941217D01*
X167286958Y-63678197D01*
X167335632Y-63560686D01*
X167642321Y-63433652D01*
X167905341Y-63170632D01*
X167966200Y-63023704D01*
X168245429Y-62908044D01*
X168508449Y-62645024D01*
X168650794Y-62301372D01*
X168650794Y-61929406D01*
X168508449Y-61585754D01*
X168245429Y-61322734D01*
X167901777Y-61180389D01*
X167529811Y-61180389D01*
X167186159Y-61322734D01*
X166923139Y-61585754D01*
X166862280Y-61732682D01*
X166583051Y-61848342D01*
X166320031Y-62111362D01*
X166271357Y-62228873D01*
X165964668Y-62355907D01*
X165701648Y-62618927D01*
X165619546Y-62817139D01*
X165389819Y-62912295D01*
X165126799Y-63175315D01*
X165037557Y-63390765D01*
X164824963Y-63478824D01*
X164561943Y-63741844D01*
X164419598Y-64085496D01*
X153864345Y-64085496D01*
X153758027Y-63828822D01*
X153495007Y-63565802D01*
X153151355Y-63423457D01*
X152779389Y-63423457D01*
X152435737Y-63565802D01*
X152172717Y-63828822D01*
X152030372Y-64172474D01*
X152030372Y-64544440D01*
X152134469Y-64795753D01*
X152061515Y-64971880D01*
X152061515Y-65018062D01*
X151904082Y-65175495D01*
X151840626Y-65217895D01*
X151798226Y-65281351D01*
X151798225Y-65281352D01*
X151672651Y-65469287D01*
X151613666Y-65765824D01*
X148950836Y-65765824D01*
X148987555Y-65750615D01*
X149250575Y-65487595D01*
X149392920Y-65143943D01*
X149392920Y-64771977D01*
X149250575Y-64428325D01*
X148987555Y-64165305D01*
X148643903Y-64022960D01*
X148271937Y-64022960D01*
X147928285Y-64165305D01*
X147665265Y-64428325D01*
X147522920Y-64771977D01*
X147522920Y-65143723D01*
X147481245Y-65160985D01*
X147218225Y-65424005D01*
X147075880Y-65767657D01*
X122381321Y-65767657D01*
X122418092Y-65582800D01*
X122302839Y-65003382D01*
X121974625Y-64512175D01*
X121858071Y-64434296D01*
X122445639Y-64434296D01*
X122445639Y-64806262D01*
X122587984Y-65149914D01*
X122851004Y-65412934D01*
X123194656Y-65555279D01*
X123566622Y-65555279D01*
X123910274Y-65412934D01*
X124173294Y-65149914D01*
X124315639Y-64806262D01*
X124315639Y-64434296D01*
X124173294Y-64090644D01*
X123910274Y-63827624D01*
X123866024Y-63809295D01*
X127122393Y-63809295D01*
X127122393Y-64181261D01*
X127264738Y-64524913D01*
X127527758Y-64787933D01*
X127871410Y-64930278D01*
X128243376Y-64930278D01*
X128587028Y-64787933D01*
X128850048Y-64524913D01*
X128992393Y-64181261D01*
X128992393Y-63823201D01*
X143833359Y-63823201D01*
X143833359Y-64195167D01*
X143975704Y-64538819D01*
X144238724Y-64801839D01*
X144582376Y-64944184D01*
X144954342Y-64944184D01*
X145297994Y-64801839D01*
X145561014Y-64538819D01*
X145703359Y-64195167D01*
X145703359Y-63823201D01*
X145561014Y-63479549D01*
X145297994Y-63216529D01*
X144954342Y-63074184D01*
X144582376Y-63074184D01*
X144238724Y-63216529D01*
X143975704Y-63479549D01*
X143833359Y-63823201D01*
X128992393Y-63823201D01*
X128992393Y-63809295D01*
X128850048Y-63465643D01*
X128587028Y-63202623D01*
X128243376Y-63060278D01*
X127871410Y-63060278D01*
X127527758Y-63202623D01*
X127264738Y-63465643D01*
X127122393Y-63809295D01*
X123866024Y-63809295D01*
X123566622Y-63685279D01*
X123194656Y-63685279D01*
X122851004Y-63827624D01*
X122587984Y-64090644D01*
X122445639Y-64434296D01*
X121858071Y-64434296D01*
X121676239Y-64312800D01*
X121974625Y-64113425D01*
X122302839Y-63622218D01*
X122418092Y-63042800D01*
X122302839Y-62463382D01*
X121974625Y-61972175D01*
X121676239Y-61772800D01*
X121974625Y-61573425D01*
X122302839Y-61082218D01*
X122317310Y-61009465D01*
X161298326Y-61009465D01*
X161298326Y-61381431D01*
X161440671Y-61725083D01*
X161703691Y-61988103D01*
X162047343Y-62130448D01*
X162419309Y-62130448D01*
X162762961Y-61988103D01*
X163025981Y-61725083D01*
X163135575Y-61460499D01*
X163297904Y-61393260D01*
X163560924Y-61130240D01*
X163665470Y-60877842D01*
X163840465Y-60805357D01*
X164103485Y-60542337D01*
X164219537Y-60262162D01*
X164365463Y-60201718D01*
X164628483Y-59938698D01*
X164770828Y-59595046D01*
X164770828Y-59395822D01*
X164973175Y-59193475D01*
X165115520Y-58849823D01*
X165115520Y-58477857D01*
X164973175Y-58134205D01*
X164710155Y-57871185D01*
X164366503Y-57728840D01*
X163994537Y-57728840D01*
X163650885Y-57871185D01*
X163387865Y-58134205D01*
X163245520Y-58477857D01*
X163245520Y-58677081D01*
X163043173Y-58879428D01*
X162927121Y-59159603D01*
X162781195Y-59220047D01*
X162518175Y-59483067D01*
X162413629Y-59735465D01*
X162238634Y-59807950D01*
X161975614Y-60070970D01*
X161866020Y-60335554D01*
X161703691Y-60402793D01*
X161440671Y-60665813D01*
X161298326Y-61009465D01*
X122317310Y-61009465D01*
X122418092Y-60502800D01*
X122302839Y-59923382D01*
X121974625Y-59432175D01*
X121483418Y-59103961D01*
X121050256Y-59017800D01*
X120757744Y-59017800D01*
X120324582Y-59103961D01*
X119833375Y-59432175D01*
X119632647Y-59732586D01*
X119245358Y-59307617D01*
X118720892Y-59061314D01*
X118491000Y-59181981D01*
X118491000Y-60375800D01*
X118511000Y-60375800D01*
X118511000Y-60629800D01*
X118491000Y-60629800D01*
X118491000Y-62915800D01*
X118511000Y-62915800D01*
X118511000Y-63169800D01*
X118491000Y-63169800D01*
X118491000Y-65455800D01*
X118511000Y-65455800D01*
X118511000Y-65709800D01*
X118491000Y-65709800D01*
X118491000Y-67995800D01*
X118511000Y-67995800D01*
X118511000Y-68249800D01*
X118491000Y-68249800D01*
X118491000Y-70535800D01*
X118511000Y-70535800D01*
X118511000Y-70789800D01*
X118491000Y-70789800D01*
X118491000Y-73075800D01*
X118511000Y-73075800D01*
X118511000Y-73329800D01*
X118491000Y-73329800D01*
X118491000Y-75615800D01*
X118511000Y-75615800D01*
X118511000Y-75869800D01*
X118491000Y-75869800D01*
X118491000Y-78155800D01*
X118511000Y-78155800D01*
X118511000Y-78409800D01*
X118491000Y-78409800D01*
X118491000Y-80695800D01*
X118511000Y-80695800D01*
X118511000Y-80949800D01*
X118491000Y-80949800D01*
X118491000Y-80969800D01*
X118237000Y-80969800D01*
X118237000Y-80949800D01*
X117043845Y-80949800D01*
X116922524Y-81179690D01*
X117092355Y-81589724D01*
X117482642Y-82017983D01*
X117612478Y-82078957D01*
X117293375Y-82292175D01*
X116965161Y-82783382D01*
X116849908Y-83362800D01*
X115807029Y-83362800D01*
X115823522Y-78639690D01*
X116922524Y-78639690D01*
X117092355Y-79049724D01*
X117482642Y-79477983D01*
X117641954Y-79552800D01*
X117482642Y-79627617D01*
X117092355Y-80055876D01*
X116922524Y-80465910D01*
X117043845Y-80695800D01*
X118237000Y-80695800D01*
X118237000Y-78409800D01*
X117043845Y-78409800D01*
X116922524Y-78639690D01*
X115823522Y-78639690D01*
X115832391Y-76099690D01*
X116922524Y-76099690D01*
X117092355Y-76509724D01*
X117482642Y-76937983D01*
X117641954Y-77012800D01*
X117482642Y-77087617D01*
X117092355Y-77515876D01*
X116922524Y-77925910D01*
X117043845Y-78155800D01*
X118237000Y-78155800D01*
X118237000Y-75869800D01*
X117043845Y-75869800D01*
X116922524Y-76099690D01*
X115832391Y-76099690D01*
X115841261Y-73559690D01*
X116922524Y-73559690D01*
X117092355Y-73969724D01*
X117482642Y-74397983D01*
X117641954Y-74472800D01*
X117482642Y-74547617D01*
X117092355Y-74975876D01*
X116922524Y-75385910D01*
X117043845Y-75615800D01*
X118237000Y-75615800D01*
X118237000Y-73329800D01*
X117043845Y-73329800D01*
X116922524Y-73559690D01*
X115841261Y-73559690D01*
X115850131Y-71019690D01*
X116922524Y-71019690D01*
X117092355Y-71429724D01*
X117482642Y-71857983D01*
X117641954Y-71932800D01*
X117482642Y-72007617D01*
X117092355Y-72435876D01*
X116922524Y-72845910D01*
X117043845Y-73075800D01*
X118237000Y-73075800D01*
X118237000Y-70789800D01*
X117043845Y-70789800D01*
X116922524Y-71019690D01*
X115850131Y-71019690D01*
X115859001Y-68479690D01*
X116922524Y-68479690D01*
X117092355Y-68889724D01*
X117482642Y-69317983D01*
X117641954Y-69392800D01*
X117482642Y-69467617D01*
X117092355Y-69895876D01*
X116922524Y-70305910D01*
X117043845Y-70535800D01*
X118237000Y-70535800D01*
X118237000Y-68249800D01*
X117043845Y-68249800D01*
X116922524Y-68479690D01*
X115859001Y-68479690D01*
X115867871Y-65939690D01*
X116922524Y-65939690D01*
X117092355Y-66349724D01*
X117482642Y-66777983D01*
X117641954Y-66852800D01*
X117482642Y-66927617D01*
X117092355Y-67355876D01*
X116922524Y-67765910D01*
X117043845Y-67995800D01*
X118237000Y-67995800D01*
X118237000Y-65709800D01*
X117043845Y-65709800D01*
X116922524Y-65939690D01*
X115867871Y-65939690D01*
X115876741Y-63399690D01*
X116922524Y-63399690D01*
X117092355Y-63809724D01*
X117482642Y-64237983D01*
X117641954Y-64312800D01*
X117482642Y-64387617D01*
X117092355Y-64815876D01*
X116922524Y-65225910D01*
X117043845Y-65455800D01*
X118237000Y-65455800D01*
X118237000Y-63169800D01*
X117043845Y-63169800D01*
X116922524Y-63399690D01*
X115876741Y-63399690D01*
X115885611Y-60859690D01*
X116922524Y-60859690D01*
X117092355Y-61269724D01*
X117482642Y-61697983D01*
X117641954Y-61772800D01*
X117482642Y-61847617D01*
X117092355Y-62275876D01*
X116922524Y-62685910D01*
X117043845Y-62915800D01*
X118237000Y-62915800D01*
X118237000Y-60629800D01*
X117043845Y-60629800D01*
X116922524Y-60859690D01*
X115885611Y-60859690D01*
X115888103Y-60145910D01*
X116922524Y-60145910D01*
X117043845Y-60375800D01*
X118237000Y-60375800D01*
X118237000Y-59181981D01*
X118007108Y-59061314D01*
X117482642Y-59307617D01*
X117092355Y-59735876D01*
X116922524Y-60145910D01*
X115888103Y-60145910D01*
X115895790Y-57944457D01*
X155468040Y-57944457D01*
X155468040Y-58316423D01*
X155610385Y-58660075D01*
X155873405Y-58923095D01*
X156217057Y-59065440D01*
X156589023Y-59065440D01*
X156932675Y-58923095D01*
X157032473Y-58823297D01*
X157235880Y-58823297D01*
X157235880Y-59195263D01*
X157378225Y-59538915D01*
X157641245Y-59801935D01*
X157984897Y-59944280D01*
X158356863Y-59944280D01*
X158700515Y-59801935D01*
X158963535Y-59538915D01*
X159105880Y-59195263D01*
X159105880Y-58823297D01*
X158963535Y-58479645D01*
X158700515Y-58216625D01*
X158356863Y-58074280D01*
X157984897Y-58074280D01*
X157641245Y-58216625D01*
X157378225Y-58479645D01*
X157235880Y-58823297D01*
X157032473Y-58823297D01*
X157195695Y-58660075D01*
X157338040Y-58316423D01*
X157338040Y-57944457D01*
X157195695Y-57600805D01*
X156932675Y-57337785D01*
X156589023Y-57195440D01*
X156217057Y-57195440D01*
X155873405Y-57337785D01*
X155610385Y-57600805D01*
X155468040Y-57944457D01*
X115895790Y-57944457D01*
X115916158Y-52111890D01*
X143977080Y-52111890D01*
X143977080Y-52483856D01*
X144119425Y-52827508D01*
X144382445Y-53090528D01*
X144726097Y-53232873D01*
X145098063Y-53232873D01*
X145441715Y-53090528D01*
X145704735Y-52827508D01*
X145847080Y-52483856D01*
X145847080Y-52111890D01*
X146512000Y-52111890D01*
X146512000Y-52483856D01*
X146654345Y-52827508D01*
X146917365Y-53090528D01*
X147261017Y-53232873D01*
X147632983Y-53232873D01*
X147976635Y-53090528D01*
X148239655Y-52827508D01*
X148382000Y-52483856D01*
X148382000Y-52111890D01*
X148274169Y-51851560D01*
X172216828Y-51851560D01*
X172332081Y-52430978D01*
X172660295Y-52922185D01*
X172958681Y-53121560D01*
X172660295Y-53320935D01*
X172332081Y-53812142D01*
X172216828Y-54391560D01*
X172332081Y-54970978D01*
X172660295Y-55462185D01*
X172958681Y-55661560D01*
X172660295Y-55860935D01*
X172332081Y-56352142D01*
X172216828Y-56931560D01*
X172332081Y-57510978D01*
X172660295Y-58002185D01*
X172958681Y-58201560D01*
X172660295Y-58400935D01*
X172332081Y-58892142D01*
X172216828Y-59471560D01*
X172332081Y-60050978D01*
X172660295Y-60542185D01*
X172958681Y-60741560D01*
X172660295Y-60940935D01*
X172332081Y-61432142D01*
X172216828Y-62011560D01*
X172332081Y-62590978D01*
X172660295Y-63082185D01*
X172958681Y-63281560D01*
X172660295Y-63480935D01*
X172332081Y-63972142D01*
X172216828Y-64551560D01*
X172332081Y-65130978D01*
X172660295Y-65622185D01*
X172958681Y-65821560D01*
X172660295Y-66020935D01*
X172332081Y-66512142D01*
X172216828Y-67091560D01*
X172332081Y-67670978D01*
X172660295Y-68162185D01*
X172958681Y-68361560D01*
X172660295Y-68560935D01*
X172332081Y-69052142D01*
X172216828Y-69631560D01*
X172332081Y-70210978D01*
X172660295Y-70702185D01*
X172958681Y-70901560D01*
X172660295Y-71100935D01*
X172332081Y-71592142D01*
X172216828Y-72171560D01*
X172332081Y-72750978D01*
X172660295Y-73242185D01*
X172958681Y-73441560D01*
X172660295Y-73640935D01*
X172332081Y-74132142D01*
X172216828Y-74711560D01*
X172332081Y-75290978D01*
X172660295Y-75782185D01*
X172958681Y-75981560D01*
X172660295Y-76180935D01*
X172332081Y-76672142D01*
X172216828Y-77251560D01*
X172332081Y-77830978D01*
X172660295Y-78322185D01*
X172958681Y-78521560D01*
X172660295Y-78720935D01*
X172332081Y-79212142D01*
X172216828Y-79791560D01*
X172332081Y-80370978D01*
X172660295Y-80862185D01*
X172958681Y-81061560D01*
X172660295Y-81260935D01*
X172332081Y-81752142D01*
X172216828Y-82331560D01*
X172332081Y-82910978D01*
X172660295Y-83402185D01*
X172958681Y-83601560D01*
X172660295Y-83800935D01*
X172332081Y-84292142D01*
X172216828Y-84871560D01*
X172332081Y-85450978D01*
X172660295Y-85942185D01*
X172958681Y-86141560D01*
X172660295Y-86340935D01*
X172332081Y-86832142D01*
X172216828Y-87411560D01*
X172332081Y-87990978D01*
X172660295Y-88482185D01*
X172678539Y-88494376D01*
X172633155Y-88503403D01*
X172423111Y-88643751D01*
X172282763Y-88853795D01*
X172233480Y-89101560D01*
X172233480Y-90801560D01*
X172282763Y-91049325D01*
X172423111Y-91259369D01*
X172633155Y-91399717D01*
X172880920Y-91449000D01*
X174580920Y-91449000D01*
X174828685Y-91399717D01*
X175038729Y-91259369D01*
X175179077Y-91049325D01*
X175228360Y-90801560D01*
X175228360Y-89101560D01*
X175179077Y-88853795D01*
X175038729Y-88643751D01*
X174828685Y-88503403D01*
X174783301Y-88494376D01*
X174801545Y-88482185D01*
X175129759Y-87990978D01*
X175245012Y-87411560D01*
X175129759Y-86832142D01*
X174801545Y-86340935D01*
X174503159Y-86141560D01*
X174801545Y-85942185D01*
X175129759Y-85450978D01*
X175245012Y-84871560D01*
X175129759Y-84292142D01*
X174801545Y-83800935D01*
X174503159Y-83601560D01*
X174801545Y-83402185D01*
X175129759Y-82910978D01*
X175245012Y-82331560D01*
X175129759Y-81752142D01*
X174801545Y-81260935D01*
X174503159Y-81061560D01*
X174801545Y-80862185D01*
X175129759Y-80370978D01*
X175245012Y-79791560D01*
X175129759Y-79212142D01*
X174801545Y-78720935D01*
X174503159Y-78521560D01*
X174801545Y-78322185D01*
X175129759Y-77830978D01*
X175245012Y-77251560D01*
X175129759Y-76672142D01*
X174801545Y-76180935D01*
X174503159Y-75981560D01*
X174801545Y-75782185D01*
X175129759Y-75290978D01*
X175245012Y-74711560D01*
X175129759Y-74132142D01*
X174801545Y-73640935D01*
X174503159Y-73441560D01*
X174801545Y-73242185D01*
X175129759Y-72750978D01*
X175245012Y-72171560D01*
X175129759Y-71592142D01*
X174801545Y-71100935D01*
X174503159Y-70901560D01*
X174801545Y-70702185D01*
X175129759Y-70210978D01*
X175245012Y-69631560D01*
X175129759Y-69052142D01*
X174801545Y-68560935D01*
X174503159Y-68361560D01*
X174801545Y-68162185D01*
X175129759Y-67670978D01*
X175245012Y-67091560D01*
X175129759Y-66512142D01*
X174801545Y-66020935D01*
X174503159Y-65821560D01*
X174801545Y-65622185D01*
X175129759Y-65130978D01*
X175245012Y-64551560D01*
X175129759Y-63972142D01*
X174801545Y-63480935D01*
X174503159Y-63281560D01*
X174801545Y-63082185D01*
X175129759Y-62590978D01*
X175245012Y-62011560D01*
X175129759Y-61432142D01*
X174801545Y-60940935D01*
X174503159Y-60741560D01*
X174801545Y-60542185D01*
X175129759Y-60050978D01*
X175245012Y-59471560D01*
X175129759Y-58892142D01*
X174801545Y-58400935D01*
X174503159Y-58201560D01*
X174801545Y-58002185D01*
X175129759Y-57510978D01*
X175245012Y-56931560D01*
X175129759Y-56352142D01*
X174801545Y-55860935D01*
X174503159Y-55661560D01*
X174801545Y-55462185D01*
X175129759Y-54970978D01*
X175245012Y-54391560D01*
X175129759Y-53812142D01*
X174801545Y-53320935D01*
X174503159Y-53121560D01*
X174801545Y-52922185D01*
X175129759Y-52430978D01*
X175245012Y-51851560D01*
X175129759Y-51272142D01*
X174801545Y-50780935D01*
X174310338Y-50452721D01*
X173877176Y-50366560D01*
X173584664Y-50366560D01*
X173151502Y-50452721D01*
X172660295Y-50780935D01*
X172332081Y-51272142D01*
X172216828Y-51851560D01*
X148274169Y-51851560D01*
X148239655Y-51768238D01*
X147976635Y-51505218D01*
X147632983Y-51362873D01*
X147261017Y-51362873D01*
X146917365Y-51505218D01*
X146654345Y-51768238D01*
X146512000Y-52111890D01*
X145847080Y-52111890D01*
X145704735Y-51768238D01*
X145441715Y-51505218D01*
X145098063Y-51362873D01*
X144726097Y-51362873D01*
X144382445Y-51505218D01*
X144119425Y-51768238D01*
X143977080Y-52111890D01*
X115916158Y-52111890D01*
X115929539Y-48280320D01*
X128132588Y-48280320D01*
X128247841Y-48859738D01*
X128576055Y-49350945D01*
X129067262Y-49679159D01*
X129500424Y-49765320D01*
X129792936Y-49765320D01*
X130226098Y-49679159D01*
X130717305Y-49350945D01*
X130916680Y-49052559D01*
X131116055Y-49350945D01*
X131607262Y-49679159D01*
X132040424Y-49765320D01*
X132332936Y-49765320D01*
X132766098Y-49679159D01*
X133257305Y-49350945D01*
X133456680Y-49052559D01*
X133656055Y-49350945D01*
X134147262Y-49679159D01*
X134580424Y-49765320D01*
X134872936Y-49765320D01*
X135306098Y-49679159D01*
X135797305Y-49350945D01*
X135996680Y-49052559D01*
X136196055Y-49350945D01*
X136687262Y-49679159D01*
X137120424Y-49765320D01*
X137412936Y-49765320D01*
X137846098Y-49679159D01*
X138337305Y-49350945D01*
X138536680Y-49052559D01*
X138736055Y-49350945D01*
X139227262Y-49679159D01*
X139660424Y-49765320D01*
X139952936Y-49765320D01*
X140386098Y-49679159D01*
X140877305Y-49350945D01*
X141076680Y-49052559D01*
X141276055Y-49350945D01*
X141767262Y-49679159D01*
X142200424Y-49765320D01*
X142492936Y-49765320D01*
X142926098Y-49679159D01*
X143417305Y-49350945D01*
X143616680Y-49052559D01*
X143816055Y-49350945D01*
X144307262Y-49679159D01*
X144740424Y-49765320D01*
X145032936Y-49765320D01*
X145466098Y-49679159D01*
X145957305Y-49350945D01*
X146156680Y-49052559D01*
X146356055Y-49350945D01*
X146847262Y-49679159D01*
X147280424Y-49765320D01*
X147572936Y-49765320D01*
X148006098Y-49679159D01*
X148497305Y-49350945D01*
X148696680Y-49052559D01*
X148896055Y-49350945D01*
X149387262Y-49679159D01*
X149820424Y-49765320D01*
X150112936Y-49765320D01*
X150546098Y-49679159D01*
X151037305Y-49350945D01*
X151236680Y-49052559D01*
X151436055Y-49350945D01*
X151927262Y-49679159D01*
X152360424Y-49765320D01*
X152652936Y-49765320D01*
X153086098Y-49679159D01*
X153577305Y-49350945D01*
X153776680Y-49052559D01*
X153976055Y-49350945D01*
X154467262Y-49679159D01*
X154900424Y-49765320D01*
X155192936Y-49765320D01*
X155626098Y-49679159D01*
X156117305Y-49350945D01*
X156316680Y-49052559D01*
X156516055Y-49350945D01*
X157007262Y-49679159D01*
X157440424Y-49765320D01*
X157732936Y-49765320D01*
X158166098Y-49679159D01*
X158657305Y-49350945D01*
X158856680Y-49052559D01*
X159056055Y-49350945D01*
X159547262Y-49679159D01*
X159980424Y-49765320D01*
X160272936Y-49765320D01*
X160706098Y-49679159D01*
X161197305Y-49350945D01*
X161396680Y-49052559D01*
X161596055Y-49350945D01*
X162087262Y-49679159D01*
X162520424Y-49765320D01*
X162812936Y-49765320D01*
X163246098Y-49679159D01*
X163737305Y-49350945D01*
X163936680Y-49052559D01*
X164136055Y-49350945D01*
X164627262Y-49679159D01*
X165060424Y-49765320D01*
X165352936Y-49765320D01*
X165786098Y-49679159D01*
X166277305Y-49350945D01*
X166289496Y-49332701D01*
X166298523Y-49378085D01*
X166438871Y-49588129D01*
X166648915Y-49728477D01*
X166896680Y-49777760D01*
X168596680Y-49777760D01*
X168844445Y-49728477D01*
X169054489Y-49588129D01*
X169194837Y-49378085D01*
X169244120Y-49130320D01*
X169244120Y-47430320D01*
X169194837Y-47182555D01*
X169054489Y-46972511D01*
X168844445Y-46832163D01*
X168596680Y-46782880D01*
X166896680Y-46782880D01*
X166648915Y-46832163D01*
X166438871Y-46972511D01*
X166298523Y-47182555D01*
X166289496Y-47227939D01*
X166277305Y-47209695D01*
X165786098Y-46881481D01*
X165352936Y-46795320D01*
X165060424Y-46795320D01*
X164627262Y-46881481D01*
X164136055Y-47209695D01*
X163936680Y-47508081D01*
X163737305Y-47209695D01*
X163246098Y-46881481D01*
X162812936Y-46795320D01*
X162520424Y-46795320D01*
X162087262Y-46881481D01*
X161596055Y-47209695D01*
X161396680Y-47508081D01*
X161197305Y-47209695D01*
X160706098Y-46881481D01*
X160272936Y-46795320D01*
X159980424Y-46795320D01*
X159547262Y-46881481D01*
X159056055Y-47209695D01*
X158856680Y-47508081D01*
X158657305Y-47209695D01*
X158166098Y-46881481D01*
X157732936Y-46795320D01*
X157440424Y-46795320D01*
X157007262Y-46881481D01*
X156516055Y-47209695D01*
X156316680Y-47508081D01*
X156117305Y-47209695D01*
X155626098Y-46881481D01*
X155192936Y-46795320D01*
X154900424Y-46795320D01*
X154467262Y-46881481D01*
X153976055Y-47209695D01*
X153776680Y-47508081D01*
X153577305Y-47209695D01*
X153086098Y-46881481D01*
X152652936Y-46795320D01*
X152360424Y-46795320D01*
X151927262Y-46881481D01*
X151436055Y-47209695D01*
X151236680Y-47508081D01*
X151037305Y-47209695D01*
X150546098Y-46881481D01*
X150112936Y-46795320D01*
X149820424Y-46795320D01*
X149387262Y-46881481D01*
X148896055Y-47209695D01*
X148696680Y-47508081D01*
X148497305Y-47209695D01*
X148006098Y-46881481D01*
X147572936Y-46795320D01*
X147280424Y-46795320D01*
X146847262Y-46881481D01*
X146356055Y-47209695D01*
X146156680Y-47508081D01*
X145957305Y-47209695D01*
X145466098Y-46881481D01*
X145032936Y-46795320D01*
X144740424Y-46795320D01*
X144307262Y-46881481D01*
X143816055Y-47209695D01*
X143616680Y-47508081D01*
X143417305Y-47209695D01*
X142926098Y-46881481D01*
X142492936Y-46795320D01*
X142200424Y-46795320D01*
X141767262Y-46881481D01*
X141276055Y-47209695D01*
X141076680Y-47508081D01*
X140877305Y-47209695D01*
X140386098Y-46881481D01*
X139952936Y-46795320D01*
X139660424Y-46795320D01*
X139227262Y-46881481D01*
X138736055Y-47209695D01*
X138536680Y-47508081D01*
X138337305Y-47209695D01*
X137846098Y-46881481D01*
X137412936Y-46795320D01*
X137120424Y-46795320D01*
X136687262Y-46881481D01*
X136196055Y-47209695D01*
X135996680Y-47508081D01*
X135797305Y-47209695D01*
X135306098Y-46881481D01*
X134872936Y-46795320D01*
X134580424Y-46795320D01*
X134147262Y-46881481D01*
X133656055Y-47209695D01*
X133456680Y-47508081D01*
X133257305Y-47209695D01*
X132766098Y-46881481D01*
X132332936Y-46795320D01*
X132040424Y-46795320D01*
X131607262Y-46881481D01*
X131116055Y-47209695D01*
X130916680Y-47508081D01*
X130717305Y-47209695D01*
X130226098Y-46881481D01*
X129792936Y-46795320D01*
X129500424Y-46795320D01*
X129067262Y-46881481D01*
X128576055Y-47209695D01*
X128247841Y-47700902D01*
X128132588Y-48280320D01*
X115929539Y-48280320D01*
X115940396Y-45171614D01*
X176362360Y-45287956D01*
X176362360Y-45287956D01*
G37*
X176362360Y-45287956D02*
X176362360Y-97327635D01*
X115758404Y-97287165D01*
X115770675Y-93772990D01*
X116980600Y-93772990D01*
X116980600Y-94463549D01*
X117077273Y-94696938D01*
X117255901Y-94875567D01*
X117489290Y-94972240D01*
X118179850Y-94972240D01*
X118338600Y-94813490D01*
X118338600Y-93614240D01*
X117139350Y-93614240D01*
X116980600Y-93772990D01*
X115770675Y-93772990D01*
X115775082Y-92510931D01*
X116980600Y-92510931D01*
X116980600Y-93201490D01*
X117139350Y-93360240D01*
X118338600Y-93360240D01*
X118338600Y-92160990D01*
X118592600Y-92160990D01*
X118592600Y-93360240D01*
X118612600Y-93360240D01*
X118612600Y-93614240D01*
X118592600Y-93614240D01*
X118592600Y-94813490D01*
X118751350Y-94972240D01*
X119441910Y-94972240D01*
X119675299Y-94875567D01*
X119853927Y-94696938D01*
X119920504Y-94536207D01*
X119934975Y-94557865D01*
X120426182Y-94886079D01*
X120859344Y-94972240D01*
X121151856Y-94972240D01*
X121585018Y-94886079D01*
X122076225Y-94557865D01*
X122404439Y-94066658D01*
X122519692Y-93487240D01*
X122404439Y-92907822D01*
X122233825Y-92652480D01*
X127956200Y-92652480D01*
X127956200Y-94352480D01*
X128005483Y-94600245D01*
X128145831Y-94810289D01*
X128355875Y-94950637D01*
X128603640Y-94999920D01*
X130303640Y-94999920D01*
X130551405Y-94950637D01*
X130761449Y-94810289D01*
X130901797Y-94600245D01*
X130910824Y-94554861D01*
X130923015Y-94573105D01*
X131414222Y-94901319D01*
X131847384Y-94987480D01*
X132139896Y-94987480D01*
X132573058Y-94901319D01*
X133064265Y-94573105D01*
X133263640Y-94274719D01*
X133463015Y-94573105D01*
X133954222Y-94901319D01*
X134387384Y-94987480D01*
X134679896Y-94987480D01*
X135113058Y-94901319D01*
X135604265Y-94573105D01*
X135803640Y-94274719D01*
X136003015Y-94573105D01*
X136494222Y-94901319D01*
X136927384Y-94987480D01*
X137219896Y-94987480D01*
X137653058Y-94901319D01*
X138144265Y-94573105D01*
X138343640Y-94274719D01*
X138543015Y-94573105D01*
X139034222Y-94901319D01*
X139467384Y-94987480D01*
X139759896Y-94987480D01*
X140193058Y-94901319D01*
X140684265Y-94573105D01*
X140883640Y-94274719D01*
X141083015Y-94573105D01*
X141574222Y-94901319D01*
X142007384Y-94987480D01*
X142299896Y-94987480D01*
X142733058Y-94901319D01*
X143224265Y-94573105D01*
X143423640Y-94274719D01*
X143623015Y-94573105D01*
X144114222Y-94901319D01*
X144547384Y-94987480D01*
X144839896Y-94987480D01*
X145273058Y-94901319D01*
X145764265Y-94573105D01*
X145963640Y-94274719D01*
X146163015Y-94573105D01*
X146654222Y-94901319D01*
X147087384Y-94987480D01*
X147379896Y-94987480D01*
X147813058Y-94901319D01*
X148304265Y-94573105D01*
X148503640Y-94274719D01*
X148703015Y-94573105D01*
X149194222Y-94901319D01*
X149627384Y-94987480D01*
X149919896Y-94987480D01*
X150353058Y-94901319D01*
X150844265Y-94573105D01*
X151043640Y-94274719D01*
X151243015Y-94573105D01*
X151734222Y-94901319D01*
X152167384Y-94987480D01*
X152459896Y-94987480D01*
X152893058Y-94901319D01*
X153384265Y-94573105D01*
X153583640Y-94274719D01*
X153783015Y-94573105D01*
X154274222Y-94901319D01*
X154707384Y-94987480D01*
X154999896Y-94987480D01*
X155433058Y-94901319D01*
X155924265Y-94573105D01*
X156123640Y-94274719D01*
X156323015Y-94573105D01*
X156814222Y-94901319D01*
X157247384Y-94987480D01*
X157539896Y-94987480D01*
X157973058Y-94901319D01*
X158464265Y-94573105D01*
X158663640Y-94274719D01*
X158863015Y-94573105D01*
X159354222Y-94901319D01*
X159787384Y-94987480D01*
X160079896Y-94987480D01*
X160513058Y-94901319D01*
X161004265Y-94573105D01*
X161203640Y-94274719D01*
X161403015Y-94573105D01*
X161894222Y-94901319D01*
X162327384Y-94987480D01*
X162619896Y-94987480D01*
X163053058Y-94901319D01*
X163544265Y-94573105D01*
X163743640Y-94274719D01*
X163943015Y-94573105D01*
X164434222Y-94901319D01*
X164867384Y-94987480D01*
X165159896Y-94987480D01*
X165593058Y-94901319D01*
X166084265Y-94573105D01*
X166283640Y-94274719D01*
X166483015Y-94573105D01*
X166974222Y-94901319D01*
X167407384Y-94987480D01*
X167699896Y-94987480D01*
X168133058Y-94901319D01*
X168624265Y-94573105D01*
X168952479Y-94081898D01*
X169067732Y-93502480D01*
X168952479Y-92923062D01*
X168624265Y-92431855D01*
X168133058Y-92103641D01*
X167699896Y-92017480D01*
X167407384Y-92017480D01*
X166974222Y-92103641D01*
X166483015Y-92431855D01*
X166283640Y-92730241D01*
X166084265Y-92431855D01*
X165593058Y-92103641D01*
X165159896Y-92017480D01*
X164867384Y-92017480D01*
X164434222Y-92103641D01*
X163943015Y-92431855D01*
X163743640Y-92730241D01*
X163544265Y-92431855D01*
X163053058Y-92103641D01*
X162619896Y-92017480D01*
X162327384Y-92017480D01*
X161894222Y-92103641D01*
X161403015Y-92431855D01*
X161203640Y-92730241D01*
X161004265Y-92431855D01*
X160513058Y-92103641D01*
X160079896Y-92017480D01*
X159787384Y-92017480D01*
X159354222Y-92103641D01*
X158863015Y-92431855D01*
X158663640Y-92730241D01*
X158464265Y-92431855D01*
X157973058Y-92103641D01*
X157539896Y-92017480D01*
X157247384Y-92017480D01*
X156814222Y-92103641D01*
X156323015Y-92431855D01*
X156123640Y-92730241D01*
X155924265Y-92431855D01*
X155433058Y-92103641D01*
X154999896Y-92017480D01*
X154707384Y-92017480D01*
X154274222Y-92103641D01*
X153783015Y-92431855D01*
X153583640Y-92730241D01*
X153384265Y-92431855D01*
X152893058Y-92103641D01*
X152459896Y-92017480D01*
X152167384Y-92017480D01*
X151734222Y-92103641D01*
X151243015Y-92431855D01*
X151043640Y-92730241D01*
X150844265Y-92431855D01*
X150353058Y-92103641D01*
X149919896Y-92017480D01*
X149627384Y-92017480D01*
X149194222Y-92103641D01*
X148703015Y-92431855D01*
X148503640Y-92730241D01*
X148304265Y-92431855D01*
X147813058Y-92103641D01*
X147379896Y-92017480D01*
X147087384Y-92017480D01*
X146654222Y-92103641D01*
X146163015Y-92431855D01*
X145963640Y-92730241D01*
X145764265Y-92431855D01*
X145273058Y-92103641D01*
X144839896Y-92017480D01*
X144547384Y-92017480D01*
X144114222Y-92103641D01*
X143623015Y-92431855D01*
X143423640Y-92730241D01*
X143224265Y-92431855D01*
X142733058Y-92103641D01*
X142299896Y-92017480D01*
X142007384Y-92017480D01*
X141574222Y-92103641D01*
X141083015Y-92431855D01*
X140883640Y-92730241D01*
X140684265Y-92431855D01*
X140193058Y-92103641D01*
X139759896Y-92017480D01*
X139467384Y-92017480D01*
X139034222Y-92103641D01*
X138543015Y-92431855D01*
X138343640Y-92730241D01*
X138144265Y-92431855D01*
X137653058Y-92103641D01*
X137219896Y-92017480D01*
X136927384Y-92017480D01*
X136494222Y-92103641D01*
X136003015Y-92431855D01*
X135803640Y-92730241D01*
X135604265Y-92431855D01*
X135113058Y-92103641D01*
X134679896Y-92017480D01*
X134387384Y-92017480D01*
X133954222Y-92103641D01*
X133463015Y-92431855D01*
X133263640Y-92730241D01*
X133064265Y-92431855D01*
X132573058Y-92103641D01*
X132139896Y-92017480D01*
X131847384Y-92017480D01*
X131414222Y-92103641D01*
X130923015Y-92431855D01*
X130910824Y-92450099D01*
X130901797Y-92404715D01*
X130761449Y-92194671D01*
X130551405Y-92054323D01*
X130303640Y-92005040D01*
X128603640Y-92005040D01*
X128355875Y-92054323D01*
X128145831Y-92194671D01*
X128005483Y-92404715D01*
X127956200Y-92652480D01*
X122233825Y-92652480D01*
X122076225Y-92416615D01*
X121585018Y-92088401D01*
X121151856Y-92002240D01*
X120859344Y-92002240D01*
X120426182Y-92088401D01*
X119934975Y-92416615D01*
X119920504Y-92438273D01*
X119853927Y-92277542D01*
X119675299Y-92098913D01*
X119441910Y-92002240D01*
X118751350Y-92002240D01*
X118592600Y-92160990D01*
X118338600Y-92160990D01*
X118179850Y-92002240D01*
X117489290Y-92002240D01*
X117255901Y-92098913D01*
X117077273Y-92277542D01*
X116980600Y-92510931D01*
X115775082Y-92510931D01*
X115790958Y-87964568D01*
X148802538Y-87964568D01*
X148802538Y-88336534D01*
X148944883Y-88680186D01*
X149207903Y-88943206D01*
X149487764Y-89059128D01*
X149548350Y-89205396D01*
X149811370Y-89468416D01*
X150155022Y-89610761D01*
X150415245Y-89610761D01*
X150558620Y-89754136D01*
X150902272Y-89896481D01*
X151274238Y-89896481D01*
X151318908Y-89877978D01*
X151514622Y-90073692D01*
X151858274Y-90216037D01*
X152230240Y-90216037D01*
X152573892Y-90073692D01*
X152836912Y-89810672D01*
X152979257Y-89467020D01*
X152979257Y-89095054D01*
X152836912Y-88751402D01*
X152573892Y-88488382D01*
X152230240Y-88346037D01*
X151858274Y-88346037D01*
X151813604Y-88364540D01*
X151617890Y-88168826D01*
X151274238Y-88026481D01*
X151014015Y-88026481D01*
X150870640Y-87883106D01*
X150590779Y-87767184D01*
X150530193Y-87620916D01*
X150267173Y-87357896D01*
X149923521Y-87215551D01*
X149551555Y-87215551D01*
X149207903Y-87357896D01*
X148944883Y-87620916D01*
X148802538Y-87964568D01*
X115790958Y-87964568D01*
X115801770Y-84868457D01*
X141096720Y-84868457D01*
X141096720Y-85240423D01*
X141239065Y-85584075D01*
X141502085Y-85847095D01*
X141845737Y-85989440D01*
X142217703Y-85989440D01*
X142561355Y-85847095D01*
X142824375Y-85584075D01*
X142966720Y-85240423D01*
X142966720Y-84868457D01*
X142824375Y-84524805D01*
X142561355Y-84261785D01*
X142217703Y-84119440D01*
X141845737Y-84119440D01*
X141502085Y-84261785D01*
X141239065Y-84524805D01*
X141096720Y-84868457D01*
X115801770Y-84868457D01*
X115807029Y-83362800D01*
X116849908Y-83362800D01*
X116965161Y-83942218D01*
X117293375Y-84433425D01*
X117784582Y-84761639D01*
X118217744Y-84847800D01*
X118510256Y-84847800D01*
X118943418Y-84761639D01*
X119434625Y-84433425D01*
X119446816Y-84415181D01*
X119455843Y-84460565D01*
X119596191Y-84670609D01*
X119806235Y-84810957D01*
X120054000Y-84860240D01*
X121754000Y-84860240D01*
X122001765Y-84810957D01*
X122211809Y-84670609D01*
X122352157Y-84460565D01*
X122401440Y-84212800D01*
X122401440Y-82512800D01*
X122352157Y-82265035D01*
X122283189Y-82161817D01*
X145953567Y-82161817D01*
X145953567Y-82533783D01*
X146061553Y-82794484D01*
X145965627Y-83026069D01*
X145965627Y-83398035D01*
X146091937Y-83702976D01*
X145970102Y-83997113D01*
X145970102Y-84369079D01*
X146112447Y-84712731D01*
X146375467Y-84975751D01*
X146719119Y-85118096D01*
X147091085Y-85118096D01*
X147434737Y-84975751D01*
X147697757Y-84712731D01*
X147840102Y-84369079D01*
X147840102Y-83997113D01*
X147713792Y-83692172D01*
X147835627Y-83398035D01*
X147835627Y-83376855D01*
X148130114Y-83498835D01*
X148502080Y-83498835D01*
X148823897Y-83365535D01*
X149094720Y-83477713D01*
X149466686Y-83477713D01*
X149810338Y-83335368D01*
X149847677Y-83298029D01*
X149974836Y-83350700D01*
X150346802Y-83350700D01*
X150690454Y-83208355D01*
X150953474Y-82945335D01*
X151095819Y-82601683D01*
X151095819Y-82229717D01*
X151011689Y-82026610D01*
X151067621Y-81891577D01*
X153405560Y-81891577D01*
X153405560Y-82263543D01*
X153547905Y-82607195D01*
X153810925Y-82870215D01*
X154154577Y-83012560D01*
X154526543Y-83012560D01*
X154870195Y-82870215D01*
X155133215Y-82607195D01*
X155275560Y-82263543D01*
X155275560Y-81891577D01*
X155133215Y-81547925D01*
X154870195Y-81284905D01*
X154526543Y-81142560D01*
X154154577Y-81142560D01*
X153810925Y-81284905D01*
X153547905Y-81547925D01*
X153405560Y-81891577D01*
X151067621Y-81891577D01*
X151112756Y-81782613D01*
X151112756Y-81410647D01*
X150970411Y-81066995D01*
X150707391Y-80803975D01*
X150363739Y-80661630D01*
X149991773Y-80661630D01*
X149648121Y-80803975D01*
X149385101Y-81066995D01*
X149242756Y-81410647D01*
X149242756Y-81607713D01*
X149094720Y-81607713D01*
X148772903Y-81741013D01*
X148502080Y-81628835D01*
X148130114Y-81628835D01*
X147786462Y-81771180D01*
X147698284Y-81859358D01*
X147681222Y-81818165D01*
X147418202Y-81555145D01*
X147074550Y-81412800D01*
X146702584Y-81412800D01*
X146358932Y-81555145D01*
X146095912Y-81818165D01*
X145953567Y-82161817D01*
X122283189Y-82161817D01*
X122211809Y-82054991D01*
X122001765Y-81914643D01*
X121956381Y-81905616D01*
X121974625Y-81893425D01*
X122302839Y-81402218D01*
X122418092Y-80822800D01*
X122302839Y-80243382D01*
X122122642Y-79973697D01*
X137583720Y-79973697D01*
X137583720Y-80345663D01*
X137726065Y-80689315D01*
X137989085Y-80952335D01*
X138332737Y-81094680D01*
X138704703Y-81094680D01*
X139048355Y-80952335D01*
X139311375Y-80689315D01*
X139453720Y-80345663D01*
X139453720Y-79973697D01*
X139311375Y-79630045D01*
X139048355Y-79367025D01*
X138945659Y-79324487D01*
X155697457Y-79324487D01*
X155697457Y-79696453D01*
X155839802Y-80040105D01*
X156102822Y-80303125D01*
X156446474Y-80445470D01*
X156818440Y-80445470D01*
X157162092Y-80303125D01*
X157425112Y-80040105D01*
X157567457Y-79696453D01*
X157567457Y-79324487D01*
X157425112Y-78980835D01*
X157162092Y-78717815D01*
X156818440Y-78575470D01*
X156446474Y-78575470D01*
X156102822Y-78717815D01*
X155839802Y-78980835D01*
X155697457Y-79324487D01*
X138945659Y-79324487D01*
X138704703Y-79224680D01*
X138332737Y-79224680D01*
X137989085Y-79367025D01*
X137726065Y-79630045D01*
X137583720Y-79973697D01*
X122122642Y-79973697D01*
X121974625Y-79752175D01*
X121676239Y-79552800D01*
X121974625Y-79353425D01*
X122302839Y-78862218D01*
X122418092Y-78282800D01*
X122358143Y-77981410D01*
X158118755Y-77981410D01*
X158118755Y-78353376D01*
X158261100Y-78697028D01*
X158524120Y-78960048D01*
X158867772Y-79102393D01*
X159239738Y-79102393D01*
X159583390Y-78960048D01*
X159846410Y-78697028D01*
X159949146Y-78449000D01*
X160128651Y-78374647D01*
X160391671Y-78111627D01*
X160521029Y-77799330D01*
X160632427Y-77753187D01*
X160895447Y-77490167D01*
X161026251Y-77174378D01*
X161133835Y-77129815D01*
X161396855Y-76866795D01*
X161539200Y-76523143D01*
X161539200Y-76151177D01*
X161396855Y-75807525D01*
X161133835Y-75544505D01*
X160790183Y-75402160D01*
X160418217Y-75402160D01*
X160074565Y-75544505D01*
X159811545Y-75807525D01*
X159680741Y-76123314D01*
X159573157Y-76167877D01*
X159310137Y-76430897D01*
X159180779Y-76743194D01*
X159069381Y-76789337D01*
X158806361Y-77052357D01*
X158703625Y-77300385D01*
X158524120Y-77374738D01*
X158261100Y-77637758D01*
X158118755Y-77981410D01*
X122358143Y-77981410D01*
X122302839Y-77703382D01*
X121974625Y-77212175D01*
X121676239Y-77012800D01*
X121974625Y-76813425D01*
X122302839Y-76322218D01*
X122317662Y-76247697D01*
X132409920Y-76247697D01*
X132409920Y-76619663D01*
X132552265Y-76963315D01*
X132815285Y-77226335D01*
X133158937Y-77368680D01*
X133530903Y-77368680D01*
X133787135Y-77262545D01*
X134129217Y-77404240D01*
X134501183Y-77404240D01*
X134806372Y-77277827D01*
X135128175Y-77411122D01*
X135500141Y-77411122D01*
X135759454Y-77303711D01*
X135775406Y-77342224D01*
X136038426Y-77605244D01*
X136382078Y-77747589D01*
X136754044Y-77747589D01*
X137097696Y-77605244D01*
X137360716Y-77342224D01*
X137503061Y-76998572D01*
X137503061Y-76626606D01*
X137360716Y-76282954D01*
X137097696Y-76019934D01*
X136754044Y-75877589D01*
X136382078Y-75877589D01*
X136122765Y-75985000D01*
X136106813Y-75946487D01*
X135843793Y-75683467D01*
X135500141Y-75541122D01*
X135128175Y-75541122D01*
X134822986Y-75667535D01*
X134501183Y-75534240D01*
X134129217Y-75534240D01*
X133872985Y-75640375D01*
X133530903Y-75498680D01*
X133158937Y-75498680D01*
X132815285Y-75641025D01*
X132552265Y-75904045D01*
X132409920Y-76247697D01*
X122317662Y-76247697D01*
X122418092Y-75742800D01*
X122302839Y-75163382D01*
X121974625Y-74672175D01*
X121686801Y-74479857D01*
X140924000Y-74479857D01*
X140924000Y-74851823D01*
X141066345Y-75195475D01*
X141329365Y-75458495D01*
X141673017Y-75600840D01*
X142044983Y-75600840D01*
X142388635Y-75458495D01*
X142651655Y-75195475D01*
X142794000Y-74851823D01*
X142794000Y-74479857D01*
X142775850Y-74436040D01*
X142877323Y-74334567D01*
X143019668Y-73990915D01*
X143019668Y-73618949D01*
X142993338Y-73555381D01*
X143004052Y-73544667D01*
X143146397Y-73201015D01*
X143146397Y-73182760D01*
X143518183Y-73182760D01*
X143861835Y-73040415D01*
X144124855Y-72777395D01*
X144267200Y-72433743D01*
X144267200Y-72061777D01*
X144124855Y-71718125D01*
X143861835Y-71455105D01*
X143518183Y-71312760D01*
X143146217Y-71312760D01*
X142866508Y-71428619D01*
X142537743Y-71292440D01*
X142165777Y-71292440D01*
X141822125Y-71434785D01*
X141559105Y-71697805D01*
X141416760Y-72041457D01*
X141416760Y-72413423D01*
X141438421Y-72465718D01*
X141418742Y-72485397D01*
X141276397Y-72829049D01*
X141276397Y-73201015D01*
X141302727Y-73264583D01*
X141292013Y-73275297D01*
X141149668Y-73618949D01*
X141149668Y-73990915D01*
X141167818Y-74034732D01*
X141066345Y-74136205D01*
X140924000Y-74479857D01*
X121686801Y-74479857D01*
X121676239Y-74472800D01*
X121974625Y-74273425D01*
X122302839Y-73782218D01*
X122418092Y-73202800D01*
X122302839Y-72623382D01*
X121974625Y-72132175D01*
X121676239Y-71932800D01*
X121974625Y-71733425D01*
X122302839Y-71242218D01*
X122418092Y-70662800D01*
X122302839Y-70083382D01*
X122018204Y-69657395D01*
X142674529Y-69657395D01*
X142674529Y-70029361D01*
X142816874Y-70373013D01*
X143079894Y-70636033D01*
X143423546Y-70778378D01*
X143795512Y-70778378D01*
X144139164Y-70636033D01*
X144402184Y-70373013D01*
X144544529Y-70029361D01*
X144544529Y-69657395D01*
X144402184Y-69313743D01*
X144139164Y-69050723D01*
X143795512Y-68908378D01*
X143423546Y-68908378D01*
X143079894Y-69050723D01*
X142816874Y-69313743D01*
X142674529Y-69657395D01*
X122018204Y-69657395D01*
X121974625Y-69592175D01*
X121676239Y-69392800D01*
X121974625Y-69193425D01*
X122302839Y-68702218D01*
X122418092Y-68122800D01*
X122302839Y-67543382D01*
X121974625Y-67052175D01*
X121676239Y-66852800D01*
X121974625Y-66653425D01*
X122302839Y-66162218D01*
X122381321Y-65767657D01*
X147075880Y-65767657D01*
X147075880Y-66139623D01*
X147218225Y-66483275D01*
X147481245Y-66746295D01*
X147824897Y-66888640D01*
X148196863Y-66888640D01*
X148540515Y-66746295D01*
X148803535Y-66483275D01*
X148945880Y-66139623D01*
X148945880Y-65767877D01*
X148950836Y-65765824D01*
X151613666Y-65765824D01*
X151628555Y-65840676D01*
X151628554Y-68064285D01*
X151672650Y-68285970D01*
X151840625Y-68537363D01*
X152092017Y-68705338D01*
X152388554Y-68764323D01*
X152685090Y-68705338D01*
X152936483Y-68537363D01*
X153104458Y-68285971D01*
X153148554Y-68064286D01*
X153148554Y-67251017D01*
X161431960Y-67251017D01*
X161431960Y-67622983D01*
X161574305Y-67966635D01*
X161837325Y-68229655D01*
X162180977Y-68372000D01*
X162552943Y-68372000D01*
X162896595Y-68229655D01*
X163159615Y-67966635D01*
X163301960Y-67622983D01*
X163301960Y-67251017D01*
X163159615Y-66907365D01*
X162896595Y-66644345D01*
X162552943Y-66502000D01*
X162180977Y-66502000D01*
X161837325Y-66644345D01*
X161574305Y-66907365D01*
X161431960Y-67251017D01*
X153148554Y-67251017D01*
X153148554Y-66275152D01*
X153182187Y-66308785D01*
X153525839Y-66451130D01*
X153545576Y-66451130D01*
X153570235Y-66510662D01*
X153833255Y-66773682D01*
X154176907Y-66916027D01*
X154548873Y-66916027D01*
X154892525Y-66773682D01*
X155155545Y-66510662D01*
X155297890Y-66167010D01*
X155297890Y-65795044D01*
X155155545Y-65451392D01*
X154892525Y-65188372D01*
X154548873Y-65046027D01*
X154529136Y-65046027D01*
X154504477Y-64986495D01*
X154241457Y-64723475D01*
X153897805Y-64581130D01*
X153885175Y-64581130D01*
X153900372Y-64544440D01*
X153900372Y-64172474D01*
X153864345Y-64085496D01*
X164419598Y-64085496D01*
X164419598Y-64457462D01*
X164561943Y-64801114D01*
X164824963Y-65064134D01*
X165168615Y-65206479D01*
X165540581Y-65206479D01*
X165884233Y-65064134D01*
X166147253Y-64801114D01*
X166236495Y-64585664D01*
X166449089Y-64497605D01*
X166712109Y-64234585D01*
X166794211Y-64036373D01*
X167023938Y-63941217D01*
X167286958Y-63678197D01*
X167335632Y-63560686D01*
X167642321Y-63433652D01*
X167905341Y-63170632D01*
X167966200Y-63023704D01*
X168245429Y-62908044D01*
X168508449Y-62645024D01*
X168650794Y-62301372D01*
X168650794Y-61929406D01*
X168508449Y-61585754D01*
X168245429Y-61322734D01*
X167901777Y-61180389D01*
X167529811Y-61180389D01*
X167186159Y-61322734D01*
X166923139Y-61585754D01*
X166862280Y-61732682D01*
X166583051Y-61848342D01*
X166320031Y-62111362D01*
X166271357Y-62228873D01*
X165964668Y-62355907D01*
X165701648Y-62618927D01*
X165619546Y-62817139D01*
X165389819Y-62912295D01*
X165126799Y-63175315D01*
X165037557Y-63390765D01*
X164824963Y-63478824D01*
X164561943Y-63741844D01*
X164419598Y-64085496D01*
X153864345Y-64085496D01*
X153758027Y-63828822D01*
X153495007Y-63565802D01*
X153151355Y-63423457D01*
X152779389Y-63423457D01*
X152435737Y-63565802D01*
X152172717Y-63828822D01*
X152030372Y-64172474D01*
X152030372Y-64544440D01*
X152134469Y-64795753D01*
X152061515Y-64971880D01*
X152061515Y-65018062D01*
X151904082Y-65175495D01*
X151840626Y-65217895D01*
X151798226Y-65281351D01*
X151798225Y-65281352D01*
X151672651Y-65469287D01*
X151613666Y-65765824D01*
X148950836Y-65765824D01*
X148987555Y-65750615D01*
X149250575Y-65487595D01*
X149392920Y-65143943D01*
X149392920Y-64771977D01*
X149250575Y-64428325D01*
X148987555Y-64165305D01*
X148643903Y-64022960D01*
X148271937Y-64022960D01*
X147928285Y-64165305D01*
X147665265Y-64428325D01*
X147522920Y-64771977D01*
X147522920Y-65143723D01*
X147481245Y-65160985D01*
X147218225Y-65424005D01*
X147075880Y-65767657D01*
X122381321Y-65767657D01*
X122418092Y-65582800D01*
X122302839Y-65003382D01*
X121974625Y-64512175D01*
X121858071Y-64434296D01*
X122445639Y-64434296D01*
X122445639Y-64806262D01*
X122587984Y-65149914D01*
X122851004Y-65412934D01*
X123194656Y-65555279D01*
X123566622Y-65555279D01*
X123910274Y-65412934D01*
X124173294Y-65149914D01*
X124315639Y-64806262D01*
X124315639Y-64434296D01*
X124173294Y-64090644D01*
X123910274Y-63827624D01*
X123866024Y-63809295D01*
X127122393Y-63809295D01*
X127122393Y-64181261D01*
X127264738Y-64524913D01*
X127527758Y-64787933D01*
X127871410Y-64930278D01*
X128243376Y-64930278D01*
X128587028Y-64787933D01*
X128850048Y-64524913D01*
X128992393Y-64181261D01*
X128992393Y-63823201D01*
X143833359Y-63823201D01*
X143833359Y-64195167D01*
X143975704Y-64538819D01*
X144238724Y-64801839D01*
X144582376Y-64944184D01*
X144954342Y-64944184D01*
X145297994Y-64801839D01*
X145561014Y-64538819D01*
X145703359Y-64195167D01*
X145703359Y-63823201D01*
X145561014Y-63479549D01*
X145297994Y-63216529D01*
X144954342Y-63074184D01*
X144582376Y-63074184D01*
X144238724Y-63216529D01*
X143975704Y-63479549D01*
X143833359Y-63823201D01*
X128992393Y-63823201D01*
X128992393Y-63809295D01*
X128850048Y-63465643D01*
X128587028Y-63202623D01*
X128243376Y-63060278D01*
X127871410Y-63060278D01*
X127527758Y-63202623D01*
X127264738Y-63465643D01*
X127122393Y-63809295D01*
X123866024Y-63809295D01*
X123566622Y-63685279D01*
X123194656Y-63685279D01*
X122851004Y-63827624D01*
X122587984Y-64090644D01*
X122445639Y-64434296D01*
X121858071Y-64434296D01*
X121676239Y-64312800D01*
X121974625Y-64113425D01*
X122302839Y-63622218D01*
X122418092Y-63042800D01*
X122302839Y-62463382D01*
X121974625Y-61972175D01*
X121676239Y-61772800D01*
X121974625Y-61573425D01*
X122302839Y-61082218D01*
X122317310Y-61009465D01*
X161298326Y-61009465D01*
X161298326Y-61381431D01*
X161440671Y-61725083D01*
X161703691Y-61988103D01*
X162047343Y-62130448D01*
X162419309Y-62130448D01*
X162762961Y-61988103D01*
X163025981Y-61725083D01*
X163135575Y-61460499D01*
X163297904Y-61393260D01*
X163560924Y-61130240D01*
X163665470Y-60877842D01*
X163840465Y-60805357D01*
X164103485Y-60542337D01*
X164219537Y-60262162D01*
X164365463Y-60201718D01*
X164628483Y-59938698D01*
X164770828Y-59595046D01*
X164770828Y-59395822D01*
X164973175Y-59193475D01*
X165115520Y-58849823D01*
X165115520Y-58477857D01*
X164973175Y-58134205D01*
X164710155Y-57871185D01*
X164366503Y-57728840D01*
X163994537Y-57728840D01*
X163650885Y-57871185D01*
X163387865Y-58134205D01*
X163245520Y-58477857D01*
X163245520Y-58677081D01*
X163043173Y-58879428D01*
X162927121Y-59159603D01*
X162781195Y-59220047D01*
X162518175Y-59483067D01*
X162413629Y-59735465D01*
X162238634Y-59807950D01*
X161975614Y-60070970D01*
X161866020Y-60335554D01*
X161703691Y-60402793D01*
X161440671Y-60665813D01*
X161298326Y-61009465D01*
X122317310Y-61009465D01*
X122418092Y-60502800D01*
X122302839Y-59923382D01*
X121974625Y-59432175D01*
X121483418Y-59103961D01*
X121050256Y-59017800D01*
X120757744Y-59017800D01*
X120324582Y-59103961D01*
X119833375Y-59432175D01*
X119632647Y-59732586D01*
X119245358Y-59307617D01*
X118720892Y-59061314D01*
X118491000Y-59181981D01*
X118491000Y-60375800D01*
X118511000Y-60375800D01*
X118511000Y-60629800D01*
X118491000Y-60629800D01*
X118491000Y-62915800D01*
X118511000Y-62915800D01*
X118511000Y-63169800D01*
X118491000Y-63169800D01*
X118491000Y-65455800D01*
X118511000Y-65455800D01*
X118511000Y-65709800D01*
X118491000Y-65709800D01*
X118491000Y-67995800D01*
X118511000Y-67995800D01*
X118511000Y-68249800D01*
X118491000Y-68249800D01*
X118491000Y-70535800D01*
X118511000Y-70535800D01*
X118511000Y-70789800D01*
X118491000Y-70789800D01*
X118491000Y-73075800D01*
X118511000Y-73075800D01*
X118511000Y-73329800D01*
X118491000Y-73329800D01*
X118491000Y-75615800D01*
X118511000Y-75615800D01*
X118511000Y-75869800D01*
X118491000Y-75869800D01*
X118491000Y-78155800D01*
X118511000Y-78155800D01*
X118511000Y-78409800D01*
X118491000Y-78409800D01*
X118491000Y-80695800D01*
X118511000Y-80695800D01*
X118511000Y-80949800D01*
X118491000Y-80949800D01*
X118491000Y-80969800D01*
X118237000Y-80969800D01*
X118237000Y-80949800D01*
X117043845Y-80949800D01*
X116922524Y-81179690D01*
X117092355Y-81589724D01*
X117482642Y-82017983D01*
X117612478Y-82078957D01*
X117293375Y-82292175D01*
X116965161Y-82783382D01*
X116849908Y-83362800D01*
X115807029Y-83362800D01*
X115823522Y-78639690D01*
X116922524Y-78639690D01*
X117092355Y-79049724D01*
X117482642Y-79477983D01*
X117641954Y-79552800D01*
X117482642Y-79627617D01*
X117092355Y-80055876D01*
X116922524Y-80465910D01*
X117043845Y-80695800D01*
X118237000Y-80695800D01*
X118237000Y-78409800D01*
X117043845Y-78409800D01*
X116922524Y-78639690D01*
X115823522Y-78639690D01*
X115832391Y-76099690D01*
X116922524Y-76099690D01*
X117092355Y-76509724D01*
X117482642Y-76937983D01*
X117641954Y-77012800D01*
X117482642Y-77087617D01*
X117092355Y-77515876D01*
X116922524Y-77925910D01*
X117043845Y-78155800D01*
X118237000Y-78155800D01*
X118237000Y-75869800D01*
X117043845Y-75869800D01*
X116922524Y-76099690D01*
X115832391Y-76099690D01*
X115841261Y-73559690D01*
X116922524Y-73559690D01*
X117092355Y-73969724D01*
X117482642Y-74397983D01*
X117641954Y-74472800D01*
X117482642Y-74547617D01*
X117092355Y-74975876D01*
X116922524Y-75385910D01*
X117043845Y-75615800D01*
X118237000Y-75615800D01*
X118237000Y-73329800D01*
X117043845Y-73329800D01*
X116922524Y-73559690D01*
X115841261Y-73559690D01*
X115850131Y-71019690D01*
X116922524Y-71019690D01*
X117092355Y-71429724D01*
X117482642Y-71857983D01*
X117641954Y-71932800D01*
X117482642Y-72007617D01*
X117092355Y-72435876D01*
X116922524Y-72845910D01*
X117043845Y-73075800D01*
X118237000Y-73075800D01*
X118237000Y-70789800D01*
X117043845Y-70789800D01*
X116922524Y-71019690D01*
X115850131Y-71019690D01*
X115859001Y-68479690D01*
X116922524Y-68479690D01*
X117092355Y-68889724D01*
X117482642Y-69317983D01*
X117641954Y-69392800D01*
X117482642Y-69467617D01*
X117092355Y-69895876D01*
X116922524Y-70305910D01*
X117043845Y-70535800D01*
X118237000Y-70535800D01*
X118237000Y-68249800D01*
X117043845Y-68249800D01*
X116922524Y-68479690D01*
X115859001Y-68479690D01*
X115867871Y-65939690D01*
X116922524Y-65939690D01*
X117092355Y-66349724D01*
X117482642Y-66777983D01*
X117641954Y-66852800D01*
X117482642Y-66927617D01*
X117092355Y-67355876D01*
X116922524Y-67765910D01*
X117043845Y-67995800D01*
X118237000Y-67995800D01*
X118237000Y-65709800D01*
X117043845Y-65709800D01*
X116922524Y-65939690D01*
X115867871Y-65939690D01*
X115876741Y-63399690D01*
X116922524Y-63399690D01*
X117092355Y-63809724D01*
X117482642Y-64237983D01*
X117641954Y-64312800D01*
X117482642Y-64387617D01*
X117092355Y-64815876D01*
X116922524Y-65225910D01*
X117043845Y-65455800D01*
X118237000Y-65455800D01*
X118237000Y-63169800D01*
X117043845Y-63169800D01*
X116922524Y-63399690D01*
X115876741Y-63399690D01*
X115885611Y-60859690D01*
X116922524Y-60859690D01*
X117092355Y-61269724D01*
X117482642Y-61697983D01*
X117641954Y-61772800D01*
X117482642Y-61847617D01*
X117092355Y-62275876D01*
X116922524Y-62685910D01*
X117043845Y-62915800D01*
X118237000Y-62915800D01*
X118237000Y-60629800D01*
X117043845Y-60629800D01*
X116922524Y-60859690D01*
X115885611Y-60859690D01*
X115888103Y-60145910D01*
X116922524Y-60145910D01*
X117043845Y-60375800D01*
X118237000Y-60375800D01*
X118237000Y-59181981D01*
X118007108Y-59061314D01*
X117482642Y-59307617D01*
X117092355Y-59735876D01*
X116922524Y-60145910D01*
X115888103Y-60145910D01*
X115895790Y-57944457D01*
X155468040Y-57944457D01*
X155468040Y-58316423D01*
X155610385Y-58660075D01*
X155873405Y-58923095D01*
X156217057Y-59065440D01*
X156589023Y-59065440D01*
X156932675Y-58923095D01*
X157032473Y-58823297D01*
X157235880Y-58823297D01*
X157235880Y-59195263D01*
X157378225Y-59538915D01*
X157641245Y-59801935D01*
X157984897Y-59944280D01*
X158356863Y-59944280D01*
X158700515Y-59801935D01*
X158963535Y-59538915D01*
X159105880Y-59195263D01*
X159105880Y-58823297D01*
X158963535Y-58479645D01*
X158700515Y-58216625D01*
X158356863Y-58074280D01*
X157984897Y-58074280D01*
X157641245Y-58216625D01*
X157378225Y-58479645D01*
X157235880Y-58823297D01*
X157032473Y-58823297D01*
X157195695Y-58660075D01*
X157338040Y-58316423D01*
X157338040Y-57944457D01*
X157195695Y-57600805D01*
X156932675Y-57337785D01*
X156589023Y-57195440D01*
X156217057Y-57195440D01*
X155873405Y-57337785D01*
X155610385Y-57600805D01*
X155468040Y-57944457D01*
X115895790Y-57944457D01*
X115916158Y-52111890D01*
X143977080Y-52111890D01*
X143977080Y-52483856D01*
X144119425Y-52827508D01*
X144382445Y-53090528D01*
X144726097Y-53232873D01*
X145098063Y-53232873D01*
X145441715Y-53090528D01*
X145704735Y-52827508D01*
X145847080Y-52483856D01*
X145847080Y-52111890D01*
X146512000Y-52111890D01*
X146512000Y-52483856D01*
X146654345Y-52827508D01*
X146917365Y-53090528D01*
X147261017Y-53232873D01*
X147632983Y-53232873D01*
X147976635Y-53090528D01*
X148239655Y-52827508D01*
X148382000Y-52483856D01*
X148382000Y-52111890D01*
X148274169Y-51851560D01*
X172216828Y-51851560D01*
X172332081Y-52430978D01*
X172660295Y-52922185D01*
X172958681Y-53121560D01*
X172660295Y-53320935D01*
X172332081Y-53812142D01*
X172216828Y-54391560D01*
X172332081Y-54970978D01*
X172660295Y-55462185D01*
X172958681Y-55661560D01*
X172660295Y-55860935D01*
X172332081Y-56352142D01*
X172216828Y-56931560D01*
X172332081Y-57510978D01*
X172660295Y-58002185D01*
X172958681Y-58201560D01*
X172660295Y-58400935D01*
X172332081Y-58892142D01*
X172216828Y-59471560D01*
X172332081Y-60050978D01*
X172660295Y-60542185D01*
X172958681Y-60741560D01*
X172660295Y-60940935D01*
X172332081Y-61432142D01*
X172216828Y-62011560D01*
X172332081Y-62590978D01*
X172660295Y-63082185D01*
X172958681Y-63281560D01*
X172660295Y-63480935D01*
X172332081Y-63972142D01*
X172216828Y-64551560D01*
X172332081Y-65130978D01*
X172660295Y-65622185D01*
X172958681Y-65821560D01*
X172660295Y-66020935D01*
X172332081Y-66512142D01*
X172216828Y-67091560D01*
X172332081Y-67670978D01*
X172660295Y-68162185D01*
X172958681Y-68361560D01*
X172660295Y-68560935D01*
X172332081Y-69052142D01*
X172216828Y-69631560D01*
X172332081Y-70210978D01*
X172660295Y-70702185D01*
X172958681Y-70901560D01*
X172660295Y-71100935D01*
X172332081Y-71592142D01*
X172216828Y-72171560D01*
X172332081Y-72750978D01*
X172660295Y-73242185D01*
X172958681Y-73441560D01*
X172660295Y-73640935D01*
X172332081Y-74132142D01*
X172216828Y-74711560D01*
X172332081Y-75290978D01*
X172660295Y-75782185D01*
X172958681Y-75981560D01*
X172660295Y-76180935D01*
X172332081Y-76672142D01*
X172216828Y-77251560D01*
X172332081Y-77830978D01*
X172660295Y-78322185D01*
X172958681Y-78521560D01*
X172660295Y-78720935D01*
X172332081Y-79212142D01*
X172216828Y-79791560D01*
X172332081Y-80370978D01*
X172660295Y-80862185D01*
X172958681Y-81061560D01*
X172660295Y-81260935D01*
X172332081Y-81752142D01*
X172216828Y-82331560D01*
X172332081Y-82910978D01*
X172660295Y-83402185D01*
X172958681Y-83601560D01*
X172660295Y-83800935D01*
X172332081Y-84292142D01*
X172216828Y-84871560D01*
X172332081Y-85450978D01*
X172660295Y-85942185D01*
X172958681Y-86141560D01*
X172660295Y-86340935D01*
X172332081Y-86832142D01*
X172216828Y-87411560D01*
X172332081Y-87990978D01*
X172660295Y-88482185D01*
X172678539Y-88494376D01*
X172633155Y-88503403D01*
X172423111Y-88643751D01*
X172282763Y-88853795D01*
X172233480Y-89101560D01*
X172233480Y-90801560D01*
X172282763Y-91049325D01*
X172423111Y-91259369D01*
X172633155Y-91399717D01*
X172880920Y-91449000D01*
X174580920Y-91449000D01*
X174828685Y-91399717D01*
X175038729Y-91259369D01*
X175179077Y-91049325D01*
X175228360Y-90801560D01*
X175228360Y-89101560D01*
X175179077Y-88853795D01*
X175038729Y-88643751D01*
X174828685Y-88503403D01*
X174783301Y-88494376D01*
X174801545Y-88482185D01*
X175129759Y-87990978D01*
X175245012Y-87411560D01*
X175129759Y-86832142D01*
X174801545Y-86340935D01*
X174503159Y-86141560D01*
X174801545Y-85942185D01*
X175129759Y-85450978D01*
X175245012Y-84871560D01*
X175129759Y-84292142D01*
X174801545Y-83800935D01*
X174503159Y-83601560D01*
X174801545Y-83402185D01*
X175129759Y-82910978D01*
X175245012Y-82331560D01*
X175129759Y-81752142D01*
X174801545Y-81260935D01*
X174503159Y-81061560D01*
X174801545Y-80862185D01*
X175129759Y-80370978D01*
X175245012Y-79791560D01*
X175129759Y-79212142D01*
X174801545Y-78720935D01*
X174503159Y-78521560D01*
X174801545Y-78322185D01*
X175129759Y-77830978D01*
X175245012Y-77251560D01*
X175129759Y-76672142D01*
X174801545Y-76180935D01*
X174503159Y-75981560D01*
X174801545Y-75782185D01*
X175129759Y-75290978D01*
X175245012Y-74711560D01*
X175129759Y-74132142D01*
X174801545Y-73640935D01*
X174503159Y-73441560D01*
X174801545Y-73242185D01*
X175129759Y-72750978D01*
X175245012Y-72171560D01*
X175129759Y-71592142D01*
X174801545Y-71100935D01*
X174503159Y-70901560D01*
X174801545Y-70702185D01*
X175129759Y-70210978D01*
X175245012Y-69631560D01*
X175129759Y-69052142D01*
X174801545Y-68560935D01*
X174503159Y-68361560D01*
X174801545Y-68162185D01*
X175129759Y-67670978D01*
X175245012Y-67091560D01*
X175129759Y-66512142D01*
X174801545Y-66020935D01*
X174503159Y-65821560D01*
X174801545Y-65622185D01*
X175129759Y-65130978D01*
X175245012Y-64551560D01*
X175129759Y-63972142D01*
X174801545Y-63480935D01*
X174503159Y-63281560D01*
X174801545Y-63082185D01*
X175129759Y-62590978D01*
X175245012Y-62011560D01*
X175129759Y-61432142D01*
X174801545Y-60940935D01*
X174503159Y-60741560D01*
X174801545Y-60542185D01*
X175129759Y-60050978D01*
X175245012Y-59471560D01*
X175129759Y-58892142D01*
X174801545Y-58400935D01*
X174503159Y-58201560D01*
X174801545Y-58002185D01*
X175129759Y-57510978D01*
X175245012Y-56931560D01*
X175129759Y-56352142D01*
X174801545Y-55860935D01*
X174503159Y-55661560D01*
X174801545Y-55462185D01*
X175129759Y-54970978D01*
X175245012Y-54391560D01*
X175129759Y-53812142D01*
X174801545Y-53320935D01*
X174503159Y-53121560D01*
X174801545Y-52922185D01*
X175129759Y-52430978D01*
X175245012Y-51851560D01*
X175129759Y-51272142D01*
X174801545Y-50780935D01*
X174310338Y-50452721D01*
X173877176Y-50366560D01*
X173584664Y-50366560D01*
X173151502Y-50452721D01*
X172660295Y-50780935D01*
X172332081Y-51272142D01*
X172216828Y-51851560D01*
X148274169Y-51851560D01*
X148239655Y-51768238D01*
X147976635Y-51505218D01*
X147632983Y-51362873D01*
X147261017Y-51362873D01*
X146917365Y-51505218D01*
X146654345Y-51768238D01*
X146512000Y-52111890D01*
X145847080Y-52111890D01*
X145704735Y-51768238D01*
X145441715Y-51505218D01*
X145098063Y-51362873D01*
X144726097Y-51362873D01*
X144382445Y-51505218D01*
X144119425Y-51768238D01*
X143977080Y-52111890D01*
X115916158Y-52111890D01*
X115929539Y-48280320D01*
X128132588Y-48280320D01*
X128247841Y-48859738D01*
X128576055Y-49350945D01*
X129067262Y-49679159D01*
X129500424Y-49765320D01*
X129792936Y-49765320D01*
X130226098Y-49679159D01*
X130717305Y-49350945D01*
X130916680Y-49052559D01*
X131116055Y-49350945D01*
X131607262Y-49679159D01*
X132040424Y-49765320D01*
X132332936Y-49765320D01*
X132766098Y-49679159D01*
X133257305Y-49350945D01*
X133456680Y-49052559D01*
X133656055Y-49350945D01*
X134147262Y-49679159D01*
X134580424Y-49765320D01*
X134872936Y-49765320D01*
X135306098Y-49679159D01*
X135797305Y-49350945D01*
X135996680Y-49052559D01*
X136196055Y-49350945D01*
X136687262Y-49679159D01*
X137120424Y-49765320D01*
X137412936Y-49765320D01*
X137846098Y-49679159D01*
X138337305Y-49350945D01*
X138536680Y-49052559D01*
X138736055Y-49350945D01*
X139227262Y-49679159D01*
X139660424Y-49765320D01*
X139952936Y-49765320D01*
X140386098Y-49679159D01*
X140877305Y-49350945D01*
X141076680Y-49052559D01*
X141276055Y-49350945D01*
X141767262Y-49679159D01*
X142200424Y-49765320D01*
X142492936Y-49765320D01*
X142926098Y-49679159D01*
X143417305Y-49350945D01*
X143616680Y-49052559D01*
X143816055Y-49350945D01*
X144307262Y-49679159D01*
X144740424Y-49765320D01*
X145032936Y-49765320D01*
X145466098Y-49679159D01*
X145957305Y-49350945D01*
X146156680Y-49052559D01*
X146356055Y-49350945D01*
X146847262Y-49679159D01*
X147280424Y-49765320D01*
X147572936Y-49765320D01*
X148006098Y-49679159D01*
X148497305Y-49350945D01*
X148696680Y-49052559D01*
X148896055Y-49350945D01*
X149387262Y-49679159D01*
X149820424Y-49765320D01*
X150112936Y-49765320D01*
X150546098Y-49679159D01*
X151037305Y-49350945D01*
X151236680Y-49052559D01*
X151436055Y-49350945D01*
X151927262Y-49679159D01*
X152360424Y-49765320D01*
X152652936Y-49765320D01*
X153086098Y-49679159D01*
X153577305Y-49350945D01*
X153776680Y-49052559D01*
X153976055Y-49350945D01*
X154467262Y-49679159D01*
X154900424Y-49765320D01*
X155192936Y-49765320D01*
X155626098Y-49679159D01*
X156117305Y-49350945D01*
X156316680Y-49052559D01*
X156516055Y-49350945D01*
X157007262Y-49679159D01*
X157440424Y-49765320D01*
X157732936Y-49765320D01*
X158166098Y-49679159D01*
X158657305Y-49350945D01*
X158856680Y-49052559D01*
X159056055Y-49350945D01*
X159547262Y-49679159D01*
X159980424Y-49765320D01*
X160272936Y-49765320D01*
X160706098Y-49679159D01*
X161197305Y-49350945D01*
X161396680Y-49052559D01*
X161596055Y-49350945D01*
X162087262Y-49679159D01*
X162520424Y-49765320D01*
X162812936Y-49765320D01*
X163246098Y-49679159D01*
X163737305Y-49350945D01*
X163936680Y-49052559D01*
X164136055Y-49350945D01*
X164627262Y-49679159D01*
X165060424Y-49765320D01*
X165352936Y-49765320D01*
X165786098Y-49679159D01*
X166277305Y-49350945D01*
X166289496Y-49332701D01*
X166298523Y-49378085D01*
X166438871Y-49588129D01*
X166648915Y-49728477D01*
X166896680Y-49777760D01*
X168596680Y-49777760D01*
X168844445Y-49728477D01*
X169054489Y-49588129D01*
X169194837Y-49378085D01*
X169244120Y-49130320D01*
X169244120Y-47430320D01*
X169194837Y-47182555D01*
X169054489Y-46972511D01*
X168844445Y-46832163D01*
X168596680Y-46782880D01*
X166896680Y-46782880D01*
X166648915Y-46832163D01*
X166438871Y-46972511D01*
X166298523Y-47182555D01*
X166289496Y-47227939D01*
X166277305Y-47209695D01*
X165786098Y-46881481D01*
X165352936Y-46795320D01*
X165060424Y-46795320D01*
X164627262Y-46881481D01*
X164136055Y-47209695D01*
X163936680Y-47508081D01*
X163737305Y-47209695D01*
X163246098Y-46881481D01*
X162812936Y-46795320D01*
X162520424Y-46795320D01*
X162087262Y-46881481D01*
X161596055Y-47209695D01*
X161396680Y-47508081D01*
X161197305Y-47209695D01*
X160706098Y-46881481D01*
X160272936Y-46795320D01*
X159980424Y-46795320D01*
X159547262Y-46881481D01*
X159056055Y-47209695D01*
X158856680Y-47508081D01*
X158657305Y-47209695D01*
X158166098Y-46881481D01*
X157732936Y-46795320D01*
X157440424Y-46795320D01*
X157007262Y-46881481D01*
X156516055Y-47209695D01*
X156316680Y-47508081D01*
X156117305Y-47209695D01*
X155626098Y-46881481D01*
X155192936Y-46795320D01*
X154900424Y-46795320D01*
X154467262Y-46881481D01*
X153976055Y-47209695D01*
X153776680Y-47508081D01*
X153577305Y-47209695D01*
X153086098Y-46881481D01*
X152652936Y-46795320D01*
X152360424Y-46795320D01*
X151927262Y-46881481D01*
X151436055Y-47209695D01*
X151236680Y-47508081D01*
X151037305Y-47209695D01*
X150546098Y-46881481D01*
X150112936Y-46795320D01*
X149820424Y-46795320D01*
X149387262Y-46881481D01*
X148896055Y-47209695D01*
X148696680Y-47508081D01*
X148497305Y-47209695D01*
X148006098Y-46881481D01*
X147572936Y-46795320D01*
X147280424Y-46795320D01*
X146847262Y-46881481D01*
X146356055Y-47209695D01*
X146156680Y-47508081D01*
X145957305Y-47209695D01*
X145466098Y-46881481D01*
X145032936Y-46795320D01*
X144740424Y-46795320D01*
X144307262Y-46881481D01*
X143816055Y-47209695D01*
X143616680Y-47508081D01*
X143417305Y-47209695D01*
X142926098Y-46881481D01*
X142492936Y-46795320D01*
X142200424Y-46795320D01*
X141767262Y-46881481D01*
X141276055Y-47209695D01*
X141076680Y-47508081D01*
X140877305Y-47209695D01*
X140386098Y-46881481D01*
X139952936Y-46795320D01*
X139660424Y-46795320D01*
X139227262Y-46881481D01*
X138736055Y-47209695D01*
X138536680Y-47508081D01*
X138337305Y-47209695D01*
X137846098Y-46881481D01*
X137412936Y-46795320D01*
X137120424Y-46795320D01*
X136687262Y-46881481D01*
X136196055Y-47209695D01*
X135996680Y-47508081D01*
X135797305Y-47209695D01*
X135306098Y-46881481D01*
X134872936Y-46795320D01*
X134580424Y-46795320D01*
X134147262Y-46881481D01*
X133656055Y-47209695D01*
X133456680Y-47508081D01*
X133257305Y-47209695D01*
X132766098Y-46881481D01*
X132332936Y-46795320D01*
X132040424Y-46795320D01*
X131607262Y-46881481D01*
X131116055Y-47209695D01*
X130916680Y-47508081D01*
X130717305Y-47209695D01*
X130226098Y-46881481D01*
X129792936Y-46795320D01*
X129500424Y-46795320D01*
X129067262Y-46881481D01*
X128576055Y-47209695D01*
X128247841Y-47700902D01*
X128132588Y-48280320D01*
X115929539Y-48280320D01*
X115940396Y-45171614D01*
X176362360Y-45287956D01*
G04 #@! TD*
M02*
