G04 #@! TF.GenerationSoftware,KiCad,Pcbnew,5.0.1-33cea8e~68~ubuntu16.04.1*
G04 #@! TF.CreationDate,2018-10-22T20:59:01-07:00*
G04 #@! TF.ProjectId,integrated-board,696E74656772617465642D626F617264,rev?*
G04 #@! TF.SameCoordinates,Original*
G04 #@! TF.FileFunction,Other,Fab,Top*
%FSLAX46Y46*%
G04 Gerber Fmt 4.6, Leading zero omitted, Abs format (unit mm)*
G04 Created by KiCad (PCBNEW 5.0.1-33cea8e~68~ubuntu16.04.1) date Mon 22 Oct 2018 08:59:01 PM PDT*
%MOMM*%
%LPD*%
G01*
G04 APERTURE LIST*
%ADD10C,0.100000*%
%ADD11C,0.203200*%
%ADD12C,0.127000*%
%ADD13C,0.076200*%
%ADD14C,0.101600*%
%ADD15C,0.150000*%
%ADD16C,0.075000*%
%ADD17C,0.062500*%
%ADD18C,0.040000*%
%ADD19C,0.077216*%
%ADD20C,0.020320*%
%ADD21C,0.061772*%
%ADD22C,0.096520*%
G04 APERTURE END LIST*
D10*
G04 #@! TO.C,J2*
X82030440Y-68116760D02*
X81530440Y-67616760D01*
X82480440Y-68116760D02*
X82030440Y-68116760D01*
X82030440Y-77266760D02*
X82030440Y-76266760D01*
X81530440Y-63416760D02*
X81530440Y-67616760D01*
X80030440Y-75766760D02*
G75*
G03X80530440Y-76266760I500000J0D01*
G01*
X80530440Y-65266760D02*
G75*
G03X80030440Y-65766760I0J-500000D01*
G01*
X80030440Y-65766760D02*
X80030440Y-75766760D01*
X82480440Y-68116760D02*
X82480440Y-76266760D01*
X81530440Y-63416760D02*
X97580440Y-63416760D01*
X82030440Y-77266760D02*
X97580440Y-77266760D01*
X97580440Y-63416760D02*
X97580440Y-77266760D01*
X76030440Y-65766760D02*
X76030440Y-75766760D01*
X76030440Y-75766760D02*
G75*
G03X76530440Y-76266760I500000J0D01*
G01*
X76530440Y-65266760D02*
G75*
G03X76030440Y-65766760I0J-500000D01*
G01*
X76530440Y-76266760D02*
X82480440Y-76266760D01*
X81530440Y-65266760D02*
X76530440Y-65266760D01*
G04 #@! TO.C,0k1*
X140423800Y-70125640D02*
X140423800Y-70925640D01*
X138823800Y-70125640D02*
X140423800Y-70125640D01*
X138823800Y-70925640D02*
X138823800Y-70125640D01*
X140423800Y-70925640D02*
X138823800Y-70925640D01*
G04 #@! TO.C,0k2*
X140433960Y-71553120D02*
X140433960Y-72353120D01*
X138833960Y-71553120D02*
X140433960Y-71553120D01*
X138833960Y-72353120D02*
X138833960Y-71553120D01*
X140433960Y-72353120D02*
X138833960Y-72353120D01*
G04 #@! TO.C,1uF1*
X138798400Y-77859840D02*
X138798400Y-77059840D01*
X140398400Y-77859840D02*
X138798400Y-77859840D01*
X140398400Y-77059840D02*
X140398400Y-77859840D01*
X138798400Y-77059840D02*
X140398400Y-77059840D01*
G04 #@! TO.C,1uF2*
X146904760Y-61699240D02*
X147704760Y-61699240D01*
X146904760Y-63299240D02*
X146904760Y-61699240D01*
X147704760Y-63299240D02*
X146904760Y-63299240D01*
X147704760Y-61699240D02*
X147704760Y-63299240D01*
G04 #@! TO.C,1uF3*
X148736000Y-85620800D02*
X147936000Y-85620800D01*
X148736000Y-84020800D02*
X148736000Y-85620800D01*
X147936000Y-84020800D02*
X148736000Y-84020800D01*
X147936000Y-85620800D02*
X147936000Y-84020800D01*
G04 #@! TO.C,1uF4*
X156477920Y-85803640D02*
X155677920Y-85803640D01*
X156477920Y-84203640D02*
X156477920Y-85803640D01*
X155677920Y-84203640D02*
X156477920Y-84203640D01*
X155677920Y-85803640D02*
X155677920Y-84203640D01*
G04 #@! TO.C,1uF5*
X164106760Y-68317160D02*
X164106760Y-69117160D01*
X162506760Y-68317160D02*
X164106760Y-68317160D01*
X162506760Y-69117160D02*
X162506760Y-68317160D01*
X164106760Y-69117160D02*
X162506760Y-69117160D01*
G04 #@! TO.C,4.7uF1*
X154740560Y-85808760D02*
X153940560Y-85808760D01*
X154740560Y-84208760D02*
X154740560Y-85808760D01*
X153940560Y-84208760D02*
X154740560Y-84208760D01*
X153940560Y-85808760D02*
X153940560Y-84208760D01*
G04 #@! TO.C,10k1*
X134185560Y-61616640D02*
X134185560Y-62416640D01*
X132585560Y-61616640D02*
X134185560Y-61616640D01*
X132585560Y-62416640D02*
X132585560Y-61616640D01*
X134185560Y-62416640D02*
X132585560Y-62416640D01*
G04 #@! TO.C,10k2*
X134185560Y-58715960D02*
X134185560Y-59515960D01*
X132585560Y-58715960D02*
X134185560Y-58715960D01*
X132585560Y-59515960D02*
X132585560Y-58715960D01*
X134185560Y-59515960D02*
X132585560Y-59515960D01*
G04 #@! TO.C,10k3*
X134185560Y-60158680D02*
X134185560Y-60958680D01*
X132585560Y-60158680D02*
X134185560Y-60158680D01*
X132585560Y-60958680D02*
X132585560Y-60158680D01*
X134185560Y-60958680D02*
X132585560Y-60958680D01*
G04 #@! TO.C,10k4*
X149122080Y-63149200D02*
X148322080Y-63149200D01*
X149122080Y-61549200D02*
X149122080Y-63149200D01*
X148322080Y-61549200D02*
X149122080Y-61549200D01*
X148322080Y-63149200D02*
X148322080Y-61549200D01*
G04 #@! TO.C,10nF1*
X138800940Y-76516180D02*
X138800940Y-75716180D01*
X140400940Y-76516180D02*
X138800940Y-76516180D01*
X140400940Y-75716180D02*
X140400940Y-76516180D01*
X138800940Y-75716180D02*
X140400940Y-75716180D01*
G04 #@! TO.C,22uH1*
X140418720Y-78558440D02*
X140418720Y-79358440D01*
X138818720Y-78558440D02*
X140418720Y-78558440D01*
X138818720Y-79358440D02*
X138818720Y-78558440D01*
X140418720Y-79358440D02*
X138818720Y-79358440D01*
G04 #@! TO.C,100nF1*
X120627000Y-55464760D02*
X120627000Y-56264760D01*
X119027000Y-55464760D02*
X120627000Y-55464760D01*
X119027000Y-56264760D02*
X119027000Y-55464760D01*
X120627000Y-56264760D02*
X119027000Y-56264760D01*
G04 #@! TO.C,100nF2*
X145548400Y-61699240D02*
X146348400Y-61699240D01*
X145548400Y-63299240D02*
X145548400Y-61699240D01*
X146348400Y-63299240D02*
X145548400Y-63299240D01*
X146348400Y-61699240D02*
X146348400Y-63299240D01*
G04 #@! TO.C,100nF3*
X150087280Y-85620800D02*
X149287280Y-85620800D01*
X150087280Y-84020800D02*
X150087280Y-85620800D01*
X149287280Y-84020800D02*
X150087280Y-84020800D01*
X149287280Y-85620800D02*
X149287280Y-84020800D01*
G04 #@! TO.C,100nF4*
X157803800Y-85803600D02*
X157003800Y-85803600D01*
X157803800Y-84203600D02*
X157803800Y-85803600D01*
X157003800Y-84203600D02*
X157803800Y-84203600D01*
X157003800Y-85803600D02*
X157003800Y-84203600D01*
G04 #@! TO.C,100nF5*
X164101680Y-69678600D02*
X164101680Y-70478600D01*
X162501680Y-69678600D02*
X164101680Y-69678600D01*
X162501680Y-70478600D02*
X162501680Y-69678600D01*
X164101680Y-70478600D02*
X162501680Y-70478600D01*
G04 #@! TO.C,C1*
X136563000Y-66838880D02*
X136563000Y-67638880D01*
X134963000Y-66838880D02*
X136563000Y-66838880D01*
X134963000Y-67638880D02*
X134963000Y-66838880D01*
X136563000Y-67638880D02*
X134963000Y-67638880D01*
G04 #@! TO.C,C2*
X136557920Y-74911000D02*
X136557920Y-75711000D01*
X134957920Y-74911000D02*
X136557920Y-74911000D01*
X134957920Y-75711000D02*
X134957920Y-74911000D01*
X136557920Y-75711000D02*
X134957920Y-75711000D01*
G04 #@! TO.C,J1*
X120904000Y-84632800D02*
X117094000Y-84632800D01*
X117094000Y-84632800D02*
X117094000Y-59232800D01*
X117094000Y-59232800D02*
X122174000Y-59232800D01*
X122174000Y-59232800D02*
X122174000Y-83362800D01*
X122174000Y-83362800D02*
X120904000Y-84632800D01*
G04 #@! TO.C,J3*
X174365920Y-91221560D02*
X172460920Y-91221560D01*
X172460920Y-91221560D02*
X172460920Y-50581560D01*
X172460920Y-50581560D02*
X175000920Y-50581560D01*
X175000920Y-50581560D02*
X175000920Y-90586560D01*
X175000920Y-90586560D02*
X174365920Y-91221560D01*
G04 #@! TO.C,J4*
X169016680Y-47645320D02*
X169016680Y-49550320D01*
X169016680Y-49550320D02*
X128376680Y-49550320D01*
X128376680Y-49550320D02*
X128376680Y-47010320D01*
X128376680Y-47010320D02*
X168381680Y-47010320D01*
X168381680Y-47010320D02*
X169016680Y-47645320D01*
G04 #@! TO.C,J5*
X128183640Y-94137480D02*
X128183640Y-92232480D01*
X128183640Y-92232480D02*
X168823640Y-92232480D01*
X168823640Y-92232480D02*
X168823640Y-94772480D01*
X168823640Y-94772480D02*
X128818640Y-94772480D01*
X128818640Y-94772480D02*
X128183640Y-94137480D01*
G04 #@! TO.C,J6*
X117195600Y-94122240D02*
X117195600Y-92217240D01*
X117195600Y-92217240D02*
X122275600Y-92217240D01*
X122275600Y-92217240D02*
X122275600Y-94757240D01*
X122275600Y-94757240D02*
X117830600Y-94757240D01*
X117830600Y-94757240D02*
X117195600Y-94122240D01*
G04 #@! TO.C,J9*
X106436480Y-56699400D02*
X108341480Y-56699400D01*
X108341480Y-56699400D02*
X108341480Y-84639400D01*
X108341480Y-84639400D02*
X105801480Y-84639400D01*
X105801480Y-84639400D02*
X105801480Y-57334400D01*
X105801480Y-57334400D02*
X106436480Y-56699400D01*
G04 #@! TO.C,SW1*
X118448960Y-51780120D02*
X121448960Y-51780120D01*
X121448960Y-51780120D02*
X121448960Y-54280120D01*
X121448960Y-54280120D02*
X118448960Y-54280120D01*
X118448960Y-54280120D02*
X118448960Y-51780120D01*
X120698960Y-53030120D02*
G75*
G03X120698960Y-53030120I-750000J0D01*
G01*
G04 #@! TO.C,Y1*
X136194120Y-72986840D02*
X130394120Y-72986840D01*
X130394120Y-72986840D02*
X130294120Y-72886840D01*
X130294120Y-72886840D02*
X130294120Y-69586840D01*
X130294120Y-69586840D02*
X130394120Y-69486840D01*
X130394120Y-69486840D02*
X136194120Y-69486840D01*
X136194120Y-69486840D02*
X136294120Y-69586840D01*
X136294120Y-69586840D02*
X136294120Y-72886840D01*
X136294120Y-72886840D02*
X136194120Y-72986840D01*
X136294120Y-70486840D02*
X135294120Y-69486840D01*
G04 #@! TO.C,C16*
X196675000Y-56725000D02*
X195875000Y-56725000D01*
X196675000Y-55125000D02*
X196675000Y-56725000D01*
X195875000Y-55125000D02*
X196675000Y-55125000D01*
X195875000Y-56725000D02*
X195875000Y-55125000D01*
G04 #@! TO.C,C17*
X202150000Y-51775000D02*
X202950000Y-51775000D01*
X202150000Y-53375000D02*
X202150000Y-51775000D01*
X202950000Y-53375000D02*
X202150000Y-53375000D01*
X202950000Y-51775000D02*
X202950000Y-53375000D01*
G04 #@! TO.C,C18*
X202475000Y-40900000D02*
X202475000Y-41700000D01*
X200875000Y-40900000D02*
X202475000Y-40900000D01*
X200875000Y-41700000D02*
X200875000Y-40900000D01*
X202475000Y-41700000D02*
X200875000Y-41700000D01*
G04 #@! TO.C,C19*
X193459080Y-98047980D02*
X192659080Y-98047980D01*
X193459080Y-96447980D02*
X193459080Y-98047980D01*
X192659080Y-96447980D02*
X193459080Y-96447980D01*
X192659080Y-98047980D02*
X192659080Y-96447980D01*
G04 #@! TO.C,C20*
X201996120Y-94642080D02*
X202796120Y-94642080D01*
X201996120Y-96242080D02*
X201996120Y-94642080D01*
X202796120Y-96242080D02*
X201996120Y-96242080D01*
X202796120Y-94642080D02*
X202796120Y-96242080D01*
G04 #@! TO.C,C21*
X202215720Y-83203100D02*
X202215720Y-84003100D01*
X200615720Y-83203100D02*
X202215720Y-83203100D01*
X200615720Y-84003100D02*
X200615720Y-83203100D01*
X202215720Y-84003100D02*
X200615720Y-84003100D01*
G04 #@! TO.C,J10*
X194357020Y-88672940D02*
X192452020Y-88672940D01*
X192452020Y-88672940D02*
X192452020Y-83592940D01*
X192452020Y-83592940D02*
X194992020Y-83592940D01*
X194992020Y-83592940D02*
X194992020Y-88037940D01*
X194992020Y-88037940D02*
X194357020Y-88672940D01*
G04 #@! TO.C,R5*
X204850000Y-56600000D02*
X204850000Y-57400000D01*
X203250000Y-56600000D02*
X204850000Y-56600000D01*
X203250000Y-57400000D02*
X203250000Y-56600000D01*
X204850000Y-57400000D02*
X203250000Y-57400000D01*
G04 #@! TO.C,R6*
X202552260Y-58947680D02*
X203352260Y-58947680D01*
X202552260Y-60547680D02*
X202552260Y-58947680D01*
X203352260Y-60547680D02*
X202552260Y-60547680D01*
X203352260Y-58947680D02*
X203352260Y-60547680D01*
G04 #@! TO.C,R7*
X204427840Y-97813180D02*
X204427840Y-98613180D01*
X202827840Y-97813180D02*
X204427840Y-97813180D01*
X202827840Y-98613180D02*
X202827840Y-97813180D01*
X204427840Y-98613180D02*
X202827840Y-98613180D01*
G04 #@! TO.C,R8*
X202158680Y-100440860D02*
X202958680Y-100440860D01*
X202158680Y-102040860D02*
X202158680Y-100440860D01*
X202958680Y-102040860D02*
X202158680Y-102040860D01*
X202958680Y-100440860D02*
X202958680Y-102040860D01*
G04 #@! TO.C,J7*
X200933080Y-102581980D02*
X200933080Y-104486980D01*
X200933080Y-104486980D02*
X195853080Y-104486980D01*
X195853080Y-104486980D02*
X195853080Y-101946980D01*
X195853080Y-101946980D02*
X200298080Y-101946980D01*
X200298080Y-101946980D02*
X200933080Y-102581980D01*
G04 #@! TO.C,J8*
X194235000Y-67020000D02*
X192330000Y-67020000D01*
X192330000Y-67020000D02*
X192330000Y-61940000D01*
X192330000Y-61940000D02*
X194870000Y-61940000D01*
X194870000Y-61940000D02*
X194870000Y-66385000D01*
X194870000Y-66385000D02*
X194235000Y-67020000D01*
G04 #@! TO.C,D4*
X202363760Y-105525180D02*
X202763760Y-105525180D01*
X202563760Y-105475180D02*
X202363760Y-105175180D01*
X202763760Y-105175180D02*
X202563760Y-105475180D01*
X202363760Y-105175180D02*
X202763760Y-105175180D01*
X202963760Y-104525180D02*
X202963760Y-106125180D01*
X202163760Y-104525180D02*
X202963760Y-104525180D01*
X202163760Y-106125180D02*
X202163760Y-104525180D01*
X202163760Y-106125180D02*
X202963760Y-106125180D01*
G04 #@! TO.C,D5*
X202764960Y-64060120D02*
X203164960Y-64060120D01*
X202964960Y-64010120D02*
X202764960Y-63710120D01*
X203164960Y-63710120D02*
X202964960Y-64010120D01*
X202764960Y-63710120D02*
X203164960Y-63710120D01*
X203364960Y-63060120D02*
X203364960Y-64660120D01*
X202564960Y-63060120D02*
X203364960Y-63060120D01*
X202564960Y-64660120D02*
X202564960Y-63060120D01*
X202564960Y-64660120D02*
X203364960Y-64660120D01*
G04 #@! TO.C,R9*
X204461040Y-107886820D02*
X204461040Y-108686820D01*
X202861040Y-107886820D02*
X204461040Y-107886820D01*
X202861040Y-108686820D02*
X202861040Y-107886820D01*
X204461040Y-108686820D02*
X202861040Y-108686820D01*
G04 #@! TO.C,R10*
X204867500Y-66284600D02*
X204867500Y-67084600D01*
X203267500Y-66284600D02*
X204867500Y-66284600D01*
X203267500Y-67084600D02*
X203267500Y-66284600D01*
X204867500Y-67084600D02*
X203267500Y-67084600D01*
G04 #@! TO.C,J13*
X192330000Y-70035000D02*
X192330000Y-68130000D01*
X192330000Y-68130000D02*
X202490000Y-68130000D01*
X202490000Y-68130000D02*
X202490000Y-70670000D01*
X202490000Y-70670000D02*
X192965000Y-70670000D01*
X192965000Y-70670000D02*
X192330000Y-70035000D01*
G04 #@! TO.C,J14*
X192279300Y-81362820D02*
X192279300Y-79457820D01*
X192279300Y-79457820D02*
X204979300Y-79457820D01*
X204979300Y-79457820D02*
X204979300Y-81997820D01*
X204979300Y-81997820D02*
X192914300Y-81997820D01*
X192914300Y-81997820D02*
X192279300Y-81362820D01*
G04 #@! TO.C,J12*
X192840640Y-99937840D02*
X194745640Y-99937840D01*
X194745640Y-99937840D02*
X194745640Y-107557840D01*
X194745640Y-107557840D02*
X192205640Y-107557840D01*
X192205640Y-107557840D02*
X192205640Y-100572840D01*
X192205640Y-100572840D02*
X192840640Y-99937840D01*
G04 #@! TO.C,J15*
X192965000Y-40570000D02*
X194870000Y-40570000D01*
X194870000Y-40570000D02*
X194870000Y-60890000D01*
X194870000Y-60890000D02*
X192330000Y-60890000D01*
X192330000Y-60890000D02*
X192330000Y-41205000D01*
X192330000Y-41205000D02*
X192965000Y-40570000D01*
G04 #@! TO.C,*
X109914900Y-46174240D02*
X108914900Y-46174240D01*
X108914900Y-46174240D02*
X108914900Y-51274240D01*
X108914900Y-51274240D02*
X109914900Y-51274240D01*
X104114900Y-45524240D02*
X104114900Y-42424240D01*
X104114900Y-42424240D02*
X109914900Y-42424240D01*
X109914900Y-42424240D02*
X109914900Y-52474240D01*
X109914900Y-52474240D02*
X109914900Y-52524240D01*
X109914900Y-52524240D02*
X104114900Y-52524240D01*
X104114900Y-52524240D02*
X104114900Y-46874240D01*
G04 #@! TO.C,C1*
X94584900Y-46279240D02*
X95084900Y-46279240D01*
X95084900Y-46279240D02*
X95084900Y-47279240D01*
X95084900Y-47279240D02*
X94584900Y-47279240D01*
X94584900Y-47279240D02*
X94584900Y-46279240D01*
G04 #@! TO.C,*
X92484900Y-45314240D02*
X92484900Y-49124240D01*
X92484900Y-49124240D02*
X89944900Y-49124240D01*
X89944900Y-49124240D02*
X89944900Y-44044240D01*
X89944900Y-44044240D02*
X91214900Y-44044240D01*
X91214900Y-44044240D02*
X92484900Y-45314240D01*
G04 #@! TO.C,JP2*
X129455080Y-117259560D02*
X130090080Y-116624560D01*
X129455080Y-129324560D02*
X129455080Y-117259560D01*
X131995080Y-129324560D02*
X129455080Y-129324560D01*
X131995080Y-116624560D02*
X131995080Y-129324560D01*
X130090080Y-116624560D02*
X131995080Y-116624560D01*
G04 #@! TO.C,C1*
X118275080Y-124229560D02*
X118275080Y-125229560D01*
X117775080Y-124229560D02*
X118275080Y-124229560D01*
X117775080Y-125229560D02*
X117775080Y-124229560D01*
X118275080Y-125229560D02*
X117775080Y-125229560D01*
G04 #@! TO.C,C2*
X123355080Y-125229560D02*
X122855080Y-125229560D01*
X122855080Y-125229560D02*
X122855080Y-124229560D01*
X122855080Y-124229560D02*
X123355080Y-124229560D01*
X123355080Y-124229560D02*
X123355080Y-125229560D01*
G04 #@! TO.C,R3*
X127165080Y-124229560D02*
X127165080Y-125229560D01*
X126665080Y-124229560D02*
X127165080Y-124229560D01*
X126665080Y-125229560D02*
X126665080Y-124229560D01*
X127165080Y-125229560D02*
X126665080Y-125229560D01*
G04 #@! TO.C,J2*
X172543300Y-108204160D02*
X174448300Y-108204160D01*
X174448300Y-108204160D02*
X174448300Y-113284160D01*
X174448300Y-113284160D02*
X171908300Y-113284160D01*
X171908300Y-113284160D02*
X171908300Y-108839160D01*
X171908300Y-108839160D02*
X172543300Y-108204160D01*
X170088300Y-109154160D02*
X171908300Y-109154160D01*
X170088300Y-109154160D02*
X170088300Y-109794160D01*
X170088300Y-109794160D02*
X171908300Y-109794160D01*
X174448300Y-109154160D02*
X180448300Y-109154160D01*
X180448300Y-109154160D02*
X180448300Y-109794160D01*
X174448300Y-109794160D02*
X180448300Y-109794160D01*
X170088300Y-111694160D02*
X171908300Y-111694160D01*
X170088300Y-111694160D02*
X170088300Y-112334160D01*
X170088300Y-112334160D02*
X171908300Y-112334160D01*
X174448300Y-111694160D02*
X180448300Y-111694160D01*
X180448300Y-111694160D02*
X180448300Y-112334160D01*
X174448300Y-112334160D02*
X180448300Y-112334160D01*
G04 #@! TO.C,C1*
X182354300Y-117598160D02*
X182354300Y-117098160D01*
X182354300Y-117098160D02*
X183354300Y-117098160D01*
X183354300Y-117098160D02*
X183354300Y-117598160D01*
X183354300Y-117598160D02*
X182354300Y-117598160D01*
G04 #@! TO.C,C2*
X183354300Y-120646160D02*
X182354300Y-120646160D01*
X183354300Y-120146160D02*
X183354300Y-120646160D01*
X182354300Y-120146160D02*
X183354300Y-120146160D01*
X182354300Y-120646160D02*
X182354300Y-120146160D01*
G04 #@! TO.C,C3*
X158224300Y-127250160D02*
X158224300Y-126750160D01*
X158224300Y-126750160D02*
X159224300Y-126750160D01*
X159224300Y-126750160D02*
X159224300Y-127250160D01*
X159224300Y-127250160D02*
X158224300Y-127250160D01*
G04 #@! TO.C,D1*
X158732300Y-115312160D02*
X158732300Y-114812160D01*
X158732300Y-114812160D02*
X159732300Y-114812160D01*
X159732300Y-114812160D02*
X159732300Y-115312160D01*
X159732300Y-115312160D02*
X158732300Y-115312160D01*
X158832300Y-115312160D02*
X158832300Y-114812160D01*
X158932300Y-115312160D02*
X158932300Y-114812160D01*
G04 #@! TO.C,D2*
X158932300Y-110994160D02*
X158932300Y-110494160D01*
X158832300Y-110994160D02*
X158832300Y-110494160D01*
X159732300Y-110994160D02*
X158732300Y-110994160D01*
X159732300Y-110494160D02*
X159732300Y-110994160D01*
X158732300Y-110494160D02*
X159732300Y-110494160D01*
X158732300Y-110994160D02*
X158732300Y-110494160D01*
G04 #@! TO.C,J1*
X139043301Y-106169161D02*
X146583301Y-106169161D01*
X146583301Y-106169161D02*
X147553301Y-107139161D01*
X147553301Y-107139161D02*
X147553301Y-129029161D01*
X147553301Y-129029161D02*
X139043301Y-129029161D01*
X139043301Y-129029161D02*
X139043301Y-106169161D01*
X149073301Y-107139161D02*
X147553301Y-107139161D01*
X147553301Y-107739161D02*
X149073301Y-107739161D01*
X149073301Y-107739161D02*
X149073301Y-107139161D01*
X149073301Y-109679161D02*
X147553301Y-109679161D01*
X147553301Y-110279161D02*
X149073301Y-110279161D01*
X149073301Y-110279161D02*
X149073301Y-109679161D01*
X149073301Y-112219161D02*
X147553301Y-112219161D01*
X147553301Y-112819161D02*
X149073301Y-112819161D01*
X149073301Y-112819161D02*
X149073301Y-112219161D01*
X149073301Y-114759161D02*
X147553301Y-114759161D01*
X147553301Y-115359161D02*
X149073301Y-115359161D01*
X149073301Y-115359161D02*
X149073301Y-114759161D01*
X149073301Y-117299161D02*
X147553301Y-117299161D01*
X147553301Y-117899161D02*
X149073301Y-117899161D01*
X149073301Y-117899161D02*
X149073301Y-117299161D01*
X149073301Y-119839161D02*
X147553301Y-119839161D01*
X147553301Y-120439161D02*
X149073301Y-120439161D01*
X149073301Y-120439161D02*
X149073301Y-119839161D01*
X149073301Y-122379161D02*
X147553301Y-122379161D01*
X147553301Y-122979161D02*
X149073301Y-122979161D01*
X149073301Y-122979161D02*
X149073301Y-122379161D01*
X149073301Y-124919161D02*
X147553301Y-124919161D01*
X147553301Y-125519161D02*
X149073301Y-125519161D01*
X149073301Y-125519161D02*
X149073301Y-124919161D01*
X149073301Y-127459161D02*
X147553301Y-127459161D01*
X147553301Y-128059161D02*
X149073301Y-128059161D01*
X149073301Y-128059161D02*
X149073301Y-127459161D01*
G04 #@! TO.C,R1*
X158732300Y-106930160D02*
X158732300Y-106430160D01*
X158732300Y-106430160D02*
X159732300Y-106430160D01*
X159732300Y-106430160D02*
X159732300Y-106930160D01*
X159732300Y-106930160D02*
X158732300Y-106930160D01*
G04 #@! TO.C,R2*
X182354300Y-126488160D02*
X182354300Y-125988160D01*
X182354300Y-125988160D02*
X183354300Y-125988160D01*
X183354300Y-125988160D02*
X183354300Y-126488160D01*
X183354300Y-126488160D02*
X182354300Y-126488160D01*
G04 #@! TO.C,R3*
X159732300Y-119630160D02*
X158732300Y-119630160D01*
X159732300Y-119130160D02*
X159732300Y-119630160D01*
X158732300Y-119130160D02*
X159732300Y-119130160D01*
X158732300Y-119630160D02*
X158732300Y-119130160D01*
G04 #@! TO.C,R4*
X183354300Y-123694160D02*
X182354300Y-123694160D01*
X183354300Y-123194160D02*
X183354300Y-123694160D01*
X182354300Y-123194160D02*
X183354300Y-123194160D01*
X182354300Y-123694160D02*
X182354300Y-123194160D01*
G04 #@! TO.C,C1*
X84282480Y-122324880D02*
X84782480Y-122324880D01*
X84782480Y-122324880D02*
X84782480Y-123324880D01*
X84782480Y-123324880D02*
X84282480Y-123324880D01*
X84282480Y-123324880D02*
X84282480Y-122324880D01*
G04 #@! TO.C,C2*
X96462480Y-124344880D02*
X95462480Y-124344880D01*
X96462480Y-123844880D02*
X96462480Y-124344880D01*
X95462480Y-123844880D02*
X96462480Y-123844880D01*
X95462480Y-124344880D02*
X95462480Y-123844880D01*
G04 #@! TO.C,J1*
X77547480Y-120284880D02*
X79452480Y-120284880D01*
X79452480Y-120284880D02*
X79452480Y-125364880D01*
X79452480Y-125364880D02*
X76912480Y-125364880D01*
X76912480Y-125364880D02*
X76912480Y-120919880D01*
X76912480Y-120919880D02*
X77547480Y-120284880D01*
G04 #@! TO.C,J2*
X107392480Y-112664880D02*
X109297480Y-112664880D01*
X109297480Y-112664880D02*
X109932480Y-113299880D01*
X109932480Y-113299880D02*
X109932480Y-127904880D01*
X109932480Y-127904880D02*
X107392480Y-127904880D01*
X107392480Y-127904880D02*
X107392480Y-112664880D01*
G04 #@! TO.C,L1*
X82977480Y-120034880D02*
X82977480Y-120534880D01*
X82977480Y-120534880D02*
X81977480Y-120534880D01*
X81977480Y-120534880D02*
X81977480Y-120034880D01*
X81977480Y-120034880D02*
X82977480Y-120034880D01*
G04 #@! TO.C,L2*
X81977480Y-125114880D02*
X82977480Y-125114880D01*
X81977480Y-125614880D02*
X81977480Y-125114880D01*
X82977480Y-125614880D02*
X81977480Y-125614880D01*
X82977480Y-125114880D02*
X82977480Y-125614880D01*
G04 #@! TO.C,R1*
X98252480Y-125649880D02*
X98752480Y-125649880D01*
X98752480Y-125649880D02*
X98752480Y-126649880D01*
X98752480Y-126649880D02*
X98252480Y-126649880D01*
X98252480Y-126649880D02*
X98252480Y-125649880D01*
G04 #@! TO.C,R2*
X98252480Y-121569880D02*
X98252480Y-120569880D01*
X98752480Y-121569880D02*
X98252480Y-121569880D01*
X98752480Y-120569880D02*
X98752480Y-121569880D01*
X98252480Y-120569880D02*
X98752480Y-120569880D01*
G04 #@! TO.C,D1*
X104982480Y-127534880D02*
X102182480Y-127534880D01*
X102182480Y-127534880D02*
X102182480Y-125734880D01*
X102182480Y-125734880D02*
X104982480Y-125734880D01*
X104982480Y-125734880D02*
X104982480Y-127534880D01*
X104332480Y-126634880D02*
X103932480Y-126634880D01*
X103932480Y-126634880D02*
X103932480Y-127184880D01*
X103932480Y-126634880D02*
X103932480Y-126084880D01*
X103932480Y-126634880D02*
X103332480Y-127034880D01*
X103332480Y-127034880D02*
X103332480Y-126234880D01*
X103332480Y-126234880D02*
X103932480Y-126634880D01*
X103332480Y-126634880D02*
X102832480Y-126634880D01*
G04 #@! TO.C,D2*
X103332480Y-121554880D02*
X102832480Y-121554880D01*
X103332480Y-121154880D02*
X103932480Y-121554880D01*
X103332480Y-121954880D02*
X103332480Y-121154880D01*
X103932480Y-121554880D02*
X103332480Y-121954880D01*
X103932480Y-121554880D02*
X103932480Y-121004880D01*
X103932480Y-121554880D02*
X103932480Y-122104880D01*
X104332480Y-121554880D02*
X103932480Y-121554880D01*
X104982480Y-120654880D02*
X104982480Y-122454880D01*
X102182480Y-120654880D02*
X104982480Y-120654880D01*
X102182480Y-122454880D02*
X102182480Y-120654880D01*
X104982480Y-122454880D02*
X102182480Y-122454880D01*
D11*
G04 #@! TO.C,U1*
X100906259Y-91401092D02*
X100906259Y-107401092D01*
X84906259Y-91401092D02*
X100906259Y-91401092D01*
D12*
X84906259Y-107401092D02*
X84906259Y-91401092D01*
D11*
X100906259Y-107401092D02*
X84906259Y-107401092D01*
D10*
G04 #@! TO.C,LED1*
G36*
X89386259Y-108785092D02*
X89386259Y-109110092D01*
X89461259Y-109110092D01*
X89461259Y-108785092D01*
X89386259Y-108785092D01*
G37*
G36*
X88961259Y-108810092D02*
X88961259Y-109110092D01*
X89223259Y-109110092D01*
X89223259Y-108810092D01*
X88961259Y-108810092D01*
G37*
G36*
X87786259Y-109210092D02*
X87786259Y-109610092D01*
X87961259Y-109610092D01*
X87961259Y-109210092D01*
X87786259Y-109210092D01*
G37*
G36*
X87711259Y-109085092D02*
X87711259Y-109235092D01*
X87961259Y-109235092D01*
X87961259Y-109085092D01*
X87711259Y-109085092D01*
G37*
G36*
X87711259Y-109585092D02*
X87711259Y-109735092D01*
X87961259Y-109735092D01*
X87961259Y-109585092D01*
X87711259Y-109585092D01*
G37*
G36*
X87461259Y-108785092D02*
X87461259Y-109110092D01*
X87961259Y-109110092D01*
X87961259Y-108785092D01*
X87461259Y-108785092D01*
G37*
G36*
X87461259Y-109710092D02*
X87461259Y-110035092D01*
X87961259Y-110035092D01*
X87961259Y-109710092D01*
X87461259Y-109710092D01*
G37*
G36*
X88961259Y-109210092D02*
X88961259Y-109610092D01*
X89136259Y-109610092D01*
X89136259Y-109210092D01*
X88961259Y-109210092D01*
G37*
G36*
X88961259Y-109585092D02*
X88961259Y-109735092D01*
X89211259Y-109735092D01*
X89211259Y-109585092D01*
X88961259Y-109585092D01*
G37*
G36*
X88961259Y-109085092D02*
X88961259Y-109235092D01*
X89211259Y-109235092D01*
X89211259Y-109085092D01*
X88961259Y-109085092D01*
G37*
G36*
X88961259Y-109710092D02*
X88961259Y-110035092D01*
X89461259Y-110035092D01*
X89461259Y-109710092D01*
X88961259Y-109710092D01*
G37*
D13*
X89414259Y-108960092D02*
G75*
G03X89414259Y-108960092I-103000J0D01*
G01*
D14*
X87961259Y-108835092D02*
X89386259Y-108835092D01*
X88986259Y-109985092D02*
X87936259Y-109985092D01*
X87536261Y-109760092D02*
G75*
G03X87536259Y-109060092I-54201J350000D01*
G01*
X89386257Y-109760092D02*
G75*
G02X89386259Y-109060092I54201J350000D01*
G01*
D10*
G04 #@! TO.C,R1*
G36*
X92169659Y-108734192D02*
X91419559Y-108734192D01*
X91419559Y-110184292D01*
X92169659Y-110184292D01*
X92169659Y-108734192D01*
G37*
G36*
X93617459Y-108734192D02*
X92867359Y-108734192D01*
X92867359Y-110184292D01*
X93617459Y-110184292D01*
X93617459Y-108734192D01*
G37*
D14*
X92881259Y-108798092D02*
X92144259Y-108798092D01*
X92906259Y-110118092D02*
X92144259Y-110118092D01*
D10*
G04 #@! TO.C,C1*
G36*
X85160659Y-88898192D02*
X84410559Y-88898192D01*
X84410559Y-90348292D01*
X85160659Y-90348292D01*
X85160659Y-88898192D01*
G37*
G36*
X86608459Y-88898192D02*
X85858359Y-88898192D01*
X85858359Y-90348292D01*
X86608459Y-90348292D01*
X86608459Y-88898192D01*
G37*
D14*
X85872259Y-88962092D02*
X85135259Y-88962092D01*
X85897259Y-90282092D02*
X85135259Y-90282092D01*
D11*
G04 #@! TO.C,D1*
X100637259Y-89049092D02*
X100637259Y-90449092D01*
X98637259Y-90449092D02*
X98637259Y-89049092D01*
D10*
G04 #@! TO.C,R3*
G36*
X99662659Y-87144192D02*
X98912559Y-87144192D01*
X98912559Y-88594292D01*
X99662659Y-88594292D01*
X99662659Y-87144192D01*
G37*
G36*
X101110459Y-87144192D02*
X100360359Y-87144192D01*
X100360359Y-88594292D01*
X101110459Y-88594292D01*
X101110459Y-87144192D01*
G37*
D14*
X100374259Y-87208092D02*
X99637259Y-87208092D01*
X100399259Y-88528092D02*
X99637259Y-88528092D01*
D10*
G04 #@! TO.C,JP1*
G36*
X108146259Y-108799092D02*
X108146259Y-109307092D01*
X108654259Y-109307092D01*
X108654259Y-108799092D01*
X108146259Y-108799092D01*
G37*
G36*
X108146259Y-88479092D02*
X108146259Y-88987092D01*
X108654259Y-88987092D01*
X108654259Y-88479092D01*
X108146259Y-88479092D01*
G37*
G36*
X108146259Y-91019092D02*
X108146259Y-91527092D01*
X108654259Y-91527092D01*
X108654259Y-91019092D01*
X108146259Y-91019092D01*
G37*
G36*
X108146259Y-93559092D02*
X108146259Y-94067092D01*
X108654259Y-94067092D01*
X108654259Y-93559092D01*
X108146259Y-93559092D01*
G37*
G36*
X108146259Y-96099092D02*
X108146259Y-96607092D01*
X108654259Y-96607092D01*
X108654259Y-96099092D01*
X108146259Y-96099092D01*
G37*
G36*
X108146259Y-98639092D02*
X108146259Y-99147092D01*
X108654259Y-99147092D01*
X108654259Y-98639092D01*
X108146259Y-98639092D01*
G37*
G36*
X108146259Y-101179092D02*
X108146259Y-101687092D01*
X108654259Y-101687092D01*
X108654259Y-101179092D01*
X108146259Y-101179092D01*
G37*
G36*
X108146259Y-103719092D02*
X108146259Y-104227092D01*
X108654259Y-104227092D01*
X108654259Y-103719092D01*
X108146259Y-103719092D01*
G37*
G36*
X108146259Y-106259092D02*
X108146259Y-106767092D01*
X108654259Y-106767092D01*
X108654259Y-106259092D01*
X108146259Y-106259092D01*
G37*
D11*
X109035259Y-87463092D02*
X107765259Y-87463092D01*
G04 #@! TO.C,D2*
X98478259Y-108480092D02*
X98478259Y-109880092D01*
X96478259Y-109880092D02*
X96478259Y-108480092D01*
G04 #@! TD*
G04 #@! TO.C,J2*
D15*
X80632820Y-77576283D02*
X79632820Y-77576283D01*
X80347106Y-77242950D01*
X79632820Y-76909617D01*
X80632820Y-76909617D01*
X80632820Y-76433426D02*
X79966154Y-76433426D01*
X79632820Y-76433426D02*
X79680440Y-76481045D01*
X79728059Y-76433426D01*
X79680440Y-76385807D01*
X79632820Y-76433426D01*
X79728059Y-76433426D01*
X80585201Y-75528664D02*
X80632820Y-75623902D01*
X80632820Y-75814379D01*
X80585201Y-75909617D01*
X80537582Y-75957236D01*
X80442344Y-76004855D01*
X80156630Y-76004855D01*
X80061392Y-75957236D01*
X80013773Y-75909617D01*
X79966154Y-75814379D01*
X79966154Y-75623902D01*
X80013773Y-75528664D01*
X80632820Y-75100093D02*
X79966154Y-75100093D01*
X80156630Y-75100093D02*
X80061392Y-75052474D01*
X80013773Y-75004855D01*
X79966154Y-74909617D01*
X79966154Y-74814379D01*
X80632820Y-74338188D02*
X80585201Y-74433426D01*
X80537582Y-74481045D01*
X80442344Y-74528664D01*
X80156630Y-74528664D01*
X80061392Y-74481045D01*
X80013773Y-74433426D01*
X79966154Y-74338188D01*
X79966154Y-74195331D01*
X80013773Y-74100093D01*
X80061392Y-74052474D01*
X80156630Y-74004855D01*
X80442344Y-74004855D01*
X80537582Y-74052474D01*
X80585201Y-74100093D01*
X80632820Y-74195331D01*
X80632820Y-74338188D01*
X80728059Y-73814379D02*
X80728059Y-73052474D01*
X80585201Y-72861998D02*
X80632820Y-72719140D01*
X80632820Y-72481045D01*
X80585201Y-72385807D01*
X80537582Y-72338188D01*
X80442344Y-72290569D01*
X80347106Y-72290569D01*
X80251868Y-72338188D01*
X80204249Y-72385807D01*
X80156630Y-72481045D01*
X80109011Y-72671521D01*
X80061392Y-72766760D01*
X80013773Y-72814379D01*
X79918535Y-72861998D01*
X79823297Y-72861998D01*
X79728059Y-72814379D01*
X79680440Y-72766760D01*
X79632820Y-72671521D01*
X79632820Y-72433426D01*
X79680440Y-72290569D01*
X80632820Y-71861998D02*
X79632820Y-71861998D01*
X79632820Y-71623902D01*
X79680440Y-71481045D01*
X79775678Y-71385807D01*
X79870916Y-71338188D01*
X80061392Y-71290569D01*
X80204249Y-71290569D01*
X80394725Y-71338188D01*
X80489963Y-71385807D01*
X80585201Y-71481045D01*
X80632820Y-71623902D01*
X80632820Y-71861998D01*
X80728059Y-71100093D02*
X80728059Y-70338188D01*
X80537582Y-69528664D02*
X80585201Y-69576283D01*
X80632820Y-69719140D01*
X80632820Y-69814379D01*
X80585201Y-69957236D01*
X80489963Y-70052474D01*
X80394725Y-70100093D01*
X80204249Y-70147712D01*
X80061392Y-70147712D01*
X79870916Y-70100093D01*
X79775678Y-70052474D01*
X79680440Y-69957236D01*
X79632820Y-69814379D01*
X79632820Y-69719140D01*
X79680440Y-69576283D01*
X79728059Y-69528664D01*
X80632820Y-68671521D02*
X80109011Y-68671521D01*
X80013773Y-68719140D01*
X79966154Y-68814379D01*
X79966154Y-69004855D01*
X80013773Y-69100093D01*
X80585201Y-68671521D02*
X80632820Y-68766760D01*
X80632820Y-69004855D01*
X80585201Y-69100093D01*
X80489963Y-69147712D01*
X80394725Y-69147712D01*
X80299487Y-69100093D01*
X80251868Y-69004855D01*
X80251868Y-68766760D01*
X80204249Y-68671521D01*
X80632820Y-68195331D02*
X79966154Y-68195331D01*
X80156630Y-68195331D02*
X80061392Y-68147712D01*
X80013773Y-68100093D01*
X79966154Y-68004855D01*
X79966154Y-67909617D01*
X80632820Y-67147712D02*
X79632820Y-67147712D01*
X80585201Y-67147712D02*
X80632820Y-67242950D01*
X80632820Y-67433426D01*
X80585201Y-67528664D01*
X80537582Y-67576283D01*
X80442344Y-67623902D01*
X80156630Y-67623902D01*
X80061392Y-67576283D01*
X80013773Y-67528664D01*
X79966154Y-67433426D01*
X79966154Y-67242950D01*
X80013773Y-67147712D01*
X80728059Y-66909617D02*
X80728059Y-66147712D01*
X80632820Y-65909617D02*
X79632820Y-65909617D01*
X79632820Y-65671521D01*
X79680440Y-65528664D01*
X79775678Y-65433426D01*
X79870916Y-65385807D01*
X80061392Y-65338188D01*
X80204249Y-65338188D01*
X80394725Y-65385807D01*
X80489963Y-65433426D01*
X80585201Y-65528664D01*
X80632820Y-65671521D01*
X80632820Y-65909617D01*
X80585201Y-64528664D02*
X80632820Y-64623902D01*
X80632820Y-64814379D01*
X80585201Y-64909617D01*
X80489963Y-64957236D01*
X80109011Y-64957236D01*
X80013773Y-64909617D01*
X79966154Y-64814379D01*
X79966154Y-64623902D01*
X80013773Y-64528664D01*
X80109011Y-64481045D01*
X80204249Y-64481045D01*
X80299487Y-64957236D01*
X79966154Y-64195331D02*
X79966154Y-63814379D01*
X79632820Y-64052474D02*
X80489963Y-64052474D01*
X80585201Y-64004855D01*
X80632820Y-63909617D01*
X80632820Y-63814379D01*
D10*
X87632820Y-71000093D02*
X88347106Y-71000093D01*
X88489963Y-71047712D01*
X88585201Y-71142950D01*
X88632820Y-71285807D01*
X88632820Y-71381045D01*
X87728059Y-70571521D02*
X87680440Y-70523902D01*
X87632820Y-70428664D01*
X87632820Y-70190569D01*
X87680440Y-70095331D01*
X87728059Y-70047712D01*
X87823297Y-70000093D01*
X87918535Y-70000093D01*
X88061392Y-70047712D01*
X88632820Y-70619140D01*
X88632820Y-70000093D01*
G04 #@! TO.C,0k1*
D15*
X139462213Y-69540380D02*
X139128880Y-69064190D01*
X138890784Y-69540380D02*
X138890784Y-68540380D01*
X139271737Y-68540380D01*
X139366975Y-68588000D01*
X139414594Y-68635619D01*
X139462213Y-68730857D01*
X139462213Y-68873714D01*
X139414594Y-68968952D01*
X139366975Y-69016571D01*
X139271737Y-69064190D01*
X138890784Y-69064190D01*
X140414594Y-69540380D02*
X139843165Y-69540380D01*
X140128880Y-69540380D02*
X140128880Y-68540380D01*
X140033641Y-68683238D01*
X139938403Y-68778476D01*
X139843165Y-68826095D01*
D16*
X139252371Y-70306592D02*
X139290466Y-70306592D01*
X139328561Y-70325640D01*
X139347609Y-70344687D01*
X139366657Y-70382782D01*
X139385704Y-70458973D01*
X139385704Y-70554211D01*
X139366657Y-70630401D01*
X139347609Y-70668497D01*
X139328561Y-70687544D01*
X139290466Y-70706592D01*
X139252371Y-70706592D01*
X139214276Y-70687544D01*
X139195228Y-70668497D01*
X139176180Y-70630401D01*
X139157133Y-70554211D01*
X139157133Y-70458973D01*
X139176180Y-70382782D01*
X139195228Y-70344687D01*
X139214276Y-70325640D01*
X139252371Y-70306592D01*
X139557133Y-70706592D02*
X139557133Y-70306592D01*
X139595228Y-70554211D02*
X139709514Y-70706592D01*
X139709514Y-70439925D02*
X139557133Y-70592306D01*
X140090466Y-70706592D02*
X139861895Y-70706592D01*
X139976180Y-70706592D02*
X139976180Y-70306592D01*
X139938085Y-70363735D01*
X139899990Y-70401830D01*
X139861895Y-70420878D01*
G04 #@! TO.C,0k2*
D15*
X139462213Y-73843140D02*
X139128880Y-73366950D01*
X138890784Y-73843140D02*
X138890784Y-72843140D01*
X139271737Y-72843140D01*
X139366975Y-72890760D01*
X139414594Y-72938379D01*
X139462213Y-73033617D01*
X139462213Y-73176474D01*
X139414594Y-73271712D01*
X139366975Y-73319331D01*
X139271737Y-73366950D01*
X138890784Y-73366950D01*
X139843165Y-72938379D02*
X139890784Y-72890760D01*
X139986022Y-72843140D01*
X140224118Y-72843140D01*
X140319356Y-72890760D01*
X140366975Y-72938379D01*
X140414594Y-73033617D01*
X140414594Y-73128855D01*
X140366975Y-73271712D01*
X139795546Y-73843140D01*
X140414594Y-73843140D01*
D16*
X139262531Y-71734072D02*
X139300626Y-71734072D01*
X139338721Y-71753120D01*
X139357769Y-71772167D01*
X139376817Y-71810262D01*
X139395864Y-71886453D01*
X139395864Y-71981691D01*
X139376817Y-72057881D01*
X139357769Y-72095977D01*
X139338721Y-72115024D01*
X139300626Y-72134072D01*
X139262531Y-72134072D01*
X139224436Y-72115024D01*
X139205388Y-72095977D01*
X139186340Y-72057881D01*
X139167293Y-71981691D01*
X139167293Y-71886453D01*
X139186340Y-71810262D01*
X139205388Y-71772167D01*
X139224436Y-71753120D01*
X139262531Y-71734072D01*
X139567293Y-72134072D02*
X139567293Y-71734072D01*
X139605388Y-71981691D02*
X139719674Y-72134072D01*
X139719674Y-71867405D02*
X139567293Y-72019786D01*
X139872055Y-71772167D02*
X139891102Y-71753120D01*
X139929198Y-71734072D01*
X140024436Y-71734072D01*
X140062531Y-71753120D01*
X140081579Y-71772167D01*
X140100626Y-71810262D01*
X140100626Y-71848358D01*
X140081579Y-71905500D01*
X139853007Y-72134072D01*
X140100626Y-72134072D01*
G04 #@! TO.C,1uF1*
D15*
X136411673Y-77956682D02*
X136364054Y-78004301D01*
X136221197Y-78051920D01*
X136125959Y-78051920D01*
X135983101Y-78004301D01*
X135887863Y-77909063D01*
X135840244Y-77813825D01*
X135792625Y-77623349D01*
X135792625Y-77480492D01*
X135840244Y-77290016D01*
X135887863Y-77194778D01*
X135983101Y-77099540D01*
X136125959Y-77051920D01*
X136221197Y-77051920D01*
X136364054Y-77099540D01*
X136411673Y-77147159D01*
X137268816Y-77051920D02*
X137078340Y-77051920D01*
X136983101Y-77099540D01*
X136935482Y-77147159D01*
X136840244Y-77290016D01*
X136792625Y-77480492D01*
X136792625Y-77861444D01*
X136840244Y-77956682D01*
X136887863Y-78004301D01*
X136983101Y-78051920D01*
X137173578Y-78051920D01*
X137268816Y-78004301D01*
X137316435Y-77956682D01*
X137364054Y-77861444D01*
X137364054Y-77623349D01*
X137316435Y-77528111D01*
X137268816Y-77480492D01*
X137173578Y-77432873D01*
X136983101Y-77432873D01*
X136887863Y-77480492D01*
X136840244Y-77528111D01*
X136792625Y-77623349D01*
G04 #@! TO.C,1uF2*
X147778742Y-59499737D02*
X147826361Y-59547356D01*
X147873980Y-59690213D01*
X147873980Y-59785451D01*
X147826361Y-59928308D01*
X147731123Y-60023546D01*
X147635885Y-60071165D01*
X147445409Y-60118784D01*
X147302552Y-60118784D01*
X147112076Y-60071165D01*
X147016838Y-60023546D01*
X146921600Y-59928308D01*
X146873980Y-59785451D01*
X146873980Y-59690213D01*
X146921600Y-59547356D01*
X146969219Y-59499737D01*
X147873980Y-58547356D02*
X147873980Y-59118784D01*
X147873980Y-58833070D02*
X146873980Y-58833070D01*
X147016838Y-58928308D01*
X147112076Y-59023546D01*
X147159695Y-59118784D01*
X147207314Y-57690213D02*
X147873980Y-57690213D01*
X146826361Y-57928308D02*
X147540647Y-58166403D01*
X147540647Y-57547356D01*
G04 #@! TO.C,1uF3*
X148718542Y-87822066D02*
X148766161Y-87869685D01*
X148813780Y-88012542D01*
X148813780Y-88107780D01*
X148766161Y-88250638D01*
X148670923Y-88345876D01*
X148575685Y-88393495D01*
X148385209Y-88441114D01*
X148242352Y-88441114D01*
X148051876Y-88393495D01*
X147956638Y-88345876D01*
X147861400Y-88250638D01*
X147813780Y-88107780D01*
X147813780Y-88012542D01*
X147861400Y-87869685D01*
X147909019Y-87822066D01*
X148242352Y-87250638D02*
X148194733Y-87345876D01*
X148147114Y-87393495D01*
X148051876Y-87441114D01*
X148004257Y-87441114D01*
X147909019Y-87393495D01*
X147861400Y-87345876D01*
X147813780Y-87250638D01*
X147813780Y-87060161D01*
X147861400Y-86964923D01*
X147909019Y-86917304D01*
X148004257Y-86869685D01*
X148051876Y-86869685D01*
X148147114Y-86917304D01*
X148194733Y-86964923D01*
X148242352Y-87060161D01*
X148242352Y-87250638D01*
X148289971Y-87345876D01*
X148337590Y-87393495D01*
X148432828Y-87441114D01*
X148623304Y-87441114D01*
X148718542Y-87393495D01*
X148766161Y-87345876D01*
X148813780Y-87250638D01*
X148813780Y-87060161D01*
X148766161Y-86964923D01*
X148718542Y-86917304D01*
X148623304Y-86869685D01*
X148432828Y-86869685D01*
X148337590Y-86917304D01*
X148289971Y-86964923D01*
X148242352Y-87060161D01*
G04 #@! TO.C,1uF4*
X156562062Y-88928177D02*
X156609681Y-88975796D01*
X156657300Y-89118653D01*
X156657300Y-89213891D01*
X156609681Y-89356748D01*
X156514443Y-89451986D01*
X156419205Y-89499605D01*
X156228729Y-89547224D01*
X156085872Y-89547224D01*
X155895396Y-89499605D01*
X155800158Y-89451986D01*
X155704920Y-89356748D01*
X155657300Y-89213891D01*
X155657300Y-89118653D01*
X155704920Y-88975796D01*
X155752539Y-88928177D01*
X156657300Y-87975796D02*
X156657300Y-88547224D01*
X156657300Y-88261510D02*
X155657300Y-88261510D01*
X155800158Y-88356748D01*
X155895396Y-88451986D01*
X155943015Y-88547224D01*
X155752539Y-87594843D02*
X155704920Y-87547224D01*
X155657300Y-87451986D01*
X155657300Y-87213891D01*
X155704920Y-87118653D01*
X155752539Y-87071034D01*
X155847777Y-87023415D01*
X155943015Y-87023415D01*
X156085872Y-87071034D01*
X156657300Y-87642462D01*
X156657300Y-87023415D01*
G04 #@! TO.C,1uF5*
X165950662Y-69145422D02*
X165903043Y-69193041D01*
X165760186Y-69240660D01*
X165664948Y-69240660D01*
X165522091Y-69193041D01*
X165426853Y-69097803D01*
X165379234Y-69002565D01*
X165331615Y-68812089D01*
X165331615Y-68669232D01*
X165379234Y-68478756D01*
X165426853Y-68383518D01*
X165522091Y-68288280D01*
X165664948Y-68240660D01*
X165760186Y-68240660D01*
X165903043Y-68288280D01*
X165950662Y-68335899D01*
X166903043Y-69240660D02*
X166331615Y-69240660D01*
X166617329Y-69240660D02*
X166617329Y-68240660D01*
X166522091Y-68383518D01*
X166426853Y-68478756D01*
X166331615Y-68526375D01*
X167522091Y-68240660D02*
X167617329Y-68240660D01*
X167712567Y-68288280D01*
X167760186Y-68335899D01*
X167807805Y-68431137D01*
X167855424Y-68621613D01*
X167855424Y-68859708D01*
X167807805Y-69050184D01*
X167760186Y-69145422D01*
X167712567Y-69193041D01*
X167617329Y-69240660D01*
X167522091Y-69240660D01*
X167426853Y-69193041D01*
X167379234Y-69145422D01*
X167331615Y-69050184D01*
X167283996Y-68859708D01*
X167283996Y-68621613D01*
X167331615Y-68431137D01*
X167379234Y-68335899D01*
X167426853Y-68288280D01*
X167522091Y-68240660D01*
G04 #@! TO.C,4.7uF1*
X154723102Y-88953577D02*
X154770721Y-89001196D01*
X154818340Y-89144053D01*
X154818340Y-89239291D01*
X154770721Y-89382148D01*
X154675483Y-89477386D01*
X154580245Y-89525005D01*
X154389769Y-89572624D01*
X154246912Y-89572624D01*
X154056436Y-89525005D01*
X153961198Y-89477386D01*
X153865960Y-89382148D01*
X153818340Y-89239291D01*
X153818340Y-89144053D01*
X153865960Y-89001196D01*
X153913579Y-88953577D01*
X153913579Y-88572624D02*
X153865960Y-88525005D01*
X153818340Y-88429767D01*
X153818340Y-88191672D01*
X153865960Y-88096434D01*
X153913579Y-88048815D01*
X154008817Y-88001196D01*
X154104055Y-88001196D01*
X154246912Y-88048815D01*
X154818340Y-88620243D01*
X154818340Y-88001196D01*
X154818340Y-87048815D02*
X154818340Y-87620243D01*
X154818340Y-87334529D02*
X153818340Y-87334529D01*
X153961198Y-87429767D01*
X154056436Y-87525005D01*
X154104055Y-87620243D01*
G04 #@! TO.C,10k1*
X136150053Y-62519820D02*
X135816720Y-62043630D01*
X135578624Y-62519820D02*
X135578624Y-61519820D01*
X135959577Y-61519820D01*
X136054815Y-61567440D01*
X136102434Y-61615059D01*
X136150053Y-61710297D01*
X136150053Y-61853154D01*
X136102434Y-61948392D01*
X136054815Y-61996011D01*
X135959577Y-62043630D01*
X135578624Y-62043630D01*
X137007196Y-61519820D02*
X136816720Y-61519820D01*
X136721481Y-61567440D01*
X136673862Y-61615059D01*
X136578624Y-61757916D01*
X136531005Y-61948392D01*
X136531005Y-62329344D01*
X136578624Y-62424582D01*
X136626243Y-62472201D01*
X136721481Y-62519820D01*
X136911958Y-62519820D01*
X137007196Y-62472201D01*
X137054815Y-62424582D01*
X137102434Y-62329344D01*
X137102434Y-62091249D01*
X137054815Y-61996011D01*
X137007196Y-61948392D01*
X136911958Y-61900773D01*
X136721481Y-61900773D01*
X136626243Y-61948392D01*
X136578624Y-61996011D01*
X136531005Y-62091249D01*
D16*
X132956988Y-62197592D02*
X132728417Y-62197592D01*
X132842702Y-62197592D02*
X132842702Y-61797592D01*
X132804607Y-61854735D01*
X132766512Y-61892830D01*
X132728417Y-61911878D01*
X133204607Y-61797592D02*
X133242702Y-61797592D01*
X133280798Y-61816640D01*
X133299845Y-61835687D01*
X133318893Y-61873782D01*
X133337940Y-61949973D01*
X133337940Y-62045211D01*
X133318893Y-62121401D01*
X133299845Y-62159497D01*
X133280798Y-62178544D01*
X133242702Y-62197592D01*
X133204607Y-62197592D01*
X133166512Y-62178544D01*
X133147464Y-62159497D01*
X133128417Y-62121401D01*
X133109369Y-62045211D01*
X133109369Y-61949973D01*
X133128417Y-61873782D01*
X133147464Y-61835687D01*
X133166512Y-61816640D01*
X133204607Y-61797592D01*
X133509369Y-62197592D02*
X133509369Y-61797592D01*
X133547464Y-62045211D02*
X133661750Y-62197592D01*
X133661750Y-61930925D02*
X133509369Y-62083306D01*
X134042702Y-62197592D02*
X133814131Y-62197592D01*
X133928417Y-62197592D02*
X133928417Y-61797592D01*
X133890321Y-61854735D01*
X133852226Y-61892830D01*
X133814131Y-61911878D01*
G04 #@! TO.C,10k2*
D15*
X136200853Y-59598820D02*
X135867520Y-59122630D01*
X135629424Y-59598820D02*
X135629424Y-58598820D01*
X136010377Y-58598820D01*
X136105615Y-58646440D01*
X136153234Y-58694059D01*
X136200853Y-58789297D01*
X136200853Y-58932154D01*
X136153234Y-59027392D01*
X136105615Y-59075011D01*
X136010377Y-59122630D01*
X135629424Y-59122630D01*
X136534186Y-58598820D02*
X137200853Y-58598820D01*
X136772281Y-59598820D01*
D16*
X132956988Y-59296912D02*
X132728417Y-59296912D01*
X132842702Y-59296912D02*
X132842702Y-58896912D01*
X132804607Y-58954055D01*
X132766512Y-58992150D01*
X132728417Y-59011198D01*
X133204607Y-58896912D02*
X133242702Y-58896912D01*
X133280798Y-58915960D01*
X133299845Y-58935007D01*
X133318893Y-58973102D01*
X133337940Y-59049293D01*
X133337940Y-59144531D01*
X133318893Y-59220721D01*
X133299845Y-59258817D01*
X133280798Y-59277864D01*
X133242702Y-59296912D01*
X133204607Y-59296912D01*
X133166512Y-59277864D01*
X133147464Y-59258817D01*
X133128417Y-59220721D01*
X133109369Y-59144531D01*
X133109369Y-59049293D01*
X133128417Y-58973102D01*
X133147464Y-58935007D01*
X133166512Y-58915960D01*
X133204607Y-58896912D01*
X133509369Y-59296912D02*
X133509369Y-58896912D01*
X133547464Y-59144531D02*
X133661750Y-59296912D01*
X133661750Y-59030245D02*
X133509369Y-59182626D01*
X133814131Y-58935007D02*
X133833179Y-58915960D01*
X133871274Y-58896912D01*
X133966512Y-58896912D01*
X134004607Y-58915960D01*
X134023655Y-58935007D01*
X134042702Y-58973102D01*
X134042702Y-59011198D01*
X134023655Y-59068340D01*
X133795083Y-59296912D01*
X134042702Y-59296912D01*
G04 #@! TO.C,10k3*
D15*
X136200853Y-61026300D02*
X135867520Y-60550110D01*
X135629424Y-61026300D02*
X135629424Y-60026300D01*
X136010377Y-60026300D01*
X136105615Y-60073920D01*
X136153234Y-60121539D01*
X136200853Y-60216777D01*
X136200853Y-60359634D01*
X136153234Y-60454872D01*
X136105615Y-60502491D01*
X136010377Y-60550110D01*
X135629424Y-60550110D01*
X136772281Y-60454872D02*
X136677043Y-60407253D01*
X136629424Y-60359634D01*
X136581805Y-60264396D01*
X136581805Y-60216777D01*
X136629424Y-60121539D01*
X136677043Y-60073920D01*
X136772281Y-60026300D01*
X136962758Y-60026300D01*
X137057996Y-60073920D01*
X137105615Y-60121539D01*
X137153234Y-60216777D01*
X137153234Y-60264396D01*
X137105615Y-60359634D01*
X137057996Y-60407253D01*
X136962758Y-60454872D01*
X136772281Y-60454872D01*
X136677043Y-60502491D01*
X136629424Y-60550110D01*
X136581805Y-60645348D01*
X136581805Y-60835824D01*
X136629424Y-60931062D01*
X136677043Y-60978681D01*
X136772281Y-61026300D01*
X136962758Y-61026300D01*
X137057996Y-60978681D01*
X137105615Y-60931062D01*
X137153234Y-60835824D01*
X137153234Y-60645348D01*
X137105615Y-60550110D01*
X137057996Y-60502491D01*
X136962758Y-60454872D01*
D16*
X132956988Y-60739632D02*
X132728417Y-60739632D01*
X132842702Y-60739632D02*
X132842702Y-60339632D01*
X132804607Y-60396775D01*
X132766512Y-60434870D01*
X132728417Y-60453918D01*
X133204607Y-60339632D02*
X133242702Y-60339632D01*
X133280798Y-60358680D01*
X133299845Y-60377727D01*
X133318893Y-60415822D01*
X133337940Y-60492013D01*
X133337940Y-60587251D01*
X133318893Y-60663441D01*
X133299845Y-60701537D01*
X133280798Y-60720584D01*
X133242702Y-60739632D01*
X133204607Y-60739632D01*
X133166512Y-60720584D01*
X133147464Y-60701537D01*
X133128417Y-60663441D01*
X133109369Y-60587251D01*
X133109369Y-60492013D01*
X133128417Y-60415822D01*
X133147464Y-60377727D01*
X133166512Y-60358680D01*
X133204607Y-60339632D01*
X133509369Y-60739632D02*
X133509369Y-60339632D01*
X133547464Y-60587251D02*
X133661750Y-60739632D01*
X133661750Y-60472965D02*
X133509369Y-60625346D01*
X133795083Y-60339632D02*
X134042702Y-60339632D01*
X133909369Y-60492013D01*
X133966512Y-60492013D01*
X134004607Y-60511060D01*
X134023655Y-60530108D01*
X134042702Y-60568203D01*
X134042702Y-60663441D01*
X134023655Y-60701537D01*
X134004607Y-60720584D01*
X133966512Y-60739632D01*
X133852226Y-60739632D01*
X133814131Y-60720584D01*
X133795083Y-60701537D01*
G04 #@! TO.C,10k4*
D15*
X149286220Y-59460426D02*
X148810030Y-59793760D01*
X149286220Y-60031855D02*
X148286220Y-60031855D01*
X148286220Y-59650902D01*
X148333840Y-59555664D01*
X148381459Y-59508045D01*
X148476697Y-59460426D01*
X148619554Y-59460426D01*
X148714792Y-59508045D01*
X148762411Y-59555664D01*
X148810030Y-59650902D01*
X148810030Y-60031855D01*
X148286220Y-58555664D02*
X148286220Y-59031855D01*
X148762411Y-59079474D01*
X148714792Y-59031855D01*
X148667173Y-58936617D01*
X148667173Y-58698521D01*
X148714792Y-58603283D01*
X148762411Y-58555664D01*
X148857649Y-58508045D01*
X149095744Y-58508045D01*
X149190982Y-58555664D01*
X149238601Y-58603283D01*
X149286220Y-58698521D01*
X149286220Y-58936617D01*
X149238601Y-59031855D01*
X149190982Y-59079474D01*
D16*
X148903032Y-62777771D02*
X148903032Y-63006342D01*
X148903032Y-62892057D02*
X148503032Y-62892057D01*
X148560175Y-62930152D01*
X148598270Y-62968247D01*
X148617318Y-63006342D01*
X148503032Y-62530152D02*
X148503032Y-62492057D01*
X148522080Y-62453961D01*
X148541127Y-62434914D01*
X148579222Y-62415866D01*
X148655413Y-62396819D01*
X148750651Y-62396819D01*
X148826841Y-62415866D01*
X148864937Y-62434914D01*
X148883984Y-62453961D01*
X148903032Y-62492057D01*
X148903032Y-62530152D01*
X148883984Y-62568247D01*
X148864937Y-62587295D01*
X148826841Y-62606342D01*
X148750651Y-62625390D01*
X148655413Y-62625390D01*
X148579222Y-62606342D01*
X148541127Y-62587295D01*
X148522080Y-62568247D01*
X148503032Y-62530152D01*
X148903032Y-62225390D02*
X148503032Y-62225390D01*
X148750651Y-62187295D02*
X148903032Y-62073009D01*
X148636365Y-62073009D02*
X148788746Y-62225390D01*
X148636365Y-61730152D02*
X148903032Y-61730152D01*
X148483984Y-61825390D02*
X148769699Y-61920628D01*
X148769699Y-61673009D01*
G04 #@! TO.C,10nF1*
D15*
X139401253Y-75114422D02*
X139353634Y-75162041D01*
X139210777Y-75209660D01*
X139115539Y-75209660D01*
X138972681Y-75162041D01*
X138877443Y-75066803D01*
X138829824Y-74971565D01*
X138782205Y-74781089D01*
X138782205Y-74638232D01*
X138829824Y-74447756D01*
X138877443Y-74352518D01*
X138972681Y-74257280D01*
X139115539Y-74209660D01*
X139210777Y-74209660D01*
X139353634Y-74257280D01*
X139401253Y-74304899D01*
X139734586Y-74209660D02*
X140401253Y-74209660D01*
X139972681Y-75209660D01*
G04 #@! TO.C,22uH1*
X136500573Y-79471780D02*
X136024382Y-79471780D01*
X136024382Y-78471780D01*
X137357716Y-79471780D02*
X136786287Y-79471780D01*
X137072001Y-79471780D02*
X137072001Y-78471780D01*
X136976763Y-78614638D01*
X136881525Y-78709876D01*
X136786287Y-78757495D01*
D16*
X138733005Y-78777487D02*
X138752053Y-78758440D01*
X138790148Y-78739392D01*
X138885386Y-78739392D01*
X138923481Y-78758440D01*
X138942529Y-78777487D01*
X138961577Y-78815582D01*
X138961577Y-78853678D01*
X138942529Y-78910820D01*
X138713958Y-79139392D01*
X138961577Y-79139392D01*
X139113958Y-78777487D02*
X139133005Y-78758440D01*
X139171100Y-78739392D01*
X139266339Y-78739392D01*
X139304434Y-78758440D01*
X139323481Y-78777487D01*
X139342529Y-78815582D01*
X139342529Y-78853678D01*
X139323481Y-78910820D01*
X139094910Y-79139392D01*
X139342529Y-79139392D01*
X139685386Y-78872725D02*
X139685386Y-79139392D01*
X139513958Y-78872725D02*
X139513958Y-79082249D01*
X139533005Y-79120344D01*
X139571100Y-79139392D01*
X139628243Y-79139392D01*
X139666339Y-79120344D01*
X139685386Y-79101297D01*
X139875862Y-79139392D02*
X139875862Y-78739392D01*
X139875862Y-78929868D02*
X140104434Y-78929868D01*
X140104434Y-79139392D02*
X140104434Y-78739392D01*
X140504434Y-79139392D02*
X140275862Y-79139392D01*
X140390148Y-79139392D02*
X140390148Y-78739392D01*
X140352053Y-78796535D01*
X140313958Y-78834630D01*
X140275862Y-78853678D01*
G04 #@! TO.C,100nF1*
D15*
X117649262Y-56056826D02*
X117696881Y-56104445D01*
X117744500Y-56247302D01*
X117744500Y-56342540D01*
X117696881Y-56485398D01*
X117601643Y-56580636D01*
X117506405Y-56628255D01*
X117315929Y-56675874D01*
X117173072Y-56675874D01*
X116982596Y-56628255D01*
X116887358Y-56580636D01*
X116792120Y-56485398D01*
X116744500Y-56342540D01*
X116744500Y-56247302D01*
X116792120Y-56104445D01*
X116839739Y-56056826D01*
X116744500Y-55152064D02*
X116744500Y-55628255D01*
X117220691Y-55675874D01*
X117173072Y-55628255D01*
X117125453Y-55533017D01*
X117125453Y-55294921D01*
X117173072Y-55199683D01*
X117220691Y-55152064D01*
X117315929Y-55104445D01*
X117554024Y-55104445D01*
X117649262Y-55152064D01*
X117696881Y-55199683D01*
X117744500Y-55294921D01*
X117744500Y-55533017D01*
X117696881Y-55628255D01*
X117649262Y-55675874D01*
G04 #@! TO.C,100nF2*
X146259822Y-59596257D02*
X146307441Y-59643876D01*
X146355060Y-59786733D01*
X146355060Y-59881971D01*
X146307441Y-60024828D01*
X146212203Y-60120066D01*
X146116965Y-60167685D01*
X145926489Y-60215304D01*
X145783632Y-60215304D01*
X145593156Y-60167685D01*
X145497918Y-60120066D01*
X145402680Y-60024828D01*
X145355060Y-59881971D01*
X145355060Y-59786733D01*
X145402680Y-59643876D01*
X145450299Y-59596257D01*
X146355060Y-58643876D02*
X146355060Y-59215304D01*
X146355060Y-58929590D02*
X145355060Y-58929590D01*
X145497918Y-59024828D01*
X145593156Y-59120066D01*
X145640775Y-59215304D01*
X145355060Y-57739114D02*
X145355060Y-58215304D01*
X145831251Y-58262923D01*
X145783632Y-58215304D01*
X145736013Y-58120066D01*
X145736013Y-57881971D01*
X145783632Y-57786733D01*
X145831251Y-57739114D01*
X145926489Y-57691495D01*
X146164584Y-57691495D01*
X146259822Y-57739114D01*
X146307441Y-57786733D01*
X146355060Y-57881971D01*
X146355060Y-58120066D01*
X146307441Y-58215304D01*
X146259822Y-58262923D01*
G04 #@! TO.C,100nF3*
X150105382Y-87817026D02*
X150153001Y-87864645D01*
X150200620Y-88007502D01*
X150200620Y-88102740D01*
X150153001Y-88245598D01*
X150057763Y-88340836D01*
X149962525Y-88388455D01*
X149772049Y-88436074D01*
X149629192Y-88436074D01*
X149438716Y-88388455D01*
X149343478Y-88340836D01*
X149248240Y-88245598D01*
X149200620Y-88102740D01*
X149200620Y-88007502D01*
X149248240Y-87864645D01*
X149295859Y-87817026D01*
X150200620Y-87340836D02*
X150200620Y-87150360D01*
X150153001Y-87055121D01*
X150105382Y-87007502D01*
X149962525Y-86912264D01*
X149772049Y-86864645D01*
X149391097Y-86864645D01*
X149295859Y-86912264D01*
X149248240Y-86959883D01*
X149200620Y-87055121D01*
X149200620Y-87245598D01*
X149248240Y-87340836D01*
X149295859Y-87388455D01*
X149391097Y-87436074D01*
X149629192Y-87436074D01*
X149724430Y-87388455D01*
X149772049Y-87340836D01*
X149819668Y-87245598D01*
X149819668Y-87055121D01*
X149772049Y-86959883D01*
X149724430Y-86912264D01*
X149629192Y-86864645D01*
G04 #@! TO.C,100nF4*
X157898102Y-88943417D02*
X157945721Y-88991036D01*
X157993340Y-89133893D01*
X157993340Y-89229131D01*
X157945721Y-89371988D01*
X157850483Y-89467226D01*
X157755245Y-89514845D01*
X157564769Y-89562464D01*
X157421912Y-89562464D01*
X157231436Y-89514845D01*
X157136198Y-89467226D01*
X157040960Y-89371988D01*
X156993340Y-89229131D01*
X156993340Y-89133893D01*
X157040960Y-88991036D01*
X157088579Y-88943417D01*
X157993340Y-87991036D02*
X157993340Y-88562464D01*
X157993340Y-88276750D02*
X156993340Y-88276750D01*
X157136198Y-88371988D01*
X157231436Y-88467226D01*
X157279055Y-88562464D01*
X156993340Y-87657702D02*
X156993340Y-87038655D01*
X157374293Y-87371988D01*
X157374293Y-87229131D01*
X157421912Y-87133893D01*
X157469531Y-87086274D01*
X157564769Y-87038655D01*
X157802864Y-87038655D01*
X157898102Y-87086274D01*
X157945721Y-87133893D01*
X157993340Y-87229131D01*
X157993340Y-87514845D01*
X157945721Y-87610083D01*
X157898102Y-87657702D01*
G04 #@! TO.C,100nF5*
X165915102Y-70506862D02*
X165867483Y-70554481D01*
X165724626Y-70602100D01*
X165629388Y-70602100D01*
X165486531Y-70554481D01*
X165391293Y-70459243D01*
X165343674Y-70364005D01*
X165296055Y-70173529D01*
X165296055Y-70030672D01*
X165343674Y-69840196D01*
X165391293Y-69744958D01*
X165486531Y-69649720D01*
X165629388Y-69602100D01*
X165724626Y-69602100D01*
X165867483Y-69649720D01*
X165915102Y-69697339D01*
X166867483Y-70602100D02*
X166296055Y-70602100D01*
X166581769Y-70602100D02*
X166581769Y-69602100D01*
X166486531Y-69744958D01*
X166391293Y-69840196D01*
X166296055Y-69887815D01*
X167819864Y-70602100D02*
X167248436Y-70602100D01*
X167534150Y-70602100D02*
X167534150Y-69602100D01*
X167438912Y-69744958D01*
X167343674Y-69840196D01*
X167248436Y-69887815D01*
G04 #@! TO.C,C1*
X132695653Y-67656982D02*
X132648034Y-67704601D01*
X132505177Y-67752220D01*
X132409939Y-67752220D01*
X132267081Y-67704601D01*
X132171843Y-67609363D01*
X132124224Y-67514125D01*
X132076605Y-67323649D01*
X132076605Y-67180792D01*
X132124224Y-66990316D01*
X132171843Y-66895078D01*
X132267081Y-66799840D01*
X132409939Y-66752220D01*
X132505177Y-66752220D01*
X132648034Y-66799840D01*
X132695653Y-66847459D01*
X133648034Y-67752220D02*
X133076605Y-67752220D01*
X133362320Y-67752220D02*
X133362320Y-66752220D01*
X133267081Y-66895078D01*
X133171843Y-66990316D01*
X133076605Y-67037935D01*
G04 #@! TO.C,C2*
X132558493Y-75729102D02*
X132510874Y-75776721D01*
X132368017Y-75824340D01*
X132272779Y-75824340D01*
X132129921Y-75776721D01*
X132034683Y-75681483D01*
X131987064Y-75586245D01*
X131939445Y-75395769D01*
X131939445Y-75252912D01*
X131987064Y-75062436D01*
X132034683Y-74967198D01*
X132129921Y-74871960D01*
X132272779Y-74824340D01*
X132368017Y-74824340D01*
X132510874Y-74871960D01*
X132558493Y-74919579D01*
X132939445Y-74919579D02*
X132987064Y-74871960D01*
X133082302Y-74824340D01*
X133320398Y-74824340D01*
X133415636Y-74871960D01*
X133463255Y-74919579D01*
X133510874Y-75014817D01*
X133510874Y-75110055D01*
X133463255Y-75252912D01*
X132891826Y-75824340D01*
X133510874Y-75824340D01*
G04 #@! TO.C,J1*
X119086380Y-72266133D02*
X119800666Y-72266133D01*
X119943523Y-72313752D01*
X120038761Y-72408990D01*
X120086380Y-72551847D01*
X120086380Y-72647085D01*
X120086380Y-71266133D02*
X120086380Y-71837561D01*
X120086380Y-71551847D02*
X119086380Y-71551847D01*
X119229238Y-71647085D01*
X119324476Y-71742323D01*
X119372095Y-71837561D01*
G04 #@! TO.C,J3*
X173183300Y-71234893D02*
X173897586Y-71234893D01*
X174040443Y-71282512D01*
X174135681Y-71377750D01*
X174183300Y-71520607D01*
X174183300Y-71615845D01*
X173183300Y-70853940D02*
X173183300Y-70234893D01*
X173564253Y-70568226D01*
X173564253Y-70425369D01*
X173611872Y-70330131D01*
X173659491Y-70282512D01*
X173754729Y-70234893D01*
X173992824Y-70234893D01*
X174088062Y-70282512D01*
X174135681Y-70330131D01*
X174183300Y-70425369D01*
X174183300Y-70711083D01*
X174135681Y-70806321D01*
X174088062Y-70853940D01*
G04 #@! TO.C,J4*
X148363346Y-47732700D02*
X148363346Y-48446986D01*
X148315727Y-48589843D01*
X148220489Y-48685081D01*
X148077632Y-48732700D01*
X147982394Y-48732700D01*
X149268108Y-48066034D02*
X149268108Y-48732700D01*
X149030013Y-47685081D02*
X148791918Y-48399367D01*
X149410965Y-48399367D01*
G04 #@! TO.C,J5*
X148170306Y-92954860D02*
X148170306Y-93669146D01*
X148122687Y-93812003D01*
X148027449Y-93907241D01*
X147884592Y-93954860D01*
X147789354Y-93954860D01*
X149122687Y-92954860D02*
X148646497Y-92954860D01*
X148598878Y-93431051D01*
X148646497Y-93383432D01*
X148741735Y-93335813D01*
X148979830Y-93335813D01*
X149075068Y-93383432D01*
X149122687Y-93431051D01*
X149170306Y-93526289D01*
X149170306Y-93764384D01*
X149122687Y-93859622D01*
X149075068Y-93907241D01*
X148979830Y-93954860D01*
X148741735Y-93954860D01*
X148646497Y-93907241D01*
X148598878Y-93859622D01*
G04 #@! TO.C,J6*
X119402266Y-92939620D02*
X119402266Y-93653906D01*
X119354647Y-93796763D01*
X119259409Y-93892001D01*
X119116552Y-93939620D01*
X119021314Y-93939620D01*
X120307028Y-92939620D02*
X120116552Y-92939620D01*
X120021314Y-92987240D01*
X119973695Y-93034859D01*
X119878457Y-93177716D01*
X119830838Y-93368192D01*
X119830838Y-93749144D01*
X119878457Y-93844382D01*
X119926076Y-93892001D01*
X120021314Y-93939620D01*
X120211790Y-93939620D01*
X120307028Y-93892001D01*
X120354647Y-93844382D01*
X120402266Y-93749144D01*
X120402266Y-93511049D01*
X120354647Y-93415811D01*
X120307028Y-93368192D01*
X120211790Y-93320573D01*
X120021314Y-93320573D01*
X119926076Y-93368192D01*
X119878457Y-93415811D01*
X119830838Y-93511049D01*
G04 #@! TO.C,J9*
X106523860Y-71002733D02*
X107238146Y-71002733D01*
X107381003Y-71050352D01*
X107476241Y-71145590D01*
X107523860Y-71288447D01*
X107523860Y-71383685D01*
X107523860Y-70478923D02*
X107523860Y-70288447D01*
X107476241Y-70193209D01*
X107428622Y-70145590D01*
X107285765Y-70050352D01*
X107095289Y-70002733D01*
X106714337Y-70002733D01*
X106619099Y-70050352D01*
X106571480Y-70097971D01*
X106523860Y-70193209D01*
X106523860Y-70383685D01*
X106571480Y-70478923D01*
X106619099Y-70526542D01*
X106714337Y-70574161D01*
X106952432Y-70574161D01*
X107047670Y-70526542D01*
X107095289Y-70478923D01*
X107142908Y-70383685D01*
X107142908Y-70193209D01*
X107095289Y-70097971D01*
X107047670Y-70050352D01*
X106952432Y-70002733D01*
G04 #@! TO.C,SW1*
X117338100Y-53471059D02*
X116861910Y-53804392D01*
X117338100Y-54042487D02*
X116338100Y-54042487D01*
X116338100Y-53661535D01*
X116385720Y-53566297D01*
X116433339Y-53518678D01*
X116528577Y-53471059D01*
X116671434Y-53471059D01*
X116766672Y-53518678D01*
X116814291Y-53566297D01*
X116861910Y-53661535D01*
X116861910Y-54042487D01*
X117290481Y-53090106D02*
X117338100Y-52947249D01*
X117338100Y-52709154D01*
X117290481Y-52613916D01*
X117242862Y-52566297D01*
X117147624Y-52518678D01*
X117052386Y-52518678D01*
X116957148Y-52566297D01*
X116909529Y-52613916D01*
X116861910Y-52709154D01*
X116814291Y-52899630D01*
X116766672Y-52994868D01*
X116719053Y-53042487D01*
X116623815Y-53090106D01*
X116528577Y-53090106D01*
X116433339Y-53042487D01*
X116385720Y-52994868D01*
X116338100Y-52899630D01*
X116338100Y-52661535D01*
X116385720Y-52518678D01*
X116338100Y-52232963D02*
X116338100Y-51661535D01*
X117338100Y-51947249D02*
X116338100Y-51947249D01*
G04 #@! TO.C,Y1*
X127763020Y-75263830D02*
X127763020Y-74644782D01*
X128143973Y-74978116D01*
X128143973Y-74835259D01*
X128191592Y-74740020D01*
X128239211Y-74692401D01*
X128334449Y-74644782D01*
X128572544Y-74644782D01*
X128667782Y-74692401D01*
X128715401Y-74740020D01*
X128763020Y-74835259D01*
X128763020Y-75120973D01*
X128715401Y-75216211D01*
X128667782Y-75263830D01*
X127858259Y-74263830D02*
X127810640Y-74216211D01*
X127763020Y-74120973D01*
X127763020Y-73882878D01*
X127810640Y-73787640D01*
X127858259Y-73740020D01*
X127953497Y-73692401D01*
X128048735Y-73692401D01*
X128191592Y-73740020D01*
X128763020Y-74311449D01*
X128763020Y-73692401D01*
X128667782Y-73263830D02*
X128715401Y-73216211D01*
X128763020Y-73263830D01*
X128715401Y-73311449D01*
X128667782Y-73263830D01*
X128763020Y-73263830D01*
X127763020Y-72882878D02*
X127763020Y-72216211D01*
X128763020Y-72644782D01*
X127763020Y-71406687D02*
X127763020Y-71597163D01*
X127810640Y-71692401D01*
X127858259Y-71740020D01*
X128001116Y-71835259D01*
X128191592Y-71882878D01*
X128572544Y-71882878D01*
X128667782Y-71835259D01*
X128715401Y-71787640D01*
X128763020Y-71692401D01*
X128763020Y-71501925D01*
X128715401Y-71406687D01*
X128667782Y-71359068D01*
X128572544Y-71311449D01*
X128334449Y-71311449D01*
X128239211Y-71359068D01*
X128191592Y-71406687D01*
X128143973Y-71501925D01*
X128143973Y-71692401D01*
X128191592Y-71787640D01*
X128239211Y-71835259D01*
X128334449Y-71882878D01*
X128191592Y-70740020D02*
X128143973Y-70835259D01*
X128096354Y-70882878D01*
X128001116Y-70930497D01*
X127953497Y-70930497D01*
X127858259Y-70882878D01*
X127810640Y-70835259D01*
X127763020Y-70740020D01*
X127763020Y-70549544D01*
X127810640Y-70454306D01*
X127858259Y-70406687D01*
X127953497Y-70359068D01*
X128001116Y-70359068D01*
X128096354Y-70406687D01*
X128143973Y-70454306D01*
X128191592Y-70549544D01*
X128191592Y-70740020D01*
X128239211Y-70835259D01*
X128286830Y-70882878D01*
X128382068Y-70930497D01*
X128572544Y-70930497D01*
X128667782Y-70882878D01*
X128715401Y-70835259D01*
X128763020Y-70740020D01*
X128763020Y-70549544D01*
X128715401Y-70454306D01*
X128667782Y-70406687D01*
X128572544Y-70359068D01*
X128382068Y-70359068D01*
X128286830Y-70406687D01*
X128239211Y-70454306D01*
X128191592Y-70549544D01*
X128763020Y-69930497D02*
X127763020Y-69930497D01*
X128477306Y-69597163D01*
X127763020Y-69263830D01*
X128763020Y-69263830D01*
X128763020Y-68787640D02*
X127763020Y-68787640D01*
X128239211Y-68787640D02*
X128239211Y-68216211D01*
X128763020Y-68216211D02*
X127763020Y-68216211D01*
X128096354Y-67835259D02*
X128096354Y-67311449D01*
X128763020Y-67835259D01*
X128763020Y-67311449D01*
X132909369Y-72310310D02*
X132909369Y-72786500D01*
X132576036Y-71786500D02*
X132909369Y-72310310D01*
X133242702Y-71786500D01*
X134099845Y-72786500D02*
X133528417Y-72786500D01*
X133814131Y-72786500D02*
X133814131Y-71786500D01*
X133718893Y-71929358D01*
X133623655Y-72024596D01*
X133528417Y-72072215D01*
G04 #@! TO.C,C16*
X196682142Y-53242857D02*
X196729761Y-53290476D01*
X196777380Y-53433333D01*
X196777380Y-53528571D01*
X196729761Y-53671428D01*
X196634523Y-53766666D01*
X196539285Y-53814285D01*
X196348809Y-53861904D01*
X196205952Y-53861904D01*
X196015476Y-53814285D01*
X195920238Y-53766666D01*
X195825000Y-53671428D01*
X195777380Y-53528571D01*
X195777380Y-53433333D01*
X195825000Y-53290476D01*
X195872619Y-53242857D01*
X196777380Y-52290476D02*
X196777380Y-52861904D01*
X196777380Y-52576190D02*
X195777380Y-52576190D01*
X195920238Y-52671428D01*
X196015476Y-52766666D01*
X196063095Y-52861904D01*
X195777380Y-51433333D02*
X195777380Y-51623809D01*
X195825000Y-51719047D01*
X195872619Y-51766666D01*
X196015476Y-51861904D01*
X196205952Y-51909523D01*
X196586904Y-51909523D01*
X196682142Y-51861904D01*
X196729761Y-51814285D01*
X196777380Y-51719047D01*
X196777380Y-51528571D01*
X196729761Y-51433333D01*
X196682142Y-51385714D01*
X196586904Y-51338095D01*
X196348809Y-51338095D01*
X196253571Y-51385714D01*
X196205952Y-51433333D01*
X196158333Y-51528571D01*
X196158333Y-51719047D01*
X196205952Y-51814285D01*
X196253571Y-51861904D01*
X196348809Y-51909523D01*
G04 #@! TO.C,C17*
X204157142Y-53217857D02*
X204204761Y-53265476D01*
X204252380Y-53408333D01*
X204252380Y-53503571D01*
X204204761Y-53646428D01*
X204109523Y-53741666D01*
X204014285Y-53789285D01*
X203823809Y-53836904D01*
X203680952Y-53836904D01*
X203490476Y-53789285D01*
X203395238Y-53741666D01*
X203300000Y-53646428D01*
X203252380Y-53503571D01*
X203252380Y-53408333D01*
X203300000Y-53265476D01*
X203347619Y-53217857D01*
X204252380Y-52265476D02*
X204252380Y-52836904D01*
X204252380Y-52551190D02*
X203252380Y-52551190D01*
X203395238Y-52646428D01*
X203490476Y-52741666D01*
X203538095Y-52836904D01*
X203252380Y-51932142D02*
X203252380Y-51265476D01*
X204252380Y-51694047D01*
G04 #@! TO.C,C19*
X191937942Y-97967037D02*
X191985561Y-98014656D01*
X192033180Y-98157513D01*
X192033180Y-98252751D01*
X191985561Y-98395608D01*
X191890323Y-98490846D01*
X191795085Y-98538465D01*
X191604609Y-98586084D01*
X191461752Y-98586084D01*
X191271276Y-98538465D01*
X191176038Y-98490846D01*
X191080800Y-98395608D01*
X191033180Y-98252751D01*
X191033180Y-98157513D01*
X191080800Y-98014656D01*
X191128419Y-97967037D01*
X192033180Y-97014656D02*
X192033180Y-97586084D01*
X192033180Y-97300370D02*
X191033180Y-97300370D01*
X191176038Y-97395608D01*
X191271276Y-97490846D01*
X191318895Y-97586084D01*
X192033180Y-96538465D02*
X192033180Y-96347989D01*
X191985561Y-96252751D01*
X191937942Y-96205132D01*
X191795085Y-96109894D01*
X191604609Y-96062275D01*
X191223657Y-96062275D01*
X191128419Y-96109894D01*
X191080800Y-96157513D01*
X191033180Y-96252751D01*
X191033180Y-96443227D01*
X191080800Y-96538465D01*
X191128419Y-96586084D01*
X191223657Y-96633703D01*
X191461752Y-96633703D01*
X191556990Y-96586084D01*
X191604609Y-96538465D01*
X191652228Y-96443227D01*
X191652228Y-96252751D01*
X191604609Y-96157513D01*
X191556990Y-96109894D01*
X191461752Y-96062275D01*
G04 #@! TO.C,C20*
X204003262Y-96084937D02*
X204050881Y-96132556D01*
X204098500Y-96275413D01*
X204098500Y-96370651D01*
X204050881Y-96513508D01*
X203955643Y-96608746D01*
X203860405Y-96656365D01*
X203669929Y-96703984D01*
X203527072Y-96703984D01*
X203336596Y-96656365D01*
X203241358Y-96608746D01*
X203146120Y-96513508D01*
X203098500Y-96370651D01*
X203098500Y-96275413D01*
X203146120Y-96132556D01*
X203193739Y-96084937D01*
X203193739Y-95703984D02*
X203146120Y-95656365D01*
X203098500Y-95561127D01*
X203098500Y-95323032D01*
X203146120Y-95227794D01*
X203193739Y-95180175D01*
X203288977Y-95132556D01*
X203384215Y-95132556D01*
X203527072Y-95180175D01*
X204098500Y-95751603D01*
X204098500Y-95132556D01*
X203098500Y-94513508D02*
X203098500Y-94418270D01*
X203146120Y-94323032D01*
X203193739Y-94275413D01*
X203288977Y-94227794D01*
X203479453Y-94180175D01*
X203717548Y-94180175D01*
X203908024Y-94227794D01*
X204003262Y-94275413D01*
X204050881Y-94323032D01*
X204098500Y-94418270D01*
X204098500Y-94513508D01*
X204050881Y-94608746D01*
X204003262Y-94656365D01*
X203908024Y-94703984D01*
X203717548Y-94751603D01*
X203479453Y-94751603D01*
X203288977Y-94703984D01*
X203193739Y-94656365D01*
X203146120Y-94608746D01*
X203098500Y-94513508D01*
G04 #@! TO.C,J10*
X193174400Y-86942463D02*
X193888686Y-86942463D01*
X194031543Y-86990082D01*
X194126781Y-87085320D01*
X194174400Y-87228178D01*
X194174400Y-87323416D01*
X194174400Y-85942463D02*
X194174400Y-86513892D01*
X194174400Y-86228178D02*
X193174400Y-86228178D01*
X193317258Y-86323416D01*
X193412496Y-86418654D01*
X193460115Y-86513892D01*
X193174400Y-85323416D02*
X193174400Y-85228178D01*
X193222020Y-85132940D01*
X193269639Y-85085320D01*
X193364877Y-85037701D01*
X193555353Y-84990082D01*
X193793448Y-84990082D01*
X193983924Y-85037701D01*
X194079162Y-85085320D01*
X194126781Y-85132940D01*
X194174400Y-85228178D01*
X194174400Y-85323416D01*
X194126781Y-85418654D01*
X194079162Y-85466273D01*
X193983924Y-85513892D01*
X193793448Y-85561511D01*
X193555353Y-85561511D01*
X193364877Y-85513892D01*
X193269639Y-85466273D01*
X193222020Y-85418654D01*
X193174400Y-85323416D01*
G04 #@! TO.C,R5*
D16*
X203983333Y-57180952D02*
X203850000Y-56990476D01*
X203754761Y-57180952D02*
X203754761Y-56780952D01*
X203907142Y-56780952D01*
X203945238Y-56800000D01*
X203964285Y-56819047D01*
X203983333Y-56857142D01*
X203983333Y-56914285D01*
X203964285Y-56952380D01*
X203945238Y-56971428D01*
X203907142Y-56990476D01*
X203754761Y-56990476D01*
X204345238Y-56780952D02*
X204154761Y-56780952D01*
X204135714Y-56971428D01*
X204154761Y-56952380D01*
X204192857Y-56933333D01*
X204288095Y-56933333D01*
X204326190Y-56952380D01*
X204345238Y-56971428D01*
X204364285Y-57009523D01*
X204364285Y-57104761D01*
X204345238Y-57142857D01*
X204326190Y-57161904D01*
X204288095Y-57180952D01*
X204192857Y-57180952D01*
X204154761Y-57161904D01*
X204135714Y-57142857D01*
G04 #@! TO.C,R6*
X203133212Y-59814346D02*
X202942736Y-59947680D01*
X203133212Y-60042918D02*
X202733212Y-60042918D01*
X202733212Y-59890537D01*
X202752260Y-59852441D01*
X202771307Y-59833394D01*
X202809402Y-59814346D01*
X202866545Y-59814346D01*
X202904640Y-59833394D01*
X202923688Y-59852441D01*
X202942736Y-59890537D01*
X202942736Y-60042918D01*
X202733212Y-59471489D02*
X202733212Y-59547680D01*
X202752260Y-59585775D01*
X202771307Y-59604822D01*
X202828450Y-59642918D01*
X202904640Y-59661965D01*
X203057021Y-59661965D01*
X203095117Y-59642918D01*
X203114164Y-59623870D01*
X203133212Y-59585775D01*
X203133212Y-59509584D01*
X203114164Y-59471489D01*
X203095117Y-59452441D01*
X203057021Y-59433394D01*
X202961783Y-59433394D01*
X202923688Y-59452441D01*
X202904640Y-59471489D01*
X202885593Y-59509584D01*
X202885593Y-59585775D01*
X202904640Y-59623870D01*
X202923688Y-59642918D01*
X202961783Y-59661965D01*
G04 #@! TO.C,R7*
X203561173Y-98394132D02*
X203427840Y-98203656D01*
X203332601Y-98394132D02*
X203332601Y-97994132D01*
X203484982Y-97994132D01*
X203523078Y-98013180D01*
X203542125Y-98032227D01*
X203561173Y-98070322D01*
X203561173Y-98127465D01*
X203542125Y-98165560D01*
X203523078Y-98184608D01*
X203484982Y-98203656D01*
X203332601Y-98203656D01*
X203694506Y-97994132D02*
X203961173Y-97994132D01*
X203789744Y-98394132D01*
G04 #@! TO.C,R8*
X202724392Y-101332926D02*
X202533916Y-101466260D01*
X202724392Y-101561498D02*
X202324392Y-101561498D01*
X202324392Y-101409117D01*
X202343440Y-101371021D01*
X202362487Y-101351974D01*
X202400582Y-101332926D01*
X202457725Y-101332926D01*
X202495820Y-101351974D01*
X202514868Y-101371021D01*
X202533916Y-101409117D01*
X202533916Y-101561498D01*
X202495820Y-101104355D02*
X202476773Y-101142450D01*
X202457725Y-101161498D01*
X202419630Y-101180545D01*
X202400582Y-101180545D01*
X202362487Y-101161498D01*
X202343440Y-101142450D01*
X202324392Y-101104355D01*
X202324392Y-101028164D01*
X202343440Y-100990069D01*
X202362487Y-100971021D01*
X202400582Y-100951974D01*
X202419630Y-100951974D01*
X202457725Y-100971021D01*
X202476773Y-100990069D01*
X202495820Y-101028164D01*
X202495820Y-101104355D01*
X202514868Y-101142450D01*
X202533916Y-101161498D01*
X202572011Y-101180545D01*
X202648201Y-101180545D01*
X202686297Y-101161498D01*
X202705344Y-101142450D01*
X202724392Y-101104355D01*
X202724392Y-101028164D01*
X202705344Y-100990069D01*
X202686297Y-100971021D01*
X202648201Y-100951974D01*
X202572011Y-100951974D01*
X202533916Y-100971021D01*
X202514868Y-100990069D01*
X202495820Y-101028164D01*
G04 #@! TO.C,J7*
D15*
X198059746Y-102669360D02*
X198059746Y-103383646D01*
X198012127Y-103526503D01*
X197916889Y-103621741D01*
X197774032Y-103669360D01*
X197678794Y-103669360D01*
X198440699Y-102669360D02*
X199107365Y-102669360D01*
X198678794Y-103669360D01*
G04 #@! TO.C,J8*
X193052380Y-64813333D02*
X193766666Y-64813333D01*
X193909523Y-64860952D01*
X194004761Y-64956190D01*
X194052380Y-65099047D01*
X194052380Y-65194285D01*
X193480952Y-64194285D02*
X193433333Y-64289523D01*
X193385714Y-64337142D01*
X193290476Y-64384761D01*
X193242857Y-64384761D01*
X193147619Y-64337142D01*
X193100000Y-64289523D01*
X193052380Y-64194285D01*
X193052380Y-64003809D01*
X193100000Y-63908571D01*
X193147619Y-63860952D01*
X193242857Y-63813333D01*
X193290476Y-63813333D01*
X193385714Y-63860952D01*
X193433333Y-63908571D01*
X193480952Y-64003809D01*
X193480952Y-64194285D01*
X193528571Y-64289523D01*
X193576190Y-64337142D01*
X193671428Y-64384761D01*
X193861904Y-64384761D01*
X193957142Y-64337142D01*
X194004761Y-64289523D01*
X194052380Y-64194285D01*
X194052380Y-64003809D01*
X194004761Y-63908571D01*
X193957142Y-63860952D01*
X193861904Y-63813333D01*
X193671428Y-63813333D01*
X193576190Y-63860952D01*
X193528571Y-63908571D01*
X193480952Y-64003809D01*
G04 #@! TO.C,R9*
D16*
X203594373Y-108467772D02*
X203461040Y-108277296D01*
X203365801Y-108467772D02*
X203365801Y-108067772D01*
X203518182Y-108067772D01*
X203556278Y-108086820D01*
X203575325Y-108105867D01*
X203594373Y-108143962D01*
X203594373Y-108201105D01*
X203575325Y-108239200D01*
X203556278Y-108258248D01*
X203518182Y-108277296D01*
X203365801Y-108277296D01*
X203784849Y-108467772D02*
X203861040Y-108467772D01*
X203899135Y-108448724D01*
X203918182Y-108429677D01*
X203956278Y-108372534D01*
X203975325Y-108296343D01*
X203975325Y-108143962D01*
X203956278Y-108105867D01*
X203937230Y-108086820D01*
X203899135Y-108067772D01*
X203822944Y-108067772D01*
X203784849Y-108086820D01*
X203765801Y-108105867D01*
X203746754Y-108143962D01*
X203746754Y-108239200D01*
X203765801Y-108277296D01*
X203784849Y-108296343D01*
X203822944Y-108315391D01*
X203899135Y-108315391D01*
X203937230Y-108296343D01*
X203956278Y-108277296D01*
X203975325Y-108239200D01*
G04 #@! TO.C,R10*
X203810357Y-66865552D02*
X203677023Y-66675076D01*
X203581785Y-66865552D02*
X203581785Y-66465552D01*
X203734166Y-66465552D01*
X203772261Y-66484600D01*
X203791309Y-66503647D01*
X203810357Y-66541742D01*
X203810357Y-66598885D01*
X203791309Y-66636980D01*
X203772261Y-66656028D01*
X203734166Y-66675076D01*
X203581785Y-66675076D01*
X204191309Y-66865552D02*
X203962738Y-66865552D01*
X204077023Y-66865552D02*
X204077023Y-66465552D01*
X204038928Y-66522695D01*
X204000833Y-66560790D01*
X203962738Y-66579838D01*
X204438928Y-66465552D02*
X204477023Y-66465552D01*
X204515119Y-66484600D01*
X204534166Y-66503647D01*
X204553214Y-66541742D01*
X204572261Y-66617933D01*
X204572261Y-66713171D01*
X204553214Y-66789361D01*
X204534166Y-66827457D01*
X204515119Y-66846504D01*
X204477023Y-66865552D01*
X204438928Y-66865552D01*
X204400833Y-66846504D01*
X204381785Y-66827457D01*
X204362738Y-66789361D01*
X204343690Y-66713171D01*
X204343690Y-66617933D01*
X204362738Y-66541742D01*
X204381785Y-66503647D01*
X204400833Y-66484600D01*
X204438928Y-66465552D01*
G04 #@! TO.C,J13*
D15*
X196600476Y-68852380D02*
X196600476Y-69566666D01*
X196552857Y-69709523D01*
X196457619Y-69804761D01*
X196314761Y-69852380D01*
X196219523Y-69852380D01*
X197600476Y-69852380D02*
X197029047Y-69852380D01*
X197314761Y-69852380D02*
X197314761Y-68852380D01*
X197219523Y-68995238D01*
X197124285Y-69090476D01*
X197029047Y-69138095D01*
X197933809Y-68852380D02*
X198552857Y-68852380D01*
X198219523Y-69233333D01*
X198362380Y-69233333D01*
X198457619Y-69280952D01*
X198505238Y-69328571D01*
X198552857Y-69423809D01*
X198552857Y-69661904D01*
X198505238Y-69757142D01*
X198457619Y-69804761D01*
X198362380Y-69852380D01*
X198076666Y-69852380D01*
X197981428Y-69804761D01*
X197933809Y-69757142D01*
G04 #@! TO.C,J14*
X197819776Y-80180200D02*
X197819776Y-80894486D01*
X197772157Y-81037343D01*
X197676919Y-81132581D01*
X197534061Y-81180200D01*
X197438823Y-81180200D01*
X198819776Y-81180200D02*
X198248347Y-81180200D01*
X198534061Y-81180200D02*
X198534061Y-80180200D01*
X198438823Y-80323058D01*
X198343585Y-80418296D01*
X198248347Y-80465915D01*
X199676919Y-80513534D02*
X199676919Y-81180200D01*
X199438823Y-80132581D02*
X199200728Y-80846867D01*
X199819776Y-80846867D01*
G04 #@! TO.C,J12*
X192928020Y-104557363D02*
X193642306Y-104557363D01*
X193785163Y-104604982D01*
X193880401Y-104700220D01*
X193928020Y-104843078D01*
X193928020Y-104938316D01*
X193928020Y-103557363D02*
X193928020Y-104128792D01*
X193928020Y-103843078D02*
X192928020Y-103843078D01*
X193070878Y-103938316D01*
X193166116Y-104033554D01*
X193213735Y-104128792D01*
X193023259Y-103176411D02*
X192975640Y-103128792D01*
X192928020Y-103033554D01*
X192928020Y-102795459D01*
X192975640Y-102700220D01*
X193023259Y-102652601D01*
X193118497Y-102604982D01*
X193213735Y-102604982D01*
X193356592Y-102652601D01*
X193928020Y-103224030D01*
X193928020Y-102604982D01*
G04 #@! TO.C,J15*
X193052380Y-51539523D02*
X193766666Y-51539523D01*
X193909523Y-51587142D01*
X194004761Y-51682380D01*
X194052380Y-51825238D01*
X194052380Y-51920476D01*
X194052380Y-50539523D02*
X194052380Y-51110952D01*
X194052380Y-50825238D02*
X193052380Y-50825238D01*
X193195238Y-50920476D01*
X193290476Y-51015714D01*
X193338095Y-51110952D01*
X193052380Y-49634761D02*
X193052380Y-50110952D01*
X193528571Y-50158571D01*
X193480952Y-50110952D01*
X193433333Y-50015714D01*
X193433333Y-49777619D01*
X193480952Y-49682380D01*
X193528571Y-49634761D01*
X193623809Y-49587142D01*
X193861904Y-49587142D01*
X193957142Y-49634761D01*
X194004761Y-49682380D01*
X194052380Y-49777619D01*
X194052380Y-50015714D01*
X194004761Y-50110952D01*
X193957142Y-50158571D01*
G04 #@! TO.C,*
G04 #@! TO.C,C1*
D17*
X93607995Y-45497335D02*
X93465138Y-45497335D01*
X93536566Y-45497335D02*
X93536566Y-45247335D01*
X93512757Y-45283049D01*
X93488947Y-45306859D01*
X93465138Y-45318763D01*
X93762757Y-45247335D02*
X93786566Y-45247335D01*
X93810376Y-45259240D01*
X93822280Y-45271144D01*
X93834185Y-45294954D01*
X93846090Y-45342573D01*
X93846090Y-45402097D01*
X93834185Y-45449716D01*
X93822280Y-45473525D01*
X93810376Y-45485430D01*
X93786566Y-45497335D01*
X93762757Y-45497335D01*
X93738947Y-45485430D01*
X93727042Y-45473525D01*
X93715138Y-45449716D01*
X93703233Y-45402097D01*
X93703233Y-45342573D01*
X93715138Y-45294954D01*
X93727042Y-45271144D01*
X93738947Y-45259240D01*
X93762757Y-45247335D01*
X94000852Y-45247335D02*
X94024661Y-45247335D01*
X94048471Y-45259240D01*
X94060376Y-45271144D01*
X94072280Y-45294954D01*
X94084185Y-45342573D01*
X94084185Y-45402097D01*
X94072280Y-45449716D01*
X94060376Y-45473525D01*
X94048471Y-45485430D01*
X94024661Y-45497335D01*
X94000852Y-45497335D01*
X93977042Y-45485430D01*
X93965138Y-45473525D01*
X93953233Y-45449716D01*
X93941328Y-45402097D01*
X93941328Y-45342573D01*
X93953233Y-45294954D01*
X93965138Y-45271144D01*
X93977042Y-45259240D01*
X94000852Y-45247335D01*
X94191328Y-45330668D02*
X94191328Y-45497335D01*
X94191328Y-45354478D02*
X94203233Y-45342573D01*
X94227042Y-45330668D01*
X94262757Y-45330668D01*
X94286566Y-45342573D01*
X94298471Y-45366382D01*
X94298471Y-45497335D01*
X94500852Y-45366382D02*
X94417519Y-45366382D01*
X94417519Y-45497335D02*
X94417519Y-45247335D01*
X94536566Y-45247335D01*
D18*
X94924185Y-46820906D02*
X94936090Y-46832811D01*
X94947995Y-46868525D01*
X94947995Y-46892335D01*
X94936090Y-46928049D01*
X94912280Y-46951859D01*
X94888471Y-46963763D01*
X94840852Y-46975668D01*
X94805138Y-46975668D01*
X94757519Y-46963763D01*
X94733709Y-46951859D01*
X94709900Y-46928049D01*
X94697995Y-46892335D01*
X94697995Y-46868525D01*
X94709900Y-46832811D01*
X94721804Y-46820906D01*
X94947995Y-46582811D02*
X94947995Y-46725668D01*
X94947995Y-46654240D02*
X94697995Y-46654240D01*
X94733709Y-46678049D01*
X94757519Y-46701859D01*
X94769423Y-46725668D01*
G04 #@! TO.C,*
D15*
G04 #@! TO.C,IC1*
X118438413Y-124449060D02*
X118105080Y-123972870D01*
X117866984Y-124449060D02*
X117866984Y-123449060D01*
X118247937Y-123449060D01*
X118343175Y-123496680D01*
X118390794Y-123544299D01*
X118438413Y-123639537D01*
X118438413Y-123782394D01*
X118390794Y-123877632D01*
X118343175Y-123925251D01*
X118247937Y-123972870D01*
X117866984Y-123972870D01*
X118724127Y-123449060D02*
X119295556Y-123449060D01*
X119009841Y-124449060D02*
X119009841Y-123449060D01*
X120200318Y-124353822D02*
X120152699Y-124401441D01*
X120009841Y-124449060D01*
X119914603Y-124449060D01*
X119771746Y-124401441D01*
X119676508Y-124306203D01*
X119628889Y-124210965D01*
X119581270Y-124020489D01*
X119581270Y-123877632D01*
X119628889Y-123687156D01*
X119676508Y-123591918D01*
X119771746Y-123496680D01*
X119914603Y-123449060D01*
X120009841Y-123449060D01*
X120152699Y-123496680D01*
X120200318Y-123544299D01*
X120390794Y-124544299D02*
X121152699Y-124544299D01*
X121390794Y-124449060D02*
X121390794Y-123449060D01*
X121771746Y-123449060D01*
X121866984Y-123496680D01*
X121914603Y-123544299D01*
X121962222Y-123639537D01*
X121962222Y-123782394D01*
X121914603Y-123877632D01*
X121866984Y-123925251D01*
X121771746Y-123972870D01*
X121390794Y-123972870D01*
X122962222Y-124353822D02*
X122914603Y-124401441D01*
X122771746Y-124449060D01*
X122676508Y-124449060D01*
X122533651Y-124401441D01*
X122438413Y-124306203D01*
X122390794Y-124210965D01*
X122343175Y-124020489D01*
X122343175Y-123877632D01*
X122390794Y-123687156D01*
X122438413Y-123591918D01*
X122533651Y-123496680D01*
X122676508Y-123449060D01*
X122771746Y-123449060D01*
X122914603Y-123496680D01*
X122962222Y-123544299D01*
X123724127Y-123925251D02*
X123390794Y-123925251D01*
X123390794Y-124449060D02*
X123390794Y-123449060D01*
X123866984Y-123449060D01*
X124390794Y-123877632D02*
X124295556Y-123830013D01*
X124247937Y-123782394D01*
X124200318Y-123687156D01*
X124200318Y-123639537D01*
X124247937Y-123544299D01*
X124295556Y-123496680D01*
X124390794Y-123449060D01*
X124581270Y-123449060D01*
X124676508Y-123496680D01*
X124724127Y-123544299D01*
X124771746Y-123639537D01*
X124771746Y-123687156D01*
X124724127Y-123782394D01*
X124676508Y-123830013D01*
X124581270Y-123877632D01*
X124390794Y-123877632D01*
X124295556Y-123925251D01*
X124247937Y-123972870D01*
X124200318Y-124068108D01*
X124200318Y-124258584D01*
X124247937Y-124353822D01*
X124295556Y-124401441D01*
X124390794Y-124449060D01*
X124581270Y-124449060D01*
X124676508Y-124401441D01*
X124724127Y-124353822D01*
X124771746Y-124258584D01*
X124771746Y-124068108D01*
X124724127Y-123972870D01*
X124676508Y-123925251D01*
X124581270Y-123877632D01*
X125676508Y-123449060D02*
X125200318Y-123449060D01*
X125152699Y-123925251D01*
X125200318Y-123877632D01*
X125295556Y-123830013D01*
X125533651Y-123830013D01*
X125628889Y-123877632D01*
X125676508Y-123925251D01*
X125724127Y-124020489D01*
X125724127Y-124258584D01*
X125676508Y-124353822D01*
X125628889Y-124401441D01*
X125533651Y-124449060D01*
X125295556Y-124449060D01*
X125200318Y-124401441D01*
X125152699Y-124353822D01*
X126105080Y-123544299D02*
X126152699Y-123496680D01*
X126247937Y-123449060D01*
X126486032Y-123449060D01*
X126581270Y-123496680D01*
X126628889Y-123544299D01*
X126676508Y-123639537D01*
X126676508Y-123734775D01*
X126628889Y-123877632D01*
X126057460Y-124449060D01*
X126676508Y-124449060D01*
X127009841Y-123449060D02*
X127628889Y-123449060D01*
X127295556Y-123830013D01*
X127438413Y-123830013D01*
X127533651Y-123877632D01*
X127581270Y-123925251D01*
X127628889Y-124020489D01*
X127628889Y-124258584D01*
X127581270Y-124353822D01*
X127533651Y-124401441D01*
X127438413Y-124449060D01*
X127152699Y-124449060D01*
X127057460Y-124401441D01*
X127009841Y-124353822D01*
X127914603Y-123449060D02*
X128486032Y-123449060D01*
X128200318Y-124449060D02*
X128200318Y-123449060D01*
G04 #@! TO.C,JP2*
X130177460Y-123807893D02*
X130891746Y-123807893D01*
X131034603Y-123855512D01*
X131129841Y-123950750D01*
X131177460Y-124093607D01*
X131177460Y-124188845D01*
X131177460Y-123331702D02*
X130177460Y-123331702D01*
X130177460Y-122950750D01*
X130225080Y-122855512D01*
X130272699Y-122807893D01*
X130367937Y-122760274D01*
X130510794Y-122760274D01*
X130606032Y-122807893D01*
X130653651Y-122855512D01*
X130701270Y-122950750D01*
X130701270Y-123331702D01*
X130272699Y-122379321D02*
X130225080Y-122331702D01*
X130177460Y-122236464D01*
X130177460Y-121998369D01*
X130225080Y-121903131D01*
X130272699Y-121855512D01*
X130367937Y-121807893D01*
X130463175Y-121807893D01*
X130606032Y-121855512D01*
X131177460Y-122426940D01*
X131177460Y-121807893D01*
G04 #@! TO.C,C1*
X116953651Y-122641940D02*
X116382222Y-122641940D01*
X116667937Y-122641940D02*
X116667937Y-121641940D01*
X116572699Y-121784798D01*
X116477460Y-121880036D01*
X116382222Y-121927655D01*
X117572699Y-121641940D02*
X117667937Y-121641940D01*
X117763175Y-121689560D01*
X117810794Y-121737179D01*
X117858413Y-121832417D01*
X117906032Y-122022893D01*
X117906032Y-122260988D01*
X117858413Y-122451464D01*
X117810794Y-122546702D01*
X117763175Y-122594321D01*
X117667937Y-122641940D01*
X117572699Y-122641940D01*
X117477460Y-122594321D01*
X117429841Y-122546702D01*
X117382222Y-122451464D01*
X117334603Y-122260988D01*
X117334603Y-122022893D01*
X117382222Y-121832417D01*
X117429841Y-121737179D01*
X117477460Y-121689560D01*
X117572699Y-121641940D01*
X118763175Y-121975274D02*
X118763175Y-122641940D01*
X118334603Y-121975274D02*
X118334603Y-122499083D01*
X118382222Y-122594321D01*
X118477460Y-122641940D01*
X118620318Y-122641940D01*
X118715556Y-122594321D01*
X118763175Y-122546702D01*
X119572699Y-122118131D02*
X119239365Y-122118131D01*
X119239365Y-122641940D02*
X119239365Y-121641940D01*
X119715556Y-121641940D01*
D18*
X117983413Y-124818845D02*
X117971508Y-124830750D01*
X117935794Y-124842655D01*
X117911984Y-124842655D01*
X117876270Y-124830750D01*
X117852460Y-124806940D01*
X117840556Y-124783131D01*
X117828651Y-124735512D01*
X117828651Y-124699798D01*
X117840556Y-124652179D01*
X117852460Y-124628369D01*
X117876270Y-124604560D01*
X117911984Y-124592655D01*
X117935794Y-124592655D01*
X117971508Y-124604560D01*
X117983413Y-124616464D01*
X118221508Y-124842655D02*
X118078651Y-124842655D01*
X118150080Y-124842655D02*
X118150080Y-124592655D01*
X118126270Y-124628369D01*
X118102460Y-124652179D01*
X118078651Y-124664083D01*
G04 #@! TO.C,C2*
D15*
X124727460Y-125800988D02*
X124727460Y-126372417D01*
X124727460Y-126086702D02*
X123727460Y-126086702D01*
X123870318Y-126181940D01*
X123965556Y-126277179D01*
X124013175Y-126372417D01*
X123727460Y-125181940D02*
X123727460Y-125086702D01*
X123775080Y-124991464D01*
X123822699Y-124943845D01*
X123917937Y-124896226D01*
X124108413Y-124848607D01*
X124346508Y-124848607D01*
X124536984Y-124896226D01*
X124632222Y-124943845D01*
X124679841Y-124991464D01*
X124727460Y-125086702D01*
X124727460Y-125181940D01*
X124679841Y-125277179D01*
X124632222Y-125324798D01*
X124536984Y-125372417D01*
X124346508Y-125420036D01*
X124108413Y-125420036D01*
X123917937Y-125372417D01*
X123822699Y-125324798D01*
X123775080Y-125277179D01*
X123727460Y-125181940D01*
X124060794Y-123991464D02*
X124727460Y-123991464D01*
X124060794Y-124420036D02*
X124584603Y-124420036D01*
X124679841Y-124372417D01*
X124727460Y-124277179D01*
X124727460Y-124134321D01*
X124679841Y-124039083D01*
X124632222Y-123991464D01*
X124203651Y-123181940D02*
X124203651Y-123515274D01*
X124727460Y-123515274D02*
X123727460Y-123515274D01*
X123727460Y-123039083D01*
D18*
X123194365Y-124771226D02*
X123206270Y-124783131D01*
X123218175Y-124818845D01*
X123218175Y-124842655D01*
X123206270Y-124878369D01*
X123182460Y-124902179D01*
X123158651Y-124914083D01*
X123111032Y-124925988D01*
X123075318Y-124925988D01*
X123027699Y-124914083D01*
X123003889Y-124902179D01*
X122980080Y-124878369D01*
X122968175Y-124842655D01*
X122968175Y-124818845D01*
X122980080Y-124783131D01*
X122991984Y-124771226D01*
X122991984Y-124675988D02*
X122980080Y-124664083D01*
X122968175Y-124640274D01*
X122968175Y-124580750D01*
X122980080Y-124556940D01*
X122991984Y-124545036D01*
X123015794Y-124533131D01*
X123039603Y-124533131D01*
X123075318Y-124545036D01*
X123218175Y-124687893D01*
X123218175Y-124533131D01*
G04 #@! TO.C,R3*
D15*
X128537460Y-124943845D02*
X128537460Y-125515274D01*
X128537460Y-125229560D02*
X127537460Y-125229560D01*
X127680318Y-125324798D01*
X127775556Y-125420036D01*
X127823175Y-125515274D01*
X128537460Y-124515274D02*
X127537460Y-124515274D01*
X128537460Y-123943845D02*
X127966032Y-124372417D01*
X127537460Y-123943845D02*
X128108889Y-124515274D01*
D18*
X127028175Y-124771226D02*
X126909127Y-124854560D01*
X127028175Y-124914083D02*
X126778175Y-124914083D01*
X126778175Y-124818845D01*
X126790080Y-124795036D01*
X126801984Y-124783131D01*
X126825794Y-124771226D01*
X126861508Y-124771226D01*
X126885318Y-124783131D01*
X126897222Y-124795036D01*
X126909127Y-124818845D01*
X126909127Y-124914083D01*
X126778175Y-124687893D02*
X126778175Y-124533131D01*
X126873413Y-124616464D01*
X126873413Y-124580750D01*
X126885318Y-124556940D01*
X126897222Y-124545036D01*
X126921032Y-124533131D01*
X126980556Y-124533131D01*
X127004365Y-124545036D01*
X127016270Y-124556940D01*
X127028175Y-124580750D01*
X127028175Y-124652179D01*
X127016270Y-124675988D01*
X127004365Y-124687893D01*
G04 #@! TO.C,B1*
D15*
X112732222Y-112369798D02*
X112779841Y-112417417D01*
X112827460Y-112560274D01*
X112827460Y-112655512D01*
X112779841Y-112798369D01*
X112684603Y-112893607D01*
X112589365Y-112941226D01*
X112398889Y-112988845D01*
X112256032Y-112988845D01*
X112065556Y-112941226D01*
X111970318Y-112893607D01*
X111875080Y-112798369D01*
X111827460Y-112655512D01*
X111827460Y-112560274D01*
X111875080Y-112417417D01*
X111922699Y-112369798D01*
X112827460Y-111369798D02*
X112351270Y-111703131D01*
X112827460Y-111941226D02*
X111827460Y-111941226D01*
X111827460Y-111560274D01*
X111875080Y-111465036D01*
X111922699Y-111417417D01*
X112017937Y-111369798D01*
X112160794Y-111369798D01*
X112256032Y-111417417D01*
X112303651Y-111465036D01*
X112351270Y-111560274D01*
X112351270Y-111941226D01*
X112827460Y-110417417D02*
X112827460Y-110988845D01*
X112827460Y-110703131D02*
X111827460Y-110703131D01*
X111970318Y-110798369D01*
X112065556Y-110893607D01*
X112113175Y-110988845D01*
X111922699Y-110036464D02*
X111875080Y-109988845D01*
X111827460Y-109893607D01*
X111827460Y-109655512D01*
X111875080Y-109560274D01*
X111922699Y-109512655D01*
X112017937Y-109465036D01*
X112113175Y-109465036D01*
X112256032Y-109512655D01*
X112827460Y-110084083D01*
X112827460Y-109465036D01*
X111922699Y-109084083D02*
X111875080Y-109036464D01*
X111827460Y-108941226D01*
X111827460Y-108703131D01*
X111875080Y-108607893D01*
X111922699Y-108560274D01*
X112017937Y-108512655D01*
X112113175Y-108512655D01*
X112256032Y-108560274D01*
X112827460Y-109131702D01*
X112827460Y-108512655D01*
X111827460Y-107893607D02*
X111827460Y-107798369D01*
X111875080Y-107703131D01*
X111922699Y-107655512D01*
X112017937Y-107607893D01*
X112208413Y-107560274D01*
X112446508Y-107560274D01*
X112636984Y-107607893D01*
X112732222Y-107655512D01*
X112779841Y-107703131D01*
X112827460Y-107798369D01*
X112827460Y-107893607D01*
X112779841Y-107988845D01*
X112732222Y-108036464D01*
X112636984Y-108084083D01*
X112446508Y-108131702D01*
X112208413Y-108131702D01*
X112017937Y-108084083D01*
X111922699Y-108036464D01*
X111875080Y-107988845D01*
X111827460Y-107893607D01*
G04 #@! TO.C,J2*
X172654680Y-112093493D02*
X173368966Y-112093493D01*
X173511823Y-112141112D01*
X173607061Y-112236350D01*
X173654680Y-112379207D01*
X173654680Y-112474445D01*
X172749919Y-111664921D02*
X172702300Y-111617302D01*
X172654680Y-111522064D01*
X172654680Y-111283969D01*
X172702300Y-111188731D01*
X172749919Y-111141112D01*
X172845157Y-111093493D01*
X172940395Y-111093493D01*
X173083252Y-111141112D01*
X173654680Y-111712540D01*
X173654680Y-111093493D01*
G04 #@! TO.C,C1*
X181306680Y-118970540D02*
X180735252Y-118970540D01*
X181020966Y-118970540D02*
X181020966Y-117970540D01*
X180925728Y-118113398D01*
X180830490Y-118208636D01*
X180735252Y-118256255D01*
X181925728Y-117970540D02*
X182020966Y-117970540D01*
X182116204Y-118018160D01*
X182163823Y-118065779D01*
X182211442Y-118161017D01*
X182259061Y-118351493D01*
X182259061Y-118589588D01*
X182211442Y-118780064D01*
X182163823Y-118875302D01*
X182116204Y-118922921D01*
X182020966Y-118970540D01*
X181925728Y-118970540D01*
X181830490Y-118922921D01*
X181782871Y-118875302D01*
X181735252Y-118780064D01*
X181687633Y-118589588D01*
X181687633Y-118351493D01*
X181735252Y-118161017D01*
X181782871Y-118065779D01*
X181830490Y-118018160D01*
X181925728Y-117970540D01*
X182878109Y-117970540D02*
X182973347Y-117970540D01*
X183068585Y-118018160D01*
X183116204Y-118065779D01*
X183163823Y-118161017D01*
X183211442Y-118351493D01*
X183211442Y-118589588D01*
X183163823Y-118780064D01*
X183116204Y-118875302D01*
X183068585Y-118922921D01*
X182973347Y-118970540D01*
X182878109Y-118970540D01*
X182782871Y-118922921D01*
X182735252Y-118875302D01*
X182687633Y-118780064D01*
X182640014Y-118589588D01*
X182640014Y-118351493D01*
X182687633Y-118161017D01*
X182735252Y-118065779D01*
X182782871Y-118018160D01*
X182878109Y-117970540D01*
X183640014Y-118303874D02*
X183640014Y-118970540D01*
X183640014Y-118399112D02*
X183687633Y-118351493D01*
X183782871Y-118303874D01*
X183925728Y-118303874D01*
X184020966Y-118351493D01*
X184068585Y-118446731D01*
X184068585Y-118970540D01*
X184878109Y-118446731D02*
X184544776Y-118446731D01*
X184544776Y-118970540D02*
X184544776Y-117970540D01*
X185020966Y-117970540D01*
D18*
X182812633Y-117437445D02*
X182800728Y-117449350D01*
X182765014Y-117461255D01*
X182741204Y-117461255D01*
X182705490Y-117449350D01*
X182681680Y-117425540D01*
X182669776Y-117401731D01*
X182657871Y-117354112D01*
X182657871Y-117318398D01*
X182669776Y-117270779D01*
X182681680Y-117246969D01*
X182705490Y-117223160D01*
X182741204Y-117211255D01*
X182765014Y-117211255D01*
X182800728Y-117223160D01*
X182812633Y-117235064D01*
X183050728Y-117461255D02*
X182907871Y-117461255D01*
X182979300Y-117461255D02*
X182979300Y-117211255D01*
X182955490Y-117246969D01*
X182931680Y-117270779D01*
X182907871Y-117282683D01*
G04 #@! TO.C,C2*
X182812633Y-120485445D02*
X182800728Y-120497350D01*
X182765014Y-120509255D01*
X182741204Y-120509255D01*
X182705490Y-120497350D01*
X182681680Y-120473540D01*
X182669776Y-120449731D01*
X182657871Y-120402112D01*
X182657871Y-120366398D01*
X182669776Y-120318779D01*
X182681680Y-120294969D01*
X182705490Y-120271160D01*
X182741204Y-120259255D01*
X182765014Y-120259255D01*
X182800728Y-120271160D01*
X182812633Y-120283064D01*
X182907871Y-120283064D02*
X182919776Y-120271160D01*
X182943585Y-120259255D01*
X183003109Y-120259255D01*
X183026919Y-120271160D01*
X183038823Y-120283064D01*
X183050728Y-120306874D01*
X183050728Y-120330683D01*
X183038823Y-120366398D01*
X182895966Y-120509255D01*
X183050728Y-120509255D01*
G04 #@! TO.C,C3*
D15*
X156605252Y-127622540D02*
X156700490Y-127622540D01*
X156795728Y-127670160D01*
X156843347Y-127717779D01*
X156890966Y-127813017D01*
X156938585Y-128003493D01*
X156938585Y-128241588D01*
X156890966Y-128432064D01*
X156843347Y-128527302D01*
X156795728Y-128574921D01*
X156700490Y-128622540D01*
X156605252Y-128622540D01*
X156510014Y-128574921D01*
X156462395Y-128527302D01*
X156414776Y-128432064D01*
X156367157Y-128241588D01*
X156367157Y-128003493D01*
X156414776Y-127813017D01*
X156462395Y-127717779D01*
X156510014Y-127670160D01*
X156605252Y-127622540D01*
X157367157Y-128527302D02*
X157414776Y-128574921D01*
X157367157Y-128622540D01*
X157319538Y-128574921D01*
X157367157Y-128527302D01*
X157367157Y-128622540D01*
X157795728Y-127717779D02*
X157843347Y-127670160D01*
X157938585Y-127622540D01*
X158176680Y-127622540D01*
X158271919Y-127670160D01*
X158319538Y-127717779D01*
X158367157Y-127813017D01*
X158367157Y-127908255D01*
X158319538Y-128051112D01*
X157748109Y-128622540D01*
X158367157Y-128622540D01*
X158748109Y-127717779D02*
X158795728Y-127670160D01*
X158890966Y-127622540D01*
X159129061Y-127622540D01*
X159224300Y-127670160D01*
X159271919Y-127717779D01*
X159319538Y-127813017D01*
X159319538Y-127908255D01*
X159271919Y-128051112D01*
X158700490Y-128622540D01*
X159319538Y-128622540D01*
X160176680Y-127955874D02*
X160176680Y-128622540D01*
X159748109Y-127955874D02*
X159748109Y-128479683D01*
X159795728Y-128574921D01*
X159890966Y-128622540D01*
X160033823Y-128622540D01*
X160129061Y-128574921D01*
X160176680Y-128527302D01*
X160986204Y-128098731D02*
X160652871Y-128098731D01*
X160652871Y-128622540D02*
X160652871Y-127622540D01*
X161129061Y-127622540D01*
D18*
X158682633Y-127089445D02*
X158670728Y-127101350D01*
X158635014Y-127113255D01*
X158611204Y-127113255D01*
X158575490Y-127101350D01*
X158551680Y-127077540D01*
X158539776Y-127053731D01*
X158527871Y-127006112D01*
X158527871Y-126970398D01*
X158539776Y-126922779D01*
X158551680Y-126898969D01*
X158575490Y-126875160D01*
X158611204Y-126863255D01*
X158635014Y-126863255D01*
X158670728Y-126875160D01*
X158682633Y-126887064D01*
X158765966Y-126863255D02*
X158920728Y-126863255D01*
X158837395Y-126958493D01*
X158873109Y-126958493D01*
X158896919Y-126970398D01*
X158908823Y-126982302D01*
X158920728Y-127006112D01*
X158920728Y-127065636D01*
X158908823Y-127089445D01*
X158896919Y-127101350D01*
X158873109Y-127113255D01*
X158801680Y-127113255D01*
X158777871Y-127101350D01*
X158765966Y-127089445D01*
G04 #@! TO.C,D1*
D15*
X156470395Y-116684540D02*
X156470395Y-115684540D01*
X156708490Y-115684540D01*
X156851347Y-115732160D01*
X156946585Y-115827398D01*
X156994204Y-115922636D01*
X157041823Y-116113112D01*
X157041823Y-116255969D01*
X156994204Y-116446445D01*
X156946585Y-116541683D01*
X156851347Y-116636921D01*
X156708490Y-116684540D01*
X156470395Y-116684540D01*
X157232300Y-116779779D02*
X157994204Y-116779779D01*
X158184680Y-116636921D02*
X158327538Y-116684540D01*
X158565633Y-116684540D01*
X158660871Y-116636921D01*
X158708490Y-116589302D01*
X158756109Y-116494064D01*
X158756109Y-116398826D01*
X158708490Y-116303588D01*
X158660871Y-116255969D01*
X158565633Y-116208350D01*
X158375157Y-116160731D01*
X158279919Y-116113112D01*
X158232300Y-116065493D01*
X158184680Y-115970255D01*
X158184680Y-115875017D01*
X158232300Y-115779779D01*
X158279919Y-115732160D01*
X158375157Y-115684540D01*
X158613252Y-115684540D01*
X158756109Y-115732160D01*
X159184680Y-116684540D02*
X159184680Y-116017874D01*
X159184680Y-116113112D02*
X159232300Y-116065493D01*
X159327538Y-116017874D01*
X159470395Y-116017874D01*
X159565633Y-116065493D01*
X159613252Y-116160731D01*
X159613252Y-116684540D01*
X159613252Y-116160731D02*
X159660871Y-116065493D01*
X159756109Y-116017874D01*
X159898966Y-116017874D01*
X159994204Y-116065493D01*
X160041823Y-116160731D01*
X160041823Y-116684540D01*
X160946585Y-116684540D02*
X160946585Y-116160731D01*
X160898966Y-116065493D01*
X160803728Y-116017874D01*
X160613252Y-116017874D01*
X160518014Y-116065493D01*
X160946585Y-116636921D02*
X160851347Y-116684540D01*
X160613252Y-116684540D01*
X160518014Y-116636921D01*
X160470395Y-116541683D01*
X160470395Y-116446445D01*
X160518014Y-116351207D01*
X160613252Y-116303588D01*
X160851347Y-116303588D01*
X160946585Y-116255969D01*
X161565633Y-116684540D02*
X161470395Y-116636921D01*
X161422776Y-116541683D01*
X161422776Y-115684540D01*
X162089442Y-116684540D02*
X161994204Y-116636921D01*
X161946585Y-116541683D01*
X161946585Y-115684540D01*
D18*
X159047776Y-115175255D02*
X159047776Y-114925255D01*
X159107300Y-114925255D01*
X159143014Y-114937160D01*
X159166823Y-114960969D01*
X159178728Y-114984779D01*
X159190633Y-115032398D01*
X159190633Y-115068112D01*
X159178728Y-115115731D01*
X159166823Y-115139540D01*
X159143014Y-115163350D01*
X159107300Y-115175255D01*
X159047776Y-115175255D01*
X159428728Y-115175255D02*
X159285871Y-115175255D01*
X159357300Y-115175255D02*
X159357300Y-114925255D01*
X159333490Y-114960969D01*
X159309680Y-114984779D01*
X159285871Y-114996683D01*
G04 #@! TO.C,D2*
D15*
X156470395Y-112366540D02*
X156470395Y-111366540D01*
X156708490Y-111366540D01*
X156851347Y-111414160D01*
X156946585Y-111509398D01*
X156994204Y-111604636D01*
X157041823Y-111795112D01*
X157041823Y-111937969D01*
X156994204Y-112128445D01*
X156946585Y-112223683D01*
X156851347Y-112318921D01*
X156708490Y-112366540D01*
X156470395Y-112366540D01*
X157232300Y-112461779D02*
X157994204Y-112461779D01*
X158184680Y-112318921D02*
X158327538Y-112366540D01*
X158565633Y-112366540D01*
X158660871Y-112318921D01*
X158708490Y-112271302D01*
X158756109Y-112176064D01*
X158756109Y-112080826D01*
X158708490Y-111985588D01*
X158660871Y-111937969D01*
X158565633Y-111890350D01*
X158375157Y-111842731D01*
X158279919Y-111795112D01*
X158232300Y-111747493D01*
X158184680Y-111652255D01*
X158184680Y-111557017D01*
X158232300Y-111461779D01*
X158279919Y-111414160D01*
X158375157Y-111366540D01*
X158613252Y-111366540D01*
X158756109Y-111414160D01*
X159184680Y-112366540D02*
X159184680Y-111699874D01*
X159184680Y-111795112D02*
X159232300Y-111747493D01*
X159327538Y-111699874D01*
X159470395Y-111699874D01*
X159565633Y-111747493D01*
X159613252Y-111842731D01*
X159613252Y-112366540D01*
X159613252Y-111842731D02*
X159660871Y-111747493D01*
X159756109Y-111699874D01*
X159898966Y-111699874D01*
X159994204Y-111747493D01*
X160041823Y-111842731D01*
X160041823Y-112366540D01*
X160946585Y-112366540D02*
X160946585Y-111842731D01*
X160898966Y-111747493D01*
X160803728Y-111699874D01*
X160613252Y-111699874D01*
X160518014Y-111747493D01*
X160946585Y-112318921D02*
X160851347Y-112366540D01*
X160613252Y-112366540D01*
X160518014Y-112318921D01*
X160470395Y-112223683D01*
X160470395Y-112128445D01*
X160518014Y-112033207D01*
X160613252Y-111985588D01*
X160851347Y-111985588D01*
X160946585Y-111937969D01*
X161565633Y-112366540D02*
X161470395Y-112318921D01*
X161422776Y-112223683D01*
X161422776Y-111366540D01*
X162089442Y-112366540D02*
X161994204Y-112318921D01*
X161946585Y-112223683D01*
X161946585Y-111366540D01*
D18*
X159047776Y-110857255D02*
X159047776Y-110607255D01*
X159107300Y-110607255D01*
X159143014Y-110619160D01*
X159166823Y-110642969D01*
X159178728Y-110666779D01*
X159190633Y-110714398D01*
X159190633Y-110750112D01*
X159178728Y-110797731D01*
X159166823Y-110821540D01*
X159143014Y-110845350D01*
X159107300Y-110857255D01*
X159047776Y-110857255D01*
X159285871Y-110631064D02*
X159297776Y-110619160D01*
X159321585Y-110607255D01*
X159381109Y-110607255D01*
X159404919Y-110619160D01*
X159416823Y-110631064D01*
X159428728Y-110654874D01*
X159428728Y-110678683D01*
X159416823Y-110714398D01*
X159273966Y-110857255D01*
X159428728Y-110857255D01*
G04 #@! TO.C,J1*
D15*
X142452380Y-104908333D02*
X143166666Y-104908333D01*
X143309523Y-104955952D01*
X143404761Y-105051190D01*
X143452380Y-105194047D01*
X143452380Y-105289285D01*
X143452380Y-103908333D02*
X143452380Y-104479761D01*
X143452380Y-104194047D02*
X142452380Y-104194047D01*
X142595238Y-104289285D01*
X142690476Y-104384523D01*
X142738095Y-104479761D01*
G04 #@! TO.C,R1*
X158637061Y-108302540D02*
X158065633Y-108302540D01*
X158351347Y-108302540D02*
X158351347Y-107302540D01*
X158256109Y-107445398D01*
X158160871Y-107540636D01*
X158065633Y-107588255D01*
X159256109Y-107302540D02*
X159351347Y-107302540D01*
X159446585Y-107350160D01*
X159494204Y-107397779D01*
X159541823Y-107493017D01*
X159589442Y-107683493D01*
X159589442Y-107921588D01*
X159541823Y-108112064D01*
X159494204Y-108207302D01*
X159446585Y-108254921D01*
X159351347Y-108302540D01*
X159256109Y-108302540D01*
X159160871Y-108254921D01*
X159113252Y-108207302D01*
X159065633Y-108112064D01*
X159018014Y-107921588D01*
X159018014Y-107683493D01*
X159065633Y-107493017D01*
X159113252Y-107397779D01*
X159160871Y-107350160D01*
X159256109Y-107302540D01*
X160018014Y-108302540D02*
X160018014Y-107302540D01*
X160113252Y-107921588D02*
X160398966Y-108302540D01*
X160398966Y-107635874D02*
X160018014Y-108016826D01*
D18*
X159190633Y-106793255D02*
X159107300Y-106674207D01*
X159047776Y-106793255D02*
X159047776Y-106543255D01*
X159143014Y-106543255D01*
X159166823Y-106555160D01*
X159178728Y-106567064D01*
X159190633Y-106590874D01*
X159190633Y-106626588D01*
X159178728Y-106650398D01*
X159166823Y-106662302D01*
X159143014Y-106674207D01*
X159047776Y-106674207D01*
X159428728Y-106793255D02*
X159285871Y-106793255D01*
X159357300Y-106793255D02*
X159357300Y-106543255D01*
X159333490Y-106578969D01*
X159309680Y-106602779D01*
X159285871Y-106614683D01*
G04 #@! TO.C,R2*
D15*
X182259061Y-127960540D02*
X181687633Y-127960540D01*
X181973347Y-127960540D02*
X181973347Y-126960540D01*
X181878109Y-127103398D01*
X181782871Y-127198636D01*
X181687633Y-127246255D01*
X182878109Y-126960540D02*
X182973347Y-126960540D01*
X183068585Y-127008160D01*
X183116204Y-127055779D01*
X183163823Y-127151017D01*
X183211442Y-127341493D01*
X183211442Y-127579588D01*
X183163823Y-127770064D01*
X183116204Y-127865302D01*
X183068585Y-127912921D01*
X182973347Y-127960540D01*
X182878109Y-127960540D01*
X182782871Y-127912921D01*
X182735252Y-127865302D01*
X182687633Y-127770064D01*
X182640014Y-127579588D01*
X182640014Y-127341493D01*
X182687633Y-127151017D01*
X182735252Y-127055779D01*
X182782871Y-127008160D01*
X182878109Y-126960540D01*
X183640014Y-127960540D02*
X183640014Y-126960540D01*
X183735252Y-127579588D02*
X184020966Y-127960540D01*
X184020966Y-127293874D02*
X183640014Y-127674826D01*
D18*
X182812633Y-126351255D02*
X182729300Y-126232207D01*
X182669776Y-126351255D02*
X182669776Y-126101255D01*
X182765014Y-126101255D01*
X182788823Y-126113160D01*
X182800728Y-126125064D01*
X182812633Y-126148874D01*
X182812633Y-126184588D01*
X182800728Y-126208398D01*
X182788823Y-126220302D01*
X182765014Y-126232207D01*
X182669776Y-126232207D01*
X182907871Y-126125064D02*
X182919776Y-126113160D01*
X182943585Y-126101255D01*
X183003109Y-126101255D01*
X183026919Y-126113160D01*
X183038823Y-126125064D01*
X183050728Y-126148874D01*
X183050728Y-126172683D01*
X183038823Y-126208398D01*
X182895966Y-126351255D01*
X183050728Y-126351255D01*
G04 #@! TO.C,R3*
D15*
X158637061Y-121002540D02*
X158065633Y-121002540D01*
X158351347Y-121002540D02*
X158351347Y-120002540D01*
X158256109Y-120145398D01*
X158160871Y-120240636D01*
X158065633Y-120288255D01*
X159256109Y-120002540D02*
X159351347Y-120002540D01*
X159446585Y-120050160D01*
X159494204Y-120097779D01*
X159541823Y-120193017D01*
X159589442Y-120383493D01*
X159589442Y-120621588D01*
X159541823Y-120812064D01*
X159494204Y-120907302D01*
X159446585Y-120954921D01*
X159351347Y-121002540D01*
X159256109Y-121002540D01*
X159160871Y-120954921D01*
X159113252Y-120907302D01*
X159065633Y-120812064D01*
X159018014Y-120621588D01*
X159018014Y-120383493D01*
X159065633Y-120193017D01*
X159113252Y-120097779D01*
X159160871Y-120050160D01*
X159256109Y-120002540D01*
X160018014Y-121002540D02*
X160018014Y-120002540D01*
X160113252Y-120621588D02*
X160398966Y-121002540D01*
X160398966Y-120335874D02*
X160018014Y-120716826D01*
D18*
X159190633Y-119493255D02*
X159107300Y-119374207D01*
X159047776Y-119493255D02*
X159047776Y-119243255D01*
X159143014Y-119243255D01*
X159166823Y-119255160D01*
X159178728Y-119267064D01*
X159190633Y-119290874D01*
X159190633Y-119326588D01*
X159178728Y-119350398D01*
X159166823Y-119362302D01*
X159143014Y-119374207D01*
X159047776Y-119374207D01*
X159273966Y-119243255D02*
X159428728Y-119243255D01*
X159345395Y-119338493D01*
X159381109Y-119338493D01*
X159404919Y-119350398D01*
X159416823Y-119362302D01*
X159428728Y-119386112D01*
X159428728Y-119445636D01*
X159416823Y-119469445D01*
X159404919Y-119481350D01*
X159381109Y-119493255D01*
X159309680Y-119493255D01*
X159285871Y-119481350D01*
X159273966Y-119469445D01*
G04 #@! TO.C,R4*
D15*
X182259061Y-125066540D02*
X181687633Y-125066540D01*
X181973347Y-125066540D02*
X181973347Y-124066540D01*
X181878109Y-124209398D01*
X181782871Y-124304636D01*
X181687633Y-124352255D01*
X182878109Y-124066540D02*
X182973347Y-124066540D01*
X183068585Y-124114160D01*
X183116204Y-124161779D01*
X183163823Y-124257017D01*
X183211442Y-124447493D01*
X183211442Y-124685588D01*
X183163823Y-124876064D01*
X183116204Y-124971302D01*
X183068585Y-125018921D01*
X182973347Y-125066540D01*
X182878109Y-125066540D01*
X182782871Y-125018921D01*
X182735252Y-124971302D01*
X182687633Y-124876064D01*
X182640014Y-124685588D01*
X182640014Y-124447493D01*
X182687633Y-124257017D01*
X182735252Y-124161779D01*
X182782871Y-124114160D01*
X182878109Y-124066540D01*
X183640014Y-125066540D02*
X183640014Y-124066540D01*
X183735252Y-124685588D02*
X184020966Y-125066540D01*
X184020966Y-124399874D02*
X183640014Y-124780826D01*
D18*
X182812633Y-123557255D02*
X182729300Y-123438207D01*
X182669776Y-123557255D02*
X182669776Y-123307255D01*
X182765014Y-123307255D01*
X182788823Y-123319160D01*
X182800728Y-123331064D01*
X182812633Y-123354874D01*
X182812633Y-123390588D01*
X182800728Y-123414398D01*
X182788823Y-123426302D01*
X182765014Y-123438207D01*
X182669776Y-123438207D01*
X183026919Y-123390588D02*
X183026919Y-123557255D01*
X182967395Y-123295350D02*
X182907871Y-123473921D01*
X183062633Y-123473921D01*
G04 #@! TO.C,C1*
X84621765Y-122866546D02*
X84633670Y-122878451D01*
X84645575Y-122914165D01*
X84645575Y-122937975D01*
X84633670Y-122973689D01*
X84609860Y-122997499D01*
X84586051Y-123009403D01*
X84538432Y-123021308D01*
X84502718Y-123021308D01*
X84455099Y-123009403D01*
X84431289Y-122997499D01*
X84407480Y-122973689D01*
X84395575Y-122937975D01*
X84395575Y-122914165D01*
X84407480Y-122878451D01*
X84419384Y-122866546D01*
X84645575Y-122628451D02*
X84645575Y-122771308D01*
X84645575Y-122699880D02*
X84395575Y-122699880D01*
X84431289Y-122723689D01*
X84455099Y-122747499D01*
X84467003Y-122771308D01*
G04 #@! TO.C,C2*
X95920813Y-124184165D02*
X95908908Y-124196070D01*
X95873194Y-124207975D01*
X95849384Y-124207975D01*
X95813670Y-124196070D01*
X95789860Y-124172260D01*
X95777956Y-124148451D01*
X95766051Y-124100832D01*
X95766051Y-124065118D01*
X95777956Y-124017499D01*
X95789860Y-123993689D01*
X95813670Y-123969880D01*
X95849384Y-123957975D01*
X95873194Y-123957975D01*
X95908908Y-123969880D01*
X95920813Y-123981784D01*
X96016051Y-123981784D02*
X96027956Y-123969880D01*
X96051765Y-123957975D01*
X96111289Y-123957975D01*
X96135099Y-123969880D01*
X96147003Y-123981784D01*
X96158908Y-124005594D01*
X96158908Y-124029403D01*
X96147003Y-124065118D01*
X96004146Y-124207975D01*
X96158908Y-124207975D01*
G04 #@! TO.C,J1*
D15*
X77634860Y-123158213D02*
X78349146Y-123158213D01*
X78492003Y-123205832D01*
X78587241Y-123301070D01*
X78634860Y-123443927D01*
X78634860Y-123539165D01*
X78634860Y-122158213D02*
X78634860Y-122729641D01*
X78634860Y-122443927D02*
X77634860Y-122443927D01*
X77777718Y-122539165D01*
X77872956Y-122634403D01*
X77920575Y-122729641D01*
G04 #@! TO.C,J2*
X108114860Y-120618213D02*
X108829146Y-120618213D01*
X108972003Y-120665832D01*
X109067241Y-120761070D01*
X109114860Y-120903927D01*
X109114860Y-120999165D01*
X108210099Y-120189641D02*
X108162480Y-120142022D01*
X108114860Y-120046784D01*
X108114860Y-119808689D01*
X108162480Y-119713451D01*
X108210099Y-119665832D01*
X108305337Y-119618213D01*
X108400575Y-119618213D01*
X108543432Y-119665832D01*
X109114860Y-120237260D01*
X109114860Y-119618213D01*
G04 #@! TO.C,L1*
D18*
X82435813Y-120397975D02*
X82316765Y-120397975D01*
X82316765Y-120147975D01*
X82650099Y-120397975D02*
X82507241Y-120397975D01*
X82578670Y-120397975D02*
X82578670Y-120147975D01*
X82554860Y-120183689D01*
X82531051Y-120207499D01*
X82507241Y-120219403D01*
G04 #@! TO.C,L2*
X82435813Y-125477975D02*
X82316765Y-125477975D01*
X82316765Y-125227975D01*
X82507241Y-125251784D02*
X82519146Y-125239880D01*
X82542956Y-125227975D01*
X82602480Y-125227975D01*
X82626289Y-125239880D01*
X82638194Y-125251784D01*
X82650099Y-125275594D01*
X82650099Y-125299403D01*
X82638194Y-125335118D01*
X82495337Y-125477975D01*
X82650099Y-125477975D01*
G04 #@! TO.C,R1*
X98615575Y-126191546D02*
X98496527Y-126274880D01*
X98615575Y-126334403D02*
X98365575Y-126334403D01*
X98365575Y-126239165D01*
X98377480Y-126215356D01*
X98389384Y-126203451D01*
X98413194Y-126191546D01*
X98448908Y-126191546D01*
X98472718Y-126203451D01*
X98484622Y-126215356D01*
X98496527Y-126239165D01*
X98496527Y-126334403D01*
X98615575Y-125953451D02*
X98615575Y-126096308D01*
X98615575Y-126024880D02*
X98365575Y-126024880D01*
X98401289Y-126048689D01*
X98425099Y-126072499D01*
X98437003Y-126096308D01*
G04 #@! TO.C,R2*
X98615575Y-121111546D02*
X98496527Y-121194880D01*
X98615575Y-121254403D02*
X98365575Y-121254403D01*
X98365575Y-121159165D01*
X98377480Y-121135356D01*
X98389384Y-121123451D01*
X98413194Y-121111546D01*
X98448908Y-121111546D01*
X98472718Y-121123451D01*
X98484622Y-121135356D01*
X98496527Y-121159165D01*
X98496527Y-121254403D01*
X98389384Y-121016308D02*
X98377480Y-121004403D01*
X98365575Y-120980594D01*
X98365575Y-120921070D01*
X98377480Y-120897260D01*
X98389384Y-120885356D01*
X98413194Y-120873451D01*
X98437003Y-120873451D01*
X98472718Y-120885356D01*
X98615575Y-121028213D01*
X98615575Y-120873451D01*
G04 #@! TO.C,D1*
D15*
X102844384Y-129087260D02*
X102844384Y-128087260D01*
X103082480Y-128087260D01*
X103225337Y-128134880D01*
X103320575Y-128230118D01*
X103368194Y-128325356D01*
X103415813Y-128515832D01*
X103415813Y-128658689D01*
X103368194Y-128849165D01*
X103320575Y-128944403D01*
X103225337Y-129039641D01*
X103082480Y-129087260D01*
X102844384Y-129087260D01*
X104368194Y-129087260D02*
X103796765Y-129087260D01*
X104082480Y-129087260D02*
X104082480Y-128087260D01*
X103987241Y-128230118D01*
X103892003Y-128325356D01*
X103796765Y-128372975D01*
G04 #@! TO.C,D2*
X102844384Y-124007260D02*
X102844384Y-123007260D01*
X103082480Y-123007260D01*
X103225337Y-123054880D01*
X103320575Y-123150118D01*
X103368194Y-123245356D01*
X103415813Y-123435832D01*
X103415813Y-123578689D01*
X103368194Y-123769165D01*
X103320575Y-123864403D01*
X103225337Y-123959641D01*
X103082480Y-124007260D01*
X102844384Y-124007260D01*
X103796765Y-123102499D02*
X103844384Y-123054880D01*
X103939622Y-123007260D01*
X104177718Y-123007260D01*
X104272956Y-123054880D01*
X104320575Y-123102499D01*
X104368194Y-123197737D01*
X104368194Y-123292975D01*
X104320575Y-123435832D01*
X103749146Y-124007260D01*
X104368194Y-124007260D01*
G04 #@! TO.C,U1*
D19*
X100354716Y-89299358D02*
X100354716Y-89621092D01*
X100860297Y-89621092D02*
X99895097Y-89621092D01*
X99895097Y-89161473D01*
X99941059Y-88288196D02*
X99895097Y-88380120D01*
X99895097Y-88518006D01*
X99941059Y-88655892D01*
X100032982Y-88747815D01*
X100124906Y-88793777D01*
X100308754Y-88839739D01*
X100446639Y-88839739D01*
X100630487Y-88793777D01*
X100722411Y-88747815D01*
X100814335Y-88655892D01*
X100860297Y-88518006D01*
X100860297Y-88426082D01*
X100814335Y-88288196D01*
X100768373Y-88242234D01*
X100446639Y-88242234D01*
X100446639Y-88426082D01*
X100860297Y-87828577D02*
X99895097Y-87828577D01*
X99895097Y-87460882D01*
X99941059Y-87368958D01*
X99987020Y-87322996D01*
X100078944Y-87277034D01*
X100216830Y-87277034D01*
X100308754Y-87322996D01*
X100354716Y-87368958D01*
X100400678Y-87460882D01*
X100400678Y-87828577D01*
X100860297Y-86863377D02*
X99895097Y-86863377D01*
X100584525Y-86541644D01*
X99895097Y-86219911D01*
X100860297Y-86219911D01*
X100860297Y-85760292D02*
X99895097Y-85760292D01*
X100584525Y-85438558D01*
X99895097Y-85116825D01*
X100860297Y-85116825D01*
X99895097Y-84473358D02*
X99895097Y-84289511D01*
X99941059Y-84197587D01*
X100032982Y-84105663D01*
X100216830Y-84059701D01*
X100538563Y-84059701D01*
X100722411Y-84105663D01*
X100814335Y-84197587D01*
X100860297Y-84289511D01*
X100860297Y-84473358D01*
X100814335Y-84565282D01*
X100722411Y-84657206D01*
X100538563Y-84703168D01*
X100216830Y-84703168D01*
X100032982Y-84657206D01*
X99941059Y-84565282D01*
X99895097Y-84473358D01*
X100860297Y-83646044D02*
X99895097Y-83646044D01*
X99895097Y-83278349D01*
X99941059Y-83186425D01*
X99987020Y-83140463D01*
X100078944Y-83094501D01*
X100216830Y-83094501D01*
X100308754Y-83140463D01*
X100354716Y-83186425D01*
X100400678Y-83278349D01*
X100400678Y-83646044D01*
X100584525Y-82726806D02*
X100584525Y-82267187D01*
X100860297Y-82818730D02*
X99895097Y-82496996D01*
X100860297Y-82175263D01*
X99895097Y-81439873D02*
X99895097Y-81623720D01*
X99941059Y-81715644D01*
X99987020Y-81761606D01*
X100124906Y-81853530D01*
X100308754Y-81899492D01*
X100676449Y-81899492D01*
X100768373Y-81853530D01*
X100814335Y-81807568D01*
X100860297Y-81715644D01*
X100860297Y-81531796D01*
X100814335Y-81439873D01*
X100768373Y-81393911D01*
X100676449Y-81347949D01*
X100446639Y-81347949D01*
X100354716Y-81393911D01*
X100308754Y-81439873D01*
X100262792Y-81531796D01*
X100262792Y-81715644D01*
X100308754Y-81807568D01*
X100354716Y-81853530D01*
X100446639Y-81899492D01*
X100860297Y-80934292D02*
X99895097Y-80934292D01*
X100354716Y-80934292D02*
X100354716Y-80382749D01*
X100860297Y-80382749D02*
X99895097Y-80382749D01*
G04 #@! TO.C,LED1*
X87514801Y-110761130D02*
X87193068Y-110301511D01*
X86963258Y-110761130D02*
X86963258Y-109795930D01*
X87330954Y-109795930D01*
X87422877Y-109841892D01*
X87468839Y-109887853D01*
X87514801Y-109979777D01*
X87514801Y-110117663D01*
X87468839Y-110209587D01*
X87422877Y-110255549D01*
X87330954Y-110301511D01*
X86963258Y-110301511D01*
X87928458Y-110255549D02*
X88250192Y-110255549D01*
X88388077Y-110761130D02*
X87928458Y-110761130D01*
X87928458Y-109795930D01*
X88388077Y-109795930D01*
X88801735Y-110761130D02*
X88801735Y-109795930D01*
X89031544Y-109795930D01*
X89169430Y-109841892D01*
X89261354Y-109933815D01*
X89307316Y-110025739D01*
X89353277Y-110209587D01*
X89353277Y-110347472D01*
X89307316Y-110531320D01*
X89261354Y-110623244D01*
X89169430Y-110715168D01*
X89031544Y-110761130D01*
X88801735Y-110761130D01*
D20*
X89626787Y-109101545D02*
X89638278Y-109113036D01*
X89649768Y-109147507D01*
X89649768Y-109170488D01*
X89638278Y-109204960D01*
X89615297Y-109227941D01*
X89592316Y-109239431D01*
X89546354Y-109250922D01*
X89511882Y-109250922D01*
X89465920Y-109239431D01*
X89442939Y-109227941D01*
X89419959Y-109204960D01*
X89408468Y-109170488D01*
X89408468Y-109147507D01*
X89419959Y-109113036D01*
X89431449Y-109101545D01*
X86980825Y-109250922D02*
X86980825Y-109136017D01*
X87049768Y-109273903D02*
X86808468Y-109193469D01*
X87049768Y-109113036D01*
G04 #@! TO.C,R1*
D19*
X90447297Y-107910511D02*
X90447297Y-108462053D01*
X90447297Y-108186282D02*
X89482097Y-108186282D01*
X89619982Y-108278206D01*
X89711906Y-108370130D01*
X89757868Y-108462053D01*
X90447297Y-107496853D02*
X89482097Y-107496853D01*
X90447297Y-106945311D02*
X89895754Y-107358968D01*
X89482097Y-106945311D02*
X90033639Y-107496853D01*
G04 #@! TO.C,C1*
X83948106Y-87848930D02*
X84040030Y-87848930D01*
X84131954Y-87894892D01*
X84177916Y-87940853D01*
X84223877Y-88032777D01*
X84269839Y-88216625D01*
X84269839Y-88446434D01*
X84223877Y-88630282D01*
X84177916Y-88722206D01*
X84131954Y-88768168D01*
X84040030Y-88814130D01*
X83948106Y-88814130D01*
X83856182Y-88768168D01*
X83810220Y-88722206D01*
X83764258Y-88630282D01*
X83718297Y-88446434D01*
X83718297Y-88216625D01*
X83764258Y-88032777D01*
X83810220Y-87940853D01*
X83856182Y-87894892D01*
X83948106Y-87848930D01*
X84683497Y-88722206D02*
X84729458Y-88768168D01*
X84683497Y-88814130D01*
X84637535Y-88768168D01*
X84683497Y-88722206D01*
X84683497Y-88814130D01*
X85648697Y-88814130D02*
X85097154Y-88814130D01*
X85372925Y-88814130D02*
X85372925Y-87848930D01*
X85281001Y-87986815D01*
X85189077Y-88078739D01*
X85097154Y-88124701D01*
X86476011Y-88170663D02*
X86476011Y-88814130D01*
X86062354Y-88170663D02*
X86062354Y-88676244D01*
X86108316Y-88768168D01*
X86200239Y-88814130D01*
X86338125Y-88814130D01*
X86430049Y-88768168D01*
X86476011Y-88722206D01*
X87257363Y-88308549D02*
X86935630Y-88308549D01*
X86935630Y-88814130D02*
X86935630Y-87848930D01*
X87395249Y-87848930D01*
G04 #@! TO.C,D1*
X95815106Y-88876330D02*
X95263563Y-88876330D01*
X95539335Y-88876330D02*
X95539335Y-87911130D01*
X95447411Y-88049015D01*
X95355487Y-88140939D01*
X95263563Y-88186901D01*
X96228763Y-88876330D02*
X96228763Y-87911130D01*
X96780306Y-88876330D01*
X96780306Y-87911130D01*
X97653582Y-88232863D02*
X97653582Y-88876330D01*
X97423773Y-87865168D02*
X97193963Y-88554596D01*
X97791468Y-88554596D01*
X98664744Y-88876330D02*
X98113201Y-88876330D01*
X98388973Y-88876330D02*
X98388973Y-87911130D01*
X98297049Y-88049015D01*
X98205125Y-88140939D01*
X98113201Y-88186901D01*
X99492059Y-88232863D02*
X99492059Y-88876330D01*
X99262249Y-87865168D02*
X99032440Y-88554596D01*
X99629944Y-88554596D01*
X100135525Y-88324787D02*
X100043601Y-88278825D01*
X99997640Y-88232863D01*
X99951678Y-88140939D01*
X99951678Y-88094977D01*
X99997640Y-88003053D01*
X100043601Y-87957092D01*
X100135525Y-87911130D01*
X100319373Y-87911130D01*
X100411297Y-87957092D01*
X100457259Y-88003053D01*
X100503220Y-88094977D01*
X100503220Y-88140939D01*
X100457259Y-88232863D01*
X100411297Y-88278825D01*
X100319373Y-88324787D01*
X100135525Y-88324787D01*
X100043601Y-88370749D01*
X99997640Y-88416711D01*
X99951678Y-88508634D01*
X99951678Y-88692482D01*
X99997640Y-88784406D01*
X100043601Y-88830368D01*
X100135525Y-88876330D01*
X100319373Y-88876330D01*
X100411297Y-88830368D01*
X100457259Y-88784406D01*
X100503220Y-88692482D01*
X100503220Y-88508634D01*
X100457259Y-88416711D01*
X100411297Y-88370749D01*
X100319373Y-88324787D01*
G04 #@! TO.C,R3*
X95867782Y-88025330D02*
X95316240Y-88025330D01*
X95592011Y-88025330D02*
X95592011Y-87060130D01*
X95500087Y-87198015D01*
X95408163Y-87289939D01*
X95316240Y-87335901D01*
X96465287Y-87060130D02*
X96557211Y-87060130D01*
X96649135Y-87106092D01*
X96695097Y-87152053D01*
X96741059Y-87243977D01*
X96787020Y-87427825D01*
X96787020Y-87657634D01*
X96741059Y-87841482D01*
X96695097Y-87933406D01*
X96649135Y-87979368D01*
X96557211Y-88025330D01*
X96465287Y-88025330D01*
X96373363Y-87979368D01*
X96327401Y-87933406D01*
X96281440Y-87841482D01*
X96235478Y-87657634D01*
X96235478Y-87427825D01*
X96281440Y-87243977D01*
X96327401Y-87152053D01*
X96373363Y-87106092D01*
X96465287Y-87060130D01*
X97200678Y-88025330D02*
X97200678Y-87060130D01*
X97752220Y-88025330D02*
X97338563Y-87473787D01*
X97752220Y-87060130D02*
X97200678Y-87611672D01*
G04 #@! TO.C,JP1*
D21*
X105960649Y-98239944D02*
X105188489Y-98239944D01*
X105556184Y-98239944D02*
X105556184Y-97798710D01*
X105960649Y-97798710D02*
X105188489Y-97798710D01*
X105556184Y-97431015D02*
X105556184Y-97173628D01*
X105960649Y-97063319D02*
X105960649Y-97431015D01*
X105188489Y-97431015D01*
X105188489Y-97063319D01*
X105740032Y-96769163D02*
X105740032Y-96401468D01*
X105960649Y-96842702D02*
X105188489Y-96585316D01*
X105960649Y-96327929D01*
X105960649Y-96070542D02*
X105188489Y-96070542D01*
X105188489Y-95886695D01*
X105225259Y-95776386D01*
X105298798Y-95702847D01*
X105372337Y-95666078D01*
X105519415Y-95629308D01*
X105629723Y-95629308D01*
X105776801Y-95666078D01*
X105850340Y-95702847D01*
X105923879Y-95776386D01*
X105960649Y-95886695D01*
X105960649Y-96070542D01*
X105556184Y-95298382D02*
X105556184Y-95040996D01*
X105960649Y-94930687D02*
X105960649Y-95298382D01*
X105188489Y-95298382D01*
X105188489Y-94930687D01*
X105960649Y-94158527D02*
X105592954Y-94415914D01*
X105960649Y-94599761D02*
X105188489Y-94599761D01*
X105188489Y-94305605D01*
X105225259Y-94232066D01*
X105262028Y-94195297D01*
X105335567Y-94158527D01*
X105445876Y-94158527D01*
X105519415Y-94195297D01*
X105556184Y-94232066D01*
X105592954Y-94305605D01*
X105592954Y-94599761D01*
X105666493Y-93827601D02*
X105666493Y-93239289D01*
X105960649Y-92467129D02*
X105960649Y-92908363D01*
X105960649Y-92687746D02*
X105188489Y-92687746D01*
X105298798Y-92761285D01*
X105372337Y-92834824D01*
X105409106Y-92908363D01*
X105188489Y-92209742D02*
X105960649Y-91694969D01*
X105188489Y-91694969D02*
X105960649Y-92209742D01*
X105960649Y-91364043D02*
X105960649Y-91216965D01*
X105923879Y-91143426D01*
X105887110Y-91106657D01*
X105776801Y-91033118D01*
X105629723Y-90996348D01*
X105335567Y-90996348D01*
X105262028Y-91033118D01*
X105225259Y-91069887D01*
X105188489Y-91143426D01*
X105188489Y-91290504D01*
X105225259Y-91364043D01*
X105262028Y-91400813D01*
X105335567Y-91437582D01*
X105519415Y-91437582D01*
X105592954Y-91400813D01*
X105629723Y-91364043D01*
X105666493Y-91290504D01*
X105666493Y-91143426D01*
X105629723Y-91069887D01*
X105592954Y-91033118D01*
X105519415Y-90996348D01*
X105188489Y-90738961D02*
X105188489Y-90224188D01*
X105960649Y-90555114D01*
X105188489Y-89782954D02*
X105188489Y-89709415D01*
X105225259Y-89635876D01*
X105262028Y-89599106D01*
X105335567Y-89562337D01*
X105482645Y-89525567D01*
X105666493Y-89525567D01*
X105813571Y-89562337D01*
X105887110Y-89599106D01*
X105923879Y-89635876D01*
X105960649Y-89709415D01*
X105960649Y-89782954D01*
X105923879Y-89856493D01*
X105887110Y-89893262D01*
X105813571Y-89930032D01*
X105666493Y-89966801D01*
X105482645Y-89966801D01*
X105335567Y-89930032D01*
X105262028Y-89893262D01*
X105225259Y-89856493D01*
X105188489Y-89782954D01*
X105960649Y-89194641D02*
X105188489Y-89194641D01*
X105740032Y-88937255D01*
X105188489Y-88679868D01*
X105960649Y-88679868D01*
X105960649Y-88312173D02*
X105188489Y-88312173D01*
X105960649Y-87576782D02*
X105960649Y-87944478D01*
X105188489Y-87944478D01*
G04 #@! TO.C,D2*
D22*
X99422349Y-107250206D02*
X99376387Y-107296168D01*
X99238501Y-107342130D01*
X99146577Y-107342130D01*
X99008692Y-107296168D01*
X98916768Y-107204244D01*
X98870806Y-107112320D01*
X98824844Y-106928472D01*
X98824844Y-106790587D01*
X98870806Y-106606739D01*
X98916768Y-106514815D01*
X99008692Y-106422892D01*
X99146577Y-106376930D01*
X99238501Y-106376930D01*
X99376387Y-106422892D01*
X99422349Y-106468853D01*
X99836006Y-106376930D02*
X99836006Y-107158282D01*
X99881968Y-107250206D01*
X99927930Y-107296168D01*
X100019854Y-107342130D01*
X100203701Y-107342130D01*
X100295625Y-107296168D01*
X100341587Y-107250206D01*
X100387549Y-107158282D01*
X100387549Y-106376930D01*
X100801206Y-107296168D02*
X100939092Y-107342130D01*
X101168901Y-107342130D01*
X101260825Y-107296168D01*
X101306787Y-107250206D01*
X101352749Y-107158282D01*
X101352749Y-107066358D01*
X101306787Y-106974434D01*
X101260825Y-106928472D01*
X101168901Y-106882511D01*
X100985054Y-106836549D01*
X100893130Y-106790587D01*
X100847168Y-106744625D01*
X100801206Y-106652701D01*
X100801206Y-106560777D01*
X100847168Y-106468853D01*
X100893130Y-106422892D01*
X100985054Y-106376930D01*
X101214863Y-106376930D01*
X101352749Y-106422892D01*
X102226025Y-106376930D02*
X101766406Y-106376930D01*
X101720444Y-106836549D01*
X101766406Y-106790587D01*
X101858330Y-106744625D01*
X102088139Y-106744625D01*
X102180063Y-106790587D01*
X102226025Y-106836549D01*
X102271987Y-106928472D01*
X102271987Y-107158282D01*
X102226025Y-107250206D01*
X102180063Y-107296168D01*
X102088139Y-107342130D01*
X101858330Y-107342130D01*
X101766406Y-107296168D01*
X101720444Y-107250206D01*
X102639682Y-106468853D02*
X102685644Y-106422892D01*
X102777568Y-106376930D01*
X103007377Y-106376930D01*
X103099301Y-106422892D01*
X103145263Y-106468853D01*
X103191225Y-106560777D01*
X103191225Y-106652701D01*
X103145263Y-106790587D01*
X102593720Y-107342130D01*
X103191225Y-107342130D01*
X103788730Y-106376930D02*
X103880654Y-106376930D01*
X103972577Y-106422892D01*
X104018539Y-106468853D01*
X104064501Y-106560777D01*
X104110463Y-106744625D01*
X104110463Y-106974434D01*
X104064501Y-107158282D01*
X104018539Y-107250206D01*
X103972577Y-107296168D01*
X103880654Y-107342130D01*
X103788730Y-107342130D01*
X103696806Y-107296168D01*
X103650844Y-107250206D01*
X103604882Y-107158282D01*
X103558920Y-106974434D01*
X103558920Y-106744625D01*
X103604882Y-106560777D01*
X103650844Y-106468853D01*
X103696806Y-106422892D01*
X103788730Y-106376930D01*
G04 #@! TD*
M02*
