G04 #@! TF.GenerationSoftware,KiCad,Pcbnew,5.0.1-33cea8e~68~ubuntu16.04.1*
G04 #@! TF.CreationDate,2018-10-26T03:49:13-07:00*
G04 #@! TF.ProjectId,integrated-board,696E74656772617465642D626F617264,rev?*
G04 #@! TF.SameCoordinates,Original*
G04 #@! TF.FileFunction,Soldermask,Bot*
G04 #@! TF.FilePolarity,Negative*
%FSLAX46Y46*%
G04 Gerber Fmt 4.6, Leading zero omitted, Abs format (unit mm)*
G04 Created by KiCad (PCBNEW 5.0.1-33cea8e~68~ubuntu16.04.1) date Fri 26 Oct 2018 03:49:13 AM PDT*
%MOMM*%
%LPD*%
G01*
G04 APERTURE LIST*
%ADD10C,0.100000*%
G04 APERTURE END LIST*
D10*
G04 #@! TO.C,B1*
X89663374Y-98893092D02*
G75*
G03X89663374Y-98893092I-6282115J0D01*
G01*
G36*
X204342323Y-128440060D02*
X204581521Y-128487639D01*
X204881947Y-128612080D01*
X205152324Y-128792740D01*
X205382260Y-129022676D01*
X205562920Y-129293053D01*
X205687361Y-129593479D01*
X205750800Y-129912410D01*
X205750800Y-130237590D01*
X205687361Y-130556521D01*
X205562920Y-130856947D01*
X205382260Y-131127324D01*
X205152324Y-131357260D01*
X204881947Y-131537920D01*
X204581521Y-131662361D01*
X204342323Y-131709940D01*
X204262591Y-131725800D01*
X203937409Y-131725800D01*
X203857677Y-131709940D01*
X203618479Y-131662361D01*
X203318053Y-131537920D01*
X203047676Y-131357260D01*
X202817740Y-131127324D01*
X202637080Y-130856947D01*
X202512639Y-130556521D01*
X202449200Y-130237590D01*
X202449200Y-129912410D01*
X202512639Y-129593479D01*
X202637080Y-129293053D01*
X202817740Y-129022676D01*
X203047676Y-128792740D01*
X203318053Y-128612080D01*
X203618479Y-128487639D01*
X203857677Y-128440060D01*
X203937409Y-128424200D01*
X204262591Y-128424200D01*
X204342323Y-128440060D01*
X204342323Y-128440060D01*
G37*
G36*
X75542323Y-128240060D02*
X75781521Y-128287639D01*
X76081947Y-128412080D01*
X76352324Y-128592740D01*
X76582260Y-128822676D01*
X76762920Y-129093053D01*
X76887361Y-129393479D01*
X76950800Y-129712410D01*
X76950800Y-130037590D01*
X76887361Y-130356521D01*
X76762920Y-130656947D01*
X76582260Y-130927324D01*
X76352324Y-131157260D01*
X76081947Y-131337920D01*
X75781521Y-131462361D01*
X75542323Y-131509940D01*
X75462591Y-131525800D01*
X75137409Y-131525800D01*
X75057677Y-131509940D01*
X74818479Y-131462361D01*
X74518053Y-131337920D01*
X74247676Y-131157260D01*
X74017740Y-130927324D01*
X73837080Y-130656947D01*
X73712639Y-130356521D01*
X73649200Y-130037590D01*
X73649200Y-129712410D01*
X73712639Y-129393479D01*
X73837080Y-129093053D01*
X74017740Y-128822676D01*
X74247676Y-128592740D01*
X74518053Y-128412080D01*
X74818479Y-128287639D01*
X75057677Y-128240060D01*
X75137409Y-128224200D01*
X75462591Y-128224200D01*
X75542323Y-128240060D01*
X75542323Y-128240060D01*
G37*
G36*
X114017323Y-128090060D02*
X114256521Y-128137639D01*
X114556947Y-128262080D01*
X114827324Y-128442740D01*
X115057260Y-128672676D01*
X115237920Y-128943053D01*
X115362361Y-129243479D01*
X115425800Y-129562410D01*
X115425800Y-129887590D01*
X115362361Y-130206521D01*
X115237920Y-130506947D01*
X115057260Y-130777324D01*
X114827324Y-131007260D01*
X114556947Y-131187920D01*
X114256521Y-131312361D01*
X114030807Y-131357258D01*
X113937591Y-131375800D01*
X113612409Y-131375800D01*
X113519193Y-131357258D01*
X113293479Y-131312361D01*
X112993053Y-131187920D01*
X112722676Y-131007260D01*
X112492740Y-130777324D01*
X112312080Y-130506947D01*
X112187639Y-130206521D01*
X112124200Y-129887590D01*
X112124200Y-129562410D01*
X112187639Y-129243479D01*
X112312080Y-128943053D01*
X112492740Y-128672676D01*
X112722676Y-128442740D01*
X112993053Y-128262080D01*
X113293479Y-128137639D01*
X113532677Y-128090060D01*
X113612409Y-128074200D01*
X113937591Y-128074200D01*
X114017323Y-128090060D01*
X114017323Y-128090060D01*
G37*
G36*
X192994203Y-130623068D02*
X190894203Y-130623068D01*
X190894203Y-128523068D01*
X192994203Y-128523068D01*
X192994203Y-130623068D01*
X192994203Y-130623068D01*
G37*
G36*
X194612910Y-128530665D02*
X194690039Y-128538261D01*
X194821990Y-128578288D01*
X194887966Y-128598301D01*
X195070375Y-128695801D01*
X195230257Y-128827014D01*
X195361470Y-128986896D01*
X195458970Y-129169305D01*
X195458970Y-129169306D01*
X195519010Y-129367232D01*
X195539283Y-129573068D01*
X195519010Y-129778904D01*
X195486040Y-129887591D01*
X195458970Y-129976831D01*
X195361470Y-130159240D01*
X195230257Y-130319122D01*
X195070375Y-130450335D01*
X194887966Y-130547835D01*
X194821990Y-130567848D01*
X194690039Y-130607875D01*
X194612910Y-130615471D01*
X194535783Y-130623068D01*
X194432623Y-130623068D01*
X194355496Y-130615471D01*
X194278367Y-130607875D01*
X194146416Y-130567848D01*
X194080440Y-130547835D01*
X193898031Y-130450335D01*
X193738149Y-130319122D01*
X193606936Y-130159240D01*
X193509436Y-129976831D01*
X193482366Y-129887591D01*
X193449396Y-129778904D01*
X193429123Y-129573068D01*
X193449396Y-129367232D01*
X193509436Y-129169306D01*
X193509436Y-129169305D01*
X193606936Y-128986896D01*
X193738149Y-128827014D01*
X193898031Y-128695801D01*
X194080440Y-128598301D01*
X194146416Y-128578288D01*
X194278367Y-128538261D01*
X194355496Y-128530665D01*
X194432623Y-128523068D01*
X194535783Y-128523068D01*
X194612910Y-128530665D01*
X194612910Y-128530665D01*
G37*
G36*
X130853787Y-127012157D02*
X130930916Y-127019753D01*
X131062867Y-127059780D01*
X131128843Y-127079793D01*
X131311252Y-127177293D01*
X131471134Y-127308506D01*
X131602347Y-127468388D01*
X131699847Y-127650797D01*
X131699847Y-127650798D01*
X131759887Y-127848724D01*
X131780160Y-128054560D01*
X131759887Y-128260396D01*
X131734122Y-128345332D01*
X131699847Y-128458323D01*
X131602347Y-128640732D01*
X131471134Y-128800614D01*
X131311252Y-128931827D01*
X131128843Y-129029327D01*
X131062867Y-129049340D01*
X130930916Y-129089367D01*
X130853787Y-129096963D01*
X130776660Y-129104560D01*
X130673500Y-129104560D01*
X130596373Y-129096963D01*
X130519244Y-129089367D01*
X130387293Y-129049340D01*
X130321317Y-129029327D01*
X130138908Y-128931827D01*
X129979026Y-128800614D01*
X129847813Y-128640732D01*
X129750313Y-128458323D01*
X129716038Y-128345332D01*
X129690273Y-128260396D01*
X129670000Y-128054560D01*
X129690273Y-127848724D01*
X129750313Y-127650798D01*
X129750313Y-127650797D01*
X129847813Y-127468388D01*
X129979026Y-127308506D01*
X130138908Y-127177293D01*
X130321317Y-127079793D01*
X130387293Y-127059780D01*
X130519244Y-127019753D01*
X130596373Y-127012157D01*
X130673500Y-127004560D01*
X130776660Y-127004560D01*
X130853787Y-127012157D01*
X130853787Y-127012157D01*
G37*
G36*
X149202008Y-126716757D02*
X149279137Y-126724354D01*
X149411088Y-126764381D01*
X149477064Y-126784394D01*
X149659473Y-126881894D01*
X149819355Y-127013107D01*
X149950568Y-127172989D01*
X150048068Y-127355398D01*
X150048068Y-127355399D01*
X150108108Y-127553325D01*
X150128381Y-127759161D01*
X150108108Y-127964997D01*
X150080939Y-128054560D01*
X150048068Y-128162924D01*
X149950568Y-128345333D01*
X149819355Y-128505215D01*
X149659473Y-128636428D01*
X149477064Y-128733928D01*
X149411088Y-128753941D01*
X149279137Y-128793968D01*
X149202008Y-128801564D01*
X149124881Y-128809161D01*
X149021721Y-128809161D01*
X148944594Y-128801564D01*
X148867465Y-128793968D01*
X148735514Y-128753941D01*
X148669538Y-128733928D01*
X148487129Y-128636428D01*
X148327247Y-128505215D01*
X148196034Y-128345333D01*
X148098534Y-128162924D01*
X148065663Y-128054560D01*
X148038494Y-127964997D01*
X148018221Y-127759161D01*
X148038494Y-127553325D01*
X148098534Y-127355399D01*
X148098534Y-127355398D01*
X148196034Y-127172989D01*
X148327247Y-127013107D01*
X148487129Y-126881894D01*
X148669538Y-126784394D01*
X148735514Y-126764381D01*
X148867465Y-126724354D01*
X148944594Y-126716757D01*
X149021721Y-126709161D01*
X149124881Y-126709161D01*
X149202008Y-126716757D01*
X149202008Y-126716757D01*
G37*
G36*
X108791187Y-125592476D02*
X108868316Y-125600073D01*
X109000267Y-125640100D01*
X109066243Y-125660113D01*
X109248652Y-125757613D01*
X109408534Y-125888826D01*
X109539747Y-126048708D01*
X109637247Y-126231117D01*
X109648787Y-126269161D01*
X109697287Y-126429044D01*
X109717560Y-126634880D01*
X109697287Y-126840716D01*
X109657260Y-126972667D01*
X109637247Y-127038643D01*
X109539747Y-127221052D01*
X109408534Y-127380934D01*
X109248652Y-127512147D01*
X109066243Y-127609647D01*
X109000267Y-127629660D01*
X108868316Y-127669687D01*
X108791187Y-127677284D01*
X108714060Y-127684880D01*
X108610900Y-127684880D01*
X108533773Y-127677284D01*
X108456644Y-127669687D01*
X108324693Y-127629660D01*
X108258717Y-127609647D01*
X108076308Y-127512147D01*
X107916426Y-127380934D01*
X107785213Y-127221052D01*
X107687713Y-127038643D01*
X107667700Y-126972667D01*
X107627673Y-126840716D01*
X107607400Y-126634880D01*
X107627673Y-126429044D01*
X107676173Y-126269161D01*
X107687713Y-126231117D01*
X107785213Y-126048708D01*
X107916426Y-125888826D01*
X108076308Y-125757613D01*
X108258717Y-125660113D01*
X108324693Y-125640100D01*
X108456644Y-125600073D01*
X108533773Y-125592476D01*
X108610900Y-125584880D01*
X108714060Y-125584880D01*
X108791187Y-125592476D01*
X108791187Y-125592476D01*
G37*
G36*
X130853787Y-124472157D02*
X130930916Y-124479753D01*
X131062867Y-124519780D01*
X131128843Y-124539793D01*
X131311252Y-124637293D01*
X131471134Y-124768506D01*
X131602347Y-124928388D01*
X131699847Y-125110797D01*
X131699847Y-125110798D01*
X131759887Y-125308724D01*
X131780160Y-125514560D01*
X131759887Y-125720396D01*
X131748597Y-125757613D01*
X131699847Y-125918323D01*
X131602347Y-126100732D01*
X131471134Y-126260614D01*
X131311252Y-126391827D01*
X131128843Y-126489327D01*
X131062867Y-126509340D01*
X130930916Y-126549367D01*
X130853787Y-126556963D01*
X130776660Y-126564560D01*
X130673500Y-126564560D01*
X130596373Y-126556963D01*
X130519244Y-126549367D01*
X130387293Y-126509340D01*
X130321317Y-126489327D01*
X130138908Y-126391827D01*
X129979026Y-126260614D01*
X129847813Y-126100732D01*
X129750313Y-125918323D01*
X129701563Y-125757613D01*
X129690273Y-125720396D01*
X129670000Y-125514560D01*
X129690273Y-125308724D01*
X129750313Y-125110798D01*
X129750313Y-125110797D01*
X129847813Y-124928388D01*
X129979026Y-124768506D01*
X130138908Y-124637293D01*
X130321317Y-124539793D01*
X130387293Y-124519780D01*
X130519244Y-124479753D01*
X130596373Y-124472157D01*
X130673500Y-124464560D01*
X130776660Y-124464560D01*
X130853787Y-124472157D01*
X130853787Y-124472157D01*
G37*
G36*
X149202008Y-124176757D02*
X149279137Y-124184354D01*
X149411088Y-124224381D01*
X149477064Y-124244394D01*
X149659473Y-124341894D01*
X149819355Y-124473107D01*
X149950568Y-124632989D01*
X150048068Y-124815398D01*
X150048068Y-124815399D01*
X150108108Y-125013325D01*
X150128381Y-125219161D01*
X150108108Y-125424997D01*
X150080939Y-125514560D01*
X150048068Y-125622924D01*
X149950568Y-125805333D01*
X149819355Y-125965215D01*
X149659473Y-126096428D01*
X149477064Y-126193928D01*
X149411088Y-126213941D01*
X149279137Y-126253968D01*
X149202008Y-126261564D01*
X149124881Y-126269161D01*
X149021721Y-126269161D01*
X148944594Y-126261564D01*
X148867465Y-126253968D01*
X148735514Y-126213941D01*
X148669538Y-126193928D01*
X148487129Y-126096428D01*
X148327247Y-125965215D01*
X148196034Y-125805333D01*
X148098534Y-125622924D01*
X148065663Y-125514560D01*
X148038494Y-125424997D01*
X148018221Y-125219161D01*
X148038494Y-125013325D01*
X148098534Y-124815399D01*
X148098534Y-124815398D01*
X148196034Y-124632989D01*
X148327247Y-124473107D01*
X148487129Y-124341894D01*
X148669538Y-124244394D01*
X148735514Y-124224381D01*
X148867465Y-124184354D01*
X148944594Y-124176757D01*
X149021721Y-124169161D01*
X149124881Y-124169161D01*
X149202008Y-124176757D01*
X149202008Y-124176757D01*
G37*
G36*
X78311187Y-123052476D02*
X78388316Y-123060073D01*
X78520267Y-123100100D01*
X78586243Y-123120113D01*
X78768652Y-123217613D01*
X78928534Y-123348826D01*
X79059747Y-123508708D01*
X79157247Y-123691117D01*
X79168787Y-123729161D01*
X79217287Y-123889044D01*
X79237560Y-124094880D01*
X79217287Y-124300716D01*
X79177260Y-124432667D01*
X79157247Y-124498643D01*
X79059747Y-124681052D01*
X78928534Y-124840934D01*
X78768652Y-124972147D01*
X78586243Y-125069647D01*
X78520267Y-125089660D01*
X78388316Y-125129687D01*
X78311187Y-125137284D01*
X78234060Y-125144880D01*
X78130900Y-125144880D01*
X78053773Y-125137284D01*
X77976644Y-125129687D01*
X77844693Y-125089660D01*
X77778717Y-125069647D01*
X77596308Y-124972147D01*
X77436426Y-124840934D01*
X77305213Y-124681052D01*
X77207713Y-124498643D01*
X77187700Y-124432667D01*
X77147673Y-124300716D01*
X77127400Y-124094880D01*
X77147673Y-123889044D01*
X77196173Y-123729161D01*
X77207713Y-123691117D01*
X77305213Y-123508708D01*
X77436426Y-123348826D01*
X77596308Y-123217613D01*
X77778717Y-123120113D01*
X77844693Y-123100100D01*
X77976644Y-123060073D01*
X78053773Y-123052476D01*
X78130900Y-123044880D01*
X78234060Y-123044880D01*
X78311187Y-123052476D01*
X78311187Y-123052476D01*
G37*
G36*
X108791187Y-123052476D02*
X108868316Y-123060073D01*
X109000267Y-123100100D01*
X109066243Y-123120113D01*
X109248652Y-123217613D01*
X109408534Y-123348826D01*
X109539747Y-123508708D01*
X109637247Y-123691117D01*
X109648787Y-123729161D01*
X109697287Y-123889044D01*
X109717560Y-124094880D01*
X109697287Y-124300716D01*
X109657260Y-124432667D01*
X109637247Y-124498643D01*
X109539747Y-124681052D01*
X109408534Y-124840934D01*
X109248652Y-124972147D01*
X109066243Y-125069647D01*
X109000267Y-125089660D01*
X108868316Y-125129687D01*
X108791187Y-125137284D01*
X108714060Y-125144880D01*
X108610900Y-125144880D01*
X108533773Y-125137284D01*
X108456644Y-125129687D01*
X108324693Y-125089660D01*
X108258717Y-125069647D01*
X108076308Y-124972147D01*
X107916426Y-124840934D01*
X107785213Y-124681052D01*
X107687713Y-124498643D01*
X107667700Y-124432667D01*
X107627673Y-124300716D01*
X107607400Y-124094880D01*
X107627673Y-123889044D01*
X107676173Y-123729161D01*
X107687713Y-123691117D01*
X107785213Y-123508708D01*
X107916426Y-123348826D01*
X108076308Y-123217613D01*
X108258717Y-123120113D01*
X108324693Y-123100100D01*
X108456644Y-123060073D01*
X108533773Y-123052476D01*
X108610900Y-123044880D01*
X108714060Y-123044880D01*
X108791187Y-123052476D01*
X108791187Y-123052476D01*
G37*
G36*
X130853787Y-121932157D02*
X130930916Y-121939753D01*
X131062867Y-121979780D01*
X131128843Y-121999793D01*
X131311252Y-122097293D01*
X131471134Y-122228506D01*
X131602347Y-122388388D01*
X131699847Y-122570797D01*
X131699847Y-122570798D01*
X131759887Y-122768724D01*
X131780160Y-122974560D01*
X131759887Y-123180396D01*
X131748597Y-123217613D01*
X131699847Y-123378323D01*
X131602347Y-123560732D01*
X131471134Y-123720614D01*
X131311252Y-123851827D01*
X131128843Y-123949327D01*
X131062867Y-123969340D01*
X130930916Y-124009367D01*
X130853787Y-124016963D01*
X130776660Y-124024560D01*
X130673500Y-124024560D01*
X130596373Y-124016963D01*
X130519244Y-124009367D01*
X130387293Y-123969340D01*
X130321317Y-123949327D01*
X130138908Y-123851827D01*
X129979026Y-123720614D01*
X129847813Y-123560732D01*
X129750313Y-123378323D01*
X129701563Y-123217613D01*
X129690273Y-123180396D01*
X129670000Y-122974560D01*
X129690273Y-122768724D01*
X129750313Y-122570798D01*
X129750313Y-122570797D01*
X129847813Y-122388388D01*
X129979026Y-122228506D01*
X130138908Y-122097293D01*
X130321317Y-121999793D01*
X130387293Y-121979780D01*
X130519244Y-121939753D01*
X130596373Y-121932157D01*
X130673500Y-121924560D01*
X130776660Y-121924560D01*
X130853787Y-121932157D01*
X130853787Y-121932157D01*
G37*
G36*
X149202008Y-121636757D02*
X149279137Y-121644354D01*
X149411088Y-121684381D01*
X149477064Y-121704394D01*
X149659473Y-121801894D01*
X149819355Y-121933107D01*
X149950568Y-122092989D01*
X150048068Y-122275398D01*
X150048068Y-122275399D01*
X150108108Y-122473325D01*
X150128381Y-122679161D01*
X150108108Y-122884997D01*
X150080939Y-122974560D01*
X150048068Y-123082924D01*
X149950568Y-123265333D01*
X149819355Y-123425215D01*
X149659473Y-123556428D01*
X149477064Y-123653928D01*
X149411088Y-123673941D01*
X149279137Y-123713968D01*
X149202008Y-123721565D01*
X149124881Y-123729161D01*
X149021721Y-123729161D01*
X148944594Y-123721565D01*
X148867465Y-123713968D01*
X148735514Y-123673941D01*
X148669538Y-123653928D01*
X148487129Y-123556428D01*
X148327247Y-123425215D01*
X148196034Y-123265333D01*
X148098534Y-123082924D01*
X148065663Y-122974560D01*
X148038494Y-122884997D01*
X148018221Y-122679161D01*
X148038494Y-122473325D01*
X148098534Y-122275399D01*
X148098534Y-122275398D01*
X148196034Y-122092989D01*
X148327247Y-121933107D01*
X148487129Y-121801894D01*
X148669538Y-121704394D01*
X148735514Y-121684381D01*
X148867465Y-121644354D01*
X148944594Y-121636757D01*
X149021721Y-121629161D01*
X149124881Y-121629161D01*
X149202008Y-121636757D01*
X149202008Y-121636757D01*
G37*
G36*
X108791187Y-120512476D02*
X108868316Y-120520073D01*
X109000267Y-120560100D01*
X109066243Y-120580113D01*
X109248652Y-120677613D01*
X109408534Y-120808826D01*
X109539747Y-120968708D01*
X109637247Y-121151117D01*
X109648787Y-121189161D01*
X109697287Y-121349044D01*
X109717560Y-121554880D01*
X109697287Y-121760716D01*
X109657260Y-121892667D01*
X109637247Y-121958643D01*
X109539747Y-122141052D01*
X109408534Y-122300934D01*
X109248652Y-122432147D01*
X109066243Y-122529647D01*
X109000267Y-122549660D01*
X108868316Y-122589687D01*
X108791187Y-122597283D01*
X108714060Y-122604880D01*
X108610900Y-122604880D01*
X108533773Y-122597283D01*
X108456644Y-122589687D01*
X108324693Y-122549660D01*
X108258717Y-122529647D01*
X108076308Y-122432147D01*
X107916426Y-122300934D01*
X107785213Y-122141052D01*
X107687713Y-121958643D01*
X107667700Y-121892667D01*
X107627673Y-121760716D01*
X107607400Y-121554880D01*
X107627673Y-121349044D01*
X107676173Y-121189161D01*
X107687713Y-121151117D01*
X107785213Y-120968708D01*
X107916426Y-120808826D01*
X108076308Y-120677613D01*
X108258717Y-120580113D01*
X108324693Y-120560100D01*
X108456644Y-120520073D01*
X108533773Y-120512476D01*
X108610900Y-120504880D01*
X108714060Y-120504880D01*
X108791187Y-120512476D01*
X108791187Y-120512476D01*
G37*
G36*
X79232480Y-122604880D02*
X77132480Y-122604880D01*
X77132480Y-120504880D01*
X79232480Y-120504880D01*
X79232480Y-122604880D01*
X79232480Y-122604880D01*
G37*
G36*
X130853787Y-119392156D02*
X130930916Y-119399753D01*
X131062867Y-119439780D01*
X131128843Y-119459793D01*
X131311252Y-119557293D01*
X131471134Y-119688506D01*
X131602347Y-119848388D01*
X131699847Y-120030797D01*
X131699847Y-120030798D01*
X131759887Y-120228724D01*
X131780160Y-120434560D01*
X131759887Y-120640396D01*
X131748597Y-120677613D01*
X131699847Y-120838323D01*
X131602347Y-121020732D01*
X131471134Y-121180614D01*
X131311252Y-121311827D01*
X131128843Y-121409327D01*
X131062867Y-121429340D01*
X130930916Y-121469367D01*
X130853787Y-121476964D01*
X130776660Y-121484560D01*
X130673500Y-121484560D01*
X130596373Y-121476964D01*
X130519244Y-121469367D01*
X130387293Y-121429340D01*
X130321317Y-121409327D01*
X130138908Y-121311827D01*
X129979026Y-121180614D01*
X129847813Y-121020732D01*
X129750313Y-120838323D01*
X129701563Y-120677613D01*
X129690273Y-120640396D01*
X129670000Y-120434560D01*
X129690273Y-120228724D01*
X129750313Y-120030798D01*
X129750313Y-120030797D01*
X129847813Y-119848388D01*
X129979026Y-119688506D01*
X130138908Y-119557293D01*
X130321317Y-119459793D01*
X130387293Y-119439780D01*
X130519244Y-119399753D01*
X130596373Y-119392156D01*
X130673500Y-119384560D01*
X130776660Y-119384560D01*
X130853787Y-119392156D01*
X130853787Y-119392156D01*
G37*
G36*
X149202008Y-119096757D02*
X149279137Y-119104354D01*
X149411088Y-119144381D01*
X149477064Y-119164394D01*
X149659473Y-119261894D01*
X149819355Y-119393107D01*
X149950568Y-119552989D01*
X150048068Y-119735398D01*
X150048068Y-119735399D01*
X150108108Y-119933325D01*
X150128381Y-120139161D01*
X150108108Y-120344997D01*
X150080939Y-120434560D01*
X150048068Y-120542924D01*
X149950568Y-120725333D01*
X149819355Y-120885215D01*
X149659473Y-121016428D01*
X149477064Y-121113928D01*
X149411088Y-121133941D01*
X149279137Y-121173968D01*
X149202008Y-121181565D01*
X149124881Y-121189161D01*
X149021721Y-121189161D01*
X148944594Y-121181565D01*
X148867465Y-121173968D01*
X148735514Y-121133941D01*
X148669538Y-121113928D01*
X148487129Y-121016428D01*
X148327247Y-120885215D01*
X148196034Y-120725333D01*
X148098534Y-120542924D01*
X148065663Y-120434560D01*
X148038494Y-120344997D01*
X148018221Y-120139161D01*
X148038494Y-119933325D01*
X148098534Y-119735399D01*
X148098534Y-119735398D01*
X148196034Y-119552989D01*
X148327247Y-119393107D01*
X148487129Y-119261894D01*
X148669538Y-119164394D01*
X148735514Y-119144381D01*
X148867465Y-119104354D01*
X148944594Y-119096757D01*
X149021721Y-119089161D01*
X149124881Y-119089161D01*
X149202008Y-119096757D01*
X149202008Y-119096757D01*
G37*
G36*
X108791187Y-117972477D02*
X108868316Y-117980073D01*
X109000267Y-118020100D01*
X109066243Y-118040113D01*
X109248652Y-118137613D01*
X109408534Y-118268826D01*
X109539747Y-118428708D01*
X109637247Y-118611117D01*
X109648787Y-118649161D01*
X109697287Y-118809044D01*
X109717560Y-119014880D01*
X109697287Y-119220716D01*
X109657260Y-119352667D01*
X109637247Y-119418643D01*
X109539747Y-119601052D01*
X109408534Y-119760934D01*
X109248652Y-119892147D01*
X109066243Y-119989647D01*
X109000267Y-120009660D01*
X108868316Y-120049687D01*
X108791187Y-120057284D01*
X108714060Y-120064880D01*
X108610900Y-120064880D01*
X108533773Y-120057284D01*
X108456644Y-120049687D01*
X108324693Y-120009660D01*
X108258717Y-119989647D01*
X108076308Y-119892147D01*
X107916426Y-119760934D01*
X107785213Y-119601052D01*
X107687713Y-119418643D01*
X107667700Y-119352667D01*
X107627673Y-119220716D01*
X107607400Y-119014880D01*
X107627673Y-118809044D01*
X107676173Y-118649161D01*
X107687713Y-118611117D01*
X107785213Y-118428708D01*
X107916426Y-118268826D01*
X108076308Y-118137613D01*
X108258717Y-118040113D01*
X108324693Y-118020100D01*
X108456644Y-117980073D01*
X108533773Y-117972477D01*
X108610900Y-117964880D01*
X108714060Y-117964880D01*
X108791187Y-117972477D01*
X108791187Y-117972477D01*
G37*
G36*
X131775080Y-118944560D02*
X129675080Y-118944560D01*
X129675080Y-116844560D01*
X131775080Y-116844560D01*
X131775080Y-118944560D01*
X131775080Y-118944560D01*
G37*
G36*
X149202008Y-116556757D02*
X149279137Y-116564354D01*
X149411088Y-116604381D01*
X149477064Y-116624394D01*
X149659473Y-116721894D01*
X149819355Y-116853107D01*
X149950568Y-117012989D01*
X150048068Y-117195398D01*
X150048068Y-117195399D01*
X150108108Y-117393325D01*
X150128381Y-117599161D01*
X150108108Y-117804997D01*
X150068081Y-117936948D01*
X150048068Y-118002924D01*
X149950568Y-118185333D01*
X149819355Y-118345215D01*
X149659473Y-118476428D01*
X149477064Y-118573928D01*
X149411088Y-118593941D01*
X149279137Y-118633968D01*
X149202008Y-118641564D01*
X149124881Y-118649161D01*
X149021721Y-118649161D01*
X148944594Y-118641564D01*
X148867465Y-118633968D01*
X148735514Y-118593941D01*
X148669538Y-118573928D01*
X148487129Y-118476428D01*
X148327247Y-118345215D01*
X148196034Y-118185333D01*
X148098534Y-118002924D01*
X148078521Y-117936948D01*
X148038494Y-117804997D01*
X148018221Y-117599161D01*
X148038494Y-117393325D01*
X148098534Y-117195399D01*
X148098534Y-117195398D01*
X148196034Y-117012989D01*
X148327247Y-116853107D01*
X148487129Y-116721894D01*
X148669538Y-116624394D01*
X148735514Y-116604381D01*
X148867465Y-116564354D01*
X148944594Y-116556757D01*
X149021721Y-116549161D01*
X149124881Y-116549161D01*
X149202008Y-116556757D01*
X149202008Y-116556757D01*
G37*
G36*
X108784105Y-115431779D02*
X108868316Y-115440073D01*
X108954844Y-115466321D01*
X109066243Y-115500113D01*
X109248652Y-115597613D01*
X109408534Y-115728826D01*
X109539747Y-115888708D01*
X109637247Y-116071117D01*
X109648787Y-116109161D01*
X109697287Y-116269044D01*
X109717560Y-116474880D01*
X109697287Y-116680716D01*
X109657716Y-116811165D01*
X109637247Y-116878643D01*
X109539747Y-117061052D01*
X109408534Y-117220934D01*
X109248652Y-117352147D01*
X109066243Y-117449647D01*
X109000267Y-117469660D01*
X108868316Y-117509687D01*
X108791187Y-117517284D01*
X108714060Y-117524880D01*
X108610900Y-117524880D01*
X108533773Y-117517284D01*
X108456644Y-117509687D01*
X108324693Y-117469660D01*
X108258717Y-117449647D01*
X108076308Y-117352147D01*
X107916426Y-117220934D01*
X107785213Y-117061052D01*
X107687713Y-116878643D01*
X107667244Y-116811165D01*
X107627673Y-116680716D01*
X107607400Y-116474880D01*
X107627673Y-116269044D01*
X107676173Y-116109161D01*
X107687713Y-116071117D01*
X107785213Y-115888708D01*
X107916426Y-115728826D01*
X108076308Y-115597613D01*
X108258717Y-115500113D01*
X108370116Y-115466321D01*
X108456644Y-115440073D01*
X108540855Y-115431779D01*
X108610900Y-115424880D01*
X108714060Y-115424880D01*
X108784105Y-115431779D01*
X108784105Y-115431779D01*
G37*
G36*
X192998623Y-112970094D02*
X193032981Y-112973478D01*
X193166815Y-113014077D01*
X193233733Y-113034376D01*
X193418748Y-113133268D01*
X193580915Y-113266356D01*
X193714003Y-113428523D01*
X193812895Y-113613539D01*
X193833194Y-113680457D01*
X193873793Y-113814291D01*
X193873793Y-113814293D01*
X193889203Y-113970751D01*
X193889203Y-114375386D01*
X193879590Y-114472989D01*
X193873793Y-114531846D01*
X193836313Y-114655398D01*
X193812895Y-114732598D01*
X193714003Y-114917613D01*
X193580915Y-115079780D01*
X193418748Y-115212868D01*
X193233732Y-115311760D01*
X193164019Y-115332907D01*
X193038162Y-115371086D01*
X193015523Y-115380463D01*
X192995148Y-115394077D01*
X192977821Y-115411404D01*
X192964208Y-115431779D01*
X192954830Y-115454418D01*
X192950050Y-115478451D01*
X192950050Y-115502956D01*
X192954831Y-115526989D01*
X192964208Y-115549628D01*
X192977822Y-115570003D01*
X192995149Y-115587330D01*
X193015524Y-115600943D01*
X193038163Y-115610321D01*
X193040739Y-115610966D01*
X193179460Y-115668426D01*
X193302303Y-115750507D01*
X193406764Y-115854968D01*
X193488845Y-115977811D01*
X193512089Y-116033928D01*
X193536959Y-116093968D01*
X193545381Y-116114302D01*
X193574203Y-116259198D01*
X193574203Y-116406938D01*
X193545381Y-116551834D01*
X193488845Y-116688325D01*
X193406764Y-116811168D01*
X193302303Y-116915629D01*
X193179460Y-116997710D01*
X193099506Y-117030828D01*
X193042970Y-117054246D01*
X192970521Y-117068657D01*
X192898073Y-117083068D01*
X192750333Y-117083068D01*
X192677885Y-117068657D01*
X192605436Y-117054246D01*
X192548900Y-117030828D01*
X192468946Y-116997710D01*
X192346103Y-116915629D01*
X192241642Y-116811168D01*
X192159561Y-116688325D01*
X192103025Y-116551834D01*
X192074203Y-116406938D01*
X192074203Y-116259198D01*
X192103025Y-116114302D01*
X192111448Y-116093968D01*
X192136317Y-116033928D01*
X192159561Y-115977811D01*
X192241642Y-115854968D01*
X192346103Y-115750507D01*
X192468946Y-115668426D01*
X192561744Y-115629988D01*
X192605436Y-115611890D01*
X192605437Y-115611890D01*
X192612112Y-115609125D01*
X192621789Y-115606190D01*
X192643401Y-115594639D01*
X192662343Y-115579094D01*
X192677889Y-115560153D01*
X192689441Y-115538542D01*
X192696555Y-115515094D01*
X192698958Y-115490707D01*
X192696557Y-115466321D01*
X192689445Y-115442872D01*
X192677894Y-115421260D01*
X192662349Y-115402318D01*
X192643408Y-115386772D01*
X192621797Y-115375220D01*
X192610244Y-115371086D01*
X192523000Y-115344621D01*
X192414673Y-115311760D01*
X192229658Y-115212868D01*
X192067491Y-115079780D01*
X191934403Y-114917613D01*
X191835511Y-114732597D01*
X191812093Y-114655398D01*
X191774613Y-114531845D01*
X191768816Y-114472989D01*
X191759203Y-114375385D01*
X191759203Y-113970750D01*
X191774613Y-113814292D01*
X191774613Y-113814290D01*
X191798972Y-113733990D01*
X191835511Y-113613538D01*
X191934403Y-113428523D01*
X192067492Y-113266356D01*
X192229659Y-113133268D01*
X192414674Y-113034376D01*
X192481592Y-113014077D01*
X192615426Y-112973478D01*
X192649784Y-112970094D01*
X192824203Y-112952915D01*
X192998623Y-112970094D01*
X192998623Y-112970094D01*
G37*
G36*
X149202008Y-114016758D02*
X149279137Y-114024354D01*
X149411088Y-114064381D01*
X149477064Y-114084394D01*
X149659473Y-114181894D01*
X149819355Y-114313107D01*
X149950568Y-114472989D01*
X150048068Y-114655398D01*
X150048068Y-114655399D01*
X150108108Y-114853325D01*
X150128381Y-115059161D01*
X150108108Y-115264997D01*
X150075926Y-115371086D01*
X150048068Y-115462924D01*
X149950568Y-115645333D01*
X149819355Y-115805215D01*
X149659473Y-115936428D01*
X149477064Y-116033928D01*
X149411088Y-116053941D01*
X149279137Y-116093968D01*
X149202008Y-116101564D01*
X149124881Y-116109161D01*
X149021721Y-116109161D01*
X148944594Y-116101564D01*
X148867465Y-116093968D01*
X148735514Y-116053941D01*
X148669538Y-116033928D01*
X148487129Y-115936428D01*
X148327247Y-115805215D01*
X148196034Y-115645333D01*
X148098534Y-115462924D01*
X148070676Y-115371086D01*
X148038494Y-115264997D01*
X148018221Y-115059161D01*
X148038494Y-114853325D01*
X148098534Y-114655399D01*
X148098534Y-114655398D01*
X148196034Y-114472989D01*
X148327247Y-114313107D01*
X148487129Y-114181894D01*
X148669538Y-114084394D01*
X148735514Y-114064381D01*
X148867465Y-114024354D01*
X148944594Y-114016758D01*
X149021721Y-114009161D01*
X149124881Y-114009161D01*
X149202008Y-114016758D01*
X149202008Y-114016758D01*
G37*
G36*
X195538623Y-112970094D02*
X195572981Y-112973478D01*
X195706815Y-113014077D01*
X195773733Y-113034376D01*
X195958748Y-113133268D01*
X196120915Y-113266356D01*
X196254003Y-113428523D01*
X196352895Y-113613539D01*
X196373194Y-113680457D01*
X196413793Y-113814291D01*
X196413793Y-113814293D01*
X196429203Y-113970751D01*
X196429203Y-114375386D01*
X196419590Y-114472989D01*
X196413793Y-114531846D01*
X196376313Y-114655398D01*
X196352895Y-114732598D01*
X196254003Y-114917613D01*
X196120915Y-115079780D01*
X195958748Y-115212868D01*
X195773732Y-115311760D01*
X195706814Y-115332059D01*
X195572980Y-115372658D01*
X195538622Y-115376042D01*
X195364203Y-115393221D01*
X195189783Y-115376042D01*
X195155425Y-115372658D01*
X195021591Y-115332059D01*
X194954673Y-115311760D01*
X194769658Y-115212868D01*
X194607491Y-115079780D01*
X194474403Y-114917613D01*
X194375511Y-114732597D01*
X194352093Y-114655398D01*
X194314613Y-114531845D01*
X194308816Y-114472989D01*
X194299203Y-114375385D01*
X194299203Y-113970750D01*
X194314613Y-113814292D01*
X194314613Y-113814290D01*
X194338972Y-113733990D01*
X194375511Y-113613538D01*
X194474403Y-113428523D01*
X194607492Y-113266356D01*
X194769659Y-113133268D01*
X194954674Y-113034376D01*
X195021592Y-113014077D01*
X195155426Y-112973478D01*
X195189784Y-112970094D01*
X195364203Y-112952915D01*
X195538623Y-112970094D01*
X195538623Y-112970094D01*
G37*
G36*
X190458623Y-112970094D02*
X190492981Y-112973478D01*
X190626815Y-113014077D01*
X190693733Y-113034376D01*
X190878748Y-113133268D01*
X191040915Y-113266356D01*
X191174003Y-113428523D01*
X191272895Y-113613539D01*
X191293194Y-113680457D01*
X191333793Y-113814291D01*
X191333793Y-113814293D01*
X191349203Y-113970751D01*
X191349203Y-114375386D01*
X191339590Y-114472989D01*
X191333793Y-114531846D01*
X191296313Y-114655398D01*
X191272895Y-114732598D01*
X191174003Y-114917613D01*
X191040915Y-115079780D01*
X190878748Y-115212868D01*
X190693732Y-115311760D01*
X190626814Y-115332059D01*
X190492980Y-115372658D01*
X190458622Y-115376042D01*
X190284203Y-115393221D01*
X190109783Y-115376042D01*
X190075425Y-115372658D01*
X189941591Y-115332059D01*
X189874673Y-115311760D01*
X189689658Y-115212868D01*
X189527491Y-115079780D01*
X189394403Y-114917613D01*
X189295511Y-114732597D01*
X189272093Y-114655398D01*
X189234613Y-114531845D01*
X189228816Y-114472989D01*
X189219203Y-114375385D01*
X189219203Y-113970750D01*
X189234613Y-113814292D01*
X189234613Y-113814290D01*
X189258972Y-113733990D01*
X189295511Y-113613538D01*
X189394403Y-113428523D01*
X189527492Y-113266356D01*
X189689659Y-113133268D01*
X189874674Y-113034376D01*
X189941592Y-113014077D01*
X190075426Y-112973478D01*
X190109784Y-112970094D01*
X190284203Y-112952915D01*
X190458623Y-112970094D01*
X190458623Y-112970094D01*
G37*
G36*
X198969203Y-115388068D02*
X196839203Y-115388068D01*
X196839203Y-112958068D01*
X198969203Y-112958068D01*
X198969203Y-115388068D01*
X198969203Y-115388068D01*
G37*
G36*
X109712480Y-114984880D02*
X107612480Y-114984880D01*
X107612480Y-112884880D01*
X109712480Y-112884880D01*
X109712480Y-114984880D01*
X109712480Y-114984880D01*
G37*
G36*
X149202008Y-111476758D02*
X149279137Y-111484354D01*
X149411088Y-111524381D01*
X149477064Y-111544394D01*
X149659473Y-111641894D01*
X149819355Y-111773107D01*
X149950568Y-111932989D01*
X150048068Y-112115398D01*
X150048068Y-112115399D01*
X150108108Y-112313325D01*
X150128381Y-112519161D01*
X150108108Y-112724997D01*
X150097425Y-112760214D01*
X150048068Y-112922924D01*
X149950568Y-113105333D01*
X149819355Y-113265215D01*
X149659473Y-113396428D01*
X149477064Y-113493928D01*
X149411088Y-113513941D01*
X149279137Y-113553968D01*
X149202008Y-113561565D01*
X149124881Y-113569161D01*
X149021721Y-113569161D01*
X148944594Y-113561565D01*
X148867465Y-113553968D01*
X148735514Y-113513941D01*
X148669538Y-113493928D01*
X148487129Y-113396428D01*
X148327247Y-113265215D01*
X148196034Y-113105333D01*
X148098534Y-112922924D01*
X148049177Y-112760214D01*
X148038494Y-112724997D01*
X148018221Y-112519161D01*
X148038494Y-112313325D01*
X148098534Y-112115399D01*
X148098534Y-112115398D01*
X148196034Y-111932989D01*
X148327247Y-111773107D01*
X148487129Y-111641894D01*
X148669538Y-111544394D01*
X148735514Y-111524381D01*
X148867465Y-111484354D01*
X148944594Y-111476758D01*
X149021721Y-111469161D01*
X149124881Y-111469161D01*
X149202008Y-111476758D01*
X149202008Y-111476758D01*
G37*
G36*
X170537007Y-110971756D02*
X170614136Y-110979353D01*
X170746087Y-111019380D01*
X170812063Y-111039393D01*
X170994472Y-111136893D01*
X171154354Y-111268106D01*
X171285567Y-111427988D01*
X171383067Y-111610397D01*
X171383067Y-111610398D01*
X171443107Y-111808324D01*
X171463380Y-112014160D01*
X171443107Y-112219996D01*
X171414796Y-112313325D01*
X171383067Y-112417923D01*
X171285567Y-112600332D01*
X171154354Y-112760214D01*
X170994472Y-112891427D01*
X170812063Y-112988927D01*
X170746087Y-113008940D01*
X170614136Y-113048967D01*
X170537007Y-113056563D01*
X170459880Y-113064160D01*
X170356720Y-113064160D01*
X170279593Y-113056563D01*
X170202464Y-113048967D01*
X170070513Y-113008940D01*
X170004537Y-112988927D01*
X169822128Y-112891427D01*
X169662246Y-112760214D01*
X169531033Y-112600332D01*
X169433533Y-112417923D01*
X169401804Y-112313325D01*
X169373493Y-112219996D01*
X169353220Y-112014160D01*
X169373493Y-111808324D01*
X169433533Y-111610398D01*
X169433533Y-111610397D01*
X169531033Y-111427988D01*
X169662246Y-111268106D01*
X169822128Y-111136893D01*
X170004537Y-111039393D01*
X170070513Y-111019380D01*
X170202464Y-110979353D01*
X170279593Y-110971756D01*
X170356720Y-110964160D01*
X170459880Y-110964160D01*
X170537007Y-110971756D01*
X170537007Y-110971756D01*
G37*
G36*
X120600850Y-109289932D02*
X120716769Y-109312989D01*
X120898758Y-109388371D01*
X121062543Y-109497809D01*
X121201831Y-109637097D01*
X121311269Y-109800882D01*
X121386651Y-109982871D01*
X121425080Y-110176069D01*
X121425080Y-110373051D01*
X121386651Y-110566249D01*
X121311269Y-110748238D01*
X121201831Y-110912023D01*
X121062543Y-111051311D01*
X120898758Y-111160749D01*
X120716769Y-111236131D01*
X120600850Y-111259188D01*
X120523573Y-111274560D01*
X120326587Y-111274560D01*
X120249310Y-111259188D01*
X120133391Y-111236131D01*
X119951402Y-111160749D01*
X119787617Y-111051311D01*
X119648329Y-110912023D01*
X119538891Y-110748238D01*
X119463509Y-110566249D01*
X119425080Y-110373051D01*
X119425080Y-110176069D01*
X119463509Y-109982871D01*
X119538891Y-109800882D01*
X119648329Y-109637097D01*
X119787617Y-109497809D01*
X119951402Y-109388371D01*
X120133391Y-109312989D01*
X120249310Y-109289932D01*
X120326587Y-109274560D01*
X120523573Y-109274560D01*
X120600850Y-109289932D01*
X120600850Y-109289932D01*
G37*
G36*
X128130308Y-109433185D02*
X128289547Y-109499144D01*
X128432863Y-109594905D01*
X128554735Y-109716777D01*
X128650496Y-109860093D01*
X128716455Y-110019332D01*
X128750080Y-110188379D01*
X128750080Y-110360741D01*
X128716455Y-110529788D01*
X128650496Y-110689027D01*
X128554735Y-110832343D01*
X128432863Y-110954215D01*
X128289547Y-111049976D01*
X128130308Y-111115935D01*
X127961261Y-111149560D01*
X127788899Y-111149560D01*
X127619852Y-111115935D01*
X127460613Y-111049976D01*
X127317297Y-110954215D01*
X127195425Y-110832343D01*
X127099664Y-110689027D01*
X127033705Y-110529788D01*
X127000080Y-110360741D01*
X127000080Y-110188379D01*
X127033705Y-110019332D01*
X127099664Y-109860093D01*
X127195425Y-109716777D01*
X127317297Y-109594905D01*
X127460613Y-109499144D01*
X127619852Y-109433185D01*
X127788899Y-109399560D01*
X127961261Y-109399560D01*
X128130308Y-109433185D01*
X128130308Y-109433185D01*
G37*
G36*
X149202008Y-108936757D02*
X149279137Y-108944354D01*
X149411088Y-108984381D01*
X149477064Y-109004394D01*
X149659473Y-109101894D01*
X149819355Y-109233107D01*
X149950568Y-109392989D01*
X150048068Y-109575398D01*
X150053985Y-109594905D01*
X150108108Y-109773325D01*
X150128381Y-109979161D01*
X150108108Y-110184997D01*
X150068081Y-110316948D01*
X150048068Y-110382924D01*
X149950568Y-110565333D01*
X149819355Y-110725215D01*
X149659473Y-110856428D01*
X149477064Y-110953928D01*
X149443333Y-110964160D01*
X149279137Y-111013968D01*
X149202008Y-111021565D01*
X149124881Y-111029161D01*
X149021721Y-111029161D01*
X148944594Y-111021565D01*
X148867465Y-111013968D01*
X148703269Y-110964160D01*
X148669538Y-110953928D01*
X148487129Y-110856428D01*
X148327247Y-110725215D01*
X148196034Y-110565333D01*
X148098534Y-110382924D01*
X148078521Y-110316948D01*
X148038494Y-110184997D01*
X148018221Y-109979161D01*
X148038494Y-109773325D01*
X148092617Y-109594905D01*
X148098534Y-109575398D01*
X148196034Y-109392989D01*
X148327247Y-109233107D01*
X148487129Y-109101894D01*
X148669538Y-109004394D01*
X148735514Y-108984381D01*
X148867465Y-108944354D01*
X148944594Y-108936757D01*
X149021721Y-108929161D01*
X149124881Y-108929161D01*
X149202008Y-108936757D01*
X149202008Y-108936757D01*
G37*
G36*
X78917665Y-107416776D02*
X79163780Y-107465731D01*
X79464206Y-107590172D01*
X79734583Y-107770832D01*
X79964519Y-108000768D01*
X80145179Y-108271145D01*
X80269620Y-108571571D01*
X80276852Y-108607929D01*
X80333059Y-108890501D01*
X80333059Y-109215683D01*
X80317199Y-109295415D01*
X80269620Y-109534613D01*
X80145179Y-109835039D01*
X79964519Y-110105416D01*
X79734583Y-110335352D01*
X79464206Y-110516012D01*
X79163780Y-110640453D01*
X78924582Y-110688032D01*
X78844850Y-110703892D01*
X78519668Y-110703892D01*
X78439936Y-110688032D01*
X78200738Y-110640453D01*
X77900312Y-110516012D01*
X77629935Y-110335352D01*
X77399999Y-110105416D01*
X77219339Y-109835039D01*
X77094898Y-109534613D01*
X77047319Y-109295415D01*
X77031459Y-109215683D01*
X77031459Y-108890501D01*
X77087666Y-108607929D01*
X77094898Y-108571571D01*
X77219339Y-108271145D01*
X77399999Y-108000768D01*
X77629935Y-107770832D01*
X77900312Y-107590172D01*
X78200738Y-107465731D01*
X78446853Y-107416776D01*
X78519668Y-107402292D01*
X78844850Y-107402292D01*
X78917665Y-107416776D01*
X78917665Y-107416776D01*
G37*
G36*
X171458300Y-110524160D02*
X169358300Y-110524160D01*
X169358300Y-108424160D01*
X171458300Y-108424160D01*
X171458300Y-110524160D01*
X171458300Y-110524160D01*
G37*
G36*
X108583604Y-108131350D02*
X108674388Y-108149408D01*
X108845421Y-108220252D01*
X108845422Y-108220253D01*
X108999349Y-108323104D01*
X109130247Y-108454002D01*
X109130249Y-108454005D01*
X109233099Y-108607930D01*
X109303943Y-108778963D01*
X109303943Y-108778965D01*
X109336842Y-108944354D01*
X109340059Y-108960530D01*
X109340059Y-109145654D01*
X109303943Y-109327221D01*
X109233099Y-109498254D01*
X109181553Y-109575398D01*
X109130247Y-109652182D01*
X108999349Y-109783080D01*
X108999346Y-109783082D01*
X108845421Y-109885932D01*
X108674388Y-109956776D01*
X108583604Y-109974834D01*
X108492823Y-109992892D01*
X108307695Y-109992892D01*
X108216914Y-109974834D01*
X108126130Y-109956776D01*
X107955097Y-109885932D01*
X107801172Y-109783082D01*
X107801169Y-109783080D01*
X107670271Y-109652182D01*
X107618965Y-109575398D01*
X107567419Y-109498254D01*
X107496575Y-109327221D01*
X107460459Y-109145654D01*
X107460459Y-108960530D01*
X107463677Y-108944354D01*
X107496575Y-108778965D01*
X107496575Y-108778963D01*
X107567419Y-108607930D01*
X107670269Y-108454005D01*
X107670271Y-108454002D01*
X107801169Y-108323104D01*
X107955096Y-108220253D01*
X107955097Y-108220252D01*
X108126130Y-108149408D01*
X108216914Y-108131350D01*
X108307695Y-108113292D01*
X108492823Y-108113292D01*
X108583604Y-108131350D01*
X108583604Y-108131350D01*
G37*
G36*
X85032059Y-108769292D02*
X81730459Y-108769292D01*
X81730459Y-105467692D01*
X85032059Y-105467692D01*
X85032059Y-108769292D01*
X85032059Y-108769292D01*
G37*
G36*
X150123301Y-108489161D02*
X148023301Y-108489161D01*
X148023301Y-106389161D01*
X150123301Y-106389161D01*
X150123301Y-108489161D01*
X150123301Y-108489161D01*
G37*
G36*
X108583605Y-105591350D02*
X108674388Y-105609408D01*
X108845421Y-105680252D01*
X108997268Y-105781713D01*
X108999349Y-105783104D01*
X109130247Y-105914002D01*
X109130249Y-105914005D01*
X109233099Y-106067930D01*
X109303943Y-106238963D01*
X109303943Y-106238965D01*
X109333820Y-106389161D01*
X109340059Y-106420530D01*
X109340059Y-106605654D01*
X109303943Y-106787221D01*
X109233099Y-106958254D01*
X109233098Y-106958255D01*
X109130247Y-107112182D01*
X108999349Y-107243080D01*
X108999346Y-107243082D01*
X108845421Y-107345932D01*
X108674388Y-107416776D01*
X108583605Y-107434834D01*
X108492823Y-107452892D01*
X108307695Y-107452892D01*
X108216913Y-107434834D01*
X108126130Y-107416776D01*
X107955097Y-107345932D01*
X107801172Y-107243082D01*
X107801169Y-107243080D01*
X107670271Y-107112182D01*
X107567420Y-106958255D01*
X107567419Y-106958254D01*
X107496575Y-106787221D01*
X107460459Y-106605654D01*
X107460459Y-106420530D01*
X107466699Y-106389161D01*
X107496575Y-106238965D01*
X107496575Y-106238963D01*
X107567419Y-106067930D01*
X107670269Y-105914005D01*
X107670271Y-105914002D01*
X107801169Y-105783104D01*
X107803250Y-105781713D01*
X107955097Y-105680252D01*
X108126130Y-105609408D01*
X108216913Y-105591350D01*
X108307695Y-105573292D01*
X108492823Y-105573292D01*
X108583605Y-105591350D01*
X108583605Y-105591350D01*
G37*
G36*
X193604347Y-105245436D02*
X193681476Y-105253033D01*
X193813427Y-105293060D01*
X193879403Y-105313073D01*
X194061812Y-105410573D01*
X194221694Y-105541786D01*
X194352907Y-105701668D01*
X194450407Y-105884077D01*
X194450407Y-105884078D01*
X194510447Y-106082004D01*
X194530720Y-106287840D01*
X194510447Y-106493676D01*
X194476479Y-106605654D01*
X194450407Y-106691603D01*
X194352907Y-106874012D01*
X194221694Y-107033894D01*
X194061812Y-107165107D01*
X193879403Y-107262607D01*
X193813427Y-107282620D01*
X193681476Y-107322647D01*
X193604347Y-107330243D01*
X193527220Y-107337840D01*
X193424060Y-107337840D01*
X193346933Y-107330243D01*
X193269804Y-107322647D01*
X193137853Y-107282620D01*
X193071877Y-107262607D01*
X192889468Y-107165107D01*
X192729586Y-107033894D01*
X192598373Y-106874012D01*
X192500873Y-106691603D01*
X192474801Y-106605654D01*
X192440833Y-106493676D01*
X192420560Y-106287840D01*
X192440833Y-106082004D01*
X192500873Y-105884078D01*
X192500873Y-105884077D01*
X192598373Y-105701668D01*
X192729586Y-105541786D01*
X192889468Y-105410573D01*
X193071877Y-105313073D01*
X193137853Y-105293060D01*
X193269804Y-105253033D01*
X193346933Y-105245436D01*
X193424060Y-105237840D01*
X193527220Y-105237840D01*
X193604347Y-105245436D01*
X193604347Y-105245436D01*
G37*
G36*
X108583605Y-103051350D02*
X108674388Y-103069408D01*
X108845421Y-103140252D01*
X108900903Y-103177324D01*
X108999349Y-103243104D01*
X109130247Y-103374002D01*
X109130249Y-103374005D01*
X109233099Y-103527930D01*
X109303943Y-103698963D01*
X109303943Y-103698965D01*
X109340059Y-103880528D01*
X109340059Y-104065656D01*
X109322963Y-104151602D01*
X109303943Y-104247221D01*
X109233099Y-104418254D01*
X109233098Y-104418255D01*
X109130247Y-104572182D01*
X108999349Y-104703080D01*
X108999346Y-104703082D01*
X108845421Y-104805932D01*
X108674388Y-104876776D01*
X108583605Y-104894834D01*
X108492823Y-104912892D01*
X108307695Y-104912892D01*
X108216913Y-104894834D01*
X108126130Y-104876776D01*
X107955097Y-104805932D01*
X107801172Y-104703082D01*
X107801169Y-104703080D01*
X107670271Y-104572182D01*
X107567420Y-104418255D01*
X107567419Y-104418254D01*
X107496575Y-104247221D01*
X107477555Y-104151602D01*
X107460459Y-104065656D01*
X107460459Y-103880528D01*
X107496575Y-103698965D01*
X107496575Y-103698963D01*
X107567419Y-103527930D01*
X107670269Y-103374005D01*
X107670271Y-103374002D01*
X107801169Y-103243104D01*
X107899615Y-103177324D01*
X107955097Y-103140252D01*
X108126130Y-103069408D01*
X108216913Y-103051350D01*
X108307695Y-103033292D01*
X108492823Y-103033292D01*
X108583605Y-103051350D01*
X108583605Y-103051350D01*
G37*
G36*
X193604347Y-102705437D02*
X193681476Y-102713033D01*
X193813427Y-102753060D01*
X193879403Y-102773073D01*
X194061812Y-102870573D01*
X194221694Y-103001786D01*
X194352907Y-103161668D01*
X194450407Y-103344077D01*
X194450407Y-103344078D01*
X194510447Y-103542004D01*
X194530720Y-103747840D01*
X194510447Y-103953676D01*
X194507608Y-103963034D01*
X194450407Y-104151603D01*
X194352907Y-104334012D01*
X194221694Y-104493894D01*
X194061812Y-104625107D01*
X193879403Y-104722607D01*
X193813427Y-104742620D01*
X193681476Y-104782647D01*
X193604347Y-104790244D01*
X193527220Y-104797840D01*
X193424060Y-104797840D01*
X193346933Y-104790244D01*
X193269804Y-104782647D01*
X193137853Y-104742620D01*
X193071877Y-104722607D01*
X192889468Y-104625107D01*
X192729586Y-104493894D01*
X192598373Y-104334012D01*
X192500873Y-104151603D01*
X192443672Y-103963034D01*
X192440833Y-103953676D01*
X192420560Y-103747840D01*
X192440833Y-103542004D01*
X192500873Y-103344078D01*
X192500873Y-103344077D01*
X192598373Y-103161668D01*
X192729586Y-103001786D01*
X192889468Y-102870573D01*
X193071877Y-102773073D01*
X193137853Y-102753060D01*
X193269804Y-102713033D01*
X193346933Y-102705436D01*
X193424060Y-102697840D01*
X193527220Y-102697840D01*
X193604347Y-102705437D01*
X193604347Y-102705437D01*
G37*
G36*
X200713080Y-104266980D02*
X198613080Y-104266980D01*
X198613080Y-102166980D01*
X200713080Y-102166980D01*
X200713080Y-104266980D01*
X200713080Y-104266980D01*
G37*
G36*
X197251787Y-102174577D02*
X197328916Y-102182173D01*
X197460867Y-102222200D01*
X197526843Y-102242213D01*
X197709252Y-102339713D01*
X197869134Y-102470926D01*
X198000347Y-102630808D01*
X198097847Y-102813217D01*
X198097847Y-102813218D01*
X198157887Y-103011144D01*
X198178160Y-103216980D01*
X198157887Y-103422816D01*
X198126001Y-103527929D01*
X198097847Y-103620743D01*
X198000347Y-103803152D01*
X197869134Y-103963034D01*
X197709252Y-104094247D01*
X197526843Y-104191747D01*
X197460867Y-104211760D01*
X197328916Y-104251787D01*
X197251787Y-104259384D01*
X197174660Y-104266980D01*
X197071500Y-104266980D01*
X196994373Y-104259384D01*
X196917244Y-104251787D01*
X196785293Y-104211760D01*
X196719317Y-104191747D01*
X196536908Y-104094247D01*
X196377026Y-103963034D01*
X196245813Y-103803152D01*
X196148313Y-103620743D01*
X196120159Y-103527929D01*
X196088273Y-103422816D01*
X196068000Y-103216980D01*
X196088273Y-103011144D01*
X196148313Y-102813218D01*
X196148313Y-102813217D01*
X196245813Y-102630808D01*
X196377026Y-102470926D01*
X196536908Y-102339713D01*
X196719317Y-102242213D01*
X196785293Y-102222200D01*
X196917244Y-102182173D01*
X196994373Y-102174577D01*
X197071500Y-102166980D01*
X197174660Y-102166980D01*
X197251787Y-102174577D01*
X197251787Y-102174577D01*
G37*
G36*
X177917323Y-100490060D02*
X178156521Y-100537639D01*
X178456947Y-100662080D01*
X178727324Y-100842740D01*
X178957260Y-101072676D01*
X179137920Y-101343053D01*
X179262361Y-101643479D01*
X179275924Y-101711665D01*
X179321997Y-101943288D01*
X179325800Y-101962410D01*
X179325800Y-102287590D01*
X179262361Y-102606521D01*
X179137920Y-102906947D01*
X178957260Y-103177324D01*
X178727324Y-103407260D01*
X178456947Y-103587920D01*
X178156521Y-103712361D01*
X177917323Y-103759940D01*
X177837591Y-103775800D01*
X177512409Y-103775800D01*
X177432677Y-103759940D01*
X177193479Y-103712361D01*
X176893053Y-103587920D01*
X176622676Y-103407260D01*
X176392740Y-103177324D01*
X176212080Y-102906947D01*
X176087639Y-102606521D01*
X176024200Y-102287590D01*
X176024200Y-101962410D01*
X176028004Y-101943288D01*
X176074076Y-101711665D01*
X176087639Y-101643479D01*
X176212080Y-101343053D01*
X176392740Y-101072676D01*
X176622676Y-100842740D01*
X176893053Y-100662080D01*
X177193479Y-100537639D01*
X177432677Y-100490060D01*
X177512409Y-100474200D01*
X177837591Y-100474200D01*
X177917323Y-100490060D01*
X177917323Y-100490060D01*
G37*
G36*
X108583605Y-100511350D02*
X108674388Y-100529408D01*
X108845421Y-100600252D01*
X108937954Y-100662081D01*
X108999349Y-100703104D01*
X109130247Y-100834002D01*
X109130249Y-100834005D01*
X109233099Y-100987930D01*
X109303943Y-101158963D01*
X109340059Y-101340530D01*
X109340059Y-101525654D01*
X109303943Y-101707221D01*
X109233099Y-101878254D01*
X109233098Y-101878255D01*
X109130247Y-102032182D01*
X108999349Y-102163080D01*
X108999346Y-102163082D01*
X108845421Y-102265932D01*
X108674388Y-102336776D01*
X108583605Y-102354834D01*
X108492823Y-102372892D01*
X108307695Y-102372892D01*
X108216914Y-102354834D01*
X108126130Y-102336776D01*
X107955097Y-102265932D01*
X107801172Y-102163082D01*
X107801169Y-102163080D01*
X107670271Y-102032182D01*
X107567420Y-101878255D01*
X107567419Y-101878254D01*
X107496575Y-101707221D01*
X107460459Y-101525654D01*
X107460459Y-101340530D01*
X107496575Y-101158963D01*
X107567419Y-100987930D01*
X107670269Y-100834005D01*
X107670271Y-100834002D01*
X107801169Y-100703104D01*
X107862564Y-100662081D01*
X107955097Y-100600252D01*
X108126130Y-100529408D01*
X108216914Y-100511350D01*
X108307695Y-100493292D01*
X108492823Y-100493292D01*
X108583605Y-100511350D01*
X108583605Y-100511350D01*
G37*
G36*
X194525640Y-102257840D02*
X192425640Y-102257840D01*
X192425640Y-100157840D01*
X194525640Y-100157840D01*
X194525640Y-102257840D01*
X194525640Y-102257840D01*
G37*
G36*
X83976442Y-95900911D02*
X84548751Y-96074519D01*
X85076194Y-96356444D01*
X85538501Y-96735850D01*
X85917907Y-97198157D01*
X86199832Y-97725600D01*
X86373440Y-98297909D01*
X86432060Y-98893091D01*
X86432060Y-98893093D01*
X86373440Y-99488275D01*
X86199832Y-100060584D01*
X85917907Y-100588027D01*
X85538501Y-101050334D01*
X85076194Y-101429740D01*
X84548751Y-101711665D01*
X83976442Y-101885273D01*
X83381260Y-101943893D01*
X83381258Y-101943893D01*
X82786076Y-101885273D01*
X82213767Y-101711665D01*
X81686324Y-101429740D01*
X81224017Y-101050334D01*
X80844611Y-100588027D01*
X80562686Y-100060584D01*
X80389078Y-99488275D01*
X80330458Y-98893093D01*
X80330458Y-98893091D01*
X80389078Y-98297909D01*
X80562686Y-97725600D01*
X80844611Y-97198157D01*
X81224017Y-96735850D01*
X81686324Y-96356444D01*
X82213767Y-96074519D01*
X82786076Y-95900911D01*
X83381258Y-95842291D01*
X83381260Y-95842291D01*
X83976442Y-95900911D01*
X83976442Y-95900911D01*
G37*
G36*
X108583604Y-97971350D02*
X108674388Y-97989408D01*
X108845421Y-98060252D01*
X108845422Y-98060253D01*
X108999349Y-98163104D01*
X109130247Y-98294002D01*
X109130249Y-98294005D01*
X109233099Y-98447930D01*
X109303943Y-98618963D01*
X109340059Y-98800530D01*
X109340059Y-98985654D01*
X109303943Y-99167221D01*
X109233099Y-99338254D01*
X109233098Y-99338255D01*
X109130247Y-99492182D01*
X108999349Y-99623080D01*
X108999346Y-99623082D01*
X108845421Y-99725932D01*
X108674388Y-99796776D01*
X108583604Y-99814834D01*
X108492823Y-99832892D01*
X108307695Y-99832892D01*
X108216913Y-99814834D01*
X108126130Y-99796776D01*
X107955097Y-99725932D01*
X107801172Y-99623082D01*
X107801169Y-99623080D01*
X107670271Y-99492182D01*
X107567420Y-99338255D01*
X107567419Y-99338254D01*
X107496575Y-99167221D01*
X107460459Y-98985654D01*
X107460459Y-98800530D01*
X107496575Y-98618963D01*
X107567419Y-98447930D01*
X107670269Y-98294005D01*
X107670271Y-98294002D01*
X107801169Y-98163104D01*
X107955096Y-98060253D01*
X107955097Y-98060252D01*
X108126130Y-97989408D01*
X108216913Y-97971350D01*
X108307695Y-97953292D01*
X108492823Y-97953292D01*
X108583604Y-97971350D01*
X108583604Y-97971350D01*
G37*
G36*
X108583604Y-95431350D02*
X108674388Y-95449408D01*
X108845421Y-95520252D01*
X108845422Y-95520253D01*
X108999349Y-95623104D01*
X109130247Y-95754002D01*
X109130249Y-95754005D01*
X109233099Y-95907930D01*
X109303943Y-96078963D01*
X109340059Y-96260530D01*
X109340059Y-96445654D01*
X109303943Y-96627221D01*
X109233099Y-96798254D01*
X109233098Y-96798255D01*
X109130247Y-96952182D01*
X108999349Y-97083080D01*
X108999346Y-97083082D01*
X108845421Y-97185932D01*
X108674388Y-97256776D01*
X108583605Y-97274834D01*
X108492823Y-97292892D01*
X108307695Y-97292892D01*
X108216913Y-97274834D01*
X108126130Y-97256776D01*
X107955097Y-97185932D01*
X107801172Y-97083082D01*
X107801169Y-97083080D01*
X107670271Y-96952182D01*
X107567420Y-96798255D01*
X107567419Y-96798254D01*
X107496575Y-96627221D01*
X107460459Y-96445654D01*
X107460459Y-96260530D01*
X107496575Y-96078963D01*
X107567419Y-95907930D01*
X107670269Y-95754005D01*
X107670271Y-95754002D01*
X107801169Y-95623104D01*
X107955096Y-95520253D01*
X107955097Y-95520252D01*
X108126130Y-95449408D01*
X108216914Y-95431350D01*
X108307695Y-95413292D01*
X108492823Y-95413292D01*
X108583604Y-95431350D01*
X108583604Y-95431350D01*
G37*
G36*
X108583605Y-92891350D02*
X108674388Y-92909408D01*
X108845421Y-92980252D01*
X108845422Y-92980253D01*
X108999349Y-93083104D01*
X109130247Y-93214002D01*
X109130249Y-93214005D01*
X109233099Y-93367930D01*
X109303943Y-93538963D01*
X109303943Y-93538965D01*
X109337630Y-93708316D01*
X109340059Y-93720530D01*
X109340059Y-93905654D01*
X109303943Y-94087221D01*
X109233099Y-94258254D01*
X109151919Y-94379747D01*
X109130247Y-94412182D01*
X108999349Y-94543080D01*
X108999346Y-94543082D01*
X108845421Y-94645932D01*
X108674388Y-94716776D01*
X108583604Y-94734834D01*
X108492823Y-94752892D01*
X108307695Y-94752892D01*
X108216914Y-94734834D01*
X108126130Y-94716776D01*
X107955097Y-94645932D01*
X107801172Y-94543082D01*
X107801169Y-94543080D01*
X107670271Y-94412182D01*
X107648599Y-94379747D01*
X107567419Y-94258254D01*
X107496575Y-94087221D01*
X107460459Y-93905654D01*
X107460459Y-93720530D01*
X107462889Y-93708316D01*
X107496575Y-93538965D01*
X107496575Y-93538963D01*
X107567419Y-93367930D01*
X107670269Y-93214005D01*
X107670271Y-93214002D01*
X107801169Y-93083104D01*
X107955096Y-92980253D01*
X107955097Y-92980252D01*
X108126130Y-92909408D01*
X108216913Y-92891350D01*
X108307695Y-92873292D01*
X108492823Y-92873292D01*
X108583605Y-92891350D01*
X108583605Y-92891350D01*
G37*
G36*
X134662347Y-92460076D02*
X134739476Y-92467673D01*
X134871427Y-92507700D01*
X134937403Y-92527713D01*
X135119812Y-92625213D01*
X135279694Y-92756426D01*
X135410907Y-92916308D01*
X135508407Y-93098717D01*
X135508407Y-93098718D01*
X135568447Y-93296644D01*
X135588720Y-93502480D01*
X135568447Y-93708316D01*
X135528420Y-93840267D01*
X135508407Y-93906243D01*
X135410907Y-94088652D01*
X135279694Y-94248534D01*
X135119812Y-94379747D01*
X134937403Y-94477247D01*
X134871427Y-94497260D01*
X134739476Y-94537287D01*
X134680658Y-94543080D01*
X134585220Y-94552480D01*
X134482060Y-94552480D01*
X134386622Y-94543080D01*
X134327804Y-94537287D01*
X134195853Y-94497260D01*
X134129877Y-94477247D01*
X133947468Y-94379747D01*
X133787586Y-94248534D01*
X133656373Y-94088652D01*
X133558873Y-93906243D01*
X133538860Y-93840267D01*
X133498833Y-93708316D01*
X133478560Y-93502480D01*
X133498833Y-93296644D01*
X133558873Y-93098718D01*
X133558873Y-93098717D01*
X133656373Y-92916308D01*
X133787586Y-92756426D01*
X133947468Y-92625213D01*
X134129877Y-92527713D01*
X134195853Y-92507700D01*
X134327804Y-92467673D01*
X134404933Y-92460076D01*
X134482060Y-92452480D01*
X134585220Y-92452480D01*
X134662347Y-92460076D01*
X134662347Y-92460076D01*
G37*
G36*
X130503640Y-94552480D02*
X128403640Y-94552480D01*
X128403640Y-92452480D01*
X130503640Y-92452480D01*
X130503640Y-94552480D01*
X130503640Y-94552480D01*
G37*
G36*
X167682347Y-92460076D02*
X167759476Y-92467673D01*
X167891427Y-92507700D01*
X167957403Y-92527713D01*
X168139812Y-92625213D01*
X168299694Y-92756426D01*
X168430907Y-92916308D01*
X168528407Y-93098717D01*
X168528407Y-93098718D01*
X168588447Y-93296644D01*
X168608720Y-93502480D01*
X168588447Y-93708316D01*
X168548420Y-93840267D01*
X168528407Y-93906243D01*
X168430907Y-94088652D01*
X168299694Y-94248534D01*
X168139812Y-94379747D01*
X167957403Y-94477247D01*
X167891427Y-94497260D01*
X167759476Y-94537287D01*
X167700658Y-94543080D01*
X167605220Y-94552480D01*
X167502060Y-94552480D01*
X167406622Y-94543080D01*
X167347804Y-94537287D01*
X167215853Y-94497260D01*
X167149877Y-94477247D01*
X166967468Y-94379747D01*
X166807586Y-94248534D01*
X166676373Y-94088652D01*
X166578873Y-93906243D01*
X166558860Y-93840267D01*
X166518833Y-93708316D01*
X166498560Y-93502480D01*
X166518833Y-93296644D01*
X166578873Y-93098718D01*
X166578873Y-93098717D01*
X166676373Y-92916308D01*
X166807586Y-92756426D01*
X166967468Y-92625213D01*
X167149877Y-92527713D01*
X167215853Y-92507700D01*
X167347804Y-92467673D01*
X167424933Y-92460076D01*
X167502060Y-92452480D01*
X167605220Y-92452480D01*
X167682347Y-92460076D01*
X167682347Y-92460076D01*
G37*
G36*
X165142347Y-92460076D02*
X165219476Y-92467673D01*
X165351427Y-92507700D01*
X165417403Y-92527713D01*
X165599812Y-92625213D01*
X165759694Y-92756426D01*
X165890907Y-92916308D01*
X165988407Y-93098717D01*
X165988407Y-93098718D01*
X166048447Y-93296644D01*
X166068720Y-93502480D01*
X166048447Y-93708316D01*
X166008420Y-93840267D01*
X165988407Y-93906243D01*
X165890907Y-94088652D01*
X165759694Y-94248534D01*
X165599812Y-94379747D01*
X165417403Y-94477247D01*
X165351427Y-94497260D01*
X165219476Y-94537287D01*
X165160658Y-94543080D01*
X165065220Y-94552480D01*
X164962060Y-94552480D01*
X164866622Y-94543080D01*
X164807804Y-94537287D01*
X164675853Y-94497260D01*
X164609877Y-94477247D01*
X164427468Y-94379747D01*
X164267586Y-94248534D01*
X164136373Y-94088652D01*
X164038873Y-93906243D01*
X164018860Y-93840267D01*
X163978833Y-93708316D01*
X163958560Y-93502480D01*
X163978833Y-93296644D01*
X164038873Y-93098718D01*
X164038873Y-93098717D01*
X164136373Y-92916308D01*
X164267586Y-92756426D01*
X164427468Y-92625213D01*
X164609877Y-92527713D01*
X164675853Y-92507700D01*
X164807804Y-92467673D01*
X164884933Y-92460076D01*
X164962060Y-92452480D01*
X165065220Y-92452480D01*
X165142347Y-92460076D01*
X165142347Y-92460076D01*
G37*
G36*
X160062347Y-92460076D02*
X160139476Y-92467673D01*
X160271427Y-92507700D01*
X160337403Y-92527713D01*
X160519812Y-92625213D01*
X160679694Y-92756426D01*
X160810907Y-92916308D01*
X160908407Y-93098717D01*
X160908407Y-93098718D01*
X160968447Y-93296644D01*
X160988720Y-93502480D01*
X160968447Y-93708316D01*
X160928420Y-93840267D01*
X160908407Y-93906243D01*
X160810907Y-94088652D01*
X160679694Y-94248534D01*
X160519812Y-94379747D01*
X160337403Y-94477247D01*
X160271427Y-94497260D01*
X160139476Y-94537287D01*
X160080658Y-94543080D01*
X159985220Y-94552480D01*
X159882060Y-94552480D01*
X159786622Y-94543080D01*
X159727804Y-94537287D01*
X159595853Y-94497260D01*
X159529877Y-94477247D01*
X159347468Y-94379747D01*
X159187586Y-94248534D01*
X159056373Y-94088652D01*
X158958873Y-93906243D01*
X158938860Y-93840267D01*
X158898833Y-93708316D01*
X158878560Y-93502480D01*
X158898833Y-93296644D01*
X158958873Y-93098718D01*
X158958873Y-93098717D01*
X159056373Y-92916308D01*
X159187586Y-92756426D01*
X159347468Y-92625213D01*
X159529877Y-92527713D01*
X159595853Y-92507700D01*
X159727804Y-92467673D01*
X159804933Y-92460076D01*
X159882060Y-92452480D01*
X159985220Y-92452480D01*
X160062347Y-92460076D01*
X160062347Y-92460076D01*
G37*
G36*
X157522347Y-92460076D02*
X157599476Y-92467673D01*
X157731427Y-92507700D01*
X157797403Y-92527713D01*
X157979812Y-92625213D01*
X158139694Y-92756426D01*
X158270907Y-92916308D01*
X158368407Y-93098717D01*
X158368407Y-93098718D01*
X158428447Y-93296644D01*
X158448720Y-93502480D01*
X158428447Y-93708316D01*
X158388420Y-93840267D01*
X158368407Y-93906243D01*
X158270907Y-94088652D01*
X158139694Y-94248534D01*
X157979812Y-94379747D01*
X157797403Y-94477247D01*
X157731427Y-94497260D01*
X157599476Y-94537287D01*
X157540658Y-94543080D01*
X157445220Y-94552480D01*
X157342060Y-94552480D01*
X157246622Y-94543080D01*
X157187804Y-94537287D01*
X157055853Y-94497260D01*
X156989877Y-94477247D01*
X156807468Y-94379747D01*
X156647586Y-94248534D01*
X156516373Y-94088652D01*
X156418873Y-93906243D01*
X156398860Y-93840267D01*
X156358833Y-93708316D01*
X156338560Y-93502480D01*
X156358833Y-93296644D01*
X156418873Y-93098718D01*
X156418873Y-93098717D01*
X156516373Y-92916308D01*
X156647586Y-92756426D01*
X156807468Y-92625213D01*
X156989877Y-92527713D01*
X157055853Y-92507700D01*
X157187804Y-92467673D01*
X157264933Y-92460076D01*
X157342060Y-92452480D01*
X157445220Y-92452480D01*
X157522347Y-92460076D01*
X157522347Y-92460076D01*
G37*
G36*
X154982347Y-92460076D02*
X155059476Y-92467673D01*
X155191427Y-92507700D01*
X155257403Y-92527713D01*
X155439812Y-92625213D01*
X155599694Y-92756426D01*
X155730907Y-92916308D01*
X155828407Y-93098717D01*
X155828407Y-93098718D01*
X155888447Y-93296644D01*
X155908720Y-93502480D01*
X155888447Y-93708316D01*
X155848420Y-93840267D01*
X155828407Y-93906243D01*
X155730907Y-94088652D01*
X155599694Y-94248534D01*
X155439812Y-94379747D01*
X155257403Y-94477247D01*
X155191427Y-94497260D01*
X155059476Y-94537287D01*
X155000658Y-94543080D01*
X154905220Y-94552480D01*
X154802060Y-94552480D01*
X154706622Y-94543080D01*
X154647804Y-94537287D01*
X154515853Y-94497260D01*
X154449877Y-94477247D01*
X154267468Y-94379747D01*
X154107586Y-94248534D01*
X153976373Y-94088652D01*
X153878873Y-93906243D01*
X153858860Y-93840267D01*
X153818833Y-93708316D01*
X153798560Y-93502480D01*
X153818833Y-93296644D01*
X153878873Y-93098718D01*
X153878873Y-93098717D01*
X153976373Y-92916308D01*
X154107586Y-92756426D01*
X154267468Y-92625213D01*
X154449877Y-92527713D01*
X154515853Y-92507700D01*
X154647804Y-92467673D01*
X154724933Y-92460076D01*
X154802060Y-92452480D01*
X154905220Y-92452480D01*
X154982347Y-92460076D01*
X154982347Y-92460076D01*
G37*
G36*
X152442347Y-92460076D02*
X152519476Y-92467673D01*
X152651427Y-92507700D01*
X152717403Y-92527713D01*
X152899812Y-92625213D01*
X153059694Y-92756426D01*
X153190907Y-92916308D01*
X153288407Y-93098717D01*
X153288407Y-93098718D01*
X153348447Y-93296644D01*
X153368720Y-93502480D01*
X153348447Y-93708316D01*
X153308420Y-93840267D01*
X153288407Y-93906243D01*
X153190907Y-94088652D01*
X153059694Y-94248534D01*
X152899812Y-94379747D01*
X152717403Y-94477247D01*
X152651427Y-94497260D01*
X152519476Y-94537287D01*
X152460658Y-94543080D01*
X152365220Y-94552480D01*
X152262060Y-94552480D01*
X152166622Y-94543080D01*
X152107804Y-94537287D01*
X151975853Y-94497260D01*
X151909877Y-94477247D01*
X151727468Y-94379747D01*
X151567586Y-94248534D01*
X151436373Y-94088652D01*
X151338873Y-93906243D01*
X151318860Y-93840267D01*
X151278833Y-93708316D01*
X151258560Y-93502480D01*
X151278833Y-93296644D01*
X151338873Y-93098718D01*
X151338873Y-93098717D01*
X151436373Y-92916308D01*
X151567586Y-92756426D01*
X151727468Y-92625213D01*
X151909877Y-92527713D01*
X151975853Y-92507700D01*
X152107804Y-92467673D01*
X152184933Y-92460076D01*
X152262060Y-92452480D01*
X152365220Y-92452480D01*
X152442347Y-92460076D01*
X152442347Y-92460076D01*
G37*
G36*
X149902347Y-92460076D02*
X149979476Y-92467673D01*
X150111427Y-92507700D01*
X150177403Y-92527713D01*
X150359812Y-92625213D01*
X150519694Y-92756426D01*
X150650907Y-92916308D01*
X150748407Y-93098717D01*
X150748407Y-93098718D01*
X150808447Y-93296644D01*
X150828720Y-93502480D01*
X150808447Y-93708316D01*
X150768420Y-93840267D01*
X150748407Y-93906243D01*
X150650907Y-94088652D01*
X150519694Y-94248534D01*
X150359812Y-94379747D01*
X150177403Y-94477247D01*
X150111427Y-94497260D01*
X149979476Y-94537287D01*
X149920658Y-94543080D01*
X149825220Y-94552480D01*
X149722060Y-94552480D01*
X149626622Y-94543080D01*
X149567804Y-94537287D01*
X149435853Y-94497260D01*
X149369877Y-94477247D01*
X149187468Y-94379747D01*
X149027586Y-94248534D01*
X148896373Y-94088652D01*
X148798873Y-93906243D01*
X148778860Y-93840267D01*
X148738833Y-93708316D01*
X148718560Y-93502480D01*
X148738833Y-93296644D01*
X148798873Y-93098718D01*
X148798873Y-93098717D01*
X148896373Y-92916308D01*
X149027586Y-92756426D01*
X149187468Y-92625213D01*
X149369877Y-92527713D01*
X149435853Y-92507700D01*
X149567804Y-92467673D01*
X149644933Y-92460076D01*
X149722060Y-92452480D01*
X149825220Y-92452480D01*
X149902347Y-92460076D01*
X149902347Y-92460076D01*
G37*
G36*
X132122347Y-92460076D02*
X132199476Y-92467673D01*
X132331427Y-92507700D01*
X132397403Y-92527713D01*
X132579812Y-92625213D01*
X132739694Y-92756426D01*
X132870907Y-92916308D01*
X132968407Y-93098717D01*
X132968407Y-93098718D01*
X133028447Y-93296644D01*
X133048720Y-93502480D01*
X133028447Y-93708316D01*
X132988420Y-93840267D01*
X132968407Y-93906243D01*
X132870907Y-94088652D01*
X132739694Y-94248534D01*
X132579812Y-94379747D01*
X132397403Y-94477247D01*
X132331427Y-94497260D01*
X132199476Y-94537287D01*
X132140658Y-94543080D01*
X132045220Y-94552480D01*
X131942060Y-94552480D01*
X131846622Y-94543080D01*
X131787804Y-94537287D01*
X131655853Y-94497260D01*
X131589877Y-94477247D01*
X131407468Y-94379747D01*
X131247586Y-94248534D01*
X131116373Y-94088652D01*
X131018873Y-93906243D01*
X130998860Y-93840267D01*
X130958833Y-93708316D01*
X130938560Y-93502480D01*
X130958833Y-93296644D01*
X131018873Y-93098718D01*
X131018873Y-93098717D01*
X131116373Y-92916308D01*
X131247586Y-92756426D01*
X131407468Y-92625213D01*
X131589877Y-92527713D01*
X131655853Y-92507700D01*
X131787804Y-92467673D01*
X131864933Y-92460076D01*
X131942060Y-92452480D01*
X132045220Y-92452480D01*
X132122347Y-92460076D01*
X132122347Y-92460076D01*
G37*
G36*
X137202347Y-92460076D02*
X137279476Y-92467673D01*
X137411427Y-92507700D01*
X137477403Y-92527713D01*
X137659812Y-92625213D01*
X137819694Y-92756426D01*
X137950907Y-92916308D01*
X138048407Y-93098717D01*
X138048407Y-93098718D01*
X138108447Y-93296644D01*
X138128720Y-93502480D01*
X138108447Y-93708316D01*
X138068420Y-93840267D01*
X138048407Y-93906243D01*
X137950907Y-94088652D01*
X137819694Y-94248534D01*
X137659812Y-94379747D01*
X137477403Y-94477247D01*
X137411427Y-94497260D01*
X137279476Y-94537287D01*
X137220658Y-94543080D01*
X137125220Y-94552480D01*
X137022060Y-94552480D01*
X136926622Y-94543080D01*
X136867804Y-94537287D01*
X136735853Y-94497260D01*
X136669877Y-94477247D01*
X136487468Y-94379747D01*
X136327586Y-94248534D01*
X136196373Y-94088652D01*
X136098873Y-93906243D01*
X136078860Y-93840267D01*
X136038833Y-93708316D01*
X136018560Y-93502480D01*
X136038833Y-93296644D01*
X136098873Y-93098718D01*
X136098873Y-93098717D01*
X136196373Y-92916308D01*
X136327586Y-92756426D01*
X136487468Y-92625213D01*
X136669877Y-92527713D01*
X136735853Y-92507700D01*
X136867804Y-92467673D01*
X136944933Y-92460076D01*
X137022060Y-92452480D01*
X137125220Y-92452480D01*
X137202347Y-92460076D01*
X137202347Y-92460076D01*
G37*
G36*
X139742347Y-92460076D02*
X139819476Y-92467673D01*
X139951427Y-92507700D01*
X140017403Y-92527713D01*
X140199812Y-92625213D01*
X140359694Y-92756426D01*
X140490907Y-92916308D01*
X140588407Y-93098717D01*
X140588407Y-93098718D01*
X140648447Y-93296644D01*
X140668720Y-93502480D01*
X140648447Y-93708316D01*
X140608420Y-93840267D01*
X140588407Y-93906243D01*
X140490907Y-94088652D01*
X140359694Y-94248534D01*
X140199812Y-94379747D01*
X140017403Y-94477247D01*
X139951427Y-94497260D01*
X139819476Y-94537287D01*
X139760658Y-94543080D01*
X139665220Y-94552480D01*
X139562060Y-94552480D01*
X139466622Y-94543080D01*
X139407804Y-94537287D01*
X139275853Y-94497260D01*
X139209877Y-94477247D01*
X139027468Y-94379747D01*
X138867586Y-94248534D01*
X138736373Y-94088652D01*
X138638873Y-93906243D01*
X138618860Y-93840267D01*
X138578833Y-93708316D01*
X138558560Y-93502480D01*
X138578833Y-93296644D01*
X138638873Y-93098718D01*
X138638873Y-93098717D01*
X138736373Y-92916308D01*
X138867586Y-92756426D01*
X139027468Y-92625213D01*
X139209877Y-92527713D01*
X139275853Y-92507700D01*
X139407804Y-92467673D01*
X139484933Y-92460076D01*
X139562060Y-92452480D01*
X139665220Y-92452480D01*
X139742347Y-92460076D01*
X139742347Y-92460076D01*
G37*
G36*
X162602347Y-92460076D02*
X162679476Y-92467673D01*
X162811427Y-92507700D01*
X162877403Y-92527713D01*
X163059812Y-92625213D01*
X163219694Y-92756426D01*
X163350907Y-92916308D01*
X163448407Y-93098717D01*
X163448407Y-93098718D01*
X163508447Y-93296644D01*
X163528720Y-93502480D01*
X163508447Y-93708316D01*
X163468420Y-93840267D01*
X163448407Y-93906243D01*
X163350907Y-94088652D01*
X163219694Y-94248534D01*
X163059812Y-94379747D01*
X162877403Y-94477247D01*
X162811427Y-94497260D01*
X162679476Y-94537287D01*
X162620658Y-94543080D01*
X162525220Y-94552480D01*
X162422060Y-94552480D01*
X162326622Y-94543080D01*
X162267804Y-94537287D01*
X162135853Y-94497260D01*
X162069877Y-94477247D01*
X161887468Y-94379747D01*
X161727586Y-94248534D01*
X161596373Y-94088652D01*
X161498873Y-93906243D01*
X161478860Y-93840267D01*
X161438833Y-93708316D01*
X161418560Y-93502480D01*
X161438833Y-93296644D01*
X161498873Y-93098718D01*
X161498873Y-93098717D01*
X161596373Y-92916308D01*
X161727586Y-92756426D01*
X161887468Y-92625213D01*
X162069877Y-92527713D01*
X162135853Y-92507700D01*
X162267804Y-92467673D01*
X162344933Y-92460076D01*
X162422060Y-92452480D01*
X162525220Y-92452480D01*
X162602347Y-92460076D01*
X162602347Y-92460076D01*
G37*
G36*
X144822347Y-92460076D02*
X144899476Y-92467673D01*
X145031427Y-92507700D01*
X145097403Y-92527713D01*
X145279812Y-92625213D01*
X145439694Y-92756426D01*
X145570907Y-92916308D01*
X145668407Y-93098717D01*
X145668407Y-93098718D01*
X145728447Y-93296644D01*
X145748720Y-93502480D01*
X145728447Y-93708316D01*
X145688420Y-93840267D01*
X145668407Y-93906243D01*
X145570907Y-94088652D01*
X145439694Y-94248534D01*
X145279812Y-94379747D01*
X145097403Y-94477247D01*
X145031427Y-94497260D01*
X144899476Y-94537287D01*
X144840658Y-94543080D01*
X144745220Y-94552480D01*
X144642060Y-94552480D01*
X144546622Y-94543080D01*
X144487804Y-94537287D01*
X144355853Y-94497260D01*
X144289877Y-94477247D01*
X144107468Y-94379747D01*
X143947586Y-94248534D01*
X143816373Y-94088652D01*
X143718873Y-93906243D01*
X143698860Y-93840267D01*
X143658833Y-93708316D01*
X143638560Y-93502480D01*
X143658833Y-93296644D01*
X143718873Y-93098718D01*
X143718873Y-93098717D01*
X143816373Y-92916308D01*
X143947586Y-92756426D01*
X144107468Y-92625213D01*
X144289877Y-92527713D01*
X144355853Y-92507700D01*
X144487804Y-92467673D01*
X144564933Y-92460076D01*
X144642060Y-92452480D01*
X144745220Y-92452480D01*
X144822347Y-92460076D01*
X144822347Y-92460076D01*
G37*
G36*
X142282347Y-92460076D02*
X142359476Y-92467673D01*
X142491427Y-92507700D01*
X142557403Y-92527713D01*
X142739812Y-92625213D01*
X142899694Y-92756426D01*
X143030907Y-92916308D01*
X143128407Y-93098717D01*
X143128407Y-93098718D01*
X143188447Y-93296644D01*
X143208720Y-93502480D01*
X143188447Y-93708316D01*
X143148420Y-93840267D01*
X143128407Y-93906243D01*
X143030907Y-94088652D01*
X142899694Y-94248534D01*
X142739812Y-94379747D01*
X142557403Y-94477247D01*
X142491427Y-94497260D01*
X142359476Y-94537287D01*
X142300658Y-94543080D01*
X142205220Y-94552480D01*
X142102060Y-94552480D01*
X142006622Y-94543080D01*
X141947804Y-94537287D01*
X141815853Y-94497260D01*
X141749877Y-94477247D01*
X141567468Y-94379747D01*
X141407586Y-94248534D01*
X141276373Y-94088652D01*
X141178873Y-93906243D01*
X141158860Y-93840267D01*
X141118833Y-93708316D01*
X141098560Y-93502480D01*
X141118833Y-93296644D01*
X141178873Y-93098718D01*
X141178873Y-93098717D01*
X141276373Y-92916308D01*
X141407586Y-92756426D01*
X141567468Y-92625213D01*
X141749877Y-92527713D01*
X141815853Y-92507700D01*
X141947804Y-92467673D01*
X142024933Y-92460076D01*
X142102060Y-92452480D01*
X142205220Y-92452480D01*
X142282347Y-92460076D01*
X142282347Y-92460076D01*
G37*
G36*
X147362347Y-92460076D02*
X147439476Y-92467673D01*
X147571427Y-92507700D01*
X147637403Y-92527713D01*
X147819812Y-92625213D01*
X147979694Y-92756426D01*
X148110907Y-92916308D01*
X148208407Y-93098717D01*
X148208407Y-93098718D01*
X148268447Y-93296644D01*
X148288720Y-93502480D01*
X148268447Y-93708316D01*
X148228420Y-93840267D01*
X148208407Y-93906243D01*
X148110907Y-94088652D01*
X147979694Y-94248534D01*
X147819812Y-94379747D01*
X147637403Y-94477247D01*
X147571427Y-94497260D01*
X147439476Y-94537287D01*
X147380658Y-94543080D01*
X147285220Y-94552480D01*
X147182060Y-94552480D01*
X147086622Y-94543080D01*
X147027804Y-94537287D01*
X146895853Y-94497260D01*
X146829877Y-94477247D01*
X146647468Y-94379747D01*
X146487586Y-94248534D01*
X146356373Y-94088652D01*
X146258873Y-93906243D01*
X146238860Y-93840267D01*
X146198833Y-93708316D01*
X146178560Y-93502480D01*
X146198833Y-93296644D01*
X146258873Y-93098718D01*
X146258873Y-93098717D01*
X146356373Y-92916308D01*
X146487586Y-92756426D01*
X146647468Y-92625213D01*
X146829877Y-92527713D01*
X146895853Y-92507700D01*
X147027804Y-92467673D01*
X147104933Y-92460076D01*
X147182060Y-92452480D01*
X147285220Y-92452480D01*
X147362347Y-92460076D01*
X147362347Y-92460076D01*
G37*
G36*
X119515600Y-94537240D02*
X117415600Y-94537240D01*
X117415600Y-92437240D01*
X119515600Y-92437240D01*
X119515600Y-94537240D01*
X119515600Y-94537240D01*
G37*
G36*
X121134307Y-92444836D02*
X121211436Y-92452433D01*
X121343387Y-92492460D01*
X121409363Y-92512473D01*
X121591772Y-92609973D01*
X121751654Y-92741186D01*
X121882867Y-92901068D01*
X121980367Y-93083477D01*
X121980367Y-93083478D01*
X122040407Y-93281404D01*
X122060680Y-93487240D01*
X122040407Y-93693076D01*
X122000380Y-93825027D01*
X121980367Y-93891003D01*
X121882867Y-94073412D01*
X121751654Y-94233294D01*
X121591772Y-94364507D01*
X121409363Y-94462007D01*
X121343387Y-94482020D01*
X121211436Y-94522047D01*
X121134307Y-94529643D01*
X121057180Y-94537240D01*
X120954020Y-94537240D01*
X120876893Y-94529643D01*
X120799764Y-94522047D01*
X120667813Y-94482020D01*
X120601837Y-94462007D01*
X120419428Y-94364507D01*
X120259546Y-94233294D01*
X120128333Y-94073412D01*
X120030833Y-93891003D01*
X120010820Y-93825027D01*
X119970793Y-93693076D01*
X119950520Y-93487240D01*
X119970793Y-93281404D01*
X120030833Y-93083478D01*
X120030833Y-93083477D01*
X120128333Y-92901068D01*
X120259546Y-92741186D01*
X120419428Y-92609973D01*
X120601837Y-92512473D01*
X120667813Y-92492460D01*
X120799764Y-92452433D01*
X120876893Y-92444836D01*
X120954020Y-92437240D01*
X121057180Y-92437240D01*
X121134307Y-92444836D01*
X121134307Y-92444836D01*
G37*
G36*
X85032059Y-92318492D02*
X81730459Y-92318492D01*
X81730459Y-89016892D01*
X85032059Y-89016892D01*
X85032059Y-92318492D01*
X85032059Y-92318492D01*
G37*
G36*
X108583605Y-90351350D02*
X108674388Y-90369408D01*
X108845421Y-90440252D01*
X108845422Y-90440253D01*
X108999349Y-90543104D01*
X109130247Y-90674002D01*
X109130249Y-90674005D01*
X109233099Y-90827930D01*
X109303943Y-90998963D01*
X109340059Y-91180530D01*
X109340059Y-91365654D01*
X109303943Y-91547221D01*
X109233099Y-91718254D01*
X109233098Y-91718255D01*
X109130247Y-91872182D01*
X108999349Y-92003080D01*
X108999346Y-92003082D01*
X108845421Y-92105932D01*
X108674388Y-92176776D01*
X108583605Y-92194834D01*
X108492823Y-92212892D01*
X108307695Y-92212892D01*
X108216913Y-92194834D01*
X108126130Y-92176776D01*
X107955097Y-92105932D01*
X107801172Y-92003082D01*
X107801169Y-92003080D01*
X107670271Y-91872182D01*
X107567420Y-91718255D01*
X107567419Y-91718254D01*
X107496575Y-91547221D01*
X107460459Y-91365654D01*
X107460459Y-91180530D01*
X107496575Y-90998963D01*
X107567419Y-90827930D01*
X107670269Y-90674005D01*
X107670271Y-90674002D01*
X107801169Y-90543104D01*
X107955096Y-90440253D01*
X107955097Y-90440252D01*
X108126130Y-90369408D01*
X108216913Y-90351350D01*
X108307695Y-90333292D01*
X108492823Y-90333292D01*
X108583605Y-90351350D01*
X108583605Y-90351350D01*
G37*
G36*
X174780920Y-91001560D02*
X172680920Y-91001560D01*
X172680920Y-88901560D01*
X174780920Y-88901560D01*
X174780920Y-91001560D01*
X174780920Y-91001560D01*
G37*
G36*
X78924582Y-87098152D02*
X79163780Y-87145731D01*
X79464206Y-87270172D01*
X79734583Y-87450832D01*
X79964519Y-87680768D01*
X80145179Y-87951145D01*
X80269620Y-88251571D01*
X80333059Y-88570502D01*
X80333059Y-88895682D01*
X80269620Y-89214613D01*
X80145179Y-89515039D01*
X79964519Y-89785416D01*
X79734583Y-90015352D01*
X79464206Y-90196012D01*
X79163780Y-90320453D01*
X78924582Y-90368032D01*
X78844850Y-90383892D01*
X78519668Y-90383892D01*
X78439936Y-90368032D01*
X78200738Y-90320453D01*
X77900312Y-90196012D01*
X77629935Y-90015352D01*
X77399999Y-89785416D01*
X77219339Y-89515039D01*
X77094898Y-89214613D01*
X77031459Y-88895682D01*
X77031459Y-88570502D01*
X77094898Y-88251571D01*
X77219339Y-87951145D01*
X77399999Y-87680768D01*
X77629935Y-87450832D01*
X77900312Y-87270172D01*
X78200738Y-87145731D01*
X78439936Y-87098152D01*
X78519668Y-87082292D01*
X78844850Y-87082292D01*
X78924582Y-87098152D01*
X78924582Y-87098152D01*
G37*
G36*
X108583604Y-87811350D02*
X108674388Y-87829408D01*
X108845421Y-87900252D01*
X108845422Y-87900253D01*
X108999349Y-88003104D01*
X109130247Y-88134002D01*
X109130249Y-88134005D01*
X109233099Y-88287930D01*
X109303943Y-88458963D01*
X109340059Y-88640530D01*
X109340059Y-88825654D01*
X109303943Y-89007221D01*
X109233099Y-89178254D01*
X109131638Y-89330101D01*
X109130247Y-89332182D01*
X108999349Y-89463080D01*
X108999346Y-89463082D01*
X108845421Y-89565932D01*
X108674388Y-89636776D01*
X108583605Y-89654834D01*
X108492823Y-89672892D01*
X108307695Y-89672892D01*
X108216914Y-89654834D01*
X108126130Y-89636776D01*
X107955097Y-89565932D01*
X107801172Y-89463082D01*
X107801169Y-89463080D01*
X107670271Y-89332182D01*
X107668880Y-89330101D01*
X107567419Y-89178254D01*
X107496575Y-89007221D01*
X107460459Y-88825654D01*
X107460459Y-88640530D01*
X107496575Y-88458963D01*
X107567419Y-88287930D01*
X107670269Y-88134005D01*
X107670271Y-88134002D01*
X107801169Y-88003104D01*
X107955096Y-87900253D01*
X107955097Y-87900252D01*
X108126130Y-87829408D01*
X108216914Y-87811350D01*
X108307695Y-87793292D01*
X108492823Y-87793292D01*
X108583604Y-87811350D01*
X108583604Y-87811350D01*
G37*
G36*
X173859627Y-86369157D02*
X173936756Y-86376753D01*
X174068707Y-86416780D01*
X174134683Y-86436793D01*
X174317092Y-86534293D01*
X174476974Y-86665506D01*
X174608187Y-86825388D01*
X174705687Y-87007797D01*
X174705687Y-87007798D01*
X174765727Y-87205724D01*
X174786000Y-87411560D01*
X174765727Y-87617396D01*
X174746504Y-87680766D01*
X174705687Y-87815323D01*
X174608187Y-87997732D01*
X174476974Y-88157614D01*
X174317092Y-88288827D01*
X174134683Y-88386327D01*
X174068707Y-88406340D01*
X173936756Y-88446367D01*
X173870019Y-88452940D01*
X173782500Y-88461560D01*
X173679340Y-88461560D01*
X173591821Y-88452940D01*
X173525084Y-88446367D01*
X173393133Y-88406340D01*
X173327157Y-88386327D01*
X173144748Y-88288827D01*
X172984866Y-88157614D01*
X172853653Y-87997732D01*
X172756153Y-87815323D01*
X172715336Y-87680766D01*
X172696113Y-87617396D01*
X172675840Y-87411560D01*
X172696113Y-87205724D01*
X172756153Y-87007798D01*
X172756153Y-87007797D01*
X172853653Y-86825388D01*
X172984866Y-86665506D01*
X173144748Y-86534293D01*
X173327157Y-86436793D01*
X173393133Y-86416780D01*
X173525084Y-86376753D01*
X173602213Y-86369157D01*
X173679340Y-86361560D01*
X173782500Y-86361560D01*
X173859627Y-86369157D01*
X173859627Y-86369157D01*
G37*
G36*
X194772020Y-88452940D02*
X192672020Y-88452940D01*
X192672020Y-86352940D01*
X194772020Y-86352940D01*
X194772020Y-88452940D01*
X194772020Y-88452940D01*
G37*
G36*
X173849235Y-83828133D02*
X173936756Y-83836753D01*
X174068707Y-83876780D01*
X174134683Y-83896793D01*
X174317092Y-83994293D01*
X174476974Y-84125506D01*
X174608187Y-84285388D01*
X174705687Y-84467797D01*
X174705687Y-84467798D01*
X174765727Y-84665724D01*
X174786000Y-84871560D01*
X174765727Y-85077396D01*
X174725700Y-85209347D01*
X174705687Y-85275323D01*
X174608187Y-85457732D01*
X174476974Y-85617614D01*
X174317092Y-85748827D01*
X174134683Y-85846327D01*
X174068707Y-85866340D01*
X173936756Y-85906367D01*
X173870019Y-85912940D01*
X173782500Y-85921560D01*
X173679340Y-85921560D01*
X173591821Y-85912940D01*
X173525084Y-85906367D01*
X173393133Y-85866340D01*
X173327157Y-85846327D01*
X173144748Y-85748827D01*
X172984866Y-85617614D01*
X172853653Y-85457732D01*
X172756153Y-85275323D01*
X172736140Y-85209347D01*
X172696113Y-85077396D01*
X172675840Y-84871560D01*
X172696113Y-84665724D01*
X172756153Y-84467798D01*
X172756153Y-84467797D01*
X172853653Y-84285388D01*
X172984866Y-84125506D01*
X173144748Y-83994293D01*
X173327157Y-83896793D01*
X173393133Y-83876780D01*
X173525084Y-83836753D01*
X173612605Y-83828133D01*
X173679340Y-83821560D01*
X173782500Y-83821560D01*
X173849235Y-83828133D01*
X173849235Y-83828133D01*
G37*
G36*
X193850727Y-83820536D02*
X193927856Y-83828133D01*
X194059807Y-83868160D01*
X194125783Y-83888173D01*
X194308192Y-83985673D01*
X194468074Y-84116886D01*
X194599287Y-84276768D01*
X194696787Y-84459177D01*
X194696787Y-84459178D01*
X194756827Y-84657104D01*
X194777100Y-84862940D01*
X194756827Y-85068776D01*
X194754212Y-85077396D01*
X194696787Y-85266703D01*
X194599287Y-85449112D01*
X194468074Y-85608994D01*
X194308192Y-85740207D01*
X194125783Y-85837707D01*
X194097366Y-85846327D01*
X193927856Y-85897747D01*
X193850727Y-85905343D01*
X193773600Y-85912940D01*
X193670440Y-85912940D01*
X193593313Y-85905343D01*
X193516184Y-85897747D01*
X193346674Y-85846327D01*
X193318257Y-85837707D01*
X193135848Y-85740207D01*
X192975966Y-85608994D01*
X192844753Y-85449112D01*
X192747253Y-85266703D01*
X192689828Y-85077396D01*
X192687213Y-85068776D01*
X192666940Y-84862940D01*
X192687213Y-84657104D01*
X192747253Y-84459178D01*
X192747253Y-84459177D01*
X192844753Y-84276768D01*
X192975966Y-84116886D01*
X193135848Y-83985673D01*
X193318257Y-83888173D01*
X193384233Y-83868160D01*
X193516184Y-83828133D01*
X193593313Y-83820536D01*
X193670440Y-83812940D01*
X193773600Y-83812940D01*
X193850727Y-83820536D01*
X193850727Y-83820536D01*
G37*
G36*
X107200187Y-82326997D02*
X107277316Y-82334593D01*
X107409267Y-82374620D01*
X107475243Y-82394633D01*
X107657652Y-82492133D01*
X107817534Y-82623346D01*
X107948747Y-82783228D01*
X108046247Y-82965637D01*
X108046247Y-82965638D01*
X108106287Y-83163564D01*
X108126560Y-83369400D01*
X108106287Y-83575236D01*
X108066260Y-83707187D01*
X108046247Y-83773163D01*
X107948747Y-83955572D01*
X107817534Y-84115454D01*
X107657652Y-84246667D01*
X107475243Y-84344167D01*
X107409267Y-84364180D01*
X107277316Y-84404207D01*
X107200187Y-84411804D01*
X107123060Y-84419400D01*
X107019900Y-84419400D01*
X106942773Y-84411804D01*
X106865644Y-84404207D01*
X106733693Y-84364180D01*
X106667717Y-84344167D01*
X106485308Y-84246667D01*
X106325426Y-84115454D01*
X106194213Y-83955572D01*
X106096713Y-83773163D01*
X106076700Y-83707187D01*
X106036673Y-83575236D01*
X106016400Y-83369400D01*
X106036673Y-83163564D01*
X106096713Y-82965638D01*
X106096713Y-82965637D01*
X106194213Y-82783228D01*
X106325426Y-82623346D01*
X106485308Y-82492133D01*
X106667717Y-82394633D01*
X106733693Y-82374620D01*
X106865644Y-82334593D01*
X106942773Y-82326997D01*
X107019900Y-82319400D01*
X107123060Y-82319400D01*
X107200187Y-82326997D01*
X107200187Y-82326997D01*
G37*
G36*
X121954000Y-84412800D02*
X119854000Y-84412800D01*
X119854000Y-82312800D01*
X121954000Y-82312800D01*
X121954000Y-84412800D01*
X121954000Y-84412800D01*
G37*
G36*
X118492707Y-82320397D02*
X118569836Y-82327993D01*
X118701787Y-82368020D01*
X118767763Y-82388033D01*
X118950172Y-82485533D01*
X119110054Y-82616746D01*
X119241267Y-82776628D01*
X119338767Y-82959037D01*
X119338767Y-82959038D01*
X119398807Y-83156964D01*
X119419080Y-83362800D01*
X119398807Y-83568636D01*
X119358780Y-83700587D01*
X119338767Y-83766563D01*
X119241267Y-83948972D01*
X119110054Y-84108854D01*
X118950172Y-84240067D01*
X118767763Y-84337567D01*
X118746005Y-84344167D01*
X118569836Y-84397607D01*
X118492707Y-84405203D01*
X118415580Y-84412800D01*
X118312420Y-84412800D01*
X118235293Y-84405203D01*
X118158164Y-84397607D01*
X117981995Y-84344167D01*
X117960237Y-84337567D01*
X117777828Y-84240067D01*
X117617946Y-84108854D01*
X117486733Y-83948972D01*
X117389233Y-83766563D01*
X117369220Y-83700587D01*
X117329193Y-83568636D01*
X117308920Y-83362800D01*
X117329193Y-83156964D01*
X117389233Y-82959038D01*
X117389233Y-82959037D01*
X117486733Y-82776628D01*
X117617946Y-82616746D01*
X117777828Y-82485533D01*
X117960237Y-82388033D01*
X118026213Y-82368020D01*
X118158164Y-82327993D01*
X118235293Y-82320397D01*
X118312420Y-82312800D01*
X118415580Y-82312800D01*
X118492707Y-82320397D01*
X118492707Y-82320397D01*
G37*
G36*
X173859627Y-81289157D02*
X173936756Y-81296753D01*
X174068707Y-81336780D01*
X174134683Y-81356793D01*
X174317092Y-81454293D01*
X174476974Y-81585506D01*
X174608187Y-81745388D01*
X174705687Y-81927797D01*
X174705687Y-81927798D01*
X174765727Y-82125724D01*
X174786000Y-82331560D01*
X174765727Y-82537396D01*
X174739654Y-82623346D01*
X174705687Y-82735323D01*
X174608187Y-82917732D01*
X174476974Y-83077614D01*
X174317092Y-83208827D01*
X174134683Y-83306327D01*
X174068707Y-83326340D01*
X173936756Y-83366367D01*
X173859627Y-83373964D01*
X173782500Y-83381560D01*
X173679340Y-83381560D01*
X173602213Y-83373964D01*
X173525084Y-83366367D01*
X173393133Y-83326340D01*
X173327157Y-83306327D01*
X173144748Y-83208827D01*
X172984866Y-83077614D01*
X172853653Y-82917732D01*
X172756153Y-82735323D01*
X172722186Y-82623346D01*
X172696113Y-82537396D01*
X172675840Y-82331560D01*
X172696113Y-82125724D01*
X172756153Y-81927798D01*
X172756153Y-81927797D01*
X172853653Y-81745388D01*
X172984866Y-81585506D01*
X173144748Y-81454293D01*
X173327157Y-81356793D01*
X173393133Y-81336780D01*
X173525084Y-81296753D01*
X173602213Y-81289157D01*
X173679340Y-81281560D01*
X173782500Y-81281560D01*
X173859627Y-81289157D01*
X173859627Y-81289157D01*
G37*
G36*
X75244483Y-78875571D02*
X75556521Y-78937639D01*
X75856947Y-79062080D01*
X76127324Y-79242740D01*
X76357260Y-79472676D01*
X76537920Y-79743053D01*
X76662361Y-80043479D01*
X76725800Y-80362410D01*
X76725800Y-80687590D01*
X76662361Y-81006521D01*
X76537920Y-81306947D01*
X76357260Y-81577324D01*
X76127324Y-81807260D01*
X75856947Y-81987920D01*
X75556521Y-82112361D01*
X75317323Y-82159940D01*
X75237591Y-82175800D01*
X74912409Y-82175800D01*
X74832677Y-82159940D01*
X74593479Y-82112361D01*
X74293053Y-81987920D01*
X74022676Y-81807260D01*
X73792740Y-81577324D01*
X73612080Y-81306947D01*
X73487639Y-81006521D01*
X73424200Y-80687590D01*
X73424200Y-80362410D01*
X73487639Y-80043479D01*
X73612080Y-79743053D01*
X73792740Y-79472676D01*
X74022676Y-79242740D01*
X74293053Y-79062080D01*
X74593479Y-78937639D01*
X74905517Y-78875571D01*
X74912409Y-78874200D01*
X75237591Y-78874200D01*
X75244483Y-78875571D01*
X75244483Y-78875571D01*
G37*
G36*
X107200187Y-79786997D02*
X107277316Y-79794593D01*
X107409267Y-79834620D01*
X107475243Y-79854633D01*
X107657652Y-79952133D01*
X107817534Y-80083346D01*
X107948747Y-80243228D01*
X108046247Y-80425637D01*
X108046247Y-80425638D01*
X108106287Y-80623564D01*
X108126560Y-80829400D01*
X108106287Y-81035236D01*
X108066260Y-81167187D01*
X108046247Y-81233163D01*
X107948747Y-81415572D01*
X107817534Y-81575454D01*
X107657652Y-81706667D01*
X107475243Y-81804167D01*
X107409267Y-81824180D01*
X107277316Y-81864207D01*
X107200187Y-81871804D01*
X107123060Y-81879400D01*
X107019900Y-81879400D01*
X106942773Y-81871804D01*
X106865644Y-81864207D01*
X106733693Y-81824180D01*
X106667717Y-81804167D01*
X106485308Y-81706667D01*
X106325426Y-81575454D01*
X106194213Y-81415572D01*
X106096713Y-81233163D01*
X106076700Y-81167187D01*
X106036673Y-81035236D01*
X106016400Y-80829400D01*
X106036673Y-80623564D01*
X106096713Y-80425638D01*
X106096713Y-80425637D01*
X106194213Y-80243228D01*
X106325426Y-80083346D01*
X106485308Y-79952133D01*
X106667717Y-79854633D01*
X106733693Y-79834620D01*
X106865644Y-79794593D01*
X106942773Y-79786997D01*
X107019900Y-79779400D01*
X107123060Y-79779400D01*
X107200187Y-79786997D01*
X107200187Y-79786997D01*
G37*
G36*
X118492707Y-79780397D02*
X118569836Y-79787993D01*
X118701787Y-79828020D01*
X118767763Y-79848033D01*
X118950172Y-79945533D01*
X119110054Y-80076746D01*
X119241267Y-80236628D01*
X119338767Y-80419037D01*
X119338767Y-80419038D01*
X119398807Y-80616964D01*
X119419080Y-80822800D01*
X119398807Y-81028636D01*
X119367579Y-81131582D01*
X119338767Y-81226563D01*
X119241267Y-81408972D01*
X119110054Y-81568854D01*
X118950172Y-81700067D01*
X118767763Y-81797567D01*
X118701787Y-81817580D01*
X118569836Y-81857607D01*
X118492707Y-81865204D01*
X118415580Y-81872800D01*
X118312420Y-81872800D01*
X118235293Y-81865204D01*
X118158164Y-81857607D01*
X118026213Y-81817580D01*
X117960237Y-81797567D01*
X117777828Y-81700067D01*
X117617946Y-81568854D01*
X117486733Y-81408972D01*
X117389233Y-81226563D01*
X117360421Y-81131582D01*
X117329193Y-81028636D01*
X117308920Y-80822800D01*
X117329193Y-80616964D01*
X117389233Y-80419038D01*
X117389233Y-80419037D01*
X117486733Y-80236628D01*
X117617946Y-80076746D01*
X117777828Y-79945533D01*
X117960237Y-79848033D01*
X118026213Y-79828020D01*
X118158164Y-79787993D01*
X118235293Y-79780397D01*
X118312420Y-79772800D01*
X118415580Y-79772800D01*
X118492707Y-79780397D01*
X118492707Y-79780397D01*
G37*
G36*
X121032707Y-79780397D02*
X121109836Y-79787993D01*
X121241787Y-79828020D01*
X121307763Y-79848033D01*
X121490172Y-79945533D01*
X121650054Y-80076746D01*
X121781267Y-80236628D01*
X121878767Y-80419037D01*
X121878767Y-80419038D01*
X121938807Y-80616964D01*
X121959080Y-80822800D01*
X121938807Y-81028636D01*
X121907579Y-81131582D01*
X121878767Y-81226563D01*
X121781267Y-81408972D01*
X121650054Y-81568854D01*
X121490172Y-81700067D01*
X121307763Y-81797567D01*
X121241787Y-81817580D01*
X121109836Y-81857607D01*
X121032707Y-81865204D01*
X120955580Y-81872800D01*
X120852420Y-81872800D01*
X120775293Y-81865204D01*
X120698164Y-81857607D01*
X120566213Y-81817580D01*
X120500237Y-81797567D01*
X120317828Y-81700067D01*
X120157946Y-81568854D01*
X120026733Y-81408972D01*
X119929233Y-81226563D01*
X119900421Y-81131582D01*
X119869193Y-81028636D01*
X119848920Y-80822800D01*
X119869193Y-80616964D01*
X119929233Y-80419038D01*
X119929233Y-80419037D01*
X120026733Y-80236628D01*
X120157946Y-80076746D01*
X120317828Y-79945533D01*
X120500237Y-79848033D01*
X120566213Y-79828020D01*
X120698164Y-79787993D01*
X120775293Y-79780397D01*
X120852420Y-79772800D01*
X120955580Y-79772800D01*
X121032707Y-79780397D01*
X121032707Y-79780397D01*
G37*
G36*
X198758007Y-79685416D02*
X198835136Y-79693013D01*
X198967087Y-79733040D01*
X199033063Y-79753053D01*
X199215472Y-79850553D01*
X199375354Y-79981766D01*
X199506567Y-80141648D01*
X199604067Y-80324057D01*
X199620349Y-80377732D01*
X199664107Y-80521984D01*
X199684380Y-80727820D01*
X199664107Y-80933656D01*
X199635296Y-81028634D01*
X199604067Y-81131583D01*
X199506567Y-81313992D01*
X199375354Y-81473874D01*
X199215472Y-81605087D01*
X199033063Y-81702587D01*
X198967087Y-81722600D01*
X198835136Y-81762627D01*
X198758007Y-81770224D01*
X198680880Y-81777820D01*
X198577720Y-81777820D01*
X198500593Y-81770224D01*
X198423464Y-81762627D01*
X198291513Y-81722600D01*
X198225537Y-81702587D01*
X198043128Y-81605087D01*
X197883246Y-81473874D01*
X197752033Y-81313992D01*
X197654533Y-81131583D01*
X197623304Y-81028634D01*
X197594493Y-80933656D01*
X197574220Y-80727820D01*
X197594493Y-80521984D01*
X197638251Y-80377732D01*
X197654533Y-80324057D01*
X197752033Y-80141648D01*
X197883246Y-79981766D01*
X198043128Y-79850553D01*
X198225537Y-79753053D01*
X198291513Y-79733040D01*
X198423464Y-79693013D01*
X198500593Y-79685416D01*
X198577720Y-79677820D01*
X198680880Y-79677820D01*
X198758007Y-79685416D01*
X198758007Y-79685416D01*
G37*
G36*
X203838007Y-79685416D02*
X203915136Y-79693013D01*
X204047087Y-79733040D01*
X204113063Y-79753053D01*
X204295472Y-79850553D01*
X204455354Y-79981766D01*
X204586567Y-80141648D01*
X204684067Y-80324057D01*
X204700349Y-80377732D01*
X204744107Y-80521984D01*
X204764380Y-80727820D01*
X204744107Y-80933656D01*
X204715296Y-81028634D01*
X204684067Y-81131583D01*
X204586567Y-81313992D01*
X204455354Y-81473874D01*
X204295472Y-81605087D01*
X204113063Y-81702587D01*
X204047087Y-81722600D01*
X203915136Y-81762627D01*
X203838007Y-81770224D01*
X203760880Y-81777820D01*
X203657720Y-81777820D01*
X203580593Y-81770224D01*
X203503464Y-81762627D01*
X203371513Y-81722600D01*
X203305537Y-81702587D01*
X203123128Y-81605087D01*
X202963246Y-81473874D01*
X202832033Y-81313992D01*
X202734533Y-81131583D01*
X202703304Y-81028634D01*
X202674493Y-80933656D01*
X202654220Y-80727820D01*
X202674493Y-80521984D01*
X202718251Y-80377732D01*
X202734533Y-80324057D01*
X202832033Y-80141648D01*
X202963246Y-79981766D01*
X203123128Y-79850553D01*
X203305537Y-79753053D01*
X203371513Y-79733040D01*
X203503464Y-79693013D01*
X203580593Y-79685416D01*
X203657720Y-79677820D01*
X203760880Y-79677820D01*
X203838007Y-79685416D01*
X203838007Y-79685416D01*
G37*
G36*
X196218007Y-79685416D02*
X196295136Y-79693013D01*
X196427087Y-79733040D01*
X196493063Y-79753053D01*
X196675472Y-79850553D01*
X196835354Y-79981766D01*
X196966567Y-80141648D01*
X197064067Y-80324057D01*
X197080349Y-80377732D01*
X197124107Y-80521984D01*
X197144380Y-80727820D01*
X197124107Y-80933656D01*
X197095296Y-81028634D01*
X197064067Y-81131583D01*
X196966567Y-81313992D01*
X196835354Y-81473874D01*
X196675472Y-81605087D01*
X196493063Y-81702587D01*
X196427087Y-81722600D01*
X196295136Y-81762627D01*
X196218007Y-81770224D01*
X196140880Y-81777820D01*
X196037720Y-81777820D01*
X195960593Y-81770224D01*
X195883464Y-81762627D01*
X195751513Y-81722600D01*
X195685537Y-81702587D01*
X195503128Y-81605087D01*
X195343246Y-81473874D01*
X195212033Y-81313992D01*
X195114533Y-81131583D01*
X195083304Y-81028634D01*
X195054493Y-80933656D01*
X195034220Y-80727820D01*
X195054493Y-80521984D01*
X195098251Y-80377732D01*
X195114533Y-80324057D01*
X195212033Y-80141648D01*
X195343246Y-79981766D01*
X195503128Y-79850553D01*
X195685537Y-79753053D01*
X195751513Y-79733040D01*
X195883464Y-79693013D01*
X195960593Y-79685416D01*
X196037720Y-79677820D01*
X196140880Y-79677820D01*
X196218007Y-79685416D01*
X196218007Y-79685416D01*
G37*
G36*
X201298007Y-79685416D02*
X201375136Y-79693013D01*
X201507087Y-79733040D01*
X201573063Y-79753053D01*
X201755472Y-79850553D01*
X201915354Y-79981766D01*
X202046567Y-80141648D01*
X202144067Y-80324057D01*
X202160349Y-80377732D01*
X202204107Y-80521984D01*
X202224380Y-80727820D01*
X202204107Y-80933656D01*
X202175296Y-81028634D01*
X202144067Y-81131583D01*
X202046567Y-81313992D01*
X201915354Y-81473874D01*
X201755472Y-81605087D01*
X201573063Y-81702587D01*
X201507087Y-81722600D01*
X201375136Y-81762627D01*
X201298007Y-81770224D01*
X201220880Y-81777820D01*
X201117720Y-81777820D01*
X201040593Y-81770224D01*
X200963464Y-81762627D01*
X200831513Y-81722600D01*
X200765537Y-81702587D01*
X200583128Y-81605087D01*
X200423246Y-81473874D01*
X200292033Y-81313992D01*
X200194533Y-81131583D01*
X200163304Y-81028634D01*
X200134493Y-80933656D01*
X200114220Y-80727820D01*
X200134493Y-80521984D01*
X200178251Y-80377732D01*
X200194533Y-80324057D01*
X200292033Y-80141648D01*
X200423246Y-79981766D01*
X200583128Y-79850553D01*
X200765537Y-79753053D01*
X200831513Y-79733040D01*
X200963464Y-79693013D01*
X201040593Y-79685416D01*
X201117720Y-79677820D01*
X201220880Y-79677820D01*
X201298007Y-79685416D01*
X201298007Y-79685416D01*
G37*
G36*
X194599300Y-81777820D02*
X192499300Y-81777820D01*
X192499300Y-79677820D01*
X194599300Y-79677820D01*
X194599300Y-81777820D01*
X194599300Y-81777820D01*
G37*
G36*
X173859627Y-78749156D02*
X173936756Y-78756753D01*
X174068707Y-78796780D01*
X174134683Y-78816793D01*
X174317092Y-78914293D01*
X174476974Y-79045506D01*
X174608187Y-79205388D01*
X174705687Y-79387797D01*
X174705687Y-79387798D01*
X174765727Y-79585724D01*
X174786000Y-79791560D01*
X174765727Y-79997396D01*
X174739654Y-80083346D01*
X174705687Y-80195323D01*
X174608187Y-80377732D01*
X174476974Y-80537614D01*
X174317092Y-80668827D01*
X174134683Y-80766327D01*
X174068707Y-80786340D01*
X173936756Y-80826367D01*
X173859627Y-80833963D01*
X173782500Y-80841560D01*
X173679340Y-80841560D01*
X173602213Y-80833963D01*
X173525084Y-80826367D01*
X173393133Y-80786340D01*
X173327157Y-80766327D01*
X173144748Y-80668827D01*
X172984866Y-80537614D01*
X172853653Y-80377732D01*
X172756153Y-80195323D01*
X172722186Y-80083346D01*
X172696113Y-79997396D01*
X172675840Y-79791560D01*
X172696113Y-79585724D01*
X172756153Y-79387798D01*
X172756153Y-79387797D01*
X172853653Y-79205388D01*
X172984866Y-79045506D01*
X173144748Y-78914293D01*
X173327157Y-78816793D01*
X173393133Y-78796780D01*
X173525084Y-78756753D01*
X173602213Y-78749156D01*
X173679340Y-78741560D01*
X173782500Y-78741560D01*
X173859627Y-78749156D01*
X173859627Y-78749156D01*
G37*
G36*
X107200187Y-77246996D02*
X107277316Y-77254593D01*
X107409267Y-77294620D01*
X107475243Y-77314633D01*
X107657652Y-77412133D01*
X107817534Y-77543346D01*
X107948747Y-77703228D01*
X108046247Y-77885637D01*
X108046247Y-77885638D01*
X108106287Y-78083564D01*
X108126560Y-78289400D01*
X108106287Y-78495236D01*
X108066260Y-78627187D01*
X108046247Y-78693163D01*
X107948747Y-78875572D01*
X107817534Y-79035454D01*
X107657652Y-79166667D01*
X107475243Y-79264167D01*
X107409267Y-79284180D01*
X107277316Y-79324207D01*
X107200187Y-79331804D01*
X107123060Y-79339400D01*
X107019900Y-79339400D01*
X106942773Y-79331804D01*
X106865644Y-79324207D01*
X106733693Y-79284180D01*
X106667717Y-79264167D01*
X106485308Y-79166667D01*
X106325426Y-79035454D01*
X106194213Y-78875572D01*
X106096713Y-78693163D01*
X106076700Y-78627187D01*
X106036673Y-78495236D01*
X106016400Y-78289400D01*
X106036673Y-78083564D01*
X106096713Y-77885638D01*
X106096713Y-77885637D01*
X106194213Y-77703228D01*
X106325426Y-77543346D01*
X106485308Y-77412133D01*
X106667717Y-77314633D01*
X106733693Y-77294620D01*
X106865644Y-77254593D01*
X106942773Y-77246996D01*
X107019900Y-77239400D01*
X107123060Y-77239400D01*
X107200187Y-77246996D01*
X107200187Y-77246996D01*
G37*
G36*
X118492707Y-77240397D02*
X118569836Y-77247993D01*
X118701787Y-77288020D01*
X118767763Y-77308033D01*
X118950172Y-77405533D01*
X119110054Y-77536746D01*
X119241267Y-77696628D01*
X119338767Y-77879037D01*
X119338767Y-77879038D01*
X119398807Y-78076964D01*
X119419080Y-78282800D01*
X119398807Y-78488636D01*
X119358780Y-78620587D01*
X119338767Y-78686563D01*
X119241267Y-78868972D01*
X119110054Y-79028854D01*
X118950172Y-79160067D01*
X118767763Y-79257567D01*
X118746005Y-79264167D01*
X118569836Y-79317607D01*
X118492707Y-79325204D01*
X118415580Y-79332800D01*
X118312420Y-79332800D01*
X118235293Y-79325204D01*
X118158164Y-79317607D01*
X117981995Y-79264167D01*
X117960237Y-79257567D01*
X117777828Y-79160067D01*
X117617946Y-79028854D01*
X117486733Y-78868972D01*
X117389233Y-78686563D01*
X117369220Y-78620587D01*
X117329193Y-78488636D01*
X117308920Y-78282800D01*
X117329193Y-78076964D01*
X117389233Y-77879038D01*
X117389233Y-77879037D01*
X117486733Y-77696628D01*
X117617946Y-77536746D01*
X117777828Y-77405533D01*
X117960237Y-77308033D01*
X118026213Y-77288020D01*
X118158164Y-77247993D01*
X118235293Y-77240397D01*
X118312420Y-77232800D01*
X118415580Y-77232800D01*
X118492707Y-77240397D01*
X118492707Y-77240397D01*
G37*
G36*
X121032707Y-77240397D02*
X121109836Y-77247993D01*
X121241787Y-77288020D01*
X121307763Y-77308033D01*
X121490172Y-77405533D01*
X121650054Y-77536746D01*
X121781267Y-77696628D01*
X121878767Y-77879037D01*
X121878767Y-77879038D01*
X121938807Y-78076964D01*
X121959080Y-78282800D01*
X121938807Y-78488636D01*
X121898780Y-78620587D01*
X121878767Y-78686563D01*
X121781267Y-78868972D01*
X121650054Y-79028854D01*
X121490172Y-79160067D01*
X121307763Y-79257567D01*
X121286005Y-79264167D01*
X121109836Y-79317607D01*
X121032707Y-79325204D01*
X120955580Y-79332800D01*
X120852420Y-79332800D01*
X120775293Y-79325204D01*
X120698164Y-79317607D01*
X120521995Y-79264167D01*
X120500237Y-79257567D01*
X120317828Y-79160067D01*
X120157946Y-79028854D01*
X120026733Y-78868972D01*
X119929233Y-78686563D01*
X119909220Y-78620587D01*
X119869193Y-78488636D01*
X119848920Y-78282800D01*
X119869193Y-78076964D01*
X119929233Y-77879038D01*
X119929233Y-77879037D01*
X120026733Y-77696628D01*
X120157946Y-77536746D01*
X120317828Y-77405533D01*
X120500237Y-77308033D01*
X120566213Y-77288020D01*
X120698164Y-77247993D01*
X120775293Y-77240397D01*
X120852420Y-77232800D01*
X120955580Y-77232800D01*
X121032707Y-77240397D01*
X121032707Y-77240397D01*
G37*
G36*
X173859627Y-76209157D02*
X173936756Y-76216753D01*
X174068707Y-76256780D01*
X174134683Y-76276793D01*
X174317092Y-76374293D01*
X174476974Y-76505506D01*
X174608187Y-76665388D01*
X174705687Y-76847797D01*
X174705687Y-76847798D01*
X174765727Y-77045724D01*
X174786000Y-77251560D01*
X174765727Y-77457396D01*
X174739654Y-77543346D01*
X174705687Y-77655323D01*
X174608187Y-77837732D01*
X174476974Y-77997614D01*
X174317092Y-78128827D01*
X174134683Y-78226327D01*
X174068707Y-78246340D01*
X173936756Y-78286367D01*
X173859627Y-78293964D01*
X173782500Y-78301560D01*
X173679340Y-78301560D01*
X173602213Y-78293964D01*
X173525084Y-78286367D01*
X173393133Y-78246340D01*
X173327157Y-78226327D01*
X173144748Y-78128827D01*
X172984866Y-77997614D01*
X172853653Y-77837732D01*
X172756153Y-77655323D01*
X172722186Y-77543346D01*
X172696113Y-77457396D01*
X172675840Y-77251560D01*
X172696113Y-77045724D01*
X172756153Y-76847798D01*
X172756153Y-76847797D01*
X172853653Y-76665388D01*
X172984866Y-76505506D01*
X173144748Y-76374293D01*
X173327157Y-76276793D01*
X173393133Y-76256780D01*
X173525084Y-76216753D01*
X173602213Y-76209157D01*
X173679340Y-76201560D01*
X173782500Y-76201560D01*
X173859627Y-76209157D01*
X173859627Y-76209157D01*
G37*
G36*
X107200187Y-74706996D02*
X107277316Y-74714593D01*
X107409267Y-74754620D01*
X107475243Y-74774633D01*
X107657652Y-74872133D01*
X107817534Y-75003346D01*
X107948747Y-75163228D01*
X108046247Y-75345637D01*
X108046247Y-75345638D01*
X108106287Y-75543564D01*
X108126560Y-75749400D01*
X108106287Y-75955236D01*
X108066260Y-76087187D01*
X108046247Y-76153163D01*
X107948747Y-76335572D01*
X107817534Y-76495454D01*
X107657652Y-76626667D01*
X107475243Y-76724167D01*
X107409267Y-76744180D01*
X107277316Y-76784207D01*
X107200187Y-76791804D01*
X107123060Y-76799400D01*
X107019900Y-76799400D01*
X106942773Y-76791804D01*
X106865644Y-76784207D01*
X106733693Y-76744180D01*
X106667717Y-76724167D01*
X106485308Y-76626667D01*
X106325426Y-76495454D01*
X106194213Y-76335572D01*
X106096713Y-76153163D01*
X106076700Y-76087187D01*
X106036673Y-75955236D01*
X106016400Y-75749400D01*
X106036673Y-75543564D01*
X106096713Y-75345638D01*
X106096713Y-75345637D01*
X106194213Y-75163228D01*
X106325426Y-75003346D01*
X106485308Y-74872133D01*
X106667717Y-74774633D01*
X106733693Y-74754620D01*
X106865644Y-74714593D01*
X106942773Y-74706996D01*
X107019900Y-74699400D01*
X107123060Y-74699400D01*
X107200187Y-74706996D01*
X107200187Y-74706996D01*
G37*
G36*
X121032707Y-74700397D02*
X121109836Y-74707993D01*
X121241787Y-74748020D01*
X121307763Y-74768033D01*
X121490172Y-74865533D01*
X121650054Y-74996746D01*
X121781267Y-75156628D01*
X121878767Y-75339037D01*
X121878767Y-75339038D01*
X121938807Y-75536964D01*
X121959080Y-75742800D01*
X121938807Y-75948636D01*
X121898780Y-76080587D01*
X121878767Y-76146563D01*
X121781267Y-76328972D01*
X121650054Y-76488854D01*
X121490172Y-76620067D01*
X121307763Y-76717567D01*
X121286005Y-76724167D01*
X121109836Y-76777607D01*
X121032707Y-76785204D01*
X120955580Y-76792800D01*
X120852420Y-76792800D01*
X120775293Y-76785204D01*
X120698164Y-76777607D01*
X120521995Y-76724167D01*
X120500237Y-76717567D01*
X120317828Y-76620067D01*
X120157946Y-76488854D01*
X120026733Y-76328972D01*
X119929233Y-76146563D01*
X119909220Y-76080587D01*
X119869193Y-75948636D01*
X119848920Y-75742800D01*
X119869193Y-75536964D01*
X119929233Y-75339038D01*
X119929233Y-75339037D01*
X120026733Y-75156628D01*
X120157946Y-74996746D01*
X120317828Y-74865533D01*
X120500237Y-74768033D01*
X120566213Y-74748020D01*
X120698164Y-74707993D01*
X120775293Y-74700397D01*
X120852420Y-74692800D01*
X120955580Y-74692800D01*
X121032707Y-74700397D01*
X121032707Y-74700397D01*
G37*
G36*
X118492707Y-74700397D02*
X118569836Y-74707993D01*
X118701787Y-74748020D01*
X118767763Y-74768033D01*
X118950172Y-74865533D01*
X119110054Y-74996746D01*
X119241267Y-75156628D01*
X119338767Y-75339037D01*
X119338767Y-75339038D01*
X119398807Y-75536964D01*
X119419080Y-75742800D01*
X119398807Y-75948636D01*
X119358780Y-76080587D01*
X119338767Y-76146563D01*
X119241267Y-76328972D01*
X119110054Y-76488854D01*
X118950172Y-76620067D01*
X118767763Y-76717567D01*
X118746005Y-76724167D01*
X118569836Y-76777607D01*
X118492707Y-76785204D01*
X118415580Y-76792800D01*
X118312420Y-76792800D01*
X118235293Y-76785204D01*
X118158164Y-76777607D01*
X117981995Y-76724167D01*
X117960237Y-76717567D01*
X117777828Y-76620067D01*
X117617946Y-76488854D01*
X117486733Y-76328972D01*
X117389233Y-76146563D01*
X117369220Y-76080587D01*
X117329193Y-75948636D01*
X117308920Y-75742800D01*
X117329193Y-75536964D01*
X117389233Y-75339038D01*
X117389233Y-75339037D01*
X117486733Y-75156628D01*
X117617946Y-74996746D01*
X117777828Y-74865533D01*
X117960237Y-74768033D01*
X118026213Y-74748020D01*
X118158164Y-74707993D01*
X118235293Y-74700397D01*
X118312420Y-74692800D01*
X118415580Y-74692800D01*
X118492707Y-74700397D01*
X118492707Y-74700397D01*
G37*
G36*
X204017323Y-73040060D02*
X204256521Y-73087639D01*
X204556947Y-73212080D01*
X204827324Y-73392740D01*
X205057260Y-73622676D01*
X205237920Y-73893053D01*
X205362361Y-74193479D01*
X205375473Y-74259400D01*
X205424471Y-74505726D01*
X205425800Y-74512410D01*
X205425800Y-74837590D01*
X205362361Y-75156521D01*
X205237920Y-75456947D01*
X205057260Y-75727324D01*
X204827324Y-75957260D01*
X204556947Y-76137920D01*
X204256521Y-76262361D01*
X204017323Y-76309940D01*
X203937591Y-76325800D01*
X203612409Y-76325800D01*
X203532677Y-76309940D01*
X203293479Y-76262361D01*
X202993053Y-76137920D01*
X202722676Y-75957260D01*
X202492740Y-75727324D01*
X202312080Y-75456947D01*
X202187639Y-75156521D01*
X202124200Y-74837590D01*
X202124200Y-74512410D01*
X202125530Y-74505726D01*
X202174527Y-74259400D01*
X202187639Y-74193479D01*
X202312080Y-73893053D01*
X202492740Y-73622676D01*
X202722676Y-73392740D01*
X202993053Y-73212080D01*
X203293479Y-73087639D01*
X203532677Y-73040060D01*
X203612409Y-73024200D01*
X203937591Y-73024200D01*
X204017323Y-73040060D01*
X204017323Y-73040060D01*
G37*
G36*
X173859627Y-73669157D02*
X173936756Y-73676753D01*
X174068707Y-73716780D01*
X174134683Y-73736793D01*
X174317092Y-73834293D01*
X174476974Y-73965506D01*
X174608187Y-74125388D01*
X174705687Y-74307797D01*
X174705687Y-74307798D01*
X174765727Y-74505724D01*
X174786000Y-74711560D01*
X174765727Y-74917396D01*
X174739654Y-75003346D01*
X174705687Y-75115323D01*
X174608187Y-75297732D01*
X174476974Y-75457614D01*
X174317092Y-75588827D01*
X174134683Y-75686327D01*
X174068707Y-75706340D01*
X173936756Y-75746367D01*
X173859627Y-75753963D01*
X173782500Y-75761560D01*
X173679340Y-75761560D01*
X173602213Y-75753963D01*
X173525084Y-75746367D01*
X173393133Y-75706340D01*
X173327157Y-75686327D01*
X173144748Y-75588827D01*
X172984866Y-75457614D01*
X172853653Y-75297732D01*
X172756153Y-75115323D01*
X172722186Y-75003346D01*
X172696113Y-74917396D01*
X172675840Y-74711560D01*
X172696113Y-74505724D01*
X172756153Y-74307798D01*
X172756153Y-74307797D01*
X172853653Y-74125388D01*
X172984866Y-73965506D01*
X173144748Y-73834293D01*
X173327157Y-73736793D01*
X173393133Y-73716780D01*
X173525084Y-73676753D01*
X173602213Y-73669157D01*
X173679340Y-73661560D01*
X173782500Y-73661560D01*
X173859627Y-73669157D01*
X173859627Y-73669157D01*
G37*
G36*
X107200187Y-72166996D02*
X107277316Y-72174593D01*
X107409267Y-72214620D01*
X107475243Y-72234633D01*
X107657652Y-72332133D01*
X107817534Y-72463346D01*
X107948747Y-72623228D01*
X108046247Y-72805637D01*
X108046247Y-72805638D01*
X108106287Y-73003564D01*
X108126560Y-73209400D01*
X108106287Y-73415236D01*
X108066260Y-73547187D01*
X108046247Y-73613163D01*
X107948747Y-73795572D01*
X107817534Y-73955454D01*
X107657652Y-74086667D01*
X107475243Y-74184167D01*
X107409267Y-74204180D01*
X107277316Y-74244207D01*
X107200187Y-74251804D01*
X107123060Y-74259400D01*
X107019900Y-74259400D01*
X106942773Y-74251804D01*
X106865644Y-74244207D01*
X106733693Y-74204180D01*
X106667717Y-74184167D01*
X106485308Y-74086667D01*
X106325426Y-73955454D01*
X106194213Y-73795572D01*
X106096713Y-73613163D01*
X106076700Y-73547187D01*
X106036673Y-73415236D01*
X106016400Y-73209400D01*
X106036673Y-73003564D01*
X106096713Y-72805638D01*
X106096713Y-72805637D01*
X106194213Y-72623228D01*
X106325426Y-72463346D01*
X106485308Y-72332133D01*
X106667717Y-72234633D01*
X106733693Y-72214620D01*
X106865644Y-72174593D01*
X106942773Y-72166996D01*
X107019900Y-72159400D01*
X107123060Y-72159400D01*
X107200187Y-72166996D01*
X107200187Y-72166996D01*
G37*
G36*
X118492707Y-72160397D02*
X118569836Y-72167993D01*
X118701787Y-72208020D01*
X118767763Y-72228033D01*
X118950172Y-72325533D01*
X119110054Y-72456746D01*
X119241267Y-72616628D01*
X119338767Y-72799037D01*
X119338767Y-72799038D01*
X119398807Y-72996964D01*
X119419080Y-73202800D01*
X119398807Y-73408636D01*
X119358780Y-73540587D01*
X119338767Y-73606563D01*
X119241267Y-73788972D01*
X119110054Y-73948854D01*
X118950172Y-74080067D01*
X118767763Y-74177567D01*
X118746005Y-74184167D01*
X118569836Y-74237607D01*
X118492707Y-74245204D01*
X118415580Y-74252800D01*
X118312420Y-74252800D01*
X118235293Y-74245204D01*
X118158164Y-74237607D01*
X117981995Y-74184167D01*
X117960237Y-74177567D01*
X117777828Y-74080067D01*
X117617946Y-73948854D01*
X117486733Y-73788972D01*
X117389233Y-73606563D01*
X117369220Y-73540587D01*
X117329193Y-73408636D01*
X117308920Y-73202800D01*
X117329193Y-72996964D01*
X117389233Y-72799038D01*
X117389233Y-72799037D01*
X117486733Y-72616628D01*
X117617946Y-72456746D01*
X117777828Y-72325533D01*
X117960237Y-72228033D01*
X118026213Y-72208020D01*
X118158164Y-72167993D01*
X118235293Y-72160397D01*
X118312420Y-72152800D01*
X118415580Y-72152800D01*
X118492707Y-72160397D01*
X118492707Y-72160397D01*
G37*
G36*
X121032707Y-72160397D02*
X121109836Y-72167993D01*
X121241787Y-72208020D01*
X121307763Y-72228033D01*
X121490172Y-72325533D01*
X121650054Y-72456746D01*
X121781267Y-72616628D01*
X121878767Y-72799037D01*
X121878767Y-72799038D01*
X121938807Y-72996964D01*
X121959080Y-73202800D01*
X121938807Y-73408636D01*
X121898780Y-73540587D01*
X121878767Y-73606563D01*
X121781267Y-73788972D01*
X121650054Y-73948854D01*
X121490172Y-74080067D01*
X121307763Y-74177567D01*
X121286005Y-74184167D01*
X121109836Y-74237607D01*
X121032707Y-74245204D01*
X120955580Y-74252800D01*
X120852420Y-74252800D01*
X120775293Y-74245204D01*
X120698164Y-74237607D01*
X120521995Y-74184167D01*
X120500237Y-74177567D01*
X120317828Y-74080067D01*
X120157946Y-73948854D01*
X120026733Y-73788972D01*
X119929233Y-73606563D01*
X119909220Y-73540587D01*
X119869193Y-73408636D01*
X119848920Y-73202800D01*
X119869193Y-72996964D01*
X119929233Y-72799038D01*
X119929233Y-72799037D01*
X120026733Y-72616628D01*
X120157946Y-72456746D01*
X120317828Y-72325533D01*
X120500237Y-72228033D01*
X120566213Y-72208020D01*
X120698164Y-72167993D01*
X120775293Y-72160397D01*
X120852420Y-72152800D01*
X120955580Y-72152800D01*
X121032707Y-72160397D01*
X121032707Y-72160397D01*
G37*
G36*
X173859627Y-71129156D02*
X173936756Y-71136753D01*
X174068707Y-71176780D01*
X174134683Y-71196793D01*
X174317092Y-71294293D01*
X174476974Y-71425506D01*
X174608187Y-71585388D01*
X174705687Y-71767797D01*
X174705687Y-71767798D01*
X174765727Y-71965724D01*
X174786000Y-72171560D01*
X174765727Y-72377396D01*
X174739654Y-72463346D01*
X174705687Y-72575323D01*
X174608187Y-72757732D01*
X174476974Y-72917614D01*
X174317092Y-73048827D01*
X174134683Y-73146327D01*
X174068707Y-73166340D01*
X173936756Y-73206367D01*
X173878740Y-73212081D01*
X173782500Y-73221560D01*
X173679340Y-73221560D01*
X173583100Y-73212081D01*
X173525084Y-73206367D01*
X173393133Y-73166340D01*
X173327157Y-73146327D01*
X173144748Y-73048827D01*
X172984866Y-72917614D01*
X172853653Y-72757732D01*
X172756153Y-72575323D01*
X172722186Y-72463346D01*
X172696113Y-72377396D01*
X172675840Y-72171560D01*
X172696113Y-71965724D01*
X172756153Y-71767798D01*
X172756153Y-71767797D01*
X172853653Y-71585388D01*
X172984866Y-71425506D01*
X173144748Y-71294293D01*
X173327157Y-71196793D01*
X173393133Y-71176780D01*
X173525084Y-71136753D01*
X173602213Y-71129156D01*
X173679340Y-71121560D01*
X173782500Y-71121560D01*
X173859627Y-71129156D01*
X173859627Y-71129156D01*
G37*
G36*
X107200187Y-69626996D02*
X107277316Y-69634593D01*
X107409267Y-69674620D01*
X107475243Y-69694633D01*
X107657652Y-69792133D01*
X107817534Y-69923346D01*
X107948747Y-70083228D01*
X108046247Y-70265637D01*
X108046247Y-70265638D01*
X108106287Y-70463564D01*
X108126560Y-70669400D01*
X108106287Y-70875236D01*
X108066260Y-71007187D01*
X108046247Y-71073163D01*
X107948747Y-71255572D01*
X107817534Y-71415454D01*
X107657652Y-71546667D01*
X107475243Y-71644167D01*
X107409267Y-71664180D01*
X107277316Y-71704207D01*
X107200187Y-71711803D01*
X107123060Y-71719400D01*
X107019900Y-71719400D01*
X106942773Y-71711803D01*
X106865644Y-71704207D01*
X106733693Y-71664180D01*
X106667717Y-71644167D01*
X106485308Y-71546667D01*
X106325426Y-71415454D01*
X106194213Y-71255572D01*
X106096713Y-71073163D01*
X106076700Y-71007187D01*
X106036673Y-70875236D01*
X106016400Y-70669400D01*
X106036673Y-70463564D01*
X106096713Y-70265638D01*
X106096713Y-70265637D01*
X106194213Y-70083228D01*
X106325426Y-69923346D01*
X106485308Y-69792133D01*
X106667717Y-69694633D01*
X106733693Y-69674620D01*
X106865644Y-69634593D01*
X106942773Y-69626996D01*
X107019900Y-69619400D01*
X107123060Y-69619400D01*
X107200187Y-69626996D01*
X107200187Y-69626996D01*
G37*
G36*
X121032707Y-69620396D02*
X121109836Y-69627993D01*
X121241787Y-69668020D01*
X121307763Y-69688033D01*
X121490172Y-69785533D01*
X121650054Y-69916746D01*
X121781267Y-70076628D01*
X121878767Y-70259037D01*
X121878767Y-70259038D01*
X121938807Y-70456964D01*
X121959080Y-70662800D01*
X121938807Y-70868636D01*
X121898780Y-71000587D01*
X121878767Y-71066563D01*
X121781267Y-71248972D01*
X121650054Y-71408854D01*
X121490172Y-71540067D01*
X121307763Y-71637567D01*
X121286005Y-71644167D01*
X121109836Y-71697607D01*
X121032707Y-71705204D01*
X120955580Y-71712800D01*
X120852420Y-71712800D01*
X120775293Y-71705204D01*
X120698164Y-71697607D01*
X120521995Y-71644167D01*
X120500237Y-71637567D01*
X120317828Y-71540067D01*
X120157946Y-71408854D01*
X120026733Y-71248972D01*
X119929233Y-71066563D01*
X119909220Y-71000587D01*
X119869193Y-70868636D01*
X119848920Y-70662800D01*
X119869193Y-70456964D01*
X119929233Y-70259038D01*
X119929233Y-70259037D01*
X120026733Y-70076628D01*
X120157946Y-69916746D01*
X120317828Y-69785533D01*
X120500237Y-69688033D01*
X120566213Y-69668020D01*
X120698164Y-69627993D01*
X120775293Y-69620396D01*
X120852420Y-69612800D01*
X120955580Y-69612800D01*
X121032707Y-69620396D01*
X121032707Y-69620396D01*
G37*
G36*
X118492707Y-69620396D02*
X118569836Y-69627993D01*
X118701787Y-69668020D01*
X118767763Y-69688033D01*
X118950172Y-69785533D01*
X119110054Y-69916746D01*
X119241267Y-70076628D01*
X119338767Y-70259037D01*
X119338767Y-70259038D01*
X119398807Y-70456964D01*
X119419080Y-70662800D01*
X119398807Y-70868636D01*
X119358780Y-71000587D01*
X119338767Y-71066563D01*
X119241267Y-71248972D01*
X119110054Y-71408854D01*
X118950172Y-71540067D01*
X118767763Y-71637567D01*
X118746005Y-71644167D01*
X118569836Y-71697607D01*
X118492707Y-71705204D01*
X118415580Y-71712800D01*
X118312420Y-71712800D01*
X118235293Y-71705204D01*
X118158164Y-71697607D01*
X117981995Y-71644167D01*
X117960237Y-71637567D01*
X117777828Y-71540067D01*
X117617946Y-71408854D01*
X117486733Y-71248972D01*
X117389233Y-71066563D01*
X117369220Y-71000587D01*
X117329193Y-70868636D01*
X117308920Y-70662800D01*
X117329193Y-70456964D01*
X117389233Y-70259038D01*
X117389233Y-70259037D01*
X117486733Y-70076628D01*
X117617946Y-69916746D01*
X117777828Y-69785533D01*
X117960237Y-69688033D01*
X118026213Y-69668020D01*
X118158164Y-69627993D01*
X118235293Y-69620396D01*
X118312420Y-69612800D01*
X118415580Y-69612800D01*
X118492707Y-69620396D01*
X118492707Y-69620396D01*
G37*
G36*
X173859627Y-68589156D02*
X173936756Y-68596753D01*
X174068707Y-68636780D01*
X174134683Y-68656793D01*
X174317092Y-68754293D01*
X174476974Y-68885506D01*
X174608187Y-69045388D01*
X174705687Y-69227797D01*
X174705687Y-69227798D01*
X174765727Y-69425724D01*
X174786000Y-69631560D01*
X174765727Y-69837396D01*
X174739654Y-69923346D01*
X174705687Y-70035323D01*
X174608187Y-70217732D01*
X174476974Y-70377614D01*
X174317092Y-70508827D01*
X174134683Y-70606327D01*
X174068707Y-70626340D01*
X173936756Y-70666367D01*
X173859627Y-70673963D01*
X173782500Y-70681560D01*
X173679340Y-70681560D01*
X173602213Y-70673963D01*
X173525084Y-70666367D01*
X173393133Y-70626340D01*
X173327157Y-70606327D01*
X173144748Y-70508827D01*
X172984866Y-70377614D01*
X172853653Y-70217732D01*
X172756153Y-70035323D01*
X172722186Y-69923346D01*
X172696113Y-69837396D01*
X172675840Y-69631560D01*
X172696113Y-69425724D01*
X172756153Y-69227798D01*
X172756153Y-69227797D01*
X172853653Y-69045388D01*
X172984866Y-68885506D01*
X173144748Y-68754293D01*
X173327157Y-68656793D01*
X173393133Y-68636780D01*
X173525084Y-68596753D01*
X173602213Y-68589156D01*
X173679340Y-68581560D01*
X173782500Y-68581560D01*
X173859627Y-68589156D01*
X173859627Y-68589156D01*
G37*
G36*
X196268707Y-68357597D02*
X196345836Y-68365193D01*
X196477787Y-68405220D01*
X196543763Y-68425233D01*
X196726172Y-68522733D01*
X196886054Y-68653946D01*
X197017267Y-68813828D01*
X197114767Y-68996237D01*
X197129677Y-69045389D01*
X197174807Y-69194164D01*
X197195080Y-69400000D01*
X197174807Y-69605836D01*
X197149873Y-69688033D01*
X197114767Y-69803763D01*
X197017267Y-69986172D01*
X196886054Y-70146054D01*
X196726172Y-70277267D01*
X196543763Y-70374767D01*
X196477787Y-70394780D01*
X196345836Y-70434807D01*
X196268707Y-70442404D01*
X196191580Y-70450000D01*
X196088420Y-70450000D01*
X196011293Y-70442404D01*
X195934164Y-70434807D01*
X195802213Y-70394780D01*
X195736237Y-70374767D01*
X195553828Y-70277267D01*
X195393946Y-70146054D01*
X195262733Y-69986172D01*
X195165233Y-69803763D01*
X195130127Y-69688033D01*
X195105193Y-69605836D01*
X195084920Y-69400000D01*
X195105193Y-69194164D01*
X195150323Y-69045389D01*
X195165233Y-68996237D01*
X195262733Y-68813828D01*
X195393946Y-68653946D01*
X195553828Y-68522733D01*
X195736237Y-68425233D01*
X195802213Y-68405220D01*
X195934164Y-68365193D01*
X196011293Y-68357597D01*
X196088420Y-68350000D01*
X196191580Y-68350000D01*
X196268707Y-68357597D01*
X196268707Y-68357597D01*
G37*
G36*
X194650000Y-70450000D02*
X192550000Y-70450000D01*
X192550000Y-68350000D01*
X194650000Y-68350000D01*
X194650000Y-70450000D01*
X194650000Y-70450000D01*
G37*
G36*
X201348707Y-68357597D02*
X201425836Y-68365193D01*
X201557787Y-68405220D01*
X201623763Y-68425233D01*
X201806172Y-68522733D01*
X201966054Y-68653946D01*
X202097267Y-68813828D01*
X202194767Y-68996237D01*
X202209677Y-69045389D01*
X202254807Y-69194164D01*
X202275080Y-69400000D01*
X202254807Y-69605836D01*
X202229873Y-69688033D01*
X202194767Y-69803763D01*
X202097267Y-69986172D01*
X201966054Y-70146054D01*
X201806172Y-70277267D01*
X201623763Y-70374767D01*
X201557787Y-70394780D01*
X201425836Y-70434807D01*
X201348707Y-70442404D01*
X201271580Y-70450000D01*
X201168420Y-70450000D01*
X201091293Y-70442404D01*
X201014164Y-70434807D01*
X200882213Y-70394780D01*
X200816237Y-70374767D01*
X200633828Y-70277267D01*
X200473946Y-70146054D01*
X200342733Y-69986172D01*
X200245233Y-69803763D01*
X200210127Y-69688033D01*
X200185193Y-69605836D01*
X200164920Y-69400000D01*
X200185193Y-69194164D01*
X200230323Y-69045389D01*
X200245233Y-68996237D01*
X200342733Y-68813828D01*
X200473946Y-68653946D01*
X200633828Y-68522733D01*
X200816237Y-68425233D01*
X200882213Y-68405220D01*
X201014164Y-68365193D01*
X201091293Y-68357597D01*
X201168420Y-68350000D01*
X201271580Y-68350000D01*
X201348707Y-68357597D01*
X201348707Y-68357597D01*
G37*
G36*
X198808707Y-68357597D02*
X198885836Y-68365193D01*
X199017787Y-68405220D01*
X199083763Y-68425233D01*
X199266172Y-68522733D01*
X199426054Y-68653946D01*
X199557267Y-68813828D01*
X199654767Y-68996237D01*
X199669677Y-69045389D01*
X199714807Y-69194164D01*
X199735080Y-69400000D01*
X199714807Y-69605836D01*
X199689873Y-69688033D01*
X199654767Y-69803763D01*
X199557267Y-69986172D01*
X199426054Y-70146054D01*
X199266172Y-70277267D01*
X199083763Y-70374767D01*
X199017787Y-70394780D01*
X198885836Y-70434807D01*
X198808707Y-70442404D01*
X198731580Y-70450000D01*
X198628420Y-70450000D01*
X198551293Y-70442404D01*
X198474164Y-70434807D01*
X198342213Y-70394780D01*
X198276237Y-70374767D01*
X198093828Y-70277267D01*
X197933946Y-70146054D01*
X197802733Y-69986172D01*
X197705233Y-69803763D01*
X197670127Y-69688033D01*
X197645193Y-69605836D01*
X197624920Y-69400000D01*
X197645193Y-69194164D01*
X197690323Y-69045389D01*
X197705233Y-68996237D01*
X197802733Y-68813828D01*
X197933946Y-68653946D01*
X198093828Y-68522733D01*
X198276237Y-68425233D01*
X198342213Y-68405220D01*
X198474164Y-68365193D01*
X198551293Y-68357597D01*
X198628420Y-68350000D01*
X198731580Y-68350000D01*
X198808707Y-68357597D01*
X198808707Y-68357597D01*
G37*
G36*
X107200187Y-67086997D02*
X107277316Y-67094593D01*
X107409267Y-67134620D01*
X107475243Y-67154633D01*
X107657652Y-67252133D01*
X107817534Y-67383346D01*
X107948747Y-67543228D01*
X108046247Y-67725637D01*
X108046247Y-67725638D01*
X108106287Y-67923564D01*
X108126560Y-68129400D01*
X108106287Y-68335236D01*
X108078987Y-68425233D01*
X108046247Y-68533163D01*
X107948747Y-68715572D01*
X107817534Y-68875454D01*
X107657652Y-69006667D01*
X107475243Y-69104167D01*
X107409267Y-69124180D01*
X107277316Y-69164207D01*
X107200187Y-69171803D01*
X107123060Y-69179400D01*
X107019900Y-69179400D01*
X106942773Y-69171803D01*
X106865644Y-69164207D01*
X106733693Y-69124180D01*
X106667717Y-69104167D01*
X106485308Y-69006667D01*
X106325426Y-68875454D01*
X106194213Y-68715572D01*
X106096713Y-68533163D01*
X106063973Y-68425233D01*
X106036673Y-68335236D01*
X106016400Y-68129400D01*
X106036673Y-67923564D01*
X106096713Y-67725638D01*
X106096713Y-67725637D01*
X106194213Y-67543228D01*
X106325426Y-67383346D01*
X106485308Y-67252133D01*
X106667717Y-67154633D01*
X106733693Y-67134620D01*
X106865644Y-67094593D01*
X106942773Y-67086997D01*
X107019900Y-67079400D01*
X107123060Y-67079400D01*
X107200187Y-67086997D01*
X107200187Y-67086997D01*
G37*
G36*
X121032707Y-67080396D02*
X121109836Y-67087993D01*
X121241787Y-67128020D01*
X121307763Y-67148033D01*
X121490172Y-67245533D01*
X121650054Y-67376746D01*
X121781267Y-67536628D01*
X121878767Y-67719037D01*
X121878767Y-67719038D01*
X121938807Y-67916964D01*
X121959080Y-68122800D01*
X121938807Y-68328636D01*
X121909505Y-68425233D01*
X121878767Y-68526563D01*
X121781267Y-68708972D01*
X121650054Y-68868854D01*
X121490172Y-69000067D01*
X121307763Y-69097567D01*
X121286005Y-69104167D01*
X121109836Y-69157607D01*
X121032707Y-69165204D01*
X120955580Y-69172800D01*
X120852420Y-69172800D01*
X120775293Y-69165204D01*
X120698164Y-69157607D01*
X120521995Y-69104167D01*
X120500237Y-69097567D01*
X120317828Y-69000067D01*
X120157946Y-68868854D01*
X120026733Y-68708972D01*
X119929233Y-68526563D01*
X119898495Y-68425233D01*
X119869193Y-68328636D01*
X119848920Y-68122800D01*
X119869193Y-67916964D01*
X119929233Y-67719038D01*
X119929233Y-67719037D01*
X120026733Y-67536628D01*
X120157946Y-67376746D01*
X120317828Y-67245533D01*
X120500237Y-67148033D01*
X120566213Y-67128020D01*
X120698164Y-67087993D01*
X120775293Y-67080396D01*
X120852420Y-67072800D01*
X120955580Y-67072800D01*
X121032707Y-67080396D01*
X121032707Y-67080396D01*
G37*
G36*
X118492707Y-67080396D02*
X118569836Y-67087993D01*
X118701787Y-67128020D01*
X118767763Y-67148033D01*
X118950172Y-67245533D01*
X119110054Y-67376746D01*
X119241267Y-67536628D01*
X119338767Y-67719037D01*
X119338767Y-67719038D01*
X119398807Y-67916964D01*
X119419080Y-68122800D01*
X119398807Y-68328636D01*
X119369505Y-68425233D01*
X119338767Y-68526563D01*
X119241267Y-68708972D01*
X119110054Y-68868854D01*
X118950172Y-69000067D01*
X118767763Y-69097567D01*
X118746005Y-69104167D01*
X118569836Y-69157607D01*
X118492707Y-69165204D01*
X118415580Y-69172800D01*
X118312420Y-69172800D01*
X118235293Y-69165204D01*
X118158164Y-69157607D01*
X117981995Y-69104167D01*
X117960237Y-69097567D01*
X117777828Y-69000067D01*
X117617946Y-68868854D01*
X117486733Y-68708972D01*
X117389233Y-68526563D01*
X117358495Y-68425233D01*
X117329193Y-68328636D01*
X117308920Y-68122800D01*
X117329193Y-67916964D01*
X117389233Y-67719038D01*
X117389233Y-67719037D01*
X117486733Y-67536628D01*
X117617946Y-67376746D01*
X117777828Y-67245533D01*
X117960237Y-67148033D01*
X118026213Y-67128020D01*
X118158164Y-67087993D01*
X118235293Y-67080396D01*
X118312420Y-67072800D01*
X118415580Y-67072800D01*
X118492707Y-67080396D01*
X118492707Y-67080396D01*
G37*
G36*
X173859627Y-66049156D02*
X173936756Y-66056753D01*
X174068707Y-66096780D01*
X174134683Y-66116793D01*
X174317092Y-66214293D01*
X174476974Y-66345506D01*
X174608187Y-66505388D01*
X174705687Y-66687797D01*
X174705687Y-66687798D01*
X174765727Y-66885724D01*
X174786000Y-67091560D01*
X174765727Y-67297396D01*
X174739654Y-67383346D01*
X174705687Y-67495323D01*
X174608187Y-67677732D01*
X174476974Y-67837614D01*
X174317092Y-67968827D01*
X174134683Y-68066327D01*
X174068707Y-68086340D01*
X173936756Y-68126367D01*
X173859627Y-68133964D01*
X173782500Y-68141560D01*
X173679340Y-68141560D01*
X173602213Y-68133964D01*
X173525084Y-68126367D01*
X173393133Y-68086340D01*
X173327157Y-68066327D01*
X173144748Y-67968827D01*
X172984866Y-67837614D01*
X172853653Y-67677732D01*
X172756153Y-67495323D01*
X172722186Y-67383346D01*
X172696113Y-67297396D01*
X172675840Y-67091560D01*
X172696113Y-66885724D01*
X172756153Y-66687798D01*
X172756153Y-66687797D01*
X172853653Y-66505388D01*
X172984866Y-66345506D01*
X173144748Y-66214293D01*
X173327157Y-66116793D01*
X173393133Y-66096780D01*
X173525084Y-66056753D01*
X173602213Y-66049156D01*
X173679340Y-66041560D01*
X173782500Y-66041560D01*
X173859627Y-66049156D01*
X173859627Y-66049156D01*
G37*
G36*
X194650000Y-66800000D02*
X192550000Y-66800000D01*
X192550000Y-64700000D01*
X194650000Y-64700000D01*
X194650000Y-66800000D01*
X194650000Y-66800000D01*
G37*
G36*
X107200187Y-64546996D02*
X107277316Y-64554593D01*
X107409267Y-64594620D01*
X107475243Y-64614633D01*
X107657652Y-64712133D01*
X107817534Y-64843346D01*
X107948747Y-65003228D01*
X108046247Y-65185637D01*
X108046247Y-65185638D01*
X108106287Y-65383564D01*
X108126560Y-65589400D01*
X108106287Y-65795236D01*
X108066260Y-65927187D01*
X108046247Y-65993163D01*
X107948747Y-66175572D01*
X107817534Y-66335454D01*
X107657652Y-66466667D01*
X107475243Y-66564167D01*
X107409267Y-66584180D01*
X107277316Y-66624207D01*
X107200187Y-66631803D01*
X107123060Y-66639400D01*
X107019900Y-66639400D01*
X106942773Y-66631803D01*
X106865644Y-66624207D01*
X106733693Y-66584180D01*
X106667717Y-66564167D01*
X106485308Y-66466667D01*
X106325426Y-66335454D01*
X106194213Y-66175572D01*
X106096713Y-65993163D01*
X106076700Y-65927187D01*
X106036673Y-65795236D01*
X106016400Y-65589400D01*
X106036673Y-65383564D01*
X106096713Y-65185638D01*
X106096713Y-65185637D01*
X106194213Y-65003228D01*
X106325426Y-64843346D01*
X106485308Y-64712133D01*
X106667717Y-64614633D01*
X106733693Y-64594620D01*
X106865644Y-64554593D01*
X106942773Y-64546996D01*
X107019900Y-64539400D01*
X107123060Y-64539400D01*
X107200187Y-64546996D01*
X107200187Y-64546996D01*
G37*
G36*
X121032707Y-64540396D02*
X121109836Y-64547993D01*
X121241787Y-64588020D01*
X121307763Y-64608033D01*
X121490172Y-64705533D01*
X121650054Y-64836746D01*
X121781267Y-64996628D01*
X121878767Y-65179037D01*
X121878767Y-65179038D01*
X121938807Y-65376964D01*
X121959080Y-65582800D01*
X121938807Y-65788636D01*
X121898780Y-65920587D01*
X121878767Y-65986563D01*
X121781267Y-66168972D01*
X121650054Y-66328854D01*
X121490172Y-66460067D01*
X121307763Y-66557567D01*
X121286005Y-66564167D01*
X121109836Y-66617607D01*
X121032707Y-66625204D01*
X120955580Y-66632800D01*
X120852420Y-66632800D01*
X120775293Y-66625204D01*
X120698164Y-66617607D01*
X120521995Y-66564167D01*
X120500237Y-66557567D01*
X120317828Y-66460067D01*
X120157946Y-66328854D01*
X120026733Y-66168972D01*
X119929233Y-65986563D01*
X119909220Y-65920587D01*
X119869193Y-65788636D01*
X119848920Y-65582800D01*
X119869193Y-65376964D01*
X119929233Y-65179038D01*
X119929233Y-65179037D01*
X120026733Y-64996628D01*
X120157946Y-64836746D01*
X120317828Y-64705533D01*
X120500237Y-64608033D01*
X120566213Y-64588020D01*
X120698164Y-64547993D01*
X120775293Y-64540396D01*
X120852420Y-64532800D01*
X120955580Y-64532800D01*
X121032707Y-64540396D01*
X121032707Y-64540396D01*
G37*
G36*
X118492707Y-64540396D02*
X118569836Y-64547993D01*
X118701787Y-64588020D01*
X118767763Y-64608033D01*
X118950172Y-64705533D01*
X119110054Y-64836746D01*
X119241267Y-64996628D01*
X119338767Y-65179037D01*
X119338767Y-65179038D01*
X119398807Y-65376964D01*
X119419080Y-65582800D01*
X119398807Y-65788636D01*
X119358780Y-65920587D01*
X119338767Y-65986563D01*
X119241267Y-66168972D01*
X119110054Y-66328854D01*
X118950172Y-66460067D01*
X118767763Y-66557567D01*
X118746005Y-66564167D01*
X118569836Y-66617607D01*
X118492707Y-66625204D01*
X118415580Y-66632800D01*
X118312420Y-66632800D01*
X118235293Y-66625204D01*
X118158164Y-66617607D01*
X117981995Y-66564167D01*
X117960237Y-66557567D01*
X117777828Y-66460067D01*
X117617946Y-66328854D01*
X117486733Y-66168972D01*
X117389233Y-65986563D01*
X117369220Y-65920587D01*
X117329193Y-65788636D01*
X117308920Y-65582800D01*
X117329193Y-65376964D01*
X117389233Y-65179038D01*
X117389233Y-65179037D01*
X117486733Y-64996628D01*
X117617946Y-64836746D01*
X117777828Y-64705533D01*
X117960237Y-64608033D01*
X118026213Y-64588020D01*
X118158164Y-64547993D01*
X118235293Y-64540396D01*
X118312420Y-64532800D01*
X118415580Y-64532800D01*
X118492707Y-64540396D01*
X118492707Y-64540396D01*
G37*
G36*
X173859627Y-63509157D02*
X173936756Y-63516753D01*
X174068707Y-63556780D01*
X174134683Y-63576793D01*
X174317092Y-63674293D01*
X174476974Y-63805506D01*
X174608187Y-63965388D01*
X174705687Y-64147797D01*
X174725700Y-64213773D01*
X174765727Y-64345724D01*
X174786000Y-64551560D01*
X174765727Y-64757396D01*
X174739654Y-64843346D01*
X174705687Y-64955323D01*
X174608187Y-65137732D01*
X174476974Y-65297614D01*
X174317092Y-65428827D01*
X174134683Y-65526327D01*
X174068707Y-65546340D01*
X173936756Y-65586367D01*
X173859627Y-65593963D01*
X173782500Y-65601560D01*
X173679340Y-65601560D01*
X173602213Y-65593963D01*
X173525084Y-65586367D01*
X173393133Y-65546340D01*
X173327157Y-65526327D01*
X173144748Y-65428827D01*
X172984866Y-65297614D01*
X172853653Y-65137732D01*
X172756153Y-64955323D01*
X172722186Y-64843346D01*
X172696113Y-64757396D01*
X172675840Y-64551560D01*
X172696113Y-64345724D01*
X172736140Y-64213773D01*
X172756153Y-64147797D01*
X172853653Y-63965388D01*
X172984866Y-63805506D01*
X173144748Y-63674293D01*
X173327157Y-63576793D01*
X173393133Y-63556780D01*
X173525084Y-63516753D01*
X173602213Y-63509157D01*
X173679340Y-63501560D01*
X173782500Y-63501560D01*
X173859627Y-63509157D01*
X173859627Y-63509157D01*
G37*
G36*
X193707756Y-62165533D02*
X193805836Y-62175193D01*
X193937787Y-62215220D01*
X194003763Y-62235233D01*
X194186172Y-62332733D01*
X194346054Y-62463946D01*
X194477267Y-62623828D01*
X194574767Y-62806237D01*
X194574767Y-62806238D01*
X194634807Y-63004164D01*
X194655080Y-63210000D01*
X194634807Y-63415836D01*
X194625486Y-63446562D01*
X194574767Y-63613763D01*
X194477267Y-63796172D01*
X194346054Y-63956054D01*
X194186172Y-64087267D01*
X194003763Y-64184767D01*
X193937787Y-64204780D01*
X193805836Y-64244807D01*
X193728707Y-64252404D01*
X193651580Y-64260000D01*
X193548420Y-64260000D01*
X193471293Y-64252404D01*
X193394164Y-64244807D01*
X193262213Y-64204780D01*
X193196237Y-64184767D01*
X193013828Y-64087267D01*
X192853946Y-63956054D01*
X192722733Y-63796172D01*
X192625233Y-63613763D01*
X192574514Y-63446562D01*
X192565193Y-63415836D01*
X192544920Y-63210000D01*
X192565193Y-63004164D01*
X192625233Y-62806238D01*
X192625233Y-62806237D01*
X192722733Y-62623828D01*
X192853946Y-62463946D01*
X193013828Y-62332733D01*
X193196237Y-62235233D01*
X193262213Y-62215220D01*
X193394164Y-62175193D01*
X193492244Y-62165533D01*
X193548420Y-62160000D01*
X193651580Y-62160000D01*
X193707756Y-62165533D01*
X193707756Y-62165533D01*
G37*
G36*
X107200187Y-62006997D02*
X107277316Y-62014593D01*
X107409267Y-62054620D01*
X107475243Y-62074633D01*
X107657652Y-62172133D01*
X107817534Y-62303346D01*
X107948747Y-62463228D01*
X108046247Y-62645637D01*
X108046247Y-62645638D01*
X108106287Y-62843564D01*
X108126560Y-63049400D01*
X108106287Y-63255236D01*
X108066260Y-63387187D01*
X108046247Y-63453163D01*
X107948747Y-63635572D01*
X107817534Y-63795454D01*
X107657652Y-63926667D01*
X107475243Y-64024167D01*
X107409267Y-64044180D01*
X107277316Y-64084207D01*
X107200187Y-64091803D01*
X107123060Y-64099400D01*
X107019900Y-64099400D01*
X106942773Y-64091803D01*
X106865644Y-64084207D01*
X106733693Y-64044180D01*
X106667717Y-64024167D01*
X106485308Y-63926667D01*
X106325426Y-63795454D01*
X106194213Y-63635572D01*
X106096713Y-63453163D01*
X106076700Y-63387187D01*
X106036673Y-63255236D01*
X106016400Y-63049400D01*
X106036673Y-62843564D01*
X106096713Y-62645638D01*
X106096713Y-62645637D01*
X106194213Y-62463228D01*
X106325426Y-62303346D01*
X106485308Y-62172133D01*
X106667717Y-62074633D01*
X106733693Y-62054620D01*
X106865644Y-62014593D01*
X106942773Y-62006997D01*
X107019900Y-61999400D01*
X107123060Y-61999400D01*
X107200187Y-62006997D01*
X107200187Y-62006997D01*
G37*
G36*
X118492707Y-62000396D02*
X118569836Y-62007993D01*
X118701787Y-62048020D01*
X118767763Y-62068033D01*
X118950172Y-62165533D01*
X119110054Y-62296746D01*
X119241267Y-62456628D01*
X119338767Y-62639037D01*
X119338767Y-62639038D01*
X119398807Y-62836964D01*
X119419080Y-63042800D01*
X119398807Y-63248636D01*
X119358780Y-63380587D01*
X119338767Y-63446563D01*
X119241267Y-63628972D01*
X119110054Y-63788854D01*
X118950172Y-63920067D01*
X118767763Y-64017567D01*
X118746005Y-64024167D01*
X118569836Y-64077607D01*
X118492707Y-64085203D01*
X118415580Y-64092800D01*
X118312420Y-64092800D01*
X118235293Y-64085203D01*
X118158164Y-64077607D01*
X117981995Y-64024167D01*
X117960237Y-64017567D01*
X117777828Y-63920067D01*
X117617946Y-63788854D01*
X117486733Y-63628972D01*
X117389233Y-63446563D01*
X117369220Y-63380587D01*
X117329193Y-63248636D01*
X117308920Y-63042800D01*
X117329193Y-62836964D01*
X117389233Y-62639038D01*
X117389233Y-62639037D01*
X117486733Y-62456628D01*
X117617946Y-62296746D01*
X117777828Y-62165533D01*
X117960237Y-62068033D01*
X118026213Y-62048020D01*
X118158164Y-62007993D01*
X118235293Y-62000396D01*
X118312420Y-61992800D01*
X118415580Y-61992800D01*
X118492707Y-62000396D01*
X118492707Y-62000396D01*
G37*
G36*
X121032707Y-62000396D02*
X121109836Y-62007993D01*
X121241787Y-62048020D01*
X121307763Y-62068033D01*
X121490172Y-62165533D01*
X121650054Y-62296746D01*
X121781267Y-62456628D01*
X121878767Y-62639037D01*
X121878767Y-62639038D01*
X121938807Y-62836964D01*
X121959080Y-63042800D01*
X121938807Y-63248636D01*
X121898780Y-63380587D01*
X121878767Y-63446563D01*
X121781267Y-63628972D01*
X121650054Y-63788854D01*
X121490172Y-63920067D01*
X121307763Y-64017567D01*
X121286005Y-64024167D01*
X121109836Y-64077607D01*
X121032707Y-64085203D01*
X120955580Y-64092800D01*
X120852420Y-64092800D01*
X120775293Y-64085203D01*
X120698164Y-64077607D01*
X120521995Y-64024167D01*
X120500237Y-64017567D01*
X120317828Y-63920067D01*
X120157946Y-63788854D01*
X120026733Y-63628972D01*
X119929233Y-63446563D01*
X119909220Y-63380587D01*
X119869193Y-63248636D01*
X119848920Y-63042800D01*
X119869193Y-62836964D01*
X119929233Y-62639038D01*
X119929233Y-62639037D01*
X120026733Y-62456628D01*
X120157946Y-62296746D01*
X120317828Y-62165533D01*
X120500237Y-62068033D01*
X120566213Y-62048020D01*
X120698164Y-62007993D01*
X120775293Y-62000396D01*
X120852420Y-61992800D01*
X120955580Y-61992800D01*
X121032707Y-62000396D01*
X121032707Y-62000396D01*
G37*
G36*
X173859627Y-60969156D02*
X173936756Y-60976753D01*
X174068707Y-61016780D01*
X174134683Y-61036793D01*
X174317092Y-61134293D01*
X174476974Y-61265506D01*
X174608187Y-61425388D01*
X174705687Y-61607797D01*
X174705687Y-61607798D01*
X174765727Y-61805724D01*
X174786000Y-62011560D01*
X174765727Y-62217396D01*
X174739654Y-62303346D01*
X174705687Y-62415323D01*
X174608187Y-62597732D01*
X174476974Y-62757614D01*
X174317092Y-62888827D01*
X174134683Y-62986327D01*
X174075881Y-63004164D01*
X173936756Y-63046367D01*
X173859627Y-63053963D01*
X173782500Y-63061560D01*
X173679340Y-63061560D01*
X173602213Y-63053963D01*
X173525084Y-63046367D01*
X173385959Y-63004164D01*
X173327157Y-62986327D01*
X173144748Y-62888827D01*
X172984866Y-62757614D01*
X172853653Y-62597732D01*
X172756153Y-62415323D01*
X172722186Y-62303346D01*
X172696113Y-62217396D01*
X172675840Y-62011560D01*
X172696113Y-61805724D01*
X172756153Y-61607798D01*
X172756153Y-61607797D01*
X172853653Y-61425388D01*
X172984866Y-61265506D01*
X173144748Y-61134293D01*
X173327157Y-61036793D01*
X173393133Y-61016780D01*
X173525084Y-60976753D01*
X173602213Y-60969156D01*
X173679340Y-60961560D01*
X173782500Y-60961560D01*
X173859627Y-60969156D01*
X173859627Y-60969156D01*
G37*
G36*
X107200187Y-59466996D02*
X107277316Y-59474593D01*
X107409267Y-59514620D01*
X107475243Y-59534633D01*
X107657652Y-59632133D01*
X107817534Y-59763346D01*
X107948747Y-59923228D01*
X108046247Y-60105637D01*
X108046247Y-60105638D01*
X108106287Y-60303564D01*
X108126560Y-60509400D01*
X108106287Y-60715236D01*
X108066260Y-60847187D01*
X108046247Y-60913163D01*
X107948747Y-61095572D01*
X107817534Y-61255454D01*
X107657652Y-61386667D01*
X107475243Y-61484167D01*
X107409267Y-61504180D01*
X107277316Y-61544207D01*
X107200187Y-61551803D01*
X107123060Y-61559400D01*
X107019900Y-61559400D01*
X106942773Y-61551803D01*
X106865644Y-61544207D01*
X106733693Y-61504180D01*
X106667717Y-61484167D01*
X106485308Y-61386667D01*
X106325426Y-61255454D01*
X106194213Y-61095572D01*
X106096713Y-60913163D01*
X106076700Y-60847187D01*
X106036673Y-60715236D01*
X106016400Y-60509400D01*
X106036673Y-60303564D01*
X106096713Y-60105638D01*
X106096713Y-60105637D01*
X106194213Y-59923228D01*
X106325426Y-59763346D01*
X106485308Y-59632133D01*
X106667717Y-59534633D01*
X106733693Y-59514620D01*
X106865644Y-59474593D01*
X106942773Y-59466996D01*
X107019900Y-59459400D01*
X107123060Y-59459400D01*
X107200187Y-59466996D01*
X107200187Y-59466996D01*
G37*
G36*
X121032707Y-59460397D02*
X121109836Y-59467993D01*
X121241787Y-59508020D01*
X121307763Y-59528033D01*
X121490172Y-59625533D01*
X121650054Y-59756746D01*
X121781267Y-59916628D01*
X121878767Y-60099037D01*
X121878767Y-60099038D01*
X121938807Y-60296964D01*
X121959080Y-60502800D01*
X121938807Y-60708636D01*
X121898780Y-60840587D01*
X121878767Y-60906563D01*
X121781267Y-61088972D01*
X121650054Y-61248854D01*
X121490172Y-61380067D01*
X121307763Y-61477567D01*
X121286005Y-61484167D01*
X121109836Y-61537607D01*
X121032707Y-61545203D01*
X120955580Y-61552800D01*
X120852420Y-61552800D01*
X120775293Y-61545203D01*
X120698164Y-61537607D01*
X120521995Y-61484167D01*
X120500237Y-61477567D01*
X120317828Y-61380067D01*
X120157946Y-61248854D01*
X120026733Y-61088972D01*
X119929233Y-60906563D01*
X119909220Y-60840587D01*
X119869193Y-60708636D01*
X119848920Y-60502800D01*
X119869193Y-60296964D01*
X119929233Y-60099038D01*
X119929233Y-60099037D01*
X120026733Y-59916628D01*
X120157946Y-59756746D01*
X120317828Y-59625533D01*
X120500237Y-59528033D01*
X120566213Y-59508020D01*
X120698164Y-59467993D01*
X120775293Y-59460397D01*
X120852420Y-59452800D01*
X120955580Y-59452800D01*
X121032707Y-59460397D01*
X121032707Y-59460397D01*
G37*
G36*
X118492707Y-59460397D02*
X118569836Y-59467993D01*
X118701787Y-59508020D01*
X118767763Y-59528033D01*
X118950172Y-59625533D01*
X119110054Y-59756746D01*
X119241267Y-59916628D01*
X119338767Y-60099037D01*
X119338767Y-60099038D01*
X119398807Y-60296964D01*
X119419080Y-60502800D01*
X119398807Y-60708636D01*
X119358780Y-60840587D01*
X119338767Y-60906563D01*
X119241267Y-61088972D01*
X119110054Y-61248854D01*
X118950172Y-61380067D01*
X118767763Y-61477567D01*
X118746005Y-61484167D01*
X118569836Y-61537607D01*
X118492707Y-61545203D01*
X118415580Y-61552800D01*
X118312420Y-61552800D01*
X118235293Y-61545203D01*
X118158164Y-61537607D01*
X117981995Y-61484167D01*
X117960237Y-61477567D01*
X117777828Y-61380067D01*
X117617946Y-61248854D01*
X117486733Y-61088972D01*
X117389233Y-60906563D01*
X117369220Y-60840587D01*
X117329193Y-60708636D01*
X117308920Y-60502800D01*
X117329193Y-60296964D01*
X117389233Y-60099038D01*
X117389233Y-60099037D01*
X117486733Y-59916628D01*
X117617946Y-59756746D01*
X117777828Y-59625533D01*
X117960237Y-59528033D01*
X118026213Y-59508020D01*
X118158164Y-59467993D01*
X118235293Y-59460397D01*
X118312420Y-59452800D01*
X118415580Y-59452800D01*
X118492707Y-59460397D01*
X118492707Y-59460397D01*
G37*
G36*
X193728707Y-58577597D02*
X193805836Y-58585193D01*
X193937787Y-58625220D01*
X194003763Y-58645233D01*
X194186172Y-58742733D01*
X194346054Y-58873946D01*
X194477267Y-59033828D01*
X194574767Y-59216237D01*
X194574767Y-59216238D01*
X194634807Y-59414164D01*
X194655080Y-59620000D01*
X194634807Y-59825836D01*
X194605263Y-59923229D01*
X194574767Y-60023763D01*
X194477267Y-60206172D01*
X194346054Y-60366054D01*
X194186172Y-60497267D01*
X194003763Y-60594767D01*
X193937787Y-60614780D01*
X193805836Y-60654807D01*
X193728707Y-60662403D01*
X193651580Y-60670000D01*
X193548420Y-60670000D01*
X193471293Y-60662403D01*
X193394164Y-60654807D01*
X193262213Y-60614780D01*
X193196237Y-60594767D01*
X193013828Y-60497267D01*
X192853946Y-60366054D01*
X192722733Y-60206172D01*
X192625233Y-60023763D01*
X192594737Y-59923229D01*
X192565193Y-59825836D01*
X192544920Y-59620000D01*
X192565193Y-59414164D01*
X192625233Y-59216238D01*
X192625233Y-59216237D01*
X192722733Y-59033828D01*
X192853946Y-58873946D01*
X193013828Y-58742733D01*
X193196237Y-58645233D01*
X193262213Y-58625220D01*
X193394164Y-58585193D01*
X193471293Y-58577597D01*
X193548420Y-58570000D01*
X193651580Y-58570000D01*
X193728707Y-58577597D01*
X193728707Y-58577597D01*
G37*
G36*
X173859627Y-58429157D02*
X173936756Y-58436753D01*
X174068707Y-58476780D01*
X174134683Y-58496793D01*
X174317092Y-58594293D01*
X174476974Y-58725506D01*
X174608187Y-58885388D01*
X174705687Y-59067797D01*
X174705687Y-59067798D01*
X174765727Y-59265724D01*
X174786000Y-59471560D01*
X174765727Y-59677396D01*
X174739654Y-59763346D01*
X174705687Y-59875323D01*
X174608187Y-60057732D01*
X174476974Y-60217614D01*
X174317092Y-60348827D01*
X174134683Y-60446327D01*
X174068707Y-60466340D01*
X173936756Y-60506367D01*
X173859627Y-60513964D01*
X173782500Y-60521560D01*
X173679340Y-60521560D01*
X173602213Y-60513964D01*
X173525084Y-60506367D01*
X173393133Y-60466340D01*
X173327157Y-60446327D01*
X173144748Y-60348827D01*
X172984866Y-60217614D01*
X172853653Y-60057732D01*
X172756153Y-59875323D01*
X172722186Y-59763346D01*
X172696113Y-59677396D01*
X172675840Y-59471560D01*
X172696113Y-59265724D01*
X172756153Y-59067798D01*
X172756153Y-59067797D01*
X172853653Y-58885388D01*
X172984866Y-58725506D01*
X173144748Y-58594293D01*
X173327157Y-58496793D01*
X173393133Y-58476780D01*
X173525084Y-58436753D01*
X173602213Y-58429157D01*
X173679340Y-58421560D01*
X173782500Y-58421560D01*
X173859627Y-58429157D01*
X173859627Y-58429157D01*
G37*
G36*
X108121480Y-59019400D02*
X106021480Y-59019400D01*
X106021480Y-56919400D01*
X108121480Y-56919400D01*
X108121480Y-59019400D01*
X108121480Y-59019400D01*
G37*
G36*
X193728707Y-56037596D02*
X193805836Y-56045193D01*
X193937787Y-56085220D01*
X194003763Y-56105233D01*
X194186172Y-56202733D01*
X194346054Y-56333946D01*
X194477267Y-56493828D01*
X194574767Y-56676237D01*
X194574767Y-56676238D01*
X194634807Y-56874164D01*
X194655080Y-57080000D01*
X194634807Y-57285836D01*
X194619795Y-57335323D01*
X194574767Y-57483763D01*
X194477267Y-57666172D01*
X194346054Y-57826054D01*
X194186172Y-57957267D01*
X194003763Y-58054767D01*
X193937787Y-58074780D01*
X193805836Y-58114807D01*
X193728707Y-58122403D01*
X193651580Y-58130000D01*
X193548420Y-58130000D01*
X193471293Y-58122403D01*
X193394164Y-58114807D01*
X193262213Y-58074780D01*
X193196237Y-58054767D01*
X193013828Y-57957267D01*
X192853946Y-57826054D01*
X192722733Y-57666172D01*
X192625233Y-57483763D01*
X192580205Y-57335323D01*
X192565193Y-57285836D01*
X192544920Y-57080000D01*
X192565193Y-56874164D01*
X192625233Y-56676238D01*
X192625233Y-56676237D01*
X192722733Y-56493828D01*
X192853946Y-56333946D01*
X193013828Y-56202733D01*
X193196237Y-56105233D01*
X193262213Y-56085220D01*
X193394164Y-56045193D01*
X193471293Y-56037596D01*
X193548420Y-56030000D01*
X193651580Y-56030000D01*
X193728707Y-56037596D01*
X193728707Y-56037596D01*
G37*
G36*
X173859627Y-55889156D02*
X173936756Y-55896753D01*
X174068707Y-55936780D01*
X174134683Y-55956793D01*
X174317092Y-56054293D01*
X174476974Y-56185506D01*
X174608187Y-56345388D01*
X174705687Y-56527797D01*
X174705687Y-56527798D01*
X174765727Y-56725724D01*
X174786000Y-56931560D01*
X174765727Y-57137396D01*
X174725700Y-57269347D01*
X174705687Y-57335323D01*
X174608187Y-57517732D01*
X174476974Y-57677614D01*
X174317092Y-57808827D01*
X174134683Y-57906327D01*
X174068707Y-57926340D01*
X173936756Y-57966367D01*
X173859627Y-57973963D01*
X173782500Y-57981560D01*
X173679340Y-57981560D01*
X173602213Y-57973963D01*
X173525084Y-57966367D01*
X173393133Y-57926340D01*
X173327157Y-57906327D01*
X173144748Y-57808827D01*
X172984866Y-57677614D01*
X172853653Y-57517732D01*
X172756153Y-57335323D01*
X172736140Y-57269347D01*
X172696113Y-57137396D01*
X172675840Y-56931560D01*
X172696113Y-56725724D01*
X172756153Y-56527798D01*
X172756153Y-56527797D01*
X172853653Y-56345388D01*
X172984866Y-56185506D01*
X173144748Y-56054293D01*
X173327157Y-55956793D01*
X173393133Y-55936780D01*
X173525084Y-55896753D01*
X173602213Y-55889156D01*
X173679340Y-55881560D01*
X173782500Y-55881560D01*
X173859627Y-55889156D01*
X173859627Y-55889156D01*
G37*
G36*
X193728707Y-53497597D02*
X193805836Y-53505193D01*
X193937787Y-53545220D01*
X194003763Y-53565233D01*
X194186172Y-53662733D01*
X194346054Y-53793946D01*
X194477267Y-53953828D01*
X194574767Y-54136237D01*
X194574767Y-54136238D01*
X194634807Y-54334164D01*
X194655080Y-54540000D01*
X194634807Y-54745836D01*
X194619795Y-54795323D01*
X194574767Y-54943763D01*
X194477267Y-55126172D01*
X194346054Y-55286054D01*
X194186172Y-55417267D01*
X194003763Y-55514767D01*
X193937787Y-55534780D01*
X193805836Y-55574807D01*
X193728707Y-55582404D01*
X193651580Y-55590000D01*
X193548420Y-55590000D01*
X193471293Y-55582404D01*
X193394164Y-55574807D01*
X193262213Y-55534780D01*
X193196237Y-55514767D01*
X193013828Y-55417267D01*
X192853946Y-55286054D01*
X192722733Y-55126172D01*
X192625233Y-54943763D01*
X192580205Y-54795323D01*
X192565193Y-54745836D01*
X192544920Y-54540000D01*
X192565193Y-54334164D01*
X192625233Y-54136238D01*
X192625233Y-54136237D01*
X192722733Y-53953828D01*
X192853946Y-53793946D01*
X193013828Y-53662733D01*
X193196237Y-53565233D01*
X193262213Y-53545220D01*
X193394164Y-53505193D01*
X193471293Y-53497597D01*
X193548420Y-53490000D01*
X193651580Y-53490000D01*
X193728707Y-53497597D01*
X193728707Y-53497597D01*
G37*
G36*
X173859627Y-53349157D02*
X173936756Y-53356753D01*
X174068707Y-53396780D01*
X174134683Y-53416793D01*
X174317092Y-53514293D01*
X174476974Y-53645506D01*
X174608187Y-53805388D01*
X174705687Y-53987797D01*
X174705687Y-53987798D01*
X174765727Y-54185724D01*
X174786000Y-54391560D01*
X174765727Y-54597396D01*
X174725700Y-54729347D01*
X174705687Y-54795323D01*
X174608187Y-54977732D01*
X174476974Y-55137614D01*
X174317092Y-55268827D01*
X174134683Y-55366327D01*
X174068707Y-55386340D01*
X173936756Y-55426367D01*
X173859627Y-55433964D01*
X173782500Y-55441560D01*
X173679340Y-55441560D01*
X173602213Y-55433964D01*
X173525084Y-55426367D01*
X173393133Y-55386340D01*
X173327157Y-55366327D01*
X173144748Y-55268827D01*
X172984866Y-55137614D01*
X172853653Y-54977732D01*
X172756153Y-54795323D01*
X172736140Y-54729347D01*
X172696113Y-54597396D01*
X172675840Y-54391560D01*
X172696113Y-54185724D01*
X172756153Y-53987798D01*
X172756153Y-53987797D01*
X172853653Y-53805388D01*
X172984866Y-53645506D01*
X173144748Y-53514293D01*
X173327157Y-53416793D01*
X173393133Y-53396780D01*
X173525084Y-53356753D01*
X173602213Y-53349157D01*
X173679340Y-53341560D01*
X173782500Y-53341560D01*
X173859627Y-53349157D01*
X173859627Y-53349157D01*
G37*
G36*
X104489707Y-51686597D02*
X104566836Y-51694193D01*
X104698787Y-51734220D01*
X104764763Y-51754233D01*
X104947172Y-51851733D01*
X105107054Y-51982946D01*
X105238267Y-52142828D01*
X105335767Y-52325237D01*
X105335767Y-52325238D01*
X105395807Y-52523164D01*
X105416080Y-52729000D01*
X105395807Y-52934836D01*
X105383694Y-52974767D01*
X105335767Y-53132763D01*
X105238267Y-53315172D01*
X105107054Y-53475054D01*
X104947172Y-53606267D01*
X104764763Y-53703767D01*
X104698787Y-53723780D01*
X104566836Y-53763807D01*
X104489707Y-53771403D01*
X104412580Y-53779000D01*
X104309420Y-53779000D01*
X104232293Y-53771403D01*
X104155164Y-53763807D01*
X104023213Y-53723780D01*
X103957237Y-53703767D01*
X103774828Y-53606267D01*
X103614946Y-53475054D01*
X103483733Y-53315172D01*
X103386233Y-53132763D01*
X103338306Y-52974767D01*
X103326193Y-52934836D01*
X103305920Y-52729000D01*
X103326193Y-52523164D01*
X103386233Y-52325238D01*
X103386233Y-52325237D01*
X103483733Y-52142828D01*
X103614946Y-51982946D01*
X103774828Y-51851733D01*
X103957237Y-51754233D01*
X104023213Y-51734220D01*
X104155164Y-51694193D01*
X104232293Y-51686596D01*
X104309420Y-51679000D01*
X104412580Y-51679000D01*
X104489707Y-51686597D01*
X104489707Y-51686597D01*
G37*
G36*
X193728707Y-50957596D02*
X193805836Y-50965193D01*
X193937787Y-51005220D01*
X194003763Y-51025233D01*
X194186172Y-51122733D01*
X194346054Y-51253946D01*
X194477267Y-51413828D01*
X194574767Y-51596237D01*
X194574767Y-51596238D01*
X194634807Y-51794164D01*
X194655080Y-52000000D01*
X194634807Y-52205836D01*
X194619795Y-52255323D01*
X194574767Y-52403763D01*
X194477267Y-52586172D01*
X194346054Y-52746054D01*
X194186172Y-52877267D01*
X194003763Y-52974767D01*
X193937787Y-52994780D01*
X193805836Y-53034807D01*
X193728707Y-53042403D01*
X193651580Y-53050000D01*
X193548420Y-53050000D01*
X193471293Y-53042403D01*
X193394164Y-53034807D01*
X193262213Y-52994780D01*
X193196237Y-52974767D01*
X193013828Y-52877267D01*
X192853946Y-52746054D01*
X192722733Y-52586172D01*
X192625233Y-52403763D01*
X192580205Y-52255323D01*
X192565193Y-52205836D01*
X192544920Y-52000000D01*
X192565193Y-51794164D01*
X192625233Y-51596238D01*
X192625233Y-51596237D01*
X192722733Y-51413828D01*
X192853946Y-51253946D01*
X193013828Y-51122733D01*
X193196237Y-51025233D01*
X193262213Y-51005220D01*
X193394164Y-50965193D01*
X193471293Y-50957596D01*
X193548420Y-50950000D01*
X193651580Y-50950000D01*
X193728707Y-50957596D01*
X193728707Y-50957596D01*
G37*
G36*
X173859627Y-50809156D02*
X173936756Y-50816753D01*
X174068707Y-50856780D01*
X174134683Y-50876793D01*
X174317092Y-50974293D01*
X174476974Y-51105506D01*
X174608187Y-51265388D01*
X174705687Y-51447797D01*
X174705687Y-51447798D01*
X174765727Y-51645724D01*
X174786000Y-51851560D01*
X174765727Y-52057396D01*
X174739811Y-52142829D01*
X174705687Y-52255323D01*
X174608187Y-52437732D01*
X174476974Y-52597614D01*
X174317092Y-52728827D01*
X174134683Y-52826327D01*
X174068707Y-52846340D01*
X173936756Y-52886367D01*
X173859627Y-52893963D01*
X173782500Y-52901560D01*
X173679340Y-52901560D01*
X173602213Y-52893963D01*
X173525084Y-52886367D01*
X173393133Y-52846340D01*
X173327157Y-52826327D01*
X173144748Y-52728827D01*
X172984866Y-52597614D01*
X172853653Y-52437732D01*
X172756153Y-52255323D01*
X172722029Y-52142829D01*
X172696113Y-52057396D01*
X172675840Y-51851560D01*
X172696113Y-51645724D01*
X172756153Y-51447798D01*
X172756153Y-51447797D01*
X172853653Y-51265388D01*
X172984866Y-51105506D01*
X173144748Y-50974293D01*
X173327157Y-50876793D01*
X173393133Y-50856780D01*
X173525084Y-50816753D01*
X173602213Y-50809156D01*
X173679340Y-50801560D01*
X173782500Y-50801560D01*
X173859627Y-50809156D01*
X173859627Y-50809156D01*
G37*
G36*
X104489707Y-49146596D02*
X104566836Y-49154193D01*
X104698787Y-49194220D01*
X104764763Y-49214233D01*
X104947172Y-49311733D01*
X105107054Y-49442946D01*
X105238267Y-49602828D01*
X105335767Y-49785237D01*
X105335767Y-49785238D01*
X105395807Y-49983164D01*
X105416080Y-50189000D01*
X105395807Y-50394836D01*
X105383694Y-50434767D01*
X105335767Y-50592763D01*
X105238267Y-50775172D01*
X105107054Y-50935054D01*
X104947172Y-51066267D01*
X104764763Y-51163767D01*
X104698787Y-51183780D01*
X104566836Y-51223807D01*
X104489707Y-51231404D01*
X104412580Y-51239000D01*
X104309420Y-51239000D01*
X104232293Y-51231404D01*
X104155164Y-51223807D01*
X104023213Y-51183780D01*
X103957237Y-51163767D01*
X103774828Y-51066267D01*
X103614946Y-50935054D01*
X103483733Y-50775172D01*
X103386233Y-50592763D01*
X103338306Y-50434767D01*
X103326193Y-50394836D01*
X103305920Y-50189000D01*
X103326193Y-49983164D01*
X103386233Y-49785238D01*
X103386233Y-49785237D01*
X103483733Y-49602828D01*
X103614946Y-49442946D01*
X103774828Y-49311733D01*
X103957237Y-49214233D01*
X104023213Y-49194220D01*
X104155164Y-49154193D01*
X104232293Y-49146597D01*
X104309420Y-49139000D01*
X104412580Y-49139000D01*
X104489707Y-49146596D01*
X104489707Y-49146596D01*
G37*
G36*
X193728707Y-48417596D02*
X193805836Y-48425193D01*
X193937787Y-48465220D01*
X194003763Y-48485233D01*
X194186172Y-48582733D01*
X194346054Y-48713946D01*
X194477267Y-48873828D01*
X194574767Y-49056237D01*
X194574767Y-49056238D01*
X194634807Y-49254164D01*
X194655080Y-49460000D01*
X194634807Y-49665836D01*
X194606494Y-49759171D01*
X194574767Y-49863763D01*
X194477267Y-50046172D01*
X194346054Y-50206054D01*
X194186172Y-50337267D01*
X194003763Y-50434767D01*
X193937787Y-50454780D01*
X193805836Y-50494807D01*
X193728707Y-50502404D01*
X193651580Y-50510000D01*
X193548420Y-50510000D01*
X193471293Y-50502403D01*
X193394164Y-50494807D01*
X193262213Y-50454780D01*
X193196237Y-50434767D01*
X193013828Y-50337267D01*
X192853946Y-50206054D01*
X192722733Y-50046172D01*
X192625233Y-49863763D01*
X192593506Y-49759171D01*
X192565193Y-49665836D01*
X192544920Y-49460000D01*
X192565193Y-49254164D01*
X192625233Y-49056238D01*
X192625233Y-49056237D01*
X192722733Y-48873828D01*
X192853946Y-48713946D01*
X193013828Y-48582733D01*
X193196237Y-48485233D01*
X193262213Y-48465220D01*
X193394164Y-48425193D01*
X193471293Y-48417596D01*
X193548420Y-48410000D01*
X193651580Y-48410000D01*
X193728707Y-48417596D01*
X193728707Y-48417596D01*
G37*
G36*
X77819707Y-48130597D02*
X77896836Y-48138193D01*
X78028787Y-48178220D01*
X78094763Y-48198233D01*
X78277172Y-48295733D01*
X78437054Y-48426946D01*
X78568267Y-48586828D01*
X78665767Y-48769237D01*
X78665767Y-48769238D01*
X78725807Y-48967164D01*
X78746080Y-49173000D01*
X78725807Y-49378836D01*
X78701186Y-49460000D01*
X78665767Y-49576763D01*
X78568267Y-49759172D01*
X78437054Y-49919054D01*
X78277172Y-50050267D01*
X78094763Y-50147767D01*
X78028787Y-50167780D01*
X77896836Y-50207807D01*
X77819707Y-50215403D01*
X77742580Y-50223000D01*
X77639420Y-50223000D01*
X77562293Y-50215404D01*
X77485164Y-50207807D01*
X77353213Y-50167780D01*
X77287237Y-50147767D01*
X77104828Y-50050267D01*
X76944946Y-49919054D01*
X76813733Y-49759172D01*
X76716233Y-49576763D01*
X76680814Y-49460000D01*
X76656193Y-49378836D01*
X76635920Y-49173000D01*
X76656193Y-48967164D01*
X76716233Y-48769238D01*
X76716233Y-48769237D01*
X76813733Y-48586828D01*
X76944946Y-48426946D01*
X77104828Y-48295733D01*
X77287237Y-48198233D01*
X77353213Y-48178220D01*
X77485164Y-48138193D01*
X77562293Y-48130597D01*
X77639420Y-48123000D01*
X77742580Y-48123000D01*
X77819707Y-48130597D01*
X77819707Y-48130597D01*
G37*
G36*
X129775387Y-47237917D02*
X129852516Y-47245513D01*
X129984467Y-47285540D01*
X130050443Y-47305553D01*
X130232852Y-47403053D01*
X130392734Y-47534266D01*
X130523947Y-47694148D01*
X130621447Y-47876557D01*
X130621447Y-47876558D01*
X130681487Y-48074484D01*
X130701760Y-48280320D01*
X130681487Y-48486156D01*
X130650948Y-48586829D01*
X130621447Y-48684083D01*
X130523947Y-48866492D01*
X130392734Y-49026374D01*
X130232852Y-49157587D01*
X130050443Y-49255087D01*
X129984467Y-49275100D01*
X129852516Y-49315127D01*
X129775387Y-49322724D01*
X129698260Y-49330320D01*
X129595100Y-49330320D01*
X129517973Y-49322724D01*
X129440844Y-49315127D01*
X129308893Y-49275100D01*
X129242917Y-49255087D01*
X129060508Y-49157587D01*
X128900626Y-49026374D01*
X128769413Y-48866492D01*
X128671913Y-48684083D01*
X128642412Y-48586829D01*
X128611873Y-48486156D01*
X128591600Y-48280320D01*
X128611873Y-48074484D01*
X128671913Y-47876558D01*
X128671913Y-47876557D01*
X128769413Y-47694148D01*
X128900626Y-47534266D01*
X129060508Y-47403053D01*
X129242917Y-47305553D01*
X129308893Y-47285540D01*
X129440844Y-47245513D01*
X129517973Y-47237916D01*
X129595100Y-47230320D01*
X129698260Y-47230320D01*
X129775387Y-47237917D01*
X129775387Y-47237917D01*
G37*
G36*
X132315387Y-47237917D02*
X132392516Y-47245513D01*
X132524467Y-47285540D01*
X132590443Y-47305553D01*
X132772852Y-47403053D01*
X132932734Y-47534266D01*
X133063947Y-47694148D01*
X133161447Y-47876557D01*
X133161447Y-47876558D01*
X133221487Y-48074484D01*
X133241760Y-48280320D01*
X133221487Y-48486156D01*
X133190948Y-48586829D01*
X133161447Y-48684083D01*
X133063947Y-48866492D01*
X132932734Y-49026374D01*
X132772852Y-49157587D01*
X132590443Y-49255087D01*
X132524467Y-49275100D01*
X132392516Y-49315127D01*
X132315387Y-49322724D01*
X132238260Y-49330320D01*
X132135100Y-49330320D01*
X132057973Y-49322724D01*
X131980844Y-49315127D01*
X131848893Y-49275100D01*
X131782917Y-49255087D01*
X131600508Y-49157587D01*
X131440626Y-49026374D01*
X131309413Y-48866492D01*
X131211913Y-48684083D01*
X131182412Y-48586829D01*
X131151873Y-48486156D01*
X131131600Y-48280320D01*
X131151873Y-48074484D01*
X131211913Y-47876558D01*
X131211913Y-47876557D01*
X131309413Y-47694148D01*
X131440626Y-47534266D01*
X131600508Y-47403053D01*
X131782917Y-47305553D01*
X131848893Y-47285540D01*
X131980844Y-47245513D01*
X132057973Y-47237916D01*
X132135100Y-47230320D01*
X132238260Y-47230320D01*
X132315387Y-47237917D01*
X132315387Y-47237917D01*
G37*
G36*
X134855387Y-47237917D02*
X134932516Y-47245513D01*
X135064467Y-47285540D01*
X135130443Y-47305553D01*
X135312852Y-47403053D01*
X135472734Y-47534266D01*
X135603947Y-47694148D01*
X135701447Y-47876557D01*
X135701447Y-47876558D01*
X135761487Y-48074484D01*
X135781760Y-48280320D01*
X135761487Y-48486156D01*
X135730948Y-48586829D01*
X135701447Y-48684083D01*
X135603947Y-48866492D01*
X135472734Y-49026374D01*
X135312852Y-49157587D01*
X135130443Y-49255087D01*
X135064467Y-49275100D01*
X134932516Y-49315127D01*
X134855387Y-49322724D01*
X134778260Y-49330320D01*
X134675100Y-49330320D01*
X134597973Y-49322724D01*
X134520844Y-49315127D01*
X134388893Y-49275100D01*
X134322917Y-49255087D01*
X134140508Y-49157587D01*
X133980626Y-49026374D01*
X133849413Y-48866492D01*
X133751913Y-48684083D01*
X133722412Y-48586829D01*
X133691873Y-48486156D01*
X133671600Y-48280320D01*
X133691873Y-48074484D01*
X133751913Y-47876558D01*
X133751913Y-47876557D01*
X133849413Y-47694148D01*
X133980626Y-47534266D01*
X134140508Y-47403053D01*
X134322917Y-47305553D01*
X134388893Y-47285540D01*
X134520844Y-47245513D01*
X134597973Y-47237916D01*
X134675100Y-47230320D01*
X134778260Y-47230320D01*
X134855387Y-47237917D01*
X134855387Y-47237917D01*
G37*
G36*
X137395387Y-47237917D02*
X137472516Y-47245513D01*
X137604467Y-47285540D01*
X137670443Y-47305553D01*
X137852852Y-47403053D01*
X138012734Y-47534266D01*
X138143947Y-47694148D01*
X138241447Y-47876557D01*
X138241447Y-47876558D01*
X138301487Y-48074484D01*
X138321760Y-48280320D01*
X138301487Y-48486156D01*
X138270948Y-48586829D01*
X138241447Y-48684083D01*
X138143947Y-48866492D01*
X138012734Y-49026374D01*
X137852852Y-49157587D01*
X137670443Y-49255087D01*
X137604467Y-49275100D01*
X137472516Y-49315127D01*
X137395387Y-49322724D01*
X137318260Y-49330320D01*
X137215100Y-49330320D01*
X137137973Y-49322724D01*
X137060844Y-49315127D01*
X136928893Y-49275100D01*
X136862917Y-49255087D01*
X136680508Y-49157587D01*
X136520626Y-49026374D01*
X136389413Y-48866492D01*
X136291913Y-48684083D01*
X136262412Y-48586829D01*
X136231873Y-48486156D01*
X136211600Y-48280320D01*
X136231873Y-48074484D01*
X136291913Y-47876558D01*
X136291913Y-47876557D01*
X136389413Y-47694148D01*
X136520626Y-47534266D01*
X136680508Y-47403053D01*
X136862917Y-47305553D01*
X136928893Y-47285540D01*
X137060844Y-47245513D01*
X137137973Y-47237916D01*
X137215100Y-47230320D01*
X137318260Y-47230320D01*
X137395387Y-47237917D01*
X137395387Y-47237917D01*
G37*
G36*
X139935387Y-47237917D02*
X140012516Y-47245513D01*
X140144467Y-47285540D01*
X140210443Y-47305553D01*
X140392852Y-47403053D01*
X140552734Y-47534266D01*
X140683947Y-47694148D01*
X140781447Y-47876557D01*
X140781447Y-47876558D01*
X140841487Y-48074484D01*
X140861760Y-48280320D01*
X140841487Y-48486156D01*
X140810948Y-48586829D01*
X140781447Y-48684083D01*
X140683947Y-48866492D01*
X140552734Y-49026374D01*
X140392852Y-49157587D01*
X140210443Y-49255087D01*
X140144467Y-49275100D01*
X140012516Y-49315127D01*
X139935387Y-49322724D01*
X139858260Y-49330320D01*
X139755100Y-49330320D01*
X139677973Y-49322724D01*
X139600844Y-49315127D01*
X139468893Y-49275100D01*
X139402917Y-49255087D01*
X139220508Y-49157587D01*
X139060626Y-49026374D01*
X138929413Y-48866492D01*
X138831913Y-48684083D01*
X138802412Y-48586829D01*
X138771873Y-48486156D01*
X138751600Y-48280320D01*
X138771873Y-48074484D01*
X138831913Y-47876558D01*
X138831913Y-47876557D01*
X138929413Y-47694148D01*
X139060626Y-47534266D01*
X139220508Y-47403053D01*
X139402917Y-47305553D01*
X139468893Y-47285540D01*
X139600844Y-47245513D01*
X139677973Y-47237916D01*
X139755100Y-47230320D01*
X139858260Y-47230320D01*
X139935387Y-47237917D01*
X139935387Y-47237917D01*
G37*
G36*
X145015387Y-47237917D02*
X145092516Y-47245513D01*
X145224467Y-47285540D01*
X145290443Y-47305553D01*
X145472852Y-47403053D01*
X145632734Y-47534266D01*
X145763947Y-47694148D01*
X145861447Y-47876557D01*
X145861447Y-47876558D01*
X145921487Y-48074484D01*
X145941760Y-48280320D01*
X145921487Y-48486156D01*
X145890948Y-48586829D01*
X145861447Y-48684083D01*
X145763947Y-48866492D01*
X145632734Y-49026374D01*
X145472852Y-49157587D01*
X145290443Y-49255087D01*
X145224467Y-49275100D01*
X145092516Y-49315127D01*
X145015387Y-49322724D01*
X144938260Y-49330320D01*
X144835100Y-49330320D01*
X144757973Y-49322724D01*
X144680844Y-49315127D01*
X144548893Y-49275100D01*
X144482917Y-49255087D01*
X144300508Y-49157587D01*
X144140626Y-49026374D01*
X144009413Y-48866492D01*
X143911913Y-48684083D01*
X143882412Y-48586829D01*
X143851873Y-48486156D01*
X143831600Y-48280320D01*
X143851873Y-48074484D01*
X143911913Y-47876558D01*
X143911913Y-47876557D01*
X144009413Y-47694148D01*
X144140626Y-47534266D01*
X144300508Y-47403053D01*
X144482917Y-47305553D01*
X144548893Y-47285540D01*
X144680844Y-47245513D01*
X144757973Y-47237916D01*
X144835100Y-47230320D01*
X144938260Y-47230320D01*
X145015387Y-47237917D01*
X145015387Y-47237917D01*
G37*
G36*
X142475387Y-47237917D02*
X142552516Y-47245513D01*
X142684467Y-47285540D01*
X142750443Y-47305553D01*
X142932852Y-47403053D01*
X143092734Y-47534266D01*
X143223947Y-47694148D01*
X143321447Y-47876557D01*
X143321447Y-47876558D01*
X143381487Y-48074484D01*
X143401760Y-48280320D01*
X143381487Y-48486156D01*
X143350948Y-48586829D01*
X143321447Y-48684083D01*
X143223947Y-48866492D01*
X143092734Y-49026374D01*
X142932852Y-49157587D01*
X142750443Y-49255087D01*
X142684467Y-49275100D01*
X142552516Y-49315127D01*
X142475387Y-49322724D01*
X142398260Y-49330320D01*
X142295100Y-49330320D01*
X142217973Y-49322724D01*
X142140844Y-49315127D01*
X142008893Y-49275100D01*
X141942917Y-49255087D01*
X141760508Y-49157587D01*
X141600626Y-49026374D01*
X141469413Y-48866492D01*
X141371913Y-48684083D01*
X141342412Y-48586829D01*
X141311873Y-48486156D01*
X141291600Y-48280320D01*
X141311873Y-48074484D01*
X141371913Y-47876558D01*
X141371913Y-47876557D01*
X141469413Y-47694148D01*
X141600626Y-47534266D01*
X141760508Y-47403053D01*
X141942917Y-47305553D01*
X142008893Y-47285540D01*
X142140844Y-47245513D01*
X142217973Y-47237916D01*
X142295100Y-47230320D01*
X142398260Y-47230320D01*
X142475387Y-47237917D01*
X142475387Y-47237917D01*
G37*
G36*
X168796680Y-49330320D02*
X166696680Y-49330320D01*
X166696680Y-47230320D01*
X168796680Y-47230320D01*
X168796680Y-49330320D01*
X168796680Y-49330320D01*
G37*
G36*
X162795387Y-47237917D02*
X162872516Y-47245513D01*
X163004467Y-47285540D01*
X163070443Y-47305553D01*
X163252852Y-47403053D01*
X163412734Y-47534266D01*
X163543947Y-47694148D01*
X163641447Y-47876557D01*
X163641447Y-47876558D01*
X163701487Y-48074484D01*
X163721760Y-48280320D01*
X163701487Y-48486156D01*
X163670948Y-48586829D01*
X163641447Y-48684083D01*
X163543947Y-48866492D01*
X163412734Y-49026374D01*
X163252852Y-49157587D01*
X163070443Y-49255087D01*
X163004467Y-49275100D01*
X162872516Y-49315127D01*
X162795387Y-49322724D01*
X162718260Y-49330320D01*
X162615100Y-49330320D01*
X162537973Y-49322724D01*
X162460844Y-49315127D01*
X162328893Y-49275100D01*
X162262917Y-49255087D01*
X162080508Y-49157587D01*
X161920626Y-49026374D01*
X161789413Y-48866492D01*
X161691913Y-48684083D01*
X161662412Y-48586829D01*
X161631873Y-48486156D01*
X161611600Y-48280320D01*
X161631873Y-48074484D01*
X161691913Y-47876558D01*
X161691913Y-47876557D01*
X161789413Y-47694148D01*
X161920626Y-47534266D01*
X162080508Y-47403053D01*
X162262917Y-47305553D01*
X162328893Y-47285540D01*
X162460844Y-47245513D01*
X162537973Y-47237916D01*
X162615100Y-47230320D01*
X162718260Y-47230320D01*
X162795387Y-47237917D01*
X162795387Y-47237917D01*
G37*
G36*
X160255387Y-47237917D02*
X160332516Y-47245513D01*
X160464467Y-47285540D01*
X160530443Y-47305553D01*
X160712852Y-47403053D01*
X160872734Y-47534266D01*
X161003947Y-47694148D01*
X161101447Y-47876557D01*
X161101447Y-47876558D01*
X161161487Y-48074484D01*
X161181760Y-48280320D01*
X161161487Y-48486156D01*
X161130948Y-48586829D01*
X161101447Y-48684083D01*
X161003947Y-48866492D01*
X160872734Y-49026374D01*
X160712852Y-49157587D01*
X160530443Y-49255087D01*
X160464467Y-49275100D01*
X160332516Y-49315127D01*
X160255387Y-49322724D01*
X160178260Y-49330320D01*
X160075100Y-49330320D01*
X159997973Y-49322724D01*
X159920844Y-49315127D01*
X159788893Y-49275100D01*
X159722917Y-49255087D01*
X159540508Y-49157587D01*
X159380626Y-49026374D01*
X159249413Y-48866492D01*
X159151913Y-48684083D01*
X159122412Y-48586829D01*
X159091873Y-48486156D01*
X159071600Y-48280320D01*
X159091873Y-48074484D01*
X159151913Y-47876558D01*
X159151913Y-47876557D01*
X159249413Y-47694148D01*
X159380626Y-47534266D01*
X159540508Y-47403053D01*
X159722917Y-47305553D01*
X159788893Y-47285540D01*
X159920844Y-47245513D01*
X159997973Y-47237916D01*
X160075100Y-47230320D01*
X160178260Y-47230320D01*
X160255387Y-47237917D01*
X160255387Y-47237917D01*
G37*
G36*
X157715387Y-47237917D02*
X157792516Y-47245513D01*
X157924467Y-47285540D01*
X157990443Y-47305553D01*
X158172852Y-47403053D01*
X158332734Y-47534266D01*
X158463947Y-47694148D01*
X158561447Y-47876557D01*
X158561447Y-47876558D01*
X158621487Y-48074484D01*
X158641760Y-48280320D01*
X158621487Y-48486156D01*
X158590948Y-48586829D01*
X158561447Y-48684083D01*
X158463947Y-48866492D01*
X158332734Y-49026374D01*
X158172852Y-49157587D01*
X157990443Y-49255087D01*
X157924467Y-49275100D01*
X157792516Y-49315127D01*
X157715387Y-49322724D01*
X157638260Y-49330320D01*
X157535100Y-49330320D01*
X157457973Y-49322724D01*
X157380844Y-49315127D01*
X157248893Y-49275100D01*
X157182917Y-49255087D01*
X157000508Y-49157587D01*
X156840626Y-49026374D01*
X156709413Y-48866492D01*
X156611913Y-48684083D01*
X156582412Y-48586829D01*
X156551873Y-48486156D01*
X156531600Y-48280320D01*
X156551873Y-48074484D01*
X156611913Y-47876558D01*
X156611913Y-47876557D01*
X156709413Y-47694148D01*
X156840626Y-47534266D01*
X157000508Y-47403053D01*
X157182917Y-47305553D01*
X157248893Y-47285540D01*
X157380844Y-47245513D01*
X157457973Y-47237916D01*
X157535100Y-47230320D01*
X157638260Y-47230320D01*
X157715387Y-47237917D01*
X157715387Y-47237917D01*
G37*
G36*
X155175387Y-47237917D02*
X155252516Y-47245513D01*
X155384467Y-47285540D01*
X155450443Y-47305553D01*
X155632852Y-47403053D01*
X155792734Y-47534266D01*
X155923947Y-47694148D01*
X156021447Y-47876557D01*
X156021447Y-47876558D01*
X156081487Y-48074484D01*
X156101760Y-48280320D01*
X156081487Y-48486156D01*
X156050948Y-48586829D01*
X156021447Y-48684083D01*
X155923947Y-48866492D01*
X155792734Y-49026374D01*
X155632852Y-49157587D01*
X155450443Y-49255087D01*
X155384467Y-49275100D01*
X155252516Y-49315127D01*
X155175387Y-49322724D01*
X155098260Y-49330320D01*
X154995100Y-49330320D01*
X154917973Y-49322724D01*
X154840844Y-49315127D01*
X154708893Y-49275100D01*
X154642917Y-49255087D01*
X154460508Y-49157587D01*
X154300626Y-49026374D01*
X154169413Y-48866492D01*
X154071913Y-48684083D01*
X154042412Y-48586829D01*
X154011873Y-48486156D01*
X153991600Y-48280320D01*
X154011873Y-48074484D01*
X154071913Y-47876558D01*
X154071913Y-47876557D01*
X154169413Y-47694148D01*
X154300626Y-47534266D01*
X154460508Y-47403053D01*
X154642917Y-47305553D01*
X154708893Y-47285540D01*
X154840844Y-47245513D01*
X154917973Y-47237916D01*
X154995100Y-47230320D01*
X155098260Y-47230320D01*
X155175387Y-47237917D01*
X155175387Y-47237917D01*
G37*
G36*
X152635387Y-47237917D02*
X152712516Y-47245513D01*
X152844467Y-47285540D01*
X152910443Y-47305553D01*
X153092852Y-47403053D01*
X153252734Y-47534266D01*
X153383947Y-47694148D01*
X153481447Y-47876557D01*
X153481447Y-47876558D01*
X153541487Y-48074484D01*
X153561760Y-48280320D01*
X153541487Y-48486156D01*
X153510948Y-48586829D01*
X153481447Y-48684083D01*
X153383947Y-48866492D01*
X153252734Y-49026374D01*
X153092852Y-49157587D01*
X152910443Y-49255087D01*
X152844467Y-49275100D01*
X152712516Y-49315127D01*
X152635387Y-49322724D01*
X152558260Y-49330320D01*
X152455100Y-49330320D01*
X152377973Y-49322724D01*
X152300844Y-49315127D01*
X152168893Y-49275100D01*
X152102917Y-49255087D01*
X151920508Y-49157587D01*
X151760626Y-49026374D01*
X151629413Y-48866492D01*
X151531913Y-48684083D01*
X151502412Y-48586829D01*
X151471873Y-48486156D01*
X151451600Y-48280320D01*
X151471873Y-48074484D01*
X151531913Y-47876558D01*
X151531913Y-47876557D01*
X151629413Y-47694148D01*
X151760626Y-47534266D01*
X151920508Y-47403053D01*
X152102917Y-47305553D01*
X152168893Y-47285540D01*
X152300844Y-47245513D01*
X152377973Y-47237916D01*
X152455100Y-47230320D01*
X152558260Y-47230320D01*
X152635387Y-47237917D01*
X152635387Y-47237917D01*
G37*
G36*
X150095387Y-47237917D02*
X150172516Y-47245513D01*
X150304467Y-47285540D01*
X150370443Y-47305553D01*
X150552852Y-47403053D01*
X150712734Y-47534266D01*
X150843947Y-47694148D01*
X150941447Y-47876557D01*
X150941447Y-47876558D01*
X151001487Y-48074484D01*
X151021760Y-48280320D01*
X151001487Y-48486156D01*
X150970948Y-48586829D01*
X150941447Y-48684083D01*
X150843947Y-48866492D01*
X150712734Y-49026374D01*
X150552852Y-49157587D01*
X150370443Y-49255087D01*
X150304467Y-49275100D01*
X150172516Y-49315127D01*
X150095387Y-49322724D01*
X150018260Y-49330320D01*
X149915100Y-49330320D01*
X149837973Y-49322724D01*
X149760844Y-49315127D01*
X149628893Y-49275100D01*
X149562917Y-49255087D01*
X149380508Y-49157587D01*
X149220626Y-49026374D01*
X149089413Y-48866492D01*
X148991913Y-48684083D01*
X148962412Y-48586829D01*
X148931873Y-48486156D01*
X148911600Y-48280320D01*
X148931873Y-48074484D01*
X148991913Y-47876558D01*
X148991913Y-47876557D01*
X149089413Y-47694148D01*
X149220626Y-47534266D01*
X149380508Y-47403053D01*
X149562917Y-47305553D01*
X149628893Y-47285540D01*
X149760844Y-47245513D01*
X149837973Y-47237916D01*
X149915100Y-47230320D01*
X150018260Y-47230320D01*
X150095387Y-47237917D01*
X150095387Y-47237917D01*
G37*
G36*
X147555387Y-47237917D02*
X147632516Y-47245513D01*
X147764467Y-47285540D01*
X147830443Y-47305553D01*
X148012852Y-47403053D01*
X148172734Y-47534266D01*
X148303947Y-47694148D01*
X148401447Y-47876557D01*
X148401447Y-47876558D01*
X148461487Y-48074484D01*
X148481760Y-48280320D01*
X148461487Y-48486156D01*
X148430948Y-48586829D01*
X148401447Y-48684083D01*
X148303947Y-48866492D01*
X148172734Y-49026374D01*
X148012852Y-49157587D01*
X147830443Y-49255087D01*
X147764467Y-49275100D01*
X147632516Y-49315127D01*
X147555387Y-49322724D01*
X147478260Y-49330320D01*
X147375100Y-49330320D01*
X147297973Y-49322724D01*
X147220844Y-49315127D01*
X147088893Y-49275100D01*
X147022917Y-49255087D01*
X146840508Y-49157587D01*
X146680626Y-49026374D01*
X146549413Y-48866492D01*
X146451913Y-48684083D01*
X146422412Y-48586829D01*
X146391873Y-48486156D01*
X146371600Y-48280320D01*
X146391873Y-48074484D01*
X146451913Y-47876558D01*
X146451913Y-47876557D01*
X146549413Y-47694148D01*
X146680626Y-47534266D01*
X146840508Y-47403053D01*
X147022917Y-47305553D01*
X147088893Y-47285540D01*
X147220844Y-47245513D01*
X147297973Y-47237916D01*
X147375100Y-47230320D01*
X147478260Y-47230320D01*
X147555387Y-47237917D01*
X147555387Y-47237917D01*
G37*
G36*
X165335387Y-47237917D02*
X165412516Y-47245513D01*
X165544467Y-47285540D01*
X165610443Y-47305553D01*
X165792852Y-47403053D01*
X165952734Y-47534266D01*
X166083947Y-47694148D01*
X166181447Y-47876557D01*
X166181447Y-47876558D01*
X166241487Y-48074484D01*
X166261760Y-48280320D01*
X166241487Y-48486156D01*
X166210948Y-48586829D01*
X166181447Y-48684083D01*
X166083947Y-48866492D01*
X165952734Y-49026374D01*
X165792852Y-49157587D01*
X165610443Y-49255087D01*
X165544467Y-49275100D01*
X165412516Y-49315127D01*
X165335387Y-49322724D01*
X165258260Y-49330320D01*
X165155100Y-49330320D01*
X165077973Y-49322724D01*
X165000844Y-49315127D01*
X164868893Y-49275100D01*
X164802917Y-49255087D01*
X164620508Y-49157587D01*
X164460626Y-49026374D01*
X164329413Y-48866492D01*
X164231913Y-48684083D01*
X164202412Y-48586829D01*
X164171873Y-48486156D01*
X164151600Y-48280320D01*
X164171873Y-48074484D01*
X164231913Y-47876558D01*
X164231913Y-47876557D01*
X164329413Y-47694148D01*
X164460626Y-47534266D01*
X164620508Y-47403053D01*
X164802917Y-47305553D01*
X164868893Y-47285540D01*
X165000844Y-47245513D01*
X165077973Y-47237916D01*
X165155100Y-47230320D01*
X165258260Y-47230320D01*
X165335387Y-47237917D01*
X165335387Y-47237917D01*
G37*
G36*
X104489707Y-46606596D02*
X104566836Y-46614193D01*
X104698787Y-46654220D01*
X104764763Y-46674233D01*
X104947172Y-46771733D01*
X105107054Y-46902946D01*
X105238267Y-47062828D01*
X105335767Y-47245237D01*
X105354063Y-47305553D01*
X105395807Y-47443164D01*
X105416080Y-47649000D01*
X105395807Y-47854836D01*
X105383694Y-47894767D01*
X105335767Y-48052763D01*
X105238267Y-48235172D01*
X105107054Y-48395054D01*
X104947172Y-48526267D01*
X104764763Y-48623767D01*
X104698787Y-48643780D01*
X104566836Y-48683807D01*
X104489707Y-48691403D01*
X104412580Y-48699000D01*
X104309420Y-48699000D01*
X104232293Y-48691404D01*
X104155164Y-48683807D01*
X104023213Y-48643780D01*
X103957237Y-48623767D01*
X103774828Y-48526267D01*
X103614946Y-48395054D01*
X103483733Y-48235172D01*
X103386233Y-48052763D01*
X103338306Y-47894767D01*
X103326193Y-47854836D01*
X103305920Y-47649000D01*
X103326193Y-47443164D01*
X103367937Y-47305553D01*
X103386233Y-47245237D01*
X103483733Y-47062828D01*
X103614946Y-46902946D01*
X103774828Y-46771733D01*
X103957237Y-46674233D01*
X104023213Y-46654220D01*
X104155164Y-46614193D01*
X104232293Y-46606597D01*
X104309420Y-46599000D01*
X104412580Y-46599000D01*
X104489707Y-46606596D01*
X104489707Y-46606596D01*
G37*
G36*
X193728707Y-45877596D02*
X193805836Y-45885193D01*
X193937787Y-45925220D01*
X194003763Y-45945233D01*
X194186172Y-46042733D01*
X194346054Y-46173946D01*
X194477267Y-46333828D01*
X194574767Y-46516237D01*
X194574767Y-46516238D01*
X194634807Y-46714164D01*
X194655080Y-46920000D01*
X194634807Y-47125836D01*
X194606494Y-47219171D01*
X194574767Y-47323763D01*
X194477267Y-47506172D01*
X194346054Y-47666054D01*
X194186172Y-47797267D01*
X194003763Y-47894767D01*
X193937787Y-47914780D01*
X193805836Y-47954807D01*
X193728707Y-47962403D01*
X193651580Y-47970000D01*
X193548420Y-47970000D01*
X193471293Y-47962403D01*
X193394164Y-47954807D01*
X193262213Y-47914780D01*
X193196237Y-47894767D01*
X193013828Y-47797267D01*
X192853946Y-47666054D01*
X192722733Y-47506172D01*
X192625233Y-47323763D01*
X192593506Y-47219171D01*
X192565193Y-47125836D01*
X192544920Y-46920000D01*
X192565193Y-46714164D01*
X192625233Y-46516238D01*
X192625233Y-46516237D01*
X192722733Y-46333828D01*
X192853946Y-46173946D01*
X193013828Y-46042733D01*
X193196237Y-45945233D01*
X193262213Y-45925220D01*
X193394164Y-45885193D01*
X193471293Y-45877596D01*
X193548420Y-45870000D01*
X193651580Y-45870000D01*
X193728707Y-45877596D01*
X193728707Y-45877596D01*
G37*
G36*
X77819707Y-45590597D02*
X77896836Y-45598193D01*
X78028787Y-45638220D01*
X78094763Y-45658233D01*
X78277172Y-45755733D01*
X78437054Y-45886946D01*
X78568267Y-46046828D01*
X78665767Y-46229237D01*
X78665767Y-46229238D01*
X78725807Y-46427164D01*
X78746080Y-46633000D01*
X78725807Y-46838836D01*
X78701186Y-46920000D01*
X78665767Y-47036763D01*
X78568267Y-47219172D01*
X78437054Y-47379054D01*
X78277172Y-47510267D01*
X78094763Y-47607767D01*
X78028787Y-47627780D01*
X77896836Y-47667807D01*
X77819707Y-47675404D01*
X77742580Y-47683000D01*
X77639420Y-47683000D01*
X77562293Y-47675404D01*
X77485164Y-47667807D01*
X77353213Y-47627780D01*
X77287237Y-47607767D01*
X77104828Y-47510267D01*
X76944946Y-47379054D01*
X76813733Y-47219172D01*
X76716233Y-47036763D01*
X76680814Y-46920000D01*
X76656193Y-46838836D01*
X76635920Y-46633000D01*
X76656193Y-46427164D01*
X76716233Y-46229238D01*
X76716233Y-46229237D01*
X76813733Y-46046828D01*
X76944946Y-45886946D01*
X77104828Y-45755733D01*
X77287237Y-45658233D01*
X77353213Y-45638220D01*
X77485164Y-45598193D01*
X77562293Y-45590597D01*
X77639420Y-45583000D01*
X77742580Y-45583000D01*
X77819707Y-45590597D01*
X77819707Y-45590597D01*
G37*
G36*
X104489707Y-44066596D02*
X104566836Y-44074193D01*
X104698787Y-44114220D01*
X104764763Y-44134233D01*
X104947172Y-44231733D01*
X105107054Y-44362946D01*
X105238267Y-44522828D01*
X105335767Y-44705237D01*
X105335767Y-44705238D01*
X105395807Y-44903164D01*
X105416080Y-45109000D01*
X105395807Y-45314836D01*
X105383694Y-45354767D01*
X105335767Y-45512763D01*
X105238267Y-45695172D01*
X105107054Y-45855054D01*
X104947172Y-45986267D01*
X104764763Y-46083767D01*
X104698787Y-46103780D01*
X104566836Y-46143807D01*
X104489707Y-46151404D01*
X104412580Y-46159000D01*
X104309420Y-46159000D01*
X104232293Y-46151404D01*
X104155164Y-46143807D01*
X104023213Y-46103780D01*
X103957237Y-46083767D01*
X103774828Y-45986267D01*
X103614946Y-45855054D01*
X103483733Y-45695172D01*
X103386233Y-45512763D01*
X103338306Y-45354767D01*
X103326193Y-45314836D01*
X103305920Y-45109000D01*
X103326193Y-44903164D01*
X103386233Y-44705238D01*
X103386233Y-44705237D01*
X103483733Y-44522828D01*
X103614946Y-44362946D01*
X103774828Y-44231733D01*
X103957237Y-44134233D01*
X104023213Y-44114220D01*
X104155164Y-44074193D01*
X104232293Y-44066597D01*
X104309420Y-44059000D01*
X104412580Y-44059000D01*
X104489707Y-44066596D01*
X104489707Y-44066596D01*
G37*
G36*
X193728707Y-43337596D02*
X193805836Y-43345193D01*
X193937787Y-43385220D01*
X194003763Y-43405233D01*
X194186172Y-43502733D01*
X194346054Y-43633946D01*
X194477267Y-43793828D01*
X194574767Y-43976237D01*
X194574767Y-43976238D01*
X194634807Y-44174164D01*
X194655080Y-44380000D01*
X194634807Y-44585836D01*
X194598587Y-44705237D01*
X194574767Y-44783763D01*
X194477267Y-44966172D01*
X194346054Y-45126054D01*
X194186172Y-45257267D01*
X194003763Y-45354767D01*
X193937787Y-45374780D01*
X193805836Y-45414807D01*
X193728707Y-45422403D01*
X193651580Y-45430000D01*
X193548420Y-45430000D01*
X193471293Y-45422403D01*
X193394164Y-45414807D01*
X193262213Y-45374780D01*
X193196237Y-45354767D01*
X193013828Y-45257267D01*
X192853946Y-45126054D01*
X192722733Y-44966172D01*
X192625233Y-44783763D01*
X192601413Y-44705237D01*
X192565193Y-44585836D01*
X192544920Y-44380000D01*
X192565193Y-44174164D01*
X192625233Y-43976238D01*
X192625233Y-43976237D01*
X192722733Y-43793828D01*
X192853946Y-43633946D01*
X193013828Y-43502733D01*
X193196237Y-43405233D01*
X193262213Y-43385220D01*
X193394164Y-43345193D01*
X193471293Y-43337597D01*
X193548420Y-43330000D01*
X193651580Y-43330000D01*
X193728707Y-43337596D01*
X193728707Y-43337596D01*
G37*
G36*
X78741000Y-45143000D02*
X76641000Y-45143000D01*
X76641000Y-43043000D01*
X78741000Y-43043000D01*
X78741000Y-45143000D01*
X78741000Y-45143000D01*
G37*
G36*
X104489707Y-41526597D02*
X104566836Y-41534193D01*
X104698787Y-41574220D01*
X104764763Y-41594233D01*
X104947172Y-41691733D01*
X105107054Y-41822946D01*
X105238267Y-41982828D01*
X105335767Y-42165237D01*
X105335767Y-42165238D01*
X105395807Y-42363164D01*
X105416080Y-42569000D01*
X105395807Y-42774836D01*
X105360872Y-42890000D01*
X105335767Y-42972763D01*
X105238267Y-43155172D01*
X105107054Y-43315054D01*
X104947172Y-43446267D01*
X104764763Y-43543767D01*
X104698787Y-43563780D01*
X104566836Y-43603807D01*
X104489707Y-43611403D01*
X104412580Y-43619000D01*
X104309420Y-43619000D01*
X104232293Y-43611403D01*
X104155164Y-43603807D01*
X104023213Y-43563780D01*
X103957237Y-43543767D01*
X103774828Y-43446267D01*
X103614946Y-43315054D01*
X103483733Y-43155172D01*
X103386233Y-42972763D01*
X103361128Y-42890000D01*
X103326193Y-42774836D01*
X103305920Y-42569000D01*
X103326193Y-42363164D01*
X103386233Y-42165238D01*
X103386233Y-42165237D01*
X103483733Y-41982828D01*
X103614946Y-41822946D01*
X103774828Y-41691733D01*
X103957237Y-41594233D01*
X104023213Y-41574220D01*
X104155164Y-41534193D01*
X104232293Y-41526597D01*
X104309420Y-41519000D01*
X104412580Y-41519000D01*
X104489707Y-41526597D01*
X104489707Y-41526597D01*
G37*
G36*
X194650000Y-42890000D02*
X192550000Y-42890000D01*
X192550000Y-40790000D01*
X194650000Y-40790000D01*
X194650000Y-42890000D01*
X194650000Y-42890000D01*
G37*
G36*
X105411000Y-41079000D02*
X103311000Y-41079000D01*
X103311000Y-38979000D01*
X105411000Y-38979000D01*
X105411000Y-41079000D01*
X105411000Y-41079000D01*
G37*
G36*
X203917323Y-35340060D02*
X204156521Y-35387639D01*
X204456947Y-35512080D01*
X204727324Y-35692740D01*
X204957260Y-35922676D01*
X205137920Y-36193053D01*
X205262361Y-36493479D01*
X205309940Y-36732677D01*
X205315891Y-36762591D01*
X205325800Y-36812410D01*
X205325800Y-37137590D01*
X205262361Y-37456521D01*
X205137920Y-37756947D01*
X204957260Y-38027324D01*
X204727324Y-38257260D01*
X204456947Y-38437920D01*
X204156521Y-38562361D01*
X203917323Y-38609940D01*
X203837591Y-38625800D01*
X203512409Y-38625800D01*
X203432677Y-38609940D01*
X203193479Y-38562361D01*
X202893053Y-38437920D01*
X202622676Y-38257260D01*
X202392740Y-38027324D01*
X202212080Y-37756947D01*
X202087639Y-37456521D01*
X202024200Y-37137590D01*
X202024200Y-36812410D01*
X202034110Y-36762591D01*
X202040060Y-36732677D01*
X202087639Y-36493479D01*
X202212080Y-36193053D01*
X202392740Y-35922676D01*
X202622676Y-35692740D01*
X202893053Y-35512080D01*
X203193479Y-35387639D01*
X203432677Y-35340060D01*
X203512409Y-35324200D01*
X203837591Y-35324200D01*
X203917323Y-35340060D01*
X203917323Y-35340060D01*
G37*
G36*
X113992323Y-34965060D02*
X114231521Y-35012639D01*
X114531947Y-35137080D01*
X114802324Y-35317740D01*
X115032260Y-35547676D01*
X115212920Y-35818053D01*
X115337361Y-36118479D01*
X115384940Y-36357677D01*
X115400800Y-36437409D01*
X115400800Y-36762591D01*
X115390890Y-36812410D01*
X115337361Y-37081521D01*
X115212920Y-37381947D01*
X115032260Y-37652324D01*
X114802324Y-37882260D01*
X114531947Y-38062920D01*
X114231521Y-38187361D01*
X113992323Y-38234940D01*
X113912591Y-38250800D01*
X113587409Y-38250800D01*
X113507677Y-38234940D01*
X113268479Y-38187361D01*
X112968053Y-38062920D01*
X112697676Y-37882260D01*
X112467740Y-37652324D01*
X112287080Y-37381947D01*
X112162639Y-37081521D01*
X112109110Y-36812410D01*
X112099200Y-36762591D01*
X112099200Y-36437409D01*
X112115060Y-36357677D01*
X112162639Y-36118479D01*
X112287080Y-35818053D01*
X112467740Y-35547676D01*
X112697676Y-35317740D01*
X112968053Y-35137080D01*
X113268479Y-35012639D01*
X113507677Y-34965060D01*
X113587409Y-34949200D01*
X113912591Y-34949200D01*
X113992323Y-34965060D01*
X113992323Y-34965060D01*
G37*
G36*
X75442323Y-34965060D02*
X75681521Y-35012639D01*
X75981947Y-35137080D01*
X76252324Y-35317740D01*
X76482260Y-35547676D01*
X76662920Y-35818053D01*
X76787361Y-36118479D01*
X76834940Y-36357677D01*
X76850800Y-36437409D01*
X76850800Y-36762591D01*
X76840890Y-36812410D01*
X76787361Y-37081521D01*
X76662920Y-37381947D01*
X76482260Y-37652324D01*
X76252324Y-37882260D01*
X75981947Y-38062920D01*
X75681521Y-38187361D01*
X75442323Y-38234940D01*
X75362591Y-38250800D01*
X75037409Y-38250800D01*
X74957677Y-38234940D01*
X74718479Y-38187361D01*
X74418053Y-38062920D01*
X74147676Y-37882260D01*
X73917740Y-37652324D01*
X73737080Y-37381947D01*
X73612639Y-37081521D01*
X73559110Y-36812410D01*
X73549200Y-36762591D01*
X73549200Y-36437409D01*
X73565060Y-36357677D01*
X73612639Y-36118479D01*
X73737080Y-35818053D01*
X73917740Y-35547676D01*
X74147676Y-35317740D01*
X74418053Y-35137080D01*
X74718479Y-35012639D01*
X74957677Y-34965060D01*
X75037409Y-34949200D01*
X75362591Y-34949200D01*
X75442323Y-34965060D01*
X75442323Y-34965060D01*
G37*
G36*
X178292323Y-34965060D02*
X178531521Y-35012639D01*
X178831947Y-35137080D01*
X179102324Y-35317740D01*
X179332260Y-35547676D01*
X179512920Y-35818053D01*
X179637361Y-36118479D01*
X179684940Y-36357677D01*
X179700800Y-36437409D01*
X179700800Y-36762591D01*
X179690890Y-36812410D01*
X179637361Y-37081521D01*
X179512920Y-37381947D01*
X179332260Y-37652324D01*
X179102324Y-37882260D01*
X178831947Y-38062920D01*
X178531521Y-38187361D01*
X178292323Y-38234940D01*
X178212591Y-38250800D01*
X177887409Y-38250800D01*
X177807677Y-38234940D01*
X177568479Y-38187361D01*
X177268053Y-38062920D01*
X176997676Y-37882260D01*
X176767740Y-37652324D01*
X176587080Y-37381947D01*
X176462639Y-37081521D01*
X176409110Y-36812410D01*
X176399200Y-36762591D01*
X176399200Y-36437409D01*
X176415060Y-36357677D01*
X176462639Y-36118479D01*
X176587080Y-35818053D01*
X176767740Y-35547676D01*
X176997676Y-35317740D01*
X177268053Y-35137080D01*
X177568479Y-35012639D01*
X177807677Y-34965060D01*
X177887409Y-34949200D01*
X178212591Y-34949200D01*
X178292323Y-34965060D01*
X178292323Y-34965060D01*
G37*
M02*
