M48
;DRILL file {KiCad 5.0.1-33cea8e~68~ubuntu16.04.1} date Fri 26 Oct 2018 03:49:10 AM PDT
;FORMAT={-:-/ absolute / metric / decimal}
FMAT,2
METRIC,TZ
T1C0.400
T2C0.500
T3C1.000
T4C1.020
T5C2.500
%
G90
G05
M71
T1
X83.152Y-46.633
X83.152Y-56.793
X88.867Y-50.189
X89.629Y-52.729
X90.518Y-51.713
X91.534Y-48.919
X92.423Y-43.839
X93.439Y-48.411
X99.772Y-121.555
X124.205Y-125.11
X125.75Y-64.25
X126.955Y-126.545
X128.4Y-64.425
X128.505Y-117.945
X128.505Y-124.295
X131.2Y-76.475
X132.45Y-76.5
X133.8Y-76.5
X134.457Y-63.231
X134.475Y-65.975
X134.534Y-77.425
X135.4Y-78.3
X138.125Y-80.225
X138.25Y-74.9
X139.225Y-74.15
X139.875Y-85.1
X140.675Y-73.325
X142.3Y-73.175
X143.3Y-72.65
X143.61Y-69.843
X144.35Y-61.55
X144.839Y-63.938
X144.912Y-52.398
X145.425Y-85.5
X145.625Y-84.275
X146.25Y-83.
X146.875Y-85.65
X147.05Y-73.725
X147.447Y-52.398
X147.725Y-65.525
X147.725Y-82.225
X147.838Y-69.545
X148.516Y-64.907
X148.85Y-82.2
X149.734Y-88.203
X150.115Y-82.613
X150.385Y-81.65
X150.58Y-88.736
X151.507Y-89.112
X152.459Y-89.417
X153.136Y-122.936
X153.136Y-130.302
X154.31Y-65.991
X154.341Y-82.078
X154.366Y-78.186
X154.575Y-64.7
X154.998Y-63.527
X155.25Y-62.25
X156.403Y-58.13
X156.632Y-79.51
X157.2Y-125.222
X157.2Y-128.524
X158.14Y-79.179
X158.575Y-59.025
X159.008Y-78.235
X159.411Y-77.32
X160.554Y-76.287
X161.01Y-110.744
X161.325Y-62.15
X162.151Y-61.362
X162.367Y-67.437
X162.837Y-60.634
X163.57Y-59.833
X164.275Y-59.05
X164.559Y-65.303
X164.63Y-67.337
X165.201Y-64.536
X165.328Y-116.078
X165.836Y-121.666
X165.894Y-63.807
X166.525Y-63.031
X166.852Y-106.68
X166.852Y-117.094
X167.275Y-62.15
X168.122Y-123.444
X168.63Y-118.11
X170.408Y-127.
X171.424Y-116.078
X172.186Y-119.634
X172.44Y-121.666
X172.44Y-122.682
X172.44Y-123.698
X172.948Y-118.11
X173.202Y-125.476
X173.964Y-126.238
X174.472Y-119.634
X174.472Y-120.65
X175.488Y-119.38
X177.012Y-119.126
X178.028Y-117.094
X178.028Y-119.126
X179.044Y-128.524
X179.298Y-129.794
X181.584Y-122.682
X183.339Y-109.497
X183.339Y-127.739
X193.036Y-94.614
X195.091Y-97.352
X197.3Y-55.875
X197.4Y-53.775
X198.475Y-58.125
X199.008Y-83.611
X199.925Y-42.7
X200.146Y-92.287
X200.532Y-97.324
X201.25Y-51.7
X202.675Y-55.875
X204.275Y-102.925
X204.674Y-96.461
X204.771Y-106.598
X205.175Y-55.525
X205.2Y-68.125
T2
X78.428Y-99.973
X79.317Y-97.115
X79.444Y-94.067
X80.46Y-95.21
X80.587Y-102.322
X81.095Y-89.876
X81.222Y-104.608
X81.984Y-95.21
X83.Y-104.735
X83.254Y-94.131
X85.794Y-91.146
X86.747Y-93.623
X86.81Y-104.735
X86.937Y-101.322
X87.191Y-96.861
X87.572Y-106.64
X88.35Y-99.528
X88.715Y-94.575
X88.715Y-103.322
X89.715Y-105.354
X90.366Y-101.56
X90.747Y-91.781
X91.017Y-97.861
X91.382Y-107.148
X91.509Y-103.989
X92.668Y-95.575
X93.414Y-102.576
X93.795Y-97.623
X94.208Y-105.116
X94.684Y-93.178
X94.811Y-109.434
X95.319Y-103.465
X95.954Y-106.894
X96.018Y-110.387
X96.208Y-94.956
X96.335Y-97.877
X96.462Y-100.417
X96.843Y-103.719
X97.478Y-90.892
X97.605Y-87.209
X97.732Y-108.037
X98.812Y-110.387
X99.002Y-98.004
X99.002Y-99.655
X99.129Y-94.194
X99.129Y-95.972
X103.193Y-87.209
X103.193Y-106.005
X104.717Y-90.13
T3
X193.6Y-41.84
X193.6Y-44.38
X193.6Y-46.92
X193.6Y-49.46
X193.6Y-52.
X193.6Y-54.54
X193.6Y-57.08
X193.6Y-59.62
X193.476Y-101.208
X193.476Y-103.748
X193.476Y-106.288
X197.123Y-103.217
X199.663Y-103.217
X149.073Y-107.439
X149.073Y-109.979
X149.073Y-112.519
X149.073Y-115.059
X149.073Y-117.599
X149.073Y-120.139
X149.073Y-122.679
X149.073Y-125.219
X149.073Y-127.759
X107.071Y-57.969
X107.071Y-60.509
X107.071Y-63.049
X107.071Y-65.589
X107.071Y-68.129
X107.071Y-70.669
X107.071Y-73.209
X107.071Y-75.749
X107.071Y-78.289
X107.071Y-80.829
X107.071Y-83.369
X108.662Y-113.935
X108.662Y-116.475
X108.662Y-119.015
X108.662Y-121.555
X108.662Y-124.095
X108.662Y-126.635
X108.4Y-88.733
X108.4Y-91.273
X108.4Y-93.813
X108.4Y-96.353
X108.4Y-98.893
X108.4Y-101.433
X108.4Y-103.973
X108.4Y-106.513
X108.4Y-109.053
X129.647Y-48.28
X132.187Y-48.28
X134.727Y-48.28
X137.267Y-48.28
X139.807Y-48.28
X142.347Y-48.28
X144.887Y-48.28
X147.427Y-48.28
X149.967Y-48.28
X152.507Y-48.28
X155.047Y-48.28
X157.587Y-48.28
X160.127Y-48.28
X162.667Y-48.28
X165.207Y-48.28
X167.747Y-48.28
X129.454Y-93.502
X131.994Y-93.502
X134.534Y-93.502
X137.074Y-93.502
X139.614Y-93.502
X142.154Y-93.502
X144.694Y-93.502
X147.234Y-93.502
X149.774Y-93.502
X152.314Y-93.502
X154.854Y-93.502
X157.394Y-93.502
X159.934Y-93.502
X162.474Y-93.502
X165.014Y-93.502
X167.554Y-93.502
X130.725Y-117.895
X130.725Y-120.435
X130.725Y-122.975
X130.725Y-125.515
X130.725Y-128.055
X118.364Y-60.503
X118.364Y-63.043
X118.364Y-65.583
X118.364Y-68.123
X118.364Y-70.663
X118.364Y-73.203
X118.364Y-75.743
X118.364Y-78.283
X118.364Y-80.823
X118.364Y-83.363
X120.904Y-60.503
X120.904Y-63.043
X120.904Y-65.583
X120.904Y-68.123
X120.904Y-70.663
X120.904Y-73.203
X120.904Y-75.743
X120.904Y-78.283
X120.904Y-80.823
X120.904Y-83.363
X193.722Y-84.863
X193.722Y-87.403
X118.466Y-93.487
X121.006Y-93.487
X193.6Y-63.21
X193.6Y-65.75
X173.731Y-51.852
X173.731Y-54.392
X173.731Y-56.932
X173.731Y-59.472
X173.731Y-62.012
X173.731Y-64.552
X173.731Y-67.092
X173.731Y-69.632
X173.731Y-72.172
X173.731Y-74.712
X173.731Y-77.252
X173.731Y-79.792
X173.731Y-82.332
X173.731Y-84.872
X173.731Y-87.412
X173.731Y-89.952
X193.6Y-69.4
X196.14Y-69.4
X198.68Y-69.4
X201.22Y-69.4
X170.408Y-109.474
X170.408Y-112.014
X78.182Y-121.555
X78.182Y-124.095
X77.691Y-44.093
X77.691Y-46.633
X77.691Y-49.173
X191.944Y-129.573
X194.484Y-129.573
X104.361Y-40.029
X104.361Y-42.569
X104.361Y-45.109
X104.361Y-47.649
X104.361Y-50.189
X104.361Y-52.729
X193.549Y-80.728
X196.089Y-80.728
X198.629Y-80.728
X201.169Y-80.728
X203.709Y-80.728
T4
X190.284Y-114.173
X192.824Y-114.173
X195.364Y-114.173
X197.904Y-114.173
T5
X75.2Y-36.6
X204.1Y-130.075
X75.075Y-80.525
X177.675Y-102.125
X203.675Y-36.975
X203.775Y-74.675
X75.3Y-129.875
X78.682Y-109.053
X78.682Y-88.733
X178.05Y-36.6
X113.775Y-129.725
X113.75Y-36.6
T0
M30
