G04 #@! TF.GenerationSoftware,KiCad,Pcbnew,5.0.1-33cea8e~68~ubuntu16.04.1*
G04 #@! TF.CreationDate,2018-10-26T03:49:13-07:00*
G04 #@! TF.ProjectId,integrated-board,696E74656772617465642D626F617264,rev?*
G04 #@! TF.SameCoordinates,Original*
G04 #@! TF.FileFunction,Copper,L3,Inr,Plane*
G04 #@! TF.FilePolarity,Positive*
%FSLAX46Y46*%
G04 Gerber Fmt 4.6, Leading zero omitted, Abs format (unit mm)*
G04 Created by KiCad (PCBNEW 5.0.1-33cea8e~68~ubuntu16.04.1) date Fri 26 Oct 2018 03:49:13 AM PDT*
%MOMM*%
%LPD*%
G01*
G04 APERTURE LIST*
G04 #@! TA.AperFunction,ViaPad*
%ADD10R,1.730000X2.030000*%
G04 #@! TD*
G04 #@! TA.AperFunction,ViaPad*
%ADD11O,1.730000X2.030000*%
G04 #@! TD*
G04 #@! TA.AperFunction,ViaPad*
%ADD12C,3.200000*%
G04 #@! TD*
G04 #@! TA.AperFunction,ViaPad*
%ADD13R,1.700000X1.700000*%
G04 #@! TD*
G04 #@! TA.AperFunction,ViaPad*
%ADD14O,1.700000X1.700000*%
G04 #@! TD*
G04 #@! TA.AperFunction,WasherPad*
%ADD15C,1.350000*%
G04 #@! TD*
G04 #@! TA.AperFunction,WasherPad*
%ADD16C,1.600000*%
G04 #@! TD*
G04 #@! TA.AperFunction,WasherPad*
%ADD17C,2.500000*%
G04 #@! TD*
G04 #@! TA.AperFunction,ViaPad*
%ADD18C,1.778000*%
G04 #@! TD*
G04 #@! TA.AperFunction,ViaPad*
%ADD19C,0.800000*%
G04 #@! TD*
G04 #@! TA.AperFunction,ViaPad*
%ADD20C,0.906400*%
G04 #@! TD*
G04 #@! TA.AperFunction,Conductor*
%ADD21C,0.254000*%
G04 #@! TD*
G04 APERTURE END LIST*
D10*
G04 #@! TO.N,/CSB*
G04 #@! TO.C,*
X197904203Y-114173068D03*
D11*
G04 #@! TO.N,/SDO*
X195364203Y-114173068D03*
G04 #@! TO.N,/SDI*
X192824203Y-114173068D03*
G04 #@! TO.N,/SCLK*
X190284203Y-114173068D03*
G04 #@! TD*
D12*
G04 #@! TO.N,N/C*
G04 #@! TO.C,U$8*
X75300000Y-129875000D03*
G04 #@! TD*
G04 #@! TO.N,N/C*
G04 #@! TO.C,U$8*
X75075000Y-80525000D03*
G04 #@! TD*
G04 #@! TO.N,N/C*
G04 #@! TO.C,U$8*
X178050000Y-36600000D03*
G04 #@! TD*
G04 #@! TO.N,N/C*
G04 #@! TO.C,U$8*
X113750000Y-36600000D03*
G04 #@! TD*
G04 #@! TO.N,N/C*
G04 #@! TO.C,U$8*
X113775000Y-129725000D03*
G04 #@! TD*
G04 #@! TO.N,N/C*
G04 #@! TO.C,U$8*
X203775000Y-74675000D03*
G04 #@! TD*
G04 #@! TO.N,N/C*
G04 #@! TO.C,U$9*
X177675000Y-102125000D03*
G04 #@! TD*
G04 #@! TO.N,N/C*
G04 #@! TO.C,U$9*
X75200000Y-36600000D03*
G04 #@! TD*
G04 #@! TO.N,N/C*
G04 #@! TO.C,U$9*
X203675000Y-36975000D03*
G04 #@! TD*
G04 #@! TO.N,N/C*
G04 #@! TO.C,U$8*
X204100000Y-130075000D03*
G04 #@! TD*
D13*
G04 #@! TO.N,+3V3*
G04 #@! TO.C,J1*
X120904000Y-83362800D03*
D14*
X118364000Y-83362800D03*
G04 #@! TO.N,PB4*
X120904000Y-80822800D03*
G04 #@! TO.N,GND*
X118364000Y-80822800D03*
G04 #@! TO.N,PA15*
X120904000Y-78282800D03*
G04 #@! TO.N,GND*
X118364000Y-78282800D03*
G04 #@! TO.N,PA13*
X120904000Y-75742800D03*
G04 #@! TO.N,GND*
X118364000Y-75742800D03*
G04 #@! TO.N,PA14*
X120904000Y-73202800D03*
G04 #@! TO.N,GND*
X118364000Y-73202800D03*
G04 #@! TO.N,Net-(10k1-Pad2)*
X120904000Y-70662800D03*
G04 #@! TO.N,GND*
X118364000Y-70662800D03*
G04 #@! TO.N,PB3*
X120904000Y-68122800D03*
G04 #@! TO.N,GND*
X118364000Y-68122800D03*
G04 #@! TO.N,RST*
X120904000Y-65582800D03*
G04 #@! TO.N,GND*
X118364000Y-65582800D03*
G04 #@! TO.N,Net-(10k3-Pad2)*
X120904000Y-63042800D03*
G04 #@! TO.N,GND*
X118364000Y-63042800D03*
G04 #@! TO.N,Net-(10k2-Pad2)*
X120904000Y-60502800D03*
G04 #@! TO.N,GND*
X118364000Y-60502800D03*
G04 #@! TD*
D13*
G04 #@! TO.N,PA0*
G04 #@! TO.C,J3*
X173730920Y-89951560D03*
D14*
G04 #@! TO.N,PA1*
X173730920Y-87411560D03*
G04 #@! TO.N,PA2*
X173730920Y-84871560D03*
G04 #@! TO.N,PA3*
X173730920Y-82331560D03*
G04 #@! TO.N,PA4*
X173730920Y-79791560D03*
G04 #@! TO.N,PA5*
X173730920Y-77251560D03*
G04 #@! TO.N,PA6*
X173730920Y-74711560D03*
G04 #@! TO.N,PA7*
X173730920Y-72171560D03*
G04 #@! TO.N,PA8*
X173730920Y-69631560D03*
G04 #@! TO.N,PA9*
X173730920Y-67091560D03*
G04 #@! TO.N,PA10*
X173730920Y-64551560D03*
G04 #@! TO.N,PA11*
X173730920Y-62011560D03*
G04 #@! TO.N,PA12*
X173730920Y-59471560D03*
G04 #@! TO.N,PA13*
X173730920Y-56931560D03*
G04 #@! TO.N,PA14*
X173730920Y-54391560D03*
G04 #@! TO.N,PA15*
X173730920Y-51851560D03*
G04 #@! TD*
D13*
G04 #@! TO.N,PB0*
G04 #@! TO.C,J4*
X167746680Y-48280320D03*
D14*
G04 #@! TO.N,PB1*
X165206680Y-48280320D03*
G04 #@! TO.N,PB2*
X162666680Y-48280320D03*
G04 #@! TO.N,PB3*
X160126680Y-48280320D03*
G04 #@! TO.N,PB4*
X157586680Y-48280320D03*
G04 #@! TO.N,PB5*
X155046680Y-48280320D03*
G04 #@! TO.N,PB6*
X152506680Y-48280320D03*
G04 #@! TO.N,PB7*
X149966680Y-48280320D03*
G04 #@! TO.N,PB8*
X147426680Y-48280320D03*
G04 #@! TO.N,PB9*
X144886680Y-48280320D03*
G04 #@! TO.N,PB10*
X142346680Y-48280320D03*
G04 #@! TO.N,PB11*
X139806680Y-48280320D03*
G04 #@! TO.N,PB12*
X137266680Y-48280320D03*
G04 #@! TO.N,PB13*
X134726680Y-48280320D03*
G04 #@! TO.N,PB14*
X132186680Y-48280320D03*
G04 #@! TO.N,PB15*
X129646680Y-48280320D03*
G04 #@! TD*
D13*
G04 #@! TO.N,PC0*
G04 #@! TO.C,J5*
X129453640Y-93502480D03*
D14*
G04 #@! TO.N,PC1*
X131993640Y-93502480D03*
G04 #@! TO.N,PC2*
X134533640Y-93502480D03*
G04 #@! TO.N,PC3*
X137073640Y-93502480D03*
G04 #@! TO.N,PC4*
X139613640Y-93502480D03*
G04 #@! TO.N,PC5*
X142153640Y-93502480D03*
G04 #@! TO.N,PC6*
X144693640Y-93502480D03*
G04 #@! TO.N,PC7*
X147233640Y-93502480D03*
G04 #@! TO.N,PC8*
X149773640Y-93502480D03*
G04 #@! TO.N,PC9*
X152313640Y-93502480D03*
G04 #@! TO.N,PC10*
X154853640Y-93502480D03*
G04 #@! TO.N,PC11*
X157393640Y-93502480D03*
G04 #@! TO.N,PC12*
X159933640Y-93502480D03*
G04 #@! TO.N,PC13*
X162473640Y-93502480D03*
G04 #@! TO.N,Net-(J5-Pad15)*
X165013640Y-93502480D03*
G04 #@! TO.N,PD2*
X167553640Y-93502480D03*
G04 #@! TD*
D13*
G04 #@! TO.N,GND*
G04 #@! TO.C,J6*
X118465600Y-93487240D03*
D14*
G04 #@! TO.N,+3V3*
X121005600Y-93487240D03*
G04 #@! TD*
D13*
G04 #@! TO.N,Net-(J2-Pad1)*
G04 #@! TO.C,J9*
X107071480Y-57969400D03*
D14*
G04 #@! TO.N,Net-(J2-Pad2)*
X107071480Y-60509400D03*
G04 #@! TO.N,Net-(J2-Pad3)*
X107071480Y-63049400D03*
G04 #@! TO.N,Net-(J2-Pad4)*
X107071480Y-65589400D03*
G04 #@! TO.N,Net-(J2-Pad5)*
X107071480Y-68129400D03*
G04 #@! TO.N,Net-(J2-Pad6)*
X107071480Y-70669400D03*
G04 #@! TO.N,Net-(J2-Pad7)*
X107071480Y-73209400D03*
G04 #@! TO.N,Net-(J2-Pad8)*
X107071480Y-75749400D03*
G04 #@! TO.N,Net-(J2-Pad10)*
X107071480Y-78289400D03*
G04 #@! TO.N,Net-(J2-Pad9)*
X107071480Y-80829400D03*
G04 #@! TO.N,Net-(J2-Pad11)*
X107071480Y-83369400D03*
G04 #@! TD*
D13*
G04 #@! TO.N,Net-(C16-Pad2)*
G04 #@! TO.C,J10*
X193722020Y-87402940D03*
D14*
G04 #@! TO.N,Net-(C21-Pad1)*
X193722020Y-84862940D03*
G04 #@! TD*
D13*
G04 #@! TO.N,Net-(C16-Pad1)*
G04 #@! TO.C,J7*
X199663080Y-103216980D03*
D14*
G04 #@! TO.N,Net-(C16-Pad2)*
X197123080Y-103216980D03*
G04 #@! TD*
D13*
G04 #@! TO.N,Net-(C16-Pad2)*
G04 #@! TO.C,J8*
X193600000Y-65750000D03*
D14*
G04 #@! TO.N,Net-(C18-Pad1)*
X193600000Y-63210000D03*
G04 #@! TD*
D13*
G04 #@! TO.N,Net-(C16-Pad2)*
G04 #@! TO.C,J13*
X193600000Y-69400000D03*
D14*
X196140000Y-69400000D03*
X198680000Y-69400000D03*
X201220000Y-69400000D03*
G04 #@! TD*
D13*
G04 #@! TO.N,Net-(C21-Pad1)*
G04 #@! TO.C,J14*
X193549300Y-80727820D03*
D14*
X196089300Y-80727820D03*
X198629300Y-80727820D03*
X201169300Y-80727820D03*
X203709300Y-80727820D03*
G04 #@! TD*
D13*
G04 #@! TO.N,Net-(C16-Pad2)*
G04 #@! TO.C,J12*
X193475640Y-101207840D03*
D14*
X193475640Y-103747840D03*
X193475640Y-106287840D03*
G04 #@! TD*
D13*
G04 #@! TO.N,Net-(C18-Pad1)*
G04 #@! TO.C,J15*
X193600000Y-41840000D03*
D14*
X193600000Y-44380000D03*
X193600000Y-46920000D03*
X193600000Y-49460000D03*
X193600000Y-52000000D03*
X193600000Y-54540000D03*
X193600000Y-57080000D03*
X193600000Y-59620000D03*
G04 #@! TD*
D13*
G04 #@! TO.N,+3V3*
G04 #@! TO.C,*
X191944203Y-129573068D03*
D14*
G04 #@! TO.N,GND*
X194484203Y-129573068D03*
G04 #@! TD*
G04 #@! TO.N,GND*
G04 #@! TO.C,JP2*
X130725080Y-128054560D03*
G04 #@! TO.N,VCC*
X130725080Y-125514560D03*
G04 #@! TO.N,/SDA*
X130725080Y-122974560D03*
G04 #@! TO.N,/SCL*
X130725080Y-120434560D03*
D13*
G04 #@! TO.N,/SQW*
X130725080Y-117894560D03*
G04 #@! TD*
D15*
G04 #@! TO.N,*
G04 #@! TO.C,B1*
X127875080Y-110274560D03*
D16*
X120425080Y-110274560D03*
G04 #@! TD*
D13*
G04 #@! TO.N,Net-(C1-Pad2)*
G04 #@! TO.C,J2*
X170408300Y-109474160D03*
D14*
G04 #@! TO.N,Net-(C1-Pad1)*
X170408300Y-112014160D03*
G04 #@! TD*
D13*
G04 #@! TO.N,Net-(J1-Pad1)*
G04 #@! TO.C,J1*
X149073301Y-107439161D03*
D14*
G04 #@! TO.N,Net-(J1-Pad2)*
X149073301Y-109979161D03*
G04 #@! TO.N,Net-(D2-Pad1)*
X149073301Y-112519161D03*
G04 #@! TO.N,Net-(D1-Pad1)*
X149073301Y-115059161D03*
G04 #@! TO.N,Net-(J1-Pad5)*
X149073301Y-117599161D03*
G04 #@! TO.N,Net-(J1-Pad6)*
X149073301Y-120139161D03*
G04 #@! TO.N,Net-(J1-Pad7)*
X149073301Y-122679161D03*
G04 #@! TO.N,Net-(J1-Pad8)*
X149073301Y-125219161D03*
G04 #@! TO.N,Net-(J1-Pad9)*
X149073301Y-127759161D03*
G04 #@! TD*
D13*
G04 #@! TO.N,Net-(J1-Pad1)*
G04 #@! TO.C,J1*
X78182480Y-121554880D03*
D14*
G04 #@! TO.N,Net-(J1-Pad2)*
X78182480Y-124094880D03*
G04 #@! TD*
D13*
G04 #@! TO.N,+5V*
G04 #@! TO.C,J2*
X108662480Y-113934880D03*
D14*
G04 #@! TO.N,Net-(C2-Pad2)*
X108662480Y-116474880D03*
G04 #@! TO.N,GND*
X108662480Y-119014880D03*
G04 #@! TO.N,Net-(J2-Pad4)*
X108662480Y-121554880D03*
G04 #@! TO.N,Net-(D2-Pad1)*
X108662480Y-124094880D03*
G04 #@! TO.N,Net-(D1-Pad1)*
X108662480Y-126634880D03*
G04 #@! TD*
D17*
G04 #@! TO.N,*
G04 #@! TO.C,U1*
X92706259Y-100201092D03*
G04 #@! TD*
D12*
G04 #@! TO.N,N/C*
G04 #@! TO.C,U$8*
X78682259Y-109053092D03*
G04 #@! TD*
G04 #@! TO.N,N/C*
G04 #@! TO.C,U$9*
X78682259Y-88733092D03*
G04 #@! TD*
D18*
G04 #@! TO.N,3.3V*
G04 #@! TO.C,JP1*
X108400259Y-109053092D03*
G04 #@! TO.N,/ENABLE*
X108400259Y-106513092D03*
G04 #@! TO.N,/VBACKUP*
X108400259Y-103973092D03*
G04 #@! TO.N,/FIX*
X108400259Y-101433092D03*
G04 #@! TO.N,/TX*
X108400259Y-98893092D03*
G04 #@! TO.N,/RX*
X108400259Y-96353092D03*
G04 #@! TO.N,GND*
X108400259Y-93813092D03*
G04 #@! TO.N,VIN*
X108400259Y-91273092D03*
G04 #@! TO.N,/1PPS*
X108400259Y-88733092D03*
G04 #@! TD*
D13*
G04 #@! TO.N,GND*
G04 #@! TO.C,J1*
X77691000Y-44093000D03*
D14*
G04 #@! TO.N,VDD*
X77691000Y-46633000D03*
G04 #@! TO.N,VDDIO*
X77691000Y-49173000D03*
G04 #@! TD*
D13*
G04 #@! TO.N,INT*
G04 #@! TO.C,J2*
X104361000Y-40029000D03*
D14*
G04 #@! TO.N,FSYNC*
X104361000Y-42569000D03*
G04 #@! TO.N,nCS*
X104361000Y-45109000D03*
G04 #@! TO.N,SCL*
X104361000Y-47649000D03*
G04 #@! TO.N,SDA*
X104361000Y-50189000D03*
G04 #@! TO.N,AD0*
X104361000Y-52729000D03*
G04 #@! TD*
D19*
G04 #@! TO.N,GND*
X134457440Y-63230760D03*
X147838160Y-69545200D03*
X144350000Y-61550000D03*
X154365960Y-78186280D03*
D20*
X97605259Y-87209092D03*
X99129259Y-95972092D03*
X103193259Y-106005092D03*
X86810259Y-104735092D03*
X94811259Y-109434092D03*
X87572259Y-106640092D03*
X89715259Y-105354092D03*
X90366259Y-101560092D03*
X93414259Y-102576092D03*
X92668259Y-95575092D03*
X91017259Y-97861092D03*
X93795259Y-97623092D03*
X86937259Y-101322092D03*
X87191259Y-96861092D03*
X88715259Y-94575092D03*
X88350259Y-99528092D03*
X88715259Y-103322092D03*
X91509259Y-103989092D03*
X95954259Y-106894092D03*
X94208259Y-105116092D03*
X95319259Y-103465092D03*
X99002259Y-98004092D03*
X99129259Y-94194092D03*
X86746759Y-93622592D03*
X81984259Y-95210092D03*
X83254259Y-94130592D03*
X79444259Y-94067092D03*
X83000259Y-104735092D03*
X80587259Y-102322092D03*
X81222259Y-104608092D03*
X79317259Y-97115092D03*
X78428259Y-99972592D03*
X80460259Y-95210092D03*
X81095259Y-89876092D03*
X85794259Y-91146092D03*
X96208259Y-94956092D03*
X96462259Y-100417092D03*
X96335259Y-97877092D03*
X91382259Y-107148092D03*
X97732259Y-108037092D03*
D19*
X92423000Y-43839000D03*
X131200000Y-76475000D03*
X134475000Y-65975000D03*
X146875041Y-85650000D03*
X147050000Y-73725000D03*
X164629588Y-67336912D03*
G04 #@! TO.N,+3V3*
X156632457Y-79510470D03*
X162366960Y-67437000D03*
X144839070Y-63938473D03*
X138125000Y-80225000D03*
X139875000Y-85100002D03*
G04 #@! TO.N,RST*
X143300000Y-72650000D03*
G04 #@! TO.N,PB4*
X156403040Y-58130440D03*
X128400000Y-64425000D03*
G04 #@! TO.N,PB3*
X158575000Y-59025000D03*
X125750000Y-64250000D03*
G04 #@! TO.N,PA1*
X145425030Y-85499992D03*
G04 #@! TO.N,PA2*
X145625000Y-84275000D03*
G04 #@! TO.N,PA3*
X146250000Y-83000000D03*
G04 #@! TO.N,PA4*
X147725000Y-82225000D03*
G04 #@! TO.N,PA5*
X148850000Y-82200000D03*
G04 #@! TO.N,PA6*
X150114902Y-82613205D03*
G04 #@! TO.N,PA7*
X150385423Y-81650478D03*
G04 #@! TO.N,PB0*
X149734420Y-88202621D03*
G04 #@! TO.N,PB1*
X150580139Y-88736271D03*
G04 #@! TO.N,PB2*
X151506981Y-89111755D03*
G04 #@! TO.N,PB8*
X147447000Y-52397873D03*
X148515785Y-64906885D03*
G04 #@! TO.N,PB9*
X144912080Y-52397873D03*
X147725000Y-65525000D03*
G04 #@! TO.N,PB10*
X152459191Y-89417239D03*
G04 #@! TO.N,PB12*
X163569749Y-59832996D03*
X166525298Y-63030878D03*
X158139973Y-79178534D03*
G04 #@! TO.N,PB13*
X162836840Y-60633759D03*
X165894463Y-63806811D03*
X159007617Y-78234503D03*
G04 #@! TO.N,PB14*
X162151142Y-61361661D03*
X165201426Y-64536167D03*
X159411278Y-77319581D03*
G04 #@! TO.N,PB15*
X161325000Y-62150000D03*
X164559018Y-65302546D03*
X160554053Y-76286989D03*
G04 #@! TO.N,PC0*
X132449998Y-76500000D03*
X142300018Y-73175018D03*
G04 #@! TO.N,PC1*
X133800000Y-76500000D03*
X140675002Y-73325000D03*
G04 #@! TO.N,PC2*
X139225000Y-74150000D03*
X134533640Y-77425000D03*
G04 #@! TO.N,PC3*
X138250000Y-74900000D03*
X135400000Y-78299998D03*
G04 #@! TO.N,PC10*
X154309641Y-65990678D03*
G04 #@! TO.N,PC11*
X154575000Y-64700000D03*
G04 #@! TO.N,PC12*
X154998392Y-63526928D03*
G04 #@! TO.N,PC13*
X143609529Y-69843378D03*
G04 #@! TO.N,PD2*
X155250000Y-62250000D03*
G04 #@! TO.N,PB11*
X154340560Y-82077560D03*
X164275000Y-59049996D03*
X167275000Y-62150000D03*
G04 #@! TO.N,Net-(C16-Pad1)*
X200531760Y-97324180D03*
X202675000Y-55875000D03*
X198475000Y-58125000D03*
G04 #@! TO.N,Net-(C16-Pad2)*
X204674500Y-96460580D03*
X204771020Y-106597720D03*
X193036220Y-94614000D03*
X199007760Y-83610720D03*
X199925000Y-42700000D03*
X197400000Y-53775000D03*
X205200000Y-68125000D03*
X205175000Y-55525000D03*
G04 #@! TO.N,Net-(C17-Pad1)*
X197300000Y-55875000D03*
X201250000Y-51700000D03*
G04 #@! TO.N,Net-(C20-Pad1)*
X195091080Y-97352120D03*
X200145680Y-92287360D03*
G04 #@! TO.N,Net-(C21-Pad1)*
X204275000Y-102925000D03*
G04 #@! TO.N,Net-(C1-Pad1)*
X128505080Y-117944560D03*
X128505080Y-124294560D03*
X173202300Y-125476160D03*
X172440300Y-123698160D03*
X172440300Y-122682160D03*
X172440300Y-121666160D03*
X170408300Y-127000160D03*
X173964286Y-126238160D03*
G04 #@! TO.N,VCC*
X124205080Y-125109570D03*
X126955080Y-126544560D03*
G04 #@! TO.N,Net-(D1-Pad2)*
X166852300Y-106680160D03*
X181584300Y-122682160D03*
G04 #@! TO.N,Net-(D2-Pad2)*
X161010300Y-110744160D03*
X166852300Y-117094160D03*
X178028300Y-119126160D03*
X178028300Y-117094160D03*
G04 #@! TO.N,Net-(J1-Pad1)*
X165328300Y-116078160D03*
X174472300Y-120650160D03*
X171424300Y-116078160D03*
G04 #@! TO.N,Net-(J1-Pad2)*
X172948300Y-118110160D03*
X177012300Y-119126160D03*
X168630300Y-118110160D03*
G04 #@! TO.N,Net-(J1-Pad5)*
X179298300Y-129794160D03*
X165836300Y-121666160D03*
G04 #@! TO.N,Net-(J1-Pad6)*
X179044300Y-128524160D03*
X168122300Y-123444160D03*
G04 #@! TO.N,Net-(J1-Pad7)*
X153136300Y-122936160D03*
X153136300Y-130302160D03*
G04 #@! TO.N,Net-(J1-Pad8)*
X157200300Y-125222160D03*
X157200300Y-128524160D03*
G04 #@! TO.N,Net-(R2-Pad2)*
X183339300Y-127739160D03*
X175488300Y-119380160D03*
G04 #@! TO.N,Net-(R3-Pad2)*
X174472300Y-119634160D03*
X172186300Y-119634160D03*
G04 #@! TO.N,Net-(C1-Pad2)*
X183339300Y-109497160D03*
X88867000Y-50189000D03*
X83152000Y-56793000D03*
G04 #@! TO.N,Net-(C2-Pad2)*
X99772480Y-121554880D03*
D20*
G04 #@! TO.N,3.3V*
X103193259Y-87209092D03*
X90747259Y-91781092D03*
X97478259Y-90892092D03*
G04 #@! TO.N,VIN*
X104717259Y-90130092D03*
G04 #@! TO.N,/1PPS*
X94684259Y-93178092D03*
G04 #@! TO.N,/FIX*
X99002259Y-99655092D03*
X96843259Y-103719092D03*
G04 #@! TO.N,/VBACKUP*
X98811759Y-110386592D03*
G04 #@! TO.N,Net-(B1-Pad+$1)*
X96017759Y-110386592D03*
D19*
G04 #@! TO.N,VDD*
X93439000Y-48411000D03*
X91534000Y-48919000D03*
X90518000Y-51713000D03*
X83152000Y-46633000D03*
G04 #@! TO.N,AD0*
X89629000Y-52729000D03*
G04 #@! TD*
D21*
G04 #@! TO.N,+3V3*
G36*
X176357268Y-45287945D02*
X176352212Y-97327635D01*
X115753349Y-97287165D01*
X115770487Y-92637240D01*
X116968160Y-92637240D01*
X116968160Y-94337240D01*
X117017443Y-94585005D01*
X117157791Y-94795049D01*
X117367835Y-94935397D01*
X117615600Y-94984680D01*
X119315600Y-94984680D01*
X119563365Y-94935397D01*
X119773409Y-94795049D01*
X119913757Y-94585005D01*
X119934339Y-94481532D01*
X120238676Y-94758885D01*
X120648710Y-94928716D01*
X120878600Y-94807395D01*
X120878600Y-93614240D01*
X121132600Y-93614240D01*
X121132600Y-94807395D01*
X121362490Y-94928716D01*
X121772524Y-94758885D01*
X122200783Y-94368598D01*
X122447086Y-93844132D01*
X122326419Y-93614240D01*
X121132600Y-93614240D01*
X120878600Y-93614240D01*
X120858600Y-93614240D01*
X120858600Y-93360240D01*
X120878600Y-93360240D01*
X120878600Y-92167085D01*
X121132600Y-92167085D01*
X121132600Y-93360240D01*
X122326419Y-93360240D01*
X122447086Y-93130348D01*
X122222667Y-92652480D01*
X127956200Y-92652480D01*
X127956200Y-94352480D01*
X128005483Y-94600245D01*
X128145831Y-94810289D01*
X128355875Y-94950637D01*
X128603640Y-94999920D01*
X130303640Y-94999920D01*
X130551405Y-94950637D01*
X130761449Y-94810289D01*
X130901797Y-94600245D01*
X130910824Y-94554861D01*
X130923015Y-94573105D01*
X131414222Y-94901319D01*
X131847384Y-94987480D01*
X132139896Y-94987480D01*
X132573058Y-94901319D01*
X133064265Y-94573105D01*
X133263640Y-94274719D01*
X133463015Y-94573105D01*
X133954222Y-94901319D01*
X134387384Y-94987480D01*
X134679896Y-94987480D01*
X135113058Y-94901319D01*
X135604265Y-94573105D01*
X135803640Y-94274719D01*
X136003015Y-94573105D01*
X136494222Y-94901319D01*
X136927384Y-94987480D01*
X137219896Y-94987480D01*
X137653058Y-94901319D01*
X138144265Y-94573105D01*
X138343640Y-94274719D01*
X138543015Y-94573105D01*
X139034222Y-94901319D01*
X139467384Y-94987480D01*
X139759896Y-94987480D01*
X140193058Y-94901319D01*
X140684265Y-94573105D01*
X140883640Y-94274719D01*
X141083015Y-94573105D01*
X141574222Y-94901319D01*
X142007384Y-94987480D01*
X142299896Y-94987480D01*
X142733058Y-94901319D01*
X143224265Y-94573105D01*
X143423640Y-94274719D01*
X143623015Y-94573105D01*
X144114222Y-94901319D01*
X144547384Y-94987480D01*
X144839896Y-94987480D01*
X145273058Y-94901319D01*
X145764265Y-94573105D01*
X145963640Y-94274719D01*
X146163015Y-94573105D01*
X146654222Y-94901319D01*
X147087384Y-94987480D01*
X147379896Y-94987480D01*
X147813058Y-94901319D01*
X148304265Y-94573105D01*
X148503640Y-94274719D01*
X148703015Y-94573105D01*
X149194222Y-94901319D01*
X149627384Y-94987480D01*
X149919896Y-94987480D01*
X150353058Y-94901319D01*
X150844265Y-94573105D01*
X151043640Y-94274719D01*
X151243015Y-94573105D01*
X151734222Y-94901319D01*
X152167384Y-94987480D01*
X152459896Y-94987480D01*
X152893058Y-94901319D01*
X153384265Y-94573105D01*
X153583640Y-94274719D01*
X153783015Y-94573105D01*
X154274222Y-94901319D01*
X154707384Y-94987480D01*
X154999896Y-94987480D01*
X155433058Y-94901319D01*
X155924265Y-94573105D01*
X156123640Y-94274719D01*
X156323015Y-94573105D01*
X156814222Y-94901319D01*
X157247384Y-94987480D01*
X157539896Y-94987480D01*
X157973058Y-94901319D01*
X158464265Y-94573105D01*
X158663640Y-94274719D01*
X158863015Y-94573105D01*
X159354222Y-94901319D01*
X159787384Y-94987480D01*
X160079896Y-94987480D01*
X160513058Y-94901319D01*
X161004265Y-94573105D01*
X161203640Y-94274719D01*
X161403015Y-94573105D01*
X161894222Y-94901319D01*
X162327384Y-94987480D01*
X162619896Y-94987480D01*
X163053058Y-94901319D01*
X163544265Y-94573105D01*
X163743640Y-94274719D01*
X163943015Y-94573105D01*
X164434222Y-94901319D01*
X164867384Y-94987480D01*
X165159896Y-94987480D01*
X165593058Y-94901319D01*
X166084265Y-94573105D01*
X166283640Y-94274719D01*
X166483015Y-94573105D01*
X166974222Y-94901319D01*
X167407384Y-94987480D01*
X167699896Y-94987480D01*
X168133058Y-94901319D01*
X168624265Y-94573105D01*
X168952479Y-94081898D01*
X169067732Y-93502480D01*
X168952479Y-92923062D01*
X168624265Y-92431855D01*
X168133058Y-92103641D01*
X167699896Y-92017480D01*
X167407384Y-92017480D01*
X166974222Y-92103641D01*
X166483015Y-92431855D01*
X166283640Y-92730241D01*
X166084265Y-92431855D01*
X165593058Y-92103641D01*
X165159896Y-92017480D01*
X164867384Y-92017480D01*
X164434222Y-92103641D01*
X163943015Y-92431855D01*
X163743640Y-92730241D01*
X163544265Y-92431855D01*
X163053058Y-92103641D01*
X162619896Y-92017480D01*
X162327384Y-92017480D01*
X161894222Y-92103641D01*
X161403015Y-92431855D01*
X161203640Y-92730241D01*
X161004265Y-92431855D01*
X160513058Y-92103641D01*
X160079896Y-92017480D01*
X159787384Y-92017480D01*
X159354222Y-92103641D01*
X158863015Y-92431855D01*
X158663640Y-92730241D01*
X158464265Y-92431855D01*
X157973058Y-92103641D01*
X157539896Y-92017480D01*
X157247384Y-92017480D01*
X156814222Y-92103641D01*
X156323015Y-92431855D01*
X156123640Y-92730241D01*
X155924265Y-92431855D01*
X155433058Y-92103641D01*
X154999896Y-92017480D01*
X154707384Y-92017480D01*
X154274222Y-92103641D01*
X153783015Y-92431855D01*
X153583640Y-92730241D01*
X153384265Y-92431855D01*
X152893058Y-92103641D01*
X152459896Y-92017480D01*
X152167384Y-92017480D01*
X151734222Y-92103641D01*
X151243015Y-92431855D01*
X151043640Y-92730241D01*
X150844265Y-92431855D01*
X150353058Y-92103641D01*
X149919896Y-92017480D01*
X149627384Y-92017480D01*
X149194222Y-92103641D01*
X148703015Y-92431855D01*
X148503640Y-92730241D01*
X148304265Y-92431855D01*
X147813058Y-92103641D01*
X147379896Y-92017480D01*
X147087384Y-92017480D01*
X146654222Y-92103641D01*
X146163015Y-92431855D01*
X145963640Y-92730241D01*
X145764265Y-92431855D01*
X145273058Y-92103641D01*
X144839896Y-92017480D01*
X144547384Y-92017480D01*
X144114222Y-92103641D01*
X143623015Y-92431855D01*
X143423640Y-92730241D01*
X143224265Y-92431855D01*
X142733058Y-92103641D01*
X142299896Y-92017480D01*
X142007384Y-92017480D01*
X141574222Y-92103641D01*
X141083015Y-92431855D01*
X140883640Y-92730241D01*
X140684265Y-92431855D01*
X140193058Y-92103641D01*
X139759896Y-92017480D01*
X139467384Y-92017480D01*
X139034222Y-92103641D01*
X138543015Y-92431855D01*
X138343640Y-92730241D01*
X138144265Y-92431855D01*
X137653058Y-92103641D01*
X137219896Y-92017480D01*
X136927384Y-92017480D01*
X136494222Y-92103641D01*
X136003015Y-92431855D01*
X135803640Y-92730241D01*
X135604265Y-92431855D01*
X135113058Y-92103641D01*
X134679896Y-92017480D01*
X134387384Y-92017480D01*
X133954222Y-92103641D01*
X133463015Y-92431855D01*
X133263640Y-92730241D01*
X133064265Y-92431855D01*
X132573058Y-92103641D01*
X132139896Y-92017480D01*
X131847384Y-92017480D01*
X131414222Y-92103641D01*
X130923015Y-92431855D01*
X130910824Y-92450099D01*
X130901797Y-92404715D01*
X130761449Y-92194671D01*
X130551405Y-92054323D01*
X130303640Y-92005040D01*
X128603640Y-92005040D01*
X128355875Y-92054323D01*
X128145831Y-92194671D01*
X128005483Y-92404715D01*
X127956200Y-92652480D01*
X122222667Y-92652480D01*
X122200783Y-92605882D01*
X121772524Y-92215595D01*
X121362490Y-92045764D01*
X121132600Y-92167085D01*
X120878600Y-92167085D01*
X120648710Y-92045764D01*
X120238676Y-92215595D01*
X119934339Y-92492948D01*
X119913757Y-92389475D01*
X119773409Y-92179431D01*
X119563365Y-92039083D01*
X119315600Y-91989800D01*
X117615600Y-91989800D01*
X117367835Y-92039083D01*
X117157791Y-92179431D01*
X117017443Y-92389475D01*
X116968160Y-92637240D01*
X115770487Y-92637240D01*
X115787590Y-87996747D01*
X148699420Y-87996747D01*
X148699420Y-88408495D01*
X148856989Y-88788901D01*
X149148140Y-89080052D01*
X149528546Y-89237621D01*
X149667529Y-89237621D01*
X149702708Y-89322551D01*
X149993859Y-89613702D01*
X150374265Y-89771271D01*
X150702786Y-89771271D01*
X150920701Y-89989186D01*
X151301107Y-90146755D01*
X151712855Y-90146755D01*
X151721440Y-90143199D01*
X151872911Y-90294670D01*
X152253317Y-90452239D01*
X152665065Y-90452239D01*
X153045471Y-90294670D01*
X153336622Y-90003519D01*
X153494191Y-89623113D01*
X153494191Y-89211365D01*
X153336622Y-88830959D01*
X153045471Y-88539808D01*
X152665065Y-88382239D01*
X152253317Y-88382239D01*
X152244732Y-88385795D01*
X152093261Y-88234324D01*
X151712855Y-88076755D01*
X151384334Y-88076755D01*
X151166419Y-87858840D01*
X150786013Y-87701271D01*
X150647030Y-87701271D01*
X150611851Y-87616341D01*
X150320700Y-87325190D01*
X149940294Y-87167621D01*
X149528546Y-87167621D01*
X149148140Y-87325190D01*
X148856989Y-87616341D01*
X148699420Y-87996747D01*
X115787590Y-87996747D01*
X115797551Y-85294118D01*
X144390030Y-85294118D01*
X144390030Y-85705866D01*
X144547599Y-86086272D01*
X144838750Y-86377423D01*
X145219156Y-86534992D01*
X145630904Y-86534992D01*
X146011310Y-86377423D01*
X146075032Y-86313702D01*
X146288761Y-86527431D01*
X146669167Y-86685000D01*
X147080915Y-86685000D01*
X147461321Y-86527431D01*
X147752472Y-86236280D01*
X147910041Y-85855874D01*
X147910041Y-85444126D01*
X147752472Y-85063720D01*
X147461321Y-84772569D01*
X147080915Y-84615000D01*
X146669167Y-84615000D01*
X146591039Y-84647362D01*
X146660000Y-84480874D01*
X146660000Y-84069126D01*
X146618041Y-83967828D01*
X146836280Y-83877431D01*
X147127431Y-83586280D01*
X147285000Y-83205874D01*
X147285000Y-83163022D01*
X147519126Y-83260000D01*
X147930874Y-83260000D01*
X148311280Y-83102431D01*
X148315028Y-83098683D01*
X148644126Y-83235000D01*
X149055874Y-83235000D01*
X149223433Y-83165595D01*
X149237471Y-83199485D01*
X149528622Y-83490636D01*
X149909028Y-83648205D01*
X150320776Y-83648205D01*
X150701182Y-83490636D01*
X150992333Y-83199485D01*
X151149902Y-82819079D01*
X151149902Y-82407331D01*
X151133025Y-82366587D01*
X151262854Y-82236758D01*
X151414071Y-81871686D01*
X153305560Y-81871686D01*
X153305560Y-82283434D01*
X153463129Y-82663840D01*
X153754280Y-82954991D01*
X154134686Y-83112560D01*
X154546434Y-83112560D01*
X154926840Y-82954991D01*
X155217991Y-82663840D01*
X155375560Y-82283434D01*
X155375560Y-81871686D01*
X155217991Y-81491280D01*
X154926840Y-81200129D01*
X154546434Y-81042560D01*
X154134686Y-81042560D01*
X153754280Y-81200129D01*
X153463129Y-81491280D01*
X153305560Y-81871686D01*
X151414071Y-81871686D01*
X151420423Y-81856352D01*
X151420423Y-81444604D01*
X151262854Y-81064198D01*
X150971703Y-80773047D01*
X150591297Y-80615478D01*
X150179549Y-80615478D01*
X149799143Y-80773047D01*
X149507992Y-81064198D01*
X149406142Y-81310086D01*
X149055874Y-81165000D01*
X148644126Y-81165000D01*
X148263720Y-81322569D01*
X148259972Y-81326317D01*
X147930874Y-81190000D01*
X147519126Y-81190000D01*
X147138720Y-81347569D01*
X146847569Y-81638720D01*
X146690000Y-82019126D01*
X146690000Y-82061978D01*
X146455874Y-81965000D01*
X146044126Y-81965000D01*
X145663720Y-82122569D01*
X145372569Y-82413720D01*
X145215000Y-82794126D01*
X145215000Y-83205874D01*
X145256959Y-83307172D01*
X145038720Y-83397569D01*
X144747569Y-83688720D01*
X144590000Y-84069126D01*
X144590000Y-84480874D01*
X144704356Y-84756955D01*
X144547599Y-84913712D01*
X144390030Y-85294118D01*
X115797551Y-85294118D01*
X115803354Y-83719690D01*
X116922524Y-83719690D01*
X117092355Y-84129724D01*
X117482642Y-84557983D01*
X118007108Y-84804286D01*
X118237000Y-84683619D01*
X118237000Y-83489800D01*
X118491000Y-83489800D01*
X118491000Y-84683619D01*
X118720892Y-84804286D01*
X119245358Y-84557983D01*
X119427070Y-84358592D01*
X119515673Y-84572499D01*
X119694302Y-84751127D01*
X119927691Y-84847800D01*
X120618250Y-84847800D01*
X120777000Y-84689050D01*
X120777000Y-83489800D01*
X121031000Y-83489800D01*
X121031000Y-84689050D01*
X121189750Y-84847800D01*
X121880309Y-84847800D01*
X122113698Y-84751127D01*
X122292327Y-84572499D01*
X122389000Y-84339110D01*
X122389000Y-83648550D01*
X122230250Y-83489800D01*
X121031000Y-83489800D01*
X120777000Y-83489800D01*
X118491000Y-83489800D01*
X118237000Y-83489800D01*
X117043845Y-83489800D01*
X116922524Y-83719690D01*
X115803354Y-83719690D01*
X115888926Y-60502800D01*
X116849908Y-60502800D01*
X116965161Y-61082218D01*
X117293375Y-61573425D01*
X117591761Y-61772800D01*
X117293375Y-61972175D01*
X116965161Y-62463382D01*
X116849908Y-63042800D01*
X116965161Y-63622218D01*
X117293375Y-64113425D01*
X117591761Y-64312800D01*
X117293375Y-64512175D01*
X116965161Y-65003382D01*
X116849908Y-65582800D01*
X116965161Y-66162218D01*
X117293375Y-66653425D01*
X117591761Y-66852800D01*
X117293375Y-67052175D01*
X116965161Y-67543382D01*
X116849908Y-68122800D01*
X116965161Y-68702218D01*
X117293375Y-69193425D01*
X117591761Y-69392800D01*
X117293375Y-69592175D01*
X116965161Y-70083382D01*
X116849908Y-70662800D01*
X116965161Y-71242218D01*
X117293375Y-71733425D01*
X117591761Y-71932800D01*
X117293375Y-72132175D01*
X116965161Y-72623382D01*
X116849908Y-73202800D01*
X116965161Y-73782218D01*
X117293375Y-74273425D01*
X117591761Y-74472800D01*
X117293375Y-74672175D01*
X116965161Y-75163382D01*
X116849908Y-75742800D01*
X116965161Y-76322218D01*
X117293375Y-76813425D01*
X117591761Y-77012800D01*
X117293375Y-77212175D01*
X116965161Y-77703382D01*
X116849908Y-78282800D01*
X116965161Y-78862218D01*
X117293375Y-79353425D01*
X117591761Y-79552800D01*
X117293375Y-79752175D01*
X116965161Y-80243382D01*
X116849908Y-80822800D01*
X116965161Y-81402218D01*
X117293375Y-81893425D01*
X117612478Y-82106643D01*
X117482642Y-82167617D01*
X117092355Y-82595876D01*
X116922524Y-83005910D01*
X117043845Y-83235800D01*
X118237000Y-83235800D01*
X118237000Y-83215800D01*
X118491000Y-83215800D01*
X118491000Y-83235800D01*
X120777000Y-83235800D01*
X120777000Y-83215800D01*
X121031000Y-83215800D01*
X121031000Y-83235800D01*
X122230250Y-83235800D01*
X122389000Y-83077050D01*
X122389000Y-82386490D01*
X122292327Y-82153101D01*
X122113698Y-81974473D01*
X121952967Y-81907896D01*
X121974625Y-81893425D01*
X122302839Y-81402218D01*
X122418092Y-80822800D01*
X122302839Y-80243382D01*
X121974625Y-79752175D01*
X121676239Y-79552800D01*
X121974625Y-79353425D01*
X122302839Y-78862218D01*
X122418092Y-78282800D01*
X122302839Y-77703382D01*
X121974625Y-77212175D01*
X121676239Y-77012800D01*
X121974625Y-76813425D01*
X122302839Y-76322218D01*
X122313399Y-76269126D01*
X130165000Y-76269126D01*
X130165000Y-76680874D01*
X130322569Y-77061280D01*
X130613720Y-77352431D01*
X130994126Y-77510000D01*
X131405874Y-77510000D01*
X131786280Y-77352431D01*
X131812499Y-77326212D01*
X131863718Y-77377431D01*
X132244124Y-77535000D01*
X132655872Y-77535000D01*
X133036278Y-77377431D01*
X133124999Y-77288710D01*
X133213720Y-77377431D01*
X133498640Y-77495448D01*
X133498640Y-77630874D01*
X133656209Y-78011280D01*
X133947360Y-78302431D01*
X134327766Y-78460000D01*
X134365000Y-78460000D01*
X134365000Y-78505872D01*
X134522569Y-78886278D01*
X134813720Y-79177429D01*
X135194126Y-79334998D01*
X135605874Y-79334998D01*
X135986280Y-79177429D01*
X136277431Y-78886278D01*
X136435000Y-78505872D01*
X136435000Y-78094124D01*
X136387897Y-77980406D01*
X153330960Y-77980406D01*
X153330960Y-78392154D01*
X153488529Y-78772560D01*
X153779680Y-79063711D01*
X154160086Y-79221280D01*
X154571834Y-79221280D01*
X154952240Y-79063711D01*
X155043291Y-78972660D01*
X157104973Y-78972660D01*
X157104973Y-79384408D01*
X157262542Y-79764814D01*
X157553693Y-80055965D01*
X157934099Y-80213534D01*
X158345847Y-80213534D01*
X158726253Y-80055965D01*
X159017404Y-79764814D01*
X159174973Y-79384408D01*
X159174973Y-79269503D01*
X159213491Y-79269503D01*
X159593897Y-79111934D01*
X159885048Y-78820783D01*
X160042617Y-78440377D01*
X160042617Y-78151953D01*
X160288709Y-77905861D01*
X160446278Y-77525455D01*
X160446278Y-77321989D01*
X160759927Y-77321989D01*
X161140333Y-77164420D01*
X161431484Y-76873269D01*
X161589053Y-76492863D01*
X161589053Y-76081115D01*
X161431484Y-75700709D01*
X161140333Y-75409558D01*
X160759927Y-75251989D01*
X160348179Y-75251989D01*
X159967773Y-75409558D01*
X159676622Y-75700709D01*
X159519053Y-76081115D01*
X159519053Y-76284581D01*
X159205404Y-76284581D01*
X158824998Y-76442150D01*
X158533847Y-76733301D01*
X158376278Y-77113707D01*
X158376278Y-77402131D01*
X158130186Y-77648223D01*
X157972617Y-78028629D01*
X157972617Y-78143534D01*
X157934099Y-78143534D01*
X157553693Y-78301103D01*
X157262542Y-78592254D01*
X157104973Y-78972660D01*
X155043291Y-78972660D01*
X155243391Y-78772560D01*
X155400960Y-78392154D01*
X155400960Y-77980406D01*
X155243391Y-77600000D01*
X154952240Y-77308849D01*
X154571834Y-77151280D01*
X154160086Y-77151280D01*
X153779680Y-77308849D01*
X153488529Y-77600000D01*
X153330960Y-77980406D01*
X136387897Y-77980406D01*
X136277431Y-77713718D01*
X135986280Y-77422567D01*
X135605874Y-77264998D01*
X135568640Y-77264998D01*
X135568640Y-77219126D01*
X135411071Y-76838720D01*
X135119920Y-76547569D01*
X134835000Y-76429552D01*
X134835000Y-76294126D01*
X134677431Y-75913720D01*
X134386280Y-75622569D01*
X134005874Y-75465000D01*
X133594126Y-75465000D01*
X133213720Y-75622569D01*
X133124999Y-75711290D01*
X133036278Y-75622569D01*
X132655872Y-75465000D01*
X132244124Y-75465000D01*
X131863718Y-75622569D01*
X131837499Y-75648788D01*
X131786280Y-75597569D01*
X131405874Y-75440000D01*
X130994126Y-75440000D01*
X130613720Y-75597569D01*
X130322569Y-75888720D01*
X130165000Y-76269126D01*
X122313399Y-76269126D01*
X122418092Y-75742800D01*
X122302839Y-75163382D01*
X121989293Y-74694126D01*
X137215000Y-74694126D01*
X137215000Y-75105874D01*
X137372569Y-75486280D01*
X137663720Y-75777431D01*
X138044126Y-75935000D01*
X138455874Y-75935000D01*
X138836280Y-75777431D01*
X139127431Y-75486280D01*
X139252225Y-75185000D01*
X139430874Y-75185000D01*
X139811280Y-75027431D01*
X140102431Y-74736280D01*
X140260000Y-74355874D01*
X140260000Y-74273377D01*
X140469128Y-74360000D01*
X140880876Y-74360000D01*
X141261282Y-74202431D01*
X141552433Y-73911280D01*
X141558331Y-73897042D01*
X141713738Y-74052449D01*
X142094144Y-74210018D01*
X142505892Y-74210018D01*
X142886298Y-74052449D01*
X143177449Y-73761298D01*
X143209053Y-73685000D01*
X143505874Y-73685000D01*
X143886280Y-73527431D01*
X143894585Y-73519126D01*
X146015000Y-73519126D01*
X146015000Y-73930874D01*
X146172569Y-74311280D01*
X146463720Y-74602431D01*
X146844126Y-74760000D01*
X147255874Y-74760000D01*
X147636280Y-74602431D01*
X147927431Y-74311280D01*
X148085000Y-73930874D01*
X148085000Y-73519126D01*
X147927431Y-73138720D01*
X147636280Y-72847569D01*
X147255874Y-72690000D01*
X146844126Y-72690000D01*
X146463720Y-72847569D01*
X146172569Y-73138720D01*
X146015000Y-73519126D01*
X143894585Y-73519126D01*
X144177431Y-73236280D01*
X144335000Y-72855874D01*
X144335000Y-72444126D01*
X144177431Y-72063720D01*
X143886280Y-71772569D01*
X143505874Y-71615000D01*
X143094126Y-71615000D01*
X142713720Y-71772569D01*
X142422569Y-72063720D01*
X142390965Y-72140018D01*
X142094144Y-72140018D01*
X141713738Y-72297587D01*
X141422587Y-72588738D01*
X141416689Y-72602976D01*
X141261282Y-72447569D01*
X140880876Y-72290000D01*
X140469128Y-72290000D01*
X140088722Y-72447569D01*
X139797571Y-72738720D01*
X139640002Y-73119126D01*
X139640002Y-73201623D01*
X139430874Y-73115000D01*
X139019126Y-73115000D01*
X138638720Y-73272569D01*
X138347569Y-73563720D01*
X138222775Y-73865000D01*
X138044126Y-73865000D01*
X137663720Y-74022569D01*
X137372569Y-74313720D01*
X137215000Y-74694126D01*
X121989293Y-74694126D01*
X121974625Y-74672175D01*
X121676239Y-74472800D01*
X121974625Y-74273425D01*
X122302839Y-73782218D01*
X122418092Y-73202800D01*
X122302839Y-72623382D01*
X121974625Y-72132175D01*
X121676239Y-71932800D01*
X121974625Y-71733425D01*
X122302839Y-71242218D01*
X122418092Y-70662800D01*
X122302839Y-70083382D01*
X122004913Y-69637504D01*
X142574529Y-69637504D01*
X142574529Y-70049252D01*
X142732098Y-70429658D01*
X143023249Y-70720809D01*
X143403655Y-70878378D01*
X143815403Y-70878378D01*
X144195809Y-70720809D01*
X144486960Y-70429658D01*
X144644529Y-70049252D01*
X144644529Y-69637504D01*
X144521020Y-69339326D01*
X146803160Y-69339326D01*
X146803160Y-69751074D01*
X146960729Y-70131480D01*
X147251880Y-70422631D01*
X147632286Y-70580200D01*
X148044034Y-70580200D01*
X148424440Y-70422631D01*
X148715591Y-70131480D01*
X148873160Y-69751074D01*
X148873160Y-69339326D01*
X148715591Y-68958920D01*
X148424440Y-68667769D01*
X148044034Y-68510200D01*
X147632286Y-68510200D01*
X147251880Y-68667769D01*
X146960729Y-68958920D01*
X146803160Y-69339326D01*
X144521020Y-69339326D01*
X144486960Y-69257098D01*
X144195809Y-68965947D01*
X143815403Y-68808378D01*
X143403655Y-68808378D01*
X143023249Y-68965947D01*
X142732098Y-69257098D01*
X142574529Y-69637504D01*
X122004913Y-69637504D01*
X121974625Y-69592175D01*
X121676239Y-69392800D01*
X121974625Y-69193425D01*
X122302839Y-68702218D01*
X122418092Y-68122800D01*
X122302839Y-67543382D01*
X121974625Y-67052175D01*
X121676239Y-66852800D01*
X121974625Y-66653425D01*
X122302839Y-66162218D01*
X122381029Y-65769126D01*
X133440000Y-65769126D01*
X133440000Y-66180874D01*
X133597569Y-66561280D01*
X133888720Y-66852431D01*
X134269126Y-67010000D01*
X134680874Y-67010000D01*
X135061280Y-66852431D01*
X135352431Y-66561280D01*
X135510000Y-66180874D01*
X135510000Y-65769126D01*
X135352431Y-65388720D01*
X135282837Y-65319126D01*
X146690000Y-65319126D01*
X146690000Y-65730874D01*
X146847569Y-66111280D01*
X147138720Y-66402431D01*
X147519126Y-66560000D01*
X147930874Y-66560000D01*
X148311280Y-66402431D01*
X148602431Y-66111280D01*
X148672597Y-65941885D01*
X148721659Y-65941885D01*
X149100886Y-65784804D01*
X153274641Y-65784804D01*
X153274641Y-66196552D01*
X153432210Y-66576958D01*
X153723361Y-66868109D01*
X154103767Y-67025678D01*
X154515515Y-67025678D01*
X154895921Y-66868109D01*
X155187072Y-66576958D01*
X155344641Y-66196552D01*
X155344641Y-65784804D01*
X155230198Y-65508513D01*
X155452431Y-65286280D01*
X155530969Y-65096672D01*
X163524018Y-65096672D01*
X163524018Y-65508420D01*
X163681587Y-65888826D01*
X163972738Y-66179977D01*
X164345415Y-66334344D01*
X164043308Y-66459481D01*
X163752157Y-66750632D01*
X163594588Y-67131038D01*
X163594588Y-67542786D01*
X163752157Y-67923192D01*
X164043308Y-68214343D01*
X164423714Y-68371912D01*
X164835462Y-68371912D01*
X165215868Y-68214343D01*
X165507019Y-67923192D01*
X165664588Y-67542786D01*
X165664588Y-67131038D01*
X165507019Y-66750632D01*
X165215868Y-66459481D01*
X164843191Y-66305114D01*
X165145298Y-66179977D01*
X165436449Y-65888826D01*
X165594018Y-65508420D01*
X165594018Y-65493826D01*
X165787706Y-65413598D01*
X166078857Y-65122447D01*
X166214726Y-64794430D01*
X166480743Y-64684242D01*
X166771894Y-64393091D01*
X166929463Y-64012685D01*
X166929463Y-63983743D01*
X167111578Y-63908309D01*
X167402729Y-63617158D01*
X167560298Y-63236752D01*
X167560298Y-63152102D01*
X167861280Y-63027431D01*
X168152431Y-62736280D01*
X168310000Y-62355874D01*
X168310000Y-61944126D01*
X168152431Y-61563720D01*
X167861280Y-61272569D01*
X167480874Y-61115000D01*
X167069126Y-61115000D01*
X166688720Y-61272569D01*
X166397569Y-61563720D01*
X166240000Y-61944126D01*
X166240000Y-62028776D01*
X165939018Y-62153447D01*
X165647867Y-62444598D01*
X165490298Y-62825004D01*
X165490298Y-62853946D01*
X165308183Y-62929380D01*
X165017032Y-63220531D01*
X164881163Y-63548548D01*
X164615146Y-63658736D01*
X164323995Y-63949887D01*
X164166426Y-64330293D01*
X164166426Y-64344887D01*
X163972738Y-64425115D01*
X163681587Y-64716266D01*
X163524018Y-65096672D01*
X155530969Y-65096672D01*
X155610000Y-64905874D01*
X155610000Y-64494126D01*
X155574553Y-64408550D01*
X155584672Y-64404359D01*
X155875823Y-64113208D01*
X156033392Y-63732802D01*
X156033392Y-63321054D01*
X155918949Y-63044762D01*
X156127431Y-62836280D01*
X156285000Y-62455874D01*
X156285000Y-62044126D01*
X156243579Y-61944126D01*
X160290000Y-61944126D01*
X160290000Y-62355874D01*
X160447569Y-62736280D01*
X160738720Y-63027431D01*
X161119126Y-63185000D01*
X161530874Y-63185000D01*
X161911280Y-63027431D01*
X162202431Y-62736280D01*
X162343106Y-62396661D01*
X162357016Y-62396661D01*
X162737422Y-62239092D01*
X163028573Y-61947941D01*
X163165235Y-61618009D01*
X163423120Y-61511190D01*
X163714271Y-61220039D01*
X163871840Y-60839633D01*
X163871840Y-60828142D01*
X164156029Y-60710427D01*
X164447180Y-60419276D01*
X164604749Y-60038870D01*
X164604749Y-60033685D01*
X164861280Y-59927427D01*
X165152431Y-59636276D01*
X165310000Y-59255870D01*
X165310000Y-58844122D01*
X165152431Y-58463716D01*
X164861280Y-58172565D01*
X164480874Y-58014996D01*
X164069126Y-58014996D01*
X163688720Y-58172565D01*
X163397569Y-58463716D01*
X163240000Y-58844122D01*
X163240000Y-58849307D01*
X162983469Y-58955565D01*
X162692318Y-59246716D01*
X162534749Y-59627122D01*
X162534749Y-59638613D01*
X162250560Y-59756328D01*
X161959409Y-60047479D01*
X161822747Y-60377411D01*
X161564862Y-60484230D01*
X161273711Y-60775381D01*
X161133036Y-61115000D01*
X161119126Y-61115000D01*
X160738720Y-61272569D01*
X160447569Y-61563720D01*
X160290000Y-61944126D01*
X156243579Y-61944126D01*
X156127431Y-61663720D01*
X155836280Y-61372569D01*
X155455874Y-61215000D01*
X155044126Y-61215000D01*
X154663720Y-61372569D01*
X154372569Y-61663720D01*
X154215000Y-62044126D01*
X154215000Y-62455874D01*
X154329443Y-62732166D01*
X154120961Y-62940648D01*
X153963392Y-63321054D01*
X153963392Y-63732802D01*
X153998839Y-63818378D01*
X153988720Y-63822569D01*
X153697569Y-64113720D01*
X153540000Y-64494126D01*
X153540000Y-64905874D01*
X153654443Y-65182165D01*
X153432210Y-65404398D01*
X153274641Y-65784804D01*
X149100886Y-65784804D01*
X149102065Y-65784316D01*
X149393216Y-65493165D01*
X149550785Y-65112759D01*
X149550785Y-64701011D01*
X149393216Y-64320605D01*
X149102065Y-64029454D01*
X148721659Y-63871885D01*
X148309911Y-63871885D01*
X147929505Y-64029454D01*
X147638354Y-64320605D01*
X147568188Y-64490000D01*
X147519126Y-64490000D01*
X147138720Y-64647569D01*
X146847569Y-64938720D01*
X146690000Y-65319126D01*
X135282837Y-65319126D01*
X135061280Y-65097569D01*
X134680874Y-64940000D01*
X134269126Y-64940000D01*
X133888720Y-65097569D01*
X133597569Y-65388720D01*
X133440000Y-65769126D01*
X122381029Y-65769126D01*
X122418092Y-65582800D01*
X122302839Y-65003382D01*
X121974625Y-64512175D01*
X121676239Y-64312800D01*
X121974625Y-64113425D01*
X122020929Y-64044126D01*
X124715000Y-64044126D01*
X124715000Y-64455874D01*
X124872569Y-64836280D01*
X125163720Y-65127431D01*
X125544126Y-65285000D01*
X125955874Y-65285000D01*
X126336280Y-65127431D01*
X126627431Y-64836280D01*
X126785000Y-64455874D01*
X126785000Y-64219126D01*
X127365000Y-64219126D01*
X127365000Y-64630874D01*
X127522569Y-65011280D01*
X127813720Y-65302431D01*
X128194126Y-65460000D01*
X128605874Y-65460000D01*
X128986280Y-65302431D01*
X129277431Y-65011280D01*
X129435000Y-64630874D01*
X129435000Y-64219126D01*
X129277431Y-63838720D01*
X128986280Y-63547569D01*
X128605874Y-63390000D01*
X128194126Y-63390000D01*
X127813720Y-63547569D01*
X127522569Y-63838720D01*
X127365000Y-64219126D01*
X126785000Y-64219126D01*
X126785000Y-64044126D01*
X126627431Y-63663720D01*
X126336280Y-63372569D01*
X125955874Y-63215000D01*
X125544126Y-63215000D01*
X125163720Y-63372569D01*
X124872569Y-63663720D01*
X124715000Y-64044126D01*
X122020929Y-64044126D01*
X122302839Y-63622218D01*
X122418092Y-63042800D01*
X122414529Y-63024886D01*
X133422440Y-63024886D01*
X133422440Y-63436634D01*
X133580009Y-63817040D01*
X133871160Y-64108191D01*
X134251566Y-64265760D01*
X134663314Y-64265760D01*
X135043720Y-64108191D01*
X135334871Y-63817040D01*
X135492440Y-63436634D01*
X135492440Y-63024886D01*
X135334871Y-62644480D01*
X135043720Y-62353329D01*
X134663314Y-62195760D01*
X134251566Y-62195760D01*
X133871160Y-62353329D01*
X133580009Y-62644480D01*
X133422440Y-63024886D01*
X122414529Y-63024886D01*
X122302839Y-62463382D01*
X121974625Y-61972175D01*
X121676239Y-61772800D01*
X121974625Y-61573425D01*
X122127837Y-61344126D01*
X143315000Y-61344126D01*
X143315000Y-61755874D01*
X143472569Y-62136280D01*
X143763720Y-62427431D01*
X144144126Y-62585000D01*
X144555874Y-62585000D01*
X144936280Y-62427431D01*
X145227431Y-62136280D01*
X145385000Y-61755874D01*
X145385000Y-61344126D01*
X145227431Y-60963720D01*
X144936280Y-60672569D01*
X144555874Y-60515000D01*
X144144126Y-60515000D01*
X143763720Y-60672569D01*
X143472569Y-60963720D01*
X143315000Y-61344126D01*
X122127837Y-61344126D01*
X122302839Y-61082218D01*
X122418092Y-60502800D01*
X122302839Y-59923382D01*
X121974625Y-59432175D01*
X121483418Y-59103961D01*
X121050256Y-59017800D01*
X120757744Y-59017800D01*
X120324582Y-59103961D01*
X119833375Y-59432175D01*
X119634000Y-59730561D01*
X119434625Y-59432175D01*
X118943418Y-59103961D01*
X118510256Y-59017800D01*
X118217744Y-59017800D01*
X117784582Y-59103961D01*
X117293375Y-59432175D01*
X116965161Y-59923382D01*
X116849908Y-60502800D01*
X115888926Y-60502800D01*
X115898428Y-57924566D01*
X155368040Y-57924566D01*
X155368040Y-58336314D01*
X155525609Y-58716720D01*
X155816760Y-59007871D01*
X156197166Y-59165440D01*
X156608914Y-59165440D01*
X156989320Y-59007871D01*
X157178065Y-58819126D01*
X157540000Y-58819126D01*
X157540000Y-59230874D01*
X157697569Y-59611280D01*
X157988720Y-59902431D01*
X158369126Y-60060000D01*
X158780874Y-60060000D01*
X159161280Y-59902431D01*
X159452431Y-59611280D01*
X159610000Y-59230874D01*
X159610000Y-58819126D01*
X159452431Y-58438720D01*
X159161280Y-58147569D01*
X158780874Y-57990000D01*
X158369126Y-57990000D01*
X157988720Y-58147569D01*
X157697569Y-58438720D01*
X157540000Y-58819126D01*
X157178065Y-58819126D01*
X157280471Y-58716720D01*
X157438040Y-58336314D01*
X157438040Y-57924566D01*
X157280471Y-57544160D01*
X156989320Y-57253009D01*
X156608914Y-57095440D01*
X156197166Y-57095440D01*
X155816760Y-57253009D01*
X155525609Y-57544160D01*
X155368040Y-57924566D01*
X115898428Y-57924566D01*
X115919557Y-52191999D01*
X143877080Y-52191999D01*
X143877080Y-52603747D01*
X144034649Y-52984153D01*
X144325800Y-53275304D01*
X144706206Y-53432873D01*
X145117954Y-53432873D01*
X145498360Y-53275304D01*
X145789511Y-52984153D01*
X145947080Y-52603747D01*
X145947080Y-52191999D01*
X146412000Y-52191999D01*
X146412000Y-52603747D01*
X146569569Y-52984153D01*
X146860720Y-53275304D01*
X147241126Y-53432873D01*
X147652874Y-53432873D01*
X148033280Y-53275304D01*
X148324431Y-52984153D01*
X148482000Y-52603747D01*
X148482000Y-52191999D01*
X148340986Y-51851560D01*
X172216828Y-51851560D01*
X172332081Y-52430978D01*
X172660295Y-52922185D01*
X172958681Y-53121560D01*
X172660295Y-53320935D01*
X172332081Y-53812142D01*
X172216828Y-54391560D01*
X172332081Y-54970978D01*
X172660295Y-55462185D01*
X172958681Y-55661560D01*
X172660295Y-55860935D01*
X172332081Y-56352142D01*
X172216828Y-56931560D01*
X172332081Y-57510978D01*
X172660295Y-58002185D01*
X172958681Y-58201560D01*
X172660295Y-58400935D01*
X172332081Y-58892142D01*
X172216828Y-59471560D01*
X172332081Y-60050978D01*
X172660295Y-60542185D01*
X172958681Y-60741560D01*
X172660295Y-60940935D01*
X172332081Y-61432142D01*
X172216828Y-62011560D01*
X172332081Y-62590978D01*
X172660295Y-63082185D01*
X172958681Y-63281560D01*
X172660295Y-63480935D01*
X172332081Y-63972142D01*
X172216828Y-64551560D01*
X172332081Y-65130978D01*
X172660295Y-65622185D01*
X172958681Y-65821560D01*
X172660295Y-66020935D01*
X172332081Y-66512142D01*
X172216828Y-67091560D01*
X172332081Y-67670978D01*
X172660295Y-68162185D01*
X172958681Y-68361560D01*
X172660295Y-68560935D01*
X172332081Y-69052142D01*
X172216828Y-69631560D01*
X172332081Y-70210978D01*
X172660295Y-70702185D01*
X172958681Y-70901560D01*
X172660295Y-71100935D01*
X172332081Y-71592142D01*
X172216828Y-72171560D01*
X172332081Y-72750978D01*
X172660295Y-73242185D01*
X172958681Y-73441560D01*
X172660295Y-73640935D01*
X172332081Y-74132142D01*
X172216828Y-74711560D01*
X172332081Y-75290978D01*
X172660295Y-75782185D01*
X172958681Y-75981560D01*
X172660295Y-76180935D01*
X172332081Y-76672142D01*
X172216828Y-77251560D01*
X172332081Y-77830978D01*
X172660295Y-78322185D01*
X172958681Y-78521560D01*
X172660295Y-78720935D01*
X172332081Y-79212142D01*
X172216828Y-79791560D01*
X172332081Y-80370978D01*
X172660295Y-80862185D01*
X172958681Y-81061560D01*
X172660295Y-81260935D01*
X172332081Y-81752142D01*
X172216828Y-82331560D01*
X172332081Y-82910978D01*
X172660295Y-83402185D01*
X172958681Y-83601560D01*
X172660295Y-83800935D01*
X172332081Y-84292142D01*
X172216828Y-84871560D01*
X172332081Y-85450978D01*
X172660295Y-85942185D01*
X172958681Y-86141560D01*
X172660295Y-86340935D01*
X172332081Y-86832142D01*
X172216828Y-87411560D01*
X172332081Y-87990978D01*
X172660295Y-88482185D01*
X172678539Y-88494376D01*
X172633155Y-88503403D01*
X172423111Y-88643751D01*
X172282763Y-88853795D01*
X172233480Y-89101560D01*
X172233480Y-90801560D01*
X172282763Y-91049325D01*
X172423111Y-91259369D01*
X172633155Y-91399717D01*
X172880920Y-91449000D01*
X174580920Y-91449000D01*
X174828685Y-91399717D01*
X175038729Y-91259369D01*
X175179077Y-91049325D01*
X175228360Y-90801560D01*
X175228360Y-89101560D01*
X175179077Y-88853795D01*
X175038729Y-88643751D01*
X174828685Y-88503403D01*
X174783301Y-88494376D01*
X174801545Y-88482185D01*
X175129759Y-87990978D01*
X175245012Y-87411560D01*
X175129759Y-86832142D01*
X174801545Y-86340935D01*
X174503159Y-86141560D01*
X174801545Y-85942185D01*
X175129759Y-85450978D01*
X175245012Y-84871560D01*
X175129759Y-84292142D01*
X174801545Y-83800935D01*
X174503159Y-83601560D01*
X174801545Y-83402185D01*
X175129759Y-82910978D01*
X175245012Y-82331560D01*
X175129759Y-81752142D01*
X174801545Y-81260935D01*
X174503159Y-81061560D01*
X174801545Y-80862185D01*
X175129759Y-80370978D01*
X175245012Y-79791560D01*
X175129759Y-79212142D01*
X174801545Y-78720935D01*
X174503159Y-78521560D01*
X174801545Y-78322185D01*
X175129759Y-77830978D01*
X175245012Y-77251560D01*
X175129759Y-76672142D01*
X174801545Y-76180935D01*
X174503159Y-75981560D01*
X174801545Y-75782185D01*
X175129759Y-75290978D01*
X175245012Y-74711560D01*
X175129759Y-74132142D01*
X174801545Y-73640935D01*
X174503159Y-73441560D01*
X174801545Y-73242185D01*
X175129759Y-72750978D01*
X175245012Y-72171560D01*
X175129759Y-71592142D01*
X174801545Y-71100935D01*
X174503159Y-70901560D01*
X174801545Y-70702185D01*
X175129759Y-70210978D01*
X175245012Y-69631560D01*
X175129759Y-69052142D01*
X174801545Y-68560935D01*
X174503159Y-68361560D01*
X174801545Y-68162185D01*
X175129759Y-67670978D01*
X175245012Y-67091560D01*
X175129759Y-66512142D01*
X174801545Y-66020935D01*
X174503159Y-65821560D01*
X174801545Y-65622185D01*
X175129759Y-65130978D01*
X175245012Y-64551560D01*
X175129759Y-63972142D01*
X174801545Y-63480935D01*
X174503159Y-63281560D01*
X174801545Y-63082185D01*
X175129759Y-62590978D01*
X175245012Y-62011560D01*
X175129759Y-61432142D01*
X174801545Y-60940935D01*
X174503159Y-60741560D01*
X174801545Y-60542185D01*
X175129759Y-60050978D01*
X175245012Y-59471560D01*
X175129759Y-58892142D01*
X174801545Y-58400935D01*
X174503159Y-58201560D01*
X174801545Y-58002185D01*
X175129759Y-57510978D01*
X175245012Y-56931560D01*
X175129759Y-56352142D01*
X174801545Y-55860935D01*
X174503159Y-55661560D01*
X174801545Y-55462185D01*
X175129759Y-54970978D01*
X175245012Y-54391560D01*
X175129759Y-53812142D01*
X174801545Y-53320935D01*
X174503159Y-53121560D01*
X174801545Y-52922185D01*
X175129759Y-52430978D01*
X175245012Y-51851560D01*
X175129759Y-51272142D01*
X174801545Y-50780935D01*
X174310338Y-50452721D01*
X173877176Y-50366560D01*
X173584664Y-50366560D01*
X173151502Y-50452721D01*
X172660295Y-50780935D01*
X172332081Y-51272142D01*
X172216828Y-51851560D01*
X148340986Y-51851560D01*
X148324431Y-51811593D01*
X148033280Y-51520442D01*
X147652874Y-51362873D01*
X147241126Y-51362873D01*
X146860720Y-51520442D01*
X146569569Y-51811593D01*
X146412000Y-52191999D01*
X145947080Y-52191999D01*
X145789511Y-51811593D01*
X145498360Y-51520442D01*
X145117954Y-51362873D01*
X144706206Y-51362873D01*
X144325800Y-51520442D01*
X144034649Y-51811593D01*
X143877080Y-52191999D01*
X115919557Y-52191999D01*
X115933975Y-48280320D01*
X128132588Y-48280320D01*
X128247841Y-48859738D01*
X128576055Y-49350945D01*
X129067262Y-49679159D01*
X129500424Y-49765320D01*
X129792936Y-49765320D01*
X130226098Y-49679159D01*
X130717305Y-49350945D01*
X130916680Y-49052559D01*
X131116055Y-49350945D01*
X131607262Y-49679159D01*
X132040424Y-49765320D01*
X132332936Y-49765320D01*
X132766098Y-49679159D01*
X133257305Y-49350945D01*
X133456680Y-49052559D01*
X133656055Y-49350945D01*
X134147262Y-49679159D01*
X134580424Y-49765320D01*
X134872936Y-49765320D01*
X135306098Y-49679159D01*
X135797305Y-49350945D01*
X135996680Y-49052559D01*
X136196055Y-49350945D01*
X136687262Y-49679159D01*
X137120424Y-49765320D01*
X137412936Y-49765320D01*
X137846098Y-49679159D01*
X138337305Y-49350945D01*
X138536680Y-49052559D01*
X138736055Y-49350945D01*
X139227262Y-49679159D01*
X139660424Y-49765320D01*
X139952936Y-49765320D01*
X140386098Y-49679159D01*
X140877305Y-49350945D01*
X141076680Y-49052559D01*
X141276055Y-49350945D01*
X141767262Y-49679159D01*
X142200424Y-49765320D01*
X142492936Y-49765320D01*
X142926098Y-49679159D01*
X143417305Y-49350945D01*
X143616680Y-49052559D01*
X143816055Y-49350945D01*
X144307262Y-49679159D01*
X144740424Y-49765320D01*
X145032936Y-49765320D01*
X145466098Y-49679159D01*
X145957305Y-49350945D01*
X146156680Y-49052559D01*
X146356055Y-49350945D01*
X146847262Y-49679159D01*
X147280424Y-49765320D01*
X147572936Y-49765320D01*
X148006098Y-49679159D01*
X148497305Y-49350945D01*
X148696680Y-49052559D01*
X148896055Y-49350945D01*
X149387262Y-49679159D01*
X149820424Y-49765320D01*
X150112936Y-49765320D01*
X150546098Y-49679159D01*
X151037305Y-49350945D01*
X151236680Y-49052559D01*
X151436055Y-49350945D01*
X151927262Y-49679159D01*
X152360424Y-49765320D01*
X152652936Y-49765320D01*
X153086098Y-49679159D01*
X153577305Y-49350945D01*
X153776680Y-49052559D01*
X153976055Y-49350945D01*
X154467262Y-49679159D01*
X154900424Y-49765320D01*
X155192936Y-49765320D01*
X155626098Y-49679159D01*
X156117305Y-49350945D01*
X156316680Y-49052559D01*
X156516055Y-49350945D01*
X157007262Y-49679159D01*
X157440424Y-49765320D01*
X157732936Y-49765320D01*
X158166098Y-49679159D01*
X158657305Y-49350945D01*
X158856680Y-49052559D01*
X159056055Y-49350945D01*
X159547262Y-49679159D01*
X159980424Y-49765320D01*
X160272936Y-49765320D01*
X160706098Y-49679159D01*
X161197305Y-49350945D01*
X161396680Y-49052559D01*
X161596055Y-49350945D01*
X162087262Y-49679159D01*
X162520424Y-49765320D01*
X162812936Y-49765320D01*
X163246098Y-49679159D01*
X163737305Y-49350945D01*
X163936680Y-49052559D01*
X164136055Y-49350945D01*
X164627262Y-49679159D01*
X165060424Y-49765320D01*
X165352936Y-49765320D01*
X165786098Y-49679159D01*
X166277305Y-49350945D01*
X166289496Y-49332701D01*
X166298523Y-49378085D01*
X166438871Y-49588129D01*
X166648915Y-49728477D01*
X166896680Y-49777760D01*
X168596680Y-49777760D01*
X168844445Y-49728477D01*
X169054489Y-49588129D01*
X169194837Y-49378085D01*
X169244120Y-49130320D01*
X169244120Y-47430320D01*
X169194837Y-47182555D01*
X169054489Y-46972511D01*
X168844445Y-46832163D01*
X168596680Y-46782880D01*
X166896680Y-46782880D01*
X166648915Y-46832163D01*
X166438871Y-46972511D01*
X166298523Y-47182555D01*
X166289496Y-47227939D01*
X166277305Y-47209695D01*
X165786098Y-46881481D01*
X165352936Y-46795320D01*
X165060424Y-46795320D01*
X164627262Y-46881481D01*
X164136055Y-47209695D01*
X163936680Y-47508081D01*
X163737305Y-47209695D01*
X163246098Y-46881481D01*
X162812936Y-46795320D01*
X162520424Y-46795320D01*
X162087262Y-46881481D01*
X161596055Y-47209695D01*
X161396680Y-47508081D01*
X161197305Y-47209695D01*
X160706098Y-46881481D01*
X160272936Y-46795320D01*
X159980424Y-46795320D01*
X159547262Y-46881481D01*
X159056055Y-47209695D01*
X158856680Y-47508081D01*
X158657305Y-47209695D01*
X158166098Y-46881481D01*
X157732936Y-46795320D01*
X157440424Y-46795320D01*
X157007262Y-46881481D01*
X156516055Y-47209695D01*
X156316680Y-47508081D01*
X156117305Y-47209695D01*
X155626098Y-46881481D01*
X155192936Y-46795320D01*
X154900424Y-46795320D01*
X154467262Y-46881481D01*
X153976055Y-47209695D01*
X153776680Y-47508081D01*
X153577305Y-47209695D01*
X153086098Y-46881481D01*
X152652936Y-46795320D01*
X152360424Y-46795320D01*
X151927262Y-46881481D01*
X151436055Y-47209695D01*
X151236680Y-47508081D01*
X151037305Y-47209695D01*
X150546098Y-46881481D01*
X150112936Y-46795320D01*
X149820424Y-46795320D01*
X149387262Y-46881481D01*
X148896055Y-47209695D01*
X148696680Y-47508081D01*
X148497305Y-47209695D01*
X148006098Y-46881481D01*
X147572936Y-46795320D01*
X147280424Y-46795320D01*
X146847262Y-46881481D01*
X146356055Y-47209695D01*
X146156680Y-47508081D01*
X145957305Y-47209695D01*
X145466098Y-46881481D01*
X145032936Y-46795320D01*
X144740424Y-46795320D01*
X144307262Y-46881481D01*
X143816055Y-47209695D01*
X143616680Y-47508081D01*
X143417305Y-47209695D01*
X142926098Y-46881481D01*
X142492936Y-46795320D01*
X142200424Y-46795320D01*
X141767262Y-46881481D01*
X141276055Y-47209695D01*
X141076680Y-47508081D01*
X140877305Y-47209695D01*
X140386098Y-46881481D01*
X139952936Y-46795320D01*
X139660424Y-46795320D01*
X139227262Y-46881481D01*
X138736055Y-47209695D01*
X138536680Y-47508081D01*
X138337305Y-47209695D01*
X137846098Y-46881481D01*
X137412936Y-46795320D01*
X137120424Y-46795320D01*
X136687262Y-46881481D01*
X136196055Y-47209695D01*
X135996680Y-47508081D01*
X135797305Y-47209695D01*
X135306098Y-46881481D01*
X134872936Y-46795320D01*
X134580424Y-46795320D01*
X134147262Y-46881481D01*
X133656055Y-47209695D01*
X133456680Y-47508081D01*
X133257305Y-47209695D01*
X132766098Y-46881481D01*
X132332936Y-46795320D01*
X132040424Y-46795320D01*
X131607262Y-46881481D01*
X131116055Y-47209695D01*
X130916680Y-47508081D01*
X130717305Y-47209695D01*
X130226098Y-46881481D01*
X129792936Y-46795320D01*
X129500424Y-46795320D01*
X129067262Y-46881481D01*
X128576055Y-47209695D01*
X128247841Y-47700902D01*
X128132588Y-48280320D01*
X115933975Y-48280320D01*
X115945452Y-45166535D01*
X176357268Y-45287945D01*
X176357268Y-45287945D01*
G37*
X176357268Y-45287945D02*
X176352212Y-97327635D01*
X115753349Y-97287165D01*
X115770487Y-92637240D01*
X116968160Y-92637240D01*
X116968160Y-94337240D01*
X117017443Y-94585005D01*
X117157791Y-94795049D01*
X117367835Y-94935397D01*
X117615600Y-94984680D01*
X119315600Y-94984680D01*
X119563365Y-94935397D01*
X119773409Y-94795049D01*
X119913757Y-94585005D01*
X119934339Y-94481532D01*
X120238676Y-94758885D01*
X120648710Y-94928716D01*
X120878600Y-94807395D01*
X120878600Y-93614240D01*
X121132600Y-93614240D01*
X121132600Y-94807395D01*
X121362490Y-94928716D01*
X121772524Y-94758885D01*
X122200783Y-94368598D01*
X122447086Y-93844132D01*
X122326419Y-93614240D01*
X121132600Y-93614240D01*
X120878600Y-93614240D01*
X120858600Y-93614240D01*
X120858600Y-93360240D01*
X120878600Y-93360240D01*
X120878600Y-92167085D01*
X121132600Y-92167085D01*
X121132600Y-93360240D01*
X122326419Y-93360240D01*
X122447086Y-93130348D01*
X122222667Y-92652480D01*
X127956200Y-92652480D01*
X127956200Y-94352480D01*
X128005483Y-94600245D01*
X128145831Y-94810289D01*
X128355875Y-94950637D01*
X128603640Y-94999920D01*
X130303640Y-94999920D01*
X130551405Y-94950637D01*
X130761449Y-94810289D01*
X130901797Y-94600245D01*
X130910824Y-94554861D01*
X130923015Y-94573105D01*
X131414222Y-94901319D01*
X131847384Y-94987480D01*
X132139896Y-94987480D01*
X132573058Y-94901319D01*
X133064265Y-94573105D01*
X133263640Y-94274719D01*
X133463015Y-94573105D01*
X133954222Y-94901319D01*
X134387384Y-94987480D01*
X134679896Y-94987480D01*
X135113058Y-94901319D01*
X135604265Y-94573105D01*
X135803640Y-94274719D01*
X136003015Y-94573105D01*
X136494222Y-94901319D01*
X136927384Y-94987480D01*
X137219896Y-94987480D01*
X137653058Y-94901319D01*
X138144265Y-94573105D01*
X138343640Y-94274719D01*
X138543015Y-94573105D01*
X139034222Y-94901319D01*
X139467384Y-94987480D01*
X139759896Y-94987480D01*
X140193058Y-94901319D01*
X140684265Y-94573105D01*
X140883640Y-94274719D01*
X141083015Y-94573105D01*
X141574222Y-94901319D01*
X142007384Y-94987480D01*
X142299896Y-94987480D01*
X142733058Y-94901319D01*
X143224265Y-94573105D01*
X143423640Y-94274719D01*
X143623015Y-94573105D01*
X144114222Y-94901319D01*
X144547384Y-94987480D01*
X144839896Y-94987480D01*
X145273058Y-94901319D01*
X145764265Y-94573105D01*
X145963640Y-94274719D01*
X146163015Y-94573105D01*
X146654222Y-94901319D01*
X147087384Y-94987480D01*
X147379896Y-94987480D01*
X147813058Y-94901319D01*
X148304265Y-94573105D01*
X148503640Y-94274719D01*
X148703015Y-94573105D01*
X149194222Y-94901319D01*
X149627384Y-94987480D01*
X149919896Y-94987480D01*
X150353058Y-94901319D01*
X150844265Y-94573105D01*
X151043640Y-94274719D01*
X151243015Y-94573105D01*
X151734222Y-94901319D01*
X152167384Y-94987480D01*
X152459896Y-94987480D01*
X152893058Y-94901319D01*
X153384265Y-94573105D01*
X153583640Y-94274719D01*
X153783015Y-94573105D01*
X154274222Y-94901319D01*
X154707384Y-94987480D01*
X154999896Y-94987480D01*
X155433058Y-94901319D01*
X155924265Y-94573105D01*
X156123640Y-94274719D01*
X156323015Y-94573105D01*
X156814222Y-94901319D01*
X157247384Y-94987480D01*
X157539896Y-94987480D01*
X157973058Y-94901319D01*
X158464265Y-94573105D01*
X158663640Y-94274719D01*
X158863015Y-94573105D01*
X159354222Y-94901319D01*
X159787384Y-94987480D01*
X160079896Y-94987480D01*
X160513058Y-94901319D01*
X161004265Y-94573105D01*
X161203640Y-94274719D01*
X161403015Y-94573105D01*
X161894222Y-94901319D01*
X162327384Y-94987480D01*
X162619896Y-94987480D01*
X163053058Y-94901319D01*
X163544265Y-94573105D01*
X163743640Y-94274719D01*
X163943015Y-94573105D01*
X164434222Y-94901319D01*
X164867384Y-94987480D01*
X165159896Y-94987480D01*
X165593058Y-94901319D01*
X166084265Y-94573105D01*
X166283640Y-94274719D01*
X166483015Y-94573105D01*
X166974222Y-94901319D01*
X167407384Y-94987480D01*
X167699896Y-94987480D01*
X168133058Y-94901319D01*
X168624265Y-94573105D01*
X168952479Y-94081898D01*
X169067732Y-93502480D01*
X168952479Y-92923062D01*
X168624265Y-92431855D01*
X168133058Y-92103641D01*
X167699896Y-92017480D01*
X167407384Y-92017480D01*
X166974222Y-92103641D01*
X166483015Y-92431855D01*
X166283640Y-92730241D01*
X166084265Y-92431855D01*
X165593058Y-92103641D01*
X165159896Y-92017480D01*
X164867384Y-92017480D01*
X164434222Y-92103641D01*
X163943015Y-92431855D01*
X163743640Y-92730241D01*
X163544265Y-92431855D01*
X163053058Y-92103641D01*
X162619896Y-92017480D01*
X162327384Y-92017480D01*
X161894222Y-92103641D01*
X161403015Y-92431855D01*
X161203640Y-92730241D01*
X161004265Y-92431855D01*
X160513058Y-92103641D01*
X160079896Y-92017480D01*
X159787384Y-92017480D01*
X159354222Y-92103641D01*
X158863015Y-92431855D01*
X158663640Y-92730241D01*
X158464265Y-92431855D01*
X157973058Y-92103641D01*
X157539896Y-92017480D01*
X157247384Y-92017480D01*
X156814222Y-92103641D01*
X156323015Y-92431855D01*
X156123640Y-92730241D01*
X155924265Y-92431855D01*
X155433058Y-92103641D01*
X154999896Y-92017480D01*
X154707384Y-92017480D01*
X154274222Y-92103641D01*
X153783015Y-92431855D01*
X153583640Y-92730241D01*
X153384265Y-92431855D01*
X152893058Y-92103641D01*
X152459896Y-92017480D01*
X152167384Y-92017480D01*
X151734222Y-92103641D01*
X151243015Y-92431855D01*
X151043640Y-92730241D01*
X150844265Y-92431855D01*
X150353058Y-92103641D01*
X149919896Y-92017480D01*
X149627384Y-92017480D01*
X149194222Y-92103641D01*
X148703015Y-92431855D01*
X148503640Y-92730241D01*
X148304265Y-92431855D01*
X147813058Y-92103641D01*
X147379896Y-92017480D01*
X147087384Y-92017480D01*
X146654222Y-92103641D01*
X146163015Y-92431855D01*
X145963640Y-92730241D01*
X145764265Y-92431855D01*
X145273058Y-92103641D01*
X144839896Y-92017480D01*
X144547384Y-92017480D01*
X144114222Y-92103641D01*
X143623015Y-92431855D01*
X143423640Y-92730241D01*
X143224265Y-92431855D01*
X142733058Y-92103641D01*
X142299896Y-92017480D01*
X142007384Y-92017480D01*
X141574222Y-92103641D01*
X141083015Y-92431855D01*
X140883640Y-92730241D01*
X140684265Y-92431855D01*
X140193058Y-92103641D01*
X139759896Y-92017480D01*
X139467384Y-92017480D01*
X139034222Y-92103641D01*
X138543015Y-92431855D01*
X138343640Y-92730241D01*
X138144265Y-92431855D01*
X137653058Y-92103641D01*
X137219896Y-92017480D01*
X136927384Y-92017480D01*
X136494222Y-92103641D01*
X136003015Y-92431855D01*
X135803640Y-92730241D01*
X135604265Y-92431855D01*
X135113058Y-92103641D01*
X134679896Y-92017480D01*
X134387384Y-92017480D01*
X133954222Y-92103641D01*
X133463015Y-92431855D01*
X133263640Y-92730241D01*
X133064265Y-92431855D01*
X132573058Y-92103641D01*
X132139896Y-92017480D01*
X131847384Y-92017480D01*
X131414222Y-92103641D01*
X130923015Y-92431855D01*
X130910824Y-92450099D01*
X130901797Y-92404715D01*
X130761449Y-92194671D01*
X130551405Y-92054323D01*
X130303640Y-92005040D01*
X128603640Y-92005040D01*
X128355875Y-92054323D01*
X128145831Y-92194671D01*
X128005483Y-92404715D01*
X127956200Y-92652480D01*
X122222667Y-92652480D01*
X122200783Y-92605882D01*
X121772524Y-92215595D01*
X121362490Y-92045764D01*
X121132600Y-92167085D01*
X120878600Y-92167085D01*
X120648710Y-92045764D01*
X120238676Y-92215595D01*
X119934339Y-92492948D01*
X119913757Y-92389475D01*
X119773409Y-92179431D01*
X119563365Y-92039083D01*
X119315600Y-91989800D01*
X117615600Y-91989800D01*
X117367835Y-92039083D01*
X117157791Y-92179431D01*
X117017443Y-92389475D01*
X116968160Y-92637240D01*
X115770487Y-92637240D01*
X115787590Y-87996747D01*
X148699420Y-87996747D01*
X148699420Y-88408495D01*
X148856989Y-88788901D01*
X149148140Y-89080052D01*
X149528546Y-89237621D01*
X149667529Y-89237621D01*
X149702708Y-89322551D01*
X149993859Y-89613702D01*
X150374265Y-89771271D01*
X150702786Y-89771271D01*
X150920701Y-89989186D01*
X151301107Y-90146755D01*
X151712855Y-90146755D01*
X151721440Y-90143199D01*
X151872911Y-90294670D01*
X152253317Y-90452239D01*
X152665065Y-90452239D01*
X153045471Y-90294670D01*
X153336622Y-90003519D01*
X153494191Y-89623113D01*
X153494191Y-89211365D01*
X153336622Y-88830959D01*
X153045471Y-88539808D01*
X152665065Y-88382239D01*
X152253317Y-88382239D01*
X152244732Y-88385795D01*
X152093261Y-88234324D01*
X151712855Y-88076755D01*
X151384334Y-88076755D01*
X151166419Y-87858840D01*
X150786013Y-87701271D01*
X150647030Y-87701271D01*
X150611851Y-87616341D01*
X150320700Y-87325190D01*
X149940294Y-87167621D01*
X149528546Y-87167621D01*
X149148140Y-87325190D01*
X148856989Y-87616341D01*
X148699420Y-87996747D01*
X115787590Y-87996747D01*
X115797551Y-85294118D01*
X144390030Y-85294118D01*
X144390030Y-85705866D01*
X144547599Y-86086272D01*
X144838750Y-86377423D01*
X145219156Y-86534992D01*
X145630904Y-86534992D01*
X146011310Y-86377423D01*
X146075032Y-86313702D01*
X146288761Y-86527431D01*
X146669167Y-86685000D01*
X147080915Y-86685000D01*
X147461321Y-86527431D01*
X147752472Y-86236280D01*
X147910041Y-85855874D01*
X147910041Y-85444126D01*
X147752472Y-85063720D01*
X147461321Y-84772569D01*
X147080915Y-84615000D01*
X146669167Y-84615000D01*
X146591039Y-84647362D01*
X146660000Y-84480874D01*
X146660000Y-84069126D01*
X146618041Y-83967828D01*
X146836280Y-83877431D01*
X147127431Y-83586280D01*
X147285000Y-83205874D01*
X147285000Y-83163022D01*
X147519126Y-83260000D01*
X147930874Y-83260000D01*
X148311280Y-83102431D01*
X148315028Y-83098683D01*
X148644126Y-83235000D01*
X149055874Y-83235000D01*
X149223433Y-83165595D01*
X149237471Y-83199485D01*
X149528622Y-83490636D01*
X149909028Y-83648205D01*
X150320776Y-83648205D01*
X150701182Y-83490636D01*
X150992333Y-83199485D01*
X151149902Y-82819079D01*
X151149902Y-82407331D01*
X151133025Y-82366587D01*
X151262854Y-82236758D01*
X151414071Y-81871686D01*
X153305560Y-81871686D01*
X153305560Y-82283434D01*
X153463129Y-82663840D01*
X153754280Y-82954991D01*
X154134686Y-83112560D01*
X154546434Y-83112560D01*
X154926840Y-82954991D01*
X155217991Y-82663840D01*
X155375560Y-82283434D01*
X155375560Y-81871686D01*
X155217991Y-81491280D01*
X154926840Y-81200129D01*
X154546434Y-81042560D01*
X154134686Y-81042560D01*
X153754280Y-81200129D01*
X153463129Y-81491280D01*
X153305560Y-81871686D01*
X151414071Y-81871686D01*
X151420423Y-81856352D01*
X151420423Y-81444604D01*
X151262854Y-81064198D01*
X150971703Y-80773047D01*
X150591297Y-80615478D01*
X150179549Y-80615478D01*
X149799143Y-80773047D01*
X149507992Y-81064198D01*
X149406142Y-81310086D01*
X149055874Y-81165000D01*
X148644126Y-81165000D01*
X148263720Y-81322569D01*
X148259972Y-81326317D01*
X147930874Y-81190000D01*
X147519126Y-81190000D01*
X147138720Y-81347569D01*
X146847569Y-81638720D01*
X146690000Y-82019126D01*
X146690000Y-82061978D01*
X146455874Y-81965000D01*
X146044126Y-81965000D01*
X145663720Y-82122569D01*
X145372569Y-82413720D01*
X145215000Y-82794126D01*
X145215000Y-83205874D01*
X145256959Y-83307172D01*
X145038720Y-83397569D01*
X144747569Y-83688720D01*
X144590000Y-84069126D01*
X144590000Y-84480874D01*
X144704356Y-84756955D01*
X144547599Y-84913712D01*
X144390030Y-85294118D01*
X115797551Y-85294118D01*
X115803354Y-83719690D01*
X116922524Y-83719690D01*
X117092355Y-84129724D01*
X117482642Y-84557983D01*
X118007108Y-84804286D01*
X118237000Y-84683619D01*
X118237000Y-83489800D01*
X118491000Y-83489800D01*
X118491000Y-84683619D01*
X118720892Y-84804286D01*
X119245358Y-84557983D01*
X119427070Y-84358592D01*
X119515673Y-84572499D01*
X119694302Y-84751127D01*
X119927691Y-84847800D01*
X120618250Y-84847800D01*
X120777000Y-84689050D01*
X120777000Y-83489800D01*
X121031000Y-83489800D01*
X121031000Y-84689050D01*
X121189750Y-84847800D01*
X121880309Y-84847800D01*
X122113698Y-84751127D01*
X122292327Y-84572499D01*
X122389000Y-84339110D01*
X122389000Y-83648550D01*
X122230250Y-83489800D01*
X121031000Y-83489800D01*
X120777000Y-83489800D01*
X118491000Y-83489800D01*
X118237000Y-83489800D01*
X117043845Y-83489800D01*
X116922524Y-83719690D01*
X115803354Y-83719690D01*
X115888926Y-60502800D01*
X116849908Y-60502800D01*
X116965161Y-61082218D01*
X117293375Y-61573425D01*
X117591761Y-61772800D01*
X117293375Y-61972175D01*
X116965161Y-62463382D01*
X116849908Y-63042800D01*
X116965161Y-63622218D01*
X117293375Y-64113425D01*
X117591761Y-64312800D01*
X117293375Y-64512175D01*
X116965161Y-65003382D01*
X116849908Y-65582800D01*
X116965161Y-66162218D01*
X117293375Y-66653425D01*
X117591761Y-66852800D01*
X117293375Y-67052175D01*
X116965161Y-67543382D01*
X116849908Y-68122800D01*
X116965161Y-68702218D01*
X117293375Y-69193425D01*
X117591761Y-69392800D01*
X117293375Y-69592175D01*
X116965161Y-70083382D01*
X116849908Y-70662800D01*
X116965161Y-71242218D01*
X117293375Y-71733425D01*
X117591761Y-71932800D01*
X117293375Y-72132175D01*
X116965161Y-72623382D01*
X116849908Y-73202800D01*
X116965161Y-73782218D01*
X117293375Y-74273425D01*
X117591761Y-74472800D01*
X117293375Y-74672175D01*
X116965161Y-75163382D01*
X116849908Y-75742800D01*
X116965161Y-76322218D01*
X117293375Y-76813425D01*
X117591761Y-77012800D01*
X117293375Y-77212175D01*
X116965161Y-77703382D01*
X116849908Y-78282800D01*
X116965161Y-78862218D01*
X117293375Y-79353425D01*
X117591761Y-79552800D01*
X117293375Y-79752175D01*
X116965161Y-80243382D01*
X116849908Y-80822800D01*
X116965161Y-81402218D01*
X117293375Y-81893425D01*
X117612478Y-82106643D01*
X117482642Y-82167617D01*
X117092355Y-82595876D01*
X116922524Y-83005910D01*
X117043845Y-83235800D01*
X118237000Y-83235800D01*
X118237000Y-83215800D01*
X118491000Y-83215800D01*
X118491000Y-83235800D01*
X120777000Y-83235800D01*
X120777000Y-83215800D01*
X121031000Y-83215800D01*
X121031000Y-83235800D01*
X122230250Y-83235800D01*
X122389000Y-83077050D01*
X122389000Y-82386490D01*
X122292327Y-82153101D01*
X122113698Y-81974473D01*
X121952967Y-81907896D01*
X121974625Y-81893425D01*
X122302839Y-81402218D01*
X122418092Y-80822800D01*
X122302839Y-80243382D01*
X121974625Y-79752175D01*
X121676239Y-79552800D01*
X121974625Y-79353425D01*
X122302839Y-78862218D01*
X122418092Y-78282800D01*
X122302839Y-77703382D01*
X121974625Y-77212175D01*
X121676239Y-77012800D01*
X121974625Y-76813425D01*
X122302839Y-76322218D01*
X122313399Y-76269126D01*
X130165000Y-76269126D01*
X130165000Y-76680874D01*
X130322569Y-77061280D01*
X130613720Y-77352431D01*
X130994126Y-77510000D01*
X131405874Y-77510000D01*
X131786280Y-77352431D01*
X131812499Y-77326212D01*
X131863718Y-77377431D01*
X132244124Y-77535000D01*
X132655872Y-77535000D01*
X133036278Y-77377431D01*
X133124999Y-77288710D01*
X133213720Y-77377431D01*
X133498640Y-77495448D01*
X133498640Y-77630874D01*
X133656209Y-78011280D01*
X133947360Y-78302431D01*
X134327766Y-78460000D01*
X134365000Y-78460000D01*
X134365000Y-78505872D01*
X134522569Y-78886278D01*
X134813720Y-79177429D01*
X135194126Y-79334998D01*
X135605874Y-79334998D01*
X135986280Y-79177429D01*
X136277431Y-78886278D01*
X136435000Y-78505872D01*
X136435000Y-78094124D01*
X136387897Y-77980406D01*
X153330960Y-77980406D01*
X153330960Y-78392154D01*
X153488529Y-78772560D01*
X153779680Y-79063711D01*
X154160086Y-79221280D01*
X154571834Y-79221280D01*
X154952240Y-79063711D01*
X155043291Y-78972660D01*
X157104973Y-78972660D01*
X157104973Y-79384408D01*
X157262542Y-79764814D01*
X157553693Y-80055965D01*
X157934099Y-80213534D01*
X158345847Y-80213534D01*
X158726253Y-80055965D01*
X159017404Y-79764814D01*
X159174973Y-79384408D01*
X159174973Y-79269503D01*
X159213491Y-79269503D01*
X159593897Y-79111934D01*
X159885048Y-78820783D01*
X160042617Y-78440377D01*
X160042617Y-78151953D01*
X160288709Y-77905861D01*
X160446278Y-77525455D01*
X160446278Y-77321989D01*
X160759927Y-77321989D01*
X161140333Y-77164420D01*
X161431484Y-76873269D01*
X161589053Y-76492863D01*
X161589053Y-76081115D01*
X161431484Y-75700709D01*
X161140333Y-75409558D01*
X160759927Y-75251989D01*
X160348179Y-75251989D01*
X159967773Y-75409558D01*
X159676622Y-75700709D01*
X159519053Y-76081115D01*
X159519053Y-76284581D01*
X159205404Y-76284581D01*
X158824998Y-76442150D01*
X158533847Y-76733301D01*
X158376278Y-77113707D01*
X158376278Y-77402131D01*
X158130186Y-77648223D01*
X157972617Y-78028629D01*
X157972617Y-78143534D01*
X157934099Y-78143534D01*
X157553693Y-78301103D01*
X157262542Y-78592254D01*
X157104973Y-78972660D01*
X155043291Y-78972660D01*
X155243391Y-78772560D01*
X155400960Y-78392154D01*
X155400960Y-77980406D01*
X155243391Y-77600000D01*
X154952240Y-77308849D01*
X154571834Y-77151280D01*
X154160086Y-77151280D01*
X153779680Y-77308849D01*
X153488529Y-77600000D01*
X153330960Y-77980406D01*
X136387897Y-77980406D01*
X136277431Y-77713718D01*
X135986280Y-77422567D01*
X135605874Y-77264998D01*
X135568640Y-77264998D01*
X135568640Y-77219126D01*
X135411071Y-76838720D01*
X135119920Y-76547569D01*
X134835000Y-76429552D01*
X134835000Y-76294126D01*
X134677431Y-75913720D01*
X134386280Y-75622569D01*
X134005874Y-75465000D01*
X133594126Y-75465000D01*
X133213720Y-75622569D01*
X133124999Y-75711290D01*
X133036278Y-75622569D01*
X132655872Y-75465000D01*
X132244124Y-75465000D01*
X131863718Y-75622569D01*
X131837499Y-75648788D01*
X131786280Y-75597569D01*
X131405874Y-75440000D01*
X130994126Y-75440000D01*
X130613720Y-75597569D01*
X130322569Y-75888720D01*
X130165000Y-76269126D01*
X122313399Y-76269126D01*
X122418092Y-75742800D01*
X122302839Y-75163382D01*
X121989293Y-74694126D01*
X137215000Y-74694126D01*
X137215000Y-75105874D01*
X137372569Y-75486280D01*
X137663720Y-75777431D01*
X138044126Y-75935000D01*
X138455874Y-75935000D01*
X138836280Y-75777431D01*
X139127431Y-75486280D01*
X139252225Y-75185000D01*
X139430874Y-75185000D01*
X139811280Y-75027431D01*
X140102431Y-74736280D01*
X140260000Y-74355874D01*
X140260000Y-74273377D01*
X140469128Y-74360000D01*
X140880876Y-74360000D01*
X141261282Y-74202431D01*
X141552433Y-73911280D01*
X141558331Y-73897042D01*
X141713738Y-74052449D01*
X142094144Y-74210018D01*
X142505892Y-74210018D01*
X142886298Y-74052449D01*
X143177449Y-73761298D01*
X143209053Y-73685000D01*
X143505874Y-73685000D01*
X143886280Y-73527431D01*
X143894585Y-73519126D01*
X146015000Y-73519126D01*
X146015000Y-73930874D01*
X146172569Y-74311280D01*
X146463720Y-74602431D01*
X146844126Y-74760000D01*
X147255874Y-74760000D01*
X147636280Y-74602431D01*
X147927431Y-74311280D01*
X148085000Y-73930874D01*
X148085000Y-73519126D01*
X147927431Y-73138720D01*
X147636280Y-72847569D01*
X147255874Y-72690000D01*
X146844126Y-72690000D01*
X146463720Y-72847569D01*
X146172569Y-73138720D01*
X146015000Y-73519126D01*
X143894585Y-73519126D01*
X144177431Y-73236280D01*
X144335000Y-72855874D01*
X144335000Y-72444126D01*
X144177431Y-72063720D01*
X143886280Y-71772569D01*
X143505874Y-71615000D01*
X143094126Y-71615000D01*
X142713720Y-71772569D01*
X142422569Y-72063720D01*
X142390965Y-72140018D01*
X142094144Y-72140018D01*
X141713738Y-72297587D01*
X141422587Y-72588738D01*
X141416689Y-72602976D01*
X141261282Y-72447569D01*
X140880876Y-72290000D01*
X140469128Y-72290000D01*
X140088722Y-72447569D01*
X139797571Y-72738720D01*
X139640002Y-73119126D01*
X139640002Y-73201623D01*
X139430874Y-73115000D01*
X139019126Y-73115000D01*
X138638720Y-73272569D01*
X138347569Y-73563720D01*
X138222775Y-73865000D01*
X138044126Y-73865000D01*
X137663720Y-74022569D01*
X137372569Y-74313720D01*
X137215000Y-74694126D01*
X121989293Y-74694126D01*
X121974625Y-74672175D01*
X121676239Y-74472800D01*
X121974625Y-74273425D01*
X122302839Y-73782218D01*
X122418092Y-73202800D01*
X122302839Y-72623382D01*
X121974625Y-72132175D01*
X121676239Y-71932800D01*
X121974625Y-71733425D01*
X122302839Y-71242218D01*
X122418092Y-70662800D01*
X122302839Y-70083382D01*
X122004913Y-69637504D01*
X142574529Y-69637504D01*
X142574529Y-70049252D01*
X142732098Y-70429658D01*
X143023249Y-70720809D01*
X143403655Y-70878378D01*
X143815403Y-70878378D01*
X144195809Y-70720809D01*
X144486960Y-70429658D01*
X144644529Y-70049252D01*
X144644529Y-69637504D01*
X144521020Y-69339326D01*
X146803160Y-69339326D01*
X146803160Y-69751074D01*
X146960729Y-70131480D01*
X147251880Y-70422631D01*
X147632286Y-70580200D01*
X148044034Y-70580200D01*
X148424440Y-70422631D01*
X148715591Y-70131480D01*
X148873160Y-69751074D01*
X148873160Y-69339326D01*
X148715591Y-68958920D01*
X148424440Y-68667769D01*
X148044034Y-68510200D01*
X147632286Y-68510200D01*
X147251880Y-68667769D01*
X146960729Y-68958920D01*
X146803160Y-69339326D01*
X144521020Y-69339326D01*
X144486960Y-69257098D01*
X144195809Y-68965947D01*
X143815403Y-68808378D01*
X143403655Y-68808378D01*
X143023249Y-68965947D01*
X142732098Y-69257098D01*
X142574529Y-69637504D01*
X122004913Y-69637504D01*
X121974625Y-69592175D01*
X121676239Y-69392800D01*
X121974625Y-69193425D01*
X122302839Y-68702218D01*
X122418092Y-68122800D01*
X122302839Y-67543382D01*
X121974625Y-67052175D01*
X121676239Y-66852800D01*
X121974625Y-66653425D01*
X122302839Y-66162218D01*
X122381029Y-65769126D01*
X133440000Y-65769126D01*
X133440000Y-66180874D01*
X133597569Y-66561280D01*
X133888720Y-66852431D01*
X134269126Y-67010000D01*
X134680874Y-67010000D01*
X135061280Y-66852431D01*
X135352431Y-66561280D01*
X135510000Y-66180874D01*
X135510000Y-65769126D01*
X135352431Y-65388720D01*
X135282837Y-65319126D01*
X146690000Y-65319126D01*
X146690000Y-65730874D01*
X146847569Y-66111280D01*
X147138720Y-66402431D01*
X147519126Y-66560000D01*
X147930874Y-66560000D01*
X148311280Y-66402431D01*
X148602431Y-66111280D01*
X148672597Y-65941885D01*
X148721659Y-65941885D01*
X149100886Y-65784804D01*
X153274641Y-65784804D01*
X153274641Y-66196552D01*
X153432210Y-66576958D01*
X153723361Y-66868109D01*
X154103767Y-67025678D01*
X154515515Y-67025678D01*
X154895921Y-66868109D01*
X155187072Y-66576958D01*
X155344641Y-66196552D01*
X155344641Y-65784804D01*
X155230198Y-65508513D01*
X155452431Y-65286280D01*
X155530969Y-65096672D01*
X163524018Y-65096672D01*
X163524018Y-65508420D01*
X163681587Y-65888826D01*
X163972738Y-66179977D01*
X164345415Y-66334344D01*
X164043308Y-66459481D01*
X163752157Y-66750632D01*
X163594588Y-67131038D01*
X163594588Y-67542786D01*
X163752157Y-67923192D01*
X164043308Y-68214343D01*
X164423714Y-68371912D01*
X164835462Y-68371912D01*
X165215868Y-68214343D01*
X165507019Y-67923192D01*
X165664588Y-67542786D01*
X165664588Y-67131038D01*
X165507019Y-66750632D01*
X165215868Y-66459481D01*
X164843191Y-66305114D01*
X165145298Y-66179977D01*
X165436449Y-65888826D01*
X165594018Y-65508420D01*
X165594018Y-65493826D01*
X165787706Y-65413598D01*
X166078857Y-65122447D01*
X166214726Y-64794430D01*
X166480743Y-64684242D01*
X166771894Y-64393091D01*
X166929463Y-64012685D01*
X166929463Y-63983743D01*
X167111578Y-63908309D01*
X167402729Y-63617158D01*
X167560298Y-63236752D01*
X167560298Y-63152102D01*
X167861280Y-63027431D01*
X168152431Y-62736280D01*
X168310000Y-62355874D01*
X168310000Y-61944126D01*
X168152431Y-61563720D01*
X167861280Y-61272569D01*
X167480874Y-61115000D01*
X167069126Y-61115000D01*
X166688720Y-61272569D01*
X166397569Y-61563720D01*
X166240000Y-61944126D01*
X166240000Y-62028776D01*
X165939018Y-62153447D01*
X165647867Y-62444598D01*
X165490298Y-62825004D01*
X165490298Y-62853946D01*
X165308183Y-62929380D01*
X165017032Y-63220531D01*
X164881163Y-63548548D01*
X164615146Y-63658736D01*
X164323995Y-63949887D01*
X164166426Y-64330293D01*
X164166426Y-64344887D01*
X163972738Y-64425115D01*
X163681587Y-64716266D01*
X163524018Y-65096672D01*
X155530969Y-65096672D01*
X155610000Y-64905874D01*
X155610000Y-64494126D01*
X155574553Y-64408550D01*
X155584672Y-64404359D01*
X155875823Y-64113208D01*
X156033392Y-63732802D01*
X156033392Y-63321054D01*
X155918949Y-63044762D01*
X156127431Y-62836280D01*
X156285000Y-62455874D01*
X156285000Y-62044126D01*
X156243579Y-61944126D01*
X160290000Y-61944126D01*
X160290000Y-62355874D01*
X160447569Y-62736280D01*
X160738720Y-63027431D01*
X161119126Y-63185000D01*
X161530874Y-63185000D01*
X161911280Y-63027431D01*
X162202431Y-62736280D01*
X162343106Y-62396661D01*
X162357016Y-62396661D01*
X162737422Y-62239092D01*
X163028573Y-61947941D01*
X163165235Y-61618009D01*
X163423120Y-61511190D01*
X163714271Y-61220039D01*
X163871840Y-60839633D01*
X163871840Y-60828142D01*
X164156029Y-60710427D01*
X164447180Y-60419276D01*
X164604749Y-60038870D01*
X164604749Y-60033685D01*
X164861280Y-59927427D01*
X165152431Y-59636276D01*
X165310000Y-59255870D01*
X165310000Y-58844122D01*
X165152431Y-58463716D01*
X164861280Y-58172565D01*
X164480874Y-58014996D01*
X164069126Y-58014996D01*
X163688720Y-58172565D01*
X163397569Y-58463716D01*
X163240000Y-58844122D01*
X163240000Y-58849307D01*
X162983469Y-58955565D01*
X162692318Y-59246716D01*
X162534749Y-59627122D01*
X162534749Y-59638613D01*
X162250560Y-59756328D01*
X161959409Y-60047479D01*
X161822747Y-60377411D01*
X161564862Y-60484230D01*
X161273711Y-60775381D01*
X161133036Y-61115000D01*
X161119126Y-61115000D01*
X160738720Y-61272569D01*
X160447569Y-61563720D01*
X160290000Y-61944126D01*
X156243579Y-61944126D01*
X156127431Y-61663720D01*
X155836280Y-61372569D01*
X155455874Y-61215000D01*
X155044126Y-61215000D01*
X154663720Y-61372569D01*
X154372569Y-61663720D01*
X154215000Y-62044126D01*
X154215000Y-62455874D01*
X154329443Y-62732166D01*
X154120961Y-62940648D01*
X153963392Y-63321054D01*
X153963392Y-63732802D01*
X153998839Y-63818378D01*
X153988720Y-63822569D01*
X153697569Y-64113720D01*
X153540000Y-64494126D01*
X153540000Y-64905874D01*
X153654443Y-65182165D01*
X153432210Y-65404398D01*
X153274641Y-65784804D01*
X149100886Y-65784804D01*
X149102065Y-65784316D01*
X149393216Y-65493165D01*
X149550785Y-65112759D01*
X149550785Y-64701011D01*
X149393216Y-64320605D01*
X149102065Y-64029454D01*
X148721659Y-63871885D01*
X148309911Y-63871885D01*
X147929505Y-64029454D01*
X147638354Y-64320605D01*
X147568188Y-64490000D01*
X147519126Y-64490000D01*
X147138720Y-64647569D01*
X146847569Y-64938720D01*
X146690000Y-65319126D01*
X135282837Y-65319126D01*
X135061280Y-65097569D01*
X134680874Y-64940000D01*
X134269126Y-64940000D01*
X133888720Y-65097569D01*
X133597569Y-65388720D01*
X133440000Y-65769126D01*
X122381029Y-65769126D01*
X122418092Y-65582800D01*
X122302839Y-65003382D01*
X121974625Y-64512175D01*
X121676239Y-64312800D01*
X121974625Y-64113425D01*
X122020929Y-64044126D01*
X124715000Y-64044126D01*
X124715000Y-64455874D01*
X124872569Y-64836280D01*
X125163720Y-65127431D01*
X125544126Y-65285000D01*
X125955874Y-65285000D01*
X126336280Y-65127431D01*
X126627431Y-64836280D01*
X126785000Y-64455874D01*
X126785000Y-64219126D01*
X127365000Y-64219126D01*
X127365000Y-64630874D01*
X127522569Y-65011280D01*
X127813720Y-65302431D01*
X128194126Y-65460000D01*
X128605874Y-65460000D01*
X128986280Y-65302431D01*
X129277431Y-65011280D01*
X129435000Y-64630874D01*
X129435000Y-64219126D01*
X129277431Y-63838720D01*
X128986280Y-63547569D01*
X128605874Y-63390000D01*
X128194126Y-63390000D01*
X127813720Y-63547569D01*
X127522569Y-63838720D01*
X127365000Y-64219126D01*
X126785000Y-64219126D01*
X126785000Y-64044126D01*
X126627431Y-63663720D01*
X126336280Y-63372569D01*
X125955874Y-63215000D01*
X125544126Y-63215000D01*
X125163720Y-63372569D01*
X124872569Y-63663720D01*
X124715000Y-64044126D01*
X122020929Y-64044126D01*
X122302839Y-63622218D01*
X122418092Y-63042800D01*
X122414529Y-63024886D01*
X133422440Y-63024886D01*
X133422440Y-63436634D01*
X133580009Y-63817040D01*
X133871160Y-64108191D01*
X134251566Y-64265760D01*
X134663314Y-64265760D01*
X135043720Y-64108191D01*
X135334871Y-63817040D01*
X135492440Y-63436634D01*
X135492440Y-63024886D01*
X135334871Y-62644480D01*
X135043720Y-62353329D01*
X134663314Y-62195760D01*
X134251566Y-62195760D01*
X133871160Y-62353329D01*
X133580009Y-62644480D01*
X133422440Y-63024886D01*
X122414529Y-63024886D01*
X122302839Y-62463382D01*
X121974625Y-61972175D01*
X121676239Y-61772800D01*
X121974625Y-61573425D01*
X122127837Y-61344126D01*
X143315000Y-61344126D01*
X143315000Y-61755874D01*
X143472569Y-62136280D01*
X143763720Y-62427431D01*
X144144126Y-62585000D01*
X144555874Y-62585000D01*
X144936280Y-62427431D01*
X145227431Y-62136280D01*
X145385000Y-61755874D01*
X145385000Y-61344126D01*
X145227431Y-60963720D01*
X144936280Y-60672569D01*
X144555874Y-60515000D01*
X144144126Y-60515000D01*
X143763720Y-60672569D01*
X143472569Y-60963720D01*
X143315000Y-61344126D01*
X122127837Y-61344126D01*
X122302839Y-61082218D01*
X122418092Y-60502800D01*
X122302839Y-59923382D01*
X121974625Y-59432175D01*
X121483418Y-59103961D01*
X121050256Y-59017800D01*
X120757744Y-59017800D01*
X120324582Y-59103961D01*
X119833375Y-59432175D01*
X119634000Y-59730561D01*
X119434625Y-59432175D01*
X118943418Y-59103961D01*
X118510256Y-59017800D01*
X118217744Y-59017800D01*
X117784582Y-59103961D01*
X117293375Y-59432175D01*
X116965161Y-59923382D01*
X116849908Y-60502800D01*
X115888926Y-60502800D01*
X115898428Y-57924566D01*
X155368040Y-57924566D01*
X155368040Y-58336314D01*
X155525609Y-58716720D01*
X155816760Y-59007871D01*
X156197166Y-59165440D01*
X156608914Y-59165440D01*
X156989320Y-59007871D01*
X157178065Y-58819126D01*
X157540000Y-58819126D01*
X157540000Y-59230874D01*
X157697569Y-59611280D01*
X157988720Y-59902431D01*
X158369126Y-60060000D01*
X158780874Y-60060000D01*
X159161280Y-59902431D01*
X159452431Y-59611280D01*
X159610000Y-59230874D01*
X159610000Y-58819126D01*
X159452431Y-58438720D01*
X159161280Y-58147569D01*
X158780874Y-57990000D01*
X158369126Y-57990000D01*
X157988720Y-58147569D01*
X157697569Y-58438720D01*
X157540000Y-58819126D01*
X157178065Y-58819126D01*
X157280471Y-58716720D01*
X157438040Y-58336314D01*
X157438040Y-57924566D01*
X157280471Y-57544160D01*
X156989320Y-57253009D01*
X156608914Y-57095440D01*
X156197166Y-57095440D01*
X155816760Y-57253009D01*
X155525609Y-57544160D01*
X155368040Y-57924566D01*
X115898428Y-57924566D01*
X115919557Y-52191999D01*
X143877080Y-52191999D01*
X143877080Y-52603747D01*
X144034649Y-52984153D01*
X144325800Y-53275304D01*
X144706206Y-53432873D01*
X145117954Y-53432873D01*
X145498360Y-53275304D01*
X145789511Y-52984153D01*
X145947080Y-52603747D01*
X145947080Y-52191999D01*
X146412000Y-52191999D01*
X146412000Y-52603747D01*
X146569569Y-52984153D01*
X146860720Y-53275304D01*
X147241126Y-53432873D01*
X147652874Y-53432873D01*
X148033280Y-53275304D01*
X148324431Y-52984153D01*
X148482000Y-52603747D01*
X148482000Y-52191999D01*
X148340986Y-51851560D01*
X172216828Y-51851560D01*
X172332081Y-52430978D01*
X172660295Y-52922185D01*
X172958681Y-53121560D01*
X172660295Y-53320935D01*
X172332081Y-53812142D01*
X172216828Y-54391560D01*
X172332081Y-54970978D01*
X172660295Y-55462185D01*
X172958681Y-55661560D01*
X172660295Y-55860935D01*
X172332081Y-56352142D01*
X172216828Y-56931560D01*
X172332081Y-57510978D01*
X172660295Y-58002185D01*
X172958681Y-58201560D01*
X172660295Y-58400935D01*
X172332081Y-58892142D01*
X172216828Y-59471560D01*
X172332081Y-60050978D01*
X172660295Y-60542185D01*
X172958681Y-60741560D01*
X172660295Y-60940935D01*
X172332081Y-61432142D01*
X172216828Y-62011560D01*
X172332081Y-62590978D01*
X172660295Y-63082185D01*
X172958681Y-63281560D01*
X172660295Y-63480935D01*
X172332081Y-63972142D01*
X172216828Y-64551560D01*
X172332081Y-65130978D01*
X172660295Y-65622185D01*
X172958681Y-65821560D01*
X172660295Y-66020935D01*
X172332081Y-66512142D01*
X172216828Y-67091560D01*
X172332081Y-67670978D01*
X172660295Y-68162185D01*
X172958681Y-68361560D01*
X172660295Y-68560935D01*
X172332081Y-69052142D01*
X172216828Y-69631560D01*
X172332081Y-70210978D01*
X172660295Y-70702185D01*
X172958681Y-70901560D01*
X172660295Y-71100935D01*
X172332081Y-71592142D01*
X172216828Y-72171560D01*
X172332081Y-72750978D01*
X172660295Y-73242185D01*
X172958681Y-73441560D01*
X172660295Y-73640935D01*
X172332081Y-74132142D01*
X172216828Y-74711560D01*
X172332081Y-75290978D01*
X172660295Y-75782185D01*
X172958681Y-75981560D01*
X172660295Y-76180935D01*
X172332081Y-76672142D01*
X172216828Y-77251560D01*
X172332081Y-77830978D01*
X172660295Y-78322185D01*
X172958681Y-78521560D01*
X172660295Y-78720935D01*
X172332081Y-79212142D01*
X172216828Y-79791560D01*
X172332081Y-80370978D01*
X172660295Y-80862185D01*
X172958681Y-81061560D01*
X172660295Y-81260935D01*
X172332081Y-81752142D01*
X172216828Y-82331560D01*
X172332081Y-82910978D01*
X172660295Y-83402185D01*
X172958681Y-83601560D01*
X172660295Y-83800935D01*
X172332081Y-84292142D01*
X172216828Y-84871560D01*
X172332081Y-85450978D01*
X172660295Y-85942185D01*
X172958681Y-86141560D01*
X172660295Y-86340935D01*
X172332081Y-86832142D01*
X172216828Y-87411560D01*
X172332081Y-87990978D01*
X172660295Y-88482185D01*
X172678539Y-88494376D01*
X172633155Y-88503403D01*
X172423111Y-88643751D01*
X172282763Y-88853795D01*
X172233480Y-89101560D01*
X172233480Y-90801560D01*
X172282763Y-91049325D01*
X172423111Y-91259369D01*
X172633155Y-91399717D01*
X172880920Y-91449000D01*
X174580920Y-91449000D01*
X174828685Y-91399717D01*
X175038729Y-91259369D01*
X175179077Y-91049325D01*
X175228360Y-90801560D01*
X175228360Y-89101560D01*
X175179077Y-88853795D01*
X175038729Y-88643751D01*
X174828685Y-88503403D01*
X174783301Y-88494376D01*
X174801545Y-88482185D01*
X175129759Y-87990978D01*
X175245012Y-87411560D01*
X175129759Y-86832142D01*
X174801545Y-86340935D01*
X174503159Y-86141560D01*
X174801545Y-85942185D01*
X175129759Y-85450978D01*
X175245012Y-84871560D01*
X175129759Y-84292142D01*
X174801545Y-83800935D01*
X174503159Y-83601560D01*
X174801545Y-83402185D01*
X175129759Y-82910978D01*
X175245012Y-82331560D01*
X175129759Y-81752142D01*
X174801545Y-81260935D01*
X174503159Y-81061560D01*
X174801545Y-80862185D01*
X175129759Y-80370978D01*
X175245012Y-79791560D01*
X175129759Y-79212142D01*
X174801545Y-78720935D01*
X174503159Y-78521560D01*
X174801545Y-78322185D01*
X175129759Y-77830978D01*
X175245012Y-77251560D01*
X175129759Y-76672142D01*
X174801545Y-76180935D01*
X174503159Y-75981560D01*
X174801545Y-75782185D01*
X175129759Y-75290978D01*
X175245012Y-74711560D01*
X175129759Y-74132142D01*
X174801545Y-73640935D01*
X174503159Y-73441560D01*
X174801545Y-73242185D01*
X175129759Y-72750978D01*
X175245012Y-72171560D01*
X175129759Y-71592142D01*
X174801545Y-71100935D01*
X174503159Y-70901560D01*
X174801545Y-70702185D01*
X175129759Y-70210978D01*
X175245012Y-69631560D01*
X175129759Y-69052142D01*
X174801545Y-68560935D01*
X174503159Y-68361560D01*
X174801545Y-68162185D01*
X175129759Y-67670978D01*
X175245012Y-67091560D01*
X175129759Y-66512142D01*
X174801545Y-66020935D01*
X174503159Y-65821560D01*
X174801545Y-65622185D01*
X175129759Y-65130978D01*
X175245012Y-64551560D01*
X175129759Y-63972142D01*
X174801545Y-63480935D01*
X174503159Y-63281560D01*
X174801545Y-63082185D01*
X175129759Y-62590978D01*
X175245012Y-62011560D01*
X175129759Y-61432142D01*
X174801545Y-60940935D01*
X174503159Y-60741560D01*
X174801545Y-60542185D01*
X175129759Y-60050978D01*
X175245012Y-59471560D01*
X175129759Y-58892142D01*
X174801545Y-58400935D01*
X174503159Y-58201560D01*
X174801545Y-58002185D01*
X175129759Y-57510978D01*
X175245012Y-56931560D01*
X175129759Y-56352142D01*
X174801545Y-55860935D01*
X174503159Y-55661560D01*
X174801545Y-55462185D01*
X175129759Y-54970978D01*
X175245012Y-54391560D01*
X175129759Y-53812142D01*
X174801545Y-53320935D01*
X174503159Y-53121560D01*
X174801545Y-52922185D01*
X175129759Y-52430978D01*
X175245012Y-51851560D01*
X175129759Y-51272142D01*
X174801545Y-50780935D01*
X174310338Y-50452721D01*
X173877176Y-50366560D01*
X173584664Y-50366560D01*
X173151502Y-50452721D01*
X172660295Y-50780935D01*
X172332081Y-51272142D01*
X172216828Y-51851560D01*
X148340986Y-51851560D01*
X148324431Y-51811593D01*
X148033280Y-51520442D01*
X147652874Y-51362873D01*
X147241126Y-51362873D01*
X146860720Y-51520442D01*
X146569569Y-51811593D01*
X146412000Y-52191999D01*
X145947080Y-52191999D01*
X145789511Y-51811593D01*
X145498360Y-51520442D01*
X145117954Y-51362873D01*
X144706206Y-51362873D01*
X144325800Y-51520442D01*
X144034649Y-51811593D01*
X143877080Y-52191999D01*
X115919557Y-52191999D01*
X115933975Y-48280320D01*
X128132588Y-48280320D01*
X128247841Y-48859738D01*
X128576055Y-49350945D01*
X129067262Y-49679159D01*
X129500424Y-49765320D01*
X129792936Y-49765320D01*
X130226098Y-49679159D01*
X130717305Y-49350945D01*
X130916680Y-49052559D01*
X131116055Y-49350945D01*
X131607262Y-49679159D01*
X132040424Y-49765320D01*
X132332936Y-49765320D01*
X132766098Y-49679159D01*
X133257305Y-49350945D01*
X133456680Y-49052559D01*
X133656055Y-49350945D01*
X134147262Y-49679159D01*
X134580424Y-49765320D01*
X134872936Y-49765320D01*
X135306098Y-49679159D01*
X135797305Y-49350945D01*
X135996680Y-49052559D01*
X136196055Y-49350945D01*
X136687262Y-49679159D01*
X137120424Y-49765320D01*
X137412936Y-49765320D01*
X137846098Y-49679159D01*
X138337305Y-49350945D01*
X138536680Y-49052559D01*
X138736055Y-49350945D01*
X139227262Y-49679159D01*
X139660424Y-49765320D01*
X139952936Y-49765320D01*
X140386098Y-49679159D01*
X140877305Y-49350945D01*
X141076680Y-49052559D01*
X141276055Y-49350945D01*
X141767262Y-49679159D01*
X142200424Y-49765320D01*
X142492936Y-49765320D01*
X142926098Y-49679159D01*
X143417305Y-49350945D01*
X143616680Y-49052559D01*
X143816055Y-49350945D01*
X144307262Y-49679159D01*
X144740424Y-49765320D01*
X145032936Y-49765320D01*
X145466098Y-49679159D01*
X145957305Y-49350945D01*
X146156680Y-49052559D01*
X146356055Y-49350945D01*
X146847262Y-49679159D01*
X147280424Y-49765320D01*
X147572936Y-49765320D01*
X148006098Y-49679159D01*
X148497305Y-49350945D01*
X148696680Y-49052559D01*
X148896055Y-49350945D01*
X149387262Y-49679159D01*
X149820424Y-49765320D01*
X150112936Y-49765320D01*
X150546098Y-49679159D01*
X151037305Y-49350945D01*
X151236680Y-49052559D01*
X151436055Y-49350945D01*
X151927262Y-49679159D01*
X152360424Y-49765320D01*
X152652936Y-49765320D01*
X153086098Y-49679159D01*
X153577305Y-49350945D01*
X153776680Y-49052559D01*
X153976055Y-49350945D01*
X154467262Y-49679159D01*
X154900424Y-49765320D01*
X155192936Y-49765320D01*
X155626098Y-49679159D01*
X156117305Y-49350945D01*
X156316680Y-49052559D01*
X156516055Y-49350945D01*
X157007262Y-49679159D01*
X157440424Y-49765320D01*
X157732936Y-49765320D01*
X158166098Y-49679159D01*
X158657305Y-49350945D01*
X158856680Y-49052559D01*
X159056055Y-49350945D01*
X159547262Y-49679159D01*
X159980424Y-49765320D01*
X160272936Y-49765320D01*
X160706098Y-49679159D01*
X161197305Y-49350945D01*
X161396680Y-49052559D01*
X161596055Y-49350945D01*
X162087262Y-49679159D01*
X162520424Y-49765320D01*
X162812936Y-49765320D01*
X163246098Y-49679159D01*
X163737305Y-49350945D01*
X163936680Y-49052559D01*
X164136055Y-49350945D01*
X164627262Y-49679159D01*
X165060424Y-49765320D01*
X165352936Y-49765320D01*
X165786098Y-49679159D01*
X166277305Y-49350945D01*
X166289496Y-49332701D01*
X166298523Y-49378085D01*
X166438871Y-49588129D01*
X166648915Y-49728477D01*
X166896680Y-49777760D01*
X168596680Y-49777760D01*
X168844445Y-49728477D01*
X169054489Y-49588129D01*
X169194837Y-49378085D01*
X169244120Y-49130320D01*
X169244120Y-47430320D01*
X169194837Y-47182555D01*
X169054489Y-46972511D01*
X168844445Y-46832163D01*
X168596680Y-46782880D01*
X166896680Y-46782880D01*
X166648915Y-46832163D01*
X166438871Y-46972511D01*
X166298523Y-47182555D01*
X166289496Y-47227939D01*
X166277305Y-47209695D01*
X165786098Y-46881481D01*
X165352936Y-46795320D01*
X165060424Y-46795320D01*
X164627262Y-46881481D01*
X164136055Y-47209695D01*
X163936680Y-47508081D01*
X163737305Y-47209695D01*
X163246098Y-46881481D01*
X162812936Y-46795320D01*
X162520424Y-46795320D01*
X162087262Y-46881481D01*
X161596055Y-47209695D01*
X161396680Y-47508081D01*
X161197305Y-47209695D01*
X160706098Y-46881481D01*
X160272936Y-46795320D01*
X159980424Y-46795320D01*
X159547262Y-46881481D01*
X159056055Y-47209695D01*
X158856680Y-47508081D01*
X158657305Y-47209695D01*
X158166098Y-46881481D01*
X157732936Y-46795320D01*
X157440424Y-46795320D01*
X157007262Y-46881481D01*
X156516055Y-47209695D01*
X156316680Y-47508081D01*
X156117305Y-47209695D01*
X155626098Y-46881481D01*
X155192936Y-46795320D01*
X154900424Y-46795320D01*
X154467262Y-46881481D01*
X153976055Y-47209695D01*
X153776680Y-47508081D01*
X153577305Y-47209695D01*
X153086098Y-46881481D01*
X152652936Y-46795320D01*
X152360424Y-46795320D01*
X151927262Y-46881481D01*
X151436055Y-47209695D01*
X151236680Y-47508081D01*
X151037305Y-47209695D01*
X150546098Y-46881481D01*
X150112936Y-46795320D01*
X149820424Y-46795320D01*
X149387262Y-46881481D01*
X148896055Y-47209695D01*
X148696680Y-47508081D01*
X148497305Y-47209695D01*
X148006098Y-46881481D01*
X147572936Y-46795320D01*
X147280424Y-46795320D01*
X146847262Y-46881481D01*
X146356055Y-47209695D01*
X146156680Y-47508081D01*
X145957305Y-47209695D01*
X145466098Y-46881481D01*
X145032936Y-46795320D01*
X144740424Y-46795320D01*
X144307262Y-46881481D01*
X143816055Y-47209695D01*
X143616680Y-47508081D01*
X143417305Y-47209695D01*
X142926098Y-46881481D01*
X142492936Y-46795320D01*
X142200424Y-46795320D01*
X141767262Y-46881481D01*
X141276055Y-47209695D01*
X141076680Y-47508081D01*
X140877305Y-47209695D01*
X140386098Y-46881481D01*
X139952936Y-46795320D01*
X139660424Y-46795320D01*
X139227262Y-46881481D01*
X138736055Y-47209695D01*
X138536680Y-47508081D01*
X138337305Y-47209695D01*
X137846098Y-46881481D01*
X137412936Y-46795320D01*
X137120424Y-46795320D01*
X136687262Y-46881481D01*
X136196055Y-47209695D01*
X135996680Y-47508081D01*
X135797305Y-47209695D01*
X135306098Y-46881481D01*
X134872936Y-46795320D01*
X134580424Y-46795320D01*
X134147262Y-46881481D01*
X133656055Y-47209695D01*
X133456680Y-47508081D01*
X133257305Y-47209695D01*
X132766098Y-46881481D01*
X132332936Y-46795320D01*
X132040424Y-46795320D01*
X131607262Y-46881481D01*
X131116055Y-47209695D01*
X130916680Y-47508081D01*
X130717305Y-47209695D01*
X130226098Y-46881481D01*
X129792936Y-46795320D01*
X129500424Y-46795320D01*
X129067262Y-46881481D01*
X128576055Y-47209695D01*
X128247841Y-47700902D01*
X128132588Y-48280320D01*
X115933975Y-48280320D01*
X115945452Y-45166535D01*
X176357268Y-45287945D01*
G04 #@! TD*
M02*
