G04 #@! TF.GenerationSoftware,KiCad,Pcbnew,5.0.1-33cea8e~68~ubuntu16.04.1*
G04 #@! TF.CreationDate,2018-10-26T03:49:13-07:00*
G04 #@! TF.ProjectId,integrated-board,696E74656772617465642D626F617264,rev?*
G04 #@! TF.SameCoordinates,Original*
G04 #@! TF.FileFunction,Other,User*
%FSLAX46Y46*%
G04 Gerber Fmt 4.6, Leading zero omitted, Abs format (unit mm)*
G04 Created by KiCad (PCBNEW 5.0.1-33cea8e~68~ubuntu16.04.1) date Fri 26 Oct 2018 03:49:13 AM PDT*
%MOMM*%
%LPD*%
G01*
G04 APERTURE LIST*
%ADD10C,0.050000*%
G04 APERTURE END LIST*
D10*
G04 #@! TO.C,*
X199654203Y-110373068D02*
X199654203Y-117373068D01*
X199654203Y-110373068D02*
X188554203Y-110373068D01*
X188554203Y-117373068D02*
X199654203Y-117373068D01*
X188554203Y-117373068D02*
X188554203Y-110373068D01*
G04 #@! TO.C,J2*
X80880440Y-62466760D02*
X98580440Y-62466760D01*
X80880440Y-78166760D02*
X80880440Y-62466760D01*
X98580440Y-78166760D02*
X80880440Y-78166760D01*
X98580440Y-62466760D02*
X98580440Y-78166760D01*
G04 #@! TO.C,0k1*
X141583800Y-71225640D02*
X137673800Y-71225640D01*
X141583800Y-71225640D02*
X141583800Y-69825640D01*
X137673800Y-69825640D02*
X137673800Y-71225640D01*
X137673800Y-69825640D02*
X141583800Y-69825640D01*
G04 #@! TO.C,0k2*
X141593960Y-72653120D02*
X137683960Y-72653120D01*
X141593960Y-72653120D02*
X141593960Y-71253120D01*
X137683960Y-71253120D02*
X137683960Y-72653120D01*
X137683960Y-71253120D02*
X141593960Y-71253120D01*
G04 #@! TO.C,1uF1*
X137798400Y-76809840D02*
X141398400Y-76809840D01*
X137798400Y-76809840D02*
X137798400Y-78109840D01*
X141398400Y-78109840D02*
X141398400Y-76809840D01*
X141398400Y-78109840D02*
X137798400Y-78109840D01*
G04 #@! TO.C,1uF2*
X147954760Y-60699240D02*
X147954760Y-64299240D01*
X147954760Y-60699240D02*
X146654760Y-60699240D01*
X146654760Y-64299240D02*
X147954760Y-64299240D01*
X146654760Y-64299240D02*
X146654760Y-60699240D01*
G04 #@! TO.C,1uF3*
X147686000Y-86620800D02*
X147686000Y-83020800D01*
X147686000Y-86620800D02*
X148986000Y-86620800D01*
X148986000Y-83020800D02*
X147686000Y-83020800D01*
X148986000Y-83020800D02*
X148986000Y-86620800D01*
G04 #@! TO.C,1uF4*
X155427920Y-86803640D02*
X155427920Y-83203640D01*
X155427920Y-86803640D02*
X156727920Y-86803640D01*
X156727920Y-83203640D02*
X155427920Y-83203640D01*
X156727920Y-83203640D02*
X156727920Y-86803640D01*
G04 #@! TO.C,1uF5*
X165106760Y-69367160D02*
X161506760Y-69367160D01*
X165106760Y-69367160D02*
X165106760Y-68067160D01*
X161506760Y-68067160D02*
X161506760Y-69367160D01*
X161506760Y-68067160D02*
X165106760Y-68067160D01*
G04 #@! TO.C,4.7uF1*
X153690560Y-86808760D02*
X153690560Y-83208760D01*
X153690560Y-86808760D02*
X154990560Y-86808760D01*
X154990560Y-83208760D02*
X153690560Y-83208760D01*
X154990560Y-83208760D02*
X154990560Y-86808760D01*
G04 #@! TO.C,10k1*
X135345560Y-62716640D02*
X131435560Y-62716640D01*
X135345560Y-62716640D02*
X135345560Y-61316640D01*
X131435560Y-61316640D02*
X131435560Y-62716640D01*
X131435560Y-61316640D02*
X135345560Y-61316640D01*
G04 #@! TO.C,10k2*
X135345560Y-59815960D02*
X131435560Y-59815960D01*
X135345560Y-59815960D02*
X135345560Y-58415960D01*
X131435560Y-58415960D02*
X131435560Y-59815960D01*
X131435560Y-58415960D02*
X135345560Y-58415960D01*
G04 #@! TO.C,10k3*
X135345560Y-61258680D02*
X131435560Y-61258680D01*
X135345560Y-61258680D02*
X135345560Y-59858680D01*
X131435560Y-59858680D02*
X131435560Y-61258680D01*
X131435560Y-59858680D02*
X135345560Y-59858680D01*
G04 #@! TO.C,10k4*
X148022080Y-64309200D02*
X148022080Y-60399200D01*
X148022080Y-64309200D02*
X149422080Y-64309200D01*
X149422080Y-60399200D02*
X148022080Y-60399200D01*
X149422080Y-60399200D02*
X149422080Y-64309200D01*
G04 #@! TO.C,10nF1*
X137800940Y-75466180D02*
X141400940Y-75466180D01*
X137800940Y-75466180D02*
X137800940Y-76766180D01*
X141400940Y-76766180D02*
X141400940Y-75466180D01*
X141400940Y-76766180D02*
X137800940Y-76766180D01*
G04 #@! TO.C,22uH1*
X141618720Y-79758440D02*
X137618720Y-79758440D01*
X141618720Y-78158440D02*
X137618720Y-78158440D01*
X141618720Y-79758440D02*
X141618720Y-78158440D01*
X137618720Y-79758440D02*
X137618720Y-78158440D01*
G04 #@! TO.C,100nF1*
X121627000Y-56514760D02*
X118027000Y-56514760D01*
X121627000Y-56514760D02*
X121627000Y-55214760D01*
X118027000Y-55214760D02*
X118027000Y-56514760D01*
X118027000Y-55214760D02*
X121627000Y-55214760D01*
G04 #@! TO.C,100nF2*
X146598400Y-60699240D02*
X146598400Y-64299240D01*
X146598400Y-60699240D02*
X145298400Y-60699240D01*
X145298400Y-64299240D02*
X146598400Y-64299240D01*
X145298400Y-64299240D02*
X145298400Y-60699240D01*
G04 #@! TO.C,100nF3*
X149037280Y-86620800D02*
X149037280Y-83020800D01*
X149037280Y-86620800D02*
X150337280Y-86620800D01*
X150337280Y-83020800D02*
X149037280Y-83020800D01*
X150337280Y-83020800D02*
X150337280Y-86620800D01*
G04 #@! TO.C,100nF4*
X156753800Y-86803600D02*
X156753800Y-83203600D01*
X156753800Y-86803600D02*
X158053800Y-86803600D01*
X158053800Y-83203600D02*
X156753800Y-83203600D01*
X158053800Y-83203600D02*
X158053800Y-86803600D01*
G04 #@! TO.C,100nF5*
X165101680Y-70728600D02*
X161501680Y-70728600D01*
X165101680Y-70728600D02*
X165101680Y-69428600D01*
X161501680Y-69428600D02*
X161501680Y-70728600D01*
X161501680Y-69428600D02*
X165101680Y-69428600D01*
G04 #@! TO.C,C1*
X137563000Y-67888880D02*
X133963000Y-67888880D01*
X137563000Y-67888880D02*
X137563000Y-66588880D01*
X133963000Y-66588880D02*
X133963000Y-67888880D01*
X133963000Y-66588880D02*
X137563000Y-66588880D01*
G04 #@! TO.C,C2*
X137557920Y-75961000D02*
X133957920Y-75961000D01*
X137557920Y-75961000D02*
X137557920Y-74661000D01*
X133957920Y-74661000D02*
X133957920Y-75961000D01*
X133957920Y-74661000D02*
X137557920Y-74661000D01*
G04 #@! TO.C,J1*
X122704000Y-85162800D02*
X122704000Y-58712800D01*
X122704000Y-58712800D02*
X116554000Y-58712800D01*
X116554000Y-58712800D02*
X116554000Y-85162800D01*
X116554000Y-85162800D02*
X122704000Y-85162800D01*
G04 #@! TO.C,J3*
X175530920Y-91751560D02*
X175530920Y-50051560D01*
X175530920Y-50051560D02*
X171930920Y-50051560D01*
X171930920Y-50051560D02*
X171930920Y-91751560D01*
X171930920Y-91751560D02*
X175530920Y-91751560D01*
G04 #@! TO.C,J4*
X169546680Y-46480320D02*
X127846680Y-46480320D01*
X127846680Y-46480320D02*
X127846680Y-50080320D01*
X127846680Y-50080320D02*
X169546680Y-50080320D01*
X169546680Y-50080320D02*
X169546680Y-46480320D01*
G04 #@! TO.C,J5*
X127653640Y-95302480D02*
X169353640Y-95302480D01*
X169353640Y-95302480D02*
X169353640Y-91702480D01*
X169353640Y-91702480D02*
X127653640Y-91702480D01*
X127653640Y-91702480D02*
X127653640Y-95302480D01*
G04 #@! TO.C,J6*
X116665600Y-95287240D02*
X122815600Y-95287240D01*
X122815600Y-95287240D02*
X122815600Y-91687240D01*
X122815600Y-91687240D02*
X116665600Y-91687240D01*
X116665600Y-91687240D02*
X116665600Y-95287240D01*
G04 #@! TO.C,J9*
X105271480Y-56169400D02*
X105271480Y-85169400D01*
X105271480Y-85169400D02*
X108871480Y-85169400D01*
X108871480Y-85169400D02*
X108871480Y-56169400D01*
X108871480Y-56169400D02*
X105271480Y-56169400D01*
G04 #@! TO.C,SW1*
X117548960Y-54680120D02*
X122348960Y-54680120D01*
X122348960Y-54680120D02*
X122348960Y-51380120D01*
X122348960Y-51380120D02*
X117548960Y-51380120D01*
X117548960Y-51380120D02*
X117548960Y-54680120D01*
G04 #@! TO.C,Y1*
X137594120Y-74136840D02*
X137594120Y-68336840D01*
X137594120Y-68336840D02*
X128994120Y-68336840D01*
X128994120Y-68336840D02*
X128994120Y-74136840D01*
X128994120Y-74136840D02*
X137594120Y-74136840D01*
G04 #@! TO.C,C16*
X195625000Y-57725000D02*
X195625000Y-54125000D01*
X195625000Y-57725000D02*
X196925000Y-57725000D01*
X196925000Y-54125000D02*
X195625000Y-54125000D01*
X196925000Y-54125000D02*
X196925000Y-57725000D01*
G04 #@! TO.C,C17*
X203200000Y-50775000D02*
X203200000Y-54375000D01*
X203200000Y-50775000D02*
X201900000Y-50775000D01*
X201900000Y-54375000D02*
X203200000Y-54375000D01*
X201900000Y-54375000D02*
X201900000Y-50775000D01*
G04 #@! TO.C,C18*
X203475000Y-41950000D02*
X199875000Y-41950000D01*
X203475000Y-41950000D02*
X203475000Y-40650000D01*
X199875000Y-40650000D02*
X199875000Y-41950000D01*
X199875000Y-40650000D02*
X203475000Y-40650000D01*
G04 #@! TO.C,C19*
X192409080Y-99047980D02*
X192409080Y-95447980D01*
X192409080Y-99047980D02*
X193709080Y-99047980D01*
X193709080Y-95447980D02*
X192409080Y-95447980D01*
X193709080Y-95447980D02*
X193709080Y-99047980D01*
G04 #@! TO.C,C20*
X203046120Y-93642080D02*
X203046120Y-97242080D01*
X203046120Y-93642080D02*
X201746120Y-93642080D01*
X201746120Y-97242080D02*
X203046120Y-97242080D01*
X201746120Y-97242080D02*
X201746120Y-93642080D01*
G04 #@! TO.C,C21*
X203215720Y-84253100D02*
X199615720Y-84253100D01*
X203215720Y-84253100D02*
X203215720Y-82953100D01*
X199615720Y-82953100D02*
X199615720Y-84253100D01*
X199615720Y-82953100D02*
X203215720Y-82953100D01*
G04 #@! TO.C,J10*
X195522020Y-89202940D02*
X195522020Y-83052940D01*
X195522020Y-83052940D02*
X191922020Y-83052940D01*
X191922020Y-83052940D02*
X191922020Y-89202940D01*
X191922020Y-89202940D02*
X195522020Y-89202940D01*
G04 #@! TO.C,R5*
X206010000Y-57700000D02*
X202100000Y-57700000D01*
X206010000Y-57700000D02*
X206010000Y-56300000D01*
X202100000Y-56300000D02*
X202100000Y-57700000D01*
X202100000Y-56300000D02*
X206010000Y-56300000D01*
G04 #@! TO.C,R6*
X203652260Y-57787680D02*
X203652260Y-61697680D01*
X203652260Y-57787680D02*
X202252260Y-57787680D01*
X202252260Y-61697680D02*
X203652260Y-61697680D01*
X202252260Y-61697680D02*
X202252260Y-57787680D01*
G04 #@! TO.C,R7*
X205587840Y-98913180D02*
X201677840Y-98913180D01*
X205587840Y-98913180D02*
X205587840Y-97513180D01*
X201677840Y-97513180D02*
X201677840Y-98913180D01*
X201677840Y-97513180D02*
X205587840Y-97513180D01*
G04 #@! TO.C,R8*
X203258680Y-99280860D02*
X203258680Y-103190860D01*
X203258680Y-99280860D02*
X201858680Y-99280860D01*
X201858680Y-103190860D02*
X203258680Y-103190860D01*
X201858680Y-103190860D02*
X201858680Y-99280860D01*
G04 #@! TO.C,J7*
X201463080Y-101416980D02*
X195313080Y-101416980D01*
X195313080Y-101416980D02*
X195313080Y-105016980D01*
X195313080Y-105016980D02*
X201463080Y-105016980D01*
X201463080Y-105016980D02*
X201463080Y-101416980D01*
G04 #@! TO.C,J8*
X195400000Y-67550000D02*
X195400000Y-61400000D01*
X195400000Y-61400000D02*
X191800000Y-61400000D01*
X191800000Y-61400000D02*
X191800000Y-67550000D01*
X191800000Y-67550000D02*
X195400000Y-67550000D01*
G04 #@! TO.C,D4*
X201863760Y-107285180D02*
X201863760Y-103375180D01*
X201863760Y-107285180D02*
X203263760Y-107285180D01*
X203263760Y-103375180D02*
X201863760Y-103375180D01*
X203263760Y-103375180D02*
X203263760Y-107285180D01*
G04 #@! TO.C,D5*
X202264960Y-65820120D02*
X202264960Y-61910120D01*
X202264960Y-65820120D02*
X203664960Y-65820120D01*
X203664960Y-61910120D02*
X202264960Y-61910120D01*
X203664960Y-61910120D02*
X203664960Y-65820120D01*
G04 #@! TO.C,R9*
X205621040Y-108986820D02*
X201711040Y-108986820D01*
X205621040Y-108986820D02*
X205621040Y-107586820D01*
X201711040Y-107586820D02*
X201711040Y-108986820D01*
X201711040Y-107586820D02*
X205621040Y-107586820D01*
G04 #@! TO.C,R10*
X206027500Y-67384600D02*
X202117500Y-67384600D01*
X206027500Y-67384600D02*
X206027500Y-65984600D01*
X202117500Y-65984600D02*
X202117500Y-67384600D01*
X202117500Y-65984600D02*
X206027500Y-65984600D01*
G04 #@! TO.C,J13*
X191800000Y-71200000D02*
X203000000Y-71200000D01*
X203000000Y-71200000D02*
X203000000Y-67600000D01*
X203000000Y-67600000D02*
X191800000Y-67600000D01*
X191800000Y-67600000D02*
X191800000Y-71200000D01*
G04 #@! TO.C,J14*
X191749300Y-82527820D02*
X205499300Y-82527820D01*
X205499300Y-82527820D02*
X205499300Y-78927820D01*
X205499300Y-78927820D02*
X191749300Y-78927820D01*
X191749300Y-78927820D02*
X191749300Y-82527820D01*
G04 #@! TO.C,J12*
X191675640Y-99407840D02*
X191675640Y-108057840D01*
X191675640Y-108057840D02*
X195275640Y-108057840D01*
X195275640Y-108057840D02*
X195275640Y-99407840D01*
X195275640Y-99407840D02*
X191675640Y-99407840D01*
G04 #@! TO.C,J15*
X191800000Y-40040000D02*
X191800000Y-61390000D01*
X191800000Y-61390000D02*
X195400000Y-61390000D01*
X195400000Y-61390000D02*
X195400000Y-40040000D01*
X195400000Y-40040000D02*
X191800000Y-40040000D01*
G04 #@! TO.C,C1*
X192479203Y-126423068D02*
X192479203Y-125483068D01*
X192479203Y-125483068D02*
X194339203Y-125483068D01*
X194339203Y-125483068D02*
X194339203Y-126423068D01*
X194339203Y-126423068D02*
X192479203Y-126423068D01*
G04 #@! TO.C,*
X190144203Y-127773068D02*
X190144203Y-131373068D01*
X190144203Y-131373068D02*
X196294203Y-131373068D01*
X196294203Y-131373068D02*
X196294203Y-127773068D01*
X196294203Y-127773068D02*
X190144203Y-127773068D01*
G04 #@! TO.C,JP2*
X132525080Y-116094560D02*
X128925080Y-116094560D01*
X132525080Y-129844560D02*
X132525080Y-116094560D01*
X128925080Y-129844560D02*
X132525080Y-129844560D01*
X128925080Y-116094560D02*
X128925080Y-129844560D01*
G04 #@! TO.C,C1*
X118495080Y-123799560D02*
X118495080Y-125659560D01*
X117555080Y-123799560D02*
X118495080Y-123799560D01*
X117555080Y-125659560D02*
X117555080Y-123799560D01*
X118495080Y-125659560D02*
X117555080Y-125659560D01*
G04 #@! TO.C,C2*
X123575080Y-125659560D02*
X122635080Y-125659560D01*
X122635080Y-125659560D02*
X122635080Y-123799560D01*
X122635080Y-123799560D02*
X123575080Y-123799560D01*
X123575080Y-123799560D02*
X123575080Y-125659560D01*
G04 #@! TO.C,R3*
X127385080Y-123799560D02*
X127385080Y-125659560D01*
X126445080Y-123799560D02*
X127385080Y-123799560D01*
X126445080Y-125659560D02*
X126445080Y-123799560D01*
X127385080Y-125659560D02*
X126445080Y-125659560D01*
G04 #@! TO.C,J2*
X168608300Y-107674160D02*
X168608300Y-113824160D01*
X168608300Y-113824160D02*
X180958300Y-113824160D01*
X180958300Y-113824160D02*
X180958300Y-107674160D01*
X180958300Y-107674160D02*
X168608300Y-107674160D01*
G04 #@! TO.C,C1*
X181924300Y-117818160D02*
X181924300Y-116878160D01*
X181924300Y-116878160D02*
X183784300Y-116878160D01*
X183784300Y-116878160D02*
X183784300Y-117818160D01*
X183784300Y-117818160D02*
X181924300Y-117818160D01*
G04 #@! TO.C,C2*
X183784300Y-120866160D02*
X181924300Y-120866160D01*
X183784300Y-119926160D02*
X183784300Y-120866160D01*
X181924300Y-119926160D02*
X183784300Y-119926160D01*
X181924300Y-120866160D02*
X181924300Y-119926160D01*
G04 #@! TO.C,C3*
X157794300Y-127470160D02*
X157794300Y-126530160D01*
X157794300Y-126530160D02*
X159654300Y-126530160D01*
X159654300Y-126530160D02*
X159654300Y-127470160D01*
X159654300Y-127470160D02*
X157794300Y-127470160D01*
G04 #@! TO.C,D1*
X158302300Y-115532160D02*
X158302300Y-114592160D01*
X158302300Y-114592160D02*
X160162300Y-114592160D01*
X160162300Y-114592160D02*
X160162300Y-115532160D01*
X160162300Y-115532160D02*
X158302300Y-115532160D01*
G04 #@! TO.C,D2*
X160162300Y-111214160D02*
X158302300Y-111214160D01*
X160162300Y-110274160D02*
X160162300Y-111214160D01*
X158302300Y-110274160D02*
X160162300Y-110274160D01*
X158302300Y-111214160D02*
X158302300Y-110274160D01*
G04 #@! TO.C,J1*
X150823301Y-105689161D02*
X138523301Y-105689161D01*
X138523301Y-105689161D02*
X138523301Y-129589161D01*
X138523301Y-129589161D02*
X150823301Y-129589161D01*
X150823301Y-129589161D02*
X150823301Y-105689161D01*
G04 #@! TO.C,R1*
X158302300Y-107150160D02*
X158302300Y-106210160D01*
X158302300Y-106210160D02*
X160162300Y-106210160D01*
X160162300Y-106210160D02*
X160162300Y-107150160D01*
X160162300Y-107150160D02*
X158302300Y-107150160D01*
G04 #@! TO.C,R2*
X181924300Y-126708160D02*
X181924300Y-125768160D01*
X181924300Y-125768160D02*
X183784300Y-125768160D01*
X183784300Y-125768160D02*
X183784300Y-126708160D01*
X183784300Y-126708160D02*
X181924300Y-126708160D01*
G04 #@! TO.C,R3*
X160162300Y-119850160D02*
X158302300Y-119850160D01*
X160162300Y-118910160D02*
X160162300Y-119850160D01*
X158302300Y-118910160D02*
X160162300Y-118910160D01*
X158302300Y-119850160D02*
X158302300Y-118910160D01*
G04 #@! TO.C,R4*
X183784300Y-123914160D02*
X181924300Y-123914160D01*
X183784300Y-122974160D02*
X183784300Y-123914160D01*
X181924300Y-122974160D02*
X183784300Y-122974160D01*
X181924300Y-123914160D02*
X181924300Y-122974160D01*
G04 #@! TO.C,C1*
X84062480Y-121894880D02*
X85002480Y-121894880D01*
X85002480Y-121894880D02*
X85002480Y-123754880D01*
X85002480Y-123754880D02*
X84062480Y-123754880D01*
X84062480Y-123754880D02*
X84062480Y-121894880D01*
G04 #@! TO.C,C2*
X96892480Y-124564880D02*
X95032480Y-124564880D01*
X96892480Y-123624880D02*
X96892480Y-124564880D01*
X95032480Y-123624880D02*
X96892480Y-123624880D01*
X95032480Y-124564880D02*
X95032480Y-123624880D01*
G04 #@! TO.C,J1*
X76382480Y-119754880D02*
X76382480Y-125904880D01*
X76382480Y-125904880D02*
X79982480Y-125904880D01*
X79982480Y-125904880D02*
X79982480Y-119754880D01*
X79982480Y-119754880D02*
X76382480Y-119754880D01*
G04 #@! TO.C,J2*
X106862480Y-112134880D02*
X110412480Y-112134880D01*
X110412480Y-112134880D02*
X110412480Y-128384880D01*
X110412480Y-128384880D02*
X106862480Y-128384880D01*
X106862480Y-128384880D02*
X106862480Y-112134880D01*
G04 #@! TO.C,L1*
X83407480Y-119814880D02*
X83407480Y-120754880D01*
X83407480Y-120754880D02*
X81547480Y-120754880D01*
X81547480Y-120754880D02*
X81547480Y-119814880D01*
X81547480Y-119814880D02*
X83407480Y-119814880D01*
G04 #@! TO.C,L2*
X81547480Y-124894880D02*
X83407480Y-124894880D01*
X81547480Y-125834880D02*
X81547480Y-124894880D01*
X83407480Y-125834880D02*
X81547480Y-125834880D01*
X83407480Y-124894880D02*
X83407480Y-125834880D01*
G04 #@! TO.C,R1*
X98032480Y-125219880D02*
X98972480Y-125219880D01*
X98972480Y-125219880D02*
X98972480Y-127079880D01*
X98972480Y-127079880D02*
X98032480Y-127079880D01*
X98032480Y-127079880D02*
X98032480Y-125219880D01*
G04 #@! TO.C,R2*
X98032480Y-121999880D02*
X98032480Y-120139880D01*
X98972480Y-121999880D02*
X98032480Y-121999880D01*
X98972480Y-120139880D02*
X98972480Y-121999880D01*
X98032480Y-120139880D02*
X98972480Y-120139880D01*
G04 #@! TO.C,D1*
X105932480Y-127784880D02*
X105932480Y-125484880D01*
X101232480Y-125484880D02*
X105932480Y-125484880D01*
X101232480Y-127784880D02*
X101232480Y-125484880D01*
X105932480Y-127784880D02*
X101232480Y-127784880D01*
G04 #@! TO.C,D2*
X105932480Y-122704880D02*
X101232480Y-122704880D01*
X101232480Y-122704880D02*
X101232480Y-120404880D01*
X101232480Y-120404880D02*
X105932480Y-120404880D01*
X105932480Y-122704880D02*
X105932480Y-120404880D01*
G04 #@! TO.C,C1*
X80613000Y-60825000D02*
X80613000Y-59365000D01*
X80613000Y-59365000D02*
X83913000Y-59365000D01*
X83913000Y-59365000D02*
X83913000Y-60825000D01*
X83913000Y-60825000D02*
X80613000Y-60825000D01*
G04 #@! TO.C,C2*
X90263000Y-60825000D02*
X86963000Y-60825000D01*
X90263000Y-59365000D02*
X90263000Y-60825000D01*
X86963000Y-59365000D02*
X90263000Y-59365000D01*
X86963000Y-60825000D02*
X86963000Y-59365000D01*
G04 #@! TO.C,C3*
X92551000Y-60825000D02*
X92551000Y-59365000D01*
X92551000Y-59365000D02*
X95851000Y-59365000D01*
X95851000Y-59365000D02*
X95851000Y-60825000D01*
X95851000Y-60825000D02*
X92551000Y-60825000D01*
G04 #@! TO.C,C4*
X90009000Y-38727000D02*
X86709000Y-38727000D01*
X90009000Y-37267000D02*
X90009000Y-38727000D01*
X86709000Y-37267000D02*
X90009000Y-37267000D01*
X86709000Y-38727000D02*
X86709000Y-37267000D01*
G04 #@! TO.C,J1*
X75891000Y-42293000D02*
X75891000Y-50943000D01*
X75891000Y-50943000D02*
X79491000Y-50943000D01*
X79491000Y-50943000D02*
X79491000Y-42293000D01*
X79491000Y-42293000D02*
X75891000Y-42293000D01*
G04 #@! TO.C,J2*
X102561000Y-38229000D02*
X102561000Y-54529000D01*
X102561000Y-54529000D02*
X106161000Y-54529000D01*
X106161000Y-54529000D02*
X106161000Y-38229000D01*
X106161000Y-38229000D02*
X102561000Y-38229000D01*
G04 #@! TD*
M02*
