G04 #@! TF.GenerationSoftware,KiCad,Pcbnew,5.0.1-33cea8e~68~ubuntu16.04.1*
G04 #@! TF.CreationDate,2018-10-26T03:49:13-07:00*
G04 #@! TF.ProjectId,integrated-board,696E74656772617465642D626F617264,rev?*
G04 #@! TF.SameCoordinates,Original*
G04 #@! TF.FileFunction,Legend,Bot*
G04 #@! TF.FilePolarity,Positive*
%FSLAX46Y46*%
G04 Gerber Fmt 4.6, Leading zero omitted, Abs format (unit mm)*
G04 Created by KiCad (PCBNEW 5.0.1-33cea8e~68~ubuntu16.04.1) date Fri 26 Oct 2018 03:49:13 AM PDT*
%MOMM*%
%LPD*%
G01*
G04 APERTURE LIST*
%ADD10C,0.190500*%
%ADD11C,0.203200*%
%ADD12C,0.304800*%
%ADD13C,0.146304*%
G04 APERTURE END LIST*
D10*
X100556306Y-93543821D02*
X101762806Y-93945988D01*
X100556306Y-94348155D01*
X101762806Y-94750321D02*
X100556306Y-94750321D01*
X101762806Y-95324845D02*
X100556306Y-95324845D01*
X101762806Y-96014274D01*
X100556306Y-96014274D01*
X101647901Y-96588797D02*
X101705354Y-96646250D01*
X101762806Y-96588797D01*
X101705354Y-96531345D01*
X101647901Y-96588797D01*
X101762806Y-96588797D01*
X101015925Y-96588797D02*
X101073378Y-96646250D01*
X101130830Y-96588797D01*
X101073378Y-96531345D01*
X101015925Y-96588797D01*
X101130830Y-96588797D01*
X100556306Y-97967655D02*
X100556306Y-98714536D01*
X101015925Y-98312369D01*
X101015925Y-98484726D01*
X101073378Y-98599631D01*
X101130830Y-98657083D01*
X101245735Y-98714536D01*
X101532997Y-98714536D01*
X101647901Y-98657083D01*
X101705354Y-98599631D01*
X101762806Y-98484726D01*
X101762806Y-98140012D01*
X101705354Y-98025107D01*
X101647901Y-97967655D01*
X101647901Y-99231607D02*
X101705354Y-99289059D01*
X101762806Y-99231607D01*
X101705354Y-99174155D01*
X101647901Y-99231607D01*
X101762806Y-99231607D01*
X100556306Y-99691226D02*
X100556306Y-100438107D01*
X101015925Y-100035940D01*
X101015925Y-100208297D01*
X101073378Y-100323202D01*
X101130830Y-100380655D01*
X101245735Y-100438107D01*
X101532997Y-100438107D01*
X101647901Y-100380655D01*
X101705354Y-100323202D01*
X101762806Y-100208297D01*
X101762806Y-99863583D01*
X101705354Y-99748678D01*
X101647901Y-99691226D01*
X101303187Y-100955178D02*
X101303187Y-101874417D01*
X100556306Y-103023464D02*
X100556306Y-102448940D01*
X101130830Y-102391488D01*
X101073378Y-102448940D01*
X101015925Y-102563845D01*
X101015925Y-102851107D01*
X101073378Y-102966012D01*
X101130830Y-103023464D01*
X101245735Y-103080917D01*
X101532997Y-103080917D01*
X101647901Y-103023464D01*
X101705354Y-102966012D01*
X101762806Y-102851107D01*
X101762806Y-102563845D01*
X101705354Y-102448940D01*
X101647901Y-102391488D01*
X100556306Y-103425631D02*
X101762806Y-103827797D01*
X100556306Y-104229964D01*
X103643806Y-91877702D02*
X103643806Y-91303178D01*
X102437306Y-91303178D01*
X103643806Y-92452226D02*
X103586354Y-92337321D01*
X103528901Y-92279869D01*
X103413997Y-92222417D01*
X103069282Y-92222417D01*
X102954378Y-92279869D01*
X102896925Y-92337321D01*
X102839473Y-92452226D01*
X102839473Y-92624583D01*
X102896925Y-92739488D01*
X102954378Y-92796940D01*
X103069282Y-92854393D01*
X103413997Y-92854393D01*
X103528901Y-92796940D01*
X103586354Y-92739488D01*
X103643806Y-92624583D01*
X103643806Y-92452226D01*
X102839473Y-93888536D02*
X103816163Y-93888536D01*
X103931068Y-93831083D01*
X103988520Y-93773631D01*
X104045973Y-93658726D01*
X104045973Y-93486369D01*
X103988520Y-93371464D01*
X103586354Y-93888536D02*
X103643806Y-93773631D01*
X103643806Y-93543821D01*
X103586354Y-93428917D01*
X103528901Y-93371464D01*
X103413997Y-93314012D01*
X103069282Y-93314012D01*
X102954378Y-93371464D01*
X102896925Y-93428917D01*
X102839473Y-93543821D01*
X102839473Y-93773631D01*
X102896925Y-93888536D01*
X103643806Y-94463059D02*
X102839473Y-94463059D01*
X102437306Y-94463059D02*
X102494759Y-94405607D01*
X102552211Y-94463059D01*
X102494759Y-94520512D01*
X102437306Y-94463059D01*
X102552211Y-94463059D01*
X103586354Y-95554655D02*
X103643806Y-95439750D01*
X103643806Y-95209940D01*
X103586354Y-95095036D01*
X103528901Y-95037583D01*
X103413997Y-94980131D01*
X103069282Y-94980131D01*
X102954378Y-95037583D01*
X102896925Y-95095036D01*
X102839473Y-95209940D01*
X102839473Y-95439750D01*
X102896925Y-95554655D01*
X103528901Y-96071726D02*
X103586354Y-96129178D01*
X103643806Y-96071726D01*
X103586354Y-96014274D01*
X103528901Y-96071726D01*
X103643806Y-96071726D01*
X102896925Y-96071726D02*
X102954378Y-96129178D01*
X103011830Y-96071726D01*
X102954378Y-96014274D01*
X102896925Y-96071726D01*
X103011830Y-96071726D01*
X102437306Y-98140012D02*
X102437306Y-97565488D01*
X103011830Y-97508036D01*
X102954378Y-97565488D01*
X102896925Y-97680393D01*
X102896925Y-97967655D01*
X102954378Y-98082559D01*
X103011830Y-98140012D01*
X103126735Y-98197464D01*
X103413997Y-98197464D01*
X103528901Y-98140012D01*
X103586354Y-98082559D01*
X103643806Y-97967655D01*
X103643806Y-97680393D01*
X103586354Y-97565488D01*
X103528901Y-97508036D01*
X102437306Y-98542178D02*
X103643806Y-98944345D01*
X102437306Y-99346512D01*
X102437306Y-100495559D02*
X102437306Y-101184988D01*
X103643806Y-100840274D02*
X102437306Y-100840274D01*
X103643806Y-101759512D02*
X103586354Y-101644607D01*
X103528901Y-101587155D01*
X103413997Y-101529702D01*
X103069282Y-101529702D01*
X102954378Y-101587155D01*
X102896925Y-101644607D01*
X102839473Y-101759512D01*
X102839473Y-101931869D01*
X102896925Y-102046774D01*
X102954378Y-102104226D01*
X103069282Y-102161678D01*
X103413997Y-102161678D01*
X103528901Y-102104226D01*
X103586354Y-102046774D01*
X103643806Y-101931869D01*
X103643806Y-101759512D01*
X103643806Y-102851107D02*
X103586354Y-102736202D01*
X103471449Y-102678750D01*
X102437306Y-102678750D01*
X103586354Y-103770345D02*
X103643806Y-103655440D01*
X103643806Y-103425631D01*
X103586354Y-103310726D01*
X103471449Y-103253274D01*
X103011830Y-103253274D01*
X102896925Y-103310726D01*
X102839473Y-103425631D01*
X102839473Y-103655440D01*
X102896925Y-103770345D01*
X103011830Y-103827797D01*
X103126735Y-103827797D01*
X103241639Y-103253274D01*
X103643806Y-104344869D02*
X102839473Y-104344869D01*
X103069282Y-104344869D02*
X102954378Y-104402321D01*
X102896925Y-104459774D01*
X102839473Y-104574678D01*
X102839473Y-104689583D01*
X103643806Y-105608821D02*
X103011830Y-105608821D01*
X102896925Y-105551369D01*
X102839473Y-105436464D01*
X102839473Y-105206655D01*
X102896925Y-105091750D01*
X103586354Y-105608821D02*
X103643806Y-105493917D01*
X103643806Y-105206655D01*
X103586354Y-105091750D01*
X103471449Y-105034297D01*
X103356544Y-105034297D01*
X103241639Y-105091750D01*
X103184187Y-105206655D01*
X103184187Y-105493917D01*
X103126735Y-105608821D01*
X102839473Y-106183345D02*
X103643806Y-106183345D01*
X102954378Y-106183345D02*
X102896925Y-106240797D01*
X102839473Y-106355702D01*
X102839473Y-106528059D01*
X102896925Y-106642964D01*
X103011830Y-106700417D01*
X103643806Y-106700417D01*
X102839473Y-107102583D02*
X102839473Y-107562202D01*
X102437306Y-107274940D02*
X103471449Y-107274940D01*
X103586354Y-107332393D01*
X103643806Y-107447297D01*
X103643806Y-107562202D01*
X105675806Y-91992607D02*
X105101282Y-91590440D01*
X105675806Y-91303178D02*
X104469306Y-91303178D01*
X104469306Y-91762797D01*
X104526759Y-91877702D01*
X104584211Y-91935155D01*
X104699116Y-91992607D01*
X104871473Y-91992607D01*
X104986378Y-91935155D01*
X105043830Y-91877702D01*
X105101282Y-91762797D01*
X105101282Y-91303178D01*
X104469306Y-92337321D02*
X104469306Y-93026750D01*
X105675806Y-92682036D02*
X104469306Y-92682036D01*
X105560901Y-94118345D02*
X105618354Y-94060893D01*
X105675806Y-93888536D01*
X105675806Y-93773631D01*
X105618354Y-93601274D01*
X105503449Y-93486369D01*
X105388544Y-93428917D01*
X105158735Y-93371464D01*
X104986378Y-93371464D01*
X104756568Y-93428917D01*
X104641663Y-93486369D01*
X104526759Y-93601274D01*
X104469306Y-93773631D01*
X104469306Y-93888536D01*
X104526759Y-94060893D01*
X104584211Y-94118345D01*
X105043830Y-95956821D02*
X105101282Y-96129178D01*
X105158735Y-96186631D01*
X105273639Y-96244083D01*
X105445997Y-96244083D01*
X105560901Y-96186631D01*
X105618354Y-96129178D01*
X105675806Y-96014274D01*
X105675806Y-95554655D01*
X104469306Y-95554655D01*
X104469306Y-95956821D01*
X104526759Y-96071726D01*
X104584211Y-96129178D01*
X104699116Y-96186631D01*
X104814020Y-96186631D01*
X104928925Y-96129178D01*
X104986378Y-96071726D01*
X105043830Y-95956821D01*
X105043830Y-95554655D01*
X105675806Y-97278226D02*
X105043830Y-97278226D01*
X104928925Y-97220774D01*
X104871473Y-97105869D01*
X104871473Y-96876059D01*
X104928925Y-96761155D01*
X105618354Y-97278226D02*
X105675806Y-97163321D01*
X105675806Y-96876059D01*
X105618354Y-96761155D01*
X105503449Y-96703702D01*
X105388544Y-96703702D01*
X105273639Y-96761155D01*
X105216187Y-96876059D01*
X105216187Y-97163321D01*
X105158735Y-97278226D01*
X104871473Y-97680393D02*
X104871473Y-98140012D01*
X104469306Y-97852750D02*
X105503449Y-97852750D01*
X105618354Y-97910202D01*
X105675806Y-98025107D01*
X105675806Y-98140012D01*
X104871473Y-98369821D02*
X104871473Y-98829440D01*
X104469306Y-98542178D02*
X105503449Y-98542178D01*
X105618354Y-98599631D01*
X105675806Y-98714536D01*
X105675806Y-98829440D01*
X105560901Y-99231607D02*
X105618354Y-99289059D01*
X105675806Y-99231607D01*
X105618354Y-99174155D01*
X105560901Y-99231607D01*
X105675806Y-99231607D01*
X104928925Y-99231607D02*
X104986378Y-99289059D01*
X105043830Y-99231607D01*
X104986378Y-99174155D01*
X104928925Y-99231607D01*
X105043830Y-99231607D01*
X105560901Y-101414797D02*
X105618354Y-101357345D01*
X105675806Y-101184988D01*
X105675806Y-101070083D01*
X105618354Y-100897726D01*
X105503449Y-100782821D01*
X105388544Y-100725369D01*
X105158735Y-100667917D01*
X104986378Y-100667917D01*
X104756568Y-100725369D01*
X104641663Y-100782821D01*
X104526759Y-100897726D01*
X104469306Y-101070083D01*
X104469306Y-101184988D01*
X104526759Y-101357345D01*
X104584211Y-101414797D01*
X105675806Y-102621297D02*
X105101282Y-102219131D01*
X105675806Y-101931869D02*
X104469306Y-101931869D01*
X104469306Y-102391488D01*
X104526759Y-102506393D01*
X104584211Y-102563845D01*
X104699116Y-102621297D01*
X104871473Y-102621297D01*
X104986378Y-102563845D01*
X105043830Y-102506393D01*
X105101282Y-102391488D01*
X105101282Y-101931869D01*
X105675806Y-103770345D02*
X105675806Y-103080917D01*
X105675806Y-103425631D02*
X104469306Y-103425631D01*
X104641663Y-103310726D01*
X104756568Y-103195821D01*
X104814020Y-103080917D01*
X104584211Y-104229964D02*
X104526759Y-104287417D01*
X104469306Y-104402321D01*
X104469306Y-104689583D01*
X104526759Y-104804488D01*
X104584211Y-104861940D01*
X104699116Y-104919393D01*
X104814020Y-104919393D01*
X104986378Y-104861940D01*
X105675806Y-104172512D01*
X105675806Y-104919393D01*
X104584211Y-105379012D02*
X104526759Y-105436464D01*
X104469306Y-105551369D01*
X104469306Y-105838631D01*
X104526759Y-105953536D01*
X104584211Y-106010988D01*
X104699116Y-106068440D01*
X104814020Y-106068440D01*
X104986378Y-106010988D01*
X105675806Y-105321559D01*
X105675806Y-106068440D01*
X104469306Y-106815321D02*
X104469306Y-106930226D01*
X104526759Y-107045131D01*
X104584211Y-107102583D01*
X104699116Y-107160036D01*
X104928925Y-107217488D01*
X105216187Y-107217488D01*
X105445997Y-107160036D01*
X105560901Y-107102583D01*
X105618354Y-107045131D01*
X105675806Y-106930226D01*
X105675806Y-106815321D01*
X105618354Y-106700417D01*
X105560901Y-106642964D01*
X105445997Y-106585512D01*
X105216187Y-106528059D01*
X104928925Y-106528059D01*
X104699116Y-106585512D01*
X104584211Y-106642964D01*
X104526759Y-106700417D01*
X104469306Y-106815321D01*
D11*
G04 #@! TO.C,B1*
X81603259Y-88733092D02*
X85159259Y-88733092D01*
X81603259Y-92289092D02*
X81603259Y-88733092D01*
X76777259Y-92289092D02*
X81603259Y-92289092D01*
X81603259Y-105497092D02*
X76777259Y-105497092D01*
X81603259Y-109053092D02*
X81603259Y-105497092D01*
X85159259Y-109053092D02*
X81603259Y-109053092D01*
X85159259Y-105497092D02*
X85159259Y-109053092D01*
X87191259Y-105497092D02*
X85159259Y-105497092D01*
X89985259Y-102703092D02*
X87191259Y-105497092D01*
X89985259Y-95083092D02*
X89985259Y-102703092D01*
X87191259Y-92289092D02*
X89985259Y-95083092D01*
X85159259Y-92289092D02*
X87191259Y-92289092D01*
X85159259Y-88733092D02*
X85159259Y-92289092D01*
D12*
G04 #@! TO.C,U$16*
X100027259Y-109688092D02*
G75*
G03X100027259Y-109688092I-898000J0D01*
G01*
G04 #@! TO.C,B1*
D13*
X90800024Y-96127423D02*
X90836794Y-96237732D01*
X90873563Y-96274501D01*
X90947102Y-96311271D01*
X91057411Y-96311271D01*
X91130950Y-96274501D01*
X91167719Y-96237732D01*
X91204489Y-96164193D01*
X91204489Y-95870037D01*
X90432329Y-95870037D01*
X90432329Y-96127423D01*
X90469099Y-96200962D01*
X90505868Y-96237732D01*
X90579407Y-96274501D01*
X90652946Y-96274501D01*
X90726485Y-96237732D01*
X90763255Y-96200962D01*
X90800024Y-96127423D01*
X90800024Y-95870037D01*
X91204489Y-97046661D02*
X91204489Y-96605427D01*
X91204489Y-96826044D02*
X90432329Y-96826044D01*
X90542638Y-96752505D01*
X90616177Y-96678966D01*
X90652946Y-96605427D01*
G04 #@! TO.C,U$16*
D11*
X98947830Y-109694381D02*
X99223601Y-110429772D01*
X99499373Y-109694381D01*
X99591297Y-111440933D02*
X99131678Y-111119200D01*
X99591297Y-110889391D02*
X98626097Y-110889391D01*
X98626097Y-111257086D01*
X98672059Y-111349010D01*
X98718020Y-111394972D01*
X98809944Y-111440933D01*
X98947830Y-111440933D01*
X99039754Y-111394972D01*
X99085716Y-111349010D01*
X99131678Y-111257086D01*
X99131678Y-110889391D01*
X99085716Y-111854591D02*
X99085716Y-112176324D01*
X99591297Y-112314210D02*
X99591297Y-111854591D01*
X98626097Y-111854591D01*
X98626097Y-112314210D01*
X98626097Y-112589981D02*
X99591297Y-112911714D01*
X98626097Y-113233448D01*
G04 #@! TD*
M02*
