G04 #@! TF.GenerationSoftware,KiCad,Pcbnew,5.0.1-33cea8e~68~ubuntu16.04.1*
G04 #@! TF.CreationDate,2018-10-22T20:59:01-07:00*
G04 #@! TF.ProjectId,integrated-board,696E74656772617465642D626F617264,rev?*
G04 #@! TF.SameCoordinates,Original*
G04 #@! TF.FileFunction,Paste,Bot*
G04 #@! TF.FilePolarity,Positive*
%FSLAX46Y46*%
G04 Gerber Fmt 4.6, Leading zero omitted, Abs format (unit mm)*
G04 Created by KiCad (PCBNEW 5.0.1-33cea8e~68~ubuntu16.04.1) date Mon 22 Oct 2018 08:59:01 PM PDT*
%MOMM*%
%LPD*%
G01*
G04 APERTURE LIST*
%ADD10C,0.375000*%
%ADD11R,3.200000X3.200000*%
G04 APERTURE END LIST*
D10*
X139592857Y-128453571D02*
X139592857Y-126953571D01*
X139950000Y-126953571D01*
X140164285Y-127025000D01*
X140307142Y-127167857D01*
X140378571Y-127310714D01*
X140450000Y-127596428D01*
X140450000Y-127810714D01*
X140378571Y-128096428D01*
X140307142Y-128239285D01*
X140164285Y-128382142D01*
X139950000Y-128453571D01*
X139592857Y-128453571D01*
X141092857Y-127667857D02*
X141592857Y-127667857D01*
X141807142Y-128453571D02*
X141092857Y-128453571D01*
X141092857Y-126953571D01*
X141807142Y-126953571D01*
X142450000Y-128453571D02*
X142450000Y-126953571D01*
X143307142Y-128453571D01*
X143307142Y-126953571D01*
X144450000Y-129025000D02*
X144378571Y-128953571D01*
X144235714Y-128739285D01*
X144164285Y-128596428D01*
X144092857Y-128382142D01*
X144021428Y-128025000D01*
X144021428Y-127739285D01*
X144092857Y-127382142D01*
X144164285Y-127167857D01*
X144235714Y-127025000D01*
X144378571Y-126810714D01*
X144450000Y-126739285D01*
X145807142Y-127025000D02*
X145664285Y-126953571D01*
X145450000Y-126953571D01*
X145235714Y-127025000D01*
X145092857Y-127167857D01*
X145021428Y-127310714D01*
X144950000Y-127596428D01*
X144950000Y-127810714D01*
X145021428Y-128096428D01*
X145092857Y-128239285D01*
X145235714Y-128382142D01*
X145450000Y-128453571D01*
X145592857Y-128453571D01*
X145807142Y-128382142D01*
X145878571Y-128310714D01*
X145878571Y-127810714D01*
X145592857Y-127810714D01*
X146378571Y-129025000D02*
X146450000Y-128953571D01*
X146592857Y-128739285D01*
X146664285Y-128596428D01*
X146735714Y-128382142D01*
X146807142Y-128025000D01*
X146807142Y-127739285D01*
X146735714Y-127382142D01*
X146664285Y-127167857D01*
X146592857Y-127025000D01*
X146450000Y-126810714D01*
X146378571Y-126739285D01*
D11*
G04 #@! TO.C,B1*
X83381259Y-107118492D03*
X83381259Y-90667692D03*
G04 #@! TD*
M02*
