G04 #@! TF.GenerationSoftware,KiCad,Pcbnew,5.0.1-33cea8e~68~ubuntu16.04.1*
G04 #@! TF.CreationDate,2018-10-22T20:49:09-07:00*
G04 #@! TF.ProjectId,STM32,53544D33322E6B696361645F70636200,rev?*
G04 #@! TF.SameCoordinates,Original*
G04 #@! TF.FileFunction,Other,Fab,Bot*
%FSLAX46Y46*%
G04 Gerber Fmt 4.6, Leading zero omitted, Abs format (unit mm)*
G04 Created by KiCad (PCBNEW 5.0.1-33cea8e~68~ubuntu16.04.1) date Mon 22 Oct 2018 08:49:09 PM PDT*
%MOMM*%
%LPD*%
G01*
G04 APERTURE LIST*
%ADD10C,0.203200*%
%ADD11C,0.040640*%
G04 APERTURE END LIST*
D10*
G04 #@! TO.C,B1*
X81603259Y-105497092D02*
X76777259Y-105497092D01*
X81603259Y-109053092D02*
X81603259Y-105497092D01*
X85159259Y-109053092D02*
X81603259Y-109053092D01*
X85159259Y-105497092D02*
X85159259Y-109053092D01*
X87191259Y-105497092D02*
X85159259Y-105497092D01*
X89985259Y-102703092D02*
X87191259Y-105497092D01*
X89985259Y-95083092D02*
X89985259Y-102703092D01*
X87191259Y-92289092D02*
X89985259Y-95083092D01*
X85159259Y-92289092D02*
X87191259Y-92289092D01*
X85159259Y-88733092D02*
X85159259Y-92289092D01*
X81603259Y-88733092D02*
X85159259Y-88733092D01*
X81603259Y-92289092D02*
X81603259Y-88733092D01*
X76777259Y-92289092D02*
X81603259Y-92289092D01*
X84143059Y-107318492D02*
G75*
G03X84143059Y-107318492I-915800J0D01*
G01*
X84297059Y-90613692D02*
G75*
G03X84297059Y-90613692I-915800J0D01*
G01*
X76777259Y-93559092D02*
X76777259Y-92289092D01*
X79063259Y-95845092D02*
X76777259Y-93559092D01*
X79063259Y-101941092D02*
X79063259Y-95845092D01*
X76777259Y-104227092D02*
X79063259Y-101941092D01*
X76777259Y-105497092D02*
X76777259Y-104227092D01*
G04 #@! TD*
G04 #@! TO.C,B1*
D11*
X92194104Y-95930048D02*
X92212489Y-95911664D01*
X92230874Y-95856509D01*
X92230874Y-95819740D01*
X92212489Y-95764586D01*
X92175719Y-95727816D01*
X92138950Y-95709431D01*
X92065411Y-95691047D01*
X92010257Y-95691047D01*
X91936718Y-95709431D01*
X91899948Y-95727816D01*
X91863179Y-95764586D01*
X91844794Y-95819740D01*
X91844794Y-95856509D01*
X91863179Y-95911664D01*
X91881563Y-95930048D01*
X92230874Y-96316128D02*
X92047026Y-96187435D01*
X92230874Y-96095511D02*
X91844794Y-96095511D01*
X91844794Y-96242589D01*
X91863179Y-96279359D01*
X91881563Y-96297744D01*
X91918333Y-96316128D01*
X91973487Y-96316128D01*
X92010257Y-96297744D01*
X92028641Y-96279359D01*
X92047026Y-96242589D01*
X92047026Y-96095511D01*
X92230874Y-96683824D02*
X92230874Y-96463207D01*
X92230874Y-96573515D02*
X91844794Y-96573515D01*
X91899948Y-96536746D01*
X91936718Y-96499976D01*
X91955102Y-96463207D01*
X91881563Y-96830902D02*
X91863179Y-96849287D01*
X91844794Y-96886056D01*
X91844794Y-96977980D01*
X91863179Y-97014749D01*
X91881563Y-97033134D01*
X91918333Y-97051519D01*
X91955102Y-97051519D01*
X92010257Y-97033134D01*
X92230874Y-96812517D01*
X92230874Y-97051519D01*
X91881563Y-97198597D02*
X91863179Y-97216982D01*
X91844794Y-97253751D01*
X91844794Y-97345675D01*
X91863179Y-97382445D01*
X91881563Y-97400829D01*
X91918333Y-97419214D01*
X91955102Y-97419214D01*
X92010257Y-97400829D01*
X92230874Y-97180212D01*
X92230874Y-97419214D01*
X91844794Y-97658216D02*
X91844794Y-97694986D01*
X91863179Y-97731755D01*
X91881563Y-97750140D01*
X91918333Y-97768525D01*
X91991872Y-97786909D01*
X92083796Y-97786909D01*
X92157335Y-97768525D01*
X92194104Y-97750140D01*
X92212489Y-97731755D01*
X92230874Y-97694986D01*
X92230874Y-97658216D01*
X92212489Y-97621447D01*
X92194104Y-97603062D01*
X92157335Y-97584677D01*
X92083796Y-97566292D01*
X91991872Y-97566292D01*
X91918333Y-97584677D01*
X91881563Y-97603062D01*
X91863179Y-97621447D01*
X91844794Y-97658216D01*
G04 #@! TD*
M02*
